<svg width="401" height="160" viewBox="0 0 401 160" fill="none" xmlns="http://www.w3.org/2000/svg">
<path d="M63.9197 63.6509C63.9197 64.4807 63.4393 64.8738 62.4784 64.8301C60.9061 64.7428 58.6787 64.6991 55.7962 64.6991C54.748 64.6991 54.1365 64.7646 53.9618 64.8956C53.5978 65.114 53.4159 65.7255 53.4159 66.73C53.4159 68.2586 53.536 70.5625 53.7762 73.6416C54.0164 76.7206 54.142 79.0318 54.1529 80.575C54.1529 81.5358 53.6069 82.1054 52.5151 82.2838C49.9719 82.6085 47.4077 82.7399 44.8447 82.6768C38.7301 82.6768 35.6729 82.1964 35.6729 81.2355C35.7816 78.82 36.0241 76.4124 36.399 74.0237C36.7964 71.442 37.037 68.8386 37.1196 66.2277C37.1196 65.2232 36.7557 64.7209 36.0277 64.7209C32.4901 64.7209 27.1927 64.8301 20.1355 65.0485C13.0783 65.2669 7.78092 65.3761 4.24324 65.3761C1.62274 65.3761 0.3125 62.6882 0.3125 57.3126C0.3125 53.0761 0.727412 50.4556 1.55724 49.4511C4.57081 46.0007 8.89646 40.7233 14.5342 33.6189C21.5659 23.741 27.0252 15.8559 30.9123 9.96337C32.1352 8.03439 34.0132 5.17185 36.5464 1.37576C37.2452 0.458586 37.9222 0 38.5773 0C41.5909 0 46.2004 1.13555 52.4059 3.40665C53.7598 3.88708 54.4368 4.69506 54.4368 5.83061C54.4368 8.05804 54.273 11.4119 53.9454 15.8923C53.6179 20.3726 53.4541 23.7246 53.4541 25.9484C53.4541 27.9611 53.4323 31.4187 53.3886 36.3212C53.3012 40.7324 53.2794 44.19 53.3231 46.6941V52.0006C54.4586 52.0006 56.1292 51.9132 58.3348 51.7385C60.5404 51.5638 62.1891 51.4765 63.281 51.4765C63.6449 51.4765 63.8269 51.8404 63.8269 52.5684C63.8269 53.7913 63.8487 55.6365 63.8924 58.1042C63.8979 60.5118 63.9197 62.3843 63.9197 63.6509ZM39.4781 16.9241C39.4868 16.7701 39.4551 16.6166 39.3861 16.4787C39.3172 16.3408 39.2134 16.2233 39.085 16.1379C38.6919 16.1379 38.1241 16.8804 37.3817 18.3654C36.9449 19.3262 36.4863 20.2652 36.0059 21.1824C28.4501 31.3223 20.8925 41.5459 13.3331 51.8532C13.5515 52.3336 15.3203 52.5738 18.6396 52.5738H21.3256C28.6048 52.5738 34.0442 52.4646 37.6437 52.2463C37.6874 46.8742 37.7529 41.5004 37.8403 36.1247C38.015 29.2677 38.3789 24.0249 38.9321 20.3962C39.2961 18.2962 39.4781 17.1388 39.4781 16.9241Z" fill="#212529"/>
<path d="M142.694 42.0208C142.694 53.0342 139.438 62.5153 132.927 70.4642C125.983 78.9808 117.115 83.241 106.324 83.2446C95.5321 83.2482 86.6843 78.9881 79.78 70.4642C73.2288 62.4571 69.9531 52.976 69.9531 42.0208C69.9531 31.0657 73.2288 21.63 79.78 13.714C86.728 5.27739 95.5758 1.06093 106.324 1.06457C117.071 1.06821 125.939 5.25373 132.927 13.6211C139.442 21.5445 142.698 31.0111 142.694 42.0208ZM127.293 42.0208C127.293 35.2949 125.524 29.4843 121.986 24.589C118.048 19.217 112.827 16.531 106.324 16.531C99.8196 16.531 94.6222 19.217 90.7315 24.589C87.2812 29.4006 85.556 35.2112 85.556 42.0208C85.556 48.7541 87.303 54.5865 90.797 59.5181C94.7278 65.0248 99.9051 67.7782 106.329 67.7782C112.516 67.7782 117.672 64.9593 121.795 59.3216C125.442 54.2957 127.375 48.23 127.309 42.0208H127.293Z" fill="#212529"/>
<path d="M211.179 63.6509C211.179 64.4807 210.699 64.8738 209.738 64.8301C208.166 64.7428 205.936 64.6991 203.05 64.6991C202.002 64.6991 201.39 64.7646 201.216 64.8956C200.852 65.114 200.67 65.7255 200.67 66.73C200.67 68.2586 200.79 70.5625 201.03 73.6416C201.27 76.7206 201.39 79.0245 201.39 80.5531C201.39 81.514 200.845 82.0836 199.753 82.2619C197.218 82.5854 194.663 82.7168 192.11 82.655C185.988 82.655 182.929 82.1746 182.932 81.2137C183.04 78.8056 183.281 76.4053 183.653 74.0237C184.05 71.442 184.291 68.8385 184.374 66.2277C184.374 65.2232 184.01 64.7209 183.282 64.7209C179.744 64.7209 174.447 64.8301 167.389 65.0485C160.332 65.2669 155.035 65.3761 151.497 65.3761C148.877 65.3761 147.566 62.6882 147.566 57.3126C147.566 53.0761 147.981 50.4556 148.811 49.451C151.825 46.0007 156.15 40.7233 161.788 33.6189C168.82 23.741 174.279 15.8559 178.166 9.96337C179.389 8.03438 181.267 5.17185 183.8 1.37576C184.499 0.458586 185.176 0 185.831 0C188.845 0 193.454 1.13555 199.66 3.40665C201.014 3.88708 201.691 4.69506 201.691 5.83061C201.691 8.05804 201.527 11.4119 201.199 15.8923C200.872 20.3726 200.708 23.7246 200.708 25.9484C200.708 27.9611 200.686 31.4187 200.643 36.3212C200.555 40.7324 200.533 44.19 200.577 46.6941V52.0006C201.713 52.0006 203.383 51.9132 205.589 51.7385C207.794 51.5638 209.445 51.4765 210.54 51.4765C210.904 51.4765 211.086 51.8404 211.086 52.5684C211.086 53.7913 211.108 55.6365 211.152 58.1042C211.157 60.5117 211.179 62.3843 211.179 63.6509ZM186.732 16.9241C186.741 16.7701 186.709 16.6166 186.64 16.4787C186.571 16.3408 186.467 16.2233 186.339 16.1379C185.946 16.1379 185.378 16.8804 184.636 18.3653C184.199 19.3262 183.74 20.2652 183.26 21.1824C175.704 31.3223 168.156 41.5459 160.614 51.8532C160.833 52.3336 162.602 52.5738 165.921 52.5738H168.607C175.904 52.5738 181.344 52.4646 184.925 52.2463C184.969 46.8742 185.034 41.5004 185.122 36.1247C185.296 29.2677 185.66 24.0249 186.213 20.3962C186.559 18.2962 186.732 17.1388 186.732 16.9241Z" fill="#212529"/>
<path d="M9.89168 129.969C11.2599 129.937 12.6187 130.205 13.8729 130.753C15.1271 131.3 16.2464 132.116 17.1526 133.141C18.8627 135.039 19.7963 137.51 19.768 140.064C19.7397 142.618 18.7515 145.067 16.9998 146.926C16.0687 147.867 14.9604 148.614 13.7389 149.123C12.5174 149.633 11.207 149.895 9.8835 149.895C8.55995 149.895 7.24953 149.633 6.02804 149.123C4.80655 148.614 3.69824 147.867 2.76719 146.926C1.01664 145.07 0.0289509 142.623 0.000626436 140.072C-0.0276981 137.521 0.905416 135.052 2.61433 133.158C3.52057 132.127 4.64184 131.307 5.89919 130.756C7.15653 130.205 8.51935 129.937 9.89168 129.969ZM9.89168 132.355C8.91127 132.345 7.93951 132.539 7.03881 132.927C6.13811 133.314 5.32838 133.886 4.66159 134.604C3.95303 135.318 3.3947 136.166 3.01961 137.099C2.64453 138.032 2.46032 139.031 2.47784 140.037C2.47255 141.376 2.81692 142.693 3.4769 143.858C4.10669 144.998 5.03781 145.942 6.16837 146.588C7.30595 147.222 8.58665 147.554 9.88894 147.554C11.1912 147.554 12.4719 147.222 13.6095 146.588C14.7412 145.942 15.674 144.998 16.3064 143.858C16.9622 142.691 17.3045 141.375 17.3001 140.037C17.3198 139.031 17.1365 138.031 16.7613 137.098C16.3861 136.165 15.8266 135.317 15.1163 134.604C14.4507 133.883 13.6414 133.31 12.7406 132.92C11.8398 132.531 10.8675 132.335 9.88621 132.344L9.89168 132.355Z" fill="#212529"/>
<path d="M33.2522 129.969C34.6205 129.937 35.9792 130.205 37.2334 130.753C38.4876 131.3 39.6069 132.116 40.5132 133.141C42.2216 135.039 43.1546 137.509 43.1273 140.063C43.1 142.616 42.1144 145.066 40.3658 146.926C39.4343 147.867 38.3254 148.614 37.1035 149.124C35.8816 149.633 34.5707 149.896 33.2467 149.896C31.9227 149.896 30.6119 149.633 29.3899 149.124C28.168 148.614 27.0592 147.867 26.1277 146.926C24.3756 145.071 23.3873 142.623 23.36 140.071C23.3326 137.519 24.2683 135.05 25.9803 133.158C26.8852 132.126 28.0055 131.306 29.262 130.756C30.5185 130.205 31.8806 129.936 33.2522 129.969ZM33.2522 132.355C32.2718 132.345 31.3 132.539 30.3993 132.927C29.4986 133.314 28.6889 133.886 28.0221 134.604C27.3135 135.318 26.7552 136.166 26.3801 137.099C26.005 138.032 25.8208 139.031 25.8383 140.037C25.833 141.376 26.1774 142.693 26.8374 143.858C27.4672 144.998 28.3983 145.942 29.5289 146.588C30.6671 147.223 31.9488 147.556 33.2522 147.556C34.5555 147.556 35.8372 147.223 36.9755 146.588C38.106 145.942 39.0372 144.998 39.667 143.858C40.3227 142.691 40.665 141.375 40.6606 140.037C40.6803 139.031 40.497 138.031 40.1218 137.098C39.7466 136.165 39.1872 135.317 38.4768 134.604C37.8112 133.883 37.0019 133.31 36.1011 132.92C35.2003 132.531 34.228 132.335 33.2467 132.344L33.2522 132.355Z" fill="#212529"/>
<path d="M47.6719 130.461H50.1068V133.944C50.9716 132.708 52.1092 131.688 53.4315 130.963C54.7262 130.292 56.1663 129.951 57.6243 129.969C58.9147 129.953 60.1944 130.205 61.3829 130.707C62.5715 131.21 63.6431 131.953 64.5304 132.89C65.4583 133.801 66.1913 134.892 66.6849 136.095C67.1786 137.298 67.4226 138.589 67.4021 139.889C67.4284 141.202 67.1902 142.508 66.7015 143.727C66.2129 144.946 65.4838 146.055 64.5577 146.986C63.1594 148.429 61.3429 149.397 59.3651 149.751C57.3872 150.106 55.3478 149.83 53.5352 148.963C52.2058 148.282 51.037 147.325 50.1068 146.156V156.365H47.6719V130.461ZM57.4223 132.344C56.4303 132.323 55.4447 132.509 54.5283 132.89C53.6119 133.27 52.7848 133.838 52.0995 134.555C51.3836 135.277 50.8212 136.136 50.4459 137.081C50.0706 138.026 49.8903 139.037 49.9157 140.053C49.893 141.407 50.2242 142.743 50.8765 143.929C51.5256 145.078 52.4823 146.023 53.639 146.659C54.8028 147.323 56.1207 147.669 57.4605 147.663C58.76 147.665 60.0356 147.314 61.1511 146.648C62.3082 145.964 63.2603 144.981 63.9081 143.803C64.5731 142.64 64.9229 141.322 64.9229 139.982C64.9229 138.641 64.5731 137.324 63.9081 136.16C63.273 134.996 62.3339 134.025 61.1908 133.352C60.0476 132.679 58.7434 132.329 57.4169 132.339L57.4223 132.344Z" fill="#212529"/>
<path d="M81.4931 132.53L79.9262 134.168C78.6196 132.901 77.3458 132.268 76.1047 132.268C75.3492 132.253 74.6181 132.536 74.0683 133.054C73.8041 133.28 73.5917 133.56 73.4456 133.876C73.2996 134.192 73.2234 134.535 73.2221 134.883C73.2347 135.534 73.4829 136.159 73.9209 136.641C74.7688 137.481 75.7621 138.16 76.8526 138.644C78.6724 139.583 79.9062 140.493 80.5541 141.374C81.1854 142.239 81.5205 143.284 81.5095 144.355C81.5231 145.091 81.3847 145.822 81.1029 146.502C80.821 147.182 80.4019 147.797 79.8717 148.307C79.3352 148.845 78.695 149.267 77.9902 149.548C77.2853 149.83 76.5304 149.965 75.7717 149.945C74.6883 149.946 73.6187 149.702 72.6434 149.23C71.6778 148.778 70.8324 148.105 70.1758 147.265L71.7044 145.523C72.9491 146.924 74.2703 147.627 75.6679 147.631C76.5906 147.651 77.4851 147.312 78.1629 146.686C78.4849 146.414 78.7441 146.076 78.9222 145.694C79.1004 145.312 79.1933 144.896 79.1947 144.475C79.2018 143.792 78.9591 143.13 78.5122 142.613C78.0573 142.078 77.0346 141.405 75.4441 140.593C73.7298 139.709 72.567 138.841 71.9501 137.978C71.3347 137.122 71.0112 136.09 71.0274 135.036C71.0087 134.368 71.1302 133.704 71.3841 133.086C71.638 132.468 72.0187 131.91 72.5015 131.449C72.9949 130.974 73.5786 130.602 74.2181 130.356C74.8577 130.111 75.5401 129.996 76.2248 130.019C77.9718 129.986 79.7279 130.823 81.4931 132.53Z" fill="#212529"/>
<path d="M88.4916 145.578C88.7738 145.578 89.0531 145.635 89.3135 145.744C89.5739 145.853 89.8103 146.012 90.0091 146.212C90.2079 146.412 90.3652 146.65 90.472 146.911C90.5789 147.172 90.6331 147.452 90.6317 147.734C90.636 148.021 90.581 148.305 90.4701 148.569C90.3592 148.833 90.1949 149.071 89.9875 149.268C89.7902 149.47 89.5545 149.631 89.2943 149.74C89.0342 149.85 88.7548 149.906 88.4725 149.906C88.1902 149.906 87.9108 149.85 87.6506 149.74C87.3904 149.631 87.1548 149.47 86.9575 149.268C86.559 148.86 86.3359 148.313 86.3359 147.742C86.3359 147.172 86.559 146.624 86.9575 146.217C87.1548 146.009 87.3931 145.845 87.6572 145.735C87.9214 145.625 88.2055 145.572 88.4916 145.578Z" fill="#212529"/>
<path d="M98.3703 145.578C98.6525 145.578 98.9318 145.635 99.1922 145.744C99.4526 145.853 99.689 146.012 99.8878 146.212C100.087 146.412 100.244 146.65 100.351 146.911C100.458 147.172 100.512 147.452 100.51 147.734C100.515 148.018 100.462 148.299 100.354 148.561C100.246 148.823 100.086 149.06 99.8825 149.257C99.6853 149.459 99.4496 149.62 99.1895 149.729C98.9293 149.839 98.6498 149.895 98.3676 149.895C98.0853 149.895 97.8059 149.839 97.5457 149.729C97.2855 149.62 97.0499 149.459 96.8526 149.257C96.552 148.956 96.3473 148.573 96.2642 148.155C96.1811 147.738 96.2233 147.305 96.3856 146.912C96.5478 146.519 96.8229 146.182 97.1761 145.945C97.5292 145.707 97.9447 145.579 98.3703 145.578Z" fill="#212529"/>
<path d="M108.243 145.578C108.76 145.656 109.231 145.917 109.572 146.313C109.913 146.709 110.1 147.214 110.1 147.737C110.1 148.26 109.913 148.765 109.572 149.161C109.231 149.557 108.76 149.818 108.243 149.896C107.961 149.9 107.68 149.846 107.42 149.736C107.159 149.626 106.925 149.463 106.731 149.257C106.332 148.849 106.109 148.302 106.109 147.731C106.109 147.161 106.332 146.614 106.731 146.206C106.926 146.003 107.161 145.842 107.422 145.734C107.682 145.626 107.961 145.573 108.243 145.578Z" fill="#212529"/>
<path d="M131.168 133.627H133.608V137.11C134.471 135.876 135.607 134.858 136.928 134.134C138.224 133.463 139.666 133.122 141.126 133.141C142.415 133.124 143.694 133.374 144.883 133.875C146.071 134.376 147.143 135.117 148.032 136.051C148.959 136.962 149.692 138.053 150.185 139.256C150.679 140.459 150.923 141.749 150.904 143.05C150.93 144.363 150.692 145.668 150.203 146.887C149.714 148.107 148.985 149.215 148.059 150.147C146.663 151.593 144.847 152.563 142.868 152.918C140.889 153.273 138.849 152.995 137.037 152.123C135.707 151.446 134.537 150.491 133.608 149.322V159.504H131.168V133.627ZM140.924 135.494C139.933 135.47 138.948 135.652 138.031 136.028C137.114 136.403 136.285 136.965 135.596 137.678C134.88 138.4 134.319 139.259 133.943 140.204C133.568 141.148 133.387 142.159 133.412 143.175C133.391 144.53 133.722 145.868 134.373 147.057C135.021 148.208 135.98 149.154 137.141 149.787C138.296 150.448 139.604 150.796 140.935 150.797C142.234 150.799 143.51 150.448 144.625 149.781C145.782 149.097 146.735 148.115 147.382 146.937C148.053 145.775 148.406 144.457 148.406 143.115C148.406 141.774 148.053 140.456 147.382 139.294C146.748 138.13 145.809 137.16 144.667 136.487C143.525 135.814 142.222 135.463 140.897 135.472L140.924 135.494Z" fill="#212529"/>
<path d="M174.343 133.627V152.571H171.936V149.295C171.004 150.465 169.831 151.42 168.496 152.096C166.682 152.967 164.639 153.245 162.658 152.89C160.676 152.535 158.857 151.566 157.457 150.12C156.529 149.189 155.799 148.081 155.309 146.861C154.82 145.642 154.581 144.336 154.607 143.022C154.588 141.722 154.832 140.432 155.326 139.229C155.82 138.026 156.552 136.935 157.479 136.023C158.37 135.089 159.444 134.348 160.634 133.847C161.824 133.346 163.105 133.097 164.396 133.114C165.865 133.094 167.316 133.435 168.622 134.107C169.944 134.826 171.079 135.845 171.936 137.083V133.627H174.343ZM164.598 135.494C163.271 135.483 161.965 135.833 160.821 136.506C159.677 137.179 158.737 138.15 158.101 139.315C157.432 140.478 157.08 141.796 157.081 143.137C157.085 144.478 157.439 145.795 158.107 146.959C158.747 148.133 159.69 149.115 160.837 149.803C161.961 150.472 163.246 150.823 164.554 150.818C165.884 150.817 167.19 150.469 168.343 149.808C169.499 149.174 170.454 148.228 171.1 147.079C171.755 145.891 172.088 144.553 172.067 143.197C172.092 142.181 171.912 141.17 171.536 140.225C171.161 139.28 170.599 138.421 169.883 137.699C169.201 136.988 168.38 136.424 167.471 136.044C166.561 135.664 165.584 135.474 164.598 135.488V135.494Z" fill="#212529"/>
<path d="M196.167 133.627H198.607V148.727C198.607 151.386 198.372 153.335 197.908 154.563C197.311 156.256 196.133 157.682 194.584 158.587C192.849 159.565 190.88 160.052 188.889 159.996C187.405 160.015 185.928 159.783 184.522 159.308C183.349 158.921 182.272 158.29 181.361 157.457C180.406 156.474 179.645 155.32 179.117 154.056H181.765C182.408 155.234 183.376 156.203 184.555 156.845C185.872 157.488 187.326 157.799 188.791 157.752C190.25 157.797 191.696 157.478 193 156.824C194.035 156.31 194.889 155.495 195.452 154.487C195.936 153.548 196.18 152.036 196.183 149.95V148.968C195.287 150.11 194.135 151.026 192.82 151.643C191.377 152.311 189.796 152.627 188.207 152.563C186.617 152.499 185.066 152.059 183.681 151.277C182.198 150.46 180.969 149.252 180.127 147.783C179.289 146.313 178.856 144.648 178.871 142.957C178.871 140.355 179.903 137.86 181.74 136.018C183.577 134.176 186.07 133.137 188.671 133.13C190.042 133.121 191.397 133.421 192.635 134.009C194.007 134.716 195.216 135.704 196.183 136.908L196.167 133.627ZM188.977 135.494C187.627 135.485 186.298 135.829 185.122 136.493C183.959 137.144 182.996 138.101 182.338 139.261C181.671 140.424 181.322 141.742 181.328 143.082C181.3 144.039 181.472 144.992 181.832 145.879C182.192 146.766 182.732 147.569 183.419 148.236C184.919 149.544 186.842 150.264 188.832 150.264C190.822 150.264 192.745 149.544 194.245 148.236C194.931 147.538 195.466 146.706 195.817 145.792C196.168 144.878 196.328 143.902 196.287 142.924C196.311 141.59 195.987 140.273 195.348 139.103C194.725 137.985 193.803 137.064 192.684 136.444C191.553 135.807 190.275 135.477 188.977 135.488V135.494Z" fill="#212529"/>
<path d="M219.782 146.287L221.835 147.379C221.256 148.578 220.466 149.663 219.504 150.584C218.638 151.387 217.626 152.017 216.523 152.44C215.323 152.882 214.051 153.099 212.772 153.079C209.682 153.079 207.266 152.065 205.522 150.038C203.907 148.22 202.981 145.892 202.907 143.461C202.833 141.031 203.616 138.651 205.118 136.739C205.992 135.584 207.131 134.655 208.438 134.031C209.745 133.407 211.183 133.105 212.63 133.152C214.12 133.102 215.601 133.41 216.947 134.049C218.294 134.688 219.468 135.64 220.372 136.826C221.786 138.685 222.523 140.971 222.463 143.306H205.413C205.384 145.316 206.142 147.258 207.526 148.716C208.171 149.402 208.953 149.944 209.821 150.308C210.689 150.672 211.624 150.85 212.565 150.829C213.524 150.829 214.476 150.659 215.376 150.327C216.23 150.03 217.02 149.576 217.708 148.989C218.531 148.198 219.231 147.287 219.782 146.287ZM219.782 141.183C219.537 140.054 219.053 138.991 218.363 138.065C217.697 137.255 216.852 136.61 215.895 136.182C214.885 135.711 213.783 135.469 212.669 135.472C210.899 135.437 209.183 136.077 207.87 137.263C206.779 138.335 206.012 139.694 205.659 141.183H219.782Z" fill="#212529"/>
<path d="M236.887 133.627H239.322V137.023C240.18 135.829 241.286 134.834 242.564 134.107C243.75 133.463 245.08 133.13 246.43 133.141C247.768 133.121 249.081 133.502 250.202 134.233C251.286 134.937 252.132 135.951 252.632 137.143C253.152 138.358 253.412 140.256 253.412 142.837V152.571H250.977V143.536C251.03 142.074 250.938 140.611 250.704 139.168C250.506 138.061 249.927 137.059 249.067 136.335C248.161 135.671 247.055 135.338 245.933 135.39C244.486 135.385 243.087 135.903 241.991 136.848C240.852 137.774 240.042 139.044 239.682 140.467C239.39 142.169 239.273 143.896 239.333 145.621V152.571H236.898L236.887 133.627Z" fill="#212529"/>
<path d="M267.608 133.135C268.976 133.103 270.335 133.371 271.589 133.919C272.843 134.466 273.962 135.282 274.869 136.307C276.577 138.205 277.51 140.675 277.483 143.229C277.455 145.782 276.47 148.232 274.721 150.092C273.79 151.033 272.681 151.78 271.459 152.29C270.237 152.799 268.926 153.062 267.602 153.062C266.278 153.062 264.967 152.799 263.745 152.29C262.523 151.78 261.415 151.033 260.483 150.092C258.731 148.237 257.743 145.789 257.715 143.237C257.688 140.685 258.624 138.216 260.336 136.324C261.241 135.292 262.361 134.472 263.617 133.922C264.874 133.371 266.236 133.102 267.608 133.135ZM267.608 135.521C266.628 135.51 265.657 135.705 264.757 136.092C263.857 136.479 263.048 137.051 262.383 137.77C261.67 138.486 261.109 139.339 260.734 140.277C260.359 141.215 260.177 142.22 260.199 143.23C260.194 144.569 260.538 145.886 261.198 147.051C261.825 148.193 262.757 149.138 263.89 149.781C265.028 150.416 266.31 150.749 267.613 150.749C268.916 150.749 270.198 150.416 271.336 149.781C272.468 149.137 273.4 148.192 274.028 147.051C274.684 145.885 275.026 144.568 275.022 143.23C275.045 142.22 274.863 141.215 274.488 140.277C274.113 139.338 273.551 138.486 272.838 137.77C272.171 137.05 271.36 136.478 270.458 136.091C269.557 135.703 268.584 135.509 267.602 135.521H267.608Z" fill="#212529"/>
<path d="M284.123 126.584H286.558V133.627H290.429V135.734H286.558V152.571H284.123V135.729H280.793V133.627H284.123V126.584Z" fill="#212529"/>
<path d="M311.762 126.306V128.713C311.04 128.382 310.259 128.197 309.464 128.167C309.05 128.152 308.64 128.252 308.279 128.457C308.007 128.597 307.795 128.832 307.684 129.117C307.572 129.775 307.532 130.443 307.564 131.11V133.627H311.522V135.734H307.559V152.576H305.118V135.729H302.629V133.627H305.118V130.668C305.064 129.683 305.191 128.696 305.495 127.758C305.754 127.165 306.199 126.673 306.762 126.355C307.427 125.98 308.182 125.791 308.945 125.809C309.903 125.844 310.851 126.012 311.762 126.306Z" fill="#212529"/>
<path d="M324.131 133.135C325.498 133.103 326.856 133.371 328.109 133.919C329.363 134.467 330.481 135.282 331.386 136.307C333.098 138.203 334.034 140.674 334.006 143.229C333.979 145.783 332.991 148.233 331.239 150.092C330.307 151.033 329.198 151.78 327.977 152.29C326.755 152.799 325.444 153.062 324.12 153.062C322.796 153.062 321.485 152.799 320.263 152.29C319.041 151.78 317.932 151.033 317.001 150.092C315.252 148.235 314.266 145.788 314.239 143.237C314.212 140.686 315.145 138.218 316.853 136.324C317.76 135.293 318.881 134.473 320.138 133.922C321.395 133.371 322.758 133.103 324.131 133.135ZM324.131 135.521C323.151 135.511 322.18 135.706 321.281 136.093C320.381 136.481 319.572 137.052 318.906 137.77C318.193 138.486 317.632 139.339 317.256 140.277C316.881 141.215 316.7 142.22 316.722 143.23C316.718 144.568 317.06 145.885 317.716 147.051C318.344 148.192 319.276 149.137 320.407 149.781C321.546 150.416 322.827 150.749 324.131 150.749C325.434 150.749 326.716 150.416 327.854 149.781C328.986 149.137 329.917 148.192 330.545 147.051C331.205 145.886 331.55 144.569 331.545 143.23C331.568 142.22 331.386 141.215 331.011 140.277C330.636 139.338 330.074 138.486 329.361 137.77C328.692 137.051 327.881 136.479 326.978 136.092C326.076 135.704 325.102 135.51 324.12 135.521H324.131Z" fill="#212529"/>
<path d="M338.203 133.627H340.643V142.471C340.582 143.966 340.699 145.464 340.993 146.931C341.322 148.046 342.028 149.011 342.991 149.661C344.031 150.351 345.259 150.704 346.507 150.671C347.734 150.709 348.944 150.365 349.968 149.688C350.887 149.063 351.575 148.154 351.928 147.101C352.172 146.373 352.294 144.822 352.294 142.449V133.627H354.789V142.908C354.789 145.517 354.483 147.484 353.872 148.809C353.297 150.098 352.345 151.183 351.142 151.921C349.74 152.715 348.145 153.105 346.534 153.046C344.919 153.102 343.319 152.713 341.91 151.921C340.688 151.185 339.722 150.091 339.142 148.787C338.531 147.444 338.225 145.426 338.225 142.733L338.203 133.627Z" fill="#212529"/>
<path d="M360.199 133.627H362.645V137.022C363.504 135.829 364.61 134.834 365.888 134.107C367.07 133.463 368.396 133.128 369.742 133.135C371.08 133.116 372.394 133.496 373.515 134.227C374.598 134.931 375.445 135.945 375.944 137.137C376.461 138.353 376.721 140.251 376.725 142.831V152.571H374.29V143.536C374.342 142.074 374.251 140.611 374.017 139.168C373.819 138.061 373.239 137.059 372.379 136.335C371.473 135.671 370.367 135.338 369.245 135.39C367.791 135.382 366.382 135.902 365.282 136.853C364.142 137.78 363.332 139.049 362.973 140.473C362.688 142.179 362.578 143.909 362.645 145.637V152.571H360.21L360.199 133.627Z" fill="#212529"/>
<path d="M400.859 126.306V152.571H398.457V149.295C397.522 150.463 396.35 151.417 395.017 152.096C393.202 152.967 391.158 153.246 389.176 152.891C387.194 152.536 385.373 151.567 383.973 150.12C383.045 149.189 382.315 148.081 381.825 146.861C381.335 145.642 381.097 144.336 381.123 143.022C381.103 141.722 381.348 140.431 381.843 139.227C382.337 138.024 383.071 136.934 384 136.023C384.89 135.089 385.963 134.348 387.152 133.847C388.342 133.347 389.621 133.097 390.912 133.114C392.38 133.094 393.831 133.435 395.137 134.107C396.461 134.826 397.598 135.845 398.457 137.083V126.306H400.859ZM391.114 135.488C389.787 135.479 388.482 135.83 387.338 136.503C386.194 137.176 385.254 138.146 384.617 139.31C383.947 140.472 383.595 141.79 383.596 143.132C383.601 144.473 383.954 145.79 384.623 146.953C385.272 148.13 386.224 149.112 387.38 149.797C388.504 150.465 389.789 150.816 391.097 150.813C392.427 150.813 393.733 150.465 394.886 149.803C396.033 149.166 396.979 148.22 397.616 147.073C398.271 145.886 398.604 144.548 398.582 143.192C398.607 142.175 398.426 141.165 398.051 140.22C397.675 139.276 397.114 138.416 396.398 137.694C395.716 136.985 394.896 136.423 393.988 136.043C393.08 135.664 392.103 135.475 391.119 135.488H391.114Z" fill="#212529"/>
</svg>
