<svg width="24" height="24" viewBox="0 0 24 24" fill="none" xmlns="http://www.w3.org/2000/svg">
<path fill-rule="evenodd" clip-rule="evenodd" d="M11.4983 6.49688C8.73781 6.49688 6.5 8.73004 6.5 11.4848C6.5 14.2395 8.73781 16.4727 11.4983 16.4727C14.2588 16.4727 16.4966 14.2395 16.4966 11.4848C16.4966 8.73004 14.2588 6.49688 11.4983 6.49688ZM5 11.4848C5 7.90333 7.90938 5 11.4983 5C15.0872 5 17.9966 7.90333 17.9966 11.4848C17.9966 15.0662 15.0872 17.9696 11.4983 17.9696C7.90938 17.9696 5 15.0662 5 11.4848Z" fill="#212529"/>
<path fill-rule="evenodd" clip-rule="evenodd" d="M14.9651 15.2439C15.2576 14.9512 15.7325 14.9506 16.0257 15.2425L18.2794 17.4856C18.5727 17.7775 18.5733 18.2514 18.2808 18.5441C17.9883 18.8368 17.5134 18.8374 17.2201 18.5455L14.9665 16.3023C14.6732 16.0104 14.6726 15.5366 14.9651 15.2439Z" fill="#212529"/>
</svg>
