<?xml version="1.0" encoding="utf-8"?>
<!-- Generator: Adobe Illustrator 24.1.2, SVG Export Plug-In . SVG Version: 6.00 Build 0)  -->
<svg version="1.1" id="_x34_04" xmlns="http://www.w3.org/2000/svg" xmlns:xlink="http://www.w3.org/1999/xlink" x="0px" y="0px"
	 viewBox="0 0 3000 2025" style="enable-background:new 0 0 3000 2025;" xml:space="preserve">
<style type="text/css">
	.st0{fill:#FFFFFF;}
	.st1{clip-path:url(#XMLID_8_);fill:#4992CE;}
	.st2{fill:#F2F8FE;}
	.st3{opacity:0.42;clip-path:url(#XMLID_9_);fill:#77AAE9;}
	.st4{fill:#89503D;}
	.st5{clip-path:url(#XMLID_10_);fill:#8A4F3D;}
	.st6{fill:#9E5C46;}
	.st7{fill:#231F20;}
	.st8{fill:#ECC18F;}
	.st9{fill:#352F31;}
	.st10{clip-path:url(#XMLID_11_);}
	.st11{opacity:0.42;clip-path:url(#XMLID_11_);fill:#77AAE9;}
	.st12{fill:#E0A870;}
	.st13{clip-path:url(#XMLID_12_);fill:#8A4F3D;}
	.st14{opacity:0.42;clip-path:url(#XMLID_13_);fill:#77AAE9;}
	.st15{opacity:0.54;clip-path:url(#XMLID_13_);fill:#FFFFFF;}
	.st16{fill:#77AAE9;}
</style>
<rect class="st0" width="3000" height="2025"/>
<g>
	<defs>
		<ellipse id="XMLID_5_" cx="1500" cy="1654.34" rx="1267.34" ry="43.19"/>
	</defs>
	<use xlink:href="#XMLID_5_"  style="overflow:visible;fill:#77AAE9;"/>
	<clipPath id="XMLID_8_">
		<use xlink:href="#XMLID_5_"  style="overflow:visible;"/>
	</clipPath>
	<ellipse class="st1" cx="1533.96" cy="1627.4" rx="1178.75" ry="50.23"/>
</g>
<path class="st2" d="M2457.77,1633.7c57.6,0,95.19-58.45,95.27-125.84c0.71-574.73-118.99-1167.39-852.31-1204.84
	C843.41,259.24,522.51,442.54,424.46,1281.75c-21.78,186.45-77.15,355.23,264.53,351.96H2457.77z"/>
<g>
	<g>
		<defs>
			<path id="XMLID_3_" d="M1079.08,1555.87c0,0,8.45-102.25-88.27-120.05c-96.72-17.8-346.49-185.7-443.66-161.68
				c-40.91,10.11-3.05,125.58-27.76,187.35c-20.82,52.04-127.38,151.39-50.06,172.26h621.33L1079.08,1555.87z"/>
		</defs>
		<use xlink:href="#XMLID_3_"  style="overflow:visible;fill:#BCDEF9;"/>
		<clipPath id="XMLID_9_">
			<use xlink:href="#XMLID_3_"  style="overflow:visible;"/>
		</clipPath>
		<path class="st3" d="M687.36,1302.83c0,0-72.14,210.65-4.75,282.6c67.39,71.95,202.6,100.1,202.6,100.1h205.44v-347.05
			L687.36,1302.83"/>
	</g>
	<path class="st4" d="M1028.49,1391.96c0,0,150.41-15.22,217.27-39.73c66.86-24.51-33.43,280.63-33.43,280.63H965.67
		L1028.49,1391.96z"/>
	<g>
		<g>
			<defs>
				<path id="XMLID_1_" d="M1046.59,1448.39c0,88.98-89.24,128.07-189.75,128.07s-174.22-39.09-174.22-128.07
					c0-88.98,90.5-198.28,191.01-198.28S1046.59,1359.42,1046.59,1448.39z"/>
			</defs>
			<use xlink:href="#XMLID_1_"  style="overflow:visible;fill:#9E5C46;"/>
			<clipPath id="XMLID_10_">
				<use xlink:href="#XMLID_1_"  style="overflow:visible;"/>
			</clipPath>
			<path class="st5" d="M1008.93,1331.15c0,0,18.79,280.23-299.61,194.71c-318.4-85.52,0,0,0,0s27.52,112.31,174.52,79.15
				c146.99-33.16,191.2-102.11,190.09-151.07C1072.83,1404.97,1008.93,1331.15,1008.93,1331.15"/>
		</g>
		<path class="st6" d="M903.02,1253.54c-29.23-7.63-59.37-11.77-89.58-12.29c-8.08-0.14-16.35,0.01-23.91,2.87
			c-1.24,0.47-2.58,1.15-2.96,2.42c-0.62,2.07,1.7,3.78,3.74,4.5c3.18,1.13,6.56,1.68,9.93,1.62c-10.72,1.01-21.44,2.01-32.17,3.02
			c-9.08,0.85-19.17,2.21-24.96,9.26c-1.46,1.77-2.4,4.73-0.56,6.11c0.78,0.59,1.83,0.65,2.8,0.68c6.97,0.27,13.93,0.54,20.9,0.8
			c-15.01,2.74-29.37,8.95-41.64,18.01c-1.34,0.99-2.75,2.16-3.1,3.79c-0.79,3.7,3.98,5.89,7.72,6.48c23.26,3.66,47,1.61,70.46-0.44
			c19.02-1.66,38.11-3.34,56.73-7.59c9.4-2.15,18.96-5.12,26.25-11.43c7.29-6.32,11.76-16.74,8.59-25.85"/>
		<path class="st7" d="M776.06,1456.63c0,0,25.3,16.21,38.75-10.28C814.8,1446.35,801.36,1460.97,776.06,1456.63z"/>
		<path class="st7" d="M922.4,1435.82c0,0,17.11,22.18,43.27,3.98C965.67,1439.8,945.27,1447.26,922.4,1435.82z"/>
		<path class="st8" d="M915.23,1422.07c12.11-13.73,85.68,0.6,113.26,6.56c-0.21-38.49-24.06-73.1-70.67-62.62
			c-21.69,4.88-41.57,17.32-62.85,23.96c-2.05-2.28-4.8-3.99-7.48-5.55c-3.94-2.29-7.94-4.48-11.99-6.56
			c-2.01-1.04-4.5-2.04-6.43-0.84c-1.66,1.04-2.08,3.39-1.47,5.25c0.6,1.86,1.98,3.36,3.33,4.78c-6.5-6.08-13.54-11.59-21.01-16.43
			c-0.95-0.62-2.12-1.24-3.16-0.78c-0.52,0.23-0.89,0.7-1.14,1.21c-1.16,2.32-0.07,5.11,1.29,7.32c2.37,3.85,5.59,7.16,9.35,9.67
			c-6.09-3.77-12.42-7.15-18.97-10.06c-5.08-2.26-10.43-4.27-15.99-4.3c-1.12-0.01-2.45,0.21-2.91,1.23
			c-0.39,0.87,0.07,1.87,0.6,2.66c3.1,4.73,8.29,7.61,13.39,10.04c0.57,0.27,1.14,0.54,1.72,0.8c4.21,1.95,8.51,3.7,12.87,5.28
			c-20.42-1.66-40.32-5.44-60.19-4.81c-14.23,0.45-28.45,3.18-42.84,10.58c-28.1,14.45-40.97,39.36-37.42,67.17
			c23.1-14.19,89.81-47.54,114.18-31.3c25.03,16.69-52.42,76.71-77.48,95.24c69.22,59.06,206.62,35.32,261.87-36.54
			C940.1,1490.8,901.3,1437.85,915.23,1422.07z"/>
		<g>
			<path class="st0" d="M912.22,1521.68c2.33,3.65,3.43,8.17,2.57,12.42c-0.18,0.91-0.47,1.83-1.07,2.55c-1,1.2-2.68,1.6-4.23,1.55
				c-4.35-0.12-8.4-3.49-9.33-7.74c-0.51-2.36-0.5-5.41-2.72-6.36c-0.69-0.3-1.48-0.29-2.22-0.16c-3.46,0.61-6.13,3.81-9.64,4.08
				c-4.5,0.34-7.94-4.2-12.38-5.03c-1.3-0.24-2.67-0.16-3.89-0.68c-1.21-0.52-2.2-1.98-1.58-3.14c0.56-1.05,1.98-1.2,3.18-1.22
				c6.7-0.15,13.38-0.87,19.95-2.15c3.02-0.59,5.97-1.42,8.97-2.07c2.08-0.45,3.69-0.09,5.47,1.08
				C908.04,1516.58,910.47,1518.92,912.22,1521.68z"/>
			<path class="st9" d="M891.06,1514.13c-3.04,0.5-6.13,0.66-9.18,1.04l-4.6,0.32c-0.75,0.08-1.5,0.13-2.25,0.16
				c-2.14-5.78-2.65-14.57-2.62-21.93c12.43-1.31,21.84-9.11,21.18-17.78c-0.67-8.91-11.7-15.34-24.64-14.36
				c-12.94,0.98-22.88,8.99-22.21,17.89c0.59,7.81,9.15,13.72,19.98,14.39c0,7.11,0.49,15.58,2.41,22.01
				c-4.96,0.16-9.94,0.18-14.94,0.03c-6.2-0.15-12.41-0.5-18.77-0.96c5.79,2.74,12.04,4.35,18.35,5.39
				c6.32,1.04,12.75,1.37,19.16,1.08c3.21-0.08,6.4-0.52,9.59-0.89c1.58-0.29,3.16-0.57,4.74-0.89c0.79-0.17,1.58-0.29,2.35-0.49
				l2.33-0.64c6.22-1.57,12.17-4.17,17.65-7.39C903.26,1512.13,897.22,1513.46,891.06,1514.13z"/>
		</g>
		<path class="st6" d="M785.35,1409.05c-3.3,0.33-6.53,0.9-9.65,1.76c-3.17,0.87-6.71,2.8-8.32,5.81c-1.74,3.26-0.46,6.16,3.49,6.23
			c15.69,0.29,31.29-2.01,47-1.52c1.55,0.05,3.14,0.11,4.64-0.28c9.46-2.46-2.57-8.64-6.21-9.47
			C806.54,1409.35,795.65,1408.02,785.35,1409.05z"/>
		<path class="st6" d="M924.95,1392.31c-3.3,0.33-6.53,0.9-9.65,1.76c-3.17,0.87-6.71,2.8-8.32,5.81c-1.74,3.26-0.46,6.16,3.49,6.23
			c15.69,0.29,31.29-2.01,47-1.52c1.55,0.05,3.14,0.11,4.64-0.28c9.46-2.46-2.57-8.64-6.21-9.47
			C946.15,1392.61,935.26,1391.28,924.95,1392.31z"/>
		<path class="st8" d="M839.56,1250.11c-5.07-1.26-10.15-2.43-15.25-3.49c-5.09-1.05-10.22-2.02-15.33-2.52
			c-1.27-0.13-2.55-0.21-3.8-0.22c-1.24-0.01-2.5,0.05-3.53,0.33c-0.5,0.12-0.93,0.37-0.96,0.48c-0.02,0.05-0.01,0.02-0.01,0.08
			c0.02,0.06-0.01,0.04,0.03,0.18l0.08,0.34c0.26,0.89,0.85,1.63,1.73,2.23c1.75,1.22,4.22,1.81,6.64,2.13
			c2.44,0.31,5.02,0.38,7.45,0.23c1.01-0.06,1.88,0.71,1.94,1.72c0.06,0.99-0.67,1.83-1.65,1.93l-0.05,0.01
			c-6.82,0.67-13.67,1.38-20.47,2.3c-6.79,0.94-13.59,1.93-20.22,3.35c-3.3,0.72-6.61,1.54-9.59,2.71
			c-0.74,0.29-1.45,0.61-2.08,0.96c-0.62,0.34-1.17,0.75-1.41,1.02c-0.11,0.06-0.2,0.58-0.19,0.49c-0.04,0.01,0.02-0.03-0.02-0.02
			c0,0.01,0.04,0.02,0.03,0.06c0.07,0.04,0.11,0.09,0.17,0.15c0.1,0.06,0.2,0.12,0.29,0.19c1,0.52,2.61,0.85,4.17,1.03
			c1.59,0.18,3.25,0.24,4.91,0.24c3.33,0,6.75-0.23,10.05-0.6l0.05-0.01c1.19-0.13,2.27,0.73,2.4,1.92
			c0.12,1.06-0.55,2.04-1.55,2.33c-7.18,2.11-14.37,4.4-21.46,6.86c-7.08,2.45-14.18,4.99-20.84,8.22
			c-1.65,0.81-3.28,1.68-4.71,2.69c-0.7,0.5-1.39,1.05-1.81,1.6c-0.22,0.27-0.31,0.51-0.33,0.61c-0.01,0.09-0.03,0.12,0.12,0.31
			c0.18,0.18,0.46,0.39,0.81,0.55c0.35,0.18,0.82,0.33,1.22,0.5l1.26,0.5c0.43,0.15,0.87,0.26,1.3,0.4l1.31,0.39l1.35,0.28
			c0.45,0.09,0.9,0.19,1.35,0.27l1.37,0.18c7.34,0.87,14.95,0.08,22.27-1.72c-3.56,1.27-7.24,2.22-11,2.84
			c-3.75,0.61-7.59,0.91-11.44,0.66l-1.45-0.1c-0.48-0.05-0.96-0.13-1.44-0.19l-1.44-0.2l-1.43-0.32c-0.48-0.11-0.96-0.21-1.43-0.34
			l-1.4-0.47c-0.48-0.17-0.91-0.29-1.42-0.51c-0.5-0.22-1.03-0.51-1.55-0.98c-0.51-0.47-0.97-1.36-0.9-2.22
			c0.06-0.84,0.4-1.47,0.74-1.96c0.7-0.98,1.49-1.64,2.28-2.28c1.6-1.24,3.27-2.23,4.96-3.17c3.38-1.86,6.86-3.42,10.36-4.93
			c3.5-1.49,7.03-2.9,10.58-4.24c7.12-2.64,14.27-5.09,21.51-7.39l0.9,4.24c-3.55,0.42-7.02,0.68-10.59,0.71
			c-1.78,0.01-3.58-0.04-5.42-0.23c-1.85-0.23-3.71-0.46-5.81-1.5l-0.8-0.5c-0.27-0.21-0.55-0.45-0.81-0.7
			c-0.26-0.32-0.52-0.61-0.72-0.99c-0.18-0.4-0.4-0.8-0.45-1.23c-0.08-0.43-0.14-0.87-0.08-1.25c0.03-0.4,0.08-0.79,0.2-1.1
			c0.14-0.6,0.57-1.46,1.03-1.98c0.9-1.03,1.82-1.58,2.7-2.07c0.88-0.48,1.75-0.85,2.62-1.2c3.46-1.31,6.88-2.11,10.32-2.85
			c6.87-1.42,13.75-2.39,20.64-3.15c6.9-0.75,13.78-1.41,20.71-1.8l0.24,3.66c-2.79,0.06-5.44-0.1-8.16-0.54
			c-2.69-0.49-5.47-1.14-7.99-2.99c-1.23-0.92-2.33-2.36-2.7-4.02c-0.07-0.41-0.18-0.78-0.14-1.41c0.04-0.6,0.32-1.25,0.72-1.7
			c0.83-0.89,1.71-1.1,2.46-1.29c1.52-0.32,2.89-0.27,4.26-0.21c1.36,0.08,2.68,0.24,4,0.43c5.24,0.83,10.32,2.13,15.36,3.54
			C829.66,1246.77,834.64,1248.36,839.56,1250.11z"/>
	</g>
	<g>
		<defs>
			<path id="XMLID_2_" d="M1117.2,1632.86c0,0,26.04-254.46,48.32-282.03s372.8-87.53,508.12-100.71
				c560.8-54.62,1010.89,368.81,910.29,381.35c-32.26,4.02-212.74,1.39-212.74,1.39H1117.2z"/>
		</defs>
		<use xlink:href="#XMLID_2_"  style="overflow:visible;fill:#BCDEF9;"/>
		<clipPath id="XMLID_11_">
			<use xlink:href="#XMLID_2_"  style="overflow:visible;"/>
		</clipPath>
		<g class="st10">
			<path class="st0" d="M1427.71,1389.86c4.37,0,8.96-1.9,12.06-4.99c2.96-2.96,5.18-7.81,4.99-12.06
				c-0.2-4.41-1.65-8.98-4.99-12.06c-3.34-3.06-7.44-4.99-12.06-4.99c-4.37,0-8.96,1.9-12.06,4.99c-2.96,2.96-5.18,7.81-4.99,12.06
				c0.2,4.41,1.65,8.98,4.99,12.06C1418.99,1387.93,1423.09,1389.86,1427.71,1389.86L1427.71,1389.86z"/>
		</g>
		<g class="st10">
			<path class="st0" d="M1518,1506.99c4.37,0,8.96-1.9,12.06-4.99c2.96-2.96,5.18-7.81,4.99-12.06c-0.2-4.41-1.65-8.98-4.99-12.06
				c-3.34-3.06-7.44-4.99-12.06-4.99c-4.37,0-8.96,1.9-12.06,4.99c-2.96,2.96-5.18,7.81-4.99,12.06c0.2,4.41,1.65,8.98,4.99,12.06
				C1509.28,1505.06,1513.38,1506.99,1518,1506.99L1518,1506.99z"/>
		</g>
		<g class="st10">
			<path class="st0" d="M1635.13,1319.09c4.37,0,8.96-1.9,12.06-4.99c2.96-2.96,5.18-7.81,4.99-12.06
				c-0.2-4.41-1.65-8.98-4.99-12.06c-3.34-3.06-7.44-4.99-12.06-4.99c-4.37,0-8.96,1.9-12.06,4.99c-2.96,2.96-5.18,7.81-4.99,12.06
				c0.2,4.41,1.65,8.98,4.99,12.06C1626.41,1317.16,1630.51,1319.09,1635.13,1319.09L1635.13,1319.09z"/>
		</g>
		<g class="st10">
			<path class="st0" d="M1564.36,1402.06c4.37,0,8.96-1.9,12.06-4.99c2.96-2.96,5.18-7.81,4.99-12.06
				c-0.2-4.41-1.65-8.98-4.99-12.06c-3.34-3.06-7.44-4.99-12.06-4.99c-4.37,0-8.96,1.9-12.06,4.99c-2.96,2.96-5.18,7.81-4.99,12.06
				c0.2,4.41,1.65,8.98,4.99,12.06C1555.64,1400.13,1559.75,1402.06,1564.36,1402.06L1564.36,1402.06z"/>
		</g>
		<g class="st10">
			<path class="st0" d="M1508.24,1292.25c4.37,0,8.96-1.9,12.06-4.99c2.96-2.96,5.18-7.81,4.99-12.06
				c-0.2-4.41-1.65-8.98-4.99-12.06c-3.34-3.06-7.44-4.99-12.06-4.99c-4.37,0-8.96,1.9-12.06,4.99c-2.96,2.96-5.18,7.81-4.99,12.06
				c0.2,4.41,1.65,8.98,4.99,12.06C1499.52,1290.32,1503.62,1292.25,1508.24,1292.25L1508.24,1292.25z"/>
		</g>
		<g class="st10">
			<path class="st0" d="M1249.57,1397.18c4.37,0,8.96-1.9,12.06-4.99c2.96-2.96,5.18-7.81,4.99-12.06
				c-0.2-4.41-1.65-8.98-4.99-12.06c-3.34-3.06-7.44-4.99-12.06-4.99c-4.37,0-8.96,1.9-12.06,4.99c-2.96,2.96-5.18,7.81-4.99,12.06
				c0.2,4.41,1.65,8.98,4.99,12.06C1240.85,1395.25,1244.95,1397.18,1249.57,1397.18L1249.57,1397.18z"/>
		</g>
		<g class="st10">
			<path class="st0" d="M1334.98,1541.16c4.37,0,8.96-1.9,12.06-4.99c2.96-2.96,5.18-7.81,4.99-12.06
				c-0.2-4.41-1.65-8.98-4.99-12.06c-3.34-3.06-7.44-4.99-12.06-4.99c-4.37,0-8.96,1.9-12.06,4.99c-2.96,2.96-5.18,7.81-4.99,12.06
				c0.2,4.41,1.65,8.98,4.99,12.06C1326.26,1539.23,1330.36,1541.16,1334.98,1541.16L1334.98,1541.16z"/>
		</g>
		<g class="st10">
			<path class="st0" d="M1327.66,1433.79c4.37,0,8.96-1.9,12.06-4.99c2.96-2.96,5.18-7.81,4.99-12.06
				c-0.2-4.41-1.65-8.98-4.99-12.06c-3.34-3.06-7.44-4.99-12.06-4.99c-4.37,0-8.96,1.9-12.06,4.99c-2.96,2.96-5.18,7.81-4.99,12.06
				c0.2,4.41,1.65,8.98,4.99,12.06C1318.94,1431.86,1323.04,1433.79,1327.66,1433.79L1327.66,1433.79z"/>
		</g>
		<g class="st10">
			<path class="st0" d="M1188.56,1506.99c4.37,0,8.96-1.9,12.06-4.99c2.96-2.96,5.18-7.81,4.99-12.06
				c-0.2-4.41-1.65-8.98-4.99-12.06c-3.34-3.06-7.44-4.99-12.06-4.99c-4.37,0-8.96,1.9-12.06,4.99c-2.96,2.96-5.18,7.81-4.99,12.06
				c0.2,4.41,1.65,8.98,4.99,12.06C1179.84,1505.06,1183.94,1506.99,1188.56,1506.99L1188.56,1506.99z"/>
		</g>
		<g class="st10">
			<path class="st0" d="M1212.97,1602.16c4.37,0,8.96-1.9,12.06-4.99c2.96-2.96,5.18-7.81,4.99-12.06
				c-0.2-4.41-1.65-8.98-4.99-12.06c-3.34-3.06-7.44-4.99-12.06-4.99c-4.37,0-8.96,1.9-12.06,4.99c-2.96,2.96-5.18,7.81-4.99,12.06
				c0.2,4.41,1.65,8.98,4.99,12.06C1204.25,1600.23,1208.35,1602.16,1212.97,1602.16L1212.97,1602.16z"/>
		</g>
		<g class="st10">
			<path class="st0" d="M1454.77,1597.52c4.37,0,8.96-1.9,12.06-4.99c2.96-2.96,5.18-7.81,4.99-12.06
				c-0.2-4.41-1.65-8.98-4.99-12.06c-3.34-3.06-7.44-4.99-12.06-4.99c-4.37,0-8.96,1.9-12.06,4.99c-2.96,2.96-5.18,7.81-4.99,12.06
				c0.2,4.41,1.65,8.98,4.99,12.06C1446.05,1595.59,1450.15,1597.52,1454.77,1597.52L1454.77,1597.52z"/>
		</g>
		<g class="st10">
			<path class="st0" d="M1424.82,1477.72c4.37,0,8.96-1.9,12.06-4.99c2.96-2.96,5.18-7.81,4.99-12.06
				c-0.2-4.41-1.65-8.98-4.99-12.06c-3.34-3.06-7.44-4.99-12.06-4.99c-4.37,0-8.96,1.9-12.06,4.99c-2.96,2.96-5.18,7.81-4.99,12.06
				c0.2,4.41,1.65,8.98,4.99,12.06C1416.1,1475.79,1420.2,1477.72,1424.82,1477.72L1424.82,1477.72z"/>
		</g>
		<g class="st10">
			<path class="st0" d="M1704.36,1511c4.37,0,8.96-1.9,12.06-4.99c2.96-2.96,5.18-7.81,4.99-12.06c-0.2-4.41-1.65-8.98-4.99-12.06
				c-3.34-3.06-7.44-4.99-12.06-4.99c-4.37,0-8.96,1.9-12.06,4.99c-2.96,2.96-5.18,7.81-4.99,12.06c0.2,4.41,1.65,8.98,4.99,12.06
				C1695.64,1509.06,1699.74,1511,1704.36,1511L1704.36,1511z"/>
		</g>
		<g class="st10">
			<path class="st0" d="M1767.59,1361.24c4.37,0,8.96-1.9,12.06-4.99c2.96-2.96,5.18-7.81,4.99-12.06
				c-0.2-4.41-1.65-8.98-4.99-12.06c-3.34-3.06-7.44-4.99-12.06-4.99c-4.37,0-8.96,1.9-12.06,4.99c-2.96,2.96-5.18,7.81-4.99,12.06
				c0.2,4.41,1.65,8.98,4.99,12.06C1758.87,1359.31,1762.97,1361.24,1767.59,1361.24L1767.59,1361.24z"/>
		</g>
		<g class="st10">
			<path class="st0" d="M1647.79,1414.49c4.37,0,8.96-1.9,12.06-4.99c2.96-2.96,5.18-7.81,4.99-12.06
				c-0.2-4.41-1.65-8.98-4.99-12.06c-3.34-3.06-7.44-4.99-12.06-4.99c-4.37,0-8.96,1.9-12.06,4.99c-2.96,2.96-5.18,7.81-4.99,12.06
				c0.2,4.41,1.65,8.98,4.99,12.06C1639.07,1412.56,1643.17,1414.49,1647.79,1414.49L1647.79,1414.49z"/>
		</g>
		<g class="st10">
			<path class="st0" d="M1627.82,1600.85c4.37,0,8.96-1.9,12.06-4.99c2.96-2.96,5.18-7.81,4.99-12.06
				c-0.2-4.41-1.65-8.98-4.99-12.06c-3.34-3.06-7.44-4.99-12.06-4.99c-4.37,0-8.96,1.9-12.06,4.99c-2.96,2.96-5.18,7.81-4.99,12.06
				c0.2,4.41,1.65,8.98,4.99,12.06C1619.1,1598.92,1623.2,1600.85,1627.82,1600.85L1627.82,1600.85z"/>
		</g>
		<g class="st10">
			<path class="st0" d="M1874.09,1644.11c4.37,0,8.96-1.9,12.06-4.99c2.96-2.96,5.18-7.81,4.99-12.06
				c-0.2-4.41-1.65-8.98-4.99-12.06c-3.34-3.06-7.44-4.99-12.06-4.99c-4.37,0-8.96,1.9-12.06,4.99c-2.96,2.96-5.18,7.81-4.99,12.06
				c0.2,4.41,1.65,8.98,4.99,12.06C1865.37,1642.18,1869.47,1644.11,1874.09,1644.11L1874.09,1644.11z"/>
		</g>
		<g class="st10">
			<path class="st0" d="M1930.66,1464.41c4.37,0,8.96-1.9,12.06-4.99c2.96-2.96,5.18-7.81,4.99-12.06
				c-0.2-4.41-1.65-8.98-4.99-12.06c-3.34-3.06-7.44-4.99-12.06-4.99c-4.37,0-8.96,1.9-12.06,4.99c-2.96,2.96-5.18,7.81-4.99,12.06
				c0.2,4.41,1.65,8.98,4.99,12.06C1921.94,1462.47,1926.04,1464.41,1930.66,1464.41L1930.66,1464.41z"/>
		</g>
		<g class="st10">
			<path class="st0" d="M1787.56,1567.57c4.37,0,8.96-1.9,12.06-4.99c2.96-2.96,5.18-7.81,4.99-12.06
				c-0.2-4.41-1.65-8.98-4.99-12.06c-3.34-3.06-7.44-4.99-12.06-4.99c-4.37,0-8.96,1.9-12.06,4.99c-2.96,2.96-5.18,7.81-4.99,12.06
				c0.2,4.41,1.65,8.98,4.99,12.06C1778.84,1565.64,1782.94,1567.57,1787.56,1567.57L1787.56,1567.57z"/>
		</g>
		<g class="st10">
			<path class="st0" d="M1814.18,1457.75c4.37,0,8.96-1.9,12.06-4.99c2.96-2.96,5.18-7.81,4.99-12.06
				c-0.2-4.41-1.65-8.98-4.99-12.06c-3.34-3.06-7.44-4.99-12.06-4.99c-4.37,0-8.96,1.9-12.06,4.99c-2.96,2.96-5.18,7.81-4.99,12.06
				c0.2,4.41,1.65,8.98,4.99,12.06C1805.46,1455.82,1809.56,1457.75,1814.18,1457.75L1814.18,1457.75z"/>
		</g>
		<g class="st10">
			<path class="st0" d="M1924,1271.39c4.37,0,8.96-1.9,12.06-4.99c2.96-2.96,5.18-7.81,4.99-12.06c-0.2-4.41-1.65-8.98-4.99-12.06
				c-3.34-3.06-7.44-4.99-12.06-4.99c-4.37,0-8.96,1.9-12.06,4.99c-2.96,2.96-5.18,7.81-4.99,12.06c0.2,4.41,1.65,8.98,4.99,12.06
				C1915.28,1269.46,1919.38,1271.39,1924,1271.39L1924,1271.39z"/>
		</g>
		<g class="st10">
			<path class="st0" d="M1770.92,1288.03c4.37,0,8.96-1.9,12.06-4.99c2.96-2.96,5.18-7.81,4.99-12.06
				c-0.2-4.41-1.65-8.98-4.99-12.06c-3.34-3.06-7.44-4.99-12.06-4.99c-4.37,0-8.96,1.9-12.06,4.99c-2.96,2.96-5.18,7.81-4.99,12.06
				c0.2,4.41,1.65,8.98,4.99,12.06C1762.2,1286.1,1766.3,1288.03,1770.92,1288.03L1770.92,1288.03z"/>
		</g>
		<g class="st10">
			<path class="st0" d="M2163.61,1481.04c4.37,0,8.96-1.9,12.06-4.99c2.96-2.96,5.18-7.81,4.99-12.06
				c-0.2-4.41-1.65-8.98-4.99-12.06c-3.34-3.06-7.44-4.99-12.06-4.99c-4.37,0-8.96,1.9-12.06,4.99c-2.96,2.96-5.18,7.81-4.99,12.06
				c0.2,4.41,1.65,8.98,4.99,12.06C2154.89,1479.11,2158.99,1481.04,2163.61,1481.04L2163.61,1481.04z"/>
		</g>
		<g class="st10">
			<path class="st0" d="M2090.4,1354.59c4.37,0,8.96-1.9,12.06-4.99c2.96-2.96,5.18-7.81,4.99-12.06c-0.2-4.41-1.65-8.98-4.99-12.06
				c-3.34-3.06-7.44-4.99-12.06-4.99c-4.37,0-8.96,1.9-12.06,4.99c-2.96,2.96-5.18,7.81-4.99,12.06c0.2,4.41,1.65,8.98,4.99,12.06
				C2081.68,1352.65,2085.78,1354.59,2090.4,1354.59L2090.4,1354.59z"/>
		</g>
		<g class="st10">
			<path class="st0" d="M1924,1364.57c4.37,0,8.96-1.9,12.06-4.99c2.96-2.96,5.18-7.81,4.99-12.06c-0.2-4.41-1.65-8.98-4.99-12.06
				c-3.34-3.06-7.44-4.99-12.06-4.99c-4.37,0-8.96,1.9-12.06,4.99c-2.96,2.96-5.18,7.81-4.99,12.06c0.2,4.41,1.65,8.98,4.99,12.06
				C1915.28,1362.64,1919.38,1364.57,1924,1364.57L1924,1364.57z"/>
		</g>
		<g class="st10">
			<path class="st0" d="M2040.48,1431.13c4.37,0,8.96-1.9,12.06-4.99c2.96-2.96,5.18-7.81,4.99-12.06
				c-0.2-4.41-1.65-8.98-4.99-12.06c-3.34-3.06-7.44-4.99-12.06-4.99c-4.37,0-8.96,1.9-12.06,4.99c-2.96,2.96-5.18,7.81-4.99,12.06
				c0.2,4.41,1.65,8.98,4.99,12.06C2031.76,1429.19,2035.86,1431.13,2040.48,1431.13L2040.48,1431.13z"/>
		</g>
		<g class="st10">
			<path class="st0" d="M2057.12,1577.55c4.37,0,8.96-1.9,12.06-4.99c2.96-2.96,5.18-7.81,4.99-12.06
				c-0.2-4.41-1.65-8.98-4.99-12.06c-3.34-3.06-7.44-4.99-12.06-4.99c-4.37,0-8.96,1.9-12.06,4.99c-2.96,2.96-5.18,7.81-4.99,12.06
				c0.2,4.41,1.65,8.98,4.99,12.06C2048.4,1575.62,2052.5,1577.55,2057.12,1577.55L2057.12,1577.55z"/>
		</g>
		<g class="st10">
			<path class="st0" d="M1947.3,1570.9c4.37,0,8.96-1.9,12.06-4.99c2.96-2.96,5.18-7.81,4.99-12.06c-0.2-4.41-1.65-8.98-4.99-12.06
				c-3.34-3.06-7.44-4.99-12.06-4.99c-4.37,0-8.96,1.9-12.06,4.99c-2.96,2.96-5.18,7.81-4.99,12.06c0.2,4.41,1.65,8.98,4.99,12.06
				C1938.58,1568.97,1942.68,1570.9,1947.3,1570.9L1947.3,1570.9z"/>
		</g>
		<g class="st10">
			<path class="st0" d="M2196.89,1614.16c4.37,0,8.96-1.9,12.06-4.99c2.96-2.96,5.18-7.81,4.99-12.06
				c-0.2-4.41-1.65-8.98-4.99-12.06c-3.34-3.06-7.44-4.99-12.06-4.99c-4.37,0-8.96,1.9-12.06,4.99c-2.96,2.96-5.18,7.81-4.99,12.06
				c0.2,4.41,1.65,8.98,4.99,12.06C2188.17,1612.23,2192.27,1614.16,2196.89,1614.16L2196.89,1614.16z"/>
		</g>
		<g class="st10">
			<path class="st0" d="M2270.1,1520.98c4.37,0,8.96-1.9,12.06-4.99c2.96-2.96,5.18-7.81,4.99-12.06c-0.2-4.41-1.65-8.98-4.99-12.06
				c-3.34-3.06-7.44-4.99-12.06-4.99c-4.37,0-8.96,1.9-12.06,4.99c-2.96,2.96-5.18,7.81-4.99,12.06c0.2,4.41,1.65,8.98,4.99,12.06
				C2261.38,1519.05,2265.48,1520.98,2270.1,1520.98L2270.1,1520.98z"/>
		</g>
		<g class="st10">
			<path class="st0" d="M2210.2,1411.16c4.37,0,8.96-1.9,12.06-4.99c2.96-2.96,5.18-7.81,4.99-12.06c-0.2-4.41-1.65-8.98-4.99-12.06
				c-3.34-3.06-7.44-4.99-12.06-4.99c-4.37,0-8.96,1.9-12.06,4.99c-2.96,2.96-5.18,7.81-4.99,12.06c0.2,4.41,1.65,8.98,4.99,12.06
				C2201.48,1409.23,2205.58,1411.16,2210.2,1411.16L2210.2,1411.16z"/>
		</g>
		<g class="st10">
			<path class="st0" d="M2443.15,1544.27c4.37,0,8.96-1.9,12.06-4.99c2.96-2.96,5.18-7.81,4.99-12.06
				c-0.2-4.41-1.65-8.98-4.99-12.06c-3.34-3.06-7.44-4.99-12.06-4.99c-4.37,0-8.96,1.9-12.06,4.99c-2.96,2.96-5.18,7.81-4.99,12.06
				c0.2,4.41,1.65,8.98,4.99,12.06C2434.43,1542.34,2438.53,1544.27,2443.15,1544.27L2443.15,1544.27z"/>
		</g>
		<g class="st10">
			<path class="st0" d="M2343.32,1447.77c4.37,0,8.96-1.9,12.06-4.99c2.96-2.96,5.18-7.81,4.99-12.06
				c-0.2-4.41-1.65-8.98-4.99-12.06c-3.34-3.06-7.44-4.99-12.06-4.99c-4.37,0-8.96,1.9-12.06,4.99c-2.96,2.96-5.18,7.81-4.99,12.06
				c0.2,4.41,1.65,8.98,4.99,12.06C2334.6,1445.83,2338.7,1447.77,2343.32,1447.77L2343.32,1447.77z"/>
		</g>
		<g class="st10">
			<path class="st0" d="M2339.99,1617.49c4.37,0,8.96-1.9,12.06-4.99c2.96-2.96,5.18-7.81,4.99-12.06
				c-0.2-4.41-1.65-8.98-4.99-12.06c-3.34-3.06-7.44-4.99-12.06-4.99c-4.37,0-8.96,1.9-12.06,4.99c-2.96,2.96-5.18,7.81-4.99,12.06
				c0.2,4.41,1.65,8.98,4.99,12.06C2331.27,1615.56,2335.37,1617.49,2339.99,1617.49L2339.99,1617.49z"/>
		</g>
		<g class="st10">
			<path class="st0" d="M2469.78,1617.49c4.37,0,8.96-1.9,12.06-4.99c2.96-2.96,5.18-7.81,4.99-12.06
				c-0.2-4.41-1.65-8.98-4.99-12.06c-3.34-3.06-7.44-4.99-12.06-4.99c-4.37,0-8.96,1.9-12.06,4.99c-2.96,2.96-5.18,7.81-4.99,12.06
				c0.2,4.41,1.65,8.98,4.99,12.06C2461.06,1615.56,2465.16,1617.49,2469.78,1617.49L2469.78,1617.49z"/>
		</g>
		<g class="st10">
			<path class="st0" d="M1328.31,1624.14c4.37,0,8.96-1.9,12.06-4.99c2.96-2.96,5.18-7.81,4.99-12.06
				c-0.2-4.41-1.65-8.98-4.99-12.06c-3.34-3.06-7.44-4.99-12.06-4.99c-4.37,0-8.96,1.9-12.06,4.99c-2.96,2.96-5.18,7.81-4.99,12.06
				c0.2,4.41,1.65,8.98,4.99,12.06C1319.59,1622.21,1323.69,1624.14,1328.31,1624.14L1328.31,1624.14z"/>
		</g>
		<g class="st10">
			<path class="st0" d="M1338.3,1351.26c4.37,0,8.96-1.9,12.06-4.99c2.96-2.96,5.18-7.81,4.99-12.06c-0.2-4.41-1.65-8.98-4.99-12.06
				c-3.34-3.06-7.44-4.99-12.06-4.99c-4.37,0-8.96,1.9-12.06,4.99c-2.96,2.96-5.18,7.81-4.99,12.06c0.2,4.41,1.65,8.98,4.99,12.06
				C1329.58,1349.33,1333.68,1351.26,1338.3,1351.26L1338.3,1351.26z"/>
		</g>
		<path class="st11" d="M1236.9,1324.9c0,0,80.28,225.33,312.15,239.03s1076.11,32.29,1076.11,32.29v58.11H1058.55l75.1-317.49
			L1236.9,1324.9"/>
	</g>
	<g>
		<path class="st8" d="M919,1616.38c-3.67-11.18-14.1-18.75-25.85-19.42c-27.95-1.58-89.33-2.38-127.9,17.08
			c-51.21,25.84-99.85,69.36-76.81,62.96c23.04-6.4,88.33-53.07,117.78-48.65c29.44,4.42,105.24,7.68,112.15-1.28
			C920.53,1624.27,920.31,1620.39,919,1616.38z"/>
		<path class="st8" d="M918.24,1623.15c0,0-120.78-0.2-132.39,9.86c-11.61,10.06-78.14,49.12-69.69,52.29
			c8.45,3.17,76.02-27.3,89.75-31.07c13.73-3.77,119.32,11.39,122.48,0.12C931.55,1643.06,918.24,1623.15,918.24,1623.15z"/>
		<path class="st12" d="M806.22,1628.35c0,0,59.03-7.36,78.99-4.86C885.21,1623.49,845.02,1610.78,806.22,1628.35z"/>
	</g>
	<g>
		<defs>
			<path id="XMLID_6_" d="M903.02,1594.89l230.63-103.39l-16.45,141.36c0,0-173.93,31.47-207.61,29.92
				C875.91,1661.23,903.02,1594.89,903.02,1594.89z"/>
		</defs>
		<use xlink:href="#XMLID_6_"  style="overflow:visible;fill:#9E5C45;"/>
		<clipPath id="XMLID_12_">
			<use xlink:href="#XMLID_6_"  style="overflow:visible;"/>
		</clipPath>
		<path class="st13" d="M872.51,1633.75c0,0,186.19-14.29,294.08-83.57v104.16l-299.38,23.3L872.51,1633.75z"/>
	</g>
	<g>
		<g>
			<defs>
				<path id="XMLID_4_" d="M1008.93,1338.48c0,0-105.92-28.32-169.37-81.04c-63.73-52.94,155.93-148.19,226.7-138.31
					c70.77,9.88,104.74,220.57,24.39,352.22l-44.06-195.92C1046.59,1275.43,1052,1322.48,1008.93,1338.48z"/>
			</defs>
			<use xlink:href="#XMLID_4_"  style="overflow:visible;fill:#BCDEF9;"/>
			<clipPath id="XMLID_13_">
				<use xlink:href="#XMLID_4_"  style="overflow:visible;"/>
			</clipPath>
			<path class="st14" d="M944.03,1316.12c0,0,96.48-57.13,102.56-95.16s54.14,165.74,41.85,240.57c-12.28,74.83,0,0,0,0
				l-41.85-126.95l-45.36,16.24L944.03,1316.12"/>
			<path class="st15" d="M851.88,1197.93c0,0,120.98,89.99,189.42,128.6l-40.07,24.29c0,0-168.87-61.79-184.61-100.95
				C800.88,1210.71,851.88,1197.93,851.88,1197.93"/>
		</g>
		<circle class="st0" cx="1089.08" cy="1487.51" r="26.02"/>
	</g>
</g>
<g>
	<path class="st16" d="M1328.16,819.79h-100.83v-45.52l100.83-119.86h48.24v122.44h25v42.94h-25v37.23h-48.24V819.79z
		 M1328.16,776.85v-62.7l-53.28,62.7H1328.16z"/>
	<path class="st16" d="M1418.67,756.6c0-37.87,6.82-64.37,20.45-79.5c13.63-15.13,34.4-22.69,62.31-22.69
		c13.41,0,24.41,1.65,33.02,4.96c8.61,3.31,15.63,7.61,21.06,12.91c5.44,5.3,9.72,10.87,12.84,16.72
		c3.13,5.84,5.64,12.66,7.54,20.45c3.71,14.86,5.57,30.35,5.57,46.48c0,36.15-6.12,62.6-18.35,79.36
		c-12.23,16.76-33.29,25.14-63.19,25.14c-16.76,0-30.3-2.67-40.63-8.02c-10.33-5.34-18.8-13.18-25.41-23.51
		c-4.8-7.34-8.54-17.37-11.21-30.1C1420,786.07,1418.67,772,1418.67,756.6z M1473.57,756.74c0,25.37,2.24,42.69,6.73,51.98
		c4.48,9.29,10.98,13.93,19.5,13.93c5.62,0,10.48-1.97,14.61-5.91c4.12-3.94,7.16-10.17,9.1-18.69c1.95-8.51,2.92-21.79,2.92-39.82
		c0-26.45-2.24-44.23-6.73-53.34c-4.48-9.1-11.21-13.66-20.18-13.66c-9.15,0-15.76,4.64-19.84,13.93
		C1475.61,714.45,1473.57,731.64,1473.57,756.74z"/>
	<path class="st16" d="M1699.42,819.79h-100.83v-45.52l100.83-119.86h48.24v122.44h25v42.94h-25v37.23h-48.24V819.79z
		 M1699.42,776.85v-62.7l-53.28,62.7H1699.42z"/>
</g>
</svg>
