<svg width="12" height="12" viewBox="0 0 12 12" fill="none" xmlns="http://www.w3.org/2000/svg">
<path d="M11.7338 0.275344C11.3788 -0.0796052 10.8055 -0.0796052 10.4505 0.275344L6 4.71675L1.54949 0.266242C1.19454 -0.0887067 0.62116 -0.0887067 0.266212 0.266242C-0.0887372 0.621191 -0.0887372 1.19457 0.266212 1.54952L4.71672 6.00003L0.266212 10.4505C-0.0887372 10.8055 -0.0887372 11.3789 0.266212 11.7338C0.62116 12.0888 1.19454 12.0888 1.54949 11.7338L6 7.28331L10.4505 11.7338C10.8055 12.0888 11.3788 12.0888 11.7338 11.7338C12.0887 11.3789 12.0887 10.8055 11.7338 10.4505L7.28328 6.00003L11.7338 1.54952C12.0796 1.20367 12.0796 0.621191 11.7338 0.275344Z" fill="#212529"/>
</svg>
