<?xml version="1.0" encoding="utf-8"?>
<!-- Generator: Adobe Illustrator 24.1.2, SVG Export Plug-In . SVG Version: 6.00 Build 0)  -->
<svg version="1.1" id="Layer_1" xmlns="http://www.w3.org/2000/svg" xmlns:xlink="http://www.w3.org/1999/xlink" x="0px" y="0px"
	 viewBox="0 0 800 133" style="enable-background:new 0 0 800 133;" xml:space="preserve">
<style type="text/css">
	.st0{clip-path:url(#SVGID_2_);}
	.st1{fill:#FFFFFF;}
	.st2{fill-rule:evenodd;clip-rule:evenodd;fill:#FFFFFF;}
	.st3{fill:#B0B1B2;fill-opacity:0.5;}
	.st4{fill:none;stroke:#FFFFFF;stroke-opacity:0.75;}
	.st5{fill-rule:evenodd;clip-rule:evenodd;fill:#B0B1B2;fill-opacity:0.5;}
	.st6{fill:none;stroke:#FFFFFF;stroke-width:10;stroke-linecap:round;stroke-linejoin:round;}
</style>
<g>
	<g>
		<defs>
			<rect id="SVGID_1_" x="472.54" y="1.3" width="327.46" height="130.16"/>
		</defs>
		<clipPath id="SVGID_2_">
			<use xlink:href="#SVGID_1_"  style="overflow:visible;"/>
		</clipPath>
		<g class="st0">
			<path class="st1" d="M749.93,83.02l9.24-56.89h14.91l-1.37,7.55c0.97-1.38,1.86-2.44,2.59-3.24c0.73-0.82,1.54-1.54,2.51-2.44
				c0.97-0.73,1.94-1.38,3-1.79c1.05-0.49,2.19-0.89,3.4-1.14c1.22-0.32,2.43-0.4,3.73-0.4c1.78,0,3.48,0.32,5.1,0.89
				c1.54,0.57,2.91,1.38,3.89,2.44c0.97,1.05,1.78,2.36,2.34,3.89c0.49,1.54,0.81,3.33,0.81,5.11c0,1.79-0.08,3.65-0.4,5.6
				l-1.46,9.09l-4.94,31.24H778.2l4.87-29.13c0.57-4.21,0.4-7.14-0.4-8.84c-0.89-1.62-2.11-2.44-3.73-2.44
				c-1.46,0-2.83,0.73-4.3,2.11c-1.46,1.46-2.76,3.41-3.81,6.17c-1.05,2.68-2.11,7.14-3.24,13.22l-3.08,18.9h-14.59v0.09H749.93z"/>
			<path class="st1" d="M706.18,43.58l6.48-15.5c7.38-2.36,13.69-3.49,18.87-3.49c2.91,0,5.51,0.49,7.78,1.46
				c2.27,0.97,3.97,2.59,5.02,4.78c1.05,2.19,1.46,5.35,0.73,9.41l-7.05,42.68h-14.67c0.89-4.06,2.43-12.58,4.53-25.32
				c-1.05,0.65-1.86,1.14-2.43,1.38c-0.49,0.32-1.54,0.73-3,1.38c-1.37,0.57-2.51,1.14-3.33,1.54c-0.81,0.4-1.54,0.97-2.19,1.54
				c-0.65,0.73-1.14,1.38-1.46,1.95c-0.32,0.65-0.49,1.38-0.65,2.19c-0.17,1.3,0,2.36,0.57,3.24c0.49,0.97,1.54,1.38,3,1.38
				c0.49,0,1.14-0.08,1.7-0.17c0.65-0.08,5.35-0.82,6.4-1.38c-2.19,2.44-6.56,7.95-9.07,12.42c-2.19,0.49-3.24,1.3-5.1,1.3
				c-3.08,0-5.51-0.65-7.38-1.95c-1.86-1.22-3.16-3.33-3.88-6.17c-0.73-2.84-0.89-5.76-0.49-8.6c0.24-1.79,0.65-3.41,1.29-5.11
				c0.65-1.7,1.46-3.33,2.59-4.87c1.05-1.62,2.27-3.01,3.56-4.14c1.37-1.14,3-2.19,5.19-3.24c2.19-0.97,4.87-1.95,8.02-2.84
				c1.37-0.4,2.59-0.73,3.65-1.22c1.14-0.4,1.94-0.73,2.43-1.14c0.49-0.32,0.97-0.73,1.3-1.14c0.32-0.4,0.57-0.89,0.81-1.38
				c0.08-0.49,0.32-0.97,0.32-1.46c0.17-1.38-0.08-2.52-0.73-3.24c-0.73-0.73-1.78-1.14-3.32-1.14
				C721.57,36.85,712.99,40.01,706.18,43.58z"/>
			<path class="st1" d="M664.54,83.02l-5.27-56.96h14.99l1.7,36.35l13.45-36.35h15.23l-24.31,56.96H664.54z"/>
			<path class="st1" d="M599.48,83.02l12.56-76.11h14.74l-4.45,27.02c0.97-1.54,1.79-2.68,2.43-3.41c0.65-0.82,1.37-1.54,2.02-2.19
				c0.73-0.65,1.37-1.14,2.19-1.62c0.73-0.4,1.54-0.82,2.43-1.14c0.89-0.32,1.86-0.57,2.91-0.73c1.05-0.17,2.19-0.32,3.24-0.32
				c2.11,0,4.05,0.32,5.91,1.05c1.86,0.73,3.4,1.95,4.53,3.65c1.14,1.79,1.78,3.81,2.02,5.92c0.17,2.19,0.17,4.55-0.25,7.14
				l-0.57,3.98l-6.16,36.75h-15.39l3.4-17.12c1.14-6.41,1.94-11.2,2.43-14.36c0.49-3.49,0.32-5.92-0.49-7.39
				c-0.81-1.38-1.94-2.11-3.65-2.11c-1.46,0-2.76,0.4-3.97,1.3c-1.14,0.82-2.19,1.95-3,3.65c-0.81,1.38-1.62,3.41-2.43,5.92
				c-0.97,3.16-1.94,7.79-3,14.04l-2.59,16.06h-14.9V83.02z"/>
			<path class="st1" d="M545.04,83.02l9.24-56.89h14.91l-1.37,7.55c0.97-1.38,1.86-2.44,2.59-3.24c0.73-0.82,1.54-1.54,2.51-2.44
				c0.97-0.73,1.94-1.38,3-1.79c1.05-0.49,2.19-0.89,3.4-1.14c1.22-0.32,2.43-0.4,3.73-0.4c1.78,0,3.48,0.32,5.1,0.89
				c1.54,0.57,2.91,1.38,3.88,2.44c0.97,1.05,1.79,2.36,2.34,3.89c0.49,1.54,0.81,3.33,0.81,5.11l-0.32,5.6l-6.48,40.41h-15.07
				l4.94-29.13c0.49-4.21,0.4-7.14-0.49-8.84c-0.81-1.62-2.11-2.44-3.73-2.44c-1.37,0-2.83,0.73-4.3,2.11
				c-1.46,1.46-2.76,3.41-3.81,6.17c-1.05,2.68-2.11,7.14-3.24,13.22l-3.08,18.9h-14.56V83.02z"/>
			<path class="st1" d="M517.91,83.02l8.83-52.43l15.88-7.39l-9.64,59.8h-15.07V83.02z"/>
			<path class="st1" d="M527.78,23.29l2.68-16.31h14.74l-2.51,16.39L527.78,23.29z"/>
			<path class="st1" d="M478.29,83.02l10.12-59.73h-15.88l2.68-16.48h47.39l-2.68,16.48h-15.64l-9.64,59.73H478.29z"/>
			<path class="st2" d="M734.37,1.3l9,19.23h-27.79L734.37,1.3z"/>
			<path class="st1" d="M749.93,83.02l9.24-56.89h14.91l-1.37,7.55c0.97-1.38,1.86-2.44,2.59-3.24c0.73-0.82,1.54-1.54,2.51-2.44
				c0.97-0.73,1.94-1.38,3-1.79c1.05-0.49,2.19-0.89,3.4-1.14c1.22-0.32,2.43-0.4,3.73-0.4c1.78,0,3.48,0.32,5.1,0.89
				c1.54,0.57,2.91,1.38,3.89,2.44c0.97,1.05,1.78,2.36,2.34,3.89c0.49,1.54,0.81,3.33,0.81,5.11c0,1.79-0.08,3.65-0.4,5.6
				l-1.46,9.09l-4.94,31.24H778.2l4.87-29.13c0.57-4.21,0.4-7.14-0.4-8.84c-0.89-1.62-2.11-2.44-3.73-2.44
				c-1.46,0-2.83,0.73-4.3,2.11c-1.46,1.46-2.76,3.41-3.81,6.17c-1.05,2.68-2.11,7.14-3.24,13.22l-3.08,18.9h-14.59v0.09H749.93z"/>
			<path class="st1" d="M563.11,121.16l5.91-0.57c0.32,2.02,1.05,3.49,2.19,4.38c1.05,0.89,2.59,1.37,4.37,1.37
				c1.94,0,3.4-0.4,4.45-1.22c0.97-0.82,1.46-1.79,1.46-2.92c0-0.73-0.25-1.3-0.65-1.79s-1.14-0.97-2.19-1.3
				c-0.73-0.25-2.36-0.65-4.87-1.3c-3.24-0.82-5.51-1.79-6.89-3.01c-1.86-1.62-2.76-3.66-2.76-6.08c0-1.54,0.4-3.01,1.3-4.3
				c0.89-1.3,2.11-2.36,3.73-3.09c1.62-0.73,3.65-1.05,5.92-1.05c3.81,0,6.64,0.82,8.5,2.52s2.91,3.89,3,6.65l-6.07,0.25
				c-0.25-1.54-0.82-2.68-1.7-3.33c-0.89-0.65-2.11-1.05-3.89-1.05c-1.78,0-3.16,0.32-4.13,1.05c-0.65,0.49-0.97,1.05-0.97,1.87
				c0,0.73,0.32,1.3,0.89,1.87c0.73,0.65,2.59,1.3,5.59,2.02c3,0.73,5.19,1.46,6.56,2.19c1.46,0.73,2.51,1.79,3.32,3.09
				c0.82,1.3,1.22,2.92,1.22,4.78c0,1.7-0.49,3.33-1.46,4.87c-0.97,1.54-2.34,2.59-4.05,3.33s-3.97,1.14-6.56,1.14
				c-3.81,0-6.72-0.89-8.75-2.68C564.73,127.08,563.51,124.49,563.11,121.16z"/>
			<path class="st1" d="M591.47,116.05c0-3.09,0.49-5.68,1.37-7.71c0.65-1.54,1.62-2.92,2.83-4.14c1.22-1.22,2.51-2.11,3.89-2.68
				c1.86-0.82,4.05-1.22,6.48-1.22c4.45,0,8.02,1.38,10.69,4.14c2.68,2.76,3.97,6.57,3.97,11.52c0,4.87-1.3,8.69-3.97,11.45
				c-2.68,2.76-6.16,4.14-10.61,4.14c-4.45,0-8.02-1.38-10.69-4.14C592.76,124.65,591.47,120.83,591.47,116.05z M597.71,115.88
				c0,3.41,0.81,6,2.34,7.79s3.56,2.68,5.99,2.68c2.43,0,4.37-0.89,5.99-2.59c1.54-1.79,2.34-4.38,2.34-7.87
				c0-3.49-0.73-6-2.27-7.71c-1.54-1.7-3.48-2.52-5.99-2.52s-4.53,0.89-6.07,2.59C598.51,109.8,597.71,112.39,597.71,115.88z"/>
			<path class="st1" d="M625.49,130.97v-30.18h20.66v5.11h-14.59v7.14h12.56v5.11h-12.56v12.82H625.49z"/>
			<path class="st1" d="M657.9,130.97V105.9h-8.91v-5.11h23.9v5.11h-8.91v25.07H657.9z"/>
			<path class="st1" d="M681.07,130.97l-7.21-30.18h6.24l4.53,20.69l5.51-20.69h7.21l5.27,21.09l4.62-21.09h6.16l-7.29,30.18h-6.48
				l-5.92-22.56l-5.99,22.56H681.07z"/>
			<path class="st1" d="M741.43,130.97h-6.64l-2.59-6.82h-12.07l-2.51,6.82h-6.48l11.75-30.18h6.4L741.43,130.97z M730.16,119.05
				l-4.13-11.2l-4.05,11.2C721.98,119.05,730.16,119.05,730.16,119.05z"/>
			<path class="st1" d="M744.66,130.97v-30.18h12.8c3.24,0,5.59,0.25,7.05,0.82c1.46,0.57,2.59,1.54,3.48,2.92
				c0.89,1.38,1.29,3.01,1.29,4.79c0,2.27-0.65,4.14-2.02,5.6c-1.3,1.46-3.33,2.44-5.99,2.76c1.3,0.73,2.43,1.62,3.24,2.51
				c0.82,0.89,2.02,2.51,3.48,4.87l3.65,5.93h-7.29l-4.37-6.57c-1.54-2.36-2.59-3.81-3.24-4.46c-0.57-0.65-1.22-1.05-1.86-1.22
				c-0.65-0.25-1.7-0.32-3.08-0.32h-1.22V131h-5.91V130.97z M750.75,113.53h4.53c2.91,0,4.7-0.17,5.42-0.4
				c0.72-0.24,1.3-0.65,1.7-1.3c0.4-0.57,0.65-1.37,0.65-2.27c0-1.05-0.25-1.87-0.81-2.44c-0.57-0.57-1.3-1.05-2.27-1.22
				c-0.49-0.08-1.94-0.08-4.45-0.08h-4.78V113.53z"/>
			<path class="st1" d="M774.96,130.97v-30.18h22.36v5.11h-16.28v6.65h15.15v5.11h-15.15v8.19h16.85v5.11
				C797.89,130.97,774.96,130.97,774.96,130.97z"/>
		</g>
	</g>
</g>
<path class="st3" d="M235.87,43.58l6.5-15.5c7.4-2.36,13.74-3.49,18.93-3.49c2.92,0,5.53,0.49,7.8,1.46
	c2.27,0.97,3.99,2.59,5.04,4.78c1.05,2.19,1.47,5.35,0.73,9.41l-7.08,42.68h-14.71c0.9-4.06,2.44-12.58,4.56-25.32
	c-1.05,0.65-1.87,1.14-2.44,1.38c-0.49,0.32-1.54,0.73-3.01,1.38c-1.38,0.57-2.52,1.14-3.34,1.54s-1.54,0.97-2.19,1.54
	c-0.65,0.73-1.14,1.38-1.47,1.95c-0.32,0.65-0.49,1.38-0.65,2.19c-0.17,1.3,0,2.36,0.57,3.24c0.49,0.97,1.54,1.38,3.01,1.38
	c0.49,0,1.14-0.08,1.7-0.17c0.65-0.08,5.36-0.82,6.43-1.38c-2.19,2.44-6.58,7.95-9.1,12.42c-2.19,0.49-3.25,1.3-5.12,1.3
	c-3.09,0-5.53-0.65-7.4-1.95c-1.87-1.22-3.17-3.33-3.9-6.17c-0.73-2.84-0.89-5.76-0.49-8.6c0.25-1.79,0.65-3.41,1.3-5.11
	c0.65-1.7,1.47-3.33,2.6-4.87c1.05-1.62,2.27-3.01,3.57-4.14c1.38-1.14,3.01-2.19,5.21-3.24c2.19-0.97,4.88-1.95,8.05-2.84
	c1.38-0.4,2.6-0.73,3.66-1.22c1.14-0.4,1.95-0.73,2.44-1.14c0.49-0.32,0.97-0.73,1.3-1.14c0.33-0.4,0.57-0.89,0.82-1.38
	c0.08-0.49,0.32-0.97,0.32-1.46c0.17-1.38-0.08-2.52-0.73-3.24c-0.73-0.73-1.79-1.14-3.34-1.14
	C251.31,36.85,242.69,40.01,235.87,43.58z"/>
<path class="st4" d="M235.39,43.39l-0.56,1.32l1.27-0.66c3.39-1.78,7.23-3.45,10.73-4.69c3.51-1.24,6.63-2.04,8.62-2.07
	c1.44,0,2.34,0.37,2.95,0.97c0.51,0.58,0.74,1.54,0.59,2.83v0.03v0.03c0,0.17-0.04,0.35-0.11,0.59c-0.01,0.04-0.02,0.08-0.04,0.12
	c-0.05,0.18-0.11,0.38-0.15,0.58c-0.24,0.46-0.44,0.88-0.72,1.22c-0.28,0.35-0.72,0.72-1.19,1.03l-0.02,0.01l-0.02,0.02
	c-0.4,0.33-1.13,0.63-2.28,1.04l-0.02,0.01l-0.02,0.01c-0.87,0.4-1.86,0.69-3.01,1.02c-0.19,0.05-0.38,0.11-0.57,0.17
	c-3.19,0.9-5.9,1.88-8.11,2.86h-0.01h-0.01c-2.23,1.07-3.88,2.15-5.31,3.32h-0.01l-0.01,0.01c-1.33,1.17-2.58,2.57-3.66,4.24
	c-1.17,1.58-1.99,3.24-2.65,4.98c-0.66,1.75-1.08,3.4-1.33,5.23c-0.41,2.91-0.25,5.9,0.5,8.8c0.75,2.91,2.11,5.15,4.11,6.47
	c1.98,1.37,4.52,2.04,7.69,2.04c1.02,0,1.81-0.23,2.6-0.5c0.17-0.05,0.33-0.11,0.5-0.18c0.63-0.23,1.29-0.45,2.13-0.64l0.23-0.05
	l0.11-0.2c1.79-3.16,4.52-6.87,6.74-9.61c-0.73,4.07-1.32,7.11-1.76,9.08l-0.13,0.63h0.64h14.71h0.43l0.07-0.43l7.07-42.67l0,0
	c0.74-4.13,0.34-7.41-0.77-9.72c-1.12-2.3-2.91-4.02-5.3-5.04c-2.34-1-5.02-1.5-8.01-1.5c-5.27,0-11.66,1.15-19.09,3.51l-0.23,0.07
	l-0.09,0.22L235.39,43.39z M256.96,58.64c-0.75,4.55-1.44,8.53-2.04,11.95c-0.04,0.01-0.08,0.02-0.13,0.03
	c-0.59,0.14-1.28,0.29-1.97,0.42c-1.38,0.26-2.72,0.46-3.03,0.51l0,0h-0.01c-0.57,0.08-1.19,0.15-1.63,0.15
	c-1.39,0-2.19-0.38-2.54-1.09l-0.01-0.02l-0.01-0.02c-0.49-0.75-0.64-1.67-0.5-2.88c0.15-0.81,0.31-1.46,0.6-2.02
	c0.3-0.52,0.75-1.13,1.37-1.83c0.63-0.55,1.31-1.07,2.06-1.45c0.82-0.4,1.93-0.97,3.3-1.53l0,0l0.01-0.01
	c0.43-0.2,0.83-0.36,1.18-0.51c0.25-0.1,0.48-0.21,0.69-0.3c0.48-0.21,0.89-0.4,1.18-0.59C255.86,59.28,256.36,59,256.96,58.64z"/>
<path class="st3" d="M194.09,83.02l-5.28-56.96h15.03l1.7,36.35l13.49-36.35h15.28l-24.38,56.96H194.09z"/>
<path class="st4" d="M193.58,83.06l0.04,0.46h0.48h15.85h0.34l0.13-0.31l24.38-56.96l0.31-0.72h-0.79h-15.28h-0.36l-0.12,0.34
	l-12.61,33.98l-1.59-33.82l-0.02-0.5h-0.5h-15.03h-0.57l0.05,0.57L193.58,83.06z"/>
<path class="st3" d="M128.84,83.02l12.59-76.11h14.79l-4.47,27.02c0.97-1.54,1.79-2.68,2.44-3.41c0.65-0.82,1.38-1.54,2.04-2.19
	c0.73-0.65,1.38-1.14,2.19-1.62c0.73-0.4,1.54-0.82,2.44-1.14c0.9-0.32,1.87-0.57,2.92-0.73c1.05-0.17,2.19-0.32,3.25-0.32
	c2.11,0,4.06,0.32,5.93,1.05c1.87,0.73,3.41,1.95,4.56,3.65c1.14,1.79,1.79,3.81,2.04,5.92c0.17,2.19,0.17,4.55-0.25,7.14
	l-0.57,3.98l-6.18,36.75h-15.44l3.41-17.12c1.14-6.41,1.95-11.2,2.44-14.36c0.49-3.49,0.33-5.92-0.49-7.39
	c-0.82-1.38-1.95-2.11-3.66-2.11c-1.47,0-2.77,0.4-3.99,1.3c-1.14,0.82-2.2,1.95-3.01,3.65c-0.82,1.38-1.62,3.41-2.44,5.92
	c-0.97,3.16-1.95,7.79-3.01,14.04l-2.6,16.06h-14.94V83.02z"/>
<path class="st4" d="M141.43,6.38h-0.43l-0.07,0.43l-12.59,76.11l0.51,0.08v0.52h14.96h0.44l0.07-0.43l2.6-16.06l0,0
	c1.05-6.24,2.02-10.84,2.99-13.97c0.81-2.5,1.61-4.48,2.4-5.82l0.01-0.02l0.01-0.02c0.77-1.62,1.77-2.69,2.84-3.45l0,0h0.01
	c1.13-0.83,2.32-1.2,3.68-1.2c0.77,0,1.39,0.17,1.9,0.46c0.51,0.3,0.94,0.75,1.31,1.38c0.72,1.3,0.91,3.58,0.42,7.06
	c-0.49,3.16-1.3,7.93-2.44,14.34c0,0,0,0,0,0.01l-3.41,17.11l-0.12,0.62h0.63h15.44h0.43l0.07-0.43l6.18-36.75l0,0v-0.01l0.57-3.97
	l0,0c0.41-2.64,0.41-5.04,0.25-7.25v-0.01V35.1c-0.25-2.18-0.92-4.28-2.11-6.15l0,0l-0.01-0.01c-1.2-1.8-2.83-3.08-4.79-3.84
	c-1.94-0.75-3.96-1.09-6.13-1.09c-1.11,0-2.27,0.17-3.33,0.33c-1.08,0.17-2.1,0.41-3.03,0.75c-0.93,0.34-1.77,0.75-2.51,1.17h-0.01
	h-0.01c-0.85,0.51-1.52,1.01-2.27,1.68l-0.01,0.01l-0.01,0.01l-0.01,0.01c-0.64,0.64-1.38,1.38-2.06,2.21
	c-0.34,0.38-0.72,0.88-1.15,1.46l4.08-24.66l0.1-0.6h-0.61C156.23,6.38,141.43,6.38,141.43,6.38z"/>
<path class="st3" d="M74.22,83.02l9.27-56.89h14.96l-1.38,7.55c0.97-1.38,1.87-2.44,2.6-3.24c0.73-0.82,1.54-1.54,2.52-2.44
	c0.97-0.73,1.95-1.38,3.01-1.79c1.05-0.49,2.19-0.89,3.41-1.14c1.22-0.32,2.44-0.4,3.74-0.4c1.79,0,3.49,0.32,5.12,0.89
	c1.55,0.57,2.92,1.38,3.9,2.44c0.97,1.05,1.79,2.36,2.36,3.89c0.49,1.54,0.82,3.33,0.82,5.11l-0.32,5.6l-6.5,40.41h-15.13
	l4.96-29.13c0.49-4.21,0.4-7.14-0.49-8.84c-0.82-1.62-2.11-2.44-3.74-2.44c-1.38,0-2.84,0.73-4.31,2.11
	c-1.47,1.46-2.76,3.41-3.82,6.17c-1.05,2.68-2.12,7.14-3.25,13.22l-3.09,18.9H74.22V83.02z"/>
<path class="st4" d="M83.49,25.62h-0.44l-0.07,0.43L73.7,82.94l0.52,0.08v0.52h14.63h0.43l0.07-0.43l3.09-18.9
	c1.14-6.08,2.19-10.51,3.22-13.13l0,0l0,0c1.03-2.7,2.29-4.58,3.7-5.98c1.42-1.33,2.75-1.96,3.95-1.96c1.42,0,2.54,0.69,3.27,2.15
	l0,0v0.01c0.39,0.75,0.63,1.83,0.7,3.26c0.07,1.43-0.03,3.18-0.27,5.27l-4.96,29.12l-0.1,0.6h0.61h15.11h0.44l0.07-0.43l6.5-40.41
	v-0.03v-0.03l0.33-5.6v-0.01v-0.01c0-1.85-0.33-3.69-0.84-5.27v-0.01v-0.01c-0.59-1.6-1.44-2.96-2.46-4.07
	c-1.04-1.14-2.51-1.98-4.1-2.57l0,0h-0.01c-1.67-0.59-3.44-0.92-5.29-0.92c-1.31,0-2.58,0.08-3.85,0.42
	c-1.26,0.25-2.42,0.67-3.5,1.17c-1.12,0.43-2.14,1.12-3.12,1.85l-0.02,0.01l-0.02,0.02c-0.08,0.07-0.15,0.14-0.24,0.22
	c-0.87,0.8-1.63,1.49-2.31,2.25c-0.39,0.43-0.84,0.95-1.31,1.54l0.99-5.4l0.11-0.61h-0.62H83.49V25.62z"/>
<path class="st3" d="M47,83.02l8.86-52.43l15.93-7.39l-9.67,59.8H47V83.02z"/>
<path class="st4" d="M46.48,82.93l-0.1,0.6h0.61H62.1h0.44l0.07-0.43l9.67-59.8l0.15-0.96l-0.88,0.41l-15.93,7.39l-0.25,0.11
	l-0.04,0.27L46.48,82.93z"/>
<path class="st3" d="M56.91,23.29l2.69-16.31h14.79l-2.52,16.39L56.91,23.29z"/>
<path class="st4" d="M56.4,23.21l-0.1,0.6h0.61l14.96,0.08h0.44l0.07-0.44L74.9,7.06L75,6.46h-0.6h-14.8h-0.43l-0.07,0.43
	L56.4,23.21z"/>
<path class="st3" d="M7.25,83.02l10.15-59.73H1.49L4.17,6.82h47.54l-2.69,16.48H33.34l-9.67,59.73H7.25z"/>
<path class="st4" d="M6.74,82.93l-0.1,0.6h0.61h16.41h0.44l0.07-0.43l9.6-59.29h15.25h0.44l0.07-0.43l2.69-16.48l0.09-0.6h-0.61
	H4.16H3.73L3.66,6.75L0.97,23.22l-0.09,0.59h0.61h15.32L6.74,82.93z"/>
<path class="st5" d="M264.15,1.3l9.02,19.23H245.3L264.15,1.3z"/>
<path class="st4" d="M264.61,1.08l-0.31-0.67l-0.52,0.53l-18.85,19.23l-0.86,0.88h1.23h27.87h0.82l-0.34-0.73L264.61,1.08z"/>
<path class="st3" d="M279.76,83.02l9.27-56.89h14.96l-1.38,7.55c0.97-1.38,1.87-2.44,2.6-3.24c0.73-0.82,1.54-1.54,2.52-2.44
	c0.97-0.73,1.95-1.38,3.01-1.79c1.05-0.49,2.19-0.89,3.41-1.14c1.22-0.32,2.44-0.4,3.74-0.4c1.79,0,3.49,0.32,5.12,0.89
	c1.54,0.57,2.92,1.38,3.9,2.44c0.97,1.05,1.79,2.36,2.36,3.89c0.49,1.54,0.82,3.33,0.82,5.11c0,1.79-0.08,3.65-0.4,5.6l-1.47,9.09
	l-4.96,31.24h-15.11l4.88-29.13c0.57-4.21,0.4-7.14-0.4-8.84c-0.9-1.62-2.12-2.44-3.74-2.44c-1.47,0-2.84,0.73-4.31,2.11
	c-1.47,1.46-2.76,3.41-3.82,6.17c-1.05,2.68-2.12,7.14-3.25,13.22l-3.09,18.9h-14.63v0.09H279.76z"/>
<path class="st4" d="M279.24,83.02l0.52,0.04v0.39h14.63h0.44l0.07-0.43l3.09-18.9c1.14-6.08,2.19-10.51,3.22-13.13l0,0l0,0
	c1.03-2.7,2.29-4.58,3.7-5.98c1.42-1.33,2.68-1.96,3.95-1.96c0.72,0,1.33,0.18,1.86,0.53s1,0.88,1.42,1.63
	c0.73,1.56,0.92,4.34,0.35,8.53l-4.88,29.12l-0.1,0.6h0.61h15.11h0.44l0.07-0.43l4.96-31.24l0,0l1.47-9.08l0,0
	c0.33-1.98,0.41-3.88,0.41-5.68c0-1.85-0.34-3.69-0.84-5.27v-0.01v-0.01c-0.59-1.6-1.44-2.96-2.46-4.07
	c-1.04-1.14-2.51-1.98-4.1-2.57l0,0h-0.01c-1.67-0.59-3.44-0.92-5.29-0.92c-1.31,0-2.58,0.08-3.85,0.42
	c-1.25,0.25-2.42,0.67-3.5,1.17c-1.12,0.43-2.14,1.12-3.12,1.85l-0.02,0.01l-0.02,0.02c-0.08,0.07-0.15,0.14-0.24,0.22
	c-0.87,0.8-1.63,1.49-2.31,2.25c-0.39,0.43-0.84,0.95-1.31,1.54l0.99-5.4l0.11-0.61h-0.62h-14.96h-0.43l-0.07,0.43l-9.18,56.37
	h-0.09v0.52v0.06H279.24z"/>
<path class="st3" d="M3.36,116.05c0-3.09,0.49-5.68,1.47-7.71c0.73-1.54,1.7-2.92,2.92-4.14s2.6-2.11,4.06-2.68
	c1.95-0.82,4.22-1.22,6.75-1.22c4.63,0,8.28,1.38,11.05,4.14c2.76,2.76,4.14,6.57,4.14,11.52c0,4.87-1.38,8.69-4.14,11.45
	c-2.76,2.76-6.43,4.14-11.05,4.14s-8.37-1.38-11.14-4.14C4.66,124.65,3.36,120.83,3.36,116.05z M9.94,115.88
	c0,3.41,0.82,6,2.44,7.79s3.74,2.68,6.26,2.68s4.63-0.89,6.18-2.59c1.62-1.79,2.44-4.38,2.44-7.87c0-3.49-0.82-6-2.36-7.71
	c-1.54-1.7-3.66-2.52-6.26-2.52s-4.71,0.89-6.34,2.59C10.67,109.8,9.94,112.39,9.94,115.88z"/>
<path class="st4" d="M24.43,123.41L24.43,123.41c-1.44,1.59-3.41,2.43-5.8,2.43s-4.36-0.84-5.88-2.51c-1.51-1.65-2.3-4.11-2.3-7.44
	c0-3.44,0.72-5.86,2.2-7.25l0.01-0.01l0.01-0.01c1.52-1.59,3.49-2.44,5.96-2.44c2.49,0,4.45,0.77,5.88,2.34
	c1.43,1.58,2.22,3.95,2.22,7.37C26.73,119.31,25.94,121.75,24.43,123.41z M4.35,108.11c-1.02,2.12-1.51,4.8-1.51,7.93
	c0,4.89,1.33,8.84,4.21,11.72c2.88,2.87,6.76,4.29,11.5,4.29s8.54-1.42,11.41-4.29c2.88-2.88,4.3-6.84,4.3-11.81
	c0-5.05-1.42-9.01-4.3-11.89c-2.87-2.87-6.67-4.29-11.41-4.29c-2.57,0-4.92,0.41-6.94,1.25c-1.53,0.6-2.96,1.53-4.24,2.79
	C6.11,105.09,5.11,106.52,4.35,108.11z"/>
<path class="st3" d="M38.71,100.79h6.34v16.31c0,2.59,0.08,4.3,0.25,5.03c0.25,1.22,0.9,2.19,1.95,3.01
	c1.05,0.73,2.44,1.14,4.14,1.14c1.79,0,3.17-0.33,4.06-1.05c0.9-0.73,1.47-1.54,1.62-2.59c0.17-1.05,0.25-2.76,0.25-5.11v-16.72
	h6.34v15.83c0,3.66-0.17,6.17-0.49,7.71c-0.32,1.46-0.97,2.76-1.87,3.81c-0.9,1.05-2.12,1.87-3.66,2.44
	c-1.54,0.65-3.57,0.89-6.01,0.89c-3.01,0-5.28-0.32-6.83-0.97c-1.54-0.65-2.76-1.54-3.66-2.59c-0.9-1.05-1.47-2.19-1.79-3.33
	c-0.4-1.7-0.65-4.3-0.65-7.62v-16.16H38.71z"/>
<path class="st4" d="M38.71,100.27h-0.52v0.52v16.15c0,3.35,0.25,5.98,0.66,7.75v0.01v0.01c0.34,1.2,0.95,2.41,1.89,3.52
	c0.95,1.13,2.24,2.07,3.85,2.74c1.64,0.69,4,1.01,7.02,1.01c2.46,0,4.57-0.25,6.21-0.93c1.61-0.59,2.9-1.45,3.86-2.58
	c0.95-1.12,1.63-2.5,1.98-4.04l0,0v-0.01c0.34-1.6,0.5-4.16,0.5-7.82v-15.8v-0.52h-0.52h-6.34h-0.52v0.52v16.71
	c0,2.36-0.08,4.02-0.24,5.03c-0.13,0.89-0.61,1.6-1.45,2.27c-0.75,0.62-1.99,0.94-3.74,0.94c-1.62,0-2.89-0.38-3.84-1.03
	c-0.96-0.74-1.53-1.61-1.75-2.69l0,0v-0.01c-0.14-0.66-0.23-2.3-0.23-4.92v-16.31v-0.52h-0.52H38.71z"/>
<path class="st3" d="M77.39,130.97V105.9h-9.27v-5.11h24.95v5.11h-9.27v25.07H77.39z"/>
<path class="st4" d="M76.88,130.97v0.52h0.52h6.43h0.52v-0.52v-24.55h8.75h0.52v-0.52v-5.11v-0.52h-0.52H68.13h-0.52v0.52v5.11v0.52
	h0.52h8.75V130.97z"/>
<path class="st3" d="M95.51,121.16l6.18-0.57c0.4,2.02,1.14,3.49,2.27,4.38c1.14,0.89,2.69,1.37,4.56,1.37
	c2.04,0,3.57-0.4,4.63-1.22c1.05-0.82,1.55-1.79,1.55-2.92c0-0.73-0.25-1.3-0.65-1.79s-1.22-0.97-2.27-1.3
	c-0.73-0.25-2.44-0.65-5.04-1.3c-3.42-0.82-5.77-1.79-7.15-3.01c-1.95-1.62-2.92-3.66-2.92-6.08c0-1.54,0.49-3.01,1.38-4.3
	c0.9-1.3,2.19-2.36,3.9-3.09c1.7-0.73,3.74-1.05,6.18-1.05c3.9,0,6.91,0.82,8.86,2.52c1.95,1.7,3.01,3.89,3.17,6.65l-6.34,0.25
	c-0.25-1.54-0.82-2.68-1.7-3.33c-0.89-0.65-2.19-1.05-3.98-1.05c-1.87,0-3.25,0.32-4.31,1.05c-0.65,0.49-0.97,1.05-0.97,1.87
	c0,0.73,0.32,1.3,0.97,1.87c0.82,0.65,2.76,1.3,5.85,2.02c3.09,0.73,5.36,1.46,6.83,2.19c1.47,0.73,2.6,1.79,3.49,3.09
	c0.82,1.3,1.22,2.92,1.22,4.78c0,1.7-0.49,3.33-1.47,4.87c-0.97,1.54-2.44,2.59-4.22,3.33c-1.79,0.73-4.06,1.14-6.83,1.14
	c-3.99,0-6.99-0.89-9.1-2.68C97.23,127.08,95.92,124.49,95.51,121.16z"/>
<path class="st4" d="M95.47,120.64l-0.53,0.05l0.06,0.53c0.42,3.43,1.77,6.17,4.26,8.05c2.24,1.89,5.38,2.79,9.42,2.79
	c2.81,0,5.15-0.41,7.02-1.18c1.86-0.76,3.42-1.87,4.46-3.53c1.02-1.62,1.54-3.34,1.54-5.14c0-1.94-0.42-3.67-1.3-5.06v-0.01
	l-0.01-0.01c-0.94-1.36-2.14-2.48-3.69-3.25c-1.52-0.75-3.84-1.5-6.94-2.23c-1.54-0.36-2.78-0.7-3.73-1.03
	c-0.96-0.33-1.57-0.63-1.91-0.89c-0.57-0.5-0.79-0.94-0.79-1.47c0-0.33,0.06-0.59,0.19-0.82c0.11-0.22,0.3-0.42,0.58-0.63
	c0.93-0.64,2.2-0.96,4.01-0.96c1.71,0,2.9,0.39,3.68,0.96c0.74,0.54,1.27,1.52,1.5,2.99l0.07,0.45l0.45-0.02l6.34-0.25l0.53-0.02
	l-0.03-0.53c-0.18-2.89-1.28-5.22-3.35-7.01c-2.09-1.82-5.24-2.64-9.19-2.64c-2.48,0-4.59,0.33-6.38,1.09
	c-1.79,0.76-3.17,1.88-4.12,3.26c-0.95,1.37-1.48,2.94-1.48,4.6c0,2.59,1.04,4.76,3.11,6.48c1.48,1.3,3.94,2.29,7.37,3.11
	c0.57,0.14,1.09,0.27,1.58,0.39c1.73,0.42,2.86,0.71,3.42,0.89l0,0h0.01c1.01,0.31,1.71,0.75,2.04,1.14
	c0.33,0.4,0.53,0.86,0.53,1.46c0,0.96-0.4,1.79-1.34,2.51c-0.93,0.71-2.34,1.12-4.32,1.12c-1.78,0-3.2-0.46-4.24-1.27
	c-1-0.79-1.69-2.11-2.09-4.08L102.1,120l-0.46,0.04L95.47,120.64z"/>
<path class="st3" d="M125.1,116.05c0-3.09,0.49-5.68,1.47-7.71c0.73-1.54,1.7-2.92,2.92-4.14c1.22-1.22,2.6-2.11,4.06-2.68
	c1.95-0.82,4.22-1.22,6.75-1.22c4.64,0,8.28,1.38,11.05,4.14s4.14,6.57,4.14,11.52c0,4.87-1.38,8.69-4.14,11.45
	c-2.77,2.76-6.41,4.14-11.05,4.14c-4.63,0-8.37-1.38-11.14-4.14C126.4,124.65,125.1,120.83,125.1,116.05z M131.59,115.88
	c0,3.41,0.82,6,2.44,7.79c1.62,1.79,3.74,2.68,6.26,2.68s4.64-0.89,6.18-2.59c1.62-1.79,2.44-4.38,2.44-7.87
	c0-3.49-0.82-6-2.36-7.71s-3.66-2.52-6.26-2.52s-4.71,0.89-6.34,2.59C132.41,109.8,131.59,112.39,131.59,115.88z"/>
<path class="st4" d="M146.09,123.41L146.09,123.41c-1.44,1.59-3.41,2.43-5.8,2.43s-4.36-0.84-5.88-2.51
	c-1.51-1.65-2.3-4.11-2.3-7.44c0-3.43,0.81-5.86,2.21-7.26l0,0l0.01-0.01c1.52-1.59,3.49-2.44,5.96-2.44c2.49,0,4.45,0.77,5.88,2.34
	c1.43,1.58,2.22,3.95,2.22,7.37C148.39,119.31,147.6,121.75,146.09,123.41z M126.1,108.11c-1.02,2.12-1.51,4.8-1.51,7.93
	c0,4.89,1.33,8.84,4.21,11.72c2.88,2.87,6.76,4.29,11.5,4.29c4.74,0,8.54-1.42,11.41-4.29c2.88-2.88,4.3-6.84,4.3-11.81
	c0-5.05-1.42-9.01-4.3-11.89c-2.87-2.87-6.67-4.29-11.41-4.29c-2.57,0-4.92,0.41-6.94,1.25c-1.53,0.6-2.98,1.53-4.24,2.79
	C127.86,105.09,126.85,106.52,126.1,108.11z"/>
<path class="st3" d="M160.37,100.79h6.34v16.31c0,2.59,0.08,4.3,0.25,5.03c0.25,1.22,0.9,2.19,1.95,3.01
	c1.05,0.73,2.44,1.14,4.14,1.14c1.79,0,3.17-0.33,4.06-1.05c0.9-0.73,1.47-1.54,1.62-2.59c0.17-1.05,0.25-2.76,0.25-5.11v-16.72
	h6.34v15.83c0,3.66-0.17,6.17-0.49,7.71c-0.32,1.46-0.97,2.76-1.87,3.81c-0.9,1.05-2.12,1.87-3.66,2.44
	c-1.55,0.65-3.57,0.89-6.01,0.89c-3.01,0-5.28-0.32-6.83-0.97c-1.54-0.65-2.76-1.54-3.66-2.59s-1.47-2.19-1.79-3.33
	c-0.4-1.7-0.65-4.3-0.65-7.62v-16.16H160.37z"/>
<path class="st4" d="M160.37,100.27h-0.52v0.52v16.15c0,3.35,0.25,5.98,0.66,7.75v0.01v0.01c0.34,1.2,0.95,2.41,1.89,3.52
	c0.95,1.13,2.24,2.07,3.85,2.74c1.64,0.69,4,1.01,7.02,1.01c2.46,0,4.57-0.25,6.21-0.93c1.6-0.59,2.9-1.45,3.86-2.58
	c0.95-1.12,1.64-2.5,1.98-4.04l0,0v-0.01c0.34-1.6,0.5-4.16,0.5-7.82v-15.8v-0.52h-0.52h-6.34h-0.52v0.52v16.71
	c0,2.36-0.08,4.02-0.24,5.03c-0.13,0.89-0.62,1.6-1.45,2.27c-0.75,0.62-1.99,0.94-3.74,0.94c-1.62,0-2.89-0.38-3.84-1.03
	c-0.96-0.74-1.53-1.61-1.75-2.69l0,0v-0.01c-0.14-0.66-0.23-2.3-0.23-4.92v-16.31v-0.52h-0.52H160.37z"/>
<path class="st3" d="M192.07,130.97v-30.18h13.33c3.34,0,5.77,0.25,7.31,0.82c1.54,0.57,2.76,1.54,3.66,2.92
	c0.89,1.38,1.38,3.01,1.38,4.79c0,2.27-0.73,4.14-2.11,5.6c-1.38,1.46-3.41,2.44-6.18,2.76c1.38,0.73,2.52,1.62,3.41,2.51
	c0.9,0.89,2.11,2.51,3.57,4.87l3.82,5.93h-7.56l-4.56-6.57c-1.62-2.36-2.76-3.81-3.34-4.46c-0.57-0.65-1.22-1.05-1.87-1.22
	c-0.65-0.25-1.7-0.32-3.17-0.32h-1.3V131h-6.4V130.97z M198.4,113.53h4.71c3.01,0,4.96-0.17,5.69-0.4c0.73-0.25,1.38-0.65,1.79-1.3
	c0.4-0.57,0.65-1.37,0.65-2.27c0-1.05-0.25-1.87-0.82-2.44c-0.57-0.65-1.38-1.05-2.36-1.22c-0.49-0.08-2.04-0.08-4.63-0.08h-4.96
	v7.71h-0.08V113.53z"/>
<path class="st4" d="M191.55,130.97v0.52h0.52h6.43h0.52v-0.52v-12.07h0.79c1.48,0,2.44,0.08,2.99,0.29l0.03,0.01l0.03,0.01
	c0.53,0.13,1.09,0.48,1.6,1.05c0.55,0.63,1.67,2.07,3.3,4.41l0,0l4.55,6.57l0.15,0.23h0.27h7.56h0.95l-0.52-0.8l-3.82-5.92
	c-1.47-2.37-2.72-4.02-3.65-4.96c-0.64-0.64-1.4-1.28-2.29-1.87c2.16-0.46,3.84-1.38,5.07-2.69c1.48-1.56,2.25-3.56,2.25-5.95
	c0-1.88-0.52-3.61-1.47-5.07c-0.95-1.48-2.26-2.52-3.92-3.13c-1.63-0.6-4.15-0.85-7.49-0.85h-13.33h-0.52v0.52V130.97z
	 M210.17,111.52l-0.01,0.01l-0.01,0.01c-0.32,0.52-0.86,0.86-1.51,1.08c-0.3,0.1-0.91,0.2-1.87,0.27c-0.94,0.07-2.17,0.11-3.66,0.11
	h-4.11v-6.67h4.44c1.3,0,2.33,0,3.1,0.01c0.79,0.01,1.25,0.03,1.45,0.06c0.89,0.14,1.58,0.51,2.06,1.04l0.01,0.01l0.01,0.01
	c0.43,0.43,0.66,1.08,0.66,2.07C210.73,110.37,210.51,111.06,210.17,111.52z"/>
<path class="st3" d="M243.75,119.86l6.18,1.87c-0.97,3.33-2.52,5.76-4.71,7.3c-2.19,1.62-4.96,2.44-8.37,2.44
	c-4.14,0-7.56-1.37-10.24-4.14c-2.69-2.76-3.98-6.49-3.98-11.2c0-5.03,1.38-8.93,4.06-11.68c2.69-2.76,6.26-4.14,10.65-4.14
	c3.82,0,6.99,1.05,9.35,3.24c1.47,1.3,2.52,3.16,3.17,5.52l-6.26,1.46c-0.4-1.54-1.14-2.76-2.36-3.73c-1.22-0.97-2.6-1.38-4.31-1.38
	c-2.36,0-4.22,0.82-5.69,2.44c-1.47,1.62-2.19,4.21-2.19,7.79c0,3.81,0.73,6.49,2.12,8.12c1.47,1.62,3.25,2.44,5.53,2.44
	c1.7,0,3.17-0.49,4.31-1.54C242.37,123.67,243.18,122.05,243.75,119.86z"/>
<path class="st4" d="M243.9,119.36l-0.52-0.15l-0.13,0.52c-0.56,2.15-1.33,3.63-2.56,4.49l-0.03,0.02l-0.03,0.02
	c-1.02,0.95-2.36,1.4-3.96,1.4c-2.13,0-3.77-0.74-5.13-2.26c-1.26-1.49-1.98-4.01-1.98-7.78c0-3.52,0.72-5.96,2.07-7.45
	c1.36-1.51,3.09-2.26,5.3-2.26c1.61,0,2.87,0.38,3.99,1.27c1.13,0.9,1.8,2.01,2.18,3.46l0.12,0.49l0.49-0.11l6.26-1.46l0.53-0.12
	l-0.14-0.52c-0.67-2.42-1.77-4.38-3.32-5.76c-2.48-2.29-5.77-3.38-9.69-3.38c-4.5,0-8.22,1.43-11.01,4.3
	c-2.8,2.88-4.2,6.92-4.2,12.04c0,4.8,1.33,8.68,4.13,11.56c2.79,2.87,6.34,4.3,10.61,4.3c3.49,0,6.37-0.84,8.68-2.53
	c2.31-1.63,3.92-4.17,4.91-7.58l0.14-0.5l-0.5-0.14L243.9,119.36z"/>
<path class="st3" d="M255.13,130.97v-30.18h6.34v30.18H255.13z"/>
<path class="st4" d="M254.61,130.97v0.52h0.52h6.34h0.52v-0.52v-30.18v-0.52h-0.52h-6.34h-0.52v0.52V130.97z"/>
<path class="st3" d="M267.57,130.97v-30.18h6.18l12.84,20.12v-20.12h5.86v30.18h-6.34l-12.67-19.64v19.64H267.57z"/>
<path class="st4" d="M267.05,130.97v0.52h0.52h5.86h0.52v-0.52v-17.88l11.72,18.17l0.15,0.24h0.28h6.34h0.52v-0.52v-30.19v-0.52
	h-0.52h-5.86h-0.52v0.52v18.36l-11.89-18.64l-0.15-0.24h-0.28h-6.18h-0.52v0.52V130.97z"/>
<path class="st3" d="M313.72,119.86v-5.11h13.66v12.01c-1.3,1.22-3.25,2.36-5.76,3.24c-2.52,0.97-5.04,1.37-7.64,1.37
	c-3.25,0-6.18-0.65-8.62-1.94c-2.44-1.3-4.31-3.24-5.53-5.68c-1.22-2.44-1.87-5.11-1.87-8.04c0-3.16,0.65-5.93,2.04-8.36
	c1.38-2.44,3.34-4.3,6.01-5.6c2.04-0.97,4.56-1.54,7.48-1.54c3.9,0,6.91,0.82,9.1,2.36c2.19,1.54,3.57,3.73,4.22,6.49l-6.26,1.14
	c-0.4-1.46-1.3-2.68-2.52-3.49c-1.22-0.82-2.76-1.3-4.56-1.3c-2.76,0-4.96,0.82-6.58,2.52c-1.62,1.7-2.44,4.21-2.44,7.55
	c0,3.57,0.82,6.25,2.52,8.04c1.62,1.79,3.82,2.68,6.5,2.68c1.3,0,2.69-0.25,3.99-0.73c1.3-0.49,2.44-1.14,3.41-1.79v-3.81
	C320.87,119.86,313.72,119.86,313.72,119.86z"/>
<path class="st4" d="M313.21,119.86v0.52h0.52h6.63v3.02c-0.9,0.58-1.92,1.15-3.08,1.58c-1.24,0.46-2.56,0.69-3.8,0.69
	c-2.56,0-4.61-0.85-6.12-2.51l0,0l-0.01-0.01c-1.58-1.65-2.38-4.17-2.38-7.68c0-3.25,0.8-5.62,2.29-7.19
	c1.51-1.58,3.55-2.36,6.21-2.36c1.69,0,3.14,0.46,4.27,1.21c1.12,0.74,1.93,1.86,2.3,3.2l0.12,0.45l0.46-0.08l6.26-1.14l0.54-0.09
	l-0.12-0.53c-0.67-2.86-2.12-5.18-4.43-6.8c-2.3-1.62-5.43-2.45-9.4-2.45c-3,0-5.59,0.58-7.7,1.59l0,0l0,0
	c-2.78,1.34-4.8,3.28-6.24,5.81c-1.44,2.52-2.1,5.37-2.1,8.62c0,3,0.67,5.75,1.92,8.26c1.27,2.53,3.21,4.56,5.74,5.91
	c2.53,1.34,5.54,2,8.85,2c2.65,0,5.24-0.41,7.82-1.42c2.56-0.91,4.58-2.08,5.94-3.36l0.17-0.15v-0.23v-12.01v-0.52h-0.52h-13.66
	h-0.52v0.52v5.13H313.21z"/>
<path class="st6" d="M415.81,50.28l19.17,19.17l-19.17,19.18 M390.25,69.45h44.74"/>
</svg>
