<svg width="14" height="14" viewBox="0 0 14 14" fill="none" xmlns="http://www.w3.org/2000/svg">
<path fill-rule="evenodd" clip-rule="evenodd" d="M6.49829 1.49688C3.73781 1.49688 1.5 3.73004 1.5 6.48478C1.5 9.23951 3.73781 11.4727 6.49829 11.4727C9.25876 11.4727 11.4966 9.23951 11.4966 6.48478C11.4966 3.73004 9.25876 1.49688 6.49829 1.49688ZM0 6.48478C0 2.90333 2.90938 0 6.49829 0C10.0872 0 12.9966 2.90333 12.9966 6.48478C12.9966 10.0662 10.0872 12.9696 6.49829 12.9696C2.90938 12.9696 0 10.0662 0 6.48478Z" fill="white"/>
<path fill-rule="evenodd" clip-rule="evenodd" d="M9.96507 10.2439C10.2576 9.95122 10.7325 9.95061 11.0257 10.2425L13.2794 12.4856C13.5727 12.7775 13.5733 13.2514 13.2808 13.5441C12.9883 13.8368 12.5134 13.8374 12.2201 13.5455L9.96645 11.3023C9.67318 11.0104 9.67256 10.5366 9.96507 10.2439Z" fill="white"/>
</svg>
