<?xml version="1.0" encoding="utf-8"?>
<!-- Generator: Adobe Illustrator 24.1.2, SVG Export Plug-In . SVG Version: 6.00 Build 0)  -->
<svg version="1.1" id="Layer_1" xmlns="http://www.w3.org/2000/svg" xmlns:xlink="http://www.w3.org/1999/xlink" x="0px" y="0px"
	 viewBox="0 0 100 100" style="enable-background:new 0 0 100 100;" xml:space="preserve">
<style type="text/css">
	.st0{fill:#B6B6F3;}
	.st1{fill:#353590;}
</style>
<path class="st0" d="M50,15.72c-8.16,0.02-16.04,2.97-22.22,8.3c-4.74,4.08-8.17,9.41-9.06,14.74C8.36,41.02,0.54,50.05,0.54,60.96
	c0,12.67,10.55,22.77,23.38,22.77h55.07c11.23,0,20.48-8.83,20.48-19.96c0-10.12-7.67-18.36-17.53-19.75
	C80.44,28.07,66.63,15.72,50,15.72z"/>
<path class="st1" d="M46.68,62.53l18.55-18.55c0.57-0.57,0.9-1.37,0.9-2.19s-0.33-1.61-0.9-2.19s-1.37-0.9-2.19-0.9
	c-0.82,0-1.61,0.33-2.19,0.9L44.5,55.96l-7.08-7.1c-0.3-0.3-0.62-0.52-1.01-0.68c-0.38-0.16-0.78-0.24-1.18-0.24
	s-0.82,0.09-1.18,0.24c-0.38,0.16-0.71,0.38-1.01,0.68c-0.3,0.3-0.52,0.62-0.68,1.01s-0.24,0.78-0.24,1.18s0.09,0.82,0.24,1.18
	c0.16,0.38,0.38,0.71,0.68,1.01l9.27,9.27c0.3,0.3,0.62,0.52,1.01,0.68s0.78,0.24,1.18,0.24s0.82-0.09,1.18-0.24
	C46.06,63.05,46.39,62.82,46.68,62.53z"/>
</svg>
