<?xml version="1.0" encoding="utf-8"?>
<!-- Generator: Adobe Illustrator 24.1.2, SVG Export Plug-In . SVG Version: 6.00 Build 0)  -->
<svg version="1.1" id="Layer_1" xmlns="http://www.w3.org/2000/svg" xmlns:xlink="http://www.w3.org/1999/xlink" x="0px" y="0px"
	 viewBox="0 0 100 100" style="enable-background:new 0 0 100 100;" xml:space="preserve">
<style type="text/css">
	.st0{fill:#FFFFFF;}
	.st1{fill:#B6B6F3;}
</style>
<path class="st0" d="M50,16.22c-8.04,0.02-15.8,2.92-21.89,8.17c-4.67,4.02-8.05,9.27-8.93,14.52C8.98,41.15,1.27,50.04,1.27,60.8
	c0,12.48,10.4,22.43,23.03,22.43h54.25c11.06,0,20.18-8.7,20.18-19.66c0-9.97-7.56-18.09-17.27-19.46
	C79.99,28.39,66.38,16.22,50,16.22z"/>
<path class="st1" d="M46.73,62.33l18.28-18.28c0.56-0.56,0.89-1.35,0.89-2.15c0-0.8-0.32-1.59-0.89-2.15
	c-0.56-0.56-1.35-0.89-2.15-0.89c-0.8,0-1.59,0.32-2.15,0.89L44.58,55.87l-6.98-6.99c-0.29-0.29-0.62-0.51-0.99-0.67
	c-0.38-0.15-0.77-0.24-1.16-0.24s-0.8,0.09-1.16,0.24c-0.38,0.15-0.7,0.38-0.99,0.67c-0.29,0.29-0.51,0.62-0.67,0.99
	s-0.24,0.77-0.24,1.16s0.09,0.8,0.24,1.16c0.15,0.38,0.38,0.7,0.67,0.99l9.13,9.13c0.29,0.29,0.62,0.51,0.99,0.67
	c0.38,0.15,0.77,0.24,1.16,0.24c0.39,0,0.8-0.09,1.16-0.24C46.12,62.85,46.44,62.63,46.73,62.33z"/>
</svg>
