<?xml version="1.0" encoding="utf-8"?>
<!-- Generator: Adobe Illustrator 24.1.2, SVG Export Plug-In . SVG Version: 6.00 Build 0)  -->
<svg version="1.1" id="Layer_1" xmlns="http://www.w3.org/2000/svg" xmlns:xlink="http://www.w3.org/1999/xlink" x="0px" y="0px"
	 viewBox="0 0 100 100" style="enable-background:new 0 0 100 100;" xml:space="preserve">
<style type="text/css">
	.st0{fill:#FFFFFF;}
	.st1{fill:#B6B6F3;}
</style>
<path class="st0" d="M16.2,14c-2.39,0-4.67,0.95-6.37,2.63C8.14,18.32,7.19,20.62,7.19,23v49.7h85.61V23c0-2.39-0.95-4.67-2.63-6.37
	C88.49,14.95,86.2,14,83.8,14H16.2z M2,77h96c0,2.39-0.95,4.67-2.63,6.37C93.68,85.05,91.4,86,89,86H11c-2.39,0-4.67-0.95-6.37-2.63
	C2.95,81.68,2,79.38,2,77z"/>
<path class="st1" d="M52.72,24.28c0-0.73-0.29-1.41-0.8-1.92c-0.51-0.52-1.19-0.8-1.92-0.8s-1.41,0.29-1.92,0.8
	c-0.51,0.51-0.8,1.21-0.8,1.92V27c0,0.73,0.29,1.41,0.8,1.92c0.51,0.51,1.21,0.8,1.92,0.8c0.73,0,1.41-0.29,1.92-0.8
	c0.51-0.51,0.8-1.21,0.8-1.92V24.28z M65.42,31.79c0.49-0.51,0.77-1.21,0.77-1.92c0-0.71-0.29-1.4-0.8-1.91
	c-0.51-0.51-1.19-0.79-1.91-0.8c-0.71,0-1.4,0.26-1.92,0.77l-1.92,1.92c-0.49,0.51-0.77,1.21-0.77,1.92s0.29,1.4,0.8,1.91
	c0.51,0.51,1.19,0.79,1.91,0.8c0.71,0,1.4-0.26,1.92-0.77L65.42,31.79z M71.79,43.35c0,0.73-0.29,1.41-0.8,1.92
	c-0.51,0.51-1.21,0.8-1.92,0.8h-2.72c-0.73,0-1.41-0.29-1.92-0.8c-0.51-0.51-0.8-1.21-0.8-1.92c0-0.73,0.29-1.41,0.8-1.92
	s1.21-0.8,1.92-0.8h2.72c0.73,0,1.41,0.29,1.92,0.8C71.51,41.94,71.79,42.63,71.79,43.35z M36.52,33.72
	c0.25,0.26,0.55,0.47,0.89,0.61c0.33,0.15,0.68,0.22,1.05,0.22s0.73-0.07,1.06-0.2s0.64-0.33,0.9-0.6c0.26-0.26,0.45-0.55,0.6-0.9
	c0.13-0.33,0.2-0.7,0.2-1.06c0-0.36-0.07-0.71-0.22-1.05c-0.15-0.33-0.35-0.64-0.61-0.89l-1.92-1.92c-0.51-0.49-1.21-0.77-1.92-0.77
	s-1.4,0.29-1.91,0.8c-0.51,0.51-0.79,1.19-0.8,1.91c0,0.71,0.26,1.4,0.77,1.92L36.52,33.72z M36.39,43.35c0,0.73-0.29,1.41-0.8,1.92
	c-0.51,0.51-1.21,0.8-1.92,0.8h-2.72c-0.73,0-1.41-0.29-1.92-0.8c-0.51-0.51-0.8-1.21-0.8-1.92c0-0.73,0.29-1.41,0.8-1.92
	c0.51-0.51,1.21-0.8,1.92-0.8h2.72c0.73,0,1.41,0.29,1.92,0.8C36.09,41.94,36.39,42.63,36.39,43.35z M44.55,59.7v-2.72h10.89v2.72
	c0,1.44-0.57,2.84-1.6,3.85s-2.41,1.6-3.85,1.6s-2.84-0.57-3.85-1.6C45.13,62.52,44.55,61.14,44.55,59.7z M55.45,54.25
	c0.04-0.93,0.57-1.76,1.29-2.34c1.77-1.4,3.07-3.33,3.71-5.5c0.64-2.17,0.58-4.49-0.16-6.63c-0.74-2.14-2.14-4-3.97-5.31
	c-1.85-1.31-4.06-2.02-6.31-2.02c-2.25,0-4.48,0.71-6.31,2.02c-1.85,1.31-3.23,3.17-3.97,5.31s-0.8,4.45-0.16,6.63
	c0.64,2.17,1.93,4.1,3.71,5.5c0.74,0.58,1.27,1.41,1.29,2.34H55.45L55.45,54.25z"/>
</svg>
