<?xml version="1.0" encoding="utf-8"?>
<!-- Generator: Adobe Illustrator 24.1.2, SVG Export Plug-In . SVG Version: 6.00 Build 0)  -->
<svg version="1.1" id="Layer_1" xmlns="http://www.w3.org/2000/svg" xmlns:xlink="http://www.w3.org/1999/xlink" x="0px" y="0px"
	 viewBox="0 0 100 100" style="enable-background:new 0 0 100 100;" xml:space="preserve">
<style type="text/css">
	.st0{fill:#B6B6F3;}
	.st1{fill:#353590;}
</style>
<path class="st0" d="M14.79,12.5c-2.48,0-4.86,0.98-6.64,2.74C6.39,17,5.41,19.39,5.41,21.88v51.77h89.18V21.88
	c0-2.48-0.98-4.86-2.74-6.64c-1.76-1.76-4.14-2.74-6.64-2.74H14.79z M0,78.12h100c0,2.48-0.98,4.86-2.74,6.64
	c-1.76,1.76-4.14,2.74-6.64,2.74H9.38c-2.48,0-4.86-0.98-6.64-2.74C0.98,83,0,80.61,0,78.12z"/>
<path class="st1" d="M52.83,23.21c0-0.76-0.3-1.47-0.83-2c-0.53-0.55-1.24-0.83-2-0.83s-1.47,0.3-2,0.83
	c-0.53,0.53-0.83,1.26-0.83,2v2.83c0,0.76,0.3,1.47,0.83,2c0.53,0.53,1.26,0.83,2,0.83c0.76,0,1.47-0.3,2-0.83s0.83-1.26,0.83-2
	V23.21z M66.06,31.03c0.52-0.53,0.8-1.26,0.8-2s-0.3-1.45-0.83-1.98c-0.53-0.53-1.24-0.82-1.98-0.83c-0.74,0-1.45,0.27-2,0.8l-2,2
	c-0.52,0.53-0.8,1.26-0.8,2s0.3,1.45,0.83,1.98c0.53,0.53,1.24,0.82,1.98,0.83c0.74,0,1.45-0.27,2-0.8L66.06,31.03z M72.7,43.08
	c0,0.76-0.3,1.47-0.83,2c-0.53,0.53-1.26,0.83-2,0.83h-2.83c-0.76,0-1.47-0.3-2-0.83c-0.53-0.53-0.83-1.26-0.83-2
	c0-0.76,0.3-1.47,0.83-2c0.53-0.53,1.26-0.83,2-0.83h2.83c0.76,0,1.47,0.3,2,0.83C72.41,41.61,72.7,42.32,72.7,43.08z M35.95,33.05
	c0.26,0.27,0.58,0.48,0.92,0.64c0.35,0.15,0.71,0.23,1.09,0.23s0.76-0.08,1.11-0.21s0.67-0.35,0.94-0.62s0.47-0.58,0.62-0.94
	c0.14-0.35,0.21-0.73,0.21-1.11s-0.08-0.74-0.23-1.09s-0.36-0.67-0.64-0.92l-2-2c-0.53-0.52-1.26-0.8-2-0.8s-1.45,0.3-1.98,0.83
	s-0.82,1.24-0.83,1.98c0,0.74,0.27,1.45,0.8,2L35.95,33.05z M35.82,43.08c0,0.76-0.3,1.47-0.83,2c-0.53,0.53-1.26,0.83-2,0.83h-2.83
	c-0.76,0-1.47-0.3-2-0.83c-0.53-0.53-0.83-1.26-0.83-2c0-0.76,0.3-1.47,0.83-2s1.26-0.83,2-0.83h2.83c0.76,0,1.47,0.3,2,0.83
	C35.52,41.61,35.82,42.32,35.82,43.08z M44.32,60.11v-2.83h11.35v2.83c0,1.5-0.59,2.95-1.67,4.02c-1.08,1.06-2.52,1.67-4.02,1.67
	c-1.5,0-2.95-0.59-4.02-1.67C44.92,63.05,44.32,61.61,44.32,60.11z M55.68,54.42c0.05-0.97,0.59-1.83,1.35-2.44
	c1.85-1.45,3.2-3.47,3.86-5.73c0.67-2.26,0.61-4.68-0.17-6.91c-0.77-2.23-2.23-4.17-4.14-5.53c-1.92-1.36-4.23-2.11-6.58-2.11
	s-4.67,0.74-6.58,2.11c-1.92,1.36-3.36,3.3-4.14,5.53s-0.83,4.64-0.17,6.91c0.67,2.26,2.02,4.27,3.86,5.73
	c0.77,0.61,1.32,1.47,1.35,2.44H55.68L55.68,54.42z"/>
</svg>
