<?xml version="1.0" encoding="utf-8"?>
<!-- Generator: Adobe Illustrator 24.1.2, SVG Export Plug-In . SVG Version: 6.00 Build 0)  -->
<svg version="1.1" id="Layer_1" xmlns="http://www.w3.org/2000/svg" xmlns:xlink="http://www.w3.org/1999/xlink" x="0px" y="0px"
	 viewBox="0 0 100 100" style="enable-background:new 0 0 100 100;" xml:space="preserve">
<style type="text/css">
	.st0{fill:#B6B6F3;}
	.st1{fill:#353590;}
</style>
<path class="st0" d="M35.35,88.09v6.05h-8.79c-1.62,0-2.93,1.31-2.93,2.93c0,1.62,1.31,2.93,2.93,2.93h46.88
	c1.62,0,2.93-1.31,2.93-2.93c0-1.62-1.31-2.93-2.93-2.93h-8.79v-6.05H35.35z"/>
<path class="st0" d="M2.93,82.23h94.14c1.62,0,2.93-1.31,2.93-2.93V14.84c0-1.62-1.31-2.93-2.93-2.93h-6.05v49.8
	c0,4.85-3.94,8.79-8.79,8.79H17.77c-4.85,0-8.79-3.94-8.79-8.79v-49.8H2.93C1.31,11.91,0,13.22,0,14.84V79.3
	C0,80.92,1.31,82.23,2.93,82.23z"/>
<path class="st1" d="M68.01,45.42l-7.52-2.51L63,50.44L68.01,45.42z"/>
<path class="st1" d="M14.84,61.72c0,1.62,1.31,2.93,2.93,2.93h64.45c1.62,0,2.93-1.31,2.93-2.93V29.49H14.84V61.72z M53.79,36.21
	c0.79-0.78,1.95-1.06,3-0.71l17.58,5.86c0.96,0.32,1.69,1.12,1.92,2.11c0.23,0.99-0.06,2.03-0.78,2.74L71.72,50l3.79,3.79
	c1.14,1.14,1.14,3,0,4.14c-1.14,1.14-3,1.14-4.14,0l-3.79-3.79l-3.79,3.79c-0.71,0.71-1.74,1.01-2.75,0.78
	c-0.98-0.23-1.79-0.96-2.11-1.93l-5.86-17.58C52.73,38.16,53,36.99,53.79,36.21z M26.56,35.35h17.58c1.62,0,2.93,1.31,2.93,2.93
	s-1.31,2.93-2.93,2.93H26.56c-1.62,0-2.93-1.31-2.93-2.93S24.94,35.35,26.56,35.35z M26.56,47.07h17.58c1.62,0,2.93,1.31,2.93,2.93
	s-1.31,2.93-2.93,2.93H26.56c-1.62,0-2.93-1.31-2.93-2.93S24.94,47.07,26.56,47.07z"/>
<path class="st1" d="M56.79,35.5c-1.05-0.35-2.21-0.07-3,0.71c-0.78,0.78-1.06,1.95-0.71,3l5.86,17.58
	c0.32,0.96,1.12,1.69,2.11,1.93c1.01,0.23,2.04-0.07,2.75-0.78l3.79-3.79l3.79,3.79c1.14,1.14,3,1.14,4.14,0
	c1.14-1.14,1.14-3,0-4.14L71.72,50l3.79-3.79c0.72-0.72,1.01-1.76,0.78-2.74c-0.23-0.99-0.96-1.79-1.92-2.11L56.79,35.5z"/>
<path class="st1" d="M44.14,35.35H26.56c-1.62,0-2.93,1.31-2.93,2.93s1.31,2.93,2.93,2.93h17.58c1.62,0,2.93-1.31,2.93-2.93
	S45.76,35.35,44.14,35.35z"/>
<path class="st1" d="M44.14,47.07H26.56c-1.62,0-2.93,1.31-2.93,2.93s1.31,2.93,2.93,2.93h17.58c1.62,0,2.93-1.31,2.93-2.93
	S45.76,47.07,44.14,47.07z"/>
<path class="st0" d="M56.07,35.57c-1.05-0.35-2.21-0.07-3,0.71c-0.78,0.78-1.06,1.95-0.71,3l5.86,17.58
	c0.32,0.96,1.12,1.69,2.11,1.93c1.01,0.23,2.04-0.07,2.75-0.78l3.79-3.79L70.65,58c1.14,1.14,3,1.14,4.14,0c1.14-1.14,1.14-3,0-4.14
	L71,50.07l3.79-3.79c0.72-0.72,1.01-1.76,0.78-2.74c-0.23-0.99-0.96-1.79-1.92-2.11L56.07,35.57z"/>
<path class="st0" d="M43.42,35.42H25.85c-1.62,0-2.93,1.31-2.93,2.93c0,1.62,1.31,2.93,2.93,2.93h17.58c1.62,0,2.93-1.31,2.93-2.93
	C46.35,36.73,45.04,35.42,43.42,35.42z"/>
<path class="st0" d="M43.42,47.14H25.85c-1.62,0-2.93,1.31-2.93,2.93c0,1.62,1.31,2.93,2.93,2.93h17.58c1.62,0,2.93-1.31,2.93-2.93
	C46.35,48.45,45.04,47.14,43.42,47.14z"/>
<path class="st1" d="M85.16,2.93c0-1.62-1.31-2.93-2.93-2.93H17.77c-1.62,0-2.93,1.31-2.93,2.93v20.7h70.31V2.93z M26.56,14.84
	c-1.62,0-2.93-1.31-2.93-2.93c0-1.62,1.31-2.93,2.93-2.93s2.93,1.31,2.93,2.93C29.49,13.53,28.18,14.84,26.56,14.84z M38.28,14.84
	c-1.62,0-2.93-1.31-2.93-2.93c0-1.62,1.31-2.93,2.93-2.93s2.93,1.31,2.93,2.93C41.21,13.53,39.9,14.84,38.28,14.84z M50,14.84
	c-1.62,0-2.93-1.31-2.93-2.93c0-1.62,1.31-2.93,2.93-2.93s2.93,1.31,2.93,2.93C52.93,13.53,51.62,14.84,50,14.84z"/>
<path class="st1" d="M23.63,11.91c0,1.62,1.31,2.93,2.93,2.93s2.93-1.31,2.93-2.93c0-1.62-1.31-2.93-2.93-2.93
	S23.63,10.3,23.63,11.91z"/>
<path class="st1" d="M35.35,11.91c0,1.62,1.31,2.93,2.93,2.93s2.93-1.31,2.93-2.93c0-1.62-1.31-2.93-2.93-2.93
	S35.35,10.3,35.35,11.91z"/>
<path class="st1" d="M47.07,11.91c0,1.62,1.31,2.93,2.93,2.93s2.93-1.31,2.93-2.93c0-1.62-1.31-2.93-2.93-2.93
	S47.07,10.3,47.07,11.91z"/>
<path class="st0" d="M22.92,11.26c0,1.62,1.31,2.93,2.93,2.93c1.62,0,2.93-1.31,2.93-2.93c0-1.62-1.31-2.93-2.93-2.93
	C24.23,8.33,22.92,9.64,22.92,11.26z"/>
<path class="st0" d="M34.64,11.26c0,1.62,1.31,2.93,2.93,2.93c1.62,0,2.93-1.31,2.93-2.93c0-1.62-1.31-2.93-2.93-2.93
	C35.95,8.33,34.64,9.64,34.64,11.26z"/>
<path class="st0" d="M46.35,11.26c0,1.62,1.31,2.93,2.93,2.93c1.62,0,2.93-1.31,2.93-2.93c0-1.62-1.31-2.93-2.93-2.93
	C47.67,8.33,46.35,9.64,46.35,11.26z"/>
</svg>
