<?xml version="1.0" encoding="utf-8"?>
<!-- Generator: Adobe Illustrator 24.1.2, SVG Export Plug-In . SVG Version: 6.00 Build 0)  -->
<svg version="1.1" id="Layer_1" xmlns="http://www.w3.org/2000/svg" xmlns:xlink="http://www.w3.org/1999/xlink" x="0px" y="0px"
	 viewBox="0 0 100 100" style="enable-background:new 0 0 100 100;" xml:space="preserve">
<style type="text/css">
	.st0{fill:#FFFFFF;}
	.st1{fill:#B6B6F3;}
</style>
<path class="st0" d="M35.36,88.07v6.06h-8.79c-1.62,0-2.94,1.31-2.94,2.94c0,1.62,1.31,2.94,2.94,2.94h46.87
	c1.62,0,2.94-1.31,2.94-2.94c0-1.62-1.31-2.94-2.94-2.94h-8.79v-6.06H35.36z"/>
<path class="st0" d="M2.94,82.22h94.14c1.62,0,2.94-1.31,2.94-2.94V14.85c0-1.62-1.31-2.94-2.94-2.94h-6.06v49.81
	c0,4.85-3.94,8.79-8.79,8.79H17.77c-4.85,0-8.79-3.94-8.79-8.79V11.92H2.92c-1.62,0-2.94,1.31-2.94,2.94V79.3
	C0.01,80.91,1.32,82.22,2.94,82.22z"/>
<path class="st1" d="M14.86,61.72c0,1.62,1.31,2.94,2.94,2.94h64.45c1.62,0,2.94-1.31,2.94-2.94V29.5H14.86V61.72z M53.79,36.2
	c0.79-0.77,1.96-1.06,3-0.71l17.58,5.85c0.96,0.31,1.69,1.12,1.92,2.1c0.23,0.98-0.06,2.02-0.77,2.75l-3.79,3.79l3.79,3.79
	c1.15,1.15,1.15,3,0,4.15c-1.15,1.15-3,1.15-4.15,0l-3.79-3.79l-3.79,3.79c-0.71,0.71-1.73,1.02-2.75,0.77
	c-0.98-0.23-1.79-0.96-2.1-1.92L53.08,39.2C52.73,38.14,53,37,53.79,36.2z M26.57,35.35h17.58c1.62,0,2.94,1.31,2.94,2.94
	s-1.31,2.94-2.94,2.94H26.57c-1.62,0-2.94-1.31-2.94-2.94S24.94,35.35,26.57,35.35z M26.57,47.06h17.58c1.62,0,2.94,1.31,2.94,2.94
	c0,1.62-1.31,2.94-2.94,2.94H26.57c-1.62,0-2.94-1.31-2.94-2.94C23.63,48.37,24.94,47.06,26.57,47.06z"/>
<path class="st0" d="M56.06,35.56c-1.04-0.35-2.21-0.06-3,0.71c-0.79,0.79-1.06,1.94-0.71,3l5.85,17.58
	c0.31,0.96,1.12,1.69,2.1,1.92c1.02,0.23,2.04-0.08,2.75-0.77l3.79-3.79l3.79,3.79c1.15,1.15,3,1.15,4.15,0c1.15-1.15,1.15-3,0-4.15
	L71,50.06l3.79-3.79c0.73-0.71,1.02-1.75,0.77-2.75c-0.23-1-0.96-1.79-1.92-2.1L56.06,35.56z"/>
<path class="st0" d="M43.42,35.41H25.84c-1.6,0-2.92,1.31-2.92,2.94s1.31,2.94,2.94,2.94h17.58c1.62,0,2.94-1.31,2.94-2.94
	C46.35,36.73,45.04,35.41,43.42,35.41z"/>
<path class="st0" d="M43.42,47.14H25.84c-1.62,0-2.94,1.31-2.94,2.94s1.31,2.94,2.94,2.94h17.58c1.62,0,2.94-1.31,2.94-2.94
	C46.35,48.43,45.04,47.14,43.42,47.14z"/>
<path class="st1" d="M85.16,2.94c0-1.62-1.31-2.94-2.94-2.94H17.77c-1.62,0-2.94,1.31-2.94,2.94v20.71h70.3V2.94H85.16z
	 M26.57,14.85c-1.62,0-2.94-1.31-2.94-2.94s1.31-2.94,2.94-2.94c1.62,0,2.94,1.31,2.94,2.94S28.19,14.85,26.57,14.85z M38.29,14.85
	c-1.62,0-2.94-1.31-2.94-2.94s1.31-2.94,2.94-2.94c1.62,0,2.94,1.31,2.94,2.94C41.21,13.54,39.9,14.85,38.29,14.85z M50,14.85
	c-1.62,0-2.94-1.31-2.94-2.94S48.38,8.98,50,8.98s2.94,1.31,2.94,2.94S51.62,14.85,50,14.85z"/>
<path class="st0" d="M22.92,11.27c0,1.62,1.31,2.94,2.94,2.94c1.62,0,2.94-1.31,2.94-2.94s-1.31-2.94-2.94-2.94
	C24.23,8.33,22.92,9.64,22.92,11.27z"/>
<path class="st0" d="M34.65,11.27c0,1.62,1.31,2.94,2.94,2.94c1.62,0,2.94-1.31,2.94-2.94s-1.31-2.94-2.94-2.94
	C35.94,8.33,34.65,9.64,34.65,11.27z"/>
<path class="st0" d="M46.35,11.27c0,1.62,1.31,2.94,2.94,2.94c1.62,0,2.94-1.31,2.94-2.94s-1.31-2.94-2.94-2.94
	C47.67,8.33,46.35,9.64,46.35,11.27z"/>
</svg>
