<?xml version="1.0" encoding="utf-8"?>
<!-- Generator: Adobe Illustrator 24.1.2, SVG Export Plug-In . SVG Version: 6.00 Build 0)  -->
<svg version="1.1" id="Layer_1" xmlns="http://www.w3.org/2000/svg" xmlns:xlink="http://www.w3.org/1999/xlink" x="0px" y="0px"
	 viewBox="0 0 100 100" style="enable-background:new 0 0 100 100;" xml:space="preserve">
<style type="text/css">
	.st0{fill:#FFFFFF;}
	.st1{display:none;}
	.st2{display:inline;fill:#B8B5DA;}
	.st3{display:inline;fill:#595AA7;}
	.st4{fill:#B8B5DA;}
</style>
<g>
	<ellipse class="st0" cx="50" cy="87.16" rx="50" ry="12.84"/>
</g>
<g class="st1">
	<rect x="-151" y="-151" class="st2" width="402" height="402"/>
	<path class="st3" d="M236-136v372h-372v-372H236 M253.86-166h-407.72c-6.7,0-12.14,5.44-12.14,12.14v407.72
		c0,6.7,5.44,12.14,12.14,12.14h407.72c6.71,0,12.14-5.44,12.14-12.14v-407.72C266-160.56,260.56-166,253.86-166L253.86-166z"/>
</g>
<path class="st4" d="M58.7,0c2.21,2.45,2.94,5.96,2.3,9.12c-0.68,3.55-2.7,6.69-5.07,9.4c-1.9,2.18-4.09,4.1-6.36,5.89
	c-2.66,2.09-5.26,4.33-6.93,7.27c-1.41,2.38-1.74,5.32-0.78,7.91c1.57,4.45,5.24,7.75,7.23,11.94c-2.21-1.9-4.37-3.87-6.39-5.96
	c-2.11-2.2-4.11-4.54-5.43-7.29c-0.89-1.93-1.29-4.17-0.61-6.21c0.68-2.09,2.21-3.76,3.73-5.32c4.25-4.15,9.49-7.2,13.65-11.41
	c2.3-2.32,4.21-5.09,4.86-8.28C59.45,4.72,59.19,2.32,58.7,0L58.7,0z"/>
<path class="st4" d="M55.22,26.11c4.56-3.28,9.89-5.36,15.29-6.88c-4.27,2.66-8.74,5.09-12.42,8.5c-1.34,1.26-2.61,2.7-3.19,4.47
	c-0.45,1.31-0.26,2.75,0.28,3.99c0.99,2.2,2.66,3.99,3.92,6.01c1.08,1.72,1.27,3.92,0.45,5.78c-1.24,2.73-3.69,4.72-6.22,6.3
	c-0.33,0.18-0.61,0.53-1.01,0.57c1.69-1.49,3.01-3.6,2.96-5.87c-0.05-1.7-1.01-3.19-2.14-4.4c-2.33-2.7-4.27-6.14-3.88-9.79
	C49.66,31.15,52.33,28.22,55.22,26.11L55.22,26.11z"/>
<path class="st4" d="M71.38,52.6c0.99-1.17,2.56-1.47,3.99-1.65c2.49-0.32,5.14,0.3,7.02,1.97c1.55,1.35,2.42,3.46,2.09,5.5
	c-0.35,2.36-1.97,4.33-3.81,5.82c-3.31,2.59-7.4,4.1-11.49,5.11c0.24-0.25,0.49-0.48,0.8-0.66c3.1-1.63,6.18-3.53,8.46-6.19
	c1.39-1.65,2.47-3.81,2.02-5.98C80,54,77.49,52.16,74.92,52.02C73.71,51.92,72.56,52.38,71.38,52.6L71.38,52.6z"/>
<path class="st4" d="M24.17,54.69c4.32-1.81,9.02-2.98,13.74-2.91c-2.75,0.78-5.57,1.44-8.15,2.64c-0.61,0.32-1.31,0.62-1.67,1.24
	c-0.19,0.48,0.33,0.8,0.71,0.96c1.6,0.64,3.36,0.73,5.07,0.9c6.01,0.39,12.05,0.16,18.04-0.21c5.92-0.37,11.79-1.15,17.64-2.06
	c-1.29,0.6-2.61,1.19-3.81,1.95c-0.61,0.41-1.36,0.53-2.04,0.69c-7.19,1.56-14.56,2.04-21.89,2.15c-2.84,0.02-5.66-0.02-8.48-0.21
	c-3.15-0.21-6.32-0.43-9.39-1.24c-0.89-0.25-1.83-0.53-2.54-1.15c-0.35-0.27-0.35-0.82-0.05-1.15
	C22.13,55.52,23.21,55.15,24.17,54.69L24.17,54.69z"/>
<path class="st4" d="M29.71,64.48c1.22-0.94,2.68-1.47,4.13-1.97c-0.47,0.55-1.13,1.08-1.17,1.83c-0.02,0.48,0.38,0.85,0.78,1.08
	c0.78,0.39,1.64,0.53,2.51,0.64c4.51,0.46,9.07,0.71,13.62,0.41c4.16-0.21,8.29-0.87,12.4-1.58c1.13,1.03,2.47,1.74,3.88,2.36
	c-4.96,1.42-10.05,2.25-15.17,2.64c-4.84,0.32-9.75,0.3-14.56-0.46c-1.9-0.34-3.85-0.73-5.59-1.6c-0.71-0.37-1.5-0.85-1.71-1.65
	C28.68,65.48,29.2,64.87,29.71,64.48L29.71,64.48z"/>
<path class="st4" d="M32.44,74.47c1.08-0.85,2.42-1.28,3.73-1.65c-0.42,0.39-1.17,0.87-0.84,1.54c0.63,0.8,1.81,0.9,2.75,1.1
	c3.97,0.48,7.99,0.8,11.96,0.51c3.01-0.18,5.97-0.71,8.9-1.21c1.69,0.96,3.45,1.79,5.26,2.52c-2.77,1.21-5.76,1.99-8.74,2.54
	c-5.03,0.87-10.22,0.98-15.27,0.21c-2.23-0.39-4.51-0.9-6.53-1.97c-0.78-0.43-1.6-0.94-1.93-1.79
	C31.48,75.59,31.9,74.88,32.44,74.47L32.44,74.47z"/>
<path class="st4" d="M19.41,80.96c2.16-0.71,4.39-1.28,6.67-1.35c0.92-0.02,1.86,0.02,2.66,0.48c-2.72,0.16-5.45,0.82-7.89,2.04
	c-0.54,0.3-1.15,0.64-1.36,1.26c0,0.71,0.82,0.94,1.36,1.17c3.41,1.24,7.05,1.63,10.61,1.99c10.64,0.87,21.35,0.64,31.99-0.3
	c4.02-0.43,8.06-0.87,11.96-1.95c1.24-0.41,2.66-0.82,3.48-1.9c0.49-0.64,0.16-1.44-0.33-1.99c0.8,0.43,1.93,0.99,1.76,2.04
	c-0.31,1.1-1.46,1.67-2.39,2.2c-3.01,1.49-6.32,2.25-9.61,2.91c-9.56,1.83-19.35,2.25-29.08,1.97c-7.33-0.25-14.66-0.94-21.89-2.15
	c-1.29-0.3-2.75-0.55-3.69-1.54c-0.61-0.69-0.07-1.65,0.52-2.15C15.65,82.35,17.55,81.62,19.41,80.96L19.41,80.96z"/>
<path class="st4" d="M74.65,77.85c1.99-0.69,4.11-1.41,5.58-2.99c-0.26,1.71-1.73,2.89-3.18,3.66c-2.79,1.45-5.91,2.12-9.02,2.67
	c-6.56,1.04-13.22,1.3-19.89,1.18c-4.54-0.14-9.12-0.31-13.58-1.26c-1.06-0.29-2.2-0.49-3.12-1.12c3.97,0.67,8,0.94,12.03,1.1
	c6.62,0.2,13.27-0.06,19.85-0.88C67.12,79.68,70.95,79.03,74.65,77.85L74.65,77.85z"/>
</svg>
