<?xml version="1.0" encoding="utf-8"?>
<!-- Generator: Adobe Illustrator 24.1.2, SVG Export Plug-In . SVG Version: 6.00 Build 0)  -->
<svg version="1.1" id="Layer_1" xmlns="http://www.w3.org/2000/svg" xmlns:xlink="http://www.w3.org/1999/xlink" x="0px" y="0px"
	 viewBox="0 0 100 100" style="enable-background:new 0 0 100 100;" xml:space="preserve">
<style type="text/css">
	.st0{clip-path:url(#SVGID_2_);}
	.st1{fill:#B6B6F3;}
	.st2{fill:#353590;}
</style>
<g>
	<defs>
		<rect id="SVGID_1_" width="100" height="100"/>
	</defs>
	<clipPath id="SVGID_2_">
		<use xlink:href="#SVGID_1_"  style="overflow:visible;"/>
	</clipPath>
	<g class="st0">
		<path class="st1" d="M19.14,88.28v3.9c0,4.31,3.51,7.82,7.82,7.82h45.88c4.31,0,7.82-3.51,7.82-7.82v-3.9H19.14z"/>
		<path class="st1" d="M72.84,0H26.96c-4.31,0-7.82,3.51-7.82,7.82v74.6h61.52V7.82C80.66,3.51,77.16,0,72.84,0z M41.68,54.66
			c0.99,1.28,0.75,3.12-0.54,4.11c-0.53,0.41-1.16,0.61-1.78,0.61c-0.88,0-1.75-0.39-2.32-1.14l-5.6-7.29
			c-0.96-1.25-0.96-2.99,0-4.24l5.6-7.29c0.99-1.28,2.83-1.52,4.11-0.54c1.28,0.99,1.52,2.83,0.54,4.11l-4.49,5.83L41.68,54.66z
			 M54.47,42.04l-4.49,15.23c-0.38,1.28-1.54,2.1-2.81,2.1c-0.27,0-0.55-0.04-0.83-0.12c-1.55-0.46-2.44-2.09-1.98-3.64l4.49-15.23
			c0.46-1.55,2.09-2.44,3.64-1.98C54.04,38.86,54.93,40.49,54.47,42.04z M43.95,13.48c-1.62,0-2.93-1.31-2.93-2.93
			s1.31-2.93,2.93-2.93h11.91c1.62,0,2.93,1.31,2.93,2.93s-1.31,2.93-2.93,2.93H43.95z M67.59,50.95l-5.6,7.29
			c-0.58,0.75-1.45,1.14-2.32,1.14c-0.62,0-1.25-0.2-1.78-0.61c-1.28-0.99-1.52-2.83-0.54-4.11l4.49-5.83L57.35,43
			c-0.99-1.28-0.75-3.12,0.54-4.11c1.28-0.99,3.12-0.75,4.11,0.54l5.6,7.29C68.55,47.96,68.55,49.7,67.59,50.95z"/>
		<path class="st1" d="M41.14,58.77c1.28-0.99,1.52-2.83,0.54-4.11l-4.49-5.83L41.68,43c0.99-1.28,0.75-3.12-0.54-4.11
			c-1.28-0.99-3.12-0.75-4.11,0.54l-5.6,7.29c-0.96,1.25-0.96,2.99,0,4.24l5.6,7.29c0.58,0.75,1.45,1.14,2.32,1.14
			C39.98,59.38,40.61,59.18,41.14,58.77z"/>
		<path class="st1" d="M49.98,57.27l4.49-15.23c0.46-1.55-0.43-3.18-1.98-3.64c-1.55-0.46-3.18,0.43-3.64,1.98l-4.49,15.23
			c-0.46,1.55,0.43,3.18,1.98,3.64c0.28,0.08,0.56,0.12,0.83,0.12C48.43,59.38,49.6,58.55,49.98,57.27z"/>
		<path class="st1" d="M61.99,58.23l5.6-7.29c0.96-1.25,0.96-2.99,0-4.24l-5.6-7.29c-0.99-1.28-2.83-1.52-4.11-0.54
			c-1.28,0.99-1.52,2.83-0.54,4.11l4.49,5.83l-4.49,5.83c-0.99,1.28-0.75,3.12,0.54,4.11c0.53,0.41,1.16,0.61,1.78,0.61
			C60.54,59.38,61.41,58.98,61.99,58.23z"/>
		<path class="st2" d="M41.14,58.77c1.28-0.99,1.52-2.83,0.54-4.11l-4.49-5.83L41.68,43c0.99-1.28,0.75-3.12-0.54-4.11
			c-1.28-0.99-3.12-0.75-4.11,0.54l-5.6,7.29c-0.96,1.25-0.96,2.99,0,4.24l5.6,7.29c0.58,0.75,1.45,1.14,2.32,1.14
			C39.98,59.38,40.61,59.18,41.14,58.77z"/>
		<path class="st2" d="M49.98,57.27l4.49-15.23c0.46-1.55-0.43-3.18-1.98-3.64c-1.55-0.46-3.18,0.43-3.64,1.98l-4.49,15.23
			c-0.46,1.55,0.43,3.18,1.98,3.64c0.28,0.08,0.56,0.12,0.83,0.12C48.44,59.38,49.6,58.55,49.98,57.27z"/>
		<path class="st2" d="M61.99,58.23l5.6-7.29c0.96-1.25,0.96-2.99,0-4.24l-5.6-7.29c-0.99-1.28-2.83-1.52-4.11-0.54
			c-1.28,0.99-1.52,2.83-0.54,4.11l4.49,5.83l-4.49,5.83c-0.99,1.28-0.75,3.12,0.54,4.11c0.53,0.41,1.16,0.61,1.78,0.61
			C60.54,59.38,61.41,58.98,61.99,58.23z"/>
	</g>
</g>
</svg>
