<?xml version="1.0" encoding="utf-8"?>
<!-- Generator: Adobe Illustrator 24.1.2, SVG Export Plug-In . SVG Version: 6.00 Build 0)  -->
<svg version="1.1" id="Layer_1" xmlns="http://www.w3.org/2000/svg" xmlns:xlink="http://www.w3.org/1999/xlink" x="0px" y="0px"
	 viewBox="0 0 100 100" style="enable-background:new 0 0 100 100;" xml:space="preserve">
<style type="text/css">
	.st0{clip-path:url(#SVGID_2_);}
	.st1{fill:#FFFFFF;}
	.st2{fill:#B6B6F3;}
</style>
<g>
	<g>
		<defs>
			<rect id="SVGID_1_" width="100" height="100"/>
		</defs>
		<clipPath id="SVGID_2_">
			<use xlink:href="#SVGID_1_"  style="overflow:visible;"/>
		</clipPath>
		<g class="st0">
			<path class="st1" d="M19.15,88.29v3.9c0,4.31,3.5,7.81,7.81,7.81h45.87c4.31,0,7.81-3.5,7.81-7.81v-3.9H19.15z"/>
			<path class="st1" d="M72.85,0h-45.9c-4.31,0-7.81,3.5-7.81,7.81v74.6h61.52V7.81C80.67,3.5,77.15,0,72.85,0z M41.69,54.67
				c0.98,1.29,0.75,3.13-0.54,4.1c-0.54,0.42-1.17,0.6-1.79,0.6c-0.88,0-1.75-0.4-2.33-1.15l-5.6-7.29c-0.96-1.25-0.96-2.98,0-4.23
				l5.6-7.29c0.98-1.29,2.83-1.52,4.1-0.54c1.29,0.98,1.52,2.83,0.54,4.1l-4.48,5.83L41.69,54.67z M54.48,42.04l-4.5,15.23
				c-0.38,1.27-1.54,2.1-2.81,2.1c-0.27,0-0.56-0.04-0.83-0.13c-1.54-0.46-2.44-2.08-1.98-3.65l4.5-15.23
				c0.46-1.54,2.08-2.44,3.65-1.98C54.04,38.85,54.94,40.48,54.48,42.04z M43.94,13.48c-1.62,0-2.94-1.31-2.94-2.94
				s1.31-2.94,2.94-2.94h11.92c1.63,0,2.94,1.31,2.94,2.94s-1.31,2.94-2.94,2.94H43.94z M67.6,50.94L62,58.23
				c-0.58,0.75-1.44,1.15-2.33,1.15c-0.62,0-1.25-0.21-1.79-0.6c-1.29-0.98-1.52-2.83-0.54-4.1l4.48-5.83L57.33,43
				c-0.98-1.29-0.75-3.13,0.54-4.1c1.29-0.98,3.13-0.75,4.1,0.54l5.6,7.29C68.56,47.96,68.56,49.71,67.6,50.94z"/>
			<path class="st2" d="M41.15,58.77c1.29-0.98,1.52-2.83,0.54-4.1l-4.48-5.83L41.69,43c0.98-1.29,0.75-3.13-0.54-4.1
				c-1.29-0.98-3.13-0.75-4.1,0.54l-5.6,7.29c-0.96,1.25-0.96,2.98,0,4.23l5.6,7.29c0.58,0.75,1.44,1.15,2.33,1.15
				C39.98,59.38,40.6,59.17,41.15,58.77z"/>
			<path class="st2" d="M49.98,57.27l4.5-15.23c0.46-1.54-0.44-3.19-1.98-3.65c-1.54-0.46-3.19,0.44-3.65,1.98l-4.5,15.23
				c-0.46,1.54,0.44,3.19,1.98,3.65c0.27,0.08,0.56,0.13,0.83,0.13C48.44,59.38,49.6,58.54,49.98,57.27z"/>
			<path class="st2" d="M62,58.23l5.6-7.29c0.96-1.25,0.96-2.98,0-4.23L62,39.42c-0.98-1.29-2.83-1.52-4.1-0.54
				c-1.29,0.98-1.52,2.83-0.54,4.1l4.48,5.83l-4.48,5.83c-0.98,1.29-0.75,3.13,0.54,4.1c0.54,0.42,1.17,0.6,1.79,0.6
				C60.54,59.38,61.42,58.98,62,58.23z"/>
			<path class="st2" d="M41.15,58.77c1.29-0.98,1.52-2.83,0.54-4.1l-4.48-5.83L41.69,43c0.98-1.29,0.75-3.13-0.54-4.1
				c-1.29-0.98-3.13-0.75-4.1,0.54l-5.6,7.29c-0.96,1.25-0.96,2.98,0,4.23l5.6,7.29c0.58,0.75,1.44,1.15,2.33,1.15
				C39.98,59.38,40.6,59.17,41.15,58.77z"/>
			<path class="st2" d="M49.98,57.27l4.5-15.23c0.46-1.54-0.44-3.19-1.98-3.65c-1.54-0.46-3.19,0.44-3.65,1.98l-4.5,15.23
				c-0.46,1.54,0.44,3.19,1.98,3.65c0.27,0.08,0.56,0.13,0.83,0.13C48.44,59.38,49.6,58.54,49.98,57.27z"/>
			<path class="st2" d="M62,58.23l5.6-7.29c0.96-1.25,0.96-2.98,0-4.23L62,39.42c-0.98-1.29-2.83-1.52-4.1-0.54
				c-1.29,0.98-1.52,2.83-0.54,4.1l4.48,5.83l-4.48,5.83c-0.98,1.29-0.75,3.13,0.54,4.1c0.54,0.42,1.17,0.6,1.79,0.6
				C60.54,59.38,61.42,58.98,62,58.23z"/>
		</g>
	</g>
</g>
</svg>
