<?xml version="1.0" encoding="utf-8"?>
<!-- Generator: Adobe Illustrator 24.1.2, SVG Export Plug-In . SVG Version: 6.00 Build 0)  -->
<svg version="1.1" id="Layer_1" xmlns="http://www.w3.org/2000/svg" xmlns:xlink="http://www.w3.org/1999/xlink" x="0px" y="0px"
	 viewBox="0 0 100 100" style="enable-background:new 0 0 100 100;" xml:space="preserve">
<style type="text/css">
	.st0{fill:#FFFFFF;}
	.st1{fill:#B6B6F3;}
</style>
<path class="st0" d="M32.8,85.57v5.28h-7.66c-1.42,0-2.56,1.14-2.56,2.56c0,1.42,1.14,2.56,2.56,2.56h40.84
	c1.42,0,2.56-1.14,2.56-2.56c0-1.42-1.14-2.56-2.56-2.56h-7.66v-5.28H32.8z"/>
<path class="st0" d="M4.55,80.47h82.03c1.42,0,2.56-1.14,2.56-2.56V21.77c0-1.42-1.14-2.56-2.56-2.56H81.3H4.55
	c-1.42,0-2.56,1.14-2.56,2.56v56.16C1.99,79.33,3.14,80.47,4.55,80.47z"/>
<path class="st1" d="M25.61,58.83c1.13-0.85,1.33-2.47,0.47-3.58l-3.9-5.08l3.9-5.08c0.85-1.13,0.65-2.72-0.47-3.58
	c-1.13-0.85-2.72-0.65-3.58,0.47l-4.88,6.35c-0.83,1.09-0.83,2.6,0,3.68l4.88,6.35c0.51,0.65,1.25,1,2.03,1
	C24.59,59.38,25.14,59.2,25.61,58.83z"/>
<path class="st1" d="M33.3,57.55l3.92-13.27c0.4-1.34-0.38-2.78-1.72-3.18s-2.78,0.38-3.18,1.72L28.4,56.09
	c-0.4,1.34,0.38,2.78,1.72,3.18c0.24,0.07,0.49,0.11,0.73,0.11C31.96,59.38,32.98,58.65,33.3,57.55z"/>
<path class="st1" d="M43.76,58.38l4.88-6.35c0.83-1.09,0.83-2.6,0-3.68l-4.88-6.35c-0.85-1.13-2.47-1.33-3.58-0.47
	c-1.13,0.85-1.33,2.47-0.47,3.58l3.9,5.08l-3.9,5.08c-0.85,1.13-0.65,2.72,0.47,3.58c0.47,0.36,1.02,0.53,1.56,0.53
	C42.51,59.38,43.27,59.03,43.76,58.38z"/>
<path class="st1" d="M68.76,62.77h25.23c2.8,0,5.05-2.27,5.05-5.05V37.54c0-2.8-2.25-5.05-5.05-5.05H68.76
	c-2.8,0-5.05,2.27-5.05,5.05v20.19C63.71,60.5,65.96,62.77,68.76,62.77z"/>
<path class="st1" d="M73.51,32.3h-5.05V21.1c0-6.95,5.55-12.71,12.49-12.78c7.01-0.07,12.74,5.63,12.74,12.62
	c0,1.4-1.13,2.52-2.52,2.52h-0.13c-1.33,0-2.4-1.07-2.4-2.4c0-4.14-3.29-7.62-7.42-7.7c-4.25-0.07-7.71,3.34-7.71,7.57
	C73.51,20.93,73.51,32.3,73.51,32.3z"/>
<path class="st1" d="M85.46,44.13c0-2.23-1.89-4.03-4.16-3.87c-1.92,0.13-3.47,1.69-3.59,3.59c-0.11,1.54,0.71,2.92,1.92,3.63v6.35
	c0,1.07,0.87,1.94,1.94,1.94c1.07,0,1.94-0.87,1.94-1.94v-6.35C84.68,46.82,85.46,45.57,85.46,44.13z"/>
<path class="st1" d="M96.22,27.25c-0.33,0-0.65-0.13-0.89-0.36c-0.49-0.49-0.49-1.29,0-1.78l2.52-2.52c0.49-0.49,1.29-0.49,1.78,0
	c0.49,0.49,0.49,1.29,0,1.78l-2.52,2.52C96.87,27.12,96.55,27.25,96.22,27.25z"/>
<path class="st1" d="M86.13,27.25c-0.33,0-0.65-0.13-0.89-0.36l-2.52-2.52c-0.49-0.49-0.49-1.29,0-1.78c0.49-0.49,1.29-0.49,1.78,0
	l2.52,2.52c0.49,0.49,0.49,1.29,0,1.78C86.78,27.12,86.45,27.25,86.13,27.25z"/>
</svg>
