<?xml version="1.0" encoding="utf-8"?>
<!-- Generator: Adobe Illustrator 24.1.2, SVG Export Plug-In . SVG Version: 6.00 Build 0)  -->
<svg version="1.1" id="Layer_1" xmlns="http://www.w3.org/2000/svg" xmlns:xlink="http://www.w3.org/1999/xlink" x="0px" y="0px"
	 viewBox="0 0 100 100" style="enable-background:new 0 0 100 100;" xml:space="preserve">
<style type="text/css">
	.st0{fill:#B6B6F3;}
	.st1{fill:#353590;}
</style>
<path class="st0" d="M32.61,85.91v5.33h-7.73c-1.43,0-2.58,1.15-2.58,2.58c0,1.43,1.15,2.58,2.58,2.58h41.25
	c1.43,0,2.58-1.15,2.58-2.58c0-1.43-1.15-2.58-2.58-2.58h-7.73v-5.33H32.61z"/>
<path class="st0" d="M4.08,80.76h82.84c1.42,0,2.58-1.15,2.58-2.58V21.46c0-1.42-1.15-2.58-2.58-2.58h-5.33H4.08
	c-1.42,0-2.58,1.15-2.58,2.58v56.72C1.5,79.6,2.65,80.76,4.08,80.76z"/>
<path class="st1" d="M25.35,58.91c1.13-0.87,1.34-2.49,0.47-3.62l-3.95-5.13l3.95-5.13c0.87-1.13,0.66-2.75-0.47-3.62
	c-1.13-0.87-2.75-0.66-3.62,0.47L16.8,48.3c-0.84,1.1-0.84,2.63,0,3.73l4.93,6.41c0.51,0.66,1.27,1.01,2.05,1.01
	C24.33,59.45,24.88,59.27,25.35,58.91z"/>
<path class="st1" d="M33.12,57.6l3.95-13.41c0.4-1.37-0.38-2.8-1.74-3.2c-1.37-0.4-2.8,0.38-3.2,1.74l-3.95,13.41
	c-0.4,1.37,0.38,2.8,1.74,3.2c0.24,0.07,0.49,0.11,0.73,0.11C31.76,59.45,32.79,58.72,33.12,57.6z"/>
<path class="st1" d="M43.69,58.44l4.93-6.41c0.84-1.1,0.84-2.63,0-3.73l-4.93-6.41c-0.87-1.13-2.49-1.34-3.62-0.47
	c-1.13,0.87-1.34,2.49-0.47,3.62l3.95,5.13l-3.95,5.13c-0.87,1.13-0.66,2.75,0.47,3.62c0.47,0.36,1.02,0.53,1.57,0.53
	C42.42,59.45,43.19,59.1,43.69,58.44z"/>
<path class="st1" d="M68.93,62.88h25.49c2.82,0,5.1-2.28,5.1-5.1V37.39c0-2.82-2.28-5.1-5.1-5.1H68.93c-2.82,0-5.1,2.28-5.1,5.1
	v20.39C63.83,60.6,66.12,62.88,68.93,62.88z"/>
<path class="st1" d="M73.74,32.1h-5.1V20.79c0-7.02,5.6-12.84,12.62-12.91c7.08-0.07,12.87,5.67,12.87,12.74
	c0,1.41-1.14,2.55-2.55,2.55h-0.13c-1.34,0-2.42-1.08-2.42-2.42c0-4.19-3.31-7.69-7.5-7.77c-4.28-0.08-7.79,3.38-7.79,7.65V32.1z"/>
<path class="st0" d="M85.79,44.06c0-2.26-1.91-4.07-4.2-3.91c-1.94,0.13-3.5,1.7-3.63,3.64c-0.11,1.56,0.71,2.95,1.95,3.67v6.41
	c0,1.08,0.88,1.96,1.96,1.96s1.96-0.88,1.96-1.96v-6.41C85.01,46.78,85.79,45.51,85.79,44.06z"/>
<path class="st1" d="M96.68,27c-0.33,0-0.65-0.12-0.9-0.37c-0.5-0.5-0.5-1.3,0-1.8l2.55-2.55c0.5-0.5,1.3-0.5,1.8,0
	c0.5,0.5,0.5,1.3,0,1.8l-2.55,2.55C97.33,26.88,97,27,96.68,27z"/>
<path class="st1" d="M86.48,27c-0.33,0-0.65-0.12-0.9-0.37l-2.55-2.55c-0.5-0.5-0.5-1.3,0-1.8c0.5-0.5,1.3-0.5,1.8,0l2.55,2.55
	c0.5,0.5,0.5,1.3,0,1.8C87.13,26.88,86.81,27,86.48,27z"/>
</svg>
