<svg width="83" height="32" viewBox="0 0 83 32" fill="none" xmlns="http://www.w3.org/2000/svg">
<g clip-path="url(#clip0)">
<path d="M82.5442 26.6884C82.2663 26.7393 82.0069 26.7903 81.7454 26.8351C81.484 26.88 81.1837 26.9391 80.9018 26.9656C80.8556 26.9676 80.8097 26.9582 80.768 26.9383C80.7263 26.9184 80.6902 26.8886 80.6628 26.8514C80.3727 26.0666 79.5107 25.8057 78.761 25.8791C78.5749 25.897 78.3909 25.9325 78.2114 25.9851C77.4066 26.2195 76.9082 26.8576 76.8632 27.7667C76.8454 28.1474 76.8749 28.5288 76.9511 28.9022C77.1737 30.001 78.1257 30.4882 79.143 30.4311C79.6408 30.3953 80.124 30.2475 80.5566 29.9989C80.7281 29.9052 80.8487 29.4057 80.722 29.2691C80.6567 29.2227 80.5773 29.2003 80.4973 29.2059C80.0642 29.2059 79.6312 29.1896 79.2002 29.2059C78.9428 29.2182 78.8754 29.1285 78.8917 28.8859C78.9121 28.576 78.8917 28.2743 78.8917 27.9563C78.8917 27.8177 78.9223 27.7525 79.0817 27.7525C80.2011 27.7525 81.3199 27.7525 82.4379 27.7525C82.5912 27.7525 82.6422 27.8075 82.6422 27.9563C82.6422 28.8268 82.6422 29.6993 82.6422 30.5717C82.6332 30.6794 82.5818 30.7791 82.4992 30.849C81.873 31.311 81.1479 31.6216 80.3809 31.7561C79.1716 31.9967 77.9786 31.9722 76.8489 31.4035C75.7193 30.8347 75.133 29.8318 74.9818 28.5781C74.8929 27.8884 74.9924 27.1876 75.2699 26.5497C75.4642 26.0845 75.7622 25.6695 76.1413 25.3364C76.5204 25.0034 76.9706 24.7609 77.4577 24.6274C78.5418 24.2961 79.7028 24.3125 80.7772 24.6743C81.7107 24.9923 82.3011 25.6691 82.5442 26.6884Z" fill="white"/>
<path d="M35.7217 20.479H32.0059C33.0586 14.1175 34.1092 7.76135 35.1579 1.41068H38.8614C38.491 3.62859 38.1226 5.84107 37.7563 8.04811L37.8073 8.07868C37.8666 7.99307 37.9258 7.90949 37.983 7.82387C38.459 7.11446 39.0044 6.48864 39.8215 6.15432C40.3505 5.92315 40.9211 5.80211 41.4986 5.7986C42.076 5.7951 42.6481 5.9092 43.1798 6.13393C44.046 6.49475 44.4627 7.23678 44.6404 8.11742C44.8181 8.99806 44.718 9.88278 44.573 10.7675L43.2677 18.6423C43.1676 19.2539 43.0634 19.8654 42.9551 20.477H39.1024C39.1801 20.0693 39.2577 19.6738 39.3312 19.2763C39.7398 17.093 40.1483 14.9098 40.5263 12.7224C40.5934 12.28 40.6146 11.8319 40.5896 11.3852C40.5549 10.4597 39.8583 9.99897 38.9758 10.2966C38.5344 10.4563 38.1605 10.7611 37.9156 11.1609C37.4397 11.9059 37.1156 12.7372 36.9616 13.6072C36.6368 15.1829 36.3488 16.7689 36.0689 18.3528C35.9402 19.05 35.8381 19.7574 35.7217 20.479Z" fill="#353590"/>
<path d="M77.0468 20.4953C77.1489 19.8838 77.2511 19.311 77.3389 18.7361C77.5942 17.2133 77.8455 15.6905 78.109 14.1698C78.2459 13.3666 78.4073 12.5675 78.346 11.748C78.3339 11.529 78.2934 11.3125 78.2255 11.1039C77.9885 10.425 77.3103 10.1356 76.6893 10.4923C76.3444 10.7082 76.0413 10.9844 75.7946 11.3077C75.2369 12.0212 74.9775 12.8794 74.8038 13.7539C74.5158 15.1809 74.2686 16.5936 74.0133 18.0165C73.8682 18.8319 73.7416 19.6473 73.6047 20.479H69.9277L72.2422 6.23994H75.9907C75.8844 6.81684 75.7864 7.38151 75.6781 7.94414L75.7251 7.97676C75.7803 7.90949 75.8395 7.84425 75.8906 7.77291C76.5177 6.93915 77.2756 6.28682 78.3113 6.0055C79.0592 5.78947 79.8532 5.78947 80.6012 6.0055C81.7104 6.33167 82.2987 7.10835 82.4887 8.20915C82.6419 9.10406 82.5234 9.99286 82.3764 10.8796C82.1292 12.3779 81.8963 13.8803 81.6573 15.3807L80.9403 19.8328C80.9113 19.9596 80.8921 20.0884 80.8831 20.2181C80.8831 20.4383 80.7953 20.5035 80.5726 20.5014C79.4144 20.4913 78.2541 20.4953 77.0468 20.4953Z" fill="#353590"/>
<path d="M29.1912 20.479H25.4223C25.4897 20.0713 25.5531 19.682 25.6266 19.2926C25.9759 17.2541 26.3457 15.2156 26.6602 13.177C26.7501 12.5729 26.7501 11.9588 26.6602 11.3546C26.5152 10.3781 25.6389 10.0479 24.8218 10.6085C24.2957 11.0026 23.8926 11.5378 23.6594 12.1517C23.2859 13.0656 23.0239 14.0211 22.8791 14.9974C22.5686 16.7526 22.2846 18.5119 21.9905 20.2691C21.97 20.3975 21.9517 20.4953 21.7862 20.4933C20.6668 20.4933 19.5391 20.4933 18.4279 20.4933C18.3817 20.4895 18.336 20.482 18.291 20.4709C19.0673 15.7266 19.8435 10.9836 20.6198 6.24198H24.3478C24.2396 6.83111 24.1436 7.41617 24.0271 8.00326L24.0721 8.02773C24.1865 7.88299 24.3029 7.74029 24.4152 7.59556C24.7414 7.14595 25.1539 6.76556 25.6288 6.47649C26.1036 6.18742 26.6313 5.99545 27.1812 5.91174C27.9366 5.77409 28.7161 5.86938 29.4159 6.1849C30.3475 6.63134 30.7662 7.43248 30.8745 8.40893C30.9828 9.38538 30.8255 10.4046 30.6702 11.3933C30.3788 13.1927 30.0853 14.9927 29.7898 16.7934C29.5937 18.0124 29.3935 19.2335 29.1912 20.479Z" fill="#353590"/>
<path d="M3.9977 5.51422H0C0.106224 4.85374 0.204277 4.21975 0.310501 3.58781C0.416725 2.95587 0.535206 2.27296 0.631216 1.61248C0.657772 1.43105 0.729269 1.38824 0.898819 1.38824H12.3669C12.4323 1.38824 12.4956 1.38824 12.6059 1.40659L11.9257 5.50403H7.98315C7.16604 10.5004 6.36731 15.4744 5.55838 20.4688H1.44424C2.29403 15.4928 3.14178 10.5269 3.9977 5.51422Z" fill="#353590"/>
<path d="M63.2774 20.4566C63.4395 19.5922 63.6009 18.7245 63.7616 17.8534L63.6799 17.7922C63.6488 17.8541 63.614 17.914 63.5757 17.9716C63.001 18.7748 62.4276 19.5793 61.8557 20.3852C61.8148 20.4423 61.774 20.5157 61.7147 20.5402C61.2698 20.7488 60.7839 20.8558 60.2924 20.8533C59.8008 20.8508 59.316 20.739 58.8732 20.5259C58.1338 20.1691 57.7844 19.5066 57.621 18.7503C57.1737 16.6568 57.715 14.8282 59.2062 13.2973C59.8701 12.6164 60.7342 12.2495 61.6208 11.9498C62.3684 11.697 63.1263 11.4708 63.8678 11.216C64.1344 11.142 64.3734 10.9915 64.555 10.7831C64.7366 10.5747 64.8528 10.3176 64.8892 10.0438C64.9934 9.38536 64.6563 8.9593 63.9904 8.93484C63.1733 8.9063 62.3888 9.13869 61.6351 9.42816C60.7362 9.76656 59.8558 10.1539 58.9795 10.5188C58.9877 10.4836 58.9979 10.4488 59.0101 10.4148C59.4902 9.2447 59.9763 8.0807 60.4666 6.93097C60.5082 6.83073 60.5863 6.74991 60.6852 6.7047C62.3521 6.18895 64.0394 5.78736 65.8043 5.88929C66.36 5.91372 66.9045 6.05252 67.4038 6.29699C68.2495 6.72508 68.6622 7.44264 68.7684 8.36405C68.8603 9.17946 68.6744 9.95206 68.5457 10.7369C68.2332 12.6633 67.9084 14.5897 67.5897 16.5161C67.3854 17.7922 67.1669 19.0683 66.9463 20.3445C66.9339 20.3802 66.9129 20.4123 66.8851 20.4379C66.8573 20.4635 66.8236 20.4818 66.7869 20.4912C65.6348 20.4912 64.4827 20.4912 63.3306 20.4912C63.3265 20.4851 63.306 20.4708 63.2774 20.4566ZM64.3887 14.1942C63.5818 14.5734 62.7994 14.9118 62.0457 15.3052C61.7885 15.4336 61.5678 15.6245 61.4039 15.8603C61.2401 16.0962 61.1383 16.3694 61.108 16.6547C60.9998 17.4701 61.4533 17.9268 62.2663 17.8004C62.685 17.7352 63.0977 17.6353 63.5164 17.5823C63.7657 17.5496 63.8494 17.4334 63.8841 17.199C63.9822 16.5569 64.1048 15.9188 64.2151 15.2787C64.2743 14.922 64.3295 14.5652 64.3887 14.1942Z" fill="#353590"/>
<path d="M58.4965 6.22158L57.7897 7.87279C56.0193 12.011 54.2489 16.1499 52.4785 20.2894C52.4315 20.4016 52.3947 20.4933 52.2272 20.4933C51.0016 20.4831 49.7596 20.4933 48.5257 20.4933C48.4826 20.4909 48.4396 20.4861 48.397 20.479C47.964 15.7415 47.5295 10.9965 47.0938 6.24401H50.8525C50.9886 9.23384 51.1296 12.2298 51.2753 15.2319L51.3141 15.2482C51.347 15.1818 51.3763 15.1138 51.402 15.0443C52.4574 12.2013 53.5101 9.35479 54.5601 6.50494C54.5799 6.40971 54.6358 6.3258 54.7161 6.27072C54.7964 6.21564 54.8949 6.19366 54.9911 6.20935C56.1432 6.22974 57.2954 6.22158 58.4965 6.22158Z" fill="#353590"/>
<path d="M18.3127 1.42697L15.2159 20.4749H11.4531C11.496 20.1977 11.5348 19.9205 11.5798 19.6453C12.1667 16.1974 12.7496 12.7571 13.3284 9.32421C13.4285 8.73712 13.5327 8.1541 13.6205 7.567C13.6262 7.49524 13.6525 7.42665 13.6964 7.3695C13.7402 7.31235 13.7997 7.26908 13.8677 7.24492C14.9939 6.72849 16.1181 6.20935 17.2403 5.68749C17.3289 5.65183 17.408 5.59598 17.4711 5.5244H13.9249C14.0658 4.66415 14.2007 3.83855 14.3334 3.0109C14.409 2.54612 14.4805 2.0793 14.5684 1.61655C14.5826 1.54521 14.6725 1.43309 14.7277 1.43105C15.9043 1.42697 17.081 1.42697 18.3127 1.42697Z" fill="#353590"/>
<path d="M71.9835 28.7636V28.5067C71.9835 27.2836 71.9835 26.0442 71.9835 24.8129C71.9835 24.5968 72.0264 24.5092 72.2633 24.5193C72.6882 24.5397 73.1131 24.5316 73.538 24.5193C73.7015 24.5193 73.7668 24.556 73.7668 24.7354C73.7668 27.0104 73.7668 29.2847 73.7668 31.5584C73.7668 31.7337 73.7117 31.7846 73.5421 31.7806C73.0764 31.7806 72.6106 31.7806 72.1449 31.7806C72.0811 31.7854 72.0173 31.7721 71.9609 31.7421C71.9045 31.7122 71.8578 31.6668 71.8262 31.6114C70.9396 30.3393 70.0503 29.0707 69.1583 27.8054C69.1088 27.7299 69.0376 27.6709 68.9541 27.6363V27.889C68.9541 29.1121 68.9541 30.3189 68.9541 31.5339C68.9541 31.7378 68.8948 31.7867 68.7028 31.7806C68.2616 31.7683 67.8203 31.7806 67.3791 31.7806C67.2177 31.7806 67.1748 31.7276 67.1748 31.5767C67.1748 29.2936 67.1748 27.0111 67.1748 24.7293C67.1748 24.5846 67.2157 24.5255 67.3689 24.5255C67.8428 24.5255 68.3167 24.5255 68.7988 24.5377C68.8593 24.5503 68.9167 24.5748 68.9675 24.6098C69.0184 24.6448 69.0617 24.6896 69.095 24.7415C70.004 26.036 70.9049 27.3366 71.8099 28.6351C71.8466 28.6861 71.8875 28.7371 71.9263 28.788L71.9835 28.7636Z" fill="white"/>
<path d="M52.9737 28.6392C54.087 29.4852 54.6671 30.7063 55.5312 31.7806C54.7652 31.7806 54.0666 31.7806 53.3679 31.7806C53.2924 31.7806 53.2045 31.6868 53.1494 31.6155C52.561 30.8653 51.9755 30.1124 51.3926 29.3568C51.0351 28.89 50.5265 28.8533 50.0035 28.8635C49.8278 28.8635 49.8544 29.0082 49.8544 29.1162C49.8544 29.8909 49.8544 30.6655 49.8544 31.4401C49.8544 31.7887 49.8544 31.7887 49.5132 31.7887C49.0802 31.7887 48.6471 31.7887 48.214 31.7887C48.0527 31.7887 48.0098 31.7357 48.0098 31.5849C48.0098 29.3045 48.0098 27.022 48.0098 24.7375C48.0098 24.5703 48.0772 24.5336 48.2283 24.5336C49.5112 24.5336 50.7941 24.5336 52.0749 24.5459C52.4985 24.554 52.9196 24.6128 53.3291 24.7212C53.7153 24.8227 54.0598 25.0425 54.3141 25.3497C54.5685 25.6569 54.7198 26.036 54.7468 26.4335C54.7999 27.3794 54.3995 28.0644 53.564 28.4293C53.3782 28.4986 53.1923 28.5577 52.9737 28.6392ZM50.6613 27.4936V27.5201C51.172 27.4895 51.6827 27.4793 52.1934 27.4181C52.2839 27.4159 52.3731 27.3953 52.4553 27.3576C52.5376 27.3198 52.6113 27.2657 52.672 27.1985C52.7326 27.1313 52.7788 27.0525 52.8079 26.9669C52.8369 26.8813 52.8482 26.7907 52.8409 26.7006C52.8446 26.6101 52.8296 26.5198 52.7966 26.4354C52.7637 26.351 52.7136 26.2743 52.6495 26.2102C52.5854 26.146 52.5087 26.0958 52.4242 26.0627C52.3398 26.0295 52.2493 26.0142 52.1586 26.0177C51.4518 25.9708 50.7409 25.9789 50.0341 25.9769C49.9749 25.9769 49.8707 26.089 49.8687 26.1522C49.8523 26.5334 49.8687 26.9167 49.8585 27.2999C49.8585 27.4487 49.9341 27.5038 50.073 27.5038L50.6613 27.4936Z" fill="white"/>
<path d="M4.01187 24.3991C5.03326 24.3991 5.97089 24.6254 6.77574 25.2797C7.11661 25.5651 7.39739 25.915 7.60181 26.3094C7.80624 26.7037 7.93025 27.1346 7.96668 27.5771C8.05881 28.232 8.00012 28.8992 7.79508 29.528C7.32729 30.8938 6.30386 31.6032 4.92091 31.8234C4.08272 31.9764 3.21944 31.9168 2.41034 31.6501C1.07845 31.1894 0.283816 30.2558 0.104053 28.839C-0.0307703 27.779 0.0672827 26.7577 0.72914 25.8607C1.00551 25.4809 1.3576 25.1623 1.76327 24.9248C2.16895 24.6873 2.61946 24.5361 3.0865 24.4806C3.39291 24.4358 3.70341 24.4256 4.01187 24.3991ZM6.12818 28.1316C6.09754 26.778 5.55008 26.0646 4.32033 25.8892C3.4399 25.7649 2.42055 26.1257 2.1264 27.149C2.01745 27.5721 1.9754 28.0095 2.00179 28.4455C2.04468 29.6014 2.70654 30.3067 3.85662 30.4229C4.80651 30.5208 5.75436 30.0336 5.99745 28.9735C6.0526 28.6983 6.07711 28.415 6.12818 28.1316Z" fill="white"/>
<path d="M34.9314 24.4277C35.9732 24.4073 36.9394 24.6315 37.7504 25.3328C38.0917 25.6263 38.3693 25.9865 38.566 26.391C38.7627 26.7956 38.8745 27.236 38.8944 27.6852C38.9731 28.3426 38.9033 29.0092 38.6901 29.6361C38.1998 30.9367 37.1784 31.5971 35.8547 31.8234C35.0799 31.9593 34.2845 31.9217 33.526 31.7133C32.1103 31.3056 31.0522 30.2008 30.9848 28.4517C30.9337 27.1511 31.2442 26.0177 32.3146 25.1778C32.9214 24.7285 33.6477 24.4682 34.4023 24.4297C34.58 24.4134 34.7598 24.4277 34.9314 24.4277ZM37.015 28.203C36.9926 26.931 36.5411 26.0422 35.2235 25.8852C34.3656 25.7833 33.2584 26.1054 32.9867 27.2897C32.9015 27.7267 32.8795 28.1736 32.9213 28.6168C32.9265 28.9706 33.0374 29.3148 33.2397 29.6053C33.442 29.8958 33.7266 30.1195 34.0571 30.2476C34.4101 30.4145 34.8027 30.48 35.1909 30.4368C35.5791 30.3936 35.9476 30.2434 36.2551 30.003C36.8863 29.5362 36.9864 28.8411 37.0232 28.203H37.015Z" fill="white"/>
<path d="M29.9467 26.7781C29.3482 26.8005 28.7946 26.8229 28.2431 26.8351C28.2108 26.8301 28.1804 26.817 28.1547 26.797C28.129 26.7771 28.1088 26.7509 28.096 26.721C27.9121 25.928 27.4096 25.8464 26.7498 25.8363C26.4723 25.8445 26.1973 25.8912 25.9327 25.9749C25.7284 26.0299 25.5466 26.1502 25.5466 26.3826C25.5531 26.4812 25.5924 26.5749 25.6583 26.6487C25.7242 26.7225 25.8128 26.7724 25.9102 26.7903C26.4087 26.9411 26.9153 27.0614 27.4157 27.198C27.8631 27.3223 28.3186 27.4263 28.7497 27.5914C29.6178 27.9237 30.151 28.5393 30.1796 29.4995C30.2055 29.9434 30.0843 30.3835 29.8347 30.7519C29.5852 31.1203 29.2211 31.3965 28.7987 31.538C27.5886 32.0262 26.2358 32.0262 25.0257 31.538C24.0247 31.1405 23.5815 30.3149 23.4609 29.2345C23.6979 29.212 23.9226 29.1896 24.1473 29.1713C24.4639 29.1448 24.7785 29.1101 25.0972 29.0999C25.1408 29.1037 25.1826 29.1189 25.2185 29.1439C25.2544 29.169 25.283 29.203 25.3015 29.2426C25.5589 30.3251 26.3964 30.5147 27.334 30.3842C27.6133 30.3391 27.8764 30.2233 28.098 30.0478C28.1849 29.9935 28.2538 29.9147 28.296 29.8214C28.3382 29.7281 28.3519 29.6244 28.3353 29.5234C28.3187 29.4224 28.2726 29.3285 28.2028 29.2536C28.133 29.1786 28.0425 29.1258 27.9428 29.102C27.426 28.9165 26.8764 28.8186 26.3453 28.6678C25.9032 28.5602 25.4685 28.424 25.0441 28.2601C24.3148 27.9461 23.8184 27.3998 23.7714 26.5783C23.7514 26.2716 23.8106 25.9649 23.9433 25.6876C24.076 25.4103 24.2777 25.1716 24.5293 24.9943C24.9979 24.6464 25.5597 24.4456 26.1431 24.4174C26.8417 24.3346 27.5497 24.3823 28.2308 24.5581C29.1071 24.817 29.7302 25.3348 29.9222 26.2684C29.9409 26.4376 29.9491 26.6078 29.9467 26.7781Z" fill="white"/>
<path d="M13.7401 27.0003C13.7401 26.2501 13.7401 25.4999 13.7401 24.7579C13.7401 24.5907 13.783 24.5275 13.9587 24.5296C14.4408 24.5296 14.9229 24.5296 15.405 24.5296C15.5602 24.5296 15.6092 24.5703 15.6092 24.7334C15.6092 26.1033 15.6092 27.4732 15.6092 28.841C15.6067 29.2397 15.5691 29.6374 15.4969 30.0295C15.3049 31.0243 14.6144 31.5502 13.685 31.7643C12.759 31.9784 11.7951 31.9679 10.8741 31.7337C9.77917 31.4585 9.11527 30.6655 9.08463 29.5423C9.03969 27.94 9.04582 26.3337 9.02539 24.7293C9.02539 24.5601 9.09484 24.5255 9.24601 24.5255C9.70359 24.5255 10.1612 24.5377 10.6167 24.5255C10.821 24.5255 10.8802 24.5928 10.8802 24.7905C10.8802 26.0544 10.8802 27.3183 10.8802 28.5821C10.8789 28.8667 10.8918 29.151 10.919 29.4342C10.9335 29.6355 11.0088 29.8276 11.135 29.9852C11.2612 30.1428 11.4324 30.2585 11.6258 30.3169C12.0897 30.4873 12.5983 30.4931 13.066 30.3332C13.5951 30.1579 13.7299 29.7217 13.734 29.2284C13.734 28.4863 13.734 27.7443 13.734 27.0043L13.7401 27.0003Z" fill="white"/>
<path d="M46.5015 27.0879C46.5015 27.836 46.5199 28.5862 46.5015 29.3303C46.4918 29.6766 46.4326 30.0199 46.3258 30.3495C46.05 31.165 45.3963 31.5727 44.6037 31.75C43.6938 31.9571 42.748 31.9487 41.8419 31.7255C40.7449 31.4565 40.1158 30.7369 40.0259 29.6136C39.9646 28.837 39.9707 28.0521 39.9625 27.2714C39.9523 26.456 39.9625 25.6263 39.9625 24.8027C39.9625 24.5989 40.0075 24.4969 40.2465 24.5071C40.6857 24.5275 41.1269 24.5234 41.5682 24.5071C41.7724 24.5071 41.8194 24.5642 41.8174 24.7558C41.8174 26.1148 41.8174 27.4677 41.8174 28.8145C41.814 29.0507 41.8311 29.2867 41.8685 29.5199C41.9018 29.7102 41.9895 29.8868 42.1211 30.0286C42.2526 30.1704 42.4224 30.2712 42.61 30.319C43.0487 30.4576 43.5195 30.4576 43.9582 30.319C44.1552 30.2719 44.3301 30.1587 44.4535 29.9984C44.577 29.8381 44.6415 29.6404 44.6364 29.4383C44.6589 27.8992 44.6691 26.3601 44.6834 24.819C44.6834 24.501 44.6834 24.501 45.0021 24.501C45.427 24.501 45.8519 24.501 46.2768 24.501C46.481 24.501 46.5382 24.5724 46.5362 24.7681C46.526 25.5345 46.5362 26.301 46.5362 27.0675L46.5015 27.0879Z" fill="white"/>
<path d="M62.9173 26.6843C62.3392 26.8025 61.7774 26.9248 61.2116 27.0308C61.1759 27.0278 61.1416 27.0155 61.1122 26.9951C61.0829 26.9747 61.0593 26.9469 61.0441 26.9146C60.8214 26.14 60.0615 25.8199 59.3527 25.8729C58.4906 25.9382 57.9227 26.4192 57.7409 27.2265C57.5995 27.8473 57.6065 28.4925 57.7613 29.1101C57.9656 29.9418 58.5499 30.4229 59.4119 30.4351C60.1514 30.4351 60.7315 30.1232 61.0318 29.2732C61.1564 28.9246 61.1585 28.9246 61.5221 29.0245C61.9306 29.1366 62.3392 29.2569 62.7477 29.3649C62.903 29.4036 62.9398 29.4648 62.8866 29.6218C62.4638 30.8958 61.5977 31.6481 60.2617 31.8336C59.1463 31.9885 58.08 31.8723 57.1342 31.1894C56.2456 30.5473 55.8289 29.6483 55.7533 28.5821C55.6885 27.9151 55.7751 27.242 56.0066 26.6129C56.4948 25.3796 57.4365 24.7048 58.7194 24.4826C59.4846 24.3346 60.275 24.3844 61.0155 24.6274C61.4862 24.7722 61.9101 25.0388 62.2441 25.4001C62.5782 25.7613 62.8104 26.2044 62.9173 26.6843Z" fill="white"/>
<path d="M19.7838 24.5255C20.8052 24.5255 21.8082 24.5255 22.8214 24.5255C23.0257 24.5255 23.0809 24.5785 23.0707 24.7742C23.0543 25.0913 23.0543 25.4091 23.0707 25.7262C23.0707 25.93 23.0012 25.9749 22.8153 25.9708C22.2188 25.9708 21.6223 25.9708 21.0258 25.9708C20.7848 25.9708 20.7051 26.0299 20.7072 26.2827C20.7174 28.0195 20.7072 29.7482 20.7194 31.4932C20.7194 31.75 20.6438 31.8091 20.4007 31.7989C19.9616 31.7806 19.5203 31.7847 19.0791 31.7989C18.8748 31.7989 18.8319 31.7378 18.8319 31.5462C18.8319 29.7869 18.8319 28.0256 18.8319 26.2643C18.8319 26.0462 18.7808 25.9647 18.548 25.9708C17.9351 25.9851 17.3223 25.9708 16.7095 25.9708C16.5297 25.9708 16.4602 25.926 16.4684 25.7384C16.482 25.4122 16.482 25.0861 16.4684 24.7599C16.4684 24.5724 16.5277 24.5255 16.7074 24.5255C17.7411 24.5296 18.7624 24.5255 19.7838 24.5255Z" fill="white"/>
<path d="M61.3076 4.79461L66.008 0L68.2551 4.79461H61.3076Z" fill="#353590"/>
<path d="M65.8726 28.1805C65.8726 29.2875 65.8726 30.3964 65.8726 31.5033C65.8726 31.7357 65.8011 31.7948 65.5805 31.7867C65.172 31.7704 64.7471 31.7663 64.3324 31.7867C64.0852 31.7989 64.0117 31.7276 64.0137 31.4768C64.0239 29.6422 64.0137 27.7932 64.0137 25.9524C64.0137 25.5692 64.0137 25.186 64.0137 24.8027C64.0137 24.5989 64.0566 24.5112 64.2834 24.5214C64.7246 24.5377 65.1658 24.5357 65.6071 24.5214C65.8113 24.5214 65.8706 24.5764 65.8706 24.7823C65.8665 25.9137 65.8726 27.0471 65.8726 28.1805Z" fill="white"/>
</g>
<defs>
<clipPath id="clip0">
<rect width="82.6362" height="31.9335" fill="white"/>
</clipPath>
</defs>
</svg>
