<svg width="83" height="33" viewBox="0 0 83 33" fill="none" xmlns="http://www.w3.org/2000/svg">
<path d="M82.5442 27.626C82.2663 27.6769 82.0069 27.7279 81.7454 27.7728C81.484 27.8176 81.1837 27.8767 80.9018 27.9032C80.8556 27.9052 80.8097 27.8958 80.768 27.8759C80.7263 27.856 80.6902 27.8262 80.6628 27.7891C80.3727 27.0042 79.5107 26.7433 78.761 26.8167C78.5749 26.8347 78.3909 26.8702 78.2114 26.9227C77.4066 27.1571 76.9082 27.7952 76.8632 28.7044C76.8454 29.085 76.8749 29.4664 76.9511 29.8398C77.1737 30.9386 78.1257 31.4258 79.143 31.3687C79.6408 31.3329 80.124 31.1851 80.5566 30.9365C80.7281 30.8428 80.8487 30.3433 80.722 30.2068C80.6567 30.1603 80.5773 30.1379 80.4973 30.1436C80.0642 30.1436 79.6312 30.1273 79.2002 30.1436C78.9428 30.1558 78.8754 30.0661 78.8917 29.8235C78.9121 29.5137 78.8917 29.212 78.8917 28.8939C78.8917 28.7553 78.9223 28.6901 79.0817 28.6901C80.2011 28.6901 81.3199 28.6901 82.4379 28.6901C82.5912 28.6901 82.6422 28.7451 82.6422 28.8939C82.6422 29.7644 82.6422 30.6369 82.6422 31.5094C82.6332 31.617 82.5818 31.7168 82.4992 31.7866C81.873 32.2486 81.1479 32.5592 80.3809 32.6938C79.1716 32.9343 77.9786 32.9098 76.8489 32.3411C75.7193 31.7723 75.133 30.7694 74.9818 29.5157C74.8929 28.826 74.9924 28.1252 75.2699 27.4874C75.4642 27.0221 75.7622 26.6072 76.1413 26.2741C76.5204 25.941 76.9706 25.6985 77.4577 25.565C78.5418 25.2337 79.7028 25.2501 80.7772 25.6119C81.7107 25.9299 82.3011 26.6067 82.5442 27.626Z" fill="white"/>
<path d="M35.7217 21.4166H32.0059C33.0586 15.0551 34.1092 8.69898 35.1579 2.3483H38.8614C38.491 4.56621 38.1226 6.77869 37.7563 8.98573L37.8073 9.01631C37.8666 8.93069 37.9258 8.84711 37.983 8.76149C38.459 8.05209 39.0044 7.42626 39.8215 7.09194C40.3505 6.86077 40.9211 6.73973 41.4986 6.73623C42.076 6.73272 42.6481 6.84683 43.1798 7.07156C44.046 7.43237 44.4627 8.1744 44.6404 9.05504C44.8181 9.93568 44.718 10.8204 44.573 11.7051L43.2677 19.5799C43.1676 20.1915 43.0634 20.803 42.9551 21.4146H39.1024C39.1801 21.0069 39.2577 20.6114 39.3312 20.2139C39.7398 18.0307 40.1483 15.8474 40.5263 13.6601C40.5934 13.2177 40.6146 12.7695 40.5896 12.3228C40.5549 11.3973 39.8583 10.9366 38.9758 11.2342C38.5344 11.394 38.1605 11.6988 37.9156 12.0986C37.4397 12.8435 37.1156 13.6748 36.9616 14.5448C36.6368 16.1206 36.3488 17.7065 36.0689 19.2905C35.9402 19.9876 35.8381 20.695 35.7217 21.4166Z" fill="#353590"/>
<path d="M77.0468 21.433C77.1489 20.8214 77.2511 20.2486 77.3389 19.6737C77.5942 18.1509 77.8455 16.6282 78.109 15.1074C78.2459 14.3042 78.4073 13.5051 78.346 12.6856C78.3339 12.4666 78.2934 12.2501 78.2255 12.0415C77.9885 11.3626 77.3103 11.0732 76.6893 11.4299C76.3444 11.6458 76.0413 11.9221 75.7946 12.2453C75.2369 12.9588 74.9775 13.817 74.8038 14.6916C74.5158 16.1185 74.2686 17.5312 74.0133 18.9541C73.8682 19.7695 73.7416 20.5849 73.6047 21.4166H69.9277L72.2422 7.17756H75.9907C75.8844 7.75446 75.7864 8.31913 75.6781 8.88176L75.7251 8.91438C75.7803 8.84711 75.8395 8.78188 75.8906 8.71053C76.5177 7.87677 77.2756 7.22444 78.3113 6.94313C79.0592 6.72709 79.8532 6.72709 80.6012 6.94313C81.7104 7.26929 82.2987 8.04597 82.4887 9.14677C82.6419 10.0417 82.5234 10.9305 82.3764 11.8172C82.1292 13.3156 81.8963 14.8179 81.6573 16.3183L80.9403 20.7704C80.9113 20.8972 80.8921 21.026 80.8831 21.1557C80.8831 21.3759 80.7953 21.4411 80.5726 21.4391C79.4144 21.4289 78.2541 21.433 77.0468 21.433Z" fill="#353590"/>
<path d="M29.1912 21.4167H25.4223C25.4897 21.0089 25.5531 20.6196 25.6266 20.2302C25.9759 18.1917 26.3457 16.1532 26.6602 14.1147C26.7501 13.5105 26.7501 12.8964 26.6602 12.2922C26.5152 11.3158 25.6389 10.9855 24.8218 11.5461C24.2957 11.9403 23.8926 12.4754 23.6594 13.0893C23.2859 14.0032 23.0239 14.9587 22.8791 15.9351C22.5686 17.6902 22.2846 19.4495 21.9905 21.2067C21.97 21.3351 21.9517 21.433 21.7862 21.4309C20.6668 21.4309 19.5391 21.4309 18.4279 21.4309C18.3817 21.4272 18.336 21.4197 18.291 21.4085C19.0673 16.6642 19.8435 11.9212 20.6198 7.1796H24.3478C24.2396 7.76874 24.1436 8.35379 24.0271 8.94089L24.0721 8.96535C24.1865 8.82061 24.3029 8.67792 24.4152 8.53318C24.7414 8.08358 25.1539 7.70318 25.6288 7.41411C26.1036 7.12504 26.6313 6.93307 27.1812 6.84936C27.9366 6.71171 28.7161 6.807 29.4159 7.12252C30.3475 7.56896 30.7662 8.3701 30.8745 9.34655C30.9828 10.323 30.8255 11.3423 30.6702 12.331C30.3788 14.1303 30.0853 15.9303 29.7898 17.731C29.5937 18.95 29.3935 20.1711 29.1912 21.4167Z" fill="#353590"/>
<path d="M3.9977 6.45184H0C0.106224 5.79136 0.204277 5.15738 0.310501 4.52543C0.416725 3.89349 0.535206 3.21059 0.631216 2.5501C0.657772 2.36868 0.729269 2.32587 0.898819 2.32587H12.3669C12.4323 2.32587 12.4956 2.32587 12.6059 2.34421L11.9257 6.44165H7.98315C7.16604 11.4381 6.36731 16.4121 5.55838 21.4065H1.44424C2.29403 16.4304 3.14178 11.4646 3.9977 6.45184Z" fill="#353590"/>
<path d="M63.2774 21.3942C63.4395 20.5299 63.6009 19.6621 63.7616 18.791L63.6799 18.7299C63.6488 18.7917 63.614 18.8516 63.5757 18.9092C63.001 19.7124 62.4276 20.517 61.8557 21.3229C61.8148 21.3799 61.774 21.4533 61.7147 21.4778C61.2698 21.6864 60.7839 21.7934 60.2924 21.7909C59.8008 21.7885 59.316 21.6766 58.8732 21.4635C58.1338 21.1068 57.7844 20.4443 57.621 19.688C57.1737 17.5944 57.715 15.7658 59.2062 14.2349C59.8701 13.554 60.7342 13.1871 61.6208 12.8874C62.3684 12.6347 63.1263 12.4084 63.8678 12.1536C64.1344 12.0796 64.3734 11.9291 64.555 11.7207C64.7366 11.5123 64.8528 11.2552 64.8892 10.9814C64.9934 10.323 64.6563 9.89693 63.9904 9.87246C63.1733 9.84392 62.3888 10.0763 61.6351 10.3658C60.7362 10.7042 59.8558 11.0915 58.9795 11.4564C58.9877 11.4212 58.9979 11.3865 59.0101 11.3524C59.4902 10.1823 59.9763 9.01832 60.4666 7.86859C60.5082 7.76836 60.5863 7.68753 60.6852 7.64232C62.3521 7.12657 64.0394 6.72498 65.8043 6.82691C66.36 6.85134 66.9045 6.99015 67.4038 7.23461C68.2495 7.6627 68.6622 8.38026 68.7684 9.30168C68.8603 10.1171 68.6744 10.8897 68.5457 11.6745C68.2332 13.6009 67.9084 15.5273 67.5897 17.4537C67.3854 18.7299 67.1669 20.006 66.9463 21.2821C66.9339 21.3178 66.9129 21.3499 66.8851 21.3755C66.8573 21.4011 66.8236 21.4195 66.7869 21.4289C65.6348 21.4289 64.4827 21.4289 63.3306 21.4289C63.3265 21.4227 63.306 21.4085 63.2774 21.3942ZM64.3887 15.1319C63.5818 15.511 62.7994 15.8494 62.0457 16.2429C61.7885 16.3712 61.5678 16.5621 61.4039 16.798C61.2401 17.0338 61.1383 17.307 61.108 17.5924C60.9998 18.4078 61.4533 18.8644 62.2663 18.738C62.685 18.6728 63.0977 18.5729 63.5164 18.5199C63.7657 18.4873 63.8494 18.3711 63.8841 18.1366C63.9822 17.4945 64.1048 16.8564 64.2151 16.2164C64.2743 15.8596 64.3295 15.5029 64.3887 15.1319Z" fill="#353590"/>
<path d="M58.4965 7.15921L57.7897 8.81041C56.0193 12.9486 54.2489 17.0875 52.4785 21.2271C52.4315 21.3392 52.3947 21.4309 52.2272 21.4309C51.0016 21.4207 49.7596 21.4309 48.5257 21.4309C48.4826 21.4285 48.4396 21.4237 48.397 21.4166C47.964 16.6791 47.5295 11.9341 47.0938 7.18163H50.8525C50.9886 10.1715 51.1296 13.1674 51.2753 16.1695L51.3141 16.1858C51.347 16.1194 51.3763 16.0514 51.402 15.9819C52.4574 13.1389 53.5101 10.2924 54.5601 7.44256C54.5799 7.34734 54.6358 7.26342 54.7161 7.20835C54.7964 7.15327 54.8949 7.13128 54.9911 7.14697C56.1432 7.16736 57.2954 7.15921 58.4965 7.15921Z" fill="#353590"/>
<path d="M18.3127 2.36459L15.2159 21.4126H11.4531C11.496 21.1353 11.5348 20.8581 11.5798 20.5829C12.1667 17.1351 12.7496 13.6947 13.3284 10.2618C13.4285 9.67474 13.5327 9.09172 13.6205 8.50463C13.6262 8.43287 13.6525 8.36427 13.6964 8.30712C13.7402 8.24997 13.7997 8.20671 13.8677 8.18254C14.9939 7.66611 16.1181 7.14697 17.2403 6.62511C17.3289 6.58945 17.408 6.5336 17.4711 6.46203H13.9249C14.0658 5.60177 14.2007 4.77617 14.3334 3.94853C14.409 3.48374 14.4805 3.01692 14.5684 2.55418C14.5826 2.48283 14.6725 2.37071 14.7277 2.36867C15.9043 2.36459 17.081 2.36459 18.3127 2.36459Z" fill="#353590"/>
<path d="M71.9835 29.7012V29.4443C71.9835 28.2212 71.9835 26.9818 71.9835 25.7505C71.9835 25.5344 72.0264 25.4468 72.2633 25.457C72.6882 25.4774 73.1131 25.4692 73.538 25.457C73.7015 25.457 73.7668 25.4937 73.7668 25.6731C73.7668 27.948 73.7668 30.2224 73.7668 32.496C73.7668 32.6713 73.7117 32.7223 73.5421 32.7182C73.0764 32.7182 72.6106 32.7182 72.1449 32.7182C72.0811 32.723 72.0173 32.7097 71.9609 32.6798C71.9045 32.6498 71.8578 32.6044 71.8262 32.549C70.9396 31.277 70.0503 30.0083 69.1583 28.7431C69.1088 28.6675 69.0376 28.6086 68.9541 28.5739V28.8266C68.9541 30.0498 68.9541 31.2566 68.9541 32.4715C68.9541 32.6754 68.8948 32.7243 68.7028 32.7182C68.2616 32.706 67.8203 32.7182 67.3791 32.7182C67.2177 32.7182 67.1748 32.6652 67.1748 32.5143C67.1748 30.2312 67.1748 27.9487 67.1748 25.6669C67.1748 25.5222 67.2157 25.4631 67.3689 25.4631C67.8428 25.4631 68.3167 25.4631 68.7988 25.4753C68.8593 25.4879 68.9167 25.5124 68.9675 25.5474C69.0184 25.5824 69.0617 25.6272 69.095 25.6792C70.004 26.9736 70.9049 28.2742 71.8099 29.5727C71.8466 29.6237 71.8875 29.6747 71.9263 29.7256L71.9835 29.7012Z" fill="white"/>
<path d="M52.9737 29.5768C54.087 30.4228 54.6671 31.6439 55.5312 32.7182C54.7652 32.7182 54.0666 32.7182 53.3679 32.7182C53.2924 32.7182 53.2045 32.6244 53.1494 32.5531C52.561 31.8029 51.9755 31.05 51.3926 30.2944C51.0351 29.8276 50.5265 29.7909 50.0035 29.8011C49.8278 29.8011 49.8544 29.9458 49.8544 30.0539C49.8544 30.8285 49.8544 31.6031 49.8544 32.3778C49.8544 32.7264 49.8544 32.7264 49.5132 32.7264C49.0802 32.7264 48.6471 32.7264 48.214 32.7264C48.0527 32.7264 48.0098 32.6734 48.0098 32.5225C48.0098 30.2421 48.0098 27.9596 48.0098 25.6751C48.0098 25.5079 48.0772 25.4713 48.2283 25.4713C49.5112 25.4713 50.7941 25.4713 52.0749 25.4835C52.4985 25.4916 52.9196 25.5505 53.3291 25.6588C53.7153 25.7603 54.0598 25.9801 54.3141 26.2873C54.5685 26.5945 54.7198 26.9736 54.7468 27.3712C54.7999 28.317 54.3995 29.002 53.564 29.3669C53.3782 29.4362 53.1923 29.4953 52.9737 29.5768ZM50.6613 28.4312V28.4577C51.172 28.4271 51.6827 28.4169 52.1934 28.3558C52.2839 28.3536 52.3731 28.3329 52.4553 28.2952C52.5376 28.2574 52.6113 28.2033 52.672 28.1361C52.7326 28.069 52.7788 27.9902 52.8079 27.9045C52.8369 27.8189 52.8482 27.7283 52.8409 27.6382C52.8446 27.5477 52.8296 27.4574 52.7966 27.373C52.7637 27.2886 52.7136 27.2119 52.6495 27.1478C52.5854 27.0836 52.5087 27.0334 52.4242 27.0003C52.3398 26.9672 52.2493 26.9518 52.1586 26.9553C51.4518 26.9084 50.7409 26.9166 50.0341 26.9145C49.9749 26.9145 49.8707 27.0266 49.8687 27.0898C49.8523 27.471 49.8687 27.8543 49.8585 28.2375C49.8585 28.3863 49.9341 28.4414 50.073 28.4414L50.6613 28.4312Z" fill="white"/>
<path d="M4.01187 25.3367C5.03326 25.3367 5.97089 25.563 6.77574 26.2173C7.11661 26.5027 7.39739 26.8527 7.60181 27.247C7.80624 27.6414 7.93025 28.0723 7.96668 28.5148C8.05881 29.1696 8.00012 29.8368 7.79508 30.4656C7.32729 31.8314 6.30386 32.5408 4.92091 32.761C4.08272 32.914 3.21944 32.8544 2.41034 32.5877C1.07845 32.127 0.283816 31.1934 0.104053 29.7766C-0.0307703 28.7166 0.0672827 27.6953 0.72914 26.7983C1.00551 26.4185 1.3576 26.0999 1.76327 25.8624C2.16895 25.6249 2.61946 25.4737 3.0865 25.4182C3.39291 25.3734 3.70341 25.3632 4.01187 25.3367ZM6.12818 29.0692C6.09754 27.7157 5.55008 27.0022 4.32033 26.8269C3.4399 26.7025 2.42055 27.0633 2.1264 28.0867C2.01745 28.5097 1.9754 28.9472 2.00179 29.3832C2.04468 30.539 2.70654 31.2443 3.85662 31.3605C4.80651 31.4584 5.75436 30.9712 5.99745 29.9112C6.0526 29.636 6.07711 29.3526 6.12818 29.0692Z" fill="white"/>
<path d="M34.9314 25.3653C35.9732 25.3449 36.9394 25.5691 37.7504 26.2704C38.0917 26.564 38.3693 26.9241 38.566 27.3287C38.7627 27.7332 38.8745 28.1736 38.8944 28.6228C38.9731 29.2802 38.9033 29.9468 38.6901 30.5737C38.1998 31.8743 37.1784 32.5348 35.8547 32.761C35.0799 32.8969 34.2845 32.8593 33.526 32.651C32.1103 32.2433 31.0522 31.1384 30.9848 29.3893C30.9337 28.0887 31.2442 26.9553 32.3146 26.1155C32.9214 25.6661 33.6477 25.4059 34.4023 25.3673C34.58 25.351 34.7598 25.3653 34.9314 25.3653ZM37.015 29.1406C36.9926 27.8686 36.5411 26.9798 35.2235 26.8228C34.3656 26.7209 33.2584 27.043 32.9867 28.2274C32.9015 28.6643 32.8795 29.1112 32.9213 29.5544C32.9265 29.9082 33.0374 30.2524 33.2397 30.5429C33.442 30.8334 33.7266 31.0571 34.0571 31.1853C34.4101 31.3521 34.8027 31.4176 35.1909 31.3744C35.5791 31.3312 35.9476 31.181 36.2551 30.9406C36.8863 30.4738 36.9864 29.7787 37.0232 29.1406H37.015Z" fill="white"/>
<path d="M29.9467 27.7157C29.3482 27.7381 28.7946 27.7605 28.2431 27.7728C28.2108 27.7677 28.1804 27.7546 28.1547 27.7347C28.129 27.7147 28.1088 27.6885 28.096 27.6586C27.9121 26.8656 27.4096 26.7841 26.7498 26.7739C26.4723 26.7822 26.1973 26.8288 25.9327 26.9125C25.7284 26.9675 25.5466 27.0878 25.5466 27.3202C25.5531 27.4188 25.5924 27.5125 25.6583 27.5863C25.7242 27.6602 25.8128 27.71 25.9102 27.7279C26.4087 27.8788 26.9153 27.999 27.4157 28.1356C27.8631 28.26 28.3186 28.3639 28.7497 28.529C29.6178 28.8613 30.151 29.477 30.1796 30.4371C30.2055 30.881 30.0843 31.3211 29.8347 31.6895C29.5852 32.0579 29.2211 32.3341 28.7987 32.4756C27.5886 32.9638 26.2358 32.9638 25.0257 32.4756C24.0247 32.0781 23.5815 31.2525 23.4609 30.1721C23.6979 30.1497 23.9226 30.1272 24.1473 30.1089C24.4639 30.0824 24.7785 30.0477 25.0972 30.0376C25.1408 30.0413 25.1826 30.0565 25.2185 30.0816C25.2544 30.1066 25.283 30.1407 25.3015 30.1802C25.5589 31.2627 26.3964 31.4523 27.334 31.3218C27.6133 31.2767 27.8764 31.1609 28.098 30.9855C28.1849 30.9311 28.2538 30.8523 28.296 30.759C28.3382 30.6657 28.3519 30.5621 28.3353 30.4611C28.3187 30.36 28.2726 30.2662 28.2028 30.1912C28.133 30.1162 28.0425 30.0635 27.9428 30.0396C27.426 29.8541 26.8764 29.7562 26.3453 29.6054C25.9032 29.4978 25.4685 29.3616 25.0441 29.1977C24.3148 28.8837 23.8184 28.3374 23.7714 27.5159C23.7514 27.2092 23.8106 26.9026 23.9433 26.6252C24.076 26.3479 24.2777 26.1092 24.5293 25.932C24.9979 25.584 25.5597 25.3832 26.1431 25.3551C26.8417 25.2722 27.5497 25.3199 28.2308 25.4957C29.1071 25.7546 29.7302 26.2724 29.9222 27.206C29.9409 27.3753 29.9491 27.5455 29.9467 27.7157Z" fill="white"/>
<path d="M13.7401 27.9379C13.7401 27.1877 13.7401 26.4375 13.7401 25.6955C13.7401 25.5283 13.783 25.4651 13.9587 25.4672C14.4408 25.4672 14.9229 25.4672 15.405 25.4672C15.5602 25.4672 15.6092 25.508 15.6092 25.671C15.6092 27.0409 15.6092 28.4108 15.6092 29.7787C15.6067 30.1773 15.5691 30.575 15.4969 30.9671C15.3049 31.9619 14.6144 32.4879 13.685 32.7019C12.759 32.916 11.7951 32.9055 10.8741 32.6713C9.77917 32.3961 9.11527 31.6031 9.08463 30.4799C9.03969 28.8776 9.04582 27.2713 9.02539 25.667C9.02539 25.4978 9.09484 25.4631 9.24601 25.4631C9.70359 25.4631 10.1612 25.4753 10.6167 25.4631C10.821 25.4631 10.8802 25.5304 10.8802 25.7281C10.8802 26.992 10.8802 28.2559 10.8802 29.5198C10.8789 29.8043 10.8918 30.0887 10.919 30.3719C10.9335 30.5731 11.0088 30.7652 11.135 30.9228C11.2612 31.0804 11.4324 31.1961 11.6258 31.2546C12.0897 31.425 12.5983 31.4307 13.066 31.2709C13.5951 31.0955 13.7299 30.6593 13.734 30.166C13.734 29.424 13.734 28.6819 13.734 27.942L13.7401 27.9379Z" fill="white"/>
<path d="M46.5015 28.0255C46.5015 28.7737 46.5199 29.5238 46.5015 30.2679C46.4918 30.6143 46.4326 30.9575 46.3258 31.2872C46.05 32.1026 45.3963 32.5103 44.6037 32.6876C43.6938 32.8947 42.748 32.8863 41.8419 32.6632C40.7449 32.3941 40.1158 31.6745 40.0259 30.5513C39.9646 29.7746 39.9707 28.9897 39.9625 28.209C39.9523 27.3936 39.9625 26.5639 39.9625 25.7403C39.9625 25.5365 40.0075 25.4346 40.2465 25.4447C40.6857 25.4651 41.1269 25.4611 41.5682 25.4447C41.7724 25.4447 41.8194 25.5018 41.8174 25.6934C41.8174 27.0525 41.8174 28.4054 41.8174 29.7522C41.814 29.9883 41.8311 30.2243 41.8685 30.4575C41.9018 30.6478 41.9895 30.8245 42.1211 30.9662C42.2526 31.108 42.4224 31.2088 42.61 31.2566C43.0487 31.3952 43.5195 31.3952 43.9582 31.2566C44.1552 31.2095 44.3301 31.0963 44.4535 30.9361C44.577 30.7758 44.6415 30.578 44.6364 30.3759C44.6589 28.8369 44.6691 27.2978 44.6834 25.7566C44.6834 25.4386 44.6834 25.4386 45.0021 25.4386C45.427 25.4386 45.8519 25.4386 46.2768 25.4386C46.481 25.4386 46.5382 25.51 46.5362 25.7057C46.526 26.4722 46.5362 27.2386 46.5362 28.0051L46.5015 28.0255Z" fill="white"/>
<path d="M62.9173 27.6219C62.3392 27.7401 61.7774 27.8624 61.2116 27.9684C61.1759 27.9654 61.1416 27.9531 61.1122 27.9327C61.0829 27.9123 61.0593 27.8845 61.0441 27.8522C60.8214 27.0776 60.0615 26.7575 59.3527 26.8105C58.4906 26.8758 57.9227 27.3569 57.7409 28.1641C57.5995 28.7849 57.6065 29.4302 57.7613 30.0477C57.9656 30.8794 58.5499 31.3605 59.4119 31.3728C60.1514 31.3728 60.7315 31.0609 61.0318 30.2108C61.1564 29.8622 61.1585 29.8622 61.5221 29.9621C61.9306 30.0742 62.3392 30.1945 62.7477 30.3025C62.903 30.3413 62.9398 30.4024 62.8866 30.5594C62.4638 31.8335 61.5977 32.5857 60.2617 32.7712C59.1463 32.9261 58.08 32.8099 57.1342 32.127C56.2456 31.4849 55.8289 30.5859 55.7533 29.5197C55.6885 28.8527 55.7751 28.1796 56.0066 27.5505C56.4948 26.3172 57.4365 25.6425 58.7194 25.4203C59.4846 25.2722 60.275 25.322 61.0155 25.565C61.4862 25.7098 61.9101 25.9764 62.2441 26.3377C62.5782 26.699 62.8104 27.142 62.9173 27.6219Z" fill="white"/>
<path d="M19.7838 25.4631C20.8052 25.4631 21.8082 25.4631 22.8214 25.4631C23.0257 25.4631 23.0809 25.5161 23.0707 25.7118C23.0543 26.0289 23.0543 26.3467 23.0707 26.6638C23.0707 26.8676 23.0012 26.9125 22.8153 26.9084C22.2188 26.9084 21.6223 26.9084 21.0258 26.9084C20.7848 26.9084 20.7051 26.9675 20.7072 27.2203C20.7174 28.9571 20.7072 30.6858 20.7194 32.4308C20.7194 32.6876 20.6438 32.7468 20.4007 32.7366C19.9616 32.7182 19.5203 32.7223 19.0791 32.7366C18.8748 32.7366 18.8319 32.6754 18.8319 32.4838C18.8319 30.7245 18.8319 28.9633 18.8319 27.202C18.8319 26.9838 18.7808 26.9023 18.548 26.9084C17.9351 26.9227 17.3223 26.9084 16.7095 26.9084C16.5297 26.9084 16.4602 26.8636 16.4684 26.676C16.482 26.3499 16.482 26.0237 16.4684 25.6975C16.4684 25.51 16.5277 25.4631 16.7074 25.4631C17.7411 25.4672 18.7624 25.4631 19.7838 25.4631Z" fill="white"/>
<path d="M61.3076 5.73223L66.008 0.937622L68.2551 5.73223H61.3076Z" fill="#353590"/>
<path d="M65.8726 29.1182C65.8726 30.2251 65.8726 31.334 65.8726 32.441C65.8726 32.6733 65.8011 32.7325 65.5805 32.7243C65.172 32.708 64.7471 32.7039 64.3324 32.7243C64.0852 32.7365 64.0117 32.6652 64.0137 32.4145C64.0239 30.5798 64.0137 28.7308 64.0137 26.8901C64.0137 26.5068 64.0137 26.1236 64.0137 25.7403C64.0137 25.5365 64.0566 25.4488 64.2834 25.459C64.7246 25.4753 65.1658 25.4733 65.6071 25.459C65.8113 25.459 65.8706 25.5141 65.8706 25.7199C65.8665 26.8513 65.8726 27.9847 65.8726 29.1182Z" fill="white"/>
</svg>
