<?xml version="1.0" encoding="utf-8"?>
<!-- Generator: Adobe Illustrator 24.1.2, SVG Export Plug-In . SVG Version: 6.00 Build 0)  -->
<svg version="1.1" id="Layer_1" xmlns="http://www.w3.org/2000/svg" xmlns:xlink="http://www.w3.org/1999/xlink" x="0px" y="0px"
	 viewBox="0 0 100 100" style="enable-background:new 0 0 100 100;" xml:space="preserve">
<style type="text/css">
	.st0{fill:#FFFFFF;}
</style>
<g>
	<g>
		<g>
			<path class="st0" d="M55.22,42.23c1.39-1.56,2.53-3.15,3.95-4.49c4.38-4.14,9.55-6.22,15.59-6.17c3.32,0.03,6.6,0.27,9.81,1.2
				c7.32,2.12,11.58,7.18,13.61,14.35c1.52,5.38,1.8,10.9,1.81,16.44c0.02,11.69-0.03,23.37-0.01,35.06c0,1.09-0.3,1.38-1.38,1.37
				c-6-0.05-12.01-0.05-18.01,0c-1.06,0.01-1.28-0.32-1.28-1.32c0.03-11.12,0.04-22.24,0.01-33.36c-0.01-2.79-0.19-5.57-0.97-8.28
				c-1.44-4.99-5-7.53-10.21-7.26c-7.12,0.38-10.82,3.91-11.73,11.17c-0.22,1.73-0.32,3.47-0.32,5.22
				c0.01,10.82-0.01,21.63,0.03,32.45c0,1.08-0.27,1.4-1.36,1.39c-6.05-0.05-12.1-0.05-18.14,0c-0.97,0.01-1.25-0.26-1.25-1.24
				c0.03-21.41,0.03-42.83,0-64.24c0-1.06,0.35-1.31,1.34-1.3c5.74,0.04,11.49,0.05,17.23,0c1.06-0.01,1.33,0.33,1.31,1.34
				C55.18,37.11,55.22,39.67,55.22,42.23z"/>
			<path class="st0" d="M22.32,66.7c0,10.59-0.02,21.19,0.03,31.78c0,1.18-0.29,1.53-1.5,1.52c-6-0.07-12-0.05-18.01-0.01
				c-0.96,0.01-1.25-0.23-1.25-1.23c0.03-21.45,0.03-42.9,0.01-64.35c0-0.89,0.21-1.2,1.15-1.2c6.09,0.04,12.18,0.05,18.27-0.01
				c1.17-0.01,1.33,0.44,1.33,1.45C22.31,45.34,22.32,56.02,22.32,66.7z"/>
			<path class="st0" d="M23.98,11.96c0.01,6.65-5.38,12.07-11.99,12.07C5.45,24.03,0.02,18.61,0,12.06C-0.02,5.44,5.4-0.01,12.01,0
				C18.57,0.01,23.97,5.41,23.98,11.96z"/>
		</g>
	</g>
</g>
</svg>
