<?xml version="1.0" encoding="utf-8"?>
<!-- Generator: Adobe Illustrator 24.1.2, SVG Export Plug-In . SVG Version: 6.00 Build 0)  -->
<svg version="1.1" id="Layer_1" xmlns="http://www.w3.org/2000/svg" xmlns:xlink="http://www.w3.org/1999/xlink" x="0px" y="0px"
	 viewBox="0 0 100 100" style="enable-background:new 0 0 100 100;" xml:space="preserve">
<style type="text/css">
	.st0{fill:#FFFFFF;}
</style>
<g>
	<path class="st0" d="M7.44,12.59l34.75,39.43c1.97,2.24,4.82,3.53,7.81,3.53c2.99,0,5.83-1.29,7.81-3.53l34.14-38.74
		c0.28-0.32,0.62-0.57,0.97-0.76c-1.45-0.63-3.04-0.99-4.72-0.99H11.8c-1.61,0-3.14,0.32-4.53,0.91
		C7.33,12.48,7.39,12.53,7.44,12.59z"/>
	<path class="st0" d="M98.18,17.05c-0.15,0.4-0.37,0.79-0.67,1.13L63.37,56.92c-3.38,3.84-8.26,6.04-13.37,6.04
		c-5.12,0-9.99-2.2-13.37-6.04L1.88,17.49c-0.07-0.08-0.12-0.17-0.18-0.25C0.63,19.01,0,21.09,0,23.32v53.36
		c0,6.52,5.28,11.8,11.8,11.8h76.4c6.52,0,11.8-5.28,11.8-11.8V23.32C100,21.01,99.33,18.87,98.18,17.05z"/>
</g>
</svg>
