<?xml version="1.0" encoding="UTF-8" standalone="no"?>
<svg
   xmlns:dc="http://purl.org/dc/elements/1.1/"
   xmlns:cc="http://creativecommons.org/ns#"
   xmlns:rdf="http://www.w3.org/1999/02/22-rdf-syntax-ns#"
   xmlns:svg="http://www.w3.org/2000/svg"
   xmlns="http://www.w3.org/2000/svg"
   xmlns:sodipodi="http://sodipodi.sourceforge.net/DTD/sodipodi-0.dtd"
   xmlns:inkscape="http://www.inkscape.org/namespaces/inkscape"
   version="1.1"
   id="svg2"
   xml:space="preserve"
   width="160"
   height="100"
   viewBox="0 0 793.70135 559.37067"
   sodipodi:docname="TV-software.ai"><metadata
     id="metadata8"><rdf:RDF><cc:Work
         rdf:about=""><dc:format>image/svg+xml</dc:format><dc:type
           rdf:resource="http://purl.org/dc/dcmitype/StillImage" /></cc:Work></rdf:RDF></metadata><defs
     id="defs6"><clipPath
       clipPathUnits="userSpaceOnUse"
       id="clipPath18"><path
         d="M 0,419.528 H 595.276 V 0 H 0 Z"
         id="path16" /></clipPath><clipPath
       clipPathUnits="userSpaceOnUse"
       id="clipPath66"><path
         d="m 205.422,184.213 h 294.32 V 120.1 h -294.32 z"
         id="path64" /></clipPath></defs><sodipodi:namedview
     pagecolor="#ffffff"
     bordercolor="#666666"
     borderopacity="1"
     objecttolerance="10"
     gridtolerance="10"
     guidetolerance="10"
     inkscape:pageopacity="0"
     inkscape:pageshadow="2"
     inkscape:window-width="640"
     inkscape:window-height="480"
     id="namedview4" /><g
     id="g10"
     inkscape:groupmode="layer"
     inkscape:label="TV-software"
     transform="matrix(1.3333333,0,0,-1.3333333,0,559.37067)"><g
       id="g12"><g
         id="g14"
         clip-path="url(#clipPath18)"><g
           id="g20"
           transform="translate(437.8945,198.7717)"><path
             d="M 0,0 11.376,70.128 H 29.735 L 28.007,60.84 c 1.224,1.656 2.305,3.024 3.168,3.96 0.865,1.008 1.873,1.944 3.096,2.952 1.152,0.936 2.449,1.656 3.745,2.232 1.296,0.648 2.664,1.08 4.175,1.44 1.513,0.36 3.025,0.504 4.609,0.504 2.231,0 4.32,-0.36 6.336,-1.08 1.943,-0.72 3.599,-1.728 4.824,-3.024 1.224,-1.296 2.16,-2.88 2.879,-4.824 0.648,-1.944 1.009,-4.104 1.009,-6.336 0,-2.232 -0.073,-4.536 -0.504,-6.912 L 59.544,38.52 53.423,0 H 34.848 l 6.048,35.928 c 0.72,5.184 0.503,8.784 -0.504,10.872 -1.08,2.016 -2.592,3.024 -4.608,3.024 -1.801,0 -3.529,-0.864 -5.328,-2.592 -1.801,-1.8 -3.385,-4.248 -4.681,-7.632 -1.296,-3.312 -2.591,-8.784 -3.96,-16.344 L 17.999,0 Z"
             style="fill:#33328f;fill-opacity:1;fill-rule:nonzero;stroke:none"
             id="path22" /></g><g
           id="g24"
           transform="translate(383.9658,247.2996)"><path
             d="m 0,0 7.992,19.08 c 9.144,2.88 16.92,4.32 23.256,4.32 3.601,0 6.769,-0.576 9.648,-1.8 2.808,-1.224 4.896,-3.168 6.193,-5.904 1.295,-2.664 1.799,-6.552 0.935,-11.592 L 39.312,-48.528 H 21.24 c 1.08,5.039 2.952,15.481 5.616,31.176 -1.296,-0.792 -2.304,-1.368 -3.024,-1.728 -0.647,-0.36 -1.872,-0.936 -3.672,-1.656 -1.727,-0.72 -3.096,-1.368 -4.104,-1.872 -1.008,-0.504 -1.871,-1.152 -2.664,-1.872 -0.791,-0.864 -1.44,-1.656 -1.799,-2.448 -0.433,-0.792 -0.649,-1.729 -0.793,-2.737 -0.216,-1.584 0,-2.878 0.721,-3.959 0.647,-1.152 1.871,-1.656 3.671,-1.656 0.649,0 1.368,0.072 2.088,0.216 0.792,0.144 6.552,1.008 7.92,1.655 -2.664,-2.951 -8.136,-9.791 -11.16,-15.263 -2.664,-0.648 -4.031,-1.584 -6.336,-1.584 -3.816,0 -6.84,0.793 -9.144,2.377 -2.303,1.511 -3.887,4.103 -4.824,7.63 -0.864,3.529 -1.08,7.057 -0.576,10.584 0.288,2.161 0.792,4.248 1.584,6.265 0.792,2.088 1.8,4.104 3.168,6.048 1.296,2.016 2.808,3.672 4.392,5.112 1.656,1.368 3.744,2.664 6.408,3.96 2.664,1.224 5.976,2.376 9.936,3.456 1.656,0.504 3.168,0.936 4.537,1.512 1.439,0.504 2.447,0.936 3.023,1.368 0.648,0.36 1.152,0.864 1.584,1.368 0.432,0.504 0.721,1.08 1.008,1.656 0.144,0.576 0.36,1.152 0.432,1.8 C 29.448,4.608 29.16,5.976 28.296,6.912 27.433,7.848 26.064,8.28 24.192,8.28 18.937,8.28 8.353,4.464 0,0"
             style="fill:#33328f;fill-opacity:1;fill-rule:nonzero;stroke:none"
             id="path26" /></g><g
           id="g28"
           transform="translate(332.4863,198.7717)"><path
             d="m 0,0 -6.408,70.128 h 18.504 l 2.088,-44.784 16.56,44.784 H 49.535 L 19.584,0 Z"
             style="fill:#33328f;fill-opacity:1;fill-rule:nonzero;stroke:none"
             id="path30" /></g><g
           id="g32"
           transform="translate(252.2056,198.7717)"><path
             d="M 0,0 15.48,93.816 H 33.696 L 28.152,60.48 c 1.224,1.944 2.232,3.312 2.952,4.248 0.792,1.008 1.656,1.872 2.52,2.664 0.864,0.792 1.728,1.44 2.664,2.016 0.863,0.504 1.872,1.008 2.952,1.44 1.079,0.432 2.304,0.72 3.6,0.936 1.296,0.216 2.664,0.36 3.96,0.36 2.592,0 5.04,-0.432 7.344,-1.296 2.305,-0.864 4.176,-2.376 5.616,-4.536 1.441,-2.232 2.233,-4.68 2.521,-7.344 0.216,-2.664 0.216,-5.616 -0.288,-8.784 L 61.273,45.288 53.712,0 H 34.704 l 4.176,21.096 c 1.439,7.92 2.448,13.824 2.952,17.712 0.576,4.32 0.36,7.344 -0.576,9.072 -1.008,1.728 -2.448,2.592 -4.464,2.592 -1.8,0 -3.384,-0.504 -4.896,-1.584 C 30.528,47.88 29.232,46.44 28.152,44.424 27.144,42.696 26.136,40.248 25.2,37.08 24.048,33.192 22.824,27.432 21.456,19.8 L 18.288,0 Z"
             style="fill:#33328f;fill-opacity:1;fill-rule:nonzero;stroke:none"
             id="path34" /></g><g
           id="g36"
           transform="translate(185.0298,198.7717)"><path
             d="m 0,0 11.448,70.128 h 18.36 L 28.08,60.84 c 1.224,1.656 2.304,3.024 3.168,3.96 0.864,1.008 1.872,1.944 3.096,2.952 1.224,0.936 2.448,1.656 3.744,2.232 1.296,0.648 2.736,1.08 4.176,1.44 1.512,0.36 3.024,0.504 4.608,0.504 2.232,0 4.32,-0.36 6.336,-1.08 1.944,-0.72 3.6,-1.728 4.824,-3.024 1.224,-1.296 2.16,-2.88 2.88,-4.824 0.648,-1.944 1.008,-4.104 1.008,-6.336 L 61.488,49.752 53.496,0 H 34.92 l 6.12,35.928 c 0.648,5.184 0.504,8.784 -0.576,10.872 -1.008,2.016 -2.592,3.024 -4.608,3.024 -1.728,0 -3.528,-0.864 -5.328,-2.592 -1.8,-1.8 -3.384,-4.248 -4.68,-7.632 -1.296,-3.312 -2.592,-8.784 -3.96,-16.344 L 18.072,0 Z"
             style="fill:#33328f;fill-opacity:1;fill-rule:nonzero;stroke:none"
             id="path38" /></g><g
           id="g40"
           transform="translate(151.5493,198.7717)"><path
             d="M 0,0 10.872,64.584 30.456,73.656 18.576,0 Z"
             style="fill:#33328f;fill-opacity:1;fill-rule:nonzero;stroke:none"
             id="path42" /></g><g
           id="g44"
           transform="translate(163.7178,272.2834)"><path
             d="M 0,0 3.312,20.16 H 21.528 L 18.432,-0.072 Z"
             style="fill:#33328f;fill-opacity:1;fill-rule:nonzero;stroke:none"
             id="path46" /></g><g
           id="g48"
           transform="translate(102.5894,198.7717)"><path
             d="M 0,0 12.528,73.512 H -7.056 l 3.312,20.304 H 54.792 L 51.408,73.512 H 32.112 L 20.232,0 Z"
             style="fill:#33328f;fill-opacity:1;fill-rule:nonzero;stroke:none"
             id="path50" /></g><g
           id="g52"
           transform="translate(418.7422,299.4275)"><path
             d="M 0,0 11.088,-23.688 H -23.184 Z"
             style="fill:#33328f;fill-opacity:1;fill-rule:evenodd;stroke:none"
             id="path54" /></g><g
           id="g56"
           transform="translate(437.8945,198.7717)"><path
             d="M 0,0 11.376,70.128 H 29.735 L 28.007,60.84 c 1.224,1.656 2.305,3.024 3.168,3.96 0.865,1.008 1.873,1.944 3.096,2.952 1.152,0.936 2.449,1.656 3.745,2.232 1.296,0.648 2.664,1.08 4.175,1.44 1.513,0.36 3.025,0.504 4.609,0.504 2.231,0 4.32,-0.36 6.336,-1.08 1.943,-0.72 3.599,-1.728 4.824,-3.024 1.224,-1.296 2.16,-2.88 2.879,-4.824 0.648,-1.944 1.009,-4.104 1.009,-6.336 0,-2.232 -0.073,-4.536 -0.504,-6.912 L 59.544,38.52 53.423,0 H 34.848 l 6.048,35.928 c 0.72,5.184 0.503,8.784 -0.504,10.872 -1.08,2.016 -2.592,3.024 -4.608,3.024 -1.801,0 -3.529,-0.864 -5.328,-2.592 -1.801,-1.8 -3.385,-4.248 -4.681,-7.632 -1.296,-3.312 -2.591,-8.784 -3.96,-16.344 L 17.999,0 Z"
             style="fill:#33328f;fill-opacity:1;fill-rule:nonzero;stroke:none"
             id="path58" /></g><g
           id="g60"><g
             id="g62" /><g
             id="g74"><g
               clip-path="url(#clipPath66)"
               id="g72"><text
                 transform="matrix(1,0,0,-1,205.4224,139.6533)"
                 style="font-variant:normal;font-weight:bold;font-stretch:normal;font-size:51.9401px;font-family:Arial;-inkscape-font-specification:Arial-BoldMT;writing-mode:lr-tb;fill:#66686c;fill-opacity:1;fill-rule:nonzero;stroke:none"
                 id="text70"><tspan
                   x="0 34.644047 75.053444 106.78885 138.52425 184.68341 222.18416 259.68491"
                   y="0"
                   sodipodi:role="line"
                   id="tspan68">SOFTWARE</tspan></text></g></g></g></g></g></g></svg>
