<svg width="64" height="64" viewBox="0 0 64 64" fill="none" xmlns="http://www.w3.org/2000/svg">
<circle cx="32" cy="32" r="32" fill="#F1F3F5"/>
<g clip-path="url(#clip0)">
<path d="M37.7329 18.7507C37.6665 18.2975 37.2675 17.9616 36.8056 18.0035C35.187 18.1173 33.3533 19.1147 32.2456 20.483C31.04 21.9668 30.4889 23.7848 30.7723 25.3474C30.8458 25.7533 31.194 26.0525 31.6052 26.0665C31.6525 26.0683 31.698 26.0683 31.7452 26.0683C33.4092 26.0683 35.1853 25.1374 36.3051 23.6676C37.4495 22.1768 37.9692 20.385 37.7329 18.7507ZM34.9158 22.6055L34.9141 22.6072C34.2911 23.4244 33.3708 24.0193 32.4591 24.2328C32.5431 23.2301 33.061 22.252 33.6035 21.5853C34.1966 20.8539 35.1205 20.2398 36.0234 19.9388C35.9027 21.1794 35.2448 22.1785 34.9158 22.6055Z" fill="#353590"/>
<path d="M43.8922 37.7988C43.7995 37.5766 43.6227 37.4051 43.3988 37.3176C41.621 36.6317 40.4277 34.9869 40.2894 33.0237C40.1547 31.0954 41.0768 29.3841 42.7584 28.4462C42.9823 28.322 43.1416 28.1068 43.1906 27.8548C43.2395 27.6028 43.1783 27.3421 43.0191 27.1409C41.5405 25.2669 39.4303 24.147 37.3743 24.147C35.943 24.147 34.9386 24.5337 34.1302 24.8452C33.5073 25.0849 33.0173 25.2739 32.4452 25.2739C31.8048 25.2739 31.2046 25.0552 30.5099 24.8032C29.6665 24.497 28.7094 24.1505 27.502 24.1505C25.1696 24.1505 22.8109 25.5749 21.3463 27.8671C19.1486 31.3159 19.7733 37.2599 22.8336 42C24.027 43.8513 25.691 45.979 28.0025 46C28.0165 46 28.0322 46 28.048 46C29.0051 46 29.6665 45.699 30.2509 45.4348C30.8616 45.1584 31.4373 44.8959 32.4732 44.8889C33.4565 44.8591 34.0707 45.1461 34.6674 45.4243C35.2501 45.6973 35.929 45.9913 36.8914 45.9948C39.1398 45.9773 40.8074 43.8618 42.1424 41.7935C42.9508 40.5407 43.2623 39.8915 43.8835 38.4882C43.9815 38.2695 43.985 38.0193 43.8922 37.7988ZM40.6744 40.8452C39.656 42.4235 38.3034 44.2345 36.8774 44.2467C36.3174 44.2345 35.922 44.0805 35.4093 43.8408C34.7339 43.5258 33.8852 43.1601 32.4644 43.1426C31.0541 43.1496 30.209 43.5328 29.5283 43.8425C28.9981 44.0805 28.6149 44.217 28.0182 44.2502C26.5432 44.2362 25.2588 42.5354 24.3035 41.0516C21.2676 36.3482 21.2728 31.2336 22.8196 28.8084C23.9657 27.0149 25.7593 25.9003 27.5003 25.9003C28.3997 25.9003 29.1346 26.168 29.915 26.4497C30.6936 26.7315 31.4985 27.0237 32.4469 27.0237C33.3428 27.0237 34.0637 26.7455 34.7601 26.4777C35.502 26.1925 36.2684 25.8968 37.376 25.8968C38.6341 25.8968 39.9412 26.49 41.0051 27.5171C39.292 28.8557 38.3857 30.8924 38.5449 33.1479C38.7094 35.4786 39.9832 37.4803 41.936 38.5617C41.551 39.3981 41.2553 39.944 40.6744 40.8452Z" fill="#353590"/>
</g>
<defs>
<clipPath id="clip0">
<rect width="28" height="28" fill="white" transform="translate(18 18)"/>
</clipPath>
</defs>
</svg>
