<?xml version="1.0" encoding="utf-8"?>
<!-- Generator: Adobe Illustrator 19.0.0, SVG Export Plug-In . SVG Version: 6.00 Build 0)  -->
<svg version="1.1" id="layer" xmlns="http://www.w3.org/2000/svg" xmlns:xlink="http://www.w3.org/1999/xlink" x="0px" y="0px"
	 viewBox="-153 -46 652 652" style="enable-background:new -153 -46 652 652;" xml:space="preserve">
<style type="text/css">
	.st0{fill:#FF5A00;}
</style>
<g>
	<path class="st0" d="M238.1,168c0,3.8-3.1,7-7,7c-3.8,0-7-3.1-7-7c0-3.8,3.1-7,7-7c0,0,0,0,0,0C235,161.1,238.1,164.2,238.1,168"/>
	<path class="st0" d="M326.5,315.7c0,3.8-3.1,7-7,7s-7-3.1-7-7s3.1-7,7-7l0,0C323.4,308.8,326.5,311.9,326.5,315.7"/>
	<path class="st0" d="M354.6,362.4c-6.7,0-9.6-4.4-9.6-11.9s2.9-13.2,9.6-13.2c6.7,0,9.6,4.4,9.6,13.2
		C364.3,357.9,361.3,362.4,354.6,362.4 M354.6,328.5c-13.4,0-21.6,10.1-21.6,21.8c0,13.9,8.4,21,21.6,21c13.2,0,21.5-8.8,21.5-21
		C376.2,336,368.4,328.5,354.6,328.5"/>
	<path class="st0" d="M177.1,362.4c-6.7,0-9.6-4.4-9.6-11.9s2.9-13.2,9.6-13.2c6.7,0,9.6,4.4,9.6,13.2
		C186.7,357.9,183.8,362.4,177.1,362.4 M177.1,328.5c-13.4,0-21.5,10.1-21.5,21.8c0,13.9,8.5,21,21.5,21s21.6-8.8,21.6-21
		C198.6,336,190.9,328.5,177.1,328.5"/>
	<path class="st0" d="M169.1,288.5c-6.7,0-9.6-4.4-9.6-11.9s2.9-13.2,9.6-13.2c6.7,0,9.6,4.4,9.6,13.2
		C178.7,284.1,175.8,288.5,169.1,288.5 M169.1,254.5c-13.4,0-21.5,10.1-21.5,21.8c0,13.9,8.5,21,21.5,21s21.5-8.8,21.5-21
		C190.7,262.2,182.9,254.5,169.1,254.5"/>
	<path class="st0" d="M217.1,288.5c-6.7,0-9.6-4.4-9.6-11.9s2.9-13.2,9.6-13.2c6.7,0,9.6,4.4,9.6,13.2
		C226.7,284.1,223.8,288.5,217.1,288.5 M217.1,254.5c-13.4,0-21.5,10.1-21.5,21.8c0,13.9,8.4,21,21.5,21c13.1,0,21.5-8.8,21.5-21
		C238.7,262.2,230.9,254.5,217.1,254.5"/>
	<path class="st0" d="M283.8,197.2c0.5-5.5,3.4-8.9,8.4-8.9c5,0,8.3,3.2,8.3,8.9H283.8z M292.3,180.7c-12.8,0-20.6,8.9-20.6,21.6
		c0,11.4,6.6,21.2,22.4,21.2c4.7,0.1,9.4-0.6,13.9-2.2c0.7-0.2,1.2-0.9,1.2-1.7v-4.9c0-1-0.8-1.7-1.8-1.7c-0.2,0-0.4,0.1-0.6,0.1
		c-3.2,1.3-6.7,1.9-10.2,1.8c-7.7,0-12.7-4-13-10.4h26.8c0.9,0,1.7-0.7,1.7-1.6c0,0,0,0,0-0.1C312.1,190.5,305.9,180.7,292.3,180.7"
		/>
	<path class="st0" d="M373.8,197.2c0.5-5.5,3.4-8.9,8.4-8.9c5,0,8.3,3.2,8.3,8.9H373.8z M382.3,180.7c-12.8,0-20.6,8.9-20.6,21.6
		c0,11.4,6.6,21.2,22.4,21.2c4.7,0.1,9.4-0.6,13.9-2.2c0.7-0.2,1.2-0.9,1.2-1.7v-4.9c0-1-0.8-1.7-1.8-1.7c-0.2,0-0.4,0.1-0.6,0.1
		c-3.2,1.3-6.7,1.9-10.2,1.8c-7.7,0-12.7-4-13-10.4h26.8c0.9,0,1.7-0.7,1.7-1.6c0,0,0,0,0-0.1C402.1,190.5,395.9,180.7,382.3,180.7"
		/>
	<path class="st0" d="M162.1,167.9h-16.8c-0.9,0-1.7,0.7-1.7,1.6c0,0,0,0,0,0.1v4.6c0,0.9,0.7,1.7,1.6,1.7c0,0,0,0,0.1,0h3.2v25.8
		c0,7.9-2.4,13.1-12,13.1c-8.8,0-11.4-5-11.4-13.1v-25.8h3.2c0.9,0,1.7-0.7,1.7-1.6c0,0,0,0,0-0.1v-4.6c0-0.9-0.7-1.7-1.6-1.7
		c0,0,0,0-0.1,0h-18c-0.9,0-1.7,0.7-1.7,1.6c0,0,0,0,0,0.1v4.6c0,0.9,0.7,1.7,1.6,1.7c0,0,0,0,0.1,0h3.2v27.7c0,11.8,5.9,20,22.2,20
		c14.9,0,23-6.2,23-22.7v-25.1h3.2c0.9,0,1.7-0.7,1.7-1.6c0,0,0,0,0-0.1v-4.6C163.8,168.7,163.1,167.9,162.1,167.9
		C162.2,167.9,162.1,167.9,162.1,167.9"/>
	<path class="st0" d="M213.6,214.7h-3.2v-18c0-9.8-4.4-16-14.2-16c-5.7-0.2-11,2.9-13.6,8h-0.1v-5.4c0-0.9-0.7-1.7-1.6-1.7
		c0,0,0,0-0.1,0h-12.6c-0.9,0-1.7,0.7-1.7,1.6c0,0,0,0,0,0.1v4.6c0,0.9,0.7,1.7,1.6,1.7c0,0,0,0,0.1,0h3.6v25h-3.2
		c-0.9,0-1.7,0.7-1.7,1.6c0,0,0,0,0,0.1v4.6c0,0.9,0.7,1.7,1.6,1.7c0,0,0,0,0.1,0H186c0.9,0,1.7-0.7,1.7-1.6c0,0,0,0,0-0.1v-4.6
		c0-0.9-0.7-1.7-1.6-1.7c0,0,0,0-0.1,0h-3.2V201c0-6.2,2.9-10.9,9.6-10.9c4.2,0,7.1,2,7.1,7.7v16.8h-3.2c-0.9,0-1.7,0.7-1.7,1.6
		c0,0,0,0,0,0.1v4.6c0,0.9,0.7,1.7,1.6,1.7c0,0,0,0,0.1,0h17.4c0.9,0,1.7-0.7,1.7-1.6c0,0,0,0,0-0.1v-4.6
		C215.2,215.4,214.5,214.7,213.6,214.7C213.6,214.7,213.6,214.7,213.6,214.7"/>
	<path class="st0" d="M240.6,214.7H237v-31.3c0-0.9-0.7-1.7-1.6-1.7c0,0,0,0-0.1,0h-12.8c-0.9,0-1.7,0.7-1.7,1.6c0,0,0,0,0,0.1v4.6
		c0,0.9,0.7,1.7,1.6,1.7c0,0,0,0,0.1,0h3.6v25h-3.6c-0.9,0-1.7,0.7-1.7,1.6c0,0,0,0,0,0.1v4.6c0,0.9,0.7,1.7,1.6,1.7c0,0,0,0,0.1,0
		h18.2c0.9,0,1.7-0.7,1.7-1.6c0,0,0,0,0-0.1v-4.6C242.3,215.3,241.5,214.7,240.6,214.7"/>
	<path class="st0" d="M267.6,214.7H264v-50.5c0-0.9-0.7-1.7-1.6-1.7c0,0,0,0-0.1,0h-12.8c-0.9,0-1.7,0.7-1.7,1.6c0,0,0,0,0,0.1v4.6
		c0,0.9,0.7,1.7,1.6,1.7c0,0,0,0,0.1,0h3.6v44.3h-3.6c-0.9,0-1.7,0.7-1.7,1.6c0,0,0,0,0,0.1v4.6c0,0.9,0.7,1.7,1.6,1.7
		c0,0,0,0,0.1,0h18.1c0.9,0,1.7-0.7,1.7-1.6c0,0,0,0,0-0.1v-4.6c0.1-0.9-0.6-1.6-1.5-1.7C267.7,214.7,267.7,214.7,267.6,214.7"/>
	<path class="st0" d="M359.2,181.7H343c-0.9,0-1.7,0.7-1.7,1.6c0,0,0,0,0,0.1v4.6c0,0.9,0.7,1.7,1.6,1.7c0,0,0,0,0.1,0h2.9
		c0,0-7.2,20.3-7.2,20.4c-0.2,0.5-0.7,0.7-1.1,0.6c-0.3-0.1-0.5-0.3-0.6-0.6l-7.4-20.3h2.2c0.9,0,1.7-0.7,1.7-1.6c0,0,0,0,0-0.1
		v-4.6c0-0.9-0.7-1.7-1.6-1.7c0,0,0,0-0.1,0h-16.8c-0.9,0-1.7,0.7-1.7,1.6c0,0,0,0,0,0.1v4.6c0,0.9,0.7,1.7,1.6,1.7c0,0,0,0,0.1,0
		h2.2l14,32.5c0.2,0.3,0.5,0.5,0.8,0.5h10.8c0.3,0,0.6-0.2,0.8-0.5l13.8-32.4h2.2c0.9,0,1.7-0.7,1.7-1.6c0,0,0,0,0-0.1v-4.6
		C361,182.6,360.2,181.8,359.2,181.7"/>
	<path class="st0" d="M133.8,337.2l-6.6-1.7c-3.6-0.8-6.5-2-6.5-6c0-3,2.4-7,10.1-7c3,0,5.9,0.6,8.6,1.9v4.6c0,0.9,0.7,1.7,1.6,1.7
		c0,0,0,0,0.1,0h5.4c0.9,0,1.7-0.7,1.7-1.6c0,0,0,0,0-0.1v-10c0-0.7-0.4-1.3-1.1-1.6l0,0c-5.3-1.9-11-2.9-16.7-2.9
		c-15.5,0-21.6,7.7-21.6,16.3c0,7.7,4.4,13,15.1,15.7l6,1.6c7.3,1.9,8.9,4,8.9,6.7c0,4.2-3,7.3-9.7,7.3c-3.3,0.1-6.6-0.5-9.6-1.9
		v-4.9c0-0.9-0.7-1.7-1.6-1.7c0,0,0,0-0.1,0h-6.2c-0.9,0-1.7,0.7-1.7,1.6c0,0,0,0,0,0.1v10.9c0,0.7,0.3,1.3,1,1.6
		c5.5,2.3,11.4,3.4,17.3,3.4c15.6,0,22.7-7.6,22.7-18C150.7,342.5,141.8,339.3,133.8,337.2"/>
	<path class="st0" d="M270.7,362.4h-3v-31.3c0-0.9-0.7-1.7-1.6-1.7c0,0,0,0-0.1,0h-12.8c-0.9,0-1.7,0.7-1.7,1.6c0,0,0,0,0,0.1v4.6
		c0,0.9,0.7,1.7,1.6,1.7c0,0,0,0,0.1,0h3.6v14.8c0,6.5-3.8,10.2-8.5,10.2c-6.6,0-7.2-4.2-7.2-10.1V331c0-0.9-0.7-1.7-1.6-1.7
		c0,0,0,0-0.1,0h-13c-0.9,0-1.7,0.7-1.7,1.6c0,0,0,0,0,0.1v4.6c0,0.9,0.7,1.7,1.6,1.7c0,0,0,0,0.1,0h3.6v19.6
		c0,8.6,4.7,14.3,14,14.3c5.9,0,10.2-1.8,12.8-5.5h0.2v2.8c0,0.9,0.7,1.7,1.6,1.7c0,0,0,0,0.1,0h11.9c0.9,0,1.7-0.7,1.7-1.6
		c0,0,0,0,0-0.1v-4.6C272.2,363,271.5,362.4,270.7,362.4"/>
	<path class="st0" d="M454.8,345c-2.4-0.4-6.2-1-8.6-1.2s-3.7-1.6-3.7-3.5c0-2.3,2-4.1,7.3-4.3c2.8-0.1,6.6,0.4,8.3,1.6v2.4
		c0,0.9,0.7,1.7,1.6,1.7c0,0,0,0,0.1,0h4.3c0.9,0,1.7-0.7,1.7-1.6c0,0,0,0,0-0.1v-7.3c0-0.7-0.4-1.3-1.1-1.6
		c-4.7-1.8-9.6-2.8-14.6-2.8c-8.5,0-18,3.2-18,13.4c0,5.8,3.7,9.6,10.2,10.7l9.2,1.7c4.8,0.7,6.2,2.2,6.2,4.3c0,4.3-5.8,4.8-8,4.8
		c-2.8,0-5.5-0.4-8.2-1.3v-3.1c0-0.9-0.7-1.7-1.6-1.7c0,0,0,0-0.1,0h-4.9c-0.9,0-1.7,0.7-1.7,1.6c0,0,0,0,0,0.1v8.4
		c0,0.7,0.4,1.3,1.1,1.6c4.6,1.5,9.5,2.4,14.4,2.4c14.3,0,19.3-6.8,19.3-14.2C468.1,350.3,464.2,346.5,454.8,345"/>
	<path class="st0" d="M146.8,241.7h-36.4c-0.9,0-1.7,0.7-1.7,1.6c0,0,0,0,0,0.1v4.6c0,0.9,0.7,1.7,1.6,1.7c0,0,0,0,0.1,0h4.3v38.9
		h-4.3c-0.9,0-1.7,0.7-1.7,1.6c0,0,0,0,0,0.1v4.6c0,0.9,0.7,1.7,1.6,1.7c0,0,0,0,0.1,0h20c0.9,0,1.7-0.7,1.7-1.6c0,0,0,0,0-0.1v-4.6
		c0-0.9-0.7-1.7-1.6-1.7c0,0,0,0-0.1,0h-4.3v-15.7h12.7c0.9,0,1.7-0.7,1.7-1.6c0,0,0,0,0-0.1v-4.6c0-0.9-0.7-1.7-1.6-1.7
		c0,0,0,0-0.1,0h-12.7v-15.2h13.4v6.5c0,0.9,0.7,1.7,1.6,1.7c0,0,0,0,0.1,0h5.4c0.9,0,1.7-0.7,1.7-1.6c0,0,0,0,0-0.1v-12.7
		c0.1-0.8-0.5-1.6-1.3-1.7C146.9,241.7,146.9,241.7,146.8,241.7"/>
	<path class="st0" d="M273.1,276.6c0,6.2-3.7,11.4-9.5,11.4c-5.3,0-8.4-5.5-8.4-11.9c0-6.4,3-13.1,10.9-13.1c2.4,0.1,4.8,0.7,7,1.9
		L273.1,276.6L273.1,276.6z M287.2,288.5h-3V238c0-0.9-0.7-1.7-1.6-1.7c0,0,0,0-0.1,0h-13.7c-0.9,0-1.7,0.7-1.7,1.6c0,0,0,0,0,0.1
		v4.6c0,0.9,0.7,1.7,1.6,1.7c0,0,0,0,0.1,0h4.3v11.3c-2.2-0.6-4.4-0.9-6.7-1c-17.4,0.1-22.8,13-22.8,24.2c0,12.2,7.7,18.7,16.7,18.7
		c6,0,10.4-2.2,13.1-7h0.1v4.2c0,0.9,0.7,1.7,1.6,1.7c0,0,0,0,0.1,0H287c0.9,0,1.7-0.7,1.7-1.6c0,0,0,0,0-0.1v-4.6
		c0.1-0.8-0.5-1.6-1.4-1.7C287.3,288.5,287.2,288.5,287.2,288.5"/>
	<path class="st0" d="M301.3,362.4c-1.2,0.3-2.4,0.5-3.6,0.5c-4.6,0-6-1.4-6-7.2v-18.2h9.2c0.9,0,1.7-0.7,1.7-1.6c0,0,0,0,0-0.1
		v-4.6c0-0.9-0.7-1.7-1.6-1.7c0,0,0,0-0.1,0h-9.2v-7.3c0-0.9-0.7-1.7-1.6-1.7c0,0,0,0-0.1,0h-7.6c-0.9,0-1.7,0.7-1.7,1.6
		c0,0,0,0,0,0.1v7.3h-4.3c-0.9,0-1.7,0.7-1.7,1.6c0,0,0,0,0,0.1v4.6c0,0.9,0.7,1.7,1.6,1.7c0,0,0,0,0.1,0h4.3v22.9
		c0,7.2,4.3,10.9,12.4,10.9c3.2,0,6.3-0.6,9.2-1.8c0.6-0.3,1.1-0.9,1.1-1.6v-4c-0.1-1-1-1.7-2-1.6
		C301.4,362.4,301.4,362.4,301.3,362.4"/>
	<path class="st0" d="M434.4,180.7c-0.6,0-1.3-0.1-1.9-0.1c-4.9,0-9,0.8-10.9,6.2h-0.1v-3.5c0-0.9-0.7-1.7-1.6-1.7c0,0,0,0-0.1,0
		h-12.5c-0.9,0-1.7,0.7-1.7,1.6c0,0,0,0,0,0.1v4.6c0,0.9,0.7,1.7,1.6,1.7c0,0,0,0,0.1,0h3.6v25h-3.6c-0.9,0-1.7,0.7-1.7,1.6
		c0,0,0,0,0,0.1v4.6c0,0.9,0.7,1.7,1.6,1.7c0,0,0,0,0.1,0h18.2c0.9,0,1.7-0.7,1.7-1.6c0,0,0,0,0-0.1v-4.6c0-0.9-0.7-1.7-1.6-1.7
		c0,0,0,0-0.1,0h-3.6v-13.2c0-6.7,4-10.4,9.6-10.9c1-0.1,1.9-0.1,2.9,0c0.9,0,1.7-0.7,1.7-1.6c0,0,0,0,0-0.1v-6.4
		C435.9,181.6,435.3,180.9,434.4,180.7"/>
	<path class="st0" d="M329,362.4h-3.6v-31.3c0-0.9-0.7-1.7-1.6-1.7c0,0,0,0-0.1,0h-13c-0.9,0-1.7,0.7-1.7,1.6c0,0,0,0,0,0.1v4.6
		c0,0.9,0.7,1.7,1.6,1.7c0,0,0,0,0.1,0h3.6v25h-3.6c-0.9,0-1.7,0.7-1.7,1.6c0,0,0,0,0,0.1v4.6c0,0.9,0.7,1.7,1.6,1.7c0,0,0,0,0.1,0
		H329c0.9,0,1.7-0.7,1.7-1.6c0,0,0,0,0-0.1V364C330.7,363.1,329.9,362.4,329,362.4C329,362.4,329,362.4,329,362.4"/>
	<path class="st0" d="M221,362.4h-3.6v-50.5c0-0.9-0.7-1.7-1.6-1.7c0,0,0,0-0.1,0h-12.8c-0.9,0-1.7,0.7-1.7,1.6c0,0,0,0,0,0.1v4.6
		c0,0.9,0.7,1.7,1.6,1.7c0,0,0,0,0.1,0h3.6v44.3h-3.6c-0.9,0-1.7,0.7-1.7,1.6c0,0,0,0,0,0.1v4.6c0,0.9,0.7,1.7,1.6,1.7
		c0,0,0,0,0.1,0H221c0.9,0,1.7-0.7,1.7-1.6c0,0,0,0,0-0.1v-4.6C222.7,363.2,222,362.4,221,362.4C221.1,362.4,221.1,362.4,221,362.4"
		/>
	<path class="st0" d="M426.6,362.4h-3.2v-17.9c0-9.8-4.4-16-14.2-16c-5.7-0.2-11,2.9-13.6,8h-0.1v-5.4c0-0.9-0.7-1.7-1.6-1.7
		c0,0,0,0-0.1,0h-12.6c-0.9,0-1.7,0.7-1.7,1.6c0,0,0,0,0,0.1v4.6c0,0.9,0.7,1.7,1.6,1.7c0,0,0,0,0.1,0h3.6v25h-3.2
		c-0.9,0-1.7,0.7-1.7,1.6c0,0,0,0,0,0.1v4.6c0,0.9,0.7,1.7,1.6,1.7c0,0,0,0,0.1,0H399c0.9,0,1.7-0.7,1.7-1.6c0,0,0,0,0-0.1v-4.6
		c0-0.9-0.7-1.7-1.6-1.7c0,0,0,0-0.1,0h-3.2v-13.7c0-6.2,2.9-10.9,9.6-10.9c4.2,0,7.1,2,7.1,7.7v16.8h-3.2c-0.9,0-1.7,0.7-1.7,1.6
		c0,0,0,0,0,0.1v4.6c0,0.9,0.7,1.7,1.6,1.7c0,0,0,0,0.1,0h17.4c0.9,0,1.7-0.7,1.7-1.6c0,0,0,0,0-0.1V364
		C428.2,363.1,427.5,362.4,426.6,362.4C426.6,362.4,426.6,362.4,426.6,362.4"/>
	<path class="st0" d="M63.7,212.5c-1.2,0-2.9,0-3.7-1.8c-0.7-1.6-0.5-4-1.9-5c1.3,0.4,2.7,0.5,4.1,0.5c3.7,0,7.4-2.6,10.1-2.6
		c1.2-0.1,2.3,0.7,2.4,1.9c0,0.1,0,0.2,0,0.4C74.6,209.5,67.2,212.5,63.7,212.5 M65.5,222c8.6,0,16.7-7,16.7-13.1
		c0-2.9-1.3-5.2-4.8-5.6c0.6,0.7,0.9,1.7,0.8,2.6c0,4.6-7,9.7-14.6,9.7c-2.8,0-3.6,1.9-3.6,2.9C60,220.9,62.3,222,65.5,222
		 M64.9,225.5c1.1,7.9,13.1,18.6,16.3,18.4c2.2-0.2,3-10.4,3-18.4c0-4.6,0.2-8.2-2.2-9C78.2,224.2,68.2,225.9,64.9,225.5"/>
	<path class="st0" d="M-123.4,278.1c2.9,0,2.3-17.4,7-17.4c1.1,0,1.4,1.1,1.4,2.4c0,4-1.9,9.7-1.9,12.8c0,1.6,0.5,2,1.2,2
		c2,0,5.5-19.2,9-19.2c1.1,0,1.6,1.1,1.6,2.2c0,4.1-5.2,15.6-5.2,18.8c0,0.5,0.1,1,0.6,1c2,0,6.2-9,7.6-13.6
		c0.7-2.3,1.8-3.6,2.6-3.6s1.6,1,1.6,2.9c0,4.6-4.2,15.1-7.8,22.2c-2.9,5.5-7.3,13.4-7.3,17.9c0,2.3,0.4,4.6,3.7,7.4
		c-5.4-0.4-7.6-0.8-9.6-5c-8.9,17.8,16.4,16.1,7.8,31.8c-1.6-2.8-14.2-5.8-14.2-22.3c0-14.3,12.5-22.7,12.5-28.6
		c0-1.2-0.6-2.4-1.6-3.1c-2.8-2.4-2.9-4.3-5-4.3c-1.6,0-3.5,3.7-1.4,7c0.6,0.8,1,1.8,1.2,2.8c0,2.3-3.7,8.6-6.2,8.6
		c-2.5,0-4.7-6.5-4.7-16.8c0-9.2,2.2-18.5,4.7-18.5c0.5,0,1,0.4,1,1c0,0.1,0,0.2,0,0.2c0,1.1-0.4,3.2-0.4,7
		C-125,277.7-124.1,278.1-123.4,278.1"/>
	<path class="st0" d="M-102,302.5c3.5,0,6.4-2.6,6.4-8.4v-8.5c0-3.2,0.2-7,2.4-9.5c-0.2,1.1-0.3,2.2-0.2,3.4c0,7.2,4,12.1,4,19.1
		c0,2.6-0.7,4.1-2.8,4.1s-1.8-1.8-2.2-1.8c-0.4,0-0.8,1.1-0.8,2.3c0,2.5,2.1,4.5,4.5,4.4c0.1,0,0.2,0,0.3,0c3.1-0.2,5.5-2.8,5.4-5.9
		c0-7.4-5.9-15.8-5.9-23.9c0-2.6,0.6-5.3,1.7-7.7c0,16.7,14.2,28.7,14.2,35.6c0,1.6-1.2,2.9-2.8,2.9c0,0,0,0-0.1,0
		c-1.5,0-2.8-1.1-2.9-2.6c0-0.6-0.1-0.7-0.4-0.7c-0.5,0-2,1.7-2,3.8c0.1,3.5,3,6.2,6.5,6.1c0,0,0,0,0,0c4,0,7.3-3.3,7.3-7.3
		c0-0.1,0-0.2,0-0.3c0-8.8-17.2-22.1-17.2-36.2c0-3.2,0.7-6.5,2.2-9.4c-11,7.1-14.5,16.6-14.5,24.8c0,7.2-0.2,10.8-3.8,10.8
		c-1.9,0-2.4-1.8-3.1-1.8c-0.5,0-0.7,1.6-0.7,1.9C-106.6,300.4-104.6,302.5-102,302.5"/>
	<path class="st0" d="M24.7,208.5c1.1-0.7,5.8,0.4,11.9-2.6c0.7-0.4,1.4-0.6,2.2-0.6c2.9,0,2.2,3.4,4.8,3.4c2,0,4.8-1.8,6.4-1.8
		c2.5,0,6.1,7.9,6.1,11.5c0,4.3-6.5,6.8-14,6.8c-11.2,0-17.8-9.7-17.8-16C24.2,208.9,24.4,208.5,24.7,208.5 M43,219
		c3.6,0,6.5-1.7,6.5-2.6c0-0.4-0.5-0.6-1.7-0.6c-2.5-0.1-4.9-0.3-7.3-0.7c-3.5-0.6-6.1-1.9-7.2-1.9c-0.2,0-0.4,0.1-0.5,0.4
		c0,0,0,0,0,0C32.8,215.7,36.7,219,43,219"/>
	<path class="st0" d="M-100.2,334.1c-2.8,0.6-7.2,5-7.2,11.9c0,8.2,8.8,20.9,23.3,20.9c12.2,0,15.2-8.4,15.2-14.2
		c0-12.6-7.8-21.5-17.9-21.5c-5.6-0.2-10.3,4.2-10.4,9.8c0,0.1,0,0.1,0,0.2c0,7.7,6.3,13.8,13.9,13.8c0.1,0,0.2,0,0.2,0
		c3.9,0.2,7.2-2.8,7.4-6.7c0-0.2,0-0.4,0-0.5c0-3.7-3.5-8.9-8.4-8.9c-1.3-0.1-2.5,0.8-2.6,2.1c0,0.1,0,0.3,0,0.4
		c0,2,2.8,4.1,6.1,4.1c0.6,0,1.2-0.1,1.8-0.4c0.2,0.3,0.2,0.6,0.2,1c0,1.9-1.8,3.1-4.7,3.1c-4.5,0.1-8.2-3.4-8.4-7.9
		c0-0.1,0-0.2,0-0.3c0-3,2.5-5.2,6.4-5.2c7.4,0,11.9,6.6,11.9,13.2c0,5.9-3.2,9.4-10,9.4C-96.6,358.3-103.2,346.3-100.2,334.1"/>
	<path class="st0" d="M-4.8,383.1c1.7,0,3.4-0.1,5-0.4c0.6-0.1,1.2,0.2,1.3,0.8c0,0.2,0,0.3,0,0.5c0,1.8-4.1,4.1-11.4,4.1
		c-4.3,0-6.8-2.3-7.7-4.8c-5.1,3.1-10.9,4.9-16.8,5c-17.2,0-21.5-7.4-26.9-9.8c-4.1-1.8-10.3,1.8-19.1-8c1.3,0.2,2.6,0.4,4,0.4
		c7.7,0,11.8-3.7,11.8-9.8c0-0.7-0.1-1.6-0.1-2.3c4.7,2.4,8.1,6.8,9,12c0.1,0.8,3.6,1.6,5.8,1.6c3,0,6.8-1.3,7.4-6.2
		c10-0.8,16.8-6.8,18.2-14.3c3.6,1.2,7.7,4.4,8.6,6.1c1.6-0.5,3.3-0.8,5-0.7c3.1,0.1,6.3,0.6,9.2,1.6c0.2-1.1,0.4-2.4,2-2.4
		c2.5,0,1.8,2.8,2.6,4.3c0.5,0.8,2.5,1.3,2.5,3c0,1.2-0.9,2.1-2.1,2.2c0,0,0,0,0,0c-0.4,0-0.7-0.1-1.1-0.2
		C1,366.1,1,378.1-6.1,378.1c-5.2,0-10-4.3-12-9.6c-0.4-1.4-1.6-2.4-3-2.6c-1.3,0-2,0.2-3.7,2c-5.5,5.9-13.3,9.3-21.4,9.2
		c-2.9,0-5.2-0.2-5.6-0.2c-0.5,0-0.4,0.1-0.4,0.1c0,0.6,2.9,2.9,9,2.9c14.8,0,18.4-8.3,20.6-8.3c0.9,0,1.6,0.5,1.9,1.3
		C-17.9,379.3-11.6,383.2-4.8,383.1 M-11.3,366.4c0,1.9,1.5,3.4,3.4,3.4c1.9,0,3.4-1.5,3.4-3.4c0-1.9-1.5-3.4-3.4-3.4
		S-11.3,364.5-11.3,366.4L-11.3,366.4"/>
	<path class="st0" d="M55,324.6c-1.2,0-2.4,1-2.4,3.2c0.1,2,1.2,3.7,3,4.6c0.7,0.4,1.6,0.7,2.4,0.7c2.4,0,4.4-0.7,4.4-2.6
		C62.3,327.9,58.6,324.6,55,324.6 M46,329.8c-1.8,0-11.5,13-17.8,13c-1.6,0-2.8-2.9-2.8-5c0-1.2,0.8-2,3.5-2.6
		c14.4-3.2,11.2-14,23.4-14c6.7,0,14.3,4.6,14.3,15c0,11-15.7,24.7-18,24.7c-1.9,0-4-2.8-4-4.6c0-0.6,0.2-1.3,1.9-2
		c8-3.1,12.6-10.6,12.6-14.3c0.1-0.8-0.4-1.5-1.2-1.7c-0.1,0-0.2,0-0.2,0c-1.4,0-7.6,13.8-14.3,13.8c-4.7,0-9.5-4.2-9.5-6.2
		c0-3.4,13.6-9.6,13.6-14.3C47.4,329.9,46.6,329.8,46,329.8"/>
	<path class="st0" d="M-119.5,220.2c-1.6,1.1-3.5,1.7-5.4,1.8c-3.5,0.1-6.4-2.7-6.5-6.1c0-0.1,0-0.2,0-0.3c-0.1-2.9,1.7-5.5,4.4-6.6
		v1.4C-127.1,215.2-124.4,218.8-119.5,220.2 M-101.6,236.3c-2.3,2.7-3.6,6.1-3.7,9.6c0,4.6,2.8,8.3,7,8.3s6-3.5,6-7.1
		C-92.4,241.5-97.4,237.5-101.6,236.3 M-129.4,239.7c-0.2,0.2-0.3,0.5-0.2,0.8c0.1,0.8,0.7,1.5,1.6,1.6c0.5,0,1-0.1,1.4-0.2
		c2,0,4.3,1.4,7.6,1.4c2.5-0.1,4.9-0.8,7.1-2c6-3,8.4-10.4,8.4-11.8c0-1.6-1.3-1.3-2.3-2.9s-0.7-2.8-1.3-3.4c-1-0.4-2-0.6-3.1-0.6
		c-0.6-0.1-1.2-0.1-1.8-0.1c-3.4-0.1-6.8,0.8-9.7,2.6C-129.2,230.1-128.2,237.7-129.4,239.7 M-109.8,229.2c0.6,0.8,2.2,1.8,2.2,2.3
		c0,1.2-0.7,2.6-2,2.6c-3,0-5.3-4.4-5.3-7c0-1.6,1-1.8,2.2-1.8c0.4,0,0.9,0.1,1.2,0.4C-110.6,226.3-110.6,228-109.8,229.2
		 M-117.5,239.4c-2.8,0-5.8-3.5-5.8-6.5c0-1.7,1.3-3.8,2.2-3.8c0.4,0,0.5,0.2,0.6,0.8c0.4,3.4,2.5,6.3,5.6,7.6
		c0.2,0.1,0.4,0.2,0.5,0.5C-114.4,238.6-115.9,239.4-117.5,239.4 M-110.4,218.4c0.5-1.6,0.7-3.3,0.7-4.9c0-4-1.8-10.1-7.6-10.1
		c-3.1,0-5.6,2.5-5.6,5.6c0,0,0,0,0,0C-122.8,215.7-116.2,218.4-110.4,218.4 M-132,251.8c0,6.4,1.9,9.4,5.4,9.4
		c2.6,0,6.2-1.9,10.6-5.6c-2.6,0.7-5.3,1.2-8,1.3C-127.2,256.8-129.5,255.6-132,251.8 M-129.1,244.3c-0.1,0.4-0.1,0.9-0.1,1.3
		c0,3.8,2.2,6.1,4.8,6.1c2,0,4.6-1.3,6.7-4.1c-1,0.1-2,0.2-3,0.2C-123.7,247.9-127.1,247.1-129.1,244.3 M-108.6,243.3
		c-1.9,0.5-6,2.9-6,7c0,2.7,2.2,4.9,5,4.9c0.1,0,0.2,0,0.3,0c1.1,0.1,2.3-0.2,3.2-0.8c-2.1-1.9-3.3-4.5-3.2-7.3
		C-109.3,245.7-109,244.5-108.6,243.3 M-105.6,220.3c0,1.9,1.5,3.4,3.4,3.4c1.8,0,3.3-1.4,3.4-3.2c0-0.1,0-0.1,0-0.2
		c0-1.9-1.5-3.4-3.4-3.4C-104.1,217-105.6,218.5-105.6,220.3 M-101.3,227.8c0,1.9,1.5,3.4,3.4,3.4s3.4-1.5,3.4-3.4s-1.5-3.4-3.4-3.4
		c0,0,0,0,0,0C-99.7,224.5-101.2,226-101.3,227.8"/>
	<path class="st0" d="M29.2,268.8c0-1.8,1.4-3.2,3.2-3.2c1.8,0,3.2,1.4,3.2,3.2s-1.4,3.2-3.2,3.2C30.6,272,29.2,270.6,29.2,268.8
		 M-0.1,243.1c0,1.9,1.5,3.4,3.4,3.4s3.4-1.5,3.4-3.4s-1.5-3.4-3.4-3.4S-0.1,241.3-0.1,243.1L-0.1,243.1 M-3,254.9
		c0,2.7,2.1,4.8,4.8,4.8s4.8-2.1,4.8-4.8s-2.1-4.8-4.8-4.8S-3,252.2-3,254.9 M7.6,249.5c0,2.8,2.2,5.1,5,5.2c0,0,0,0,0,0
		c2.8,0,5.1-2.2,5.2-5c0-2.8-2.2-5.1-5-5.2C9.9,244.4,7.6,246.7,7.6,249.5 M7.9,238.7c0,1.8,1.4,3.2,3.1,3.2c1.8,0,3.2-1.4,3.2-3.1
		c0-1.8-1.4-3.2-3.1-3.2c0,0-0.1,0-0.1,0c-1.7-0.1-3.1,1.3-3.1,2.9C7.9,238.6,7.9,238.6,7.9,238.7 M23.2,230.7
		c0,1.8,1.4,3.2,3.1,3.2c1.8,0,3.2-1.5,3.2-3.2c0-1.7-1.4-3.1-3.1-3.1c0,0-0.1,0-0.1,0c-1.7-0.1-3.1,1.3-3.1,2.9
		C23.2,230.5,23.2,230.6,23.2,230.7 M16.8,241c0,3,2.4,5.4,5.4,5.4c3,0,5.4-2.4,5.4-5.4c0-3-2.4-5.4-5.4-5.4
		C19.2,235.6,16.8,238,16.8,241C16.8,240.9,16.8,241,16.8,241 M8.2,260.5c0,1.9,1.5,3.4,3.4,3.4c1.9,0,3.4-1.5,3.4-3.4c0,0,0,0,0,0
		c0-1.9-1.5-3.4-3.4-3.4C9.7,257.2,8.2,258.7,8.2,260.5C8.2,260.5,8.2,260.5,8.2,260.5 M19.2,253.8c0,1.9,1.5,3.4,3.4,3.4l0,0
		c1.8,0,3.3-1.5,3.4-3.4c0-1.9-1.5-3.4-3.4-3.4C20.7,250.5,19.2,252,19.2,253.8 M16.1,265.6c0,3.2,2.6,5.7,5.8,5.8
		c3.1,0,5.7-2.5,5.8-5.6c0,0,0-0.1,0-0.1c0-3.2-2.6-5.8-5.8-5.8l0,0C18.7,259.9,16.1,262.4,16.1,265.6 M28.1,258.5c0,2.2,1.8,4,4,4
		s4-1.8,4-4c0-2.2-1.8-4-4-4C29.9,254.6,28.1,256.3,28.1,258.5 M27.8,247.9c0,1.9,1.6,3.5,3.5,3.5c1.9,0,3.5-1.6,3.5-3.5
		c0-1.9-1.6-3.5-3.5-3.5l0,0C29.4,244.5,27.9,246,27.8,247.9"/>
	<path class="st0" d="M36.4,357.6c-4.4,3.6-10,5.5-15.7,5.4c-4.6,0-6.5-1.4-7.2-1.4c-1.1,0.3-2.1,0.9-2.6,1.9
		c-2.8,3.2-4.4,7.3-4.6,11.5c0,3.4,2.6,6.7,7.4,6.7c15.7,0,27.4-9.8,27.4-17.8C40.9,359.5,38.3,357.6,36.4,357.6 M32,356.8
		c0.6-0.7,0.9-1.5,0.8-2.4v-1.9c0-2.4-3.6-3.8-8.6-3.8c-6.1,0-9.4,2.8-9.4,4v3.8c0,1.6,3.7,3.2,8.3,3.2
		C26.4,359.7,29.5,358.7,32,356.8 M31.3,365.1c0.5,0,0.8,0.2,0.8,1.8c-0.1,2.6-1.6,4.9-3.8,6.1c-2.7,1.8-5.9,2.8-9.1,2.6
		c0.7-2,1.1-4,1.2-6.1c0-0.7-0.1-1.2-0.1-1.9h1.1C24.8,367.6,28.3,366.8,31.3,365.1"/>
	<path class="st0" d="M-0.6,262.8c1,7.1,10.4,3.5,10.4,12.1c0,1.3-0.4,3.1-0.4,4.7c0,1.9,0.2,3.5,1.6,3.5s1.8-1,1.8-2.4
		s-0.4-3-0.4-3.8c0-3,2-3.6,3.4-3.6c3.2,0,5.6,3.2,10.3,3.2c-1.1,5.4-12.1,4-12.1,9.7c0,3,2.9,3.6,4.8,3.6s2.3-0.2,2.3-1.7
		c0-0.8-0.1-1.8-0.1-2.4c0-0.3,0.2-0.6,0.5-0.6c0,0,0,0,0.1,0c1.8,0,10.9,6.8,10.9,8.9c0,2-9.5,3.8-12.2,3.8c-0.5,0.1-0.9-0.3-1-0.8
		c0-0.1,0-0.1,0-0.2c0-0.6,1.3-2.3,1.3-3.4c0-0.7-1.2-1.2-4.6-1.2c-1.6,0-2.8,0.1-2.8,1.4c0,2.3,3.7,5,3.7,7.1c0,1.7-1,2.6-3.7,2.6
		c-2.3,0-5.6-1.8-5.6-4.7c0-2.3,2.4-4.7,2.4-6.1c-0.1-0.7-0.6-1.1-1.3-1.1c0,0,0,0,0,0c-3,0-4,8.2-14.9,9.1c2.2-1.6,3.4-4.2,3.2-7
		c0-1.8-0.5-3.2-0.5-5c0-2.5,1.2-3.7,2.9-3.7c3.1,0,4.6,4.3,6.6,4.3c1.3-0.1,2.3-1.2,2.3-2.5c0,0,0,0,0,0c0-6.4-12.2-5.4-12.2-14.4
		C-3.7,270-2.8,267-0.6,262.8 M39.4,287.4c0,2,0.7,4.4,2.8,4.4c1.8,0,3.2-2.6,3.2-5.6c0-3.4-0.6-5.9-0.6-7.3c0-0.6,0.2-0.8,0.6-0.8
		c1.2,0.1,2.4,3.5,3.7,3.5s3.7-2.8,4.7-2.8c0.2,0,0.3,0.2,0.4,0.4c0,1.3-1.9,4.1-1.9,5.2s4.8,1.1,4.8,1.9c0,1.2-5,1.2-7.6,2.3
		c-2.3,1-3.7,2.3-3.7,4s1.7,2,4.1,2c5.5,0,9.5-3,10.8-3c0.2,0,0.3,0.1,0.4,0.3c0,0,0,0.1,0,0.1c0,0.8-2.9,3.6-2.9,4.8
		c0,1.4,5.2,3,5.2,4c-0.2,0.3-0.6,0.4-1,0.4c-1,0-2.3-0.2-3.5-0.2c-0.5-0.1-1.1,0.1-1.4,0.5c-0.6,0.7,0.1,5-1.1,5
		c-1.2,0-4-9.8-10.3-9.8c-1,0-1.6,0.7-1.6,2c0,3.4,3.2,7.2,6.4,9c1.3,1,3.7,1.9,3.7,2.4c0,1-5.3,0-5.3,1.7s0.7,3.8,0.7,5
		c0,0.5-0.1,1-0.6,1c-1,0-3.4-4.6-4.6-4.6c-1,0-3.1,2.8-4.1,2.8c-0.2,0-0.4-0.2-0.4-0.5c0,0,0,0,0,0c0-1.9,3.1-6.2,3.1-10.6
		c0-2-0.2-6.4-2.6-6.4c-2,0-4.2,3.2-5.3,6.4c-0.6,1.8-0.2,8.9-1.6,8.9c-1.3,0-0.8-4.7-2.6-4.7c-1.2,0-4,2.2-4.8,2.2
		c-0.2,0-0.3,0-0.4-0.2c0,0,0,0,0,0c0-1,2.4-4.2,2.4-4.9c0-1.2-5.5-1.4-5.5-2.4c0-0.6,2.2-1,4.2-1.3c4.2-0.8,10.4-3.8,10.4-8.2
		c0-4.9-4.7-7-7.7-9c-1.6-1-3.4-1.8-3.4-2.5c0-0.7,2-0.7,2.9-0.7c1.2,0,2.5-0.1,2.5-1.1c0-0.7-0.2-2.3-0.2-3.5
		c0-0.8,0.1-1.4,0.5-1.4c1.2,0,3,4.1,3.8,4.1c1.3,0,3.1-3.4,4.4-3.4c0.5,0,0.6,0.2,0.6,1C40.9,280.8,39.4,284.3,39.4,287.4"/>
	<path class="st0" d="M1.9,310.5c3.8,0.5,4.8,1.8,4.8,2.9c0,1.9-1.7,2.4-3.2,2.4c-1.1,0-2.5-0.2-4-0.2c-2-0.2-3.9,0.7-5.2,2.2
		c1.4,0.1,2.5,1.2,2.6,2.6c0,4.8-13.4,0.8-13.4,13.3c0,6.6,6.8,13.8,17.2,13.8c5.4,0,8.8-1.8,8.8-3.8c0-1.6-2.9-0.5-2.9-1.8
		c0-0.6,1-1.7,1-2.6c0-0.6-0.4-1.1-1-1.2c-1.4,0-4.3,2.4-10.1,2.4c-4.6,0-9-2.6-9-6.1c-0.1-0.5,0.2-1,0.7-1.1c0,0,0.1,0,0.1,0
		c0.5,0,1.2,0.4,1.8,0.4s0.6-0.4,0.6-1.3s0-3.5,1.6-3.5s4.6,5.9,16.2,5.9c3.8,0,11.3-0.7,14-3.2c-0.2,12-10.2,21.6-22.2,21.4
		c0,0-0.1,0-0.1,0c-15.6,0-24-12.6-24-24.1c0.2-13.6,11.3-24.5,24.8-24.4c3.6,0,6.7,1.3,6.7,2.9C7.7,309.3,2.3,307.9,1.9,310.5
		 M27.5,314.9c0.5,0.8,0.8,1.7,0.8,2.6c0,2.3-1.6,4.4-1.6,7c0,2.7,2.2,4.9,5,4.9c0.1,0,0.2,0,0.3,0c3.2,0,5.8-2.7,5.8-5.9
		c0,0,0-0.1,0-0.1C37.8,319.1,33.8,315.4,27.5,314.9 M-0.1,320.3c0.7,0.6,1.1,1.6,1.1,2.5c0,1.2-0.6,2.6-0.6,4.1
		c0,2,1.6,3.7,3.6,3.7c0,0,0.1,0,0.1,0c2.1,0.1,3.9-1.6,4-3.7c0-0.1,0-0.2,0-0.2C7.9,323.4,4.7,320.3-0.1,320.3 M10.9,306
		c8.8,1.7,13.6,8.3,13.6,14.4c0,4.3-2.6,8.2-7.3,8.2c-4.2,0-7.3-2.9-7.3-7.6c0-3.5,2.8-7.2,2.8-10.8C12.6,308.7,12,307.2,10.9,306
		 M15.4,317.2c-0.1,1.1,0.8,2.1,1.9,2.2c0,0,0.1,0,0.1,0c1.2,0,2.2-1.1,2.2-2.3c0-0.1,0-0.1,0-0.2c0-1.7-1.6-4.2-3.1-4.2
		c-0.7,0-0.5,1-0.6,2C15.7,315.5,15.4,316.6,15.4,317.2"/>
	<path class="st0" d="M-76.9,231.1c2.9,0,6.1-15.4,6.1-18c0-0.7-0.2-1.2-0.8-1.2c-2.6,0-6.1,14.6-6.1,17.9
		C-77.9,230.5-77.8,231.1-76.9,231.1 M-56.5,235.8c2,0,4.4-8,4.4-13.1c0-1.1-0.1-2.3-0.7-2.3c-1.7,0-4.7,8.3-4.7,12.8
		C-57.5,235-57,235.8-56.5,235.8 M-70.1,228.4c0.8,0,2-1.1,4.2-3.5c0.1-1.1,0.1-2.2,0.1-3.4c0-1.7-0.6-3.5-1.7-3.5
		c-2.5,0-3.8,6.7-3.8,8.4C-71.2,227.5-70.7,228.4-70.1,228.4 M-58.7,224.9c0-1.4-0.4-1.8-0.6-1.8c-0.8,0-1.8,1-3.1,3.2
		c0.1,3,0.7,4.3,1.4,4.3C-60,230.8-58.7,227.8-58.7,224.9 M-52.2,215.1c5.5,0,8,4.8,8,10.1c0,2.3-0.7,5.8-1.8,5.8s-1-1.9-1.1-3.7
		c-0.1-2.3-0.6-2.8-1.3-2.8c-1.4,0-2.4,3.4-2.4,6.5c0,1.9,0.4,4.1,1.9,4.1c0.8,0,1.5-0.3,2-1c-0.4,3.8-3.2,7.2-7.2,7.2
		c-7.3,0-10.1-8.6-10.9-13.7c-4.4,4.7-8.5,8.2-15.8,8.2c-5.2,0.3-9.7-3.7-10-8.9c0-0.3,0-0.6,0-0.9c0-1.4,0.5-5,2.3-5
		c2,0,0.2,6.8,4.3,6.8c1,0,2.9-0.8,3.8-3.6c0.6-1.6,0.9-3.2,1-4.9c0-2.3-0.5-3.7-2.2-3.7c-1.4,0.1-2.8,0.7-3.8,1.7
		c1.6-5.4,6.6-9.2,12.2-9.1c6.6,0,10.1,5.9,10.1,12.4c0,1-0.1,1.9-0.2,2.9C-60.5,218.7-56.5,215.1-52.2,215.1"/>
	<path class="st0" d="M-67.9,237.5c-3.6,0-3.7,4.3-3.7,13.1c-2.6-5.8-7.1-12-12.4-12c-3.5,0-4.8,2.4-4.8,6.5c0,1,0.1,1.9,0.2,2.9
		c0.4-1.4,1.7-2,3.4-2c3.6,0,7.9,2.8,10.8,6.5c-3-0.7-6.1-1.1-9.1-1.2c-1.5-0.1-3,0.2-4.4,0.7c-2.4,1.1-5.6,4.7-5.6,10.1
		c0,0.9,0.1,1.8,0.2,2.8c2.9-6.5,10.7-9.5,15.7-9.5c1,0,1.8,0.1,2.3,0.1c-2.5,2.3-3.1,6.5-3.4,9.2c-0.1,1.3-0.6,1.4-1.4,1.4
		c0,2.8,2.2,6.8,2.2,8.9c0,0.6-0.3,1.2-0.8,1.6c0,3.7,3.7,6.4,3.7,8.6c0,0.5-0.2,1-0.5,1.3c0.2,1.4,4.3,4.1,4.8,5.3
		c0.6,1.6,1.4,1.8,1.8,1.8c1.4,0,3.7-1.7,3.7-3.2c-0.1-0.5-0.3-1-0.7-1.3c-1.7-1.2-2.4-3.7-3.1-5.3c-0.8,0-1.5-0.5-1.7-1.3
		c-0.5-1.7-0.5-4.9-1.1-6.8c-1.1-0.2-1.6-0.6-1.6-2.9c0-1.1,0.6-5.4,0.6-6.8c-0.7,0-1.2-0.5-1.2-1.2c0,0,0-0.1,0-0.1
		c0-2.8,2.6-4.8,3.5-8.2c4.8,3.5,5.9,7.1,5.9,10.3c0,1.6-0.2,3.2-0.6,4.7c3.5-1.7,8.8-4.3,8.8-9.6c0-3.1-1.4-6.6-10.9-7.9
		c3.1-1.1,6.4-1.7,9.7-1.7c5.4,0,8.4,1.7,9.1,5.4c1.1-1.6,1.8-3.5,1.9-5.4c0-4.1-3.5-6.7-7.8-6.7c-5.2,0-9.6,2.6-14.5,5.9
		c2.2-4.4,3.7-7.2,6.4-7.2c0.5,0,0.8,0.1,1.3,0.1C-62.2,241.1-65.9,237.5-67.9,237.5"/>
	<path class="st0" d="M73,297.9c4.2,0,7.6,5.4,7.6,11.8c-0.2,7.3-3.4,14.2-8.9,19.1c-0.1-11.3-13.9-7.7-13.9-15.8
		c-0.2-3.1,2.2-5.7,5.3-5.9c0.1,0,0.1,0,0.2,0c2.3-0.2,4.6,0.7,6.2,2.3c-1.5-1.4-2.3-3.4-2.3-5.4C67.3,300.7,69.4,297.9,73,297.9"/>
	<path class="st0" d="M-1.7,218.4c2.2,2,4.1,3,6.5,3c1,0,2-0.2,2.6-0.2c0.6-0.1,1.1,0.3,1.3,0.8c-0.2,1.3-0.8,2.4-1.8,3.2
		c1,0.5,2.1,0.7,3.2,0.6c4.8,0,10.2-3,10.2-10.6c0.9,1.6,1.5,3.4,1.6,5.3c0,9.1-6.7,12.6-12.8,12.6c-2.3,0-4.5-0.5-6.6-1.3
		c-1.6,0-1.4,3.2-2.5,3.1c-1.9-0.4-3.7-4.6-3.7-9.1C-3.8,223.2-3.1,220.6-1.7,218.4 M10.9,212.3c-0.6-1.1-3.1-1.7-4.3-1.7
		c-3.1,0-5.8,2-6.7,4.9c-0.4-0.9-0.6-1.9-0.6-2.9c-0.1-4.5,3.5-8.2,8-8.3c0.2,0,0.4,0,0.7,0c5.3,0,7.4,2.9,8.2,2.9
		c0.7,0,1.7-0.8,2.4-0.8c1,0,1,1.4,1,2.4c0,3.4-1.6,9.1-5.3,11.2c-0.9-1.8-2.4-3.2-4.2-4.1c-0.5-0.2-0.9-0.7-0.8-1.2
		C9.3,213.7,10,212.8,10.9,212.3"/>
	<path class="st0" d="M-59.8,194.1c0,2.9,10.4,17.3,12.5,17.3c1.7,0,2.9-2.9,2.9-5.4c0-0.6-0.2-1.2-0.5-1.8
		c-1.6-2-12.1-10.4-14.5-10.4C-59.5,193.6-59.8,193.8-59.8,194.1 M-121.2,185.4c0,1.7-6.4,7.3-8.6,7.3c-0.8,0-1.1-1-1.1-1.9
		c0-1.7,0.6-3.4,1.7-4.8c1.6-1.1,3.6-1.6,5.5-1.6C-122.5,184.5-121.2,184.8-121.2,185.4 M-44.9,190.2c0-5-13.6-14.2-13.7-18
		c0-0.4,0.2-0.8,0.5-1.1c2.3-2.4,12-4.2,12-6.4c0-1.1-2-1.1-3-1.1c-7.7,0-19.1,2.9-19.1,5.6c0,2.8,10.2,9.7,10.2,13.2
		c0.1,0.7-0.4,1.3-1,1.3c-0.1,0-0.3,0-0.4,0c-2.9,0-9-3.5-12-3.5c-1.3,0-1.8,0.8-1.8,2.3c0,4,4.8,11.6,4.8,13.9
		c0,0.3-0.1,0.5-0.4,0.6c-1.6,0-8.6-8.4-11.2-8.4c-1,0-1.1,1.2-1.1,3.1v2.8c0,1.9-0.1,3.1-1,3.1c-2.2,0-3.2-6.1-5.3-6.1
		s-2.6,10.8-4.7,10.8c-2.4,0-0.4-12-2.6-12c-2.5,0-5.5,7.9-7.3,7.9c-0.5-0.1-0.9-0.6-0.9-1.1c0,0,0-0.1,0-0.1c0-2.4,1.4-6.4,1.4-8.6
		c0-1.2-0.4-1.8-1.3-1.8c-2.6,0-8.3,4.2-10.4,4.2c-0.4,0.1-0.7-0.1-0.8-0.5c0-2,9.1-8.4,9.1-11.3s-12.6-1-12.6-4.1
		c0-2.6,9-5.5,9-8.2c0-2.4-10.7-3.5-14.8-3.5c-5,0-7.8,0.6-7.8,2c0,2.2,11.2,2.9,11.2,4.7c0,1.8-11.6,6.8-11.6,9.6
		c0,2.5,16.4,0.1,16.4,2.8c0,2.9-14.3,15.1-14.3,19.2c0,0.7,0.5,1.3,1.2,1.3c0.1,0,0.2,0,0.3,0c4.3,0,15.6-8.3,18.7-8.3
		c1.1,0,1.2,1.3,1.2,2.5c0,2.2-0.7,5.5-0.7,7.9c0,1.9,0.5,3.2,2.2,3.2c3.1,0,6-5.3,8-5.3c2.6,0,1.1,15.5,5.2,15.5
		c3.5,0,4.8-16.8,7.1-16.8s4,4.9,5.9,4.9c2.5,0,1.3-8.4,4.1-8.4c2.8,0,11.3,10,15,10c1.2,0,1.6-1,1.6-2c0-4.4-6.2-14.5-6.2-17.6
		c0-0.8,0.2-1.1,1.2-1.1c3.2,0,12.8,4.6,17.3,4.6c1.1,0.2,2.1-0.5,2.4-1.5C-44.9,190.5-44.9,190.3-44.9,190.2 M-53.6,173.8
		c0,1.4,5.3,4.8,7.7,4.8c1.4,0,1.8-1.9,1.8-4c0-2.5-1.1-2.6-3.2-2.6C-50,172-53.6,172.7-53.6,173.8 M-73.2,165.1c0-0.5-2.5-1-6-1
		c-5.4,0-4.7,4.6-8.9,4.6s-3.4-4.7-8.8-4.7c-3.4,0-6.4,0.6-6.4,1.3c0,1,4,0.6,4,3.4c0,2.8-8.4,3.7-8.4,5.5c0,0.6,0.6,0.8,1.4,0.8
		c1.9,0,4.8-0.8,6.8-0.8c1.2,0,2.3,0.2,2.3,1.3c0,2-4.6,5.9-4.6,7.6c0,0.5,0.4,0.6,0.8,0.6c1.7,0,4.6-4.2,7.2-4.2
		c4.4,0,1.6,9.5,4,9.5c2.4,0,1.4-9.2,5-9.2c3,0,5,6.5,7.1,6.5c0.6-0.1,1-0.5,1-1.1c0-1.7-2.5-5.3-2.5-7.7c0-1.4,1-2,2.4-2
		c1.9,0,4.6,1.2,5.9,1.2c0.4,0.1,0.8-0.1,0.9-0.6c0-0.1,0-0.1,0-0.2c0-2-7.4-4.2-7.4-6.7C-77.3,166.3-73.2,166.3-73.2,165.1"/>
	<path class="st0" d="M75,178.7c0,7.4-5.4,13.1-15.2,14.8c1,0.1,2.1,0.1,3.1,0.1c11.4,0,15.7-5.2,15.7-9.5
		C78.7,181.7,77.2,179.5,75,178.7 M60.8,187.2c0-5.9-14.3-7.4-14.3-8.8c0-1.1,7.9-2.9,12-3c-6.2-8-15.2-7.2-15.2-8.6
		c0-0.8,6.7-2.5,13-2.5c5.2,0,10.1,1.2,10.1,5.2c0,2.2-1.8,4.4-1.8,7.8c-0.2,1.7,1.1,3.2,2.8,3.4c0.2,0,0.4,0,0.6,0
		c2.6,0,3.1-2.8,3.1-5.6c0-2.4-0.4-4.3-0.4-5.5c-0.1-3,2.2-5.6,5.2-5.8c0.2,0,0.4,0,0.6,0c2.9,0,3.5,1.2,7.7,1.2
		c-1.8,1-3,2.9-3.1,4.9c0,3.5,2.3,6,2.3,13.1c0,13.2-12.4,17.9-27.5,17.9c-4.3,0-8.7-0.4-13-1.1c-0.7-0.1-0.8-0.2-0.8-0.7
		c0-1.1,5.9-1.7,5.9-7c-0.1-1.7-0.4-3.3-0.7-4.9c0-0.4,0.4-0.6,0.7-0.6c1.3,0,3.7,4.8,8.5,4.8c2,0.3,3.9-1,4.3-3
		C60.9,187.9,60.9,187.6,60.8,187.2 M74.5,168.7c0,1.1,0.9,2,2,2c0,0,0,0,0,0c1.1,0,2-0.9,2-2c0-1.1-0.9-2-2-2
		C75.4,166.7,74.5,167.6,74.5,168.7C74.5,168.7,74.5,168.7,74.5,168.7"/>
	<path class="st0" d="M67.1,246c0-1.8-4.4-1.9-4.8-6.8c-0.1-0.8-0.4-2.2-1.3-2.2c-1.4,0-0.4,4.6-2,4.6c-3.8,0-5-7.6-6.5-7.6
		c-0.4,0-0.7,0.2-0.7,1.3s0.1,1.6,0.1,2.5c0,1-0.2,1.9-1.2,1.9c-2.3,0-4.2-5.3-6.1-5.3c-0.4-0.1-0.8,0.2-0.8,0.6c0,0,0,0,0,0
		c0,1,1.7,2.9,1.7,3.7c0,2-5.4,1-5.4,2.5c0,0.7,0.7,1.1,1.8,1.1c1.8,0,4.6-0.7,5.9-0.7c0.8,0,2.2,0.1,2.2,1.3s-3,2.6-3,3.7
		c0.1,0.5,0.5,0.8,0.9,0.7c0,0,0,0,0,0c2.3,0,6.2-4,9.1-4c0.5,0,1.8,0.2,1.8,1c0,1.1-2.9,3-2.9,4.6c-0.1,0.5,0.2,0.9,0.7,1
		c0,0,0,0,0,0c1.6,0,3.5-4,6.4-4c1.1,0,2.6,0.4,3.5,0.4c0.2,0.2,0.5,0.1,0.6-0.1C67,246.2,67.1,246.1,67.1,246 M69.2,286.6
		c1.5-4.1,3.4-8,5.8-11.6c-2.8-1.4-10-4.4-10-9.4c0-5.8,7.2-10.3,8.6-10.3c0.7,0,0.8,0.6,0.8,1.7c0,3-1.4,7.8-1.4,10.4
		c0,2.3,1.4,4.6,2.9,4.6s5.4-5,5.4-10c0.2-5.9-4.3-11-10.2-11.5c-2.3,0-6.4,3.6-16,3.6c-18,0-22.1-17.8-22.1-25.6
		c0-0.4,0.1-0.4,0.1-0.4c0.4,0,2.2,2.2,7.9,2.2c2.9,0,5.6-0.7,9.8-0.7c10,0,14.4,7,20.6,15.8c3.7,2.3,12.7,6.1,12.7,16.7
		c0,9.4-10,14.5-12.4,24.6c3.8-0.5,6.1-7.2,10-7.2c1.9,0,3,1.6,3,4.1c-0.3,4.8-2.5,9.4-6.1,12.6c0.1-0.4,0.2-0.9,0.1-1.3
		c0-2.3-0.8-5.6-3.6-5.6c-4.2,0-5.5,4.4-7.8,8.3c-2.4-8.5-5.6-16.2-11.5-20.9c-5.9-4.7-16.2-2.2-16.2-10.9c0-2.4,1.6-5.8,1.6-8.4
		c0.1-0.9-0.2-1.7-0.7-2.4c8,3,5.2,8.4,10.2,13.9c3,3.5,11.6,6.8,16.6,21.2c0.2-0.7,0.2-1.5,0.2-2.3c0-12.4-16.4-24.5-17.8-29.5
		c9.5,1.1,11.2,3.5,15.7,16C66.2,276.9,69.2,283.3,69.2,286.6"/>
	<path class="st0" d="M23.5,198c-5.9,0-9.7-3-9.7-4.4c0-0.6,0.4-1.2,1.1-1.2c0,0,0.1,0,0.1,0c1.8,0,5.9,2.9,7.2,2.9
		c0.4,0,0.6-0.1,0.6-0.7c0-1.4-1.4-4.1-1.4-5.3c0-0.4,0.2-0.6,0.8-0.6c2.3,0,5.6,1,7.3,1c0.3,0,0.7-0.2,0.7-0.5c0-0.1,0-0.1,0-0.2
		c0-1.8-5.4-5.4-5.4-6.5c0-1.1,6.8-2.5,6.8-4.1s-9.2-0.5-9.2-2c0-1.2,1.8-3.2,1.8-4.1c0-0.4-0.4-0.6-1-0.6c-0.6,0-4.8,1.6-6.5,1.6
		c-0.8,0-1.8-0.1-1.8-1.3c0-1.9,3.2-4.1,8.4-4.1c8.3,0,13.2,5.6,13.2,15.2C36.5,195,28,198,23.5,198 M7.2,182.2c0-1-3.2-2.6-3.2-3.6
		c0-0.2,0.1-0.2,0.5-0.2c1,0,2.5,0.4,3.7,0.4s1.2-4.7,2-4.7c0.6,0,1.7,4.4,2.5,4.4c1.1,0,3.1-1.2,4-1.2c0.2,0,0.3,0.1,0.4,0.2
		c0,0.6-2,2.9-2,3.5c0,0.6,4.7,1.7,4.7,2.3c0,0.8-4.8,0.8-4.8,1.6c0,0.7,1.8,2.9,1.8,3.7c0,0.1,0,0.2-0.1,0.2c0,0-0.1,0-0.1,0
		c-0.6,0-3.2-1.2-4-1.2c-1,0-2.4,3.5-3.1,3.5c-0.3-0.1-0.4-0.4-0.4-0.7L8.8,187c0.1-0.3-0.1-0.5-0.4-0.6c-0.1,0-0.1,0-0.2,0
		c-1.1,0-2.9-0.1-3.5-0.1s-0.6-0.1-0.6-0.2C3.8,185.1,7.2,182.8,7.2,182.2 M4.8,195.9c1.3,0,1.7,3.2,1.8,5.2c0.2,1,0.4,1.1,0.7,1.1
		c1,0,2.6-3.8,3.7-3.8c1.6,0,5.9,4.4,13,4.4c10.1,0,19.7-7.1,19.7-19.7c0-12.1-8.5-19.2-20.3-19.2c-5.6,0-9.7,2.8-11.9,2.8
		c-1.3,0.1-3.4-3.2-4.3-3.2c-0.4,0-0.8,0.8-0.8,2.3c0,0.8,0,3.8-1,3.8c-2,0-9.8-5.8-9.8-3.7s5.2,7.8,5.2,9.2s-5,3-5,4
		c0,1.8,5.4,2.2,5.4,4.6c0,2.4-5.6,4.2-5.6,5.9c0,1.4,5.6,0.4,5.6,2.2c0,1.8-4.2,7.7-4.2,9.2c0,0.4,0.1,0.4,0.5,0.4
		C-1.2,201.3,3.6,195.9,4.8,195.9"/>
	<path class="st0" d="M-33.1,342.7c0,0.9-0.3,1.7-0.8,2.4c-1.1-1.5-2.8-2.4-4.7-2.5c-8.6,0-5.3,12.5-14.5,12.5
		c-3.8,0-4.2-0.6-5.6-0.6c-0.4-0.1-0.7,0.1-0.8,0.5c0,0.1,0,0.1,0,0.2c0,2.2,3.1,7.6,11.6,7.6s16.9-5.3,16.9-11.9
		c0-1.2-0.3-2.3-0.7-3.4c0.5-0.5,1.2-0.8,1.9-0.8c1.3,0,2,1.6,3.4,1.6c1.3,0,2.4-1.1,2.4-2.4c0-1-0.6-2-1.6-2.4
		c0.7-0.5,1.2-1.4,1.2-2.3c0.1-1.4-1-2.7-2.5-2.8c-0.1,0-0.1,0-0.2,0c-0.7,0-1.4,0.3-1.8,0.8c0.1-1.5-1.1-2.8-2.6-2.9
		c0,0-0.1,0-0.1,0c-1.2,0-2.1,0.9-2.2,2.1c0,0.1,0,0.1,0,0.2C-34,340.2-33.1,341.3-33.1,342.7"/>
	<path class="st0" d="M-79,327.1c6.7,1.7,10,5.3,10.7,9.5s1.6,7.4,3.1,9.1c2.6,2.7,6.1,4.3,9.8,4.4c3,0,5.4-1,5.4-3.7
		c0-3-4.1-9.7-10.1-9.7c-0.6,0-1.3,0.1-2.2,0.1c-0.9,0-1.8-0.2-2.5-0.7c-1.3-1.2-1.8-7.4-4.3-11.2c-2.8-4.2-5.8-5.4-9.8-5.4
		c-2.9,0-6.1,1.6-6.1,4C-85,324.9-84.2,325.8-79,327.1 M-55.6,345.9c-2.5,0-6.2-2.6-6.2-4.2c0-1.1,0.9-2,2-1.9c0,0,0,0,0,0
		c2,0,5.9,2.6,5.9,4.7c0,0.8-0.7,1.5-1.5,1.5C-55.4,345.9-55.5,345.9-55.6,345.9"/>
	<path class="st0" d="M-63.2,280.7c0-5.3,12.7-8.2,12.7-14.8c-0.1-1.5-0.5-3.1-1.2-4.4c4.4,2.4,7.7,6.5,7.7,9.8c0,5.8-6,8.4-6,12
		c0,4.2,6.5,4.8,6.5,10.1c0,4.3-6.1,9.2-6.1,14.8c0,4.4,3.3,8,7.7,8.4c-1.4,0.4-2.9,0.6-4.3,0.6c-8.4,0-17.2-7-17.2-15.2
		c0-3.9,1.6-7.6,4.4-10.3c2.3,2,4.7,3.4,6.1,3.4c0.9,0.2,1.7-0.4,1.9-1.2c0-0.1,0-0.3,0-0.4C-51,290.2-63.2,287.4-63.2,280.7
		 M-36.6,322.9c-2.9,1.3-4.1,1.1-4.1,4c0,1.1-0.2,2.5-0.2,3.2c0,1,0.2,1.6,1.3,1.6c3,0,7.8-5,7.8-9.5c0.1-0.8-0.4-1.5-1.2-1.7
		c-0.1,0-0.1,0-0.2,0C-33.8,320.8-34.6,322.1-36.6,322.9 M-37,316.9c0-3.7-7.7-3.8-7.7-9.5c0.3-2.4,1.2-4.6,2.8-6.5
		c0.7,4.3,2.5,6.6,6.2,8c7.4,2.8,8.4,6.8,8.4,11.3c0,7.6-5.3,16.9-18.8,16.9c-10.8,0-18.6-9.7-18.6-17.9c0-2.3,0.6-4.8,1.9-4.8
		c1.3,0,1.7,1,2.6,2c3.7,3.8,7.9,4.8,13.8,4.8C-40.9,321.4-37,319.2-37,316.9"/>
	<path class="st0" d="M-96.1,318.7c0.2,1.7-0.9,3.2-2.6,3.5c-0.1,0-0.1,0-0.2,0c-1.7,0.2-3.3-1-3.5-2.7c0,0,0,0,0,0
		c-0.2-1.7,0.9-3.2,2.6-3.5c0.1,0,0.1,0,0.2,0C-97.9,315.8-96.3,317-96.1,318.7C-96.1,318.7-96.1,318.7-96.1,318.7 M-111.7,322.1
		c0.4,2.9,3.1,5,6,4.7c1-0.1,1.9-0.3,2.8-0.8c0.6,2.7,3.3,4.5,6,4c3-0.2,5.2-2.8,4.9-5.8c0,0,0,0,0-0.1c-0.1-0.7-0.2-1.3-0.5-1.9
		c0.2,0,0.5,0,0.7-0.1c2.9-0.4,5-3,4.8-5.9c-0.3-3-2.9-5.2-5.9-4.9c-1,0.1-2,0.5-2.8,1.2c-0.7-2.8-3.5-4.6-6.4-4.2
		c-2.9,0.5-4.9,3.2-4.6,6.1c0.1,0.6,0.3,1.1,0.5,1.7c-0.3,0-0.6,0-0.8,0.1c-2.9,0.3-5.1,2.9-4.8,5.9
		C-111.7,322-111.7,322.1-111.7,322.1"/>
</g>
</svg>
