<?xml version="1.0" encoding="utf-8"?>
<!-- Generator: Adobe Illustrator 19.2.1, SVG Export Plug-In . SVG Version: 6.00 Build 0)  -->
<svg version="1.1" id="layer" xmlns="http://www.w3.org/2000/svg" xmlns:xlink="http://www.w3.org/1999/xlink" x="0px" y="0px"
	 viewBox="0 0 652 652" style="enable-background:new 0 0 652 652;" xml:space="preserve">
<style type="text/css">
	.st0{fill:#4EBED2;}
	.st1{fill:#605F5E;}
</style>
<path d="M60.6,320.9v5.3c0,0.5-0.4,0.9-0.9,0.9H44.2v47.1c0,0.5-0.4,0.9-0.9,0.9h-5.9v-48.1H21.2v-5.3c0-0.5,0.4-0.9,0.9-0.9H60.6z
	 M70,374.2c0,0.5,0.4,0.9,0.9,0.9h5.9v-53.3c0-0.5-0.4-0.9-0.9-0.9H70V374.2 M89.5,369c-0.5,0-0.9,0.4-0.9,0.9v5.3h27.7
	c6.7,0,11.8-5,11.8-11.8v-7.7c0-2.3-1.6-4.8-3.8-5.6l-27.7-9.2c-0.7-0.2-1.3-1-1.3-1.8v-7c0-3,2.5-5,5.6-5h24.8
	c0.6,0,0.9-0.4,0.9-0.9v-5.3h-25.7c-6.8,0-12.3,4.1-12.3,10.9v8.6c0,2.3,1.8,4.8,4,5.5l27.7,9.2c0.7,0.2,1.3,1,1.3,1.7v6.6
	c0,3-2.3,5.5-5.3,5.5H89.5z M157.2,374.2c0,0.5,0.4,0.9,0.9,0.9h5.9v-53.3c0-0.5-0.4-0.9-0.9-0.9h-5.9V374.2 M206.8,352.4L192,324.6
	c-1.1-2-3.8-3.7-6.1-3.7h-8.2c-0.5,0-0.9,0.4-0.9,0.9v53.3h5.8c0.5,0,0.9-0.4,0.9-0.9v-47.1h1.2c0.7,0,1.6,0.5,2,1.2l24.7,46
	c0.2,0.4,0.9,0.9,1.4,0.9h6.3v-54.3h-5.9c-0.5,0-0.9,0.4-0.9,0.9V350c0.4,5.1,0.4,9.7,1.1,15.3L206.8,352.4z M227.4,320.9
	c-0.5,0-0.9,0.4-0.9,0.9v5.3h16.2v48.1h5.9c0.6,0,0.9-0.4,0.9-0.9v-47.1h15.5c0.5,0,0.9-0.4,0.9-0.9v-5.3H227.4z M279,332.6
	c0-3,2.5-5.5,5.5-5.5h23.4c0.5,0,0.9-0.4,0.9-0.9v-5.3h-24.3c-6.8,0-12.3,5.5-12.3,12.3v29.7c0,6.8,5.5,12.3,12.3,12.3h24.3v-5.3
	c0-0.5-0.4-0.9-0.9-0.9h-23.4c-3,0-5.5-2.5-5.5-5.5v-12.4h26.4c0.5,0,0.9-0.4,0.9-0.9v-5.3h-23.8c-1.5,0-2.8,0.6-3.5,1.4V332.6
	 M317.3,362.9c0,6.7,5.5,12.3,12.3,12.3h23.8v-5.3c0-0.5-0.4-0.9-0.9-0.9h-22.9c-3,0-5.5-2.5-5.5-5.5v-30.9c0-3,2.5-5.5,5.5-5.5
	h22.9c0.5,0,0.9-0.4,0.9-0.9v-5.3h-23.8c-6.8,0-12.3,5.5-12.3,12.3V362.9z M382.8,363.2c0,6.8,5.5,12.3,12.3,12.3h15
	c6.8,0,12.3-3.9,12.3-11.6v-18.5c0-0.5-0.4-0.9-0.9-0.9h-19.3v5.3c0,0.5,0.4,0.9,0.9,0.9h13.1v13.1c0,3-3.1,5.5-6.1,5.5h-15
	c-3,0-5.5-2.5-5.5-5.5v-31.4c0-3,2.5-5.5,5.5-5.5h23.8c0.6,0,1-0.4,1-0.9v-5.3h-24.8c-6.8,0-12.3,5.5-12.3,12.3V363.2 M438.8,349.2
	c0.5,1.4,2,1.9,4,1.9h2.1h9.2l11,23.2c0.2,0.4,0.8,0.9,1.3,0.9h6.3l-11.6-24.4c5.3-1.4,9.8-4.8,9.8-11.2v-7
	c0-7.4-5.5-11.6-12.3-11.6H436c-2.3,0-4.2,1.9-4.2,4.2v50.1h5.9c0.5,0,0.9-0.4,0.9-0.9v-25.1H438.8z M440,344.9
	c-0.7,0-1.4-0.6-1.4-1.4v-15c0-0.7,0.6-1.4,1.4-1.4h18.7c3,0,5.5,2.5,5.5,5.5v6.8c0,3-2.5,5.5-5.5,5.5H440z M509.5,375.5
	c6.7,0,12.3-5.5,12.3-12.3v-30.3c0-6.8-5.6-12.3-12.3-12.3h-16.3c-6.8,0-12.3,5.5-12.3,12.3v30.3c0,6.8,5.5,12.3,12.3,12.3H509.5z
	 M487.7,332.3c0-3,2.5-5.5,5.5-5.5h16.3c3,0,5.5,2.5,5.5,5.5v31.4c0,3-2.5,5.5-5.5,5.5h-16.3c-3,0-5.5-2.5-5.5-5.5V332.3
	 M531.7,363.2c0,6.8,5.5,12.3,12.3,12.3h16.3c6.7,0,12.3-5.5,12.3-12.3v-42.3h-5.8c-0.5,0-0.9,0.4-0.9,0.9v41.9c0,3-2.5,5.5-5.5,5.5
	H544c-3,0-5.5-2.5-5.5-5.5v-41.9c0-0.5-0.4-0.9-0.9-0.9h-5.9V363.2 M621.2,333.2c0-6.7-5.5-12.3-12.3-12.3h-22.6
	c-2.3,0-4.2,1.9-4.2,4.2v50.1h5.9c0.5,0,0.9-0.4,0.9-0.9v-24.5c0.1,1.6,2,2.9,4.2,2.9h15.8c6.8,0,12.3-5.6,12.3-12.3V333.2
	 M614.4,340.9c0,3-2.5,5.5-5.5,5.5h-18.6h-0.1c-0.7,0-1.4-0.7-1.4-1.4v-16.5c0-0.7,0.6-1.4,1.4-1.4h18.6c3,0,5.5,2.5,5.5,5.5V340.9z
	"/>
<polygon class="st0" points="266.3,238.4 309.5,281.5 309.5,195.3 "/>
<path class="st1" d="M350.6,234.4v29.4l-29.4,29.4l-7.9-7.9v-50.9H350.6z M368.3,230.6l-47.1-47.1l-7.9,7.9v39.1H368.3z M354.4,260
	l21.6-21.6l-4-4h-17.7V260z"/>
<path class="st1" d="M231.3,444.3v-15.3c0-3.4,2.8-6.2,6.2-6.2H250v2.7c0,0.3-0.2,0.5-0.5,0.5h-12c-1.5,0-2.8,1.2-2.8,2.8v15.9
	c0,1.5,1.2,2.8,2.8,2.8h7.6c1.5,0,3.1-1.2,3.1-2.8v-6.6h-6.7c-0.3,0-0.5-0.2-0.5-0.5v-2.7h9.8c0.3,0,0.5,0.2,0.5,0.5v9.4
	c0,3.9-2.8,5.9-6.2,5.9h-7.6C234,450.5,231.3,447.7,231.3,444.3 M266.1,450.6c3,0,5.4-2.4,5.4-5.3v-8.1c0-2.9-2.4-5.3-5.4-5.3h-4.8
	c-3,0-5.3,2.4-5.3,5.3v8.1c0,3,2.4,5.3,5.3,5.3H266.1z M259.1,437c0-1.2,1-2.2,2.2-2.2h4.8c1.2,0,2.2,1,2.2,2.2v8.4
	c0,1.2-1,2.2-2.2,2.2h-4.8c-1.2,0-2.2-1-2.2-2.2V437 M290.6,448.2c0,1.2,1,2.1,2.1,2.1h11.6c3.4,0,6.2-2.8,6.2-6.3v-3.2
	c0-1.8-1.4-4-3.4-4.5c2-0.4,3.4-2.7,3.4-4.5v-2.8c0-3.4-2.8-6.2-6.2-6.2h-11.1h-0.6c-1.1,0-2,0.9-2,2.1V448.2 M294,426.7
	c0-0.4,0.3-0.7,0.7-0.7h9.6c1.5,0,2.8,1.2,2.8,2.8v3.2c0,1.5-1.2,2.8-2.8,2.8H294V426.7z M307.1,444.4c0,1.5-1.2,2.8-2.8,2.8h-9.6
	c-0.4,0-0.7-0.3-0.7-0.7v-8.6h10.3c1.5,0,2.8,1.2,2.8,2.8V444.4z M315.1,445c0,3,2.4,5.3,5.3,5.3h9.5v-2.6c0-0.2-0.2-0.4-0.4-0.4
	h-9.1c-1.2,0-2.2-1-2.2-2.2v-3.3c0.3,0.4,0.8,0.7,1.4,0.7h10c0.9,0,1-0.5,1-1.1v-4.2c0-3.4-2.4-5.2-5.3-5.2h-4.9
	c-3,0-5.3,1.8-5.3,5.2V445 M325.4,435c1.4,0,2.1,0.7,2.1,2.2v2c0,0.2-0.2,0.4-0.4,0.4h-8.5c-0.2,0-0.4-0.2-0.4-0.4v-2
	c0-1.5,1-2.2,2.2-2.2H325.4z M347.5,432v13.4c-0.1,1-0.8,1.7-1.8,1.9h-4.9c-1.2,0-2.2-1-2.2-2.2v-12.7c0-0.2-0.2-0.4-0.4-0.4h-2.8
	v13c0,2.9,2.4,5.3,5.3,5.3h4.1c1.2,0,2-0.6,2.5-1.2v4.9c0,1.2-1,2.2-2.2,2.2h-8.6c-0.2,0-0.4,0.2-0.4,0.4v2.6h9
	c2.9,0,5.3-2.4,5.3-5.3v-21.5c0-0.2-0.2-0.4-0.4-0.4H347.5z M365.6,450.6c3,0,5.4-2.4,5.4-5.3v-8.1c0-2.9-2.4-5.3-5.4-5.3h-4.8
	c-3,0-5.3,2.4-5.3,5.3v8.1c0,3,2.4,5.3,5.3,5.3H365.6z M358.6,437c0-1.2,1-2.2,2.2-2.2h4.8c1.2,0,2.2,1,2.2,2.2v8.4
	c0,1.2-1,2.2-2.2,2.2h-4.8c-1.2,0-2.2-1-2.2-2.2V437 M391.3,437.4c0-3-2.4-5.3-5.3-5.3h-7.8c-1.3,0-2.4,1.1-2.4,2.4v15.9h2.8
	c0.2,0,0.4-0.2,0.4-0.4v-14.5c0-0.2,0.2-0.4,0.4-0.4h6.6c1.2,0,2.2,1,2.2,2.2v12.7c0,0.2,0.2,0.4,0.4,0.4h2.8V437.4 M401.1,432
	c-3,0-5.3,2.4-5.3,5.3v7.6c0,3,2.4,5.3,5.3,5.3h8.7c0.7,0,1.2-0.5,1.2-1.2v-26.3h-2.8c-0.2,0-0.4,0.2-0.4,0.4v9.9
	c-0.4-0.6-1.4-1.2-2.5-1.2H401.1 M399.1,437.2c0-1.2,0.9-2.2,2.2-2.2h4.9c0.9,0.1,1.7,0.9,1.8,1.9v10c0,0.2-0.2,0.4-0.4,0.4h-6.3
	c-1.2,0-2.2-1-2.2-2.2V437.2z"/>
<rect x="266.3" y="402.9" class="st1" width="109.7" height="1.5"/>
</svg>
