<svg width="48" height="48" viewBox="0 0 48 48" fill="none" xmlns="http://www.w3.org/2000/svg">
<g clip-path="url(#clip0)">
<path d="M9.1875 42.375V44.2467C9.1875 46.3162 10.8713 48 12.9408 48H34.9655C37.0349 48 38.7188 46.3162 38.7188 44.2467V42.375H9.1875Z" fill="#B6B6F3"/>
<path d="M34.9655 0H12.9408C10.8713 0 9.1875 1.68384 9.1875 3.7533V39.5625H38.7188V3.7533C38.7188 1.68384 37.0349 0 34.9655 0ZM20.0054 26.2365C20.4789 26.8521 20.3635 27.735 19.7479 28.2085C19.4923 28.4048 19.1909 28.5 18.8917 28.5C18.4698 28.5 18.0527 28.311 17.7759 27.951L15.0861 24.4541C14.6257 23.8553 14.6257 23.0193 15.0857 22.4209L17.7759 18.924C18.2494 18.3083 19.1323 18.193 19.7479 18.6665C20.3635 19.14 20.4789 20.0229 20.0054 20.6385L17.8524 23.4375L20.0054 26.2365ZM26.1456 20.179L23.9894 27.4915C23.8088 28.1038 23.2485 28.5004 22.6414 28.5004C22.5095 28.5004 22.3759 28.4817 22.2429 28.4425C21.498 28.2231 21.0721 27.4409 21.2919 26.696L23.4481 19.3835C23.6678 18.6387 24.4497 18.2128 25.1946 18.4325C25.9395 18.6522 26.3654 19.4341 26.1456 20.179ZM21.0938 6.46875C20.317 6.46875 19.6875 5.83923 19.6875 5.0625C19.6875 4.28577 20.317 3.65625 21.0938 3.65625H26.8125C27.5892 3.65625 28.2188 4.28577 28.2188 5.0625C28.2188 5.83923 27.5892 6.46875 26.8125 6.46875H21.0938ZM32.4452 24.4541L29.7554 27.951C29.4781 28.311 29.061 28.5 28.6395 28.5C28.3403 28.5 28.0386 28.4048 27.7833 28.2085C27.1677 27.735 27.0524 26.8521 27.5259 26.2365L29.6788 23.4375L27.5259 20.6385C27.0524 20.0229 27.1677 19.14 27.7833 18.6665C28.3989 18.1934 29.2819 18.3083 29.7554 18.924L32.4452 22.4209C32.9055 23.0193 32.9055 23.8553 32.4452 24.4541Z" fill="#B6B6F3"/>
<path d="M19.7479 28.2085C20.3635 27.735 20.4789 26.8521 20.0054 26.2365L17.8524 23.4375L20.0054 20.6385C20.4789 20.0229 20.3635 19.14 19.7479 18.6665C19.1323 18.193 18.2494 18.3083 17.7759 18.924L15.0857 22.4209C14.6257 23.0193 14.6257 23.8553 15.0861 24.4541L17.7759 27.951C18.0527 28.311 18.4698 28.5 18.8917 28.5C19.1909 28.5 19.4923 28.4048 19.7479 28.2085Z" fill="#B6B6F3"/>
<path d="M23.9894 27.4915L26.1456 20.179C26.3654 19.4341 25.9395 18.6522 25.1946 18.4325C24.4497 18.2128 23.6678 18.6387 23.4481 19.3835L21.2919 26.696C21.0721 27.4409 21.498 28.2231 22.2429 28.4425C22.3759 28.4817 22.5095 28.5004 22.6414 28.5004C23.2485 28.5004 23.8088 28.1038 23.9894 27.4915Z" fill="#B6B6F3"/>
<path d="M29.7554 27.951L32.4452 24.4541C32.9055 23.8553 32.9055 23.0193 32.4452 22.4209L29.7554 18.924C29.2819 18.3083 28.3989 18.1934 27.7833 18.6665C27.1677 19.14 27.0524 20.0229 27.5259 20.6385L29.6788 23.4375L27.5259 26.2365C27.0524 26.8521 27.1677 27.735 27.7833 28.2085C28.0386 28.4048 28.3403 28.5 28.6395 28.5C29.061 28.5 29.4781 28.311 29.7554 27.951Z" fill="#B6B6F3"/>
<path d="M19.7484 28.2086C20.364 27.7351 20.4793 26.8521 20.0058 26.2365L17.8529 23.4376L20.0058 20.6386C20.4793 20.023 20.364 19.1401 19.7484 18.6666C19.1328 18.1931 18.2498 18.3084 17.7763 18.924L15.0861 22.421C14.6262 23.0194 14.6262 23.8554 15.0865 24.4542L17.7763 27.9511C18.0532 28.3111 18.4703 28.5001 18.8922 28.5001C19.1914 28.5001 19.4928 28.4049 19.7484 28.2086Z" fill="#353590"/>
<path d="M23.9898 27.4915L26.1461 20.179C26.3658 19.4342 25.9399 18.6523 25.195 18.4326C24.4501 18.2128 23.6683 18.6387 23.4486 19.3836L21.2923 26.6961C21.0726 27.441 21.4985 28.2232 22.2434 28.4426C22.3763 28.4818 22.51 28.5004 22.6418 28.5004C23.249 28.5004 23.8093 28.1038 23.9898 27.4915Z" fill="#353590"/>
<path d="M29.7558 27.9511L32.4456 24.4542C32.906 23.8554 32.906 23.0194 32.4456 22.421L29.7558 18.924C29.2823 18.3084 28.3994 18.1934 27.7838 18.6666C27.1682 19.1401 27.0528 20.023 27.5263 20.6386L29.6793 23.4376L27.5263 26.2365C27.0528 26.8521 27.1682 27.7351 27.7838 28.2086C28.039 28.4049 28.3408 28.5001 28.64 28.5001C29.0615 28.5001 29.4786 28.3111 29.7558 27.9511Z" fill="#353590"/>
</g>
<defs>
<clipPath id="clip0">
<rect width="48" height="48" fill="white"/>
</clipPath>
</defs>
</svg>
