<svg width="48" height="43" viewBox="0 0 48 43" fill="none" xmlns="http://www.w3.org/2000/svg">
<path d="M16.9688 37.2812V40.1875H12.75C11.9727 40.1875 11.3438 40.8165 11.3438 41.5938C11.3438 42.371 11.9727 43 12.75 43H35.25C36.0273 43 36.6562 42.371 36.6562 41.5938C36.6562 40.8165 36.0273 40.1875 35.25 40.1875H31.0312V37.2812H16.9688Z" fill="#B6B6F3"/>
<path d="M1.40625 34.4687H46.5938C47.371 34.4687 48 33.8398 48 33.0625V2.125C48 1.34772 47.371 0.71875 46.5938 0.71875H43.7812H1.40625C0.628969 0.71875 0 1.34772 0 2.125V33.0625C0 33.8398 0.628969 34.4687 1.40625 34.4687Z" fill="#B6B6F3"/>
<path d="M12.3555 13.2617C11.621 13.2617 11.0234 13.8592 11.0234 14.5938V15.9258H13.6875V14.5938C13.6875 13.8592 13.09 13.2617 12.3555 13.2617Z" fill="#353590"/>
<path d="M22.7109 6H3.28906C2.57716 6 2 6.57716 2 7.28906V28.4297H22.7109V6ZM16.2656 22.457C16.2656 23.1689 15.6885 23.7461 14.9766 23.7461C14.2647 23.7461 13.6875 23.1689 13.6875 22.457V18.5039H11.0234V22.457C11.0234 23.1689 10.4463 23.7461 9.73438 23.7461C9.02247 23.7461 8.44531 23.1689 8.44531 22.457V14.5938C8.44531 12.4377 10.1994 10.6836 12.3555 10.6836C14.5116 10.6836 16.2656 12.4377 16.2656 14.5938V22.457Z" fill="#353590"/>
<path d="M44.7109 6H25.2891V28.4297H46V7.28906C46 6.57716 45.4228 6 44.7109 6ZM35.6875 23.7461H33.0234C32.3115 23.7461 31.7344 23.1689 31.7344 22.457V11.9727C31.7344 11.2607 32.3115 10.6836 33.0234 10.6836H35.6875C39.1734 10.6836 40.7234 14.895 38.5676 17.3008C40.778 19.7674 39.0414 23.7461 35.6875 23.7461Z" fill="#353590"/>
<path d="M35.6875 13.2617H34.3125V16.0117H35.6875C36.3983 16.0117 36.9766 15.4334 36.9766 14.7227V14.5508C36.9766 13.84 36.3983 13.2617 35.6875 13.2617Z" fill="#353590"/>
<path d="M35.6875 18.5898H34.3125V21.168H35.6875C36.3983 21.168 36.9766 20.5897 36.9766 19.8789C36.9766 19.1681 36.3983 18.5898 35.6875 18.5898Z" fill="#353590"/>
</svg>
