<svg width="64" height="64" viewBox="0 0 64 64" fill="none" xmlns="http://www.w3.org/2000/svg">
<circle cx="32" cy="32" r="32" fill="#F1F3F5"/>
<g clip-path="url(#clip0)">
<path d="M37.2341 22.0506C35.7292 20.5684 33.7518 19.7512 31.6676 19.7512C27.3261 19.7512 23.793 23.2842 23.793 27.6258V39.8752C23.793 40.3582 24.1849 40.7502 24.6679 40.7502H26.4178C26.9008 40.7502 27.2928 40.3582 27.2928 39.8752C27.2928 39.3922 26.9008 39.0003 26.4178 39.0003H25.5429V27.6258C25.5429 24.2484 28.2903 21.5011 31.6676 21.5011C33.2898 21.5011 34.8315 22.138 35.9969 23.2877C37.1553 24.4619 37.7923 26.0019 37.7923 27.6258V39.0003H36.9174C36.4344 39.0003 36.0424 39.3922 36.0424 39.8752C36.0424 40.3582 36.4344 40.7502 36.9174 40.7502H38.6673C39.1503 40.7502 39.5422 40.3582 39.5422 39.8752V27.6258C39.5422 25.5399 38.725 23.5625 37.2341 22.0506Z" fill="#353590"/>
<path d="M33.4168 39.0004H29.917C29.434 39.0004 29.042 39.3923 29.042 39.8753C29.042 40.3583 29.434 40.7503 29.917 40.7503H33.4168C33.8998 40.7503 34.2917 40.3583 34.2917 39.8753C34.2917 39.3923 33.8998 39.0004 33.4168 39.0004Z" fill="#353590"/>
<path d="M29.9178 39.0004C29.4348 39.0004 29.0428 39.3923 29.0428 39.8753V43.3752C29.0428 43.8564 28.6508 44.2501 28.1678 44.2501C27.6849 44.2501 27.2929 43.8564 27.2929 43.3752V39.8753C27.2929 39.3923 26.9009 39.0004 26.4179 39.0004C25.935 39.0004 25.543 39.3923 25.543 39.8753V43.3752C25.543 44.8223 26.7207 46 28.1678 46C29.615 46 30.7927 44.8223 30.7927 43.3752V39.8753C30.7927 39.3923 30.4007 39.0004 29.9178 39.0004Z" fill="#353590"/>
<path d="M36.9168 39.0004C36.4338 39.0004 36.0418 39.3923 36.0418 39.8753V43.3752C36.0418 43.8564 35.6481 44.2501 35.1669 44.2501C34.6856 44.2501 34.2919 43.8564 34.2919 43.3752V39.8753C34.2919 39.3923 33.8999 39.0004 33.417 39.0004C32.934 39.0004 32.542 39.3923 32.542 39.8753V43.3752C32.542 44.8223 33.7197 46 35.1669 46C36.6141 46 37.7917 44.8223 37.7917 43.3752V39.8753C37.7917 39.3923 37.3998 39.0004 36.9168 39.0004Z" fill="#353590"/>
<path d="M21.1679 26.7509C20.685 26.7509 20.293 27.1428 20.293 27.6258V36.3754C20.293 36.8584 20.685 37.2504 21.1679 37.2504C21.6509 37.2504 22.0429 36.8584 22.0429 36.3754V27.6258C22.0429 27.1428 21.6509 26.7509 21.1679 26.7509Z" fill="#353590"/>
<path d="M42.167 26.7509C41.684 26.7509 41.292 27.1428 41.292 27.6258V36.3754C41.292 36.8584 41.684 37.2504 42.167 37.2504C42.6499 37.2504 43.0419 36.8584 43.0419 36.3754V27.6258C43.0419 27.1428 42.6499 26.7509 42.167 26.7509Z" fill="#353590"/>
<path d="M38.6673 26.7509H24.6679C24.1849 26.7509 23.793 27.1428 23.793 27.6258C23.793 28.1088 24.1849 28.5008 24.6679 28.5008H38.6673C39.1503 28.5008 39.5422 28.1088 39.5422 27.6258C39.5422 27.1428 39.1503 26.7509 38.6673 26.7509Z" fill="#353590"/>
<path d="M27.7129 21.9718L25.403 18.402C25.1405 17.9943 24.598 17.8788 24.1938 18.1413C23.7878 18.4038 23.6706 18.9462 23.9331 19.3505L26.2429 22.9203C26.4092 23.1793 26.6909 23.321 26.9779 23.321C27.1424 23.321 27.3051 23.2755 27.4521 23.181C27.8581 22.9185 27.9754 22.3761 27.7129 21.9718Z" fill="#353590"/>
<path d="M39.1096 18.1203C38.6984 17.8771 38.1576 18.0135 37.9127 18.4318L35.7428 22.1241C35.4978 22.5423 35.6378 23.0778 36.0542 23.3228C36.1925 23.405 36.3447 23.4435 36.497 23.4435C36.7962 23.4435 37.0884 23.2878 37.2512 23.0113L39.4211 19.319C39.6661 18.9008 39.5261 18.3653 39.1096 18.1203Z" fill="#353590"/>
<path d="M33.4521 23.251H33.4346C32.9498 23.251 32.5684 23.643 32.5684 24.126C32.5684 24.609 32.9691 25.001 33.4521 25.001C33.935 25.001 34.327 24.609 34.327 24.126C34.327 23.643 33.935 23.251 33.4521 23.251Z" fill="#353590"/>
<path d="M29.9521 23.251H29.9346C29.4516 23.251 29.0684 23.643 29.0684 24.126C29.0684 24.609 29.4691 25.001 29.9521 25.001C30.435 25.001 30.827 24.609 30.827 24.126C30.827 23.643 30.435 23.251 29.9521 23.251Z" fill="#353590"/>
</g>
<defs>
<clipPath id="clip0">
<rect width="28" height="28" fill="white" transform="translate(17.667 18)"/>
</clipPath>
</defs>
</svg>
