<svg width="48" height="48" viewBox="0 0 48 48" fill="none" xmlns="http://www.w3.org/2000/svg">
<path d="M16.9688 42.2812V45.1875H12.75C11.9727 45.1875 11.3438 45.8165 11.3438 46.5938C11.3438 47.371 11.9727 48 12.75 48H35.25C36.0273 48 36.6562 47.371 36.6562 46.5938C36.6562 45.8165 36.0273 45.1875 35.25 45.1875H31.0312V42.2812H16.9688Z" fill="#B6B6F3"/>
<path d="M1.40625 39.4688H46.5938C47.371 39.4688 48 38.8398 48 38.0625V7.125C48 6.34772 47.371 5.71875 46.5938 5.71875H43.6875V29.625C43.6875 31.9513 41.7951 33.8438 39.4688 33.8438H8.53125C6.20494 33.8438 4.3125 31.9513 4.3125 29.625V5.71875H1.40625C0.628969 5.71875 0 6.34772 0 7.125V38.0625C0 38.8398 0.628969 39.4688 1.40625 39.4688Z" fill="#B6B6F3"/>
<path d="M32.6462 21.8026L29.0371 20.5983L30.2401 24.2087L32.6462 21.8026Z" fill="#353590"/>
<path d="M7.125 29.625C7.125 30.4023 7.75397 31.0312 8.53125 31.0312H39.4688C40.246 31.0312 40.875 30.4023 40.875 29.625V14.1562H7.125V29.625ZM25.8183 17.3808C26.1973 17.0073 26.7548 16.8712 27.2575 17.0416L35.695 19.8541C36.1565 20.0079 36.508 20.3897 36.6179 20.8648C36.7305 21.3386 36.5904 21.8371 36.2444 22.1818L34.426 24L36.2443 25.8183C36.7936 26.3676 36.7936 27.2575 36.2443 27.8068C35.695 28.3561 34.8051 28.3561 34.2558 27.8068L32.4375 25.9885L30.6192 27.8068C30.2802 28.1458 29.7863 28.2937 29.3009 28.1817C28.8285 28.0691 28.4439 27.7203 28.2902 27.2575L25.4777 18.82C25.3102 18.3145 25.442 17.757 25.8183 17.3808ZM12.75 16.9688H21.1875C21.9648 16.9688 22.5938 17.5977 22.5938 18.375C22.5938 19.1523 21.9648 19.7812 21.1875 19.7812H12.75C11.9727 19.7812 11.3438 19.1523 11.3438 18.375C11.3438 17.5977 11.9727 16.9688 12.75 16.9688ZM12.75 22.5938H21.1875C21.9648 22.5938 22.5938 23.2227 22.5938 24C22.5938 24.7773 21.9648 25.4062 21.1875 25.4062H12.75C11.9727 25.4062 11.3438 24.7773 11.3438 24C11.3438 23.2227 11.9727 22.5938 12.75 22.5938Z" fill="#353590"/>
<path d="M27.2575 17.0416C26.7548 16.8712 26.1973 17.0073 25.8183 17.3808C25.442 17.757 25.3102 18.3145 25.4777 18.82L28.2902 27.2575C28.4439 27.7203 28.8285 28.0691 29.3009 28.1817C29.7863 28.2937 30.2802 28.1458 30.6192 27.8068L32.4375 25.9885L34.2558 27.8068C34.8051 28.3561 35.695 28.3561 36.2443 27.8068C36.7936 27.2575 36.7936 26.3676 36.2443 25.8183L34.426 24L36.2444 22.1818C36.5904 21.8371 36.7305 21.3386 36.6179 20.8648C36.508 20.3897 36.1565 20.0079 35.695 19.8541L27.2575 17.0416Z" fill="#353590"/>
<path d="M21.1875 16.9688H12.75C11.9727 16.9688 11.3438 17.5977 11.3438 18.375C11.3438 19.1523 11.9727 19.7812 12.75 19.7812H21.1875C21.9648 19.7812 22.5938 19.1523 22.5938 18.375C22.5938 17.5977 21.9648 16.9688 21.1875 16.9688Z" fill="#353590"/>
<path d="M21.1875 22.5938H12.75C11.9727 22.5938 11.3438 23.2227 11.3438 24C11.3438 24.7773 11.9727 25.4062 12.75 25.4062H21.1875C21.9648 25.4062 22.5938 24.7773 22.5938 24C22.5938 23.2227 21.9648 22.5938 21.1875 22.5938Z" fill="#353590"/>
<path d="M26.9138 17.0728C26.4111 16.9025 25.8536 17.0385 25.4745 17.412C25.0982 17.7883 24.9664 18.3458 25.1339 18.8513L27.9464 27.2888C28.1002 27.7515 28.4848 28.1004 28.9572 28.213C29.4426 28.3249 29.9365 28.1771 30.2755 27.8381L32.0938 26.0198L33.912 27.8381C34.4613 28.3873 35.3513 28.3873 35.9006 27.8381C36.4498 27.2888 36.4498 26.3988 35.9006 25.8495L34.0823 24.0312L35.9007 22.2131C36.2467 21.8683 36.3868 21.3699 36.2742 20.8961C36.1643 20.4209 35.8127 20.0392 35.3513 19.8853L26.9138 17.0728Z" fill="#B6B6F3"/>
<path d="M20.8438 17H12.4062C11.629 17 11 17.629 11 18.4062C11 19.1835 11.629 19.8125 12.4062 19.8125H20.8438C21.621 19.8125 22.25 19.1835 22.25 18.4062C22.25 17.629 21.621 17 20.8438 17Z" fill="#B6B6F3"/>
<path d="M20.8438 22.625H12.4062C11.629 22.625 11 23.254 11 24.0312C11 24.8085 11.629 25.4375 12.4062 25.4375H20.8438C21.621 25.4375 22.25 24.8085 22.25 24.0312C22.25 23.254 21.621 22.625 20.8438 22.625Z" fill="#B6B6F3"/>
<path d="M40.875 1.40625C40.875 0.628969 40.246 0 39.4688 0H8.53125C7.75397 0 7.125 0.628969 7.125 1.40625V11.3438H40.875V1.40625ZM12.75 7.125C11.9734 7.125 11.3438 6.49538 11.3438 5.71875C11.3438 4.94194 11.9734 4.3125 12.75 4.3125C13.5266 4.3125 14.1562 4.94194 14.1562 5.71875C14.1562 6.49538 13.5266 7.125 12.75 7.125ZM18.375 7.125C17.5984 7.125 16.9688 6.49538 16.9688 5.71875C16.9688 4.94194 17.5984 4.3125 18.375 4.3125C19.1516 4.3125 19.7812 4.94194 19.7812 5.71875C19.7812 6.49538 19.1516 7.125 18.375 7.125ZM24 7.125C23.2234 7.125 22.5938 6.49538 22.5938 5.71875C22.5938 4.94194 23.2234 4.3125 24 4.3125C24.7766 4.3125 25.4062 4.94194 25.4062 5.71875C25.4062 6.49538 24.7766 7.125 24 7.125Z" fill="#353590"/>
<path d="M11.3438 5.71875C11.3438 6.49538 11.9734 7.125 12.75 7.125C13.5266 7.125 14.1562 6.49538 14.1562 5.71875C14.1562 4.94194 13.5266 4.3125 12.75 4.3125C11.9734 4.3125 11.3438 4.94194 11.3438 5.71875Z" fill="#353590"/>
<path d="M16.9688 5.71875C16.9688 6.49538 17.5984 7.125 18.375 7.125C19.1516 7.125 19.7812 6.49538 19.7812 5.71875C19.7812 4.94194 19.1516 4.3125 18.375 4.3125C17.5984 4.3125 16.9688 4.94194 16.9688 5.71875Z" fill="#353590"/>
<path d="M22.5938 5.71875C22.5938 6.49538 23.2234 7.125 24 7.125C24.7766 7.125 25.4062 6.49538 25.4062 5.71875C25.4062 4.94194 24.7766 4.3125 24 4.3125C23.2234 4.3125 22.5938 4.94194 22.5938 5.71875Z" fill="#353590"/>
<path d="M11 5.40625C11 6.18288 11.6296 6.8125 12.4062 6.8125C13.1829 6.8125 13.8125 6.18288 13.8125 5.40625C13.8125 4.62944 13.1829 4 12.4062 4C11.6296 4 11 4.62944 11 5.40625Z" fill="#B6B6F3"/>
<path d="M16.625 5.40625C16.625 6.18288 17.2546 6.8125 18.0312 6.8125C18.8079 6.8125 19.4375 6.18288 19.4375 5.40625C19.4375 4.62944 18.8079 4 18.0312 4C17.2546 4 16.625 4.62944 16.625 5.40625Z" fill="#B6B6F3"/>
<path d="M22.25 5.40625C22.25 6.18288 22.8796 6.8125 23.6562 6.8125C24.4329 6.8125 25.0625 6.18288 25.0625 5.40625C25.0625 4.62944 24.4329 4 23.6562 4C22.8796 4 22.25 4.62944 22.25 5.40625Z" fill="#B6B6F3"/>
</svg>
