<svg width="72" height="72" viewBox="0 0 72 72" fill="none" xmlns="http://www.w3.org/2000/svg">
<path d="M61 36C61 39.2571 60.3775 42.3684 59.2438 45.2225C58.6377 46.749 57.8856 48.202 57.004 49.5633C55.9061 51.2612 54.607 52.8174 53.1418 54.197C52.2836 55.0062 51.3693 55.7541 50.404 56.4357C46.3326 59.3112 41.3643 61 36 61C30.6357 61 25.6674 59.3112 21.5959 56.4357C20.3877 55.5827 19.2592 54.6266 18.2234 53.5775C13.7571 49.0622 11 42.8521 11 36C11 29.1479 13.7571 22.9378 18.2234 18.4225C19.3204 17.3123 20.5214 16.3051 21.8102 15.4153C25.8408 12.6306 30.7296 11 36 11C41.2704 11 46.1592 12.6306 50.1898 15.4153C51.1745 16.0939 52.1072 16.8429 52.9816 17.6541C54.5133 19.0704 55.8663 20.6775 57.0041 22.4367C57.8857 23.7979 58.6378 25.251 59.2439 26.7775C60.3775 29.6316 61 32.7429 61 36Z" fill="#B6B6F3"/>
<path d="M47.2663 33.7509C46.5705 31.733 43.7174 31.733 43.1608 33.403C42.6042 35.073 44.483 36.0471 47.4056 37.0215C50.3281 37.9957 52.1374 40.5704 51.7895 42.8666C51.4415 45.1628 50.4673 48.1551 44.6918 48.1551C41.0821 48.1551 39.0761 45.8989 38.0791 44.2069L41.3517 42.2403C41.3517 42.2403 42.465 44.6062 44.5525 44.6062C46.6401 44.6062 47.4751 43.9104 47.4751 42.3099C47.4751 40.3616 40.7253 39.6658 39.6815 36.3257C38.6378 32.9855 40.0295 28.2538 44.9004 28.6016C47.9448 28.8191 49.6572 30.314 50.5135 31.4047L47.2663 33.7509Z" fill="#353590"/>
<path d="M32.097 28.9497C32.097 28.9497 32.097 40.7096 32.097 42.3101C32.097 43.9104 30.7053 44.7456 29.3136 44.4672C27.9219 44.1889 27.2956 42.5188 27.2956 42.5188L24.0947 44.676C24.0947 44.676 24.7905 47.8769 29.1744 48.1553C33.5583 48.4336 36.0633 45.7894 36.0633 43.5626C36.0633 41.3358 36.0633 28.9497 36.0633 28.9497H32.097Z" fill="#353590"/>
<path d="M18.2236 15.4154V53.5776C19.2594 54.6266 20.3879 55.5827 21.5961 56.4358H50.4043C51.3845 55.7115 53.3076 54.2692 54.0768 53.2711H21.3883V18.5801H56.0783V50.9038C57.1537 49.4615 58.596 47.0577 59.244 45.2225V15.4154H18.2236Z" fill="#353590"/>
</svg>
