<svg width="50" height="50" viewBox="0 0 50 50" fill="none" xmlns="http://www.w3.org/2000/svg">
<path d="M50 25C50 28.2571 49.3775 31.3684 48.2438 34.2225C47.6377 35.749 46.8856 37.202 46.004 38.5633C44.9061 40.2612 43.607 41.8174 42.1418 43.197C41.2836 44.0062 40.3693 44.7541 39.404 45.4357C35.3326 48.3112 30.3643 50 25 50C19.6357 50 14.6674 48.3112 10.5959 45.4357C9.3877 44.5827 8.25918 43.6266 7.22344 42.5775C2.75713 38.0622 0 31.8521 0 25C0 18.1479 2.75713 11.9378 7.22344 7.42246C8.32041 6.3123 9.52139 5.30508 10.8102 4.41533C14.8408 1.63057 19.7296 0 25 0C30.2704 0 35.1592 1.63057 39.1898 4.41533C40.1745 5.09395 41.1072 5.84287 41.9816 6.6541C43.5133 8.07041 44.8663 9.67754 46.0041 11.4367C46.8857 12.7979 47.6378 14.251 48.2439 15.7775C49.3775 18.6316 50 21.7429 50 25Z" fill="#B6B6F3"/>
<path d="M36.2663 22.7509C35.5705 20.733 32.7174 20.733 32.1608 22.403C31.6042 24.073 33.483 25.0471 36.4056 26.0215C39.3281 26.9957 41.1374 29.5704 40.7895 31.8666C40.4415 34.1628 39.4673 37.1551 33.6918 37.1551C30.0821 37.1551 28.0761 34.8989 27.0791 33.2069L30.3517 31.2403C30.3517 31.2403 31.465 33.6062 33.5525 33.6062C35.6401 33.6062 36.4751 32.9104 36.4751 31.3099C36.4751 29.3616 29.7253 28.6658 28.6815 25.3257C27.6378 21.9855 29.0295 17.2538 33.9004 17.6016C36.9448 17.8191 38.6572 19.314 39.5135 20.4047L36.2663 22.7509Z" fill="#353590"/>
<path d="M21.097 17.9497C21.097 17.9497 21.097 29.7096 21.097 31.3101C21.097 32.9104 19.7053 33.7456 18.3136 33.4672C16.9219 33.1889 16.2956 31.5188 16.2956 31.5188L13.0947 33.676C13.0947 33.676 13.7905 36.8769 18.1744 37.1553C22.5583 37.4336 25.0633 34.7894 25.0633 32.5626C25.0633 30.3358 25.0633 17.9497 25.0633 17.9497H21.097Z" fill="#353590"/>
<path d="M7.22363 4.41541V42.5776C8.25938 43.6266 9.38789 44.5827 10.5961 45.4358H39.4043C40.3845 44.7115 42.3076 43.2692 43.0768 42.2711H10.3883V7.5801H45.0783V39.9038C46.1537 38.4615 47.596 36.0577 48.244 34.2225V4.41541H7.22363Z" fill="#353590"/>
</svg>
