<svg width="58" height="58" viewBox="0 0 58 58" fill="none" xmlns="http://www.w3.org/2000/svg">
<path d="M19.9688 49.5625V52.4688H15.75C14.9727 52.4688 14.3438 53.0977 14.3438 53.875C14.3438 54.6523 14.9727 55.2812 15.75 55.2812H38.25C39.0273 55.2812 39.6562 54.6523 39.6562 53.875C39.6562 53.0977 39.0273 52.4688 38.25 52.4688H34.0312V49.5625H19.9688Z" fill="#B6B6F3"/>
<path d="M4.40625 46.75H49.5938C50.371 46.75 51 46.121 51 45.3438V14.4062C51 13.629 50.371 13 49.5938 13H46.6875H4.40625C3.62897 13 3 13.629 3 14.4062V45.3438C3 46.121 3.62897 46.75 4.40625 46.75Z" fill="#B6B6F3"/>
<path d="M16.0072 34.8338C16.6228 34.3603 16.7381 33.4774 16.2646 32.8618L14.1116 30.0628L16.2646 27.2639C16.7381 26.6483 16.6228 25.7653 16.0072 25.2918C15.3916 24.8183 14.5086 24.9337 14.0351 25.5493L11.3449 29.0462C10.885 29.6446 10.885 30.4807 11.3453 31.0794L14.0351 34.5764C14.312 34.9363 14.7291 35.1253 15.151 35.1253C15.4501 35.1253 15.7515 35.0301 16.0072 34.8338Z" fill="#353590"/>
<path d="M20.2486 34.1168L22.4049 26.8043C22.6246 26.0594 22.1987 25.2775 21.4538 25.0578C20.7089 24.8381 19.9271 25.264 19.7074 26.0089L17.5511 33.3214C17.3314 34.0662 17.7573 34.8485 18.5022 35.0678C18.6351 35.107 18.7688 35.1257 18.9006 35.1257C19.5078 35.1257 20.0681 34.7291 20.2486 34.1168Z" fill="#353590"/>
<path d="M26.0146 34.5764L28.7044 31.0794C29.1647 30.4807 29.1647 29.6446 28.7044 29.0462L26.0146 25.5493C25.5411 24.9337 24.6582 24.8187 24.0426 25.2918C23.427 25.7653 23.3116 26.6483 23.7851 27.2639L25.9381 30.0628L23.7851 32.8618C23.3116 33.4774 23.427 34.3603 24.0426 34.8338C24.2978 35.0301 24.5996 35.1253 24.8988 35.1253C25.3203 35.1253 25.7374 34.9363 26.0146 34.5764Z" fill="#353590"/>
<path d="M39.7807 36.9997H53.6844C55.2201 36.9997 56.4651 35.7547 56.4651 34.219V23.0961C56.4651 21.5604 55.2201 20.3154 53.6844 20.3154H39.7807C38.245 20.3154 37 21.5604 37 23.0961V34.219C37 35.7547 38.245 36.9997 39.7807 36.9997Z" fill="#353590"/>
<path d="M42.4008 20.2084H39.6201V14.0404C39.6201 10.2131 42.6762 7.03744 46.5034 7.00033C50.368 6.96288 53.5237 10.0957 53.5237 13.9518C53.5237 14.7197 52.9013 15.3422 52.1334 15.3422H52.0633C51.3341 15.3422 50.743 14.751 50.743 14.0218C50.743 11.7378 48.9362 9.82486 46.6526 9.78149C44.3159 9.73718 42.4008 11.6251 42.4008 13.9518V20.2084Z" fill="#353590"/>
<path d="M48.9792 26.7324C48.9792 25.5008 47.9383 24.5122 46.6882 24.5987C45.6326 24.6716 44.778 25.5275 44.7062 26.5831C44.6483 27.4366 45.0916 28.1916 45.7707 28.5846V32.08C45.7707 32.6707 46.2495 33.1495 46.8402 33.1495C47.4309 33.1495 47.9097 32.6707 47.9097 32.08V28.5845C48.5489 28.2147 48.9792 27.524 48.9792 26.7324Z" fill="#B6B6F3"/>
<path d="M54.914 17.4278C54.7361 17.4278 54.5582 17.3599 54.4224 17.2242C54.1509 16.9527 54.1509 16.5126 54.4224 16.2411L55.8128 14.8507C56.0842 14.5793 56.5244 14.5793 56.7959 14.8507C57.0674 15.1222 57.0674 15.5623 56.7959 15.8339L55.4055 17.2242C55.2698 17.3599 55.0919 17.4278 54.914 17.4278Z" fill="#353590"/>
<path d="M49.3532 17.4278C49.1753 17.4278 48.9973 17.3599 48.8616 17.2242L47.4712 15.8339C47.1997 15.5623 47.1997 15.1222 47.4712 14.8507C47.7427 14.5793 48.1829 14.5793 48.4543 14.8507L49.8447 16.2411C50.1162 16.5126 50.1162 16.9527 49.8447 17.2242C49.709 17.3599 49.5311 17.4278 49.3532 17.4278Z" fill="#353590"/>
</svg>
