<?xml version="1.0" encoding="utf-8"?>
<!-- Generator: Adobe Illustrator 24.1.2, SVG Export Plug-In . SVG Version: 6.00 Build 0)  -->
<svg version="1.1" id="Layer_1" xmlns="http://www.w3.org/2000/svg" xmlns:xlink="http://www.w3.org/1999/xlink" x="0px" y="0px"
	 viewBox="0 0 100 100" style="enable-background:new 0 0 100 100;" xml:space="preserve">
<g>
	<g>
		<g>
			<path d="M89.4,83.58H11.6c-0.36,0-0.65-0.29-0.65-0.65V18.07c0-0.36,0.29-0.65,0.65-0.65H89.4c0.36,0,0.65,0.29,0.65,0.65v64.87
				C90.06,83.29,89.76,83.58,89.4,83.58z M12.25,82.28h76.51V18.72H12.25V82.28z"/>
		</g>
		<g>
			<path d="M89.4,83.58H54.93c-0.23,0-0.45-0.13-0.57-0.33l-0.26-0.46c-0.16-0.28-0.09-0.63,0.16-0.83l5-3.99
				c-0.34-0.97-0.6-1.95-0.78-2.92l-6.33-0.95c-0.32-0.05-0.55-0.32-0.55-0.64v-3.06c0-0.32,0.24-0.6,0.55-0.64l6.33-0.95
				c0.18-0.97,0.44-1.95,0.78-2.92l-5-3.99c-0.25-0.2-0.32-0.55-0.16-0.83l1.77-3.06c0.16-0.28,0.5-0.4,0.8-0.28l5.96,2.34
				c0.64-0.75,1.36-1.47,2.13-2.13L62.41,52c-0.12-0.3,0-0.64,0.28-0.8l3.06-1.76c0.28-0.16,0.63-0.09,0.83,0.16l3.99,5.01
				c0.92-0.33,1.9-0.6,2.91-0.78l0.96-6.33c0.05-0.32,0.32-0.55,0.64-0.55h3.53c0.32,0,0.59,0.24,0.64,0.55l0.95,6.33
				c1.01,0.19,1.99,0.45,2.91,0.78l3.98-5.01c0.2-0.25,0.56-0.32,0.83-0.16l1.8,1.04c0.2,0.12,0.33,0.33,0.33,0.56v3.94
				c0,0.08-0.02,0.16-0.05,0.24l-1.09,2.75c0.35,0.3,0.65,0.58,0.94,0.85c0.13,0.12,0.2,0.29,0.2,0.47v23.66
				C90.06,83.29,89.76,83.58,89.4,83.58z M55.94,82.28h32.81V59.55c-0.3-0.28-0.64-0.58-1.02-0.9c-0.22-0.18-0.29-0.48-0.19-0.74
				l1.21-3.07v-3.44l-0.99-0.57l-3.93,4.94c-0.18,0.22-0.48,0.3-0.75,0.2c-1.12-0.44-2.32-0.76-3.57-0.96
				c-0.28-0.04-0.5-0.27-0.54-0.54l-0.94-6.24h-2.41l-0.94,6.24c-0.04,0.28-0.26,0.5-0.54,0.54c-1.25,0.2-2.45,0.52-3.56,0.96
				c-0.26,0.1-0.57,0.02-0.75-0.2l-3.93-4.94l-2.09,1.2l2.31,5.87c0.1,0.26,0.03,0.56-0.19,0.74c-0.98,0.79-1.86,1.67-2.61,2.61
				c-0.18,0.22-0.48,0.3-0.74,0.2l-5.87-2.31l-1.21,2.09l4.93,3.93c0.22,0.18,0.3,0.47,0.2,0.74c-0.45,1.18-0.77,2.38-0.95,3.57
				c-0.04,0.28-0.26,0.5-0.55,0.54l-6.24,0.93v1.94l6.24,0.93c0.28,0.04,0.5,0.26,0.55,0.54c0.18,1.19,0.5,2.39,0.95,3.57
				c0.1,0.26,0.02,0.56-0.2,0.74L55.94,82.28z"/>
		</g>
		<g>
			<path d="M89.4,31.86H11.6c-0.36,0-0.65-0.29-0.65-0.65s0.29-0.65,0.65-0.65H89.4c0.36,0,0.65,0.29,0.65,0.65
				S89.76,31.86,89.4,31.86z"/>
		</g>
		<g>
			<path d="M19.45,27.36c-1.58,0-2.86-1.28-2.86-2.86c0-1.58,1.28-2.87,2.86-2.87c1.58,0,2.87,1.29,2.87,2.87
				C22.32,26.08,21.03,27.36,19.45,27.36z M19.45,22.94c-0.86,0-1.56,0.7-1.56,1.57c0,0.86,0.7,1.56,1.56,1.56
				c0.86,0,1.57-0.7,1.57-1.56C21.02,23.64,20.31,22.94,19.45,22.94z"/>
		</g>
		<g>
			<path d="M29.05,27.36c-1.58,0-2.86-1.28-2.86-2.86c0-1.58,1.28-2.87,2.86-2.87c1.58,0,2.86,1.29,2.86,2.87
				C31.92,26.08,30.63,27.36,29.05,27.36z M29.05,22.94c-0.88,0-1.56,0.69-1.56,1.57c0,0.86,0.7,1.56,1.56,1.56
				c0.86,0,1.56-0.7,1.56-1.56C30.61,23.64,29.91,22.94,29.05,22.94z"/>
		</g>
		<g>
			<path d="M89.4,25.15H46.18c-0.36,0-0.65-0.29-0.65-0.65c0-0.36,0.29-0.65,0.65-0.65H89.4c0.36,0,0.65,0.29,0.65,0.65
				C90.06,24.86,89.76,25.15,89.4,25.15z"/>
		</g>
		<g>
			<path d="M80.05,42.1H20.95c-0.36,0-0.65-0.29-0.65-0.65v-4.05c0-0.36,0.29-0.65,0.65-0.65h59.09c0.36,0,0.65,0.29,0.65,0.65v4.05
				C80.7,41.81,80.41,42.1,80.05,42.1z M21.6,40.8H79.4v-2.75H21.6V40.8z"/>
		</g>
		<g>
			<path d="M54.86,50.59H20.7c-0.36,0-0.65-0.29-0.65-0.65c0-0.36,0.29-0.65,0.65-0.65h34.16c0.36,0,0.65,0.29,0.65,0.65
				C55.51,50.29,55.22,50.59,54.86,50.59z"/>
		</g>
		<g>
			<path d="M33.13,54.67H20.7c-0.36,0-0.65-0.29-0.65-0.65c0-0.36,0.29-0.65,0.65-0.65h12.43c0.36,0,0.65,0.29,0.65,0.65
				C33.78,54.38,33.49,54.67,33.13,54.67z"/>
		</g>
		<g>
			<path d="M48.08,58.77H20.7c-0.36,0-0.65-0.29-0.65-0.65c0-0.36,0.29-0.65,0.65-0.65h27.38c0.36,0,0.65,0.29,0.65,0.65
				C48.73,58.48,48.44,58.77,48.08,58.77z"/>
		</g>
		<g>
			<path d="M40.75,62.85H20.7c-0.36,0-0.65-0.29-0.65-0.65c0-0.36,0.29-0.65,0.65-0.65h20.05c0.36,0,0.65,0.29,0.65,0.65
				C41.4,62.56,41.11,62.85,40.75,62.85z"/>
		</g>
		<g>
			<path d="M47.94,66.94H20.7c-0.36,0-0.65-0.29-0.65-0.65c0-0.36,0.29-0.65,0.65-0.65h27.24c0.36,0,0.65,0.29,0.65,0.65
				C48.59,66.65,48.3,66.94,47.94,66.94z"/>
		</g>
		<g>
			<path d="M40.11,71.03H20.7c-0.36,0-0.65-0.29-0.65-0.65s0.29-0.65,0.65-0.65h19.41c0.36,0,0.65,0.29,0.65,0.65
				S40.47,71.03,40.11,71.03z"/>
		</g>
	</g>
</g>
</svg>
