<?xml version="1.0" encoding="utf-8"?>
<!-- Generator: Adobe Illustrator 24.1.2, SVG Export Plug-In . SVG Version: 6.00 Build 0)  -->
<svg version="1.1" id="Layer_1" xmlns="http://www.w3.org/2000/svg" xmlns:xlink="http://www.w3.org/1999/xlink" x="0px" y="0px"
	 viewBox="0 0 100 100" style="enable-background:new 0 0 100 100;" xml:space="preserve">
<style type="text/css">
	.st0{fill:none;stroke:#000000;stroke-width:1.3;stroke-linecap:round;stroke-linejoin:round;stroke-miterlimit:10;}
	.st1{fill:none;}
	.st2{fill:none;stroke:#000000;stroke-width:1.3;stroke-linecap:round;stroke-linejoin:round;stroke-miterlimit:2.6131;}
</style>
<g>
	<g>
		<g id="XMLID_331_">
			<g>
				<path class="st0" d="M53.97,67.9c0.25-0.72,0.63-1.63,2.39-1.68c2.41-0.04,9.98,1.93,12.48,2.94c1.19,0.48,1.97,1.02,2.23,1.72
					c0.51,1.33-3.17,10.02-3.78,12.29c-0.25,0.98-0.4,1.5-1.3,1.06c-3.44-1.7-6.8-6.64-10.59-8.91c-1.19-0.71-2.39-1.2-2.71-2.11
					c-0.05-0.13-0.07-0.28-0.07-0.46C52.61,71.48,53.61,68.96,53.97,67.9z M64,72.74c-0.45,0.57-0.35,1.4,0.22,1.84
					c0.57,0.46,1.4,0.36,1.84-0.21c0.46-0.57,0.37-1.41-0.2-1.86C65.28,72.07,64.46,72.17,64,72.74z"/>
				<path class="st0" d="M36.98,72.74c-0.45-0.57-1.28-0.66-1.85-0.22c-0.57,0.45-0.66,1.29-0.21,1.86
					c0.46,0.57,1.28,0.66,1.85,0.21C37.35,74.14,37.43,73.3,36.98,72.74z M33.7,83.17c-0.59-2.28-4.29-10.96-3.79-12.29
					c0.27-0.69,1.05-1.24,2.24-1.72c2.5-1.01,10.06-2.98,12.48-2.94c1.77,0.05,2.14,0.96,2.39,1.68c0.35,1.06,1.35,3.59,1.35,4.86
					c0,0.18-0.02,0.33-0.06,0.45c-0.31,0.91-1.53,1.4-2.71,2.11c-3.8,2.27-7.16,7.21-10.6,8.91C34.1,84.67,33.97,84.15,33.7,83.17z"
					/>
				<path class="st0" d="M60.59,54.84c1.64-2.45,7.63-7.68,12.44-9.56c2.03-0.79,3.85-0.99,5.05-0.12c0.46,0.33,0.75,0.69,0.91,1.08
					h0.01c0.36-3.49,2.73-9.42,4.91-12.29c1.04-1.4,3-3.15,4.69-1.68c2.72,2.35-2.1,19.86-5.21,23.46
					c-5.31,6.18-10.23,3.58-14.55,13.41c-2.5-1.01-10.07-2.98-12.48-2.94C57.2,63.09,58.78,57.55,60.59,54.84z"/>
				<path class="st0" d="M32.15,69.16c-4.32-9.83-9.23-7.23-14.56-13.41c-3.11-3.6-7.92-21.11-5.2-23.46
					c1.7-1.47,3.65,0.28,4.69,1.68c2.18,2.87,4.54,8.79,4.92,12.28c0.15-0.38,0.44-0.74,0.9-1.07c1.74-1.26,4.8-0.27,7.92,1.53
					c4.08,2.38,8.24,6.16,9.57,8.14c1.82,2.7,3.39,8.25,4.24,11.37C42.22,66.18,34.65,68.15,32.15,69.16z"/>
				<path class="st0" d="M70.29,33.11v5.78h-5.78C64.51,35.71,67.11,33.11,70.29,33.11z"/>
				<path class="st0" d="M70.29,16.61v5.78c-3.18,0-5.78-2.59-5.78-5.78H70.29z"/>
				<path class="st0" d="M50.88,30.15v-1.93c0.3,0.09,0.52,0.2,0.64,0.37c0.13,0.16,0.2,0.35,0.2,0.57c0,0.25-0.08,0.46-0.23,0.63
					C51.32,29.98,51.13,30.09,50.88,30.15z"/>
				<path class="st0" d="M50.16,24.9v1.71c-0.22-0.09-0.37-0.2-0.47-0.36c-0.11-0.15-0.16-0.31-0.16-0.48c0-0.2,0.06-0.37,0.17-0.53
					C49.82,25.09,49.97,24.97,50.16,24.9z"/>
				<path class="st1" d="M50.88,28.22v1.93c0.25-0.06,0.45-0.18,0.6-0.36c0.16-0.18,0.23-0.38,0.23-0.63c0-0.21-0.07-0.41-0.2-0.57
					C51.39,28.43,51.18,28.31,50.88,28.22z M49.7,25.24c-0.11,0.16-0.17,0.33-0.17,0.53c0,0.17,0.05,0.33,0.16,0.48
					c0.1,0.16,0.25,0.27,0.47,0.36V24.9C49.97,24.97,49.82,25.09,49.7,25.24z M49.38,28.98c0.06,0.26,0.16,0.49,0.3,0.67
					c0.15,0.2,0.3,0.33,0.48,0.42v-2.06c-0.63-0.18-1.11-0.46-1.41-0.84c-0.29-0.37-0.46-0.82-0.46-1.36s0.18-0.99,0.52-1.35
					c0.34-0.37,0.79-0.58,1.35-0.63v-0.49h0.71v0.49c0.53,0.06,0.95,0.24,1.26,0.54c0.31,0.28,0.5,0.68,0.58,1.18l-1.25,0.16
					c-0.08-0.39-0.27-0.64-0.59-0.78v1.92c0.8,0.2,1.34,0.48,1.62,0.82c0.28,0.34,0.43,0.78,0.43,1.31c0,0.59-0.18,1.09-0.54,1.5
					c-0.37,0.4-0.86,0.65-1.51,0.76v0.92h-0.71v-0.91c-0.57-0.08-1.03-0.28-1.39-0.63c-0.35-0.35-0.58-0.85-0.67-1.49L49.38,28.98z"
					/>
				<path class="st0" d="M49.68,29.66c-0.14-0.19-0.24-0.41-0.3-0.67l-1.28,0.15c0.1,0.64,0.32,1.14,0.67,1.49
					c0.36,0.35,0.82,0.56,1.39,0.63v0.91h0.71v-0.92c0.65-0.11,1.14-0.36,1.51-0.76c0.36-0.41,0.54-0.92,0.54-1.5
					c0-0.53-0.15-0.97-0.43-1.31c-0.28-0.34-0.82-0.62-1.62-0.82v-1.92c0.32,0.14,0.52,0.39,0.59,0.78l1.25-0.16
					c-0.09-0.5-0.27-0.9-0.58-1.18c-0.31-0.29-0.73-0.48-1.26-0.54v-0.49h-0.71v0.49c-0.56,0.05-1.01,0.26-1.35,0.63
					c-0.34,0.36-0.52,0.81-0.52,1.35s0.17,0.99,0.46,1.36c0.29,0.38,0.77,0.66,1.41,0.84v2.06C49.99,29.99,49.83,29.85,49.68,29.66z
					 M50.51,21.14c3.65,0,6.62,2.96,6.62,6.61c0,3.66-2.97,6.62-6.62,6.62c-3.65,0-6.61-2.96-6.61-6.62
					C43.9,24.1,46.86,21.14,50.51,21.14z"/>
				<path class="st0" d="M30.73,16.61h5.78c0,3.19-2.59,5.78-5.78,5.78V16.61z"/>
				<path class="st0" d="M50.51,34.37c3.65,0,6.62-2.96,6.62-6.62c0-3.65-2.97-6.61-6.62-6.61c-3.65,0-6.61,2.96-6.61,6.61
					C43.9,31.41,46.86,34.37,50.51,34.37z M30.73,22.39c3.19,0,5.78-2.59,5.78-5.78h28c0,3.19,2.6,5.78,5.78,5.78v10.72
					c-3.18,0-5.78,2.6-5.78,5.78h-28c0-3.18-2.59-5.78-5.78-5.78V22.39z"/>
				<path class="st0" d="M30.73,33.11c3.19,0,5.78,2.6,5.78,5.78h-5.69h-0.09V33.11z"/>
			</g>
			<g>
				<path class="st2" d="M56.36,66.22c0.84-3.12,2.42-8.67,4.23-11.37c1.64-2.45,7.63-7.68,12.44-9.56
					c2.03-0.79,3.85-0.99,5.05-0.12c0.46,0.33,0.75,0.69,0.91,1.08c1.3,3.18-7.02,7.7-8.67,8.67"/>
				<path class="st2" d="M68.84,69.16c4.32-9.83,9.24-7.23,14.55-13.41c3.12-3.6,7.94-21.11,5.21-23.46
					c-1.7-1.47-3.65,0.28-4.69,1.68c-2.18,2.87-4.55,8.8-4.91,12.29"/>
				<path class="st2" d="M68.84,69.16c1.19,0.48,1.97,1.02,2.23,1.72c0.51,1.33-3.17,10.02-3.78,12.29c-0.25,0.98-0.4,1.5-1.3,1.06
					c-3.44-1.7-6.8-6.64-10.59-8.91c-1.19-0.71-2.39-1.2-2.71-2.11c-0.05-0.13-0.07-0.28-0.07-0.46c0-1.27,1-3.79,1.36-4.85
					c0.25-0.72,0.63-1.63,2.39-1.68C58.77,66.18,66.34,68.15,68.84,69.16z"/>
				<path class="st2" d="M64,72.74c0.46-0.57,1.28-0.66,1.86-0.22c0.57,0.45,0.66,1.29,0.2,1.86c-0.45,0.57-1.28,0.66-1.84,0.21
					C63.65,74.14,63.55,73.3,64,72.74z"/>
				<path class="st2" d="M22.01,46.25c-1.28,3.19,7.01,7.7,8.66,8.67"/>
				<path class="st2" d="M44.63,66.22c-0.85-3.12-2.42-8.67-4.24-11.37c-1.33-1.98-5.49-5.77-9.57-8.14
					c-3.11-1.8-6.18-2.79-7.92-1.53c-0.46,0.33-0.75,0.69-0.9,1.07"/>
				<path class="st2" d="M32.15,69.16c-4.32-9.83-9.23-7.23-14.56-13.41c-3.11-3.6-7.92-21.11-5.2-23.46
					c1.7-1.47,3.65,0.28,4.69,1.68c2.18,2.87,4.54,8.79,4.92,12.28v0.01"/>
				<path class="st2" d="M32.15,69.16c-1.19,0.48-1.96,1.02-2.24,1.72c-0.5,1.33,3.19,10.02,3.79,12.29c0.26,0.98,0.4,1.5,1.29,1.06
					c3.45-1.7,6.8-6.64,10.6-8.91c1.18-0.71,2.4-1.2,2.71-2.11c0.04-0.12,0.06-0.27,0.06-0.45c0-1.27-1-3.8-1.35-4.86
					c-0.25-0.72-0.63-1.63-2.39-1.68C42.22,66.18,34.65,68.15,32.15,69.16z"/>
				<path class="st2" d="M36.98,72.74c-0.45-0.57-1.28-0.66-1.85-0.22c-0.57,0.45-0.66,1.29-0.21,1.86
					c0.46,0.57,1.28,0.66,1.85,0.21C37.35,74.14,37.43,73.3,36.98,72.74z"/>
				<line class="st0" x1="30.73" y1="33.11" x2="30.73" y2="22.39"/>
				<line class="st0" x1="64.51" y1="38.89" x2="36.52" y2="38.89"/>
				<line class="st0" x1="70.29" y1="22.39" x2="70.29" y2="33.11"/>
				<line class="st0" x1="36.52" y1="16.61" x2="64.51" y2="16.61"/>
				<path class="st0" d="M64.51,16.61h5.78v5.78C67.11,22.39,64.51,19.8,64.51,16.61z"/>
				<path class="st0" d="M36.52,16.61h-5.78v5.78C33.93,22.39,36.52,19.8,36.52,16.61z"/>
				<path class="st0" d="M36.52,38.89h-5.69h-0.09v-5.78C33.93,33.11,36.52,35.71,36.52,38.89z"/>
				<path class="st0" d="M64.51,38.89h5.78v-5.78C67.11,33.11,64.51,35.71,64.51,38.89z"/>
				<path class="st0" d="M50.51,21.14c3.65,0,6.62,2.96,6.62,6.61c0,3.66-2.97,6.62-6.62,6.62c-3.65,0-6.61-2.96-6.61-6.62
					C43.9,24.1,46.86,21.14,50.51,21.14z"/>
			</g>
		</g>
	</g>
</g>
</svg>
