<?xml version="1.0" encoding="utf-8"?>
<!-- Generator: Adobe Illustrator 24.1.2, SVG Export Plug-In . SVG Version: 6.00 Build 0)  -->
<svg version="1.1" id="Layer_1" xmlns="http://www.w3.org/2000/svg" xmlns:xlink="http://www.w3.org/1999/xlink" x="0px" y="0px"
	 viewBox="0 0 100 100" style="enable-background:new 0 0 100 100;" xml:space="preserve">
<g>
	<g>
		<g>
			<path d="M80.11,70.16h-4.7c-0.41,0-0.75-0.34-0.75-0.75V45.48l-4.19-8.89l-4.31,8.9v23.93c0,0.41-0.34,0.75-0.75,0.75H49.1
				c-0.24,0-0.47-0.12-0.61-0.31c-0.14-0.2-0.18-0.45-0.1-0.68c0.46-1.38,0.69-2.91,0.69-4.68c0-7.58-6.17-13.75-13.75-13.75
				c-0.86,0-1.73,0.08-2.6,0.25c-0.22,0.04-0.45-0.02-0.62-0.16c-0.17-0.14-0.27-0.35-0.27-0.58V5.6c0-0.41,0.34-0.75,0.75-0.75
				h34.48c0.19,0,0.37,0.07,0.51,0.2l13.04,11.89c0.16,0.14,0.24,0.34,0.24,0.55v51.92C80.86,69.82,80.53,70.16,80.11,70.16z
				 M76.16,68.66h3.2V17.82L66.78,6.35H33.34v43.02c0.66-0.09,1.33-0.13,1.99-0.13c8.41,0,15.25,6.84,15.25,15.26
				c0,1.53-0.16,2.9-0.48,4.17h14.55V45.31c0-0.11,0.03-0.23,0.08-0.33l5.07-10.47c0.13-0.26,0.39-0.42,0.68-0.42c0,0,0,0,0,0
				c0.29,0,0.55,0.17,0.67,0.43l4.94,10.47c0.05,0.1,0.07,0.21,0.07,0.32V68.66z"/>
		</g>
		<g>
			<path d="M64.47,22.52H38.82c-0.41,0-0.75-0.34-0.75-0.75c0-0.41,0.34-0.75,0.75-0.75h25.66c0.41,0,0.75,0.34,0.75,0.75
				C65.22,22.18,64.89,22.52,64.47,22.52z"/>
		</g>
		<g>
			<path d="M80.11,18.24C80.11,18.24,80.11,18.24,80.11,18.24l-13.05-0.09c-0.41,0-0.74-0.34-0.74-0.75V5.6
				c0-0.3,0.18-0.57,0.45-0.69c0.27-0.12,0.59-0.07,0.81,0.13l13.04,11.89c0.23,0.21,0.31,0.54,0.19,0.83
				C80.7,18.05,80.42,18.24,80.11,18.24z M67.82,16.65l10.34,0.07L67.82,7.3V16.65z"/>
		</g>
		<g>
			<path d="M58.29,34.87H38.82c-0.41,0-0.75-0.34-0.75-0.75s0.34-0.75,0.75-0.75h19.47c0.41,0,0.75,0.34,0.75,0.75
				S58.71,34.87,58.29,34.87z"/>
		</g>
		<g>
			<path d="M61.78,47.24H38.82c-0.41,0-0.75-0.34-0.75-0.75c0-0.41,0.34-0.75,0.75-0.75h22.96c0.41,0,0.75,0.34,0.75,0.75
				C62.53,46.9,62.2,47.24,61.78,47.24z"/>
		</g>
		<g>
			<path d="M75.41,88.79H65.4c-0.41,0-0.75-0.34-0.75-0.75V45.31c0-0.11,0.03-0.23,0.07-0.33l5.07-10.47
				c0.13-0.26,0.39-0.42,0.68-0.42c0,0,0,0,0,0c0.29,0,0.55,0.17,0.67,0.43l4.94,10.47c0.05,0.1,0.07,0.21,0.07,0.32v42.73
				C76.16,88.46,75.82,88.79,75.41,88.79z M66.15,87.29h8.51V45.48l-4.2-8.9l-4.31,8.9V87.29z"/>
		</g>
		<g>
			<path d="M70.4,42.67c-1.18,0-2.33-0.38-3.33-1.1c-0.29-0.21-0.39-0.61-0.24-0.93l2.96-6.12c0.13-0.26,0.39-0.42,0.68-0.42
				c0,0,0,0,0,0c0.29,0,0.55,0.17,0.67,0.43l2.87,6.09c0.15,0.32,0.06,0.71-0.23,0.92C72.79,42.28,71.61,42.67,70.4,42.67z
				 M68.48,40.69c1.22,0.65,2.69,0.64,3.91-0.03l-1.92-4.07L68.48,40.69z"/>
		</g>
		<g>
			<path d="M75.41,46.06H65.4c-0.41,0-0.75-0.34-0.75-0.75c0-0.41,0.34-0.75,0.75-0.75h10.01c0.41,0,0.75,0.34,0.75,0.75
				C76.16,45.72,75.82,46.06,75.41,46.06z"/>
		</g>
		<g>
			<path d="M73.43,94.32h-6.05c-1.5,0-2.72-1.23-2.72-2.73v-3.55c0-0.41,0.34-0.75,0.75-0.75h10c0.41,0,0.75,0.34,0.75,0.75v3.55
				C76.16,93.1,74.94,94.32,73.43,94.32z M66.16,88.79v2.8c0,0.68,0.55,1.23,1.22,1.23h6.05c0.68,0,1.23-0.55,1.23-1.23v-2.8H66.16z
				"/>
		</g>
		<g>
			<path d="M75.41,85.9H65.4c-0.41,0-0.75-0.34-0.75-0.75c0-0.41,0.34-0.75,0.75-0.75h10.01c0.41,0,0.75,0.34,0.75,0.75
				C76.16,85.57,75.82,85.9,75.41,85.9z"/>
		</g>
		<g>
			<path d="M53.31,57.98h-5.43c-0.41,0-0.75-0.34-0.75-0.75c0-0.41,0.34-0.75,0.75-0.75h5.43c0.41,0,0.75,0.34,0.75,0.75
				C54.06,57.64,53.72,57.98,53.31,57.98z"/>
		</g>
		<g>
			<path d="M42.58,86.87H28.09c-0.4,0-0.73-0.31-0.75-0.71c-0.37-6.45-2.21-9.2-4-11.87c-1.67-2.5-3.26-4.87-3.26-9.81
				c0-8.41,6.84-15.26,15.24-15.26c8.41,0,15.25,6.84,15.25,15.26c0,4.94-1.58,7.3-3.26,9.81c-1.78,2.66-3.62,5.42-3.99,11.87
				C43.31,86.56,42.98,86.87,42.58,86.87z M28.79,85.37h13.09c0.49-6.37,2.45-9.3,4.2-11.91c1.61-2.41,3-4.49,3-8.97
				c0-7.58-6.17-13.75-13.75-13.75c-7.58,0-13.74,6.17-13.74,13.75c0,4.48,1.39,6.56,3,8.97C26.33,76.07,28.3,79.01,28.79,85.37z"/>
		</g>
		<g>
			<path d="M32.77,86.87c-0.09,0-0.17-0.01-0.26-0.05c-0.39-0.14-0.59-0.57-0.45-0.96c1.02-2.77-1.45-12.77-2.49-16.38
				c-0.11-0.4,0.12-0.81,0.51-0.93c0.39-0.11,0.81,0.12,0.93,0.51c0.4,1.38,3.83,13.58,2.45,17.32
				C33.36,86.68,33.07,86.87,32.77,86.87z"/>
		</g>
		<g>
			<path d="M38.11,86.87c-0.31,0-0.59-0.19-0.7-0.49c-1.37-3.73,2.06-15.94,2.46-17.31c0.11-0.4,0.53-0.63,0.93-0.51
				c0.4,0.11,0.63,0.53,0.51,0.93c-1.04,3.62-3.51,13.61-2.49,16.38c0.14,0.39-0.06,0.82-0.45,0.96
				C38.29,86.86,38.2,86.87,38.11,86.87z"/>
		</g>
		<g>
			<path d="M41.7,91.72H28.96c-1.03,0-1.86-0.83-1.86-1.86v-2.63c0-1.03,0.83-1.86,1.86-1.86H41.7c1.03,0,1.86,0.84,1.86,1.86v2.63
				C43.56,90.89,42.73,91.72,41.7,91.72z M28.96,86.87c-0.19,0-0.36,0.17-0.36,0.36v2.63c0,0.19,0.17,0.36,0.36,0.36H41.7
				c0.2,0,0.36-0.16,0.36-0.36v-2.63c0-0.2-0.16-0.36-0.36-0.36H28.96z"/>
		</g>
		<g>
			<path d="M35.33,96.2c-2.71,0-4.91-2.2-4.91-4.9c0-0.14,0.01-0.27,0.02-0.39c0.04-0.38,0.36-0.68,0.75-0.68h8.29
				c0.39,0,0.71,0.29,0.75,0.68c0.01,0.13,0.01,0.25,0.01,0.39C40.24,94,38.04,96.2,35.33,96.2z M31.95,91.72
				c0.21,1.67,1.65,2.97,3.38,2.97c1.74,0,3.17-1.3,3.39-2.97H31.95z"/>
		</g>
		<g>
			<path d="M27.46,69.04c-0.14,0-0.29-0.04-0.42-0.13c-0.34-0.23-0.44-0.7-0.21-1.04l3.37-5.04c0.13-0.19,0.33-0.31,0.56-0.33
				c0.23-0.03,0.45,0.07,0.61,0.23l4.01,4.27l4.45-4.1c0.16-0.14,0.37-0.21,0.58-0.19c0.21,0.02,0.41,0.13,0.53,0.31l3.32,4.6
				c0.24,0.34,0.17,0.8-0.17,1.05c-0.34,0.24-0.8,0.17-1.05-0.17l-2.82-3.91l-4.38,4.03c-0.3,0.28-0.77,0.26-1.05-0.04l-3.87-4.13
				l-2.84,4.26C27.94,68.92,27.71,69.04,27.46,69.04z"/>
		</g>
	</g>
</g>
</svg>
