<?xml version="1.0" encoding="utf-8"?>
<!-- Generator: Adobe Illustrator 24.1.2, SVG Export Plug-In . SVG Version: 6.00 Build 0)  -->
<svg version="1.1" id="Layer_1" xmlns="http://www.w3.org/2000/svg" xmlns:xlink="http://www.w3.org/1999/xlink" x="0px" y="0px"
	 viewBox="0 0 100 100" style="enable-background:new 0 0 100 100;" xml:space="preserve">
<style type="text/css">
	.st0{fill:none;stroke:#000000;stroke-width:1.3;stroke-linecap:round;stroke-linejoin:round;stroke-miterlimit:2.6131;}
	.st1{fill:#FFFFFF;stroke:#000000;stroke-width:1.3;stroke-linecap:round;stroke-linejoin:round;stroke-miterlimit:2.6131;}
	.st2{fill:#FFFFFF;stroke:#000000;stroke-width:1.5;stroke-miterlimit:10;}
	.st3{fill:#231F20;}
</style>
<g>
	<path class="st0" d="M14.45,66.99h-0.82H8.75v-9.22c0-5.08,4.15-9.22,9.22-9.22h3.75l5.12,10.41l5.12-10.41h3.79
		c5.04,0,9.21,4.15,9.21,9.22v9.22H39.3H14.45z"/>
	<path class="st0" d="M26.85,26.19c5.26,0,9.52,4.28,9.52,9.52c0,5.27-4.26,9.53-9.52,9.53s-9.52-4.26-9.52-9.53
		C17.34,30.46,21.6,26.19,26.85,26.19z"/>
	<line class="st0" x1="14.45" y1="60.87" x2="14.45" y2="66.99"/>
	<line class="st0" x1="39.29" y1="60.87" x2="39.29" y2="66.99"/>
</g>
<g>
	<path class="st0" d="M66.04,68.95h-0.82h-4.88v-9.22c0-5.08,4.15-9.22,9.22-9.22h3.75l5.12,10.41l5.12-10.41h3.79
		c5.04,0,9.21,4.15,9.21,9.22v9.22h-5.66H66.04z"/>
	<path class="st0" d="M78.44,28.14c5.26,0,9.52,4.28,9.52,9.52c0,5.27-4.26,9.53-9.52,9.53c-5.26,0-9.52-4.26-9.52-9.53
		C68.93,32.42,73.19,28.14,78.44,28.14z"/>
	<line class="st0" x1="66.04" y1="62.83" x2="66.04" y2="68.95"/>
	<line class="st0" x1="90.88" y1="62.83" x2="90.88" y2="68.95"/>
</g>
<g>
	<path class="st1" d="M38.4,72.46h-0.82h-4.88v-9.22c0-5.08,4.15-9.22,9.22-9.22h3.75l5.12,10.41l5.12-10.41h3.79
		c5.04,0,9.21,4.15,9.21,9.22v9.22h-5.66H38.4z"/>
	<path class="st1" d="M50.81,31.66c5.26,0,9.52,4.28,9.52,9.52c0,5.27-4.26,9.53-9.52,9.53s-9.52-4.26-9.52-9.53
		C41.29,35.93,45.55,31.66,50.81,31.66z"/>
	<line class="st1" x1="38.4" y1="66.34" x2="38.4" y2="72.46"/>
	<line class="st1" x1="63.25" y1="66.34" x2="63.25" y2="72.46"/>
</g>
<g>
	<circle class="st2" cx="87.96" cy="69.4" r="9.49"/>
	<g id="XMLID_5947_">
		<path id="XMLID_5948_" class="st3" d="M86.06,71.65l-0.97-1.14c-0.24-0.29-0.68-0.32-0.96-0.07c-0.28,0.24-0.32,0.68-0.07,0.96
			l1.42,1.66c0.12,0.14,0.29,0.23,0.47,0.24c0.02,0,0.03,0,0.05,0c0.17,0,0.33-0.06,0.45-0.17l5.35-4.76
			c0.28-0.25,0.31-0.68,0.06-0.96c-0.25-0.28-0.68-0.31-0.97-0.06L86.06,71.65z"/>
	</g>
</g>
</svg>
