<?xml version="1.0" encoding="utf-8"?>
<!-- Generator: Adobe Illustrator 24.1.2, SVG Export Plug-In . SVG Version: 6.00 Build 0)  -->
<svg version="1.1" id="Layer_1" xmlns="http://www.w3.org/2000/svg" xmlns:xlink="http://www.w3.org/1999/xlink" x="0px" y="0px"
	 viewBox="0 0 100 100" style="enable-background:new 0 0 100 100;" xml:space="preserve">
<style type="text/css">
	.st0{fill:none;stroke:#000000;stroke-width:1.3;stroke-linecap:round;stroke-linejoin:round;stroke-miterlimit:10;}
	.st1{fill:none;stroke:#000000;stroke-width:1.3;stroke-linecap:round;stroke-linejoin:round;stroke-miterlimit:2.6131;}
</style>
<g>
	<g>
		<g id="XMLID_233_">
			<g>
				<polygon class="st0" points="81.45,17.76 81.45,41.82 65.99,41.82 65.98,41.82 50.53,41.82 50.53,41.62 50.53,17.76 				"/>
				<path class="st0" d="M78.34,58.23c3.22,0,5.83,2.62,5.83,5.83c0,3.23-2.61,5.84-5.83,5.84c-3.22,0-5.83-2.61-5.83-5.84
					C72.51,60.85,75.11,58.23,78.34,58.23z"/>
				<path class="st0" d="M89.42,77.59v5.65h-3.47H70.74h-0.5h-2.99v-5.65c0-3.11,2.54-5.65,5.65-5.65h2.3l3.14,6.38l3.14-6.38h2.32
					C86.88,71.95,89.42,74.49,89.42,77.59z"/>
				<path class="st0" d="M56.34,64.07c0,3.23-2.62,5.84-5.84,5.84c-3.22,0-5.83-2.61-5.83-5.84c0-3.21,2.61-5.83,5.83-5.83
					C53.72,58.23,56.34,60.85,56.34,64.07z"/>
				<path class="st0" d="M61.59,77.59v5.65h-3.48H42.89H42.4h-2.98v-5.65c0-3.11,2.53-5.65,5.64-5.65h2.31l3.14,6.38l3.13-6.38h2.31
					C59.06,71.95,61.59,74.49,61.59,77.59z"/>
				<path class="st0" d="M34.53,24.43c0,3.23-2.61,5.83-5.84,5.83c-3.21,0-5.83-2.6-5.83-5.83c0-3.21,2.62-5.83,5.83-5.83
					C31.92,18.6,34.53,21.22,34.53,24.43z"/>
				<path class="st0" d="M22.66,58.23c3.22,0,5.83,2.62,5.83,5.83c0,3.23-2.61,5.84-5.83,5.84s-5.83-2.61-5.83-5.84
					C16.83,60.85,19.44,58.23,22.66,58.23z"/>
				<path class="st0" d="M34.14,32.31c3.11,0,5.64,2.54,5.64,5.64v5.64H36.3H21.08H20.6h-2.99v-5.64c0-3.1,2.54-5.64,5.64-5.64h2.32
					l3.13,6.37l3.14-6.37H34.14z"/>
				<path class="st0" d="M33.75,77.59v5.65h-3.48H15.05h-0.49h-2.99v-5.65c0-3.11,2.54-5.65,5.64-5.65h2.31l3.14,6.38l3.14-6.38
					h2.31C31.21,71.95,33.75,74.49,33.75,77.59z"/>
			</g>
			<g>
				<path class="st0" d="M21.08,43.59H20.6h-2.99v-5.64c0-3.1,2.54-5.64,5.64-5.64h2.32l3.13,6.37l3.14-6.37h2.31
					c3.11,0,5.64,2.54,5.64,5.64v5.64H36.3H21.08z"/>
				<path class="st0" d="M28.69,18.6c3.23,0,5.84,2.62,5.84,5.83c0,3.23-2.61,5.83-5.84,5.83c-3.21,0-5.83-2.6-5.83-5.83
					C22.86,21.22,25.47,18.6,28.69,18.6z"/>
				<line class="st0" x1="21.08" y1="39.84" x2="21.08" y2="43.59"/>
				<line class="st1" x1="36.3" y1="39.84" x2="36.3" y2="43.59"/>
				<line class="st1" x1="83.39" y1="17.76" x2="81.45" y2="17.76"/>
				<line class="st1" x1="81.45" y1="17.76" x2="50.53" y2="17.76"/>
				<line class="st1" x1="50.53" y1="17.76" x2="48.59" y2="17.76"/>
				<line class="st1" x1="83.39" y1="41.82" x2="81.45" y2="41.82"/>
				<line class="st1" x1="81.45" y1="41.82" x2="65.99" y2="41.82"/>
				<line class="st1" x1="65.99" y1="41.82" x2="65.98" y2="41.82"/>
				<line class="st1" x1="65.98" y1="41.82" x2="50.53" y2="41.82"/>
				<line class="st1" x1="50.53" y1="41.82" x2="48.46" y2="41.82"/>
				<line class="st1" x1="50.53" y1="41.62" x2="50.53" y2="17.76"/>
				<line class="st1" x1="81.45" y1="41.82" x2="81.45" y2="17.76"/>
				<polyline class="st1" points="65.99,41.82 65.98,41.83 56.18,51.96 				"/>
				<line class="st1" x1="65.99" y1="41.82" x2="75.79" y2="51.96"/>
				<polyline class="st1" points="65.98,41.82 65.98,41.83 66,52.25 				"/>
				<line class="st1" x1="56.58" y1="35.37" x2="56.58" y2="24.21"/>
				<line class="st1" x1="62.86" y1="35.37" x2="62.86" y2="29.27"/>
				<line class="st1" x1="69.13" y1="35.37" x2="69.13" y2="24.21"/>
				<line class="st1" x1="75.39" y1="35.37" x2="75.39" y2="32.05"/>
				<path class="st1" d="M15.05,83.24h-0.49h-2.99v-5.65c0-3.11,2.54-5.65,5.64-5.65h2.31l3.14,6.38l3.14-6.38h2.31
					c3.1,0,5.64,2.54,5.64,5.65v5.65h-3.48H15.05z"/>
				<path class="st1" d="M22.66,58.23c3.22,0,5.83,2.62,5.83,5.83c0,3.23-2.61,5.84-5.83,5.84s-5.83-2.61-5.83-5.84
					C16.83,60.85,19.44,58.23,22.66,58.23z"/>
				<line class="st1" x1="15.05" y1="79.49" x2="15.05" y2="83.24"/>
				<line class="st1" x1="30.27" y1="79.49" x2="30.27" y2="83.24"/>
				<path class="st1" d="M42.89,83.24H42.4h-2.98v-5.65c0-3.11,2.53-5.65,5.64-5.65h2.31l3.14,6.38l3.13-6.38h2.31
					c3.12,0,5.65,2.54,5.65,5.65v5.65h-3.48H42.89z"/>
				<path class="st1" d="M50.5,58.23c3.22,0,5.84,2.62,5.84,5.83c0,3.23-2.62,5.84-5.84,5.84c-3.22,0-5.83-2.61-5.83-5.84
					C44.67,60.85,47.28,58.23,50.5,58.23z"/>
				<line class="st1" x1="42.89" y1="79.49" x2="42.89" y2="83.24"/>
				<line class="st1" x1="58.11" y1="79.49" x2="58.11" y2="83.24"/>
				<path class="st1" d="M70.74,83.24h-0.5h-2.99v-5.65c0-3.11,2.54-5.65,5.65-5.65h2.3l3.14,6.38l3.14-6.38h2.32
					c3.09,0,5.64,2.54,5.64,5.65v5.65h-3.47H70.74z"/>
				<path class="st1" d="M78.34,58.23c3.22,0,5.83,2.62,5.83,5.83c0,3.23-2.61,5.84-5.83,5.84c-3.22,0-5.83-2.61-5.83-5.84
					C72.51,60.85,75.11,58.23,78.34,58.23z"/>
				<line class="st1" x1="70.74" y1="79.49" x2="70.74" y2="83.24"/>
				<line class="st1" x1="85.96" y1="79.49" x2="85.96" y2="83.24"/>
			</g>
		</g>
	</g>
</g>
</svg>
