<?xml version="1.0" encoding="utf-8"?>
<!-- Generator: Adobe Illustrator 24.1.2, SVG Export Plug-In . SVG Version: 6.00 Build 0)  -->
<svg version="1.1" id="Layer_1" xmlns="http://www.w3.org/2000/svg" xmlns:xlink="http://www.w3.org/1999/xlink" x="0px" y="0px"
	 viewBox="0 0 100 100" style="enable-background:new 0 0 100 100;" xml:space="preserve">
<g>
	<g>
		<g>
			<path d="M27.88,23.53c-3.47,0-6.3-2.82-6.3-6.29c0-3.47,2.83-6.3,6.3-6.3c3.47,0,6.3,2.82,6.3,6.3
				C34.17,20.71,31.35,23.53,27.88,23.53z M27.88,12.25c-2.75,0-5,2.24-5,5c0,2.75,2.24,4.99,5,4.99c2.76,0,5-2.24,5-4.99
				C32.87,14.49,30.63,12.25,27.88,12.25z"/>
		</g>
		<g>
			<path d="M36.51,42.94c-1.4,0-2.53-1.13-2.53-2.52v-2.27c0-0.36,0.29-0.65,0.65-0.65c0.36,0,0.65,0.29,0.65,0.65v2.27
				c0,0.66,0.56,1.22,1.23,1.22c0.73,0,1.17-0.64,1.23-1.28l0-8.83c0-2.96-2.41-5.36-5.37-5.36h-8.68c-2.96,0-5.37,2.41-5.37,5.36
				v8.89c0,0.67,0.55,1.22,1.23,1.22c0.67,0,1.23-0.56,1.23-1.22v-2.27c0-0.36,0.29-0.65,0.65-0.65s0.65,0.29,0.65,0.65v2.27
				c0,1.39-1.14,2.52-2.53,2.52c-1.4,0-2.53-1.13-2.53-2.52v-8.89c0-3.67,2.99-6.66,6.67-6.66h8.68c3.68,0,6.67,2.99,6.67,6.66v8.89
				C38.9,41.91,37.84,42.94,36.51,42.94z"/>
		</g>
		<g>
			<path d="M34.62,46.49H21.43c-0.36,0-0.65-0.29-0.65-0.65v-10.1c0-0.36,0.29-0.65,0.65-0.65s0.65,0.29,0.65,0.65v9.45h11.89v-9.45
				c0-0.36,0.29-0.65,0.65-0.65c0.36,0,0.65,0.29,0.65,0.65v10.1C35.27,46.19,34.98,46.49,34.62,46.49z"/>
		</g>
		<g>
			<path d="M28.03,37.43c-0.36,0-0.65-0.29-0.65-0.65v-7.75h-1.49c-0.36,0-0.65-0.29-0.65-0.65c0-0.36,0.29-0.65,0.65-0.65h4.28
				c0.36,0,0.65,0.29,0.65,0.65c0,0.36-0.29,0.65-0.65,0.65h-1.49v7.75C28.68,37.14,28.39,37.43,28.03,37.43z"/>
		</g>
		<g>
			<path d="M64.74,67.1c-3.47,0-6.29-2.82-6.29-6.29c0-3.47,2.82-6.3,6.29-6.3c3.47,0,6.3,2.82,6.3,6.3
				C71.04,64.28,68.22,67.1,64.74,67.1z M64.74,55.81c-2.75,0-4.99,2.24-4.99,5c0,2.75,2.24,4.99,4.99,4.99c2.76,0,5-2.24,5-4.99
				C69.74,58.06,67.5,55.81,64.74,55.81z"/>
		</g>
		<g>
			<path d="M60.95,61.15c-0.7,0-1.38-0.11-2.03-0.34c-0.34-0.12-0.52-0.49-0.41-0.83c0.12-0.34,0.49-0.52,0.83-0.41
				c0.51,0.18,1.06,0.26,1.61,0.26c1.6,0,3.05-0.73,4-2c0.1-0.14,0.26-0.23,0.44-0.26c0.17-0.02,0.35,0.03,0.49,0.14
				c1.17,0.94,2.75,1.3,4.2,1c0.35-0.07,0.7,0.15,0.77,0.5c0.07,0.35-0.15,0.7-0.5,0.77c-1.62,0.34-3.36,0.02-4.76-0.88
				C64.4,60.4,62.71,61.15,60.95,61.15z"/>
		</g>
		<g>
			<path d="M73.37,86.51c-1.39,0-2.52-1.14-2.52-2.53v-2.26c0-0.36,0.29-0.65,0.65-0.65c0.36,0,0.65,0.29,0.65,0.65v2.26
				c0,0.68,0.55,1.23,1.22,1.23c0.76,0,1.18-0.66,1.24-1.28l0-8.83c0-2.96-2.41-5.36-5.36-5.36h-8.69c-2.96,0-5.36,2.41-5.36,5.36
				v8.89c0,0.67,0.55,1.21,1.22,1.21c0.68,0,1.23-0.55,1.23-1.23v-2.26c0-0.36,0.29-0.65,0.65-0.65c0.36,0,0.65,0.29,0.65,0.65v2.26
				c0,1.4-1.14,2.53-2.53,2.53c-1.39,0-2.52-1.13-2.52-2.52V75.1c0-3.67,2.99-6.66,6.66-6.66h8.69c3.67,0,6.66,2.99,6.66,6.66v8.89
				C75.76,85.48,74.69,86.51,73.37,86.51z"/>
		</g>
		<g>
			<path d="M71.49,90.06h-13.2c-0.36,0-0.65-0.29-0.65-0.65V79.3c0-0.36,0.29-0.65,0.65-0.65c0.36,0,0.65,0.29,0.65,0.65v9.45h11.9
				V79.3c0-0.36,0.29-0.65,0.65-0.65c0.36,0,0.65,0.29,0.65,0.65v10.1C72.14,89.76,71.85,90.06,71.49,90.06z"/>
		</g>
		<g>
			<path d="M64.89,81c-0.36,0-0.65-0.29-0.65-0.65v-7.75h-1.48c-0.36,0-0.65-0.29-0.65-0.65c0-0.36,0.29-0.65,0.65-0.65h4.27
				c0.36,0,0.65,0.29,0.65,0.65c0,0.36-0.29,0.65-0.65,0.65h-1.49v7.75C65.54,80.71,65.25,81,64.89,81z"/>
		</g>
		<g>
			<path d="M51.59,52.5c-0.11,0-0.22-0.03-0.32-0.08c-0.24-0.13-0.37-0.39-0.33-0.66l1.31-8.97h-5.8c-0.36,0-0.65-0.29-0.65-0.65
				V18.36c0-0.36,0.29-0.65,0.65-0.65h36.87c0.36,0,0.65,0.29,0.65,0.65v23.78c0,0.36-0.29,0.65-0.65,0.65H63.38L52,52.35
				C51.88,52.45,51.73,52.5,51.59,52.5z M47.11,41.49h5.9c0.19,0,0.37,0.08,0.49,0.23c0.12,0.14,0.18,0.33,0.15,0.52l-1.17,8.02
				l10.25-8.61c0.12-0.1,0.26-0.15,0.42-0.15h19.53V19.01H47.11V41.49z"/>
		</g>
		<g>
			<path d="M69.31,23.01H53.06c-0.36,0-0.65-0.29-0.65-0.65s0.29-0.65,0.65-0.65h16.25c0.36,0,0.65,0.29,0.65,0.65
				S69.67,23.01,69.31,23.01z"/>
		</g>
		<g>
			<path d="M76.73,23.01h-4.09c-0.36,0-0.65-0.29-0.65-0.65s0.29-0.65,0.65-0.65h4.09c0.36,0,0.65,0.29,0.65,0.65
				S77.09,23.01,76.73,23.01z"/>
		</g>
		<g>
			<path d="M24.16,17.58c-0.7,0-1.38-0.11-2.03-0.34c-0.34-0.12-0.52-0.49-0.4-0.83c0.12-0.34,0.49-0.52,0.83-0.4
				c0.51,0.18,1.05,0.27,1.6,0.27c1.59,0,3.05-0.73,4-2c0.11-0.14,0.26-0.23,0.44-0.25c0.18-0.02,0.35,0.03,0.49,0.14
				c0.91,0.72,1.99,1.1,3.14,1.1c0.37,0,0.72-0.04,1.05-0.11c0.34-0.08,0.7,0.15,0.77,0.5c0.08,0.35-0.15,0.7-0.5,0.77
				c-0.42,0.09-0.86,0.14-1.32,0.14c-1.21,0-2.41-0.36-3.43-1.02C27.6,16.85,25.95,17.58,24.16,17.58z"/>
		</g>
		<g>
			<path d="M47.92,81.63H27.2c-0.36,0-0.65-0.29-0.65-0.65V48.51c0-0.36,0.29-0.65,0.65-0.65c0.36,0,0.65,0.29,0.65,0.65v31.81
				h20.07c0.36,0,0.65,0.29,0.65,0.65S48.28,81.63,47.92,81.63z"/>
		</g>
		<g>
			<path d="M76.73,26.73H60.48c-0.36,0-0.65-0.29-0.65-0.65c0-0.36,0.29-0.65,0.65-0.65h16.25c0.36,0,0.65,0.29,0.65,0.65
				C77.38,26.44,77.09,26.73,76.73,26.73z"/>
		</g>
		<g>
			<path d="M57.15,26.73h-4.09c-0.36,0-0.65-0.29-0.65-0.65c0-0.36,0.29-0.65,0.65-0.65h4.09c0.36,0,0.65,0.29,0.65,0.65
				C57.8,26.44,57.51,26.73,57.15,26.73z"/>
		</g>
		<g>
			<path d="M69.31,30.46H53.06c-0.36,0-0.65-0.29-0.65-0.65s0.29-0.65,0.65-0.65h16.25c0.36,0,0.65,0.29,0.65,0.65
				S69.67,30.46,69.31,30.46z"/>
		</g>
		<g>
			<path d="M76.73,30.46h-4.09c-0.36,0-0.65-0.29-0.65-0.65s0.29-0.65,0.65-0.65h4.09c0.36,0,0.65,0.29,0.65,0.65
				S77.09,30.46,76.73,30.46z"/>
		</g>
		<g>
			<path d="M76.73,34.19H60.48c-0.36,0-0.65-0.29-0.65-0.65c0-0.36,0.29-0.65,0.65-0.65h16.25c0.36,0,0.65,0.29,0.65,0.65
				C77.38,33.9,77.09,34.19,76.73,34.19z"/>
		</g>
		<g>
			<path d="M57.15,34.19h-4.09c-0.36,0-0.65-0.29-0.65-0.65c0-0.36,0.29-0.65,0.65-0.65h4.09c0.36,0,0.65,0.29,0.65,0.65
				C57.8,33.9,57.51,34.19,57.15,34.19z"/>
		</g>
		<g>
			<path d="M69.31,37.91H53.06c-0.36,0-0.65-0.29-0.65-0.65c0-0.36,0.29-0.65,0.65-0.65h16.25c0.36,0,0.65,0.29,0.65,0.65
				C69.96,37.62,69.67,37.91,69.31,37.91z"/>
		</g>
		<g>
			<path d="M76.73,37.91h-4.09c-0.36,0-0.65-0.29-0.65-0.65c0-0.36,0.29-0.65,0.65-0.65h4.09c0.36,0,0.65,0.29,0.65,0.65
				C77.38,37.62,77.09,37.91,76.73,37.91z"/>
		</g>
	</g>
</g>
</svg>
