<?xml version="1.0" encoding="utf-8"?>
<!-- Generator: Adobe Illustrator 23.0.1, SVG Export Plug-In . SVG Version: 6.00 Build 0)  -->
<svg version="1.1" id="Layer_1" xmlns="http://www.w3.org/2000/svg" xmlns:xlink="http://www.w3.org/1999/xlink" x="0px" y="0px"
	 viewBox="0 0 855 281.8" style="enable-background:new 0 0 855 281.8;" xml:space="preserve">
<style type="text/css">
	.st0{fill:none;stroke:#D9D9F9;}
	.st1{fill:#F1F3F5;}
	.st2{opacity:0.5;fill:#D9D9F9;enable-background:new    ;}
	.st3{fill:#353590;}
	.st4{enable-background:new    ;}
</style>
<path class="st0" d="M43,32h707"/>
<path class="st0" d="M74,240h676"/>
<path class="st0" d="M750,240c57.4,0,104-46.6,104-104S807.4,32,750,32"/>
<g>
	<path class="st1" d="M101.4,40.9c-2.4,3.2-5.8,4.8-10.2,4.8s-7.8-1.6-10.3-4.8c-2.4-3.2-3.6-7.5-3.6-12.8s1.2-9.6,3.6-12.7
		c2.5-3.2,5.9-4.8,10.3-4.8s7.8,1.6,10.2,4.8c2.5,3.2,3.7,7.4,3.7,12.7S103.9,37.7,101.4,40.9z M85.9,28.1c0,6.1,1.8,9.2,5.3,9.2
		c3.6,0,5.3-3.1,5.3-9.2s-1.7-9.2-5.3-9.2C87.7,18.9,85.9,22,85.9,28.1z M115,11.3h7.4v33.6h-8.6V20.3l-5.9,1.5l-2.1-7.2L115,11.3z"
		/>
	<circle class="st2" cx="101.1" cy="31.9" r="12"/>
	<circle class="st3" cx="101.1" cy="31.9" r="6"/>
</g>
<g class="st4">
	<path d="M38.1,64.8c0.6-0.1,1.5-0.2,2.4-0.2c1.2,0,2,0.2,2.6,0.6c0.5,0.4,0.8,1,0.8,1.7c0,1-0.7,1.7-1.4,2v0
		c0.6,0.2,0.9,0.8,1.1,1.5c0.3,0.9,0.5,2,0.6,2.3h-1.9c-0.1-0.2-0.3-0.9-0.6-1.9c-0.2-1-0.6-1.3-1.3-1.3h-0.5v3.2h-1.8V64.8z
		 M39.9,68.3h0.7c0.9,0,1.5-0.5,1.5-1.2c0-0.7-0.5-1.1-1.3-1.1c-0.4,0-0.7,0-0.8,0.1V68.3z"/>
	<path d="M46.5,70.4c0,0.8,0.8,1.1,1.7,1.1c0.6,0,1.1-0.1,1.6-0.3l0.2,1.2c-0.6,0.3-1.3,0.4-2.1,0.4c-2,0-3.1-1.2-3.1-3
		c0-1.5,0.9-3.1,3-3.1c1.9,0,2.6,1.5,2.6,2.9c0,0.3,0,0.6-0.1,0.7H46.5z M48.7,69.2c0-0.4-0.2-1.2-1-1.2c-0.8,0-1.1,0.7-1.1,1.2
		H48.7z"/>
	<path d="M55.3,72L55.3,72c-0.4,0.6-1,0.9-1.8,0.9c-1.3,0-2.4-1.1-2.4-3c0-2.1,1.3-3.2,2.6-3.2c0.8,0,1.3,0.3,1.6,0.8l0,0l0-0.7h1.8
		c0,0.6,0,1.2,0,1.8v6.5h-1.8V72z M55.3,69.4c0-0.1,0-0.2,0-0.3c-0.1-0.5-0.5-0.9-1.1-0.9c-0.8,0-1.3,0.7-1.3,1.7
		c0,1,0.5,1.6,1.2,1.6c0.5,0,0.9-0.3,1.1-0.8c0-0.1,0-0.3,0-0.4V69.4z"/>
	<path d="M64.1,70.9c0,0.8,0,1.4,0,1.9h-1.6l-0.1-0.8h0c-0.2,0.4-0.8,1-1.8,1c-1.2,0-2.1-0.7-2.1-2.6v-3.4h1.8v3.2
		c0,0.9,0.3,1.4,0.9,1.4c0.5,0,0.8-0.3,0.9-0.6c0-0.1,0.1-0.2,0.1-0.4v-3.5h1.8V70.9z"/>
	<path d="M67.5,65.3c0,0.5-0.4,0.9-1,0.9c-0.6,0-0.9-0.4-0.9-0.9c0-0.5,0.4-0.9,1-0.9C67.1,64.4,67.5,64.8,67.5,65.3z M65.6,72.8
		v-5.9h1.8v5.9H65.6z"/>
	<path d="M68.9,68.8c0-0.9,0-1.4,0-1.9h1.6l0.1,1.1h0c0.3-0.9,1-1.2,1.6-1.2c0.2,0,0.3,0,0.4,0v1.7c-0.1,0-0.3,0-0.5,0
		c-0.7,0-1.1,0.4-1.2,0.9c0,0.1,0,0.3,0,0.4v3h-1.8V68.8z"/>
	<path d="M74.8,70.4c0,0.8,0.8,1.1,1.7,1.1c0.6,0,1.1-0.1,1.6-0.3l0.2,1.2c-0.6,0.3-1.3,0.4-2.1,0.4c-2,0-3.1-1.2-3.1-3
		c0-1.5,0.9-3.1,3-3.1c1.9,0,2.6,1.5,2.6,2.9c0,0.3,0,0.6-0.1,0.7H74.8z M76.9,69.2c0-0.4-0.2-1.2-1-1.2c-0.8,0-1.1,0.7-1.1,1.2
		H76.9z"/>
	<path d="M79.7,68.8c0-0.7,0-1.3,0-1.9h1.5l0.1,0.8h0c0.3-0.4,0.8-0.9,1.8-0.9c0.8,0,1.4,0.4,1.6,1h0c0.2-0.3,0.5-0.6,0.8-0.7
		c0.3-0.2,0.7-0.3,1.1-0.3c1.1,0,2,0.8,2,2.6v3.5h-1.8v-3.2c0-0.9-0.3-1.3-0.9-1.3c-0.4,0-0.7,0.3-0.9,0.6c0,0.1-0.1,0.3-0.1,0.5
		v3.4h-1.8v-3.3c0-0.7-0.3-1.2-0.9-1.2c-0.5,0-0.7,0.4-0.9,0.6c-0.1,0.1-0.1,0.3-0.1,0.5v3.4h-1.8V68.8z"/>
	<path d="M91.4,70.4c0,0.8,0.8,1.1,1.7,1.1c0.6,0,1.1-0.1,1.6-0.3l0.2,1.2c-0.6,0.3-1.3,0.4-2.1,0.4c-2,0-3.1-1.2-3.1-3
		c0-1.5,0.9-3.1,3-3.1c1.9,0,2.6,1.5,2.6,2.9c0,0.3,0,0.6-0.1,0.7H91.4z M93.6,69.2c0-0.4-0.2-1.2-1-1.2c-0.8,0-1.1,0.7-1.1,1.2
		H93.6z"/>
	<path d="M96.4,68.8c0-0.7,0-1.3,0-1.9h1.6l0.1,0.8h0c0.2-0.4,0.8-0.9,1.8-0.9c1.2,0,2.1,0.8,2.1,2.5v3.5h-1.8v-3.3
		c0-0.8-0.3-1.3-0.9-1.3c-0.5,0-0.8,0.3-0.9,0.7c0,0.1-0.1,0.3-0.1,0.5v3.4h-1.8V68.8z"/>
	<path d="M105.4,65.3v1.6h1.3v1.3h-1.3v2.1c0,0.7,0.2,1,0.7,1c0.3,0,0.4,0,0.5,0l0,1.4c-0.2,0.1-0.7,0.2-1.2,0.2
		c-0.6,0-1.1-0.2-1.4-0.5c-0.3-0.3-0.5-0.9-0.5-1.7v-2.4h-0.8v-1.3h0.8v-1.1L105.4,65.3z"/>
	<path d="M115.7,71.9c0,1.1-0.2,2.1-0.9,2.6c-0.6,0.6-1.5,0.7-2.4,0.7c-0.8,0-1.6-0.2-2.1-0.4l0.4-1.4c0.4,0.2,1,0.4,1.7,0.4
		c0.9,0,1.5-0.5,1.5-1.5V72h0c-0.3,0.5-0.9,0.8-1.6,0.8c-1.5,0-2.5-1.2-2.5-2.9c0-1.9,1.2-3.1,2.7-3.1c0.8,0,1.3,0.3,1.6,0.8h0
		l0.1-0.7h1.6c0,0.4,0,0.9,0,1.8V71.9z M113.9,69.3c0-0.1,0-0.2,0-0.3c-0.1-0.5-0.5-0.8-1-0.8c-0.7,0-1.2,0.6-1.2,1.7
		c0,0.9,0.4,1.6,1.2,1.6c0.5,0,0.9-0.3,1-0.7c0-0.1,0.1-0.3,0.1-0.5V69.3z"/>
	<path d="M122,71.3c0,0.6,0,1.1,0.1,1.4h-1.6l-0.1-0.6h0c-0.4,0.5-1,0.7-1.7,0.7c-1.2,0-1.9-0.9-1.9-1.8c0-1.5,1.4-2.2,3.4-2.2v-0.1
		c0-0.3-0.2-0.8-1.1-0.8c-0.6,0-1.2,0.2-1.6,0.4l-0.3-1.2c0.4-0.2,1.2-0.5,2.3-0.5c2,0,2.6,1.2,2.6,2.5V71.3z M120.3,70
		c-1,0-1.7,0.2-1.7,0.9c0,0.5,0.3,0.7,0.7,0.7c0.4,0,0.8-0.3,0.9-0.7c0-0.1,0-0.2,0-0.3V70z"/>
	<path d="M125.4,65.3v1.6h1.3v1.3h-1.3v2.1c0,0.7,0.2,1,0.7,1c0.3,0,0.4,0,0.5,0l0,1.4c-0.2,0.1-0.7,0.2-1.2,0.2
		c-0.6,0-1.1-0.2-1.4-0.5c-0.3-0.3-0.5-0.9-0.5-1.7v-2.4h-0.8v-1.3h0.8v-1.1L125.4,65.3z"/>
	<path d="M127.8,64.2h1.8v3.4h0c0.2-0.3,0.4-0.5,0.7-0.6c0.3-0.1,0.6-0.2,0.9-0.2c1.2,0,2.1,0.8,2.1,2.6v3.4h-1.8v-3.2
		c0-0.8-0.3-1.3-0.9-1.3c-0.5,0-0.8,0.3-0.9,0.6c0,0.1-0.1,0.3-0.1,0.4v3.5h-1.8V64.2z"/>
	<path d="M136.2,70.4c0,0.8,0.8,1.1,1.7,1.1c0.6,0,1.1-0.1,1.6-0.3l0.2,1.2c-0.6,0.3-1.3,0.4-2.1,0.4c-2,0-3.1-1.2-3.1-3
		c0-1.5,0.9-3.1,3-3.1c1.9,0,2.6,1.5,2.6,2.9c0,0.3,0,0.6-0.1,0.7H136.2z M138.4,69.2c0-0.4-0.2-1.2-1-1.2c-0.8,0-1.1,0.7-1.1,1.2
		H138.4z"/>
	<path d="M141.2,68.8c0-0.9,0-1.4,0-1.9h1.6l0.1,1.1h0c0.3-0.9,1-1.2,1.6-1.2c0.2,0,0.3,0,0.4,0v1.7c-0.1,0-0.3,0-0.5,0
		c-0.7,0-1.1,0.4-1.2,0.9c0,0.1,0,0.3,0,0.4v3h-1.8V68.8z"/>
	<path d="M147.6,65.3c0,0.5-0.4,0.9-1,0.9c-0.6,0-0.9-0.4-0.9-0.9c0-0.5,0.4-0.9,1-0.9C147.2,64.4,147.6,64.8,147.6,65.3z
		 M145.7,72.8v-5.9h1.8v5.9H145.7z"/>
	<path d="M149,68.8c0-0.7,0-1.3,0-1.9h1.6l0.1,0.8h0c0.2-0.4,0.8-0.9,1.8-0.9c1.2,0,2.1,0.8,2.1,2.5v3.5h-1.8v-3.3
		c0-0.8-0.3-1.3-0.9-1.3c-0.5,0-0.8,0.3-0.9,0.7c0,0.1-0.1,0.3-0.1,0.5v3.4H149V68.8z"/>
	<path d="M161.6,71.9c0,1.1-0.2,2.1-0.9,2.6c-0.6,0.6-1.5,0.7-2.4,0.7c-0.8,0-1.6-0.2-2.1-0.4l0.4-1.4c0.4,0.2,1,0.4,1.7,0.4
		c0.9,0,1.5-0.5,1.5-1.5V72h0c-0.3,0.5-0.9,0.8-1.6,0.8c-1.5,0-2.5-1.2-2.5-2.9c0-1.9,1.2-3.1,2.7-3.1c0.8,0,1.3,0.3,1.6,0.8h0
		l0.1-0.7h1.6c0,0.4,0,0.9,0,1.8V71.9z M159.8,69.3c0-0.1,0-0.2,0-0.3c-0.1-0.5-0.5-0.8-1-0.8c-0.7,0-1.2,0.6-1.2,1.7
		c0,0.9,0.4,1.6,1.2,1.6c0.5,0,0.9-0.3,1-0.7c0-0.1,0.1-0.3,0.1-0.5V69.3z"/>
</g>
<g>
	<path class="st1" d="M367,42.5c-2.4,3.2-5.8,4.8-10.2,4.8s-7.8-1.6-10.3-4.8c-2.4-3.2-3.6-7.5-3.6-12.8s1.2-9.6,3.6-12.7
		c2.5-3.2,5.9-4.8,10.3-4.8s7.8,1.6,10.2,4.8c2.5,3.2,3.7,7.4,3.7,12.7S369.4,39.3,367,42.5z M351.4,29.8c0,6.1,1.8,9.2,5.3,9.2
		s5.3-3.1,5.3-9.2s-1.8-9.2-5.3-9.2S351.4,23.7,351.4,29.8z M372.2,46.6v-6.2l11.1-11.8c1.1-1.2,1.9-2.2,2.4-2.9
		c0.5-0.8,0.8-1.5,0.8-2.3s-0.3-1.5-0.8-2s-1.2-0.8-2.2-0.8c-2,0-3.5,1.2-4.5,3.5l-7.4-4.1c1.1-2.5,2.7-4.4,4.8-5.8s4.4-2,7-2
		c3.2,0,5.9,1,8.2,2.9c2.3,1.9,3.5,4.5,3.5,7.8c0,2-0.5,3.8-1.4,5.4s-2.2,3.4-4,5.2l-4.6,4.8h10.6v8.3H372.2z"/>
	<circle class="st2" cx="369.6" cy="33.6" r="12"/>
	<circle class="st3" cx="369.6" cy="33.6" r="6"/>
</g>
<g class="st4">
	<path d="M268.9,66c0.6-0.1,1.5-0.2,2.4-0.2c1.2,0,2,0.2,2.6,0.6c0.5,0.4,0.8,1,0.8,1.7c0,1-0.7,1.7-1.4,2v0
		c0.6,0.2,0.9,0.8,1.1,1.5c0.3,0.9,0.5,2,0.6,2.3h-1.9c-0.1-0.2-0.3-0.9-0.6-1.9c-0.2-1-0.6-1.3-1.3-1.3h-0.5v3.2h-1.8V66z
		 M270.7,69.4h0.7c0.9,0,1.5-0.5,1.5-1.2c0-0.7-0.5-1.1-1.3-1.1c-0.4,0-0.7,0-0.8,0.1V69.4z"/>
	<path d="M277.4,71.6c0,0.8,0.8,1.1,1.7,1.1c0.6,0,1.1-0.1,1.6-0.3l0.2,1.2c-0.6,0.3-1.3,0.4-2.1,0.4c-2,0-3.1-1.2-3.1-3
		c0-1.5,0.9-3.1,3-3.1c1.9,0,2.6,1.5,2.6,2.9c0,0.3,0,0.6-0.1,0.7H277.4z M279.5,70.3c0-0.4-0.2-1.2-1-1.2c-0.8,0-1.1,0.7-1.1,1.2
		H279.5z"/>
	<path d="M286.1,73.2L286.1,73.2c-0.4,0.6-1,0.9-1.8,0.9c-1.3,0-2.4-1.1-2.4-3c0-2.1,1.3-3.2,2.6-3.2c0.8,0,1.3,0.3,1.6,0.8l0,0
		l0-0.7h1.8c0,0.6,0,1.2,0,1.8v6.5h-1.8V73.2z M286.1,70.5c0-0.1,0-0.2,0-0.3c-0.1-0.5-0.5-0.9-1.1-0.9c-0.8,0-1.3,0.7-1.3,1.7
		c0,1,0.5,1.6,1.2,1.6c0.5,0,0.9-0.3,1.1-0.8c0-0.1,0-0.3,0-0.4V70.5z"/>
	<path d="M295,72c0,0.8,0,1.4,0,1.9h-1.6l-0.1-0.8h0c-0.2,0.4-0.8,1-1.8,1c-1.2,0-2.1-0.7-2.1-2.6v-3.4h1.8v3.2
		c0,0.9,0.3,1.4,0.9,1.4c0.5,0,0.8-0.3,0.9-0.6c0-0.1,0.1-0.2,0.1-0.4v-3.5h1.8V72z"/>
	<path d="M298.3,66.4c0,0.5-0.4,0.9-1,0.9c-0.6,0-0.9-0.4-0.9-0.9c0-0.5,0.4-0.9,1-0.9C297.9,65.5,298.3,65.9,298.3,66.4z
		 M296.4,73.9v-5.9h1.8v5.9H296.4z"/>
	<path d="M299.7,70c0-0.9,0-1.4,0-1.9h1.6l0.1,1.1h0c0.3-0.9,1-1.2,1.6-1.2c0.2,0,0.3,0,0.4,0v1.7c-0.1,0-0.3,0-0.5,0
		c-0.7,0-1.1,0.4-1.2,0.9c0,0.1,0,0.3,0,0.4v3h-1.8V70z"/>
	<path d="M305.6,71.6c0,0.8,0.8,1.1,1.7,1.1c0.6,0,1.1-0.1,1.6-0.3l0.2,1.2c-0.6,0.3-1.3,0.4-2.1,0.4c-2,0-3.1-1.2-3.1-3
		c0-1.5,0.9-3.1,3-3.1c1.9,0,2.6,1.5,2.6,2.9c0,0.3,0,0.6-0.1,0.7H305.6z M307.7,70.3c0-0.4-0.2-1.2-1-1.2c-0.8,0-1.1,0.7-1.1,1.2
		H307.7z"/>
	<path d="M310.5,69.9c0-0.7,0-1.3,0-1.9h1.5l0.1,0.8h0c0.3-0.4,0.8-0.9,1.8-0.9c0.8,0,1.4,0.4,1.6,1h0c0.2-0.3,0.5-0.6,0.8-0.7
		c0.3-0.2,0.7-0.3,1.1-0.3c1.1,0,2,0.8,2,2.6v3.5h-1.8v-3.2c0-0.9-0.3-1.3-0.9-1.3c-0.4,0-0.7,0.3-0.9,0.6c0,0.1-0.1,0.3-0.1,0.5
		v3.4h-1.8v-3.3c0-0.7-0.3-1.2-0.9-1.2c-0.5,0-0.7,0.4-0.9,0.6c-0.1,0.1-0.1,0.3-0.1,0.5v3.4h-1.8V69.9z"/>
	<path d="M322.2,71.6c0,0.8,0.8,1.1,1.7,1.1c0.6,0,1.1-0.1,1.6-0.3l0.2,1.2c-0.6,0.3-1.3,0.4-2.1,0.4c-2,0-3.1-1.2-3.1-3
		c0-1.5,0.9-3.1,3-3.1c1.9,0,2.6,1.5,2.6,2.9c0,0.3,0,0.6-0.1,0.7H322.2z M324.4,70.3c0-0.4-0.2-1.2-1-1.2c-0.8,0-1.1,0.7-1.1,1.2
		H324.4z"/>
	<path d="M327.2,69.9c0-0.7,0-1.3,0-1.9h1.6l0.1,0.8h0c0.2-0.4,0.8-0.9,1.8-0.9c1.2,0,2.1,0.8,2.1,2.5v3.5h-1.8v-3.3
		c0-0.8-0.3-1.3-0.9-1.3c-0.5,0-0.8,0.3-0.9,0.7c0,0.1-0.1,0.3-0.1,0.5v3.4h-1.8V69.9z"/>
	<path d="M336.2,66.5v1.6h1.3v1.3h-1.3v2.1c0,0.7,0.2,1,0.7,1c0.3,0,0.4,0,0.5,0l0,1.4c-0.2,0.1-0.7,0.2-1.2,0.2
		c-0.6,0-1.1-0.2-1.4-0.5c-0.3-0.3-0.5-0.9-0.5-1.7v-2.4h-0.8v-1.3h0.8V67L336.2,66.5z"/>
	<path d="M342.9,71.9l-0.6,2.1h-1.9l2.5-8.1h2.4l2.5,8.1h-2l-0.6-2.1H342.9z M344.9,70.5l-0.5-1.7c-0.1-0.5-0.3-1.1-0.4-1.6h0
		c-0.1,0.5-0.2,1.1-0.4,1.6l-0.5,1.7H344.9z"/>
	<path d="M348.8,69.9c0-0.7,0-1.3,0-1.9h1.6l0.1,0.8h0c0.2-0.4,0.8-0.9,1.8-0.9c1.2,0,2.1,0.8,2.1,2.5v3.5h-1.8v-3.3
		c0-0.8-0.3-1.3-0.9-1.3c-0.5,0-0.8,0.3-0.9,0.7c0,0.1-0.1,0.3-0.1,0.5v3.4h-1.8V69.9z"/>
	<path d="M360.7,72.5c0,0.6,0,1.1,0.1,1.4h-1.6l-0.1-0.6h0c-0.4,0.5-1,0.7-1.7,0.7c-1.2,0-1.9-0.9-1.9-1.8c0-1.5,1.4-2.2,3.4-2.2V70
		c0-0.3-0.2-0.8-1.1-0.8c-0.6,0-1.2,0.2-1.6,0.4l-0.3-1.2c0.4-0.2,1.2-0.5,2.3-0.5c2,0,2.6,1.2,2.6,2.5V72.5z M358.9,71.2
		c-1,0-1.7,0.2-1.7,0.9c0,0.5,0.3,0.7,0.7,0.7c0.4,0,0.8-0.3,0.9-0.7c0-0.1,0-0.2,0-0.3V71.2z"/>
	<path d="M362.1,65.4h1.8v8.5h-1.8V65.4z"/>
	<path d="M366.8,68.1l0.9,2.9c0.1,0.3,0.2,0.8,0.3,1.1h0c0.1-0.3,0.2-0.8,0.3-1.1l0.7-2.9h1.9l-1.4,3.9c-0.8,2.3-1.4,3.3-2.1,3.8
		c-0.6,0.6-1.3,0.8-1.8,0.8l-0.4-1.5c0.2,0,0.5-0.2,0.8-0.3c0.3-0.1,0.6-0.4,0.8-0.7c0.1-0.1,0.1-0.2,0.1-0.3c0-0.1,0-0.2-0.1-0.3
		l-2.2-5.4H366.8z"/>
	<path d="M371.5,72.3c0.3,0.2,1,0.4,1.6,0.4c0.6,0,0.8-0.2,0.8-0.5c0-0.3-0.2-0.5-0.9-0.7c-1.2-0.4-1.7-1.1-1.7-1.8
		c0-1.1,0.9-1.9,2.4-1.9c0.7,0,1.3,0.2,1.6,0.3l-0.3,1.3c-0.3-0.1-0.8-0.3-1.3-0.3c-0.4,0-0.7,0.2-0.7,0.5s0.2,0.4,0.9,0.7
		c1.1,0.4,1.6,1,1.6,1.8c0,1.1-0.9,1.9-2.5,1.9c-0.8,0-1.5-0.2-1.9-0.4L371.5,72.3z"/>
	<path d="M378.6,66.4c0,0.5-0.4,0.9-1,0.9c-0.6,0-0.9-0.4-0.9-0.9c0-0.5,0.4-0.9,1-0.9C378.2,65.5,378.6,65.9,378.6,66.4z
		 M376.7,73.9v-5.9h1.8v5.9H376.7z"/>
	<path d="M380,72.3c0.3,0.2,1,0.4,1.6,0.4c0.6,0,0.8-0.2,0.8-0.5c0-0.3-0.2-0.5-0.9-0.7c-1.2-0.4-1.7-1.1-1.7-1.8
		c0-1.1,0.9-1.9,2.4-1.9c0.7,0,1.3,0.2,1.6,0.3l-0.3,1.3c-0.3-0.1-0.8-0.3-1.3-0.3c-0.4,0-0.7,0.2-0.7,0.5s0.2,0.4,0.9,0.7
		c1.1,0.4,1.6,1,1.6,1.8c0,1.1-0.9,1.9-2.5,1.9c-0.8,0-1.5-0.2-1.9-0.4L380,72.3z"/>
	<path d="M392.5,72.5c0,0.6,0,1.1,0.1,1.4H391l-0.1-0.6h0c-0.4,0.5-1,0.7-1.7,0.7c-1.2,0-1.9-0.9-1.9-1.8c0-1.5,1.4-2.2,3.4-2.2V70
		c0-0.3-0.2-0.8-1.1-0.8c-0.6,0-1.2,0.2-1.6,0.4l-0.3-1.2c0.4-0.2,1.2-0.5,2.3-0.5c2,0,2.6,1.2,2.6,2.5V72.5z M390.8,71.2
		c-1,0-1.7,0.2-1.7,0.9c0,0.5,0.3,0.7,0.7,0.7c0.4,0,0.8-0.3,0.9-0.7c0-0.1,0-0.2,0-0.3V71.2z"/>
	<path d="M394,69.9c0-0.7,0-1.3,0-1.9h1.6l0.1,0.8h0c0.2-0.4,0.8-0.9,1.8-0.9c1.2,0,2.1,0.8,2.1,2.5v3.5h-1.8v-3.3
		c0-0.8-0.3-1.3-0.9-1.3c-0.5,0-0.8,0.3-0.9,0.7c0,0.1-0.1,0.3-0.1,0.5v3.4H394V69.9z"/>
	<path d="M406.7,65.4v6.8c0,0.7,0,1.4,0,1.8h-1.6l-0.1-0.9h0c-0.4,0.6-1.1,1-1.8,1c-1.4,0-2.5-1.2-2.5-3c0-2,1.2-3.1,2.6-3.1
		c0.7,0,1.3,0.3,1.5,0.7h0v-3.2H406.7z M404.9,70.6c0-0.1,0-0.2,0-0.3c-0.1-0.5-0.5-0.9-1.1-0.9c-0.8,0-1.3,0.7-1.3,1.7
		c0,1,0.5,1.6,1.2,1.6c0.5,0,1-0.4,1.1-0.9c0-0.1,0-0.3,0-0.4V70.6z"/>
	<path d="M410.7,72c0.5,0.3,1.2,0.5,2,0.5c0.8,0,1.3-0.3,1.3-0.9c0-0.5-0.4-0.8-1.4-1.1c-1.3-0.5-2.2-1.2-2.2-2.4
		c0-1.4,1.2-2.4,3.1-2.4c0.9,0,1.6,0.2,2.1,0.4l-0.4,1.5c-0.3-0.2-0.9-0.4-1.7-0.4c-0.8,0-1.2,0.4-1.2,0.8c0,0.5,0.4,0.7,1.5,1.1
		c1.4,0.5,2.1,1.3,2.1,2.4c0,1.4-1,2.5-3.3,2.5c-0.9,0-1.8-0.3-2.3-0.5L410.7,72z"/>
	<path d="M422.6,72c0,0.8,0,1.4,0,1.9h-1.6l-0.1-0.8h0c-0.2,0.4-0.8,1-1.8,1c-1.2,0-2.1-0.7-2.1-2.6v-3.4h1.8v3.2
		c0,0.9,0.3,1.4,0.9,1.4c0.5,0,0.8-0.3,0.9-0.6c0-0.1,0.1-0.2,0.1-0.4v-3.5h1.8V72z"/>
	<path d="M429.6,73.1c0,1.1-0.2,2.1-0.9,2.6c-0.6,0.6-1.5,0.7-2.4,0.7c-0.8,0-1.6-0.2-2.1-0.4l0.4-1.4c0.4,0.2,1,0.4,1.7,0.4
		c0.9,0,1.5-0.5,1.5-1.5v-0.4h0c-0.3,0.5-0.9,0.8-1.6,0.8c-1.5,0-2.5-1.2-2.5-2.9c0-1.9,1.2-3.1,2.7-3.1c0.8,0,1.3,0.3,1.6,0.8h0
		l0.1-0.7h1.6c0,0.4,0,0.9,0,1.8V73.1z M427.8,70.5c0-0.1,0-0.2,0-0.3c-0.1-0.5-0.5-0.8-1-0.8c-0.7,0-1.2,0.6-1.2,1.7
		c0,0.9,0.4,1.6,1.2,1.6c0.5,0,0.9-0.3,1-0.7c0-0.1,0.1-0.3,0.1-0.5V70.5z"/>
	<path d="M436.6,73.1c0,1.1-0.2,2.1-0.9,2.6c-0.6,0.6-1.5,0.7-2.4,0.7c-0.8,0-1.6-0.2-2.1-0.4l0.4-1.4c0.4,0.2,1,0.4,1.7,0.4
		c0.9,0,1.5-0.5,1.5-1.5v-0.4h0c-0.3,0.5-0.9,0.8-1.6,0.8c-1.5,0-2.5-1.2-2.5-2.9c0-1.9,1.2-3.1,2.7-3.1c0.8,0,1.3,0.3,1.6,0.8h0
		l0.1-0.7h1.6c0,0.4,0,0.9,0,1.8V73.1z M434.8,70.5c0-0.1,0-0.2,0-0.3c-0.1-0.5-0.5-0.8-1-0.8c-0.7,0-1.2,0.6-1.2,1.7
		c0,0.9,0.4,1.6,1.2,1.6c0.5,0,0.9-0.3,1-0.7c0-0.1,0.1-0.3,0.1-0.5V70.5z"/>
	<path d="M439.5,71.6c0,0.8,0.8,1.1,1.7,1.1c0.6,0,1.1-0.1,1.6-0.3l0.2,1.2c-0.6,0.3-1.3,0.4-2.1,0.4c-2,0-3.1-1.2-3.1-3
		c0-1.5,0.9-3.1,3-3.1c1.9,0,2.6,1.5,2.6,2.9c0,0.3,0,0.6-0.1,0.7H439.5z M441.6,70.3c0-0.4-0.2-1.2-1-1.2c-0.8,0-1.1,0.7-1.1,1.2
		H441.6z"/>
	<path d="M444.4,72.3c0.3,0.2,1,0.4,1.6,0.4c0.6,0,0.8-0.2,0.8-0.5c0-0.3-0.2-0.5-0.9-0.7c-1.2-0.4-1.7-1.1-1.7-1.8
		c0-1.1,0.9-1.9,2.4-1.9c0.7,0,1.3,0.2,1.6,0.3l-0.3,1.3c-0.3-0.1-0.8-0.3-1.3-0.3c-0.4,0-0.7,0.2-0.7,0.5s0.2,0.4,0.9,0.7
		c1.1,0.4,1.6,1,1.6,1.8c0,1.1-0.9,1.9-2.5,1.9c-0.8,0-1.5-0.2-1.9-0.4L444.4,72.3z"/>
	<path d="M451.7,66.5v1.6h1.3v1.3h-1.3v2.1c0,0.7,0.2,1,0.7,1c0.3,0,0.4,0,0.5,0l0,1.4c-0.2,0.1-0.7,0.2-1.2,0.2
		c-0.6,0-1.1-0.2-1.4-0.5c-0.3-0.3-0.5-0.9-0.5-1.7v-2.4h-0.8v-1.3h0.8V67L451.7,66.5z"/>
	<path d="M455.9,66.4c0,0.5-0.4,0.9-1,0.9c-0.6,0-0.9-0.4-0.9-0.9c0-0.5,0.4-0.9,1-0.9S455.9,65.9,455.9,66.4z M454,73.9v-5.9h1.8
		v5.9H454z"/>
	<path d="M463.1,70.9c0,2.1-1.5,3.1-3.1,3.1c-1.7,0-3-1.1-3-3c0-1.9,1.2-3.1,3.1-3.1C461.9,67.9,463.1,69.2,463.1,70.9z M458.9,71
		c0,1,0.4,1.8,1.2,1.8c0.7,0,1.2-0.7,1.2-1.8c0-0.9-0.3-1.8-1.2-1.8C459.2,69.2,458.9,70.1,458.9,71z"/>
	<path d="M464.3,69.9c0-0.7,0-1.3,0-1.9h1.6l0.1,0.8h0c0.2-0.4,0.8-0.9,1.8-0.9c1.2,0,2.1,0.8,2.1,2.5v3.5H468v-3.3
		c0-0.8-0.3-1.3-0.9-1.3c-0.5,0-0.8,0.3-0.9,0.7c0,0.1-0.1,0.3-0.1,0.5v3.4h-1.8V69.9z"/>
</g>
<g>
	<path class="st1" d="M608.4,43c-2.4,3.2-5.8,4.8-10.2,4.8s-7.8-1.6-10.3-4.8c-2.4-3.2-3.6-7.5-3.6-12.8s1.2-9.6,3.6-12.7
		c2.5-3.2,5.9-4.8,10.3-4.8c4.4,0,7.8,1.6,10.2,4.8c2.5,3.2,3.7,7.4,3.7,12.7S610.9,39.8,608.4,43z M592.9,30.2
		c0,6.1,1.8,9.2,5.3,9.2s5.3-3.1,5.3-9.2s-1.8-9.2-5.3-9.2S592.9,24.1,592.9,30.2z M630,27.1c2.1,0.7,3.9,1.8,5.2,3.5
		c1.3,1.6,2,3.6,2,5.9c0,3.6-1.2,6.4-3.6,8.4c-2.4,2-5.3,2.9-8.8,2.9c-2.8,0-5.3-0.6-7.4-1.9c-2.1-1.3-3.7-3.2-4.7-5.7l7.5-4.3
		c0.7,2.3,2.2,3.5,4.6,3.5c1.2,0,2.1-0.3,2.8-0.9c0.7-0.6,1-1.3,1-2.3s-0.3-1.7-1-2.3c-0.6-0.6-1.6-0.9-2.8-0.9H623l-3.3-4.9
		l5.4-6.6h-11.3v-8.2h21.8v6.8L630,27.1z"/>
	<circle class="st2" cx="611.1" cy="34" r="12"/>
	<circle class="st3" cx="611.1" cy="34" r="6"/>
</g>
<g class="st4">
	<path d="M575.3,64.8c0.7-0.1,1.5-0.2,2.5-0.2c1.5,0,2.6,0.3,3.3,0.9c0.8,0.6,1.4,1.6,1.4,3c0,1.5-0.6,2.6-1.3,3.3
		c-0.9,0.7-2.2,1-3.7,1c-0.9,0-1.6-0.1-2.1-0.1V64.8z M577.1,71.4c0.2,0,0.4,0,0.6,0c1.7,0,2.8-0.9,2.8-2.8c0-1.7-1-2.6-2.6-2.6
		c-0.4,0-0.7,0-0.8,0.1V71.4z"/>
	<path d="M585,70.4c0,0.8,0.8,1.1,1.7,1.1c0.6,0,1.1-0.1,1.6-0.3l0.2,1.2c-0.6,0.3-1.3,0.4-2.1,0.4c-2,0-3.1-1.2-3.1-3
		c0-1.5,0.9-3.1,3-3.1c1.9,0,2.6,1.5,2.6,2.9c0,0.3,0,0.6-0.1,0.7H585z M587.1,69.2c0-0.4-0.2-1.2-1-1.2c-0.8,0-1.1,0.7-1.1,1.2
		H587.1z"/>
	<path d="M591.2,66.9l0.8,2.7c0.1,0.5,0.2,1,0.3,1.4h0c0.1-0.5,0.2-0.9,0.3-1.4l0.8-2.7h1.9l-2.2,5.9h-1.8l-2.1-5.9H591.2z"/>
	<path d="M597.4,70.4c0,0.8,0.8,1.1,1.7,1.1c0.6,0,1.1-0.1,1.6-0.3l0.2,1.2c-0.6,0.3-1.3,0.4-2.1,0.4c-2,0-3.1-1.2-3.1-3
		c0-1.5,0.9-3.1,3-3.1c1.9,0,2.6,1.5,2.6,2.9c0,0.3,0,0.6-0.1,0.7H597.4z M599.6,69.2c0-0.4-0.2-1.2-1-1.2c-0.8,0-1.1,0.7-1.1,1.2
		H599.6z"/>
	<path d="M602.3,64.2h1.8v8.5h-1.8V64.2z"/>
	<path d="M611.4,69.8c0,2.1-1.5,3.1-3.1,3.1c-1.7,0-3-1.1-3-3c0-1.9,1.2-3.1,3.1-3.1C610.2,66.8,611.4,68,611.4,69.8z M607.2,69.8
		c0,1,0.4,1.8,1.2,1.8c0.7,0,1.2-0.7,1.2-1.8c0-0.9-0.3-1.8-1.2-1.8C607.5,68.1,607.2,69,607.2,69.8z"/>
	<path d="M612.6,68.9c0-0.8,0-1.4,0-2h1.6l0.1,0.8h0c0.4-0.6,1.1-0.9,2-0.9c1.3,0,2.4,1.1,2.4,3c0,2.1-1.4,3.1-2.7,3.1
		c-0.7,0-1.3-0.3-1.5-0.7h0v2.9h-1.8V68.9z M614.4,70.2c0,0.1,0,0.3,0,0.4c0.1,0.5,0.5,0.9,1.1,0.9c0.8,0,1.3-0.7,1.3-1.7
		c0-0.9-0.4-1.6-1.2-1.6c-0.5,0-1,0.4-1.1,0.9c0,0.1,0,0.2,0,0.3V70.2z"/>
	<path d="M619.7,68.8c0-0.7,0-1.3,0-1.9h1.5l0.1,0.8h0c0.3-0.4,0.8-0.9,1.8-0.9c0.8,0,1.4,0.4,1.6,1h0c0.2-0.3,0.5-0.6,0.8-0.7
		c0.3-0.2,0.7-0.3,1.1-0.3c1.1,0,2,0.8,2,2.6v3.5h-1.8v-3.2c0-0.9-0.3-1.3-0.9-1.3c-0.4,0-0.7,0.3-0.9,0.6c0,0.1-0.1,0.3-0.1,0.5
		v3.4h-1.8v-3.3c0-0.7-0.3-1.2-0.9-1.2c-0.5,0-0.7,0.4-0.9,0.6c-0.1,0.1-0.1,0.3-0.1,0.5v3.4h-1.8V68.8z"/>
	<path d="M631.5,70.4c0,0.8,0.8,1.1,1.7,1.1c0.6,0,1.1-0.1,1.6-0.3l0.2,1.2c-0.6,0.3-1.3,0.4-2.1,0.4c-2,0-3.1-1.2-3.1-3
		c0-1.5,0.9-3.1,3-3.1c1.9,0,2.6,1.5,2.6,2.9c0,0.3,0,0.6-0.1,0.7H631.5z M633.6,69.2c0-0.4-0.2-1.2-1-1.2c-0.8,0-1.1,0.7-1.1,1.2
		H633.6z"/>
	<path d="M636.4,68.8c0-0.7,0-1.3,0-1.9h1.6l0.1,0.8h0c0.2-0.4,0.8-0.9,1.8-0.9c1.2,0,2.1,0.8,2.1,2.5v3.5h-1.8v-3.3
		c0-0.8-0.3-1.3-0.9-1.3c-0.5,0-0.8,0.3-0.9,0.7c0,0.1-0.1,0.3-0.1,0.5v3.4h-1.8V68.8z"/>
	<path d="M645.4,65.3v1.6h1.3v1.3h-1.3v2.1c0,0.7,0.2,1,0.7,1c0.3,0,0.4,0,0.5,0l0,1.4c-0.2,0.1-0.7,0.2-1.2,0.2
		c-0.6,0-1.1-0.2-1.4-0.5c-0.3-0.3-0.5-0.9-0.5-1.7v-2.4h-0.8v-1.3h0.8v-1.1L645.4,65.3z"/>
</g>
<g>
	<path class="st1" d="M497.6,248.7c-2.4,3.2-5.8,4.8-10.2,4.8s-7.8-1.6-10.3-4.8c-2.4-3.2-3.6-7.5-3.6-12.8s1.2-9.6,3.6-12.7
		c2.5-3.2,5.9-4.8,10.3-4.8s7.8,1.6,10.2,4.8c2.5,3.2,3.7,7.4,3.7,12.7S500.1,245.5,497.6,248.7z M482.1,235.9
		c0,6.1,1.8,9.2,5.3,9.2s5.3-3.1,5.3-9.2s-1.8-9.2-5.3-9.2S482.1,229.8,482.1,235.9z M530.1,239.7v7.8h-3.4v5.2h-8.5v-5.1h-14.7
		v-7.9l10-20.6h9.5l-10.1,20.6h5.3v-6h8.5v6H530.1z"/>
	<circle class="st2" cx="502.3" cy="239.7" r="12"/>
	<circle class="st3" cx="502.3" cy="239.7" r="6"/>
</g>
<g class="st4">
	<path d="M485.9,270.2h-2.2v-1.5h6.2v1.5h-2.2v6.5h-1.8V270.2z"/>
	<path d="M491.3,274.4c0,0.8,0.8,1.1,1.7,1.1c0.6,0,1.1-0.1,1.6-0.3l0.2,1.2c-0.6,0.3-1.3,0.4-2.1,0.4c-2,0-3.1-1.2-3.1-3
		c0-1.5,0.9-3.1,3-3.1c1.9,0,2.6,1.5,2.6,2.9c0,0.3,0,0.6-0.1,0.7H491.3z M493.4,273.2c0-0.4-0.2-1.2-1-1.2c-0.8,0-1.1,0.7-1.1,1.2
		H493.4z"/>
	<path d="M496.2,275.2c0.3,0.2,1,0.4,1.6,0.4c0.6,0,0.8-0.2,0.8-0.5c0-0.3-0.2-0.5-0.9-0.7c-1.2-0.4-1.7-1.1-1.7-1.8
		c0-1.1,0.9-1.9,2.4-1.9c0.7,0,1.3,0.2,1.6,0.3l-0.3,1.3c-0.3-0.1-0.8-0.3-1.3-0.3c-0.4,0-0.7,0.2-0.7,0.5s0.2,0.4,0.9,0.7
		c1.1,0.4,1.6,1,1.6,1.8c0,1.1-0.9,1.9-2.5,1.9c-0.8,0-1.5-0.2-1.9-0.4L496.2,275.2z"/>
	<path d="M503.5,269.3v1.6h1.3v1.3h-1.3v2.1c0,0.7,0.2,1,0.7,1c0.3,0,0.4,0,0.5,0l0,1.4c-0.2,0.1-0.7,0.2-1.2,0.2
		c-0.6,0-1.1-0.2-1.4-0.5c-0.3-0.3-0.5-0.9-0.5-1.7v-2.4h-0.8v-1.3h0.8v-1.1L503.5,269.3z"/>
	<path d="M507.7,269.3c0,0.5-0.4,0.9-1,0.9c-0.6,0-0.9-0.4-0.9-0.9c0-0.5,0.4-0.9,1-0.9S507.7,268.7,507.7,269.3z M505.8,276.7v-5.9
		h1.8v5.9H505.8z"/>
	<path d="M509.1,272.8c0-0.7,0-1.3,0-1.9h1.6l0.1,0.8h0c0.2-0.4,0.8-0.9,1.8-0.9c1.2,0,2.1,0.8,2.1,2.5v3.5h-1.8v-3.3
		c0-0.8-0.3-1.3-0.9-1.3c-0.5,0-0.8,0.3-0.9,0.7c0,0.1-0.1,0.3-0.1,0.5v3.4h-1.8V272.8z"/>
	<path d="M521.7,275.9c0,1.1-0.2,2.1-0.9,2.6c-0.6,0.6-1.5,0.7-2.4,0.7c-0.8,0-1.6-0.2-2.1-0.4l0.4-1.4c0.4,0.2,1,0.4,1.7,0.4
		c0.9,0,1.5-0.5,1.5-1.5v-0.4h0c-0.3,0.5-0.9,0.8-1.6,0.8c-1.5,0-2.5-1.2-2.5-2.9c0-1.9,1.2-3.1,2.7-3.1c0.8,0,1.3,0.3,1.6,0.8h0
		l0.1-0.7h1.6c0,0.4,0,0.9,0,1.8V275.9z M519.9,273.3c0-0.1,0-0.2,0-0.3c-0.1-0.5-0.5-0.8-1-0.8c-0.7,0-1.2,0.6-1.2,1.7
		c0,0.9,0.4,1.6,1.2,1.6c0.5,0,0.9-0.3,1-0.7c0-0.1,0.1-0.3,0.1-0.5V273.3z"/>
</g>
<g>
	<path class="st1" d="M225.1,248.9c-2.4,3.2-5.8,4.8-10.2,4.8s-7.8-1.6-10.3-4.8c-2.4-3.2-3.6-7.5-3.6-12.8s1.2-9.6,3.6-12.7
		c2.5-3.2,5.9-4.8,10.3-4.8c4.4,0,7.8,1.6,10.2,4.8c2.5,3.2,3.7,7.4,3.7,12.7S227.6,245.7,225.1,248.9z M209.6,236.1
		c0,6.1,1.8,9.2,5.3,9.2s5.3-3.1,5.3-9.2s-1.8-9.2-5.3-9.2S209.6,230,209.6,236.1z M243.7,231.1c3.3,0,6,1,8.2,2.9s3.3,4.6,3.3,8.2
		c0,3.6-1.2,6.5-3.6,8.5c-2.4,2-5.3,3-8.8,3c-2.9,0-5.5-0.6-7.7-1.9c-2.2-1.3-3.8-3.2-4.8-5.7l7.5-4.3c0.7,2.3,2.4,3.5,4.9,3.5
		c1.2,0,2.1-0.3,2.8-0.8c0.7-0.6,1-1.3,1-2.3s-0.3-1.8-1-2.3c-0.6-0.5-1.5-0.8-2.6-0.8h-10.8l1.4-19.7h19.8v8.2h-11.9l-0.2,3.6
		L243.7,231.1L243.7,231.1z"/>
	<circle class="st2" cx="227.8" cy="239.9" r="12"/>
	<circle class="st3" cx="227.8" cy="239.9" r="6"/>
</g>
<g class="st4">
	<path d="M154.5,268.8c0.7-0.1,1.5-0.2,2.5-0.2c1.5,0,2.6,0.3,3.3,0.9c0.8,0.6,1.4,1.6,1.4,3c0,1.5-0.6,2.6-1.3,3.3
		c-0.9,0.7-2.2,1-3.7,1c-0.9,0-1.6-0.1-2.1-0.1V268.8z M156.3,275.4c0.2,0,0.4,0,0.6,0c1.7,0,2.8-0.9,2.8-2.8c0-1.7-1-2.6-2.6-2.6
		c-0.4,0-0.7,0-0.8,0.1V275.4z"/>
	<path d="M164.2,274.4c0,0.8,0.8,1.1,1.7,1.1c0.6,0,1.1-0.1,1.6-0.3l0.2,1.2c-0.6,0.3-1.3,0.4-2.1,0.4c-2,0-3.1-1.2-3.1-3
		c0-1.5,0.9-3.1,3-3.1c1.9,0,2.6,1.5,2.6,2.9c0,0.3,0,0.6-0.1,0.7H164.2z M166.3,273.2c0-0.4-0.2-1.2-1-1.2c-0.8,0-1.1,0.7-1.1,1.2
		H166.3z"/>
	<path d="M169.1,272.9c0-0.8,0-1.4,0-2h1.6l0.1,0.8h0c0.4-0.6,1.1-0.9,2-0.9c1.3,0,2.4,1.1,2.4,3c0,2.1-1.4,3.1-2.7,3.1
		c-0.7,0-1.3-0.3-1.5-0.7h0v2.9h-1.8V272.9z M170.9,274.2c0,0.1,0,0.3,0,0.4c0.1,0.5,0.5,0.9,1.1,0.9c0.8,0,1.3-0.7,1.3-1.7
		c0-0.9-0.4-1.6-1.2-1.6c-0.5,0-1,0.4-1.1,0.9c0,0.1,0,0.2,0,0.3V274.2z"/>
	<path d="M176.3,268.2h1.8v8.5h-1.8V268.2z"/>
	<path d="M185.4,273.8c0,2.1-1.5,3.1-3.1,3.1c-1.7,0-3-1.1-3-3c0-1.9,1.2-3.1,3.1-3.1C184.2,270.7,185.4,272,185.4,273.8z
		 M181.1,273.8c0,1,0.4,1.8,1.2,1.8c0.7,0,1.2-0.7,1.2-1.8c0-0.9-0.3-1.8-1.2-1.8C181.5,272,181.1,272.9,181.1,273.8z"/>
	<path d="M187.8,270.9l0.9,2.9c0.1,0.3,0.2,0.8,0.3,1.1h0c0.1-0.3,0.2-0.8,0.3-1.1l0.7-2.9h1.9l-1.4,3.9c-0.8,2.3-1.4,3.3-2.1,3.8
		c-0.6,0.6-1.3,0.8-1.8,0.8l-0.4-1.5c0.2,0,0.5-0.2,0.8-0.3c0.3-0.1,0.6-0.4,0.8-0.7c0.1-0.1,0.1-0.2,0.1-0.3c0-0.1,0-0.2-0.1-0.3
		l-2.2-5.4H187.8z"/>
	<path d="M192.7,272.8c0-0.7,0-1.3,0-1.9h1.5l0.1,0.8h0c0.3-0.4,0.8-0.9,1.8-0.9c0.8,0,1.4,0.4,1.6,1h0c0.2-0.3,0.5-0.6,0.8-0.7
		c0.3-0.2,0.7-0.3,1.1-0.3c1.1,0,2,0.8,2,2.6v3.5h-1.8v-3.2c0-0.9-0.3-1.3-0.9-1.3c-0.4,0-0.7,0.3-0.9,0.6c0,0.1-0.1,0.3-0.1,0.5
		v3.4h-1.8v-3.3c0-0.7-0.3-1.2-0.9-1.2c-0.5,0-0.7,0.4-0.9,0.6c-0.1,0.1-0.1,0.3-0.1,0.5v3.4h-1.8V272.8z"/>
	<path d="M204.4,274.4c0,0.8,0.8,1.1,1.7,1.1c0.6,0,1.1-0.1,1.6-0.3l0.2,1.2c-0.6,0.3-1.3,0.4-2.1,0.4c-2,0-3.1-1.2-3.1-3
		c0-1.5,0.9-3.1,3-3.1c1.9,0,2.6,1.5,2.6,2.9c0,0.3,0,0.6-0.1,0.7H204.4z M206.6,273.2c0-0.4-0.2-1.2-1-1.2c-0.8,0-1.1,0.7-1.1,1.2
		H206.6z"/>
	<path d="M209.3,272.8c0-0.7,0-1.3,0-1.9h1.6l0.1,0.8h0c0.2-0.4,0.8-0.9,1.8-0.9c1.2,0,2.1,0.8,2.1,2.5v3.5h-1.8v-3.3
		c0-0.8-0.3-1.3-0.9-1.3c-0.5,0-0.8,0.3-0.9,0.7c0,0.1-0.1,0.3-0.1,0.5v3.4h-1.8V272.8z"/>
	<path d="M218.3,269.3v1.6h1.3v1.3h-1.3v2.1c0,0.7,0.2,1,0.7,1c0.3,0,0.4,0,0.5,0l0,1.4c-0.2,0.1-0.7,0.2-1.2,0.2
		c-0.6,0-1.1-0.2-1.4-0.5c-0.3-0.3-0.5-0.9-0.5-1.7v-2.4h-0.8v-1.3h0.8v-1.1L218.3,269.3z"/>
	<path d="M228.3,276.7c-0.2-0.2-0.3-0.4-0.5-0.6c-0.5,0.4-1.3,0.7-2.2,0.7c-2,0-2.8-1.2-2.8-2.3c0-1.1,0.6-1.8,1.5-2.3v0
		c-0.3-0.4-0.6-1-0.6-1.6c0-1,0.8-2.1,2.4-2.1c1.2,0,2.2,0.7,2.2,1.9c0,0.8-0.5,1.5-1.6,2.1l0,0c0.5,0.5,1,1.1,1.4,1.5
		c0.3-0.5,0.6-1.3,0.7-2h1.6c-0.2,1.2-0.6,2.3-1.3,3.1c0.5,0.5,0.9,1.1,1.4,1.6H228.3z M227,275.2c-0.5-0.5-1.2-1.2-1.8-2
		c-0.3,0.3-0.6,0.6-0.6,1.1c0,0.7,0.5,1.3,1.4,1.3C226.3,275.6,226.7,275.4,227,275.2z M226,269.7c-0.5,0-0.7,0.4-0.7,0.8
		c0,0.4,0.2,0.8,0.6,1.2c0.6-0.4,0.9-0.7,0.9-1.2C226.8,270.1,226.5,269.7,226,269.7L226,269.7z"/>
	<path d="M240.6,273.7c0-1-0.1-2.1-0.1-3.3h0c-0.3,1-0.6,2.2-0.9,3.1l-1,3.2h-1.4l-0.9-3.1c-0.3-1-0.5-2.1-0.7-3.2h0
		c0,1.1-0.1,2.3-0.1,3.3l-0.2,3.1h-1.7l0.5-8.1h2.4l0.8,2.7c0.3,0.9,0.5,1.9,0.7,2.9h0c0.2-0.9,0.5-2,0.8-2.9l0.9-2.7h2.4l0.4,8.1
		h-1.8L240.6,273.7z"/>
	<path d="M248.8,275.3c0,0.6,0,1.1,0.1,1.4h-1.6l-0.1-0.6h0c-0.4,0.5-1,0.7-1.7,0.7c-1.2,0-1.9-0.9-1.9-1.8c0-1.5,1.4-2.2,3.4-2.2
		v-0.1c0-0.3-0.2-0.8-1.1-0.8c-0.6,0-1.2,0.2-1.6,0.4l-0.3-1.2c0.4-0.2,1.2-0.5,2.3-0.5c2,0,2.6,1.2,2.6,2.5V275.3z M247,274
		c-1,0-1.7,0.2-1.7,0.9c0,0.5,0.3,0.7,0.7,0.7c0.4,0,0.8-0.3,0.9-0.7c0-0.1,0-0.2,0-0.3V274z"/>
	<path d="M252.1,269.3c0,0.5-0.4,0.9-1,0.9c-0.6,0-0.9-0.4-0.9-0.9c0-0.5,0.4-0.9,1-0.9C251.7,268.3,252.1,268.7,252.1,269.3z
		 M250.2,276.7v-5.9h1.8v5.9H250.2z"/>
	<path d="M253.5,272.8c0-0.7,0-1.3,0-1.9h1.6l0.1,0.8h0c0.2-0.4,0.8-0.9,1.8-0.9c1.2,0,2.1,0.8,2.1,2.5v3.5h-1.8v-3.3
		c0-0.8-0.3-1.3-0.9-1.3c-0.5,0-0.8,0.3-0.9,0.7c0,0.1-0.1,0.3-0.1,0.5v3.4h-1.8V272.8z"/>
	<path d="M262.5,269.3v1.6h1.3v1.3h-1.3v2.1c0,0.7,0.2,1,0.7,1c0.3,0,0.4,0,0.5,0l0,1.4c-0.2,0.1-0.7,0.2-1.2,0.2
		c-0.6,0-1.1-0.2-1.4-0.5c-0.3-0.3-0.5-0.9-0.5-1.7v-2.4h-0.8v-1.3h0.8v-1.1L262.5,269.3z"/>
	<path d="M266.2,274.4c0,0.8,0.8,1.1,1.7,1.1c0.6,0,1.1-0.1,1.6-0.3l0.2,1.2c-0.6,0.3-1.3,0.4-2.1,0.4c-2,0-3.1-1.2-3.1-3
		c0-1.5,0.9-3.1,3-3.1c1.9,0,2.6,1.5,2.6,2.9c0,0.3,0,0.6-0.1,0.7H266.2z M268.4,273.2c0-0.4-0.2-1.2-1-1.2c-0.8,0-1.1,0.7-1.1,1.2
		H268.4z"/>
	<path d="M271.1,272.8c0-0.7,0-1.3,0-1.9h1.6l0.1,0.8h0c0.2-0.4,0.8-0.9,1.8-0.9c1.2,0,2.1,0.8,2.1,2.5v3.5h-1.8v-3.3
		c0-0.8-0.3-1.3-0.9-1.3c-0.5,0-0.8,0.3-0.9,0.7c0,0.1-0.1,0.3-0.1,0.5v3.4h-1.8V272.8z"/>
	<path d="M283.1,275.3c0,0.6,0,1.1,0.1,1.4h-1.6l-0.1-0.6h0c-0.4,0.5-1,0.7-1.7,0.7c-1.2,0-1.9-0.9-1.9-1.8c0-1.5,1.4-2.2,3.4-2.2
		v-0.1c0-0.3-0.2-0.8-1.1-0.8c-0.6,0-1.2,0.2-1.6,0.4l-0.3-1.2c0.4-0.2,1.2-0.5,2.3-0.5c2,0,2.6,1.2,2.6,2.5V275.3z M281.3,274
		c-1,0-1.7,0.2-1.7,0.9c0,0.5,0.3,0.7,0.7,0.7c0.4,0,0.8-0.3,0.9-0.7c0-0.1,0-0.2,0-0.3V274z"/>
	<path d="M284.5,272.8c0-0.7,0-1.3,0-1.9h1.6l0.1,0.8h0c0.2-0.4,0.8-0.9,1.8-0.9c1.2,0,2.1,0.8,2.1,2.5v3.5h-1.8v-3.3
		c0-0.8-0.3-1.3-0.9-1.3c-0.5,0-0.8,0.3-0.9,0.7c0,0.1-0.1,0.3-0.1,0.5v3.4h-1.8V272.8z"/>
	<path d="M295.9,276.6c-0.3,0.2-0.9,0.3-1.6,0.3c-1.9,0-3.1-1.2-3.1-3c0-1.7,1.2-3.1,3.4-3.1c0.5,0,1,0.1,1.4,0.2l-0.3,1.4
		c-0.2-0.1-0.5-0.2-1-0.2c-1,0-1.6,0.7-1.6,1.6c0,1.1,0.7,1.6,1.6,1.6c0.4,0,0.8-0.1,1-0.2L295.9,276.6z"/>
	<path d="M298.2,274.4c0,0.8,0.8,1.1,1.7,1.1c0.6,0,1.1-0.1,1.6-0.3l0.2,1.2c-0.6,0.3-1.3,0.4-2.1,0.4c-2,0-3.1-1.2-3.1-3
		c0-1.5,0.9-3.1,3-3.1c1.9,0,2.6,1.5,2.6,2.9c0,0.3,0,0.6-0.1,0.7H298.2z M300.4,273.2c0-0.4-0.2-1.2-1-1.2c-0.8,0-1.1,0.7-1.1,1.2
		H300.4z"/>
</g>
</svg>
