<?xml version="1.0" encoding="utf-8"?>
<!-- Generator: Adobe Illustrator 24.1.2, SVG Export Plug-In . SVG Version: 6.00 Build 0)  -->
<svg version="1.1" id="Layer_1" xmlns="http://www.w3.org/2000/svg" xmlns:xlink="http://www.w3.org/1999/xlink" x="0px" y="0px"
	 viewBox="0 0 100 100" style="enable-background:new 0 0 100 100;" xml:space="preserve">
<style type="text/css">
	.st0{fill:none;stroke:#000000;stroke-width:1.3;stroke-linecap:round;stroke-linejoin:round;stroke-miterlimit:2.6131;}
	.st1{fill:#FFFFFF;stroke:#000000;stroke-width:1.3;stroke-linecap:round;stroke-linejoin:round;stroke-miterlimit:10;}
	.st2{fill:#FFFFFF;stroke:#000000;stroke-width:1.3;stroke-linecap:round;stroke-linejoin:round;stroke-miterlimit:2.6131;}
</style>
<g>
	<g>
		<g id="XMLID_233_">
			<g>
				<line class="st0" x1="73.14" y1="19.14" x2="69.6" y2="19.14"/>
				<line class="st0" x1="69.6" y1="19.14" x2="12.93" y2="19.14"/>
				<line class="st0" x1="12.93" y1="19.14" x2="9.37" y2="19.14"/>
				<line class="st0" x1="73.14" y1="63.23" x2="69.6" y2="63.23"/>
				<line class="st0" x1="69.6" y1="63.23" x2="41.26" y2="63.23"/>
				<line class="st0" x1="41.26" y1="63.23" x2="41.25" y2="63.23"/>
				<line class="st0" x1="41.25" y1="63.23" x2="12.93" y2="63.23"/>
				<line class="st0" x1="12.93" y1="63.23" x2="9.14" y2="63.23"/>
				<line class="st0" x1="12.93" y1="62.87" x2="12.93" y2="19.14"/>
				<line class="st0" x1="69.6" y1="63.23" x2="69.6" y2="19.14"/>
				<polyline class="st0" points="41.26,63.23 41.25,63.25 23.29,81.83 				"/>
				<line class="st0" x1="41.26" y1="63.23" x2="59.22" y2="81.83"/>
				<polyline class="st0" points="41.25,63.23 41.25,63.25 41.28,82.35 				"/>
				<line class="st0" x1="24.03" y1="51.42" x2="24.03" y2="30.97"/>
				<line class="st0" x1="35.52" y1="51.42" x2="35.52" y2="40.24"/>
				<line class="st0" x1="47.01" y1="51.42" x2="47.01" y2="30.97"/>
				<line class="st0" x1="58.49" y1="51.42" x2="58.49" y2="45.33"/>
				<g>
					<path class="st1" d="M57.42,87.86h-0.88h-5.48V77.52c0-5.68,4.65-10.33,10.33-10.33h4.24l5.73,11.67l5.76-11.67h4.23
						c5.69,0,10.33,4.65,10.33,10.33v10.34h-6.37H57.42z"/>
					<path class="st1" d="M71.37,42.05c5.92,0,10.7,4.8,10.7,10.69c0,5.92-4.78,10.68-10.7,10.68c-5.89,0-10.69-4.76-10.69-10.68
						C60.68,46.85,65.47,42.05,71.37,42.05z"/>
					<line class="st1" x1="57.42" y1="80.99" x2="57.42" y2="87.86"/>
					<line class="st2" x1="85.31" y1="80.99" x2="85.31" y2="87.86"/>
				</g>
			</g>
		</g>
	</g>
</g>
</svg>
