<?xml version="1.0" encoding="utf-8"?>
<!-- Generator: Adobe Illustrator 24.1.2, SVG Export Plug-In . SVG Version: 6.00 Build 0)  -->
<svg version="1.1" xmlns="http://www.w3.org/2000/svg" xmlns:xlink="http://www.w3.org/1999/xlink" x="0px" y="0px"
	 viewBox="0 0 100 100" style="enable-background:new 0 0 100 100;" xml:space="preserve">
<g id="Layer_1">
</g>
<g id="Layer_2">
	<g>
		<g>
			<g>
				<path d="M62.16,81.08H15.03c-2.25,0-4.09-1.83-4.09-4.09V49.53c0-2.25,1.83-4.08,4.09-4.08h40.05c0.36,0,0.65,0.29,0.65,0.65
					c0,0.36-0.29,0.65-0.65,0.65H15.03c-1.54,0-2.79,1.25-2.79,2.78v27.46c0,1.54,1.25,2.79,2.79,2.79h47.13
					c0.36,0,0.65,0.29,0.65,0.65C62.81,80.79,62.52,81.08,62.16,81.08z"/>
			</g>
			<g>
				<path d="M85.97,81.08H58.51c-2.25,0-4.08-1.83-4.08-4.09V24c0-2.25,1.83-4.08,4.08-4.08h27.46c2.25,0,4.08,1.83,4.08,4.08v52.99
					C90.06,79.25,88.22,81.08,85.97,81.08z M58.51,21.22c-1.54,0-2.78,1.25-2.78,2.78v52.99c0,1.54,1.25,2.79,2.78,2.79h27.46
					c1.53,0,2.78-1.25,2.78-2.79V24c0-1.53-1.25-2.78-2.78-2.78H58.51z"/>
			</g>
			<g>
				<path d="M72.24,77.76c-1.64,0-2.97-1.33-2.97-2.97c0-1.64,1.33-2.98,2.97-2.98c1.64,0,2.97,1.34,2.97,2.98
					C75.21,76.43,73.88,77.76,72.24,77.76z M72.24,73.11c-0.92,0-1.67,0.75-1.67,1.68c0,0.92,0.75,1.67,1.67,1.67
					c0.92,0,1.67-0.75,1.67-1.67C73.91,73.86,73.16,73.11,72.24,73.11z"/>
			</g>
			<g>
				<path d="M86.32,69.61H58.17c-0.36,0-0.65-0.29-0.65-0.65V28.74c0-0.36,0.29-0.65,0.65-0.65h28.15c0.36,0,0.65,0.29,0.65,0.65
					v40.22C86.97,69.32,86.68,69.61,86.32,69.61z M58.82,68.31h26.85V29.39H58.82V68.31z"/>
			</g>
			<g>
				<path d="M77.14,25.62h-1.89c-0.36,0-0.65-0.29-0.65-0.65s0.29-0.65,0.65-0.65h1.89c0.36,0,0.65,0.29,0.65,0.65
					S77.5,25.62,77.14,25.62z M73.89,25.62h-6.54c-0.36,0-0.65-0.29-0.65-0.65s0.29-0.65,0.65-0.65h6.54c0.36,0,0.65,0.29,0.65,0.65
					S74.25,25.62,73.89,25.62z"/>
			</g>
			<g>
				<path d="M55.08,77.99H19.77c-0.36,0-0.65-0.29-0.65-0.65V49.19c0-0.36,0.29-0.65,0.65-0.65h35.31c0.36,0,0.65,0.29,0.65,0.65
					v28.15C55.73,77.7,55.44,77.99,55.08,77.99z M20.42,76.69h34.01V49.84H20.42V76.69z"/>
			</g>
			<g>
				<path d="M16,68.81c-0.36,0-0.65-0.29-0.65-0.65v-6.55c0-0.36,0.29-0.65,0.65-0.65c0.36,0,0.65,0.29,0.65,0.65v6.55
					C16.65,68.52,16.36,68.81,16,68.81z M16,60.91c-0.36,0-0.65-0.29-0.65-0.65v-1.89c0-0.36,0.29-0.65,0.65-0.65
					c0.36,0,0.65,0.29,0.65,0.65v1.89C16.65,60.61,16.36,60.91,16,60.91z"/>
			</g>
			<g>
				<path d="M82.98,36.52H67.59c-0.36,0-0.65-0.29-0.65-0.65c0-0.36,0.29-0.65,0.65-0.65h15.39c0.36,0,0.65,0.29,0.65,0.65
					C83.63,36.23,83.34,36.52,82.98,36.52z M64.19,36.52h-2.68c-0.36,0-0.65-0.29-0.65-0.65c0-0.36,0.29-0.65,0.65-0.65h2.68
					c0.36,0,0.65,0.29,0.65,0.65C64.84,36.23,64.55,36.52,64.19,36.52z"/>
			</g>
			<g>
				<path d="M65.89,38.23c-1.3,0-2.35-1.06-2.35-2.35c0-1.29,1.05-2.35,2.35-2.35c1.29,0,2.35,1.05,2.35,2.35
					C68.24,37.17,67.19,38.23,65.89,38.23z M65.89,34.83c-0.58,0-1.05,0.47-1.05,1.05c0,0.58,0.47,1.05,1.05,1.05
					c0.58,0,1.05-0.47,1.05-1.05C66.94,35.3,66.47,34.83,65.89,34.83z"/>
			</g>
			<g>
				<path d="M82.98,43.42h-9.04c-0.36,0-0.65-0.29-0.65-0.65c0-0.36,0.29-0.65,0.65-0.65h9.04c0.36,0,0.65,0.29,0.65,0.65
					C83.63,43.13,83.34,43.42,82.98,43.42z M70.54,43.42h-9.03c-0.36,0-0.65-0.29-0.65-0.65c0-0.36,0.29-0.65,0.65-0.65h9.03
					c0.36,0,0.65,0.29,0.65,0.65C71.19,43.13,70.9,43.42,70.54,43.42z"/>
			</g>
			<g>
				<path d="M72.24,45.13c-1.29,0-2.35-1.06-2.35-2.35c0-1.29,1.05-2.35,2.35-2.35c1.3,0,2.35,1.05,2.35,2.35
					C74.59,44.07,73.54,45.13,72.24,45.13z M72.24,41.72c-0.58,0-1.05,0.47-1.05,1.05c0,0.58,0.47,1.06,1.05,1.06
					c0.58,0,1.05-0.47,1.05-1.06C73.29,42.19,72.82,41.72,72.24,41.72z"/>
			</g>
			<g>
				<path d="M72.24,66.53c-5.55,0-10.06-4.51-10.06-10.06c0-5.54,4.51-10.05,10.06-10.05c5.55,0,10.06,4.51,10.06,10.05
					C82.3,62.01,77.79,66.53,72.24,66.53z M72.24,47.71c-4.83,0-8.76,3.93-8.76,8.75c0,4.83,3.93,8.76,8.76,8.76
					c4.83,0,8.76-3.93,8.76-8.76C81,51.64,77.07,47.71,72.24,47.71z"/>
			</g>
			<g>
				<path d="M72.24,66.53c-3.06,0-5.46-4.42-5.46-10.06c0-5.64,2.4-10.05,5.46-10.05c3.07,0,5.47,4.42,5.47,10.05
					C77.71,62.11,75.31,66.53,72.24,66.53z M72.24,47.71c-2.26,0-4.16,4.01-4.16,8.75c0,4.75,1.91,8.76,4.16,8.76
					c2.26,0,4.17-4.01,4.17-8.76C76.41,51.72,74.5,47.71,72.24,47.71z"/>
			</g>
			<g>
				<path d="M81.65,57.11H62.83c-0.36,0-0.65-0.29-0.65-0.65c0-0.36,0.29-0.65,0.65-0.65h18.82c0.36,0,0.65,0.29,0.65,0.65
					C82.3,56.82,82.01,57.11,81.65,57.11z"/>
			</g>
			<g>
				<path d="M72.24,66.53c-0.36,0-0.65-0.29-0.65-0.65V47.05c0-0.36,0.29-0.65,0.65-0.65c0.36,0,0.65,0.29,0.65,0.65v18.83
					C72.89,66.23,72.6,66.53,72.24,66.53z"/>
			</g>
			<g>
				<path d="M72.27,52.88c-2.62,0-5.25-0.44-7.87-1.32c-0.34-0.11-0.52-0.48-0.41-0.82c0.11-0.34,0.48-0.52,0.82-0.41
					c4.97,1.66,9.96,1.66,14.84,0c0.34-0.12,0.71,0.07,0.83,0.41c0.12,0.34-0.07,0.71-0.41,0.82C77.5,52.44,74.89,52.88,72.27,52.88
					z"/>
			</g>
			<g>
				<path d="M64.61,62.43c-0.27,0-0.53-0.17-0.62-0.44c-0.11-0.34,0.07-0.71,0.41-0.82c5.24-1.75,10.51-1.75,15.67,0
					c0.34,0.12,0.52,0.48,0.41,0.82c-0.12,0.34-0.48,0.52-0.82,0.41c-4.88-1.66-9.88-1.65-14.84,0
					C64.75,62.42,64.68,62.43,64.61,62.43z"/>
			</g>
		</g>
	</g>
</g>
</svg>
