<?xml version="1.0" encoding="utf-8"?>
<!-- Generator: Adobe Illustrator 23.0.1, SVG Export Plug-In . SVG Version: 6.00 Build 0)  -->
<svg version="1.1" id="Layer_1" xmlns="http://www.w3.org/2000/svg" xmlns:xlink="http://www.w3.org/1999/xlink" x="0px" y="0px"
	 viewBox="0 0 694.5 320" style="enable-background:new 0 0 694.5 320;" xml:space="preserve">
<style type="text/css">
	.st0{fill:#F1F3F5;}
	.st1{fill:none;stroke:#D9D9F9;}
	.st2{opacity:0.5;fill:#D9D9F9;enable-background:new    ;}
	.st3{fill:#353590;}
	.st4{enable-background:new    ;}
</style>
<path class="st0" d="M92.7,38.8c-2.4,3.2-5.8,4.8-10.2,4.8s-7.8-1.6-10.3-4.8c-2.4-3.2-3.6-7.5-3.6-12.8s1.2-9.6,3.6-12.7
	c2.5-3.2,5.9-4.8,10.3-4.8s7.8,1.6,10.2,4.8c2.5,3.2,3.7,7.4,3.7,12.7S95.1,35.6,92.7,38.8z M77.1,26c0,6.1,1.8,9.2,5.3,9.2
	s5.3-3.1,5.3-9.2s-1.8-9.2-5.3-9.2S77.1,19.9,77.1,26z M106.2,9.2h7.4v33.6H105V18.2l-5.9,1.5L97,12.5L106.2,9.2z"/>
<path class="st0" d="M301.7,38.8c-2.4,3.2-5.8,4.8-10.2,4.8s-7.8-1.6-10.3-4.8c-2.4-3.2-3.6-7.5-3.6-12.8s1.2-9.6,3.6-12.7
	c2.5-3.2,5.9-4.8,10.3-4.8s7.8,1.6,10.2,4.8c2.5,3.2,3.7,7.4,3.7,12.7S304.1,35.6,301.7,38.8z M286.1,26c0,6.1,1.8,9.2,5.3,9.2
	s5.3-3.1,5.3-9.2s-1.8-9.2-5.3-9.2S286.1,19.9,286.1,26z M306.9,42.8v-6.2L318,24.8c1.1-1.2,1.9-2.2,2.4-2.9
	c0.5-0.8,0.8-1.5,0.8-2.3s-0.3-1.5-0.8-2s-1.2-0.8-2.2-0.8c-2,0-3.5,1.2-4.5,3.5l-7.4-4.1c1.1-2.5,2.7-4.4,4.8-5.8s4.4-2,7-2
	c3.2,0,5.9,1,8.2,2.9c2.3,1.9,3.5,4.5,3.5,7.8c0,2-0.5,3.8-1.4,5.4s-2.2,3.4-4,5.2l-4.6,4.8h10.5v8.3H306.9z"/>
<path class="st0" d="M511.7,38.8c-2.4,3.2-5.8,4.8-10.2,4.8s-7.8-1.6-10.3-4.8c-2.4-3.2-3.6-7.5-3.6-12.8s1.2-9.6,3.6-12.7
	c2.5-3.2,5.9-4.8,10.3-4.8s7.8,1.6,10.2,4.8c2.5,3.2,3.7,7.4,3.7,12.7S514.1,35.6,511.7,38.8z M496.1,26c0,6.1,1.8,9.2,5.3,9.2
	s5.3-3.1,5.3-9.2s-1.8-9.2-5.3-9.2S496.1,19.9,496.1,26z M533.2,22.9c2.1,0.7,3.9,1.8,5.2,3.5c1.3,1.6,2,3.6,2,5.9
	c0,3.6-1.2,6.4-3.6,8.4c-2.4,2-5.3,2.9-8.8,2.9c-2.8,0-5.3-0.6-7.4-1.9c-2.1-1.3-3.7-3.2-4.7-5.7l7.5-4.3c0.7,2.3,2.2,3.5,4.6,3.5
	c1.2,0,2.1-0.3,2.8-0.9c0.7-0.6,1-1.3,1-2.3s-0.3-1.7-1-2.3c-0.6-0.6-1.6-0.9-2.8-0.9h-1.8l-3.3-4.9l5.4-6.6H517V9.2h21.8V16
	L533.2,22.9z"/>
<path class="st0" d="M427.9,245.9c-2.4,3.2-5.8,4.8-10.2,4.8c-4.4,0-7.8-1.6-10.3-4.8c-2.4-3.2-3.6-7.5-3.6-12.8s1.2-9.6,3.6-12.7
	c2.5-3.2,5.9-4.8,10.3-4.8s7.8,1.6,10.2,4.8c2.5,3.2,3.7,7.4,3.7,12.7C431.6,238.5,430.4,242.7,427.9,245.9z M412.4,233.2
	c0,6.1,1.8,9.2,5.3,9.2s5.3-3.1,5.3-9.2s-1.8-9.2-5.3-9.2S412.4,227.1,412.4,233.2z M460.4,237v7.8H457v5.1h-8.5v-5.1h-14.7V237
	l10-20.6h9.5L443.2,237h5.3v-6h8.5v6H460.4z"/>
<path class="st0" d="M200.1,245.9c-2.4,3.2-5.8,4.8-10.2,4.8s-7.8-1.6-10.3-4.8c-2.4-3.2-3.6-7.5-3.6-12.8s1.2-9.6,3.6-12.7
	c2.5-3.2,5.9-4.8,10.3-4.8c4.4,0,7.8,1.6,10.2,4.8c2.5,3.2,3.7,7.4,3.7,12.7S202.6,242.7,200.1,245.9z M184.6,233.1
	c0,6.1,1.8,9.2,5.3,9.2s5.3-3.1,5.3-9.2s-1.8-9.2-5.3-9.2S184.6,227,184.6,233.1z M218.7,228.2c3.3,0,6,1,8.2,2.9s3.3,4.6,3.3,8.2
	c0,3.6-1.2,6.5-3.6,8.5c-2.4,2-5.3,3-8.8,3c-2.9,0-5.5-0.6-7.7-1.9c-2.2-1.3-3.8-3.2-4.8-5.7l7.5-4.3c0.7,2.3,2.4,3.5,4.9,3.5
	c1.2,0,2.1-0.3,2.8-0.8c0.7-0.6,1-1.3,1-2.3s-0.3-1.8-1-2.3c-0.6-0.5-1.5-0.8-2.6-0.8h-10.8l1.4-19.7h19.8v8.2h-11.9l-0.2,3.6
	L218.7,228.2L218.7,228.2z"/>
<path class="st1" d="M92.5,31.6h497"/>
<path class="st1" d="M87.8,239.9h501.7"/>
<path class="st1" d="M589.5,240c57.4,0,104-46.6,104-104s-46.6-104-104-104"/>
<circle class="st2" cx="94.5" cy="32" r="12"/>
<circle class="st3" cx="94.5" cy="32" r="6"/>
<circle class="st2" cx="304.5" cy="32" r="12"/>
<circle class="st3" cx="304.5" cy="32" r="6"/>
<circle class="st2" cx="513.5" cy="32" r="12"/>
<circle class="st3" cx="513.5" cy="32" r="6"/>
<circle class="st2" cx="202.9" cy="239.3" r="12"/>
<circle class="st3" cx="202.9" cy="239.3" r="6"/>
<circle class="st2" cx="430.7" cy="239" r="12"/>
<circle class="st3" cx="430.7" cy="239" r="6"/>
<g class="st4">
	<path d="M38.5,69.9l-1.8-3.2h-1.1v3.2h-2.2v-9.8h3.9c0.9,0,1.7,0.3,2.4,1c0.7,0.7,1,1.4,1,2.4c0,1.2-0.7,2.3-1.8,2.8l2.1,3.6H38.5z
		 M35.6,62.2v2.5h1.7c0.6,0,1.1-0.5,1.1-1.3c0-0.7-0.5-1.3-1.1-1.3H35.6z"/>
	<path d="M43.8,67.2c0.2,0.7,0.8,1,1.7,1c0.6,0,1-0.2,1.3-0.5l1.7,1c-0.7,1-1.7,1.4-3.1,1.4c-1.2,0-2.1-0.4-2.8-1.1
		c-0.7-0.7-1.1-1.6-1.1-2.6c0-1.1,0.4-1.9,1-2.6c0.7-0.7,1.6-1.1,2.7-1.1c1,0,1.9,0.4,2.5,1.1c0.7,0.7,1,1.6,1,2.6
		c0,0.3,0,0.6-0.1,0.8H43.8z M46.7,65.7c-0.2-0.7-0.7-1.1-1.5-1.1c-0.8,0-1.3,0.4-1.5,1.1H46.7z"/>
	<path d="M55.1,62.9h2.1v9.8h-2.1v-3.5c-0.5,0.6-1.2,0.9-2.1,0.9c-0.9,0-1.7-0.4-2.4-1.1c-0.7-0.7-1-1.6-1-2.6c0-1,0.3-1.9,1-2.6
		c0.7-0.7,1.4-1.1,2.4-1.1c0.9,0,1.6,0.3,2.1,0.9V62.9z M53.4,68.1c0.5,0,0.9-0.2,1.2-0.5c0.3-0.3,0.5-0.7,0.5-1.2s-0.2-0.9-0.5-1.2
		c-0.3-0.3-0.7-0.5-1.2-0.5s-0.9,0.2-1.2,0.5c-0.3,0.3-0.5,0.7-0.5,1.2s0.2,0.9,0.5,1.2C52.5,67.9,52.9,68.1,53.4,68.1z"/>
	<path d="M63.3,62.9h2.1v7h-2.1v-0.7c-0.4,0.6-1.1,0.9-2,0.9c-0.7,0-1.4-0.3-1.9-0.8c-0.5-0.5-0.7-1.2-0.7-2.1v-4.3h2.1v4
		c0,0.8,0.5,1.3,1.2,1.3c0.8,0,1.3-0.5,1.3-1.4V62.9z"/>
	<path d="M67.1,61.9c-0.5-0.5-0.5-1.2,0-1.7c0.5-0.5,1.3-0.5,1.8,0c0.5,0.5,0.5,1.2,0,1.7C68.3,62.4,67.6,62.4,67.1,61.9z
		 M66.9,69.9v-7H69v7H66.9z"/>
	<path d="M72.6,64.1c0.3-0.9,1.1-1.4,2.1-1.4v2.4c-0.5-0.1-1,0-1.4,0.3c-0.4,0.3-0.7,0.7-0.7,1.3v3.2h-2.1v-7h2.1V64.1z"/>
	<path d="M77.6,67.2c0.2,0.7,0.8,1,1.7,1c0.6,0,1-0.2,1.3-0.5l1.7,1c-0.7,1-1.7,1.4-3.1,1.4c-1.2,0-2.1-0.4-2.8-1.1
		c-0.7-0.7-1.1-1.6-1.1-2.6c0-1.1,0.4-1.9,1-2.6c0.7-0.7,1.6-1.1,2.7-1.1c1,0,1.9,0.4,2.5,1.1c0.7,0.7,1,1.6,1,2.6
		c0,0.3,0,0.6-0.1,0.8H77.6z M80.6,65.7c-0.2-0.7-0.7-1.1-1.5-1.1c-0.8,0-1.3,0.4-1.5,1.1H80.6z"/>
	<path d="M93.6,63.5c0.5,0.5,0.7,1.2,0.7,2.1v4.3h-2.1v-4.1c0-0.7-0.4-1.1-1-1.1c-0.7,0-1.1,0.5-1.1,1.3v4H88v-4.1
		c0-0.7-0.4-1.1-1-1.1c-0.7,0-1.1,0.5-1.1,1.3v4h-2.1v-7h2.1v0.6c0.4-0.6,1-0.8,1.9-0.8c0.8,0,1.4,0.3,1.8,0.9
		c0.4-0.6,1.1-0.9,2-0.9C92.5,62.7,93.1,63,93.6,63.5z"/>
	<path d="M97.7,67.2c0.2,0.7,0.8,1,1.7,1c0.6,0,1-0.2,1.3-0.5l1.7,1c-0.7,1-1.7,1.4-3.1,1.4c-1.2,0-2.1-0.4-2.8-1.1
		c-0.7-0.7-1.1-1.6-1.1-2.6c0-1.1,0.4-1.9,1-2.6c0.7-0.7,1.6-1.1,2.7-1.1c1,0,1.9,0.4,2.5,1.1c0.7,0.7,1,1.6,1,2.6
		c0,0.3,0,0.6-0.1,0.8H97.7z M100.6,65.7c-0.2-0.7-0.7-1.1-1.5-1.1c-0.8,0-1.3,0.4-1.5,1.1H100.6z"/>
	<path d="M109.9,63.5c0.5,0.5,0.8,1.2,0.8,2.1v4.3h-2.1v-4c0-0.8-0.5-1.3-1.2-1.3c-0.8,0-1.3,0.5-1.3,1.4v3.8h-2.1v-7h2.1v0.7
		c0.4-0.6,1.1-0.9,2-0.9C108.7,62.7,109.4,62.9,109.9,63.5z"/>
	<path d="M116.2,64.9h-1.4v2.5c0,0.6,0.4,0.7,1.4,0.6v1.9c-1.3,0.1-2.3,0-2.8-0.4c-0.5-0.4-0.8-1.1-0.8-2.1v-2.5h-1.1v-2h1.1v-1.3
		l2.1-0.6v2h1.4V64.9z"/>
	<path d="M127.3,69.9l-0.5-1.5h-3.6l-0.5,1.5h-2.5l3.3-9.8h2.9l3.3,9.8H127.3z M123.8,66.2h2.3l-1.1-3.6L123.8,66.2z"/>
	<path d="M136.5,63.5c0.5,0.5,0.8,1.2,0.8,2.1v4.3h-2.1v-4c0-0.8-0.5-1.3-1.2-1.3c-0.8,0-1.3,0.5-1.3,1.4v3.8h-2.1v-7h2.1v0.7
		c0.4-0.6,1.1-0.9,2-0.9C135.4,62.7,136,62.9,136.5,63.5z"/>
	<path d="M143.8,62.9h2.1v7h-2.1v-0.7c-0.5,0.6-1.2,0.9-2.1,0.9c-0.9,0-1.7-0.4-2.4-1.1c-0.7-0.7-1-1.6-1-2.6c0-1,0.3-1.9,1-2.6
		c0.7-0.7,1.4-1.1,2.4-1.1c0.9,0,1.6,0.3,2.1,0.9V62.9z M142.1,68.1c0.5,0,0.9-0.2,1.2-0.5c0.3-0.3,0.5-0.7,0.5-1.2
		s-0.2-0.9-0.5-1.2c-0.3-0.3-0.7-0.5-1.2-0.5c-0.5,0-0.9,0.2-1.2,0.5c-0.3,0.3-0.5,0.7-0.5,1.2s0.2,0.9,0.5,1.2
		C141.2,67.9,141.6,68.1,142.1,68.1z"/>
	<path d="M147.4,69.9V59.7h2.1v10.2H147.4z"/>
	<path d="M155.5,62.9h2.2l-2.4,6.8c-0.8,2.2-2,3.1-4,3v-2c1,0,1.4-0.3,1.8-1.2l-2.8-6.7h2.3l1.6,4.3L155.5,62.9z"/>
	<path d="M161.2,65.5c1,0.2,2.2,0.7,2.2,2.2c0,0.8-0.3,1.3-0.8,1.7c-0.6,0.4-1.2,0.6-2.1,0.6c-1.5,0-2.5-0.6-3-1.7l1.8-1
		c0.2,0.5,0.6,0.8,1.2,0.8c0.5,0,0.8-0.1,0.8-0.4c0-0.3-0.5-0.4-1.2-0.6c-1-0.3-2.2-0.7-2.2-2.2c0-0.7,0.3-1.3,0.8-1.7
		c0.5-0.4,1.2-0.6,2-0.6c1.2,0,2.2,0.5,2.7,1.5l-1.8,1c-0.2-0.4-0.5-0.6-0.9-0.6c-0.4,0-0.6,0.1-0.6,0.4
		C160,65.2,160.6,65.4,161.2,65.5z"/>
	<path d="M164.8,61.9c-0.5-0.5-0.5-1.2,0-1.7c0.5-0.5,1.3-0.5,1.8,0c0.5,0.5,0.5,1.2,0,1.7C166,62.4,165.3,62.4,164.8,61.9z
		 M164.6,69.9v-7h2.1v7H164.6z"/>
	<path d="M171.4,65.5c1,0.2,2.2,0.7,2.2,2.2c0,0.8-0.3,1.3-0.8,1.7c-0.6,0.4-1.2,0.6-2.1,0.6c-1.5,0-2.5-0.6-3-1.7l1.8-1
		c0.2,0.5,0.6,0.8,1.2,0.8c0.5,0,0.8-0.1,0.8-0.4c0-0.3-0.5-0.4-1.2-0.6c-1-0.3-2.2-0.7-2.2-2.2c0-0.7,0.3-1.3,0.8-1.7
		c0.5-0.4,1.2-0.6,2-0.6c1.2,0,2.2,0.5,2.7,1.5l-1.8,1c-0.2-0.4-0.5-0.6-0.9-0.6c-0.4,0-0.6,0.1-0.6,0.4
		C170.1,65.2,170.7,65.4,171.4,65.5z"/>
</g>
<g class="st4">
	<path d="M290.9,60.1c1.4,0,2.5,0.5,3.4,1.4c0.9,0.9,1.4,2.1,1.4,3.5s-0.5,2.6-1.4,3.5c-0.9,0.9-2,1.4-3.4,1.4h-3.9v-9.8H290.9z
		 M290.9,67.7c0.8,0,1.4-0.3,1.9-0.7c0.5-0.5,0.7-1.2,0.7-2c0-0.8-0.2-1.5-0.7-2c-0.5-0.5-1.1-0.8-1.9-0.8h-1.7v5.5H290.9z"/>
	<path d="M298.7,67.2c0.2,0.7,0.8,1,1.7,1c0.6,0,1-0.2,1.3-0.5l1.7,1c-0.7,1-1.7,1.4-3.1,1.4c-1.2,0-2.1-0.4-2.8-1.1
		c-0.7-0.7-1.1-1.6-1.1-2.6c0-1.1,0.4-1.9,1-2.6c0.7-0.7,1.6-1.1,2.7-1.1c1,0,1.9,0.4,2.5,1.1c0.7,0.7,1,1.6,1,2.6
		c0,0.3,0,0.6-0.1,0.8H298.7z M301.7,65.7c-0.2-0.7-0.7-1.1-1.5-1.1c-0.8,0-1.3,0.4-1.5,1.1H301.7z"/>
	<path d="M307.9,65.5c1,0.2,2.2,0.7,2.2,2.2c0,0.8-0.3,1.3-0.8,1.7c-0.6,0.4-1.2,0.6-2.1,0.6c-1.5,0-2.5-0.6-3-1.7l1.8-1
		c0.2,0.5,0.6,0.8,1.2,0.8c0.5,0,0.8-0.1,0.8-0.4c0-0.3-0.5-0.4-1.2-0.6c-1-0.3-2.2-0.7-2.2-2.2c0-0.7,0.3-1.3,0.8-1.7
		c0.5-0.4,1.2-0.6,2-0.6c1.2,0,2.2,0.5,2.7,1.5l-1.8,1c-0.2-0.4-0.5-0.6-0.9-0.6c-0.4,0-0.6,0.1-0.6,0.4
		C306.6,65.2,307.2,65.4,307.9,65.5z"/>
	<path d="M311.4,61.9c-0.5-0.5-0.5-1.2,0-1.7c0.5-0.5,1.3-0.5,1.8,0c0.5,0.5,0.5,1.2,0,1.7C312.7,62.4,311.9,62.4,311.4,61.9z
		 M311.2,69.9v-7h2.1v7H311.2z"/>
	<path d="M320,62.9h2v6.7c0,1.1-0.4,1.9-1.1,2.5c-0.7,0.6-1.6,0.9-2.6,0.9c-1.6,0-2.7-0.6-3.3-1.7l1.8-1c0.3,0.6,0.9,0.9,1.6,0.9
		c1,0,1.6-0.5,1.6-1.5v-0.6c-0.5,0.6-1.2,0.9-2,0.9c-1,0-1.8-0.4-2.5-1c-0.7-0.7-1-1.5-1-2.5s0.3-1.8,1-2.5c0.7-0.7,1.5-1.1,2.5-1.1
		c0.9,0,1.6,0.3,2,0.9V62.9z M318.3,67.9c0.5,0,0.9-0.2,1.2-0.4c0.3-0.3,0.5-0.7,0.5-1.2s-0.2-0.9-0.5-1.2s-0.7-0.4-1.2-0.4
		s-0.9,0.2-1.2,0.4s-0.5,0.7-0.5,1.2s0.2,0.9,0.5,1.2C317.4,67.7,317.8,67.9,318.3,67.9z"/>
	<path d="M329.5,63.5c0.5,0.5,0.8,1.2,0.8,2.1v4.3h-2.1v-4c0-0.8-0.5-1.3-1.2-1.3c-0.8,0-1.3,0.5-1.3,1.4v3.8h-2.1v-7h2.1v0.7
		c0.4-0.6,1.1-0.9,2-0.9C328.4,62.7,329,62.9,329.5,63.5z"/>
</g>
<g class="st4">
	<path d="M476.6,60.1c1.4,0,2.5,0.5,3.4,1.4c0.9,0.9,1.4,2.1,1.4,3.5s-0.5,2.6-1.4,3.5c-0.9,0.9-2,1.4-3.4,1.4h-3.9v-9.8H476.6z
		 M476.6,67.7c0.8,0,1.4-0.3,1.9-0.7c0.5-0.5,0.7-1.2,0.7-2c0-0.8-0.2-1.5-0.7-2c-0.5-0.5-1.1-0.8-1.9-0.8h-1.7v5.5H476.6z"/>
	<path d="M484.4,67.2c0.2,0.7,0.8,1,1.7,1c0.6,0,1-0.2,1.3-0.5l1.7,1c-0.7,1-1.7,1.4-3.1,1.4c-1.2,0-2.1-0.4-2.8-1.1
		c-0.7-0.7-1-1.6-1-2.6c0-1.1,0.3-1.9,1-2.6c0.7-0.7,1.6-1.1,2.7-1.1c1,0,1.9,0.4,2.5,1.1c0.7,0.7,1,1.6,1,2.6c0,0.3,0,0.6-0.1,0.8
		H484.4z M487.4,65.7c-0.2-0.7-0.7-1.1-1.5-1.1c-0.8,0-1.3,0.4-1.5,1.1H487.4z"/>
	<path d="M494.9,62.9h2.3l-2.6,7h-2.4l-2.6-7h2.3l1.5,4.4L494.9,62.9z"/>
	<path d="M499.8,67.2c0.2,0.7,0.8,1,1.7,1c0.6,0,1-0.2,1.3-0.5l1.7,1c-0.7,1-1.7,1.4-3.1,1.4c-1.2,0-2.1-0.4-2.8-1.1
		c-0.7-0.7-1.1-1.6-1.1-2.6c0-1.1,0.4-1.9,1-2.6c0.7-0.7,1.6-1.1,2.7-1.1c1,0,1.9,0.4,2.5,1.1c0.7,0.7,1,1.6,1,2.6
		c0,0.3,0,0.6-0.1,0.8H499.8z M502.8,65.7c-0.2-0.7-0.7-1.1-1.5-1.1c-0.8,0-1.3,0.4-1.5,1.1H502.8z"/>
	<path d="M506.1,69.9V59.7h2.1v10.2H506.1z"/>
	<path d="M513.1,70.1c-1,0-1.9-0.4-2.6-1.1c-0.7-0.7-1.1-1.6-1.1-2.6c0-1,0.4-1.9,1.1-2.6c0.7-0.7,1.6-1.1,2.6-1.1
		c1,0,1.9,0.4,2.6,1.1c0.7,0.7,1.1,1.6,1.1,2.6c0,1-0.4,1.9-1.1,2.6C515,69.7,514.1,70.1,513.1,70.1z M513.1,68
		c0.5,0,0.8-0.2,1.1-0.5c0.3-0.3,0.5-0.7,0.5-1.2s-0.2-0.9-0.5-1.2c-0.3-0.3-0.7-0.5-1.1-0.5c-0.5,0-0.8,0.2-1.1,0.5
		c-0.3,0.3-0.5,0.7-0.5,1.2s0.2,0.9,0.5,1.2C512.2,67.9,512.6,68,513.1,68z"/>
	<path d="M524.5,63.8c0.7,0.7,1,1.6,1,2.6c0,1-0.3,1.9-1,2.6c-0.7,0.7-1.4,1.1-2.4,1.1c-0.9,0-1.6-0.3-2.1-0.9v3.5H518v-9.8h2.1v0.7
		c0.5-0.6,1.2-0.9,2.1-0.9C523.1,62.7,523.9,63,524.5,63.8z M521.7,68.1c0.5,0,0.9-0.2,1.2-0.5c0.3-0.3,0.5-0.7,0.5-1.2
		s-0.2-0.9-0.5-1.2c-0.3-0.3-0.7-0.5-1.2-0.5s-0.9,0.2-1.2,0.5c-0.3,0.3-0.5,0.7-0.5,1.2s0.2,0.9,0.5,1.2
		C520.8,67.9,521.2,68.1,521.7,68.1z"/>
	<path d="M536.5,63.5c0.5,0.5,0.7,1.2,0.7,2.1v4.3h-2.1v-4.1c0-0.7-0.4-1.1-1-1.1c-0.7,0-1.1,0.5-1.1,1.3v4h-2.1v-4.1
		c0-0.7-0.4-1.1-1-1.1c-0.7,0-1.1,0.5-1.1,1.3v4h-2.1v-7h2.1v0.6c0.4-0.6,1-0.8,1.9-0.8c0.8,0,1.4,0.3,1.8,0.9
		c0.4-0.6,1.1-0.9,2-0.9C535.3,62.7,536,63,536.5,63.5z"/>
	<path d="M540.5,67.2c0.2,0.7,0.8,1,1.7,1c0.6,0,1-0.2,1.3-0.5l1.7,1c-0.7,1-1.7,1.4-3.1,1.4c-1.2,0-2.1-0.4-2.8-1.1
		c-0.7-0.7-1.1-1.6-1.1-2.6c0-1.1,0.4-1.9,1-2.6c0.7-0.7,1.6-1.1,2.7-1.1c1,0,1.9,0.4,2.5,1.1c0.7,0.7,1,1.6,1,2.6
		c0,0.3,0,0.6-0.1,0.8H540.5z M543.5,65.7c-0.2-0.7-0.7-1.1-1.5-1.1c-0.8,0-1.3,0.4-1.5,1.1H543.5z"/>
	<path d="M552.7,63.5c0.5,0.5,0.8,1.2,0.8,2.1v4.3h-2.1v-4c0-0.8-0.5-1.3-1.2-1.3c-0.8,0-1.3,0.5-1.3,1.4v3.8h-2.1v-7h2.1v0.7
		c0.4-0.6,1.1-0.9,2-0.9C551.6,62.7,552.2,62.9,552.7,63.5z"/>
	<path d="M559,64.9h-1.4v2.5c0,0.6,0.4,0.7,1.4,0.6v1.9c-1.3,0.1-2.3,0-2.8-0.4c-0.5-0.4-0.8-1.1-0.8-2.1v-2.5h-1.1v-2h1.1v-1.3
		l2.1-0.6v2h1.4V64.9z"/>
</g>
<g class="st4">
	<path d="M412.8,280.3c-1-1-1.4-2.2-1.4-3.6c0-1.4,0.5-2.7,1.4-3.6c1-1,2.2-1.5,3.7-1.5c1.8,0,3.3,0.9,4.2,2.3l-1.9,1.1
		c-0.4-0.8-1.3-1.2-2.3-1.2c-0.9,0-1.6,0.3-2.1,0.8c-0.5,0.5-0.8,1.2-0.8,2.1c0,0.9,0.3,1.6,0.8,2.1c0.5,0.5,1.2,0.8,2.1,0.8
		c1,0,1.9-0.5,2.3-1.2l1.9,1.1c-0.8,1.4-2.4,2.3-4.2,2.3C415,281.7,413.8,281.2,412.8,280.3z"/>
	<path d="M423.7,278.9c0.2,0.7,0.8,1,1.7,1c0.6,0,1-0.2,1.3-0.5l1.7,1c-0.7,1-1.7,1.4-3.1,1.4c-1.2,0-2.1-0.4-2.8-1.1
		c-0.7-0.7-1.1-1.6-1.1-2.6c0-1.1,0.3-1.9,1-2.6c0.7-0.7,1.6-1.1,2.7-1.1c1,0,1.9,0.4,2.5,1.1c0.7,0.7,1,1.6,1,2.6
		c0,0.3,0,0.6-0.1,0.8H423.7z M426.7,277.3c-0.2-0.7-0.7-1.1-1.5-1.1c-0.8,0-1.3,0.4-1.5,1.1H426.7z"/>
	<path d="M432,275.8c0.3-0.9,1.1-1.4,2.1-1.4v2.4c-0.5-0.1-1,0-1.4,0.3c-0.4,0.3-0.7,0.7-0.7,1.3v3.2h-2.1v-7h2.1V275.8z"/>
	<path d="M439.4,276.5H438v2.5c0,0.6,0.4,0.7,1.4,0.6v1.9c-1.3,0.1-2.3,0-2.8-0.4c-0.5-0.4-0.8-1.1-0.8-2.1v-2.5h-1.1v-2h1.1v-1.3
		l2.1-0.6v2h1.4V276.5z"/>
	<path d="M440.9,273.5c-0.5-0.5-0.5-1.2,0-1.7c0.5-0.5,1.3-0.5,1.8,0c0.5,0.5,0.5,1.2,0,1.7C442.2,274,441.4,274,440.9,273.5z
		 M440.7,281.5v-7h2.1v7H440.7z"/>
	<path d="M448.2,273.5c-0.9-0.1-1.3,0.3-1.3,1h1.3v2h-1.3v5h-2.1v-5h-0.9v-2h0.9c0-2,1.1-3.1,3.4-3V273.5z"/>
	<path d="M453.7,274.5h2.2l-2.4,6.8c-0.8,2.2-2,3.1-4,3v-2c1,0,1.4-0.3,1.8-1.2l-2.8-6.7h2.3l1.6,4.3L453.7,274.5z"/>
</g>
<g class="st4">
	<path d="M126.1,266.6c1.4,0,2.5,0.5,3.4,1.4s1.4,2.1,1.4,3.5s-0.5,2.6-1.4,3.5s-2,1.4-3.4,1.4h-3.9v-9.8H126.1z M126.1,274.2
		c0.8,0,1.4-0.3,1.9-0.7c0.5-0.5,0.7-1.2,0.7-2c0-0.8-0.2-1.5-0.7-2c-0.5-0.5-1.1-0.8-1.9-0.8h-1.7v5.5H126.1z"/>
	<path d="M133.9,273.7c0.2,0.7,0.8,1,1.7,1c0.6,0,1-0.2,1.3-0.5l1.7,1c-0.7,1-1.7,1.4-3.1,1.4c-1.2,0-2.1-0.4-2.8-1.1
		c-0.7-0.7-1.1-1.6-1.1-2.6c0-1.1,0.4-1.9,1-2.6c0.7-0.7,1.6-1.1,2.7-1.1c1,0,1.9,0.4,2.5,1.1c0.7,0.7,1,1.6,1,2.6
		c0,0.3,0,0.6-0.1,0.8H133.9z M136.9,272.1c-0.2-0.7-0.7-1.1-1.5-1.1c-0.8,0-1.3,0.4-1.5,1.1H136.9z"/>
	<path d="M146.7,270.3c0.7,0.7,1,1.6,1,2.6c0,1-0.3,1.9-1,2.6c-0.7,0.7-1.4,1.1-2.4,1.1c-0.9,0-1.6-0.3-2.1-0.9v3.5h-2.1v-9.8h2.1
		v0.7c0.5-0.6,1.2-0.9,2.1-0.9C145.3,269.2,146,269.5,146.7,270.3z M143.9,274.6c0.5,0,0.9-0.2,1.2-0.5c0.3-0.3,0.5-0.7,0.5-1.2
		s-0.2-0.9-0.5-1.2c-0.3-0.3-0.7-0.5-1.2-0.5s-0.9,0.2-1.2,0.5c-0.3,0.3-0.5,0.7-0.5,1.2s0.2,0.9,0.5,1.2
		C143,274.4,143.4,274.6,143.9,274.6z"/>
	<path d="M148.9,276.4v-10.2h2.1v10.2H148.9z"/>
	<path d="M155.9,276.6c-1,0-1.9-0.4-2.6-1.1c-0.7-0.7-1.1-1.6-1.1-2.6c0-1,0.4-1.9,1.1-2.6c0.7-0.7,1.6-1.1,2.6-1.1s1.9,0.4,2.6,1.1
		c0.7,0.7,1.1,1.6,1.1,2.6c0,1-0.4,1.9-1.1,2.6C157.8,276.2,156.9,276.6,155.9,276.6z M155.9,274.5c0.5,0,0.8-0.2,1.1-0.5
		c0.3-0.3,0.5-0.7,0.5-1.2s-0.2-0.9-0.5-1.2c-0.3-0.3-0.7-0.5-1.1-0.5c-0.5,0-0.8,0.2-1.1,0.5c-0.3,0.3-0.5,0.7-0.5,1.2
		s0.2,0.9,0.5,1.2C155,274.4,155.4,274.5,155.9,274.5z"/>
	<path d="M164.9,269.4h2.2l-2.4,6.8c-0.8,2.2-2,3.1-4,3v-2c1,0,1.4-0.3,1.8-1.2l-2.8-6.7h2.3l1.6,4.3L164.9,269.4z"/>
	<path d="M176.5,269.4h2.1v7h-2.1v-0.7c-0.5,0.6-1.2,0.9-2.1,0.9c-0.9,0-1.7-0.4-2.4-1.1c-0.7-0.7-1-1.6-1-2.6c0-1,0.3-1.9,1-2.6
		c0.7-0.7,1.4-1.1,2.4-1.1c0.9,0,1.6,0.3,2.1,0.9V269.4z M174.8,274.6c0.5,0,0.9-0.2,1.2-0.5c0.3-0.3,0.5-0.7,0.5-1.2
		s-0.2-0.9-0.5-1.2c-0.3-0.3-0.7-0.5-1.2-0.5s-0.9,0.2-1.2,0.5c-0.3,0.3-0.5,0.7-0.5,1.2s0.2,0.9,0.5,1.2
		C173.9,274.4,174.3,274.6,174.8,274.6z"/>
	<path d="M186.1,269.9c0.5,0.5,0.8,1.2,0.8,2.1v4.3h-2.1v-4c0-0.8-0.5-1.3-1.2-1.3c-0.8,0-1.3,0.5-1.3,1.4v3.8h-2.1v-7h2.1v0.7
		c0.4-0.6,1.1-0.9,2-0.9C185,269.2,185.6,269.4,186.1,269.9z"/>
	<path d="M193.4,266.6h2.1v9.8h-2.1v-0.7c-0.5,0.6-1.2,0.9-2.1,0.9c-0.9,0-1.7-0.4-2.4-1.1c-0.7-0.7-1-1.6-1-2.6c0-1,0.3-1.9,1-2.6
		c0.7-0.7,1.4-1.1,2.4-1.1c0.9,0,1.6,0.3,2.1,0.9V266.6z M191.7,274.6c0.5,0,0.9-0.2,1.2-0.5c0.3-0.3,0.5-0.7,0.5-1.2
		s-0.2-0.9-0.5-1.2c-0.3-0.3-0.7-0.5-1.2-0.5s-0.9,0.2-1.2,0.5c-0.3,0.3-0.5,0.7-0.5,1.2s0.2,0.9,0.5,1.2
		C190.8,274.4,191.2,274.6,191.7,274.6z"/>
	<path d="M210.4,266.6v9.8h-2.2v-5.7l-2.5,4.2h-0.3l-2.5-4.2v5.7h-2.2v-9.8h2.2l2.7,4.4l2.7-4.4H210.4z"/>
	<path d="M217.1,269.4h2.1v7h-2.1v-0.7c-0.5,0.6-1.2,0.9-2.1,0.9c-0.9,0-1.7-0.4-2.4-1.1c-0.7-0.7-1-1.6-1-2.6c0-1,0.3-1.9,1-2.6
		c0.7-0.7,1.4-1.1,2.4-1.1c0.9,0,1.6,0.3,2.1,0.9V269.4z M215.4,274.6c0.5,0,0.9-0.2,1.2-0.5c0.3-0.3,0.5-0.7,0.5-1.2
		s-0.2-0.9-0.5-1.2c-0.3-0.3-0.7-0.5-1.2-0.5c-0.5,0-0.9,0.2-1.2,0.5c-0.3,0.3-0.5,0.7-0.5,1.2s0.2,0.9,0.5,1.2
		C214.5,274.4,214.9,274.6,215.4,274.6z"/>
	<path d="M220.9,268.4c-0.5-0.5-0.5-1.2,0-1.7c0.5-0.5,1.3-0.5,1.8,0c0.5,0.5,0.5,1.2,0,1.7C222.2,268.9,221.4,268.9,220.9,268.4z
		 M220.7,276.4v-7h2.1v7H220.7z"/>
	<path d="M230.3,269.9c0.5,0.5,0.8,1.2,0.8,2.1v4.3H229v-4c0-0.8-0.5-1.3-1.2-1.3c-0.8,0-1.3,0.5-1.3,1.4v3.8h-2.1v-7h2.1v0.7
		c0.4-0.6,1.1-0.9,2-0.9C229.2,269.2,229.8,269.4,230.3,269.9z"/>
	<path d="M236.6,271.4h-1.4v2.5c0,0.6,0.4,0.7,1.4,0.6v1.9c-1.3,0.1-2.3,0-2.8-0.4c-0.5-0.4-0.8-1.1-0.8-2.1v-2.5H232v-2h1.1V268
		l2.1-0.6v2h1.4V271.4z"/>
	<path d="M239.8,273.7c0.2,0.7,0.8,1,1.7,1c0.6,0,1-0.2,1.3-0.5l1.7,1c-0.7,1-1.7,1.4-3.1,1.4c-1.2,0-2.1-0.4-2.8-1.1
		c-0.7-0.7-1.1-1.6-1.1-2.6c0-1.1,0.4-1.9,1-2.6c0.7-0.7,1.6-1.1,2.7-1.1c1,0,1.9,0.4,2.5,1.1c0.7,0.7,1,1.6,1,2.6
		c0,0.3,0,0.6-0.1,0.8H239.8z M242.8,272.1c-0.2-0.7-0.7-1.1-1.5-1.1c-0.8,0-1.3,0.4-1.5,1.1H242.8z"/>
	<path d="M252,269.9c0.5,0.5,0.8,1.2,0.8,2.1v4.3h-2.1v-4c0-0.8-0.5-1.3-1.2-1.3c-0.8,0-1.3,0.5-1.3,1.4v3.8h-2.1v-7h2.1v0.7
		c0.4-0.6,1.1-0.9,2-0.9C250.9,269.2,251.6,269.4,252,269.9z"/>
	<path d="M259.3,269.4h2.1v7h-2.1v-0.7c-0.5,0.6-1.2,0.9-2.1,0.9c-0.9,0-1.7-0.4-2.4-1.1c-0.7-0.7-1-1.6-1-2.6c0-1,0.3-1.9,1-2.6
		c0.7-0.7,1.4-1.1,2.4-1.1c0.9,0,1.6,0.3,2.1,0.9V269.4z M257.7,274.6c0.5,0,0.9-0.2,1.2-0.5c0.3-0.3,0.5-0.7,0.5-1.2
		s-0.2-0.9-0.5-1.2c-0.3-0.3-0.7-0.5-1.2-0.5c-0.5,0-0.9,0.2-1.2,0.5c-0.3,0.3-0.5,0.7-0.5,1.2s0.2,0.9,0.5,1.2
		C256.8,274.4,257.2,274.6,257.7,274.6z"/>
	<path d="M268.9,269.9c0.5,0.5,0.8,1.2,0.8,2.1v4.3h-2.1v-4c0-0.8-0.5-1.3-1.2-1.3c-0.8,0-1.3,0.5-1.3,1.4v3.8H263v-7h2.1v0.7
		c0.4-0.6,1.1-0.9,2-0.9C267.8,269.2,268.4,269.4,268.9,269.9z"/>
	<path d="M271.8,275.5c-0.7-0.7-1.1-1.6-1.1-2.6s0.4-1.9,1.1-2.6c0.7-0.7,1.6-1.1,2.7-1.1c1.3,0,2.5,0.7,3.2,1.8l-1.8,1.1
		c-0.3-0.5-0.7-0.8-1.4-0.8c-0.9,0-1.6,0.7-1.6,1.6s0.7,1.6,1.6,1.6c0.7,0,1.1-0.3,1.4-0.8l1.8,1c-0.6,1.1-1.8,1.8-3.2,1.8
		C273.4,276.6,272.5,276.2,271.8,275.5z"/>
	<path d="M280.4,273.7c0.2,0.7,0.8,1,1.7,1c0.6,0,1-0.2,1.3-0.5l1.7,1c-0.7,1-1.7,1.4-3.1,1.4c-1.2,0-2.1-0.4-2.8-1.1
		c-0.7-0.7-1.1-1.6-1.1-2.6c0-1.1,0.4-1.9,1-2.6c0.7-0.7,1.6-1.1,2.7-1.1c1,0,1.9,0.4,2.5,1.1c0.7,0.7,1,1.6,1,2.6
		c0,0.3,0,0.6-0.1,0.8H280.4z M283.4,272.1c-0.2-0.7-0.7-1.1-1.5-1.1c-0.8,0-1.3,0.4-1.5,1.1H283.4z"/>
</g>
</svg>
