<svg width="855" height="320" viewBox="0 0 855 320" fill="none" xmlns="http://www.w3.org/2000/svg">
<path d="M43.344 40.968C40.912 44.136 37.504 45.72 33.12 45.72C28.736 45.72 25.312 44.136 22.848 40.968C20.416 37.768 19.2 33.512 19.2 28.2C19.2 22.888 20.416 18.648 22.848 15.48C25.312 12.28 28.736 10.68 33.12 10.68C37.504 10.68 40.912 12.28 43.344 15.48C45.808 18.648 47.04 22.888 47.04 28.2C47.04 33.512 45.808 37.768 43.344 40.968ZM27.792 28.2C27.792 34.312 29.568 37.368 33.12 37.368C36.672 37.368 38.448 34.312 38.448 28.2C38.448 22.088 36.672 19.032 33.12 19.032C29.568 19.032 27.792 22.088 27.792 28.2ZM56.8913 11.4H64.2833V45H55.6913V20.424L49.8353 21.912L47.7713 14.664L56.8913 11.4Z" fill="#F1F3F5"/>
<path d="M252.344 40.968C249.912 44.136 246.504 45.72 242.12 45.72C237.736 45.72 234.312 44.136 231.848 40.968C229.416 37.768 228.2 33.512 228.2 28.2C228.2 22.888 229.416 18.648 231.848 15.48C234.312 12.28 237.736 10.68 242.12 10.68C246.504 10.68 249.912 12.28 252.344 15.48C254.808 18.648 256.04 22.888 256.04 28.2C256.04 33.512 254.808 37.768 252.344 40.968ZM236.792 28.2C236.792 34.312 238.568 37.368 242.12 37.368C245.672 37.368 247.448 34.312 247.448 28.2C247.448 22.088 245.672 19.032 242.12 19.032C238.568 19.032 236.792 22.088 236.792 28.2ZM257.539 45V38.76L268.675 27C269.795 25.784 270.611 24.808 271.123 24.072C271.635 23.304 271.891 22.552 271.891 21.816C271.891 20.984 271.619 20.312 271.075 19.8C270.563 19.288 269.843 19.032 268.915 19.032C266.931 19.032 265.427 20.2 264.403 22.536L257.011 18.408C258.099 15.88 259.699 13.96 261.811 12.648C263.923 11.336 266.259 10.68 268.819 10.68C272.019 10.68 274.755 11.64 277.027 13.56C279.331 15.448 280.483 18.04 280.483 21.336C280.483 23.288 280.019 25.096 279.091 26.76C278.195 28.392 276.867 30.12 275.107 31.944L270.547 36.696H281.059V45H257.539Z" fill="#F1F3F5"/>
<path d="M462.344 40.968C459.912 44.136 456.504 45.72 452.12 45.72C447.736 45.72 444.312 44.136 441.848 40.968C439.416 37.768 438.2 33.512 438.2 28.2C438.2 22.888 439.416 18.648 441.848 15.48C444.312 12.28 447.736 10.68 452.12 10.68C456.504 10.68 459.912 12.28 462.344 15.48C464.808 18.648 466.04 22.888 466.04 28.2C466.04 33.512 464.808 37.768 462.344 40.968ZM446.792 28.2C446.792 34.312 448.568 37.368 452.12 37.368C455.672 37.368 457.448 34.312 457.448 28.2C457.448 22.088 455.672 19.032 452.12 19.032C448.568 19.032 446.792 22.088 446.792 28.2ZM483.92 25.08C486.064 25.752 487.792 26.904 489.104 28.536C490.416 30.168 491.072 32.136 491.072 34.44C491.072 38.056 489.888 40.84 487.52 42.792C485.152 44.744 482.224 45.72 478.736 45.72C475.952 45.72 473.472 45.08 471.296 43.8C469.152 42.52 467.6 40.632 466.64 38.136L474.128 33.864C474.832 36.2 476.368 37.368 478.736 37.368C479.952 37.368 480.88 37.08 481.52 36.504C482.192 35.928 482.528 35.16 482.528 34.2C482.528 33.24 482.192 32.488 481.52 31.944C480.88 31.368 479.952 31.08 478.736 31.08H476.912L473.6 26.184L478.976 19.608H467.696V11.4H489.536V18.168L483.92 25.08Z" fill="#F1F3F5"/>
<path d="M669.344 40.968C666.912 44.136 663.504 45.72 659.12 45.72C654.736 45.72 651.312 44.136 648.848 40.968C646.416 37.768 645.2 33.512 645.2 28.2C645.2 22.888 646.416 18.648 648.848 15.48C651.312 12.28 654.736 10.68 659.12 10.68C663.504 10.68 666.912 12.28 669.344 15.48C671.808 18.648 673.04 22.888 673.04 28.2C673.04 33.512 671.808 37.768 669.344 40.968ZM653.792 28.2C653.792 34.312 655.568 37.368 659.12 37.368C662.672 37.368 664.448 34.312 664.448 28.2C664.448 22.088 662.672 19.032 659.12 19.032C655.568 19.032 653.792 22.088 653.792 28.2ZM701.829 32.04V39.864H698.469V45H689.925V39.864H675.189V32.04L685.221 11.4H694.725L684.597 32.04H689.925V25.992H698.469V32.04H701.829Z" fill="#F1F3F5"/>
<path d="M461.344 248.968C458.912 252.136 455.504 253.72 451.12 253.72C446.736 253.72 443.312 252.136 440.848 248.968C438.416 245.768 437.2 241.512 437.2 236.2C437.2 230.888 438.416 226.648 440.848 223.48C443.312 220.28 446.736 218.68 451.12 218.68C455.504 218.68 458.912 220.28 461.344 223.48C463.808 226.648 465.04 230.888 465.04 236.2C465.04 241.512 463.808 245.768 461.344 248.968ZM445.792 236.2C445.792 242.312 447.568 245.368 451.12 245.368C454.672 245.368 456.448 242.312 456.448 236.2C456.448 230.088 454.672 227.032 451.12 227.032C447.568 227.032 445.792 230.088 445.792 236.2ZM481.877 230.104C485.141 230.52 487.749 231.8 489.701 233.944C491.653 236.056 492.629 238.696 492.629 241.864C492.629 245.352 491.461 248.2 489.125 250.408C486.789 252.616 483.717 253.72 479.909 253.72C476.101 253.72 473.029 252.616 470.693 250.408C468.357 248.2 467.189 245.352 467.189 241.864C467.189 239.24 467.893 236.92 469.301 234.904L479.237 219.4H488.981L481.877 230.104ZM479.909 245.848C481.093 245.848 482.069 245.496 482.837 244.792C483.637 244.088 484.037 243.112 484.037 241.864C484.037 240.584 483.653 239.592 482.885 238.888C482.117 238.184 481.125 237.832 479.909 237.832C478.693 237.832 477.701 238.184 476.933 238.888C476.165 239.592 475.781 240.584 475.781 241.864C475.781 243.144 476.165 244.136 476.933 244.84C477.701 245.512 478.693 245.848 479.909 245.848Z" fill="#F1F3F5"/>
<path d="M253.344 248.968C250.912 252.136 247.504 253.72 243.12 253.72C238.736 253.72 235.312 252.136 232.848 248.968C230.416 245.768 229.2 241.512 229.2 236.2C229.2 230.888 230.416 226.648 232.848 223.48C235.312 220.28 238.736 218.68 243.12 218.68C247.504 218.68 250.912 220.28 253.344 223.48C255.808 226.648 257.04 230.888 257.04 236.2C257.04 241.512 255.808 245.768 253.344 248.968ZM237.792 236.2C237.792 242.312 239.568 245.368 243.12 245.368C246.672 245.368 248.448 242.312 248.448 236.2C248.448 230.088 246.672 227.032 243.12 227.032C239.568 227.032 237.792 230.088 237.792 236.2ZM257.767 219.4H280.519V226.504L270.007 253H260.743L270.727 227.704H257.767V219.4Z" fill="#F1F3F5"/>
<path d="M671.344 248.968C668.912 252.136 665.504 253.72 661.12 253.72C656.736 253.72 653.312 252.136 650.848 248.968C648.416 245.768 647.2 241.512 647.2 236.2C647.2 230.888 648.416 226.648 650.848 223.48C653.312 220.28 656.736 218.68 661.12 218.68C665.504 218.68 668.912 220.28 671.344 223.48C673.808 226.648 675.04 230.888 675.04 236.2C675.04 241.512 673.808 245.768 671.344 248.968ZM655.792 236.2C655.792 242.312 657.568 245.368 661.12 245.368C664.672 245.368 666.448 242.312 666.448 236.2C666.448 230.088 664.672 227.032 661.12 227.032C657.568 227.032 655.792 230.088 655.792 236.2ZM689.92 231.208C693.216 231.208 695.952 232.168 698.128 234.088C700.336 236.008 701.44 238.728 701.44 242.248C701.44 245.896 700.256 248.728 697.888 250.744C695.52 252.728 692.576 253.72 689.056 253.72C686.112 253.72 683.552 253.096 681.376 251.848C679.2 250.568 677.616 248.664 676.624 246.136L684.112 241.864C684.816 244.2 686.464 245.368 689.056 245.368C690.272 245.368 691.2 245.096 691.84 244.552C692.512 243.976 692.848 243.208 692.848 242.248C692.848 241.256 692.512 240.488 691.84 239.944C691.2 239.4 690.32 239.128 689.2 239.128H678.448L679.84 219.4H699.616V227.608H687.76L687.52 231.208H689.92Z" fill="#F1F3F5"/>
<path d="M43 32L750 32.0001" stroke="#D9D9F9"/>
<path d="M74 240L750 240" stroke="#D9D9F9"/>
<path d="M750 240C807.438 240 854 193.438 854 136C854 78.5624 807.438 32 750 32" stroke="#D9D9F9"/>
<circle opacity="0.5" cx="43" cy="32" r="12" fill="#D9D9F9"/>
<circle cx="43" cy="32" r="6" fill="#353590"/>
<path d="M4.7847 70.2C5.72737 70.2 6.5207 70.5173 7.1647 71.152C7.8087 71.7867 8.1307 72.566 8.1307 73.49C8.1307 74.414 7.8087 75.1933 7.1647 75.828C6.5207 76.4627 5.72737 76.78 4.7847 76.78H3.0627V80H1.1307V70.2H4.7847ZM4.7847 74.974C5.19537 74.974 5.53604 74.834 5.8067 74.554C6.07737 74.2647 6.2127 73.91 6.2127 73.49C6.2127 73.0607 6.07737 72.706 5.8067 72.426C5.53604 72.146 5.19537 72.006 4.7847 72.006H3.0627V74.974H4.7847ZM10.9601 74.204C11.1281 73.756 11.4035 73.42 11.7861 73.196C12.1781 72.972 12.6121 72.86 13.0881 72.86V74.876C12.5375 74.8107 12.0428 74.9227 11.6041 75.212C11.1748 75.5013 10.9601 75.982 10.9601 76.654V80H9.15413V73H10.9601V74.204ZM19.8486 79.132C19.1299 79.8413 18.2526 80.196 17.2166 80.196C16.1806 80.196 15.3033 79.8413 14.5846 79.132C13.8753 78.4133 13.5206 77.536 13.5206 76.5C13.5206 75.464 13.8753 74.5913 14.5846 73.882C15.3033 73.1633 16.1806 72.804 17.2166 72.804C18.2526 72.804 19.1299 73.1633 19.8486 73.882C20.5673 74.5913 20.9266 75.464 20.9266 76.5C20.9266 77.536 20.5673 78.4133 19.8486 79.132ZM15.8586 77.886C16.2226 78.25 16.6753 78.432 17.2166 78.432C17.7579 78.432 18.2106 78.25 18.5746 77.886C18.9386 77.522 19.1206 77.06 19.1206 76.5C19.1206 75.94 18.9386 75.478 18.5746 75.114C18.2106 74.75 17.7579 74.568 17.2166 74.568C16.6753 74.568 16.2226 74.75 15.8586 75.114C15.5039 75.478 15.3266 75.94 15.3266 76.5C15.3266 77.06 15.5039 77.522 15.8586 77.886ZM23.14 72.16C22.832 72.16 22.566 72.0527 22.342 71.838C22.1273 71.614 22.02 71.3527 22.02 71.054C22.02 70.7553 22.1273 70.494 22.342 70.27C22.566 70.046 22.832 69.934 23.14 69.934C23.4387 69.934 23.6953 70.046 23.91 70.27C24.134 70.494 24.246 70.7553 24.246 71.054C24.246 71.3527 24.134 71.614 23.91 71.838C23.6953 72.0527 23.4387 72.16 23.14 72.16ZM22.23 80.14V73H24.036V80.14C24.036 81.1667 23.784 81.9133 23.28 82.38C22.7853 82.856 22.02 83.0613 20.984 82.996V81.26C21.4133 81.288 21.726 81.2133 21.922 81.036C22.1273 80.8587 22.23 80.56 22.23 80.14ZM27.2094 77.242C27.4521 78.1193 28.1101 78.558 29.1834 78.558C29.8741 78.558 30.3968 78.3247 30.7514 77.858L32.2074 78.698C31.5168 79.6967 30.4994 80.196 29.1554 80.196C27.9981 80.196 27.0694 79.846 26.3694 79.146C25.6694 78.446 25.3194 77.564 25.3194 76.5C25.3194 75.4453 25.6648 74.568 26.3554 73.868C27.0461 73.1587 27.9328 72.804 29.0154 72.804C30.0421 72.804 30.8868 73.1587 31.5494 73.868C32.2214 74.5773 32.5574 75.4547 32.5574 76.5C32.5574 76.7333 32.5341 76.9807 32.4874 77.242H27.2094ZM27.1814 75.842H30.7514C30.6488 75.366 30.4341 75.0113 30.1074 74.778C29.7901 74.5447 29.4261 74.428 29.0154 74.428C28.5301 74.428 28.1288 74.554 27.8114 74.806C27.4941 75.0487 27.2841 75.394 27.1814 75.842ZM37.0955 80.196C36.0408 80.196 35.1588 79.8413 34.4495 79.132C33.7495 78.4227 33.3995 77.5453 33.3995 76.5C33.3995 75.4547 33.7495 74.5773 34.4495 73.868C35.1588 73.1587 36.0408 72.804 37.0955 72.804C37.7768 72.804 38.3975 72.9673 38.9575 73.294C39.5175 73.6207 39.9422 74.0593 40.2315 74.61L38.6775 75.52C38.5375 75.2307 38.3228 75.002 38.0335 74.834C37.7535 74.666 37.4362 74.582 37.0815 74.582C36.5402 74.582 36.0922 74.764 35.7375 75.128C35.3828 75.4827 35.2055 75.94 35.2055 76.5C35.2055 77.0507 35.3828 77.508 35.7375 77.872C36.0922 78.2267 36.5402 78.404 37.0815 78.404C37.4455 78.404 37.7675 78.3247 38.0475 78.166C38.3368 77.998 38.5515 77.7693 38.6915 77.48L40.2595 78.376C39.9515 78.9267 39.5175 79.37 38.9575 79.706C38.3975 80.0327 37.7768 80.196 37.0955 80.196ZM45.2187 74.736H43.6367V77.648C43.6367 77.8907 43.6973 78.068 43.8187 78.18C43.94 78.292 44.1173 78.3573 44.3507 78.376C44.584 78.3853 44.8733 78.3807 45.2187 78.362V80C43.9773 80.14 43.1 80.0233 42.5867 79.65C42.0827 79.2767 41.8307 78.6093 41.8307 77.648V74.736H40.6127V73H41.8307V71.586L43.6367 71.04V73H45.2187V74.736ZM51.7674 74.988C51.7674 75.1747 51.8887 75.3287 52.1314 75.45C52.3834 75.562 52.6867 75.6647 53.0414 75.758C53.3961 75.842 53.7507 75.954 54.1054 76.094C54.4601 76.2247 54.7587 76.4487 55.0014 76.766C55.2534 77.0833 55.3794 77.48 55.3794 77.956C55.3794 78.6747 55.1087 79.23 54.5674 79.622C54.0354 80.0047 53.3681 80.196 52.5654 80.196C51.1281 80.196 50.1481 79.6407 49.6254 78.53L51.1934 77.648C51.3987 78.2547 51.8561 78.558 52.5654 78.558C53.2094 78.558 53.5314 78.3573 53.5314 77.956C53.5314 77.7693 53.4054 77.62 53.1534 77.508C52.9107 77.3867 52.6121 77.2793 52.2574 77.186C51.9027 77.0927 51.5481 76.976 51.1934 76.836C50.8387 76.696 50.5354 76.4767 50.2834 76.178C50.0407 75.87 49.9194 75.4873 49.9194 75.03C49.9194 74.3393 50.1714 73.798 50.6754 73.406C51.1887 73.0047 51.8234 72.804 52.5794 72.804C53.1487 72.804 53.6667 72.9347 54.1334 73.196C54.6001 73.448 54.9687 73.812 55.2394 74.288L53.6994 75.128C53.4754 74.652 53.1021 74.414 52.5794 74.414C52.3461 74.414 52.1501 74.4653 51.9914 74.568C51.8421 74.6707 51.7674 74.8107 51.7674 74.988ZM57.9711 77.242C58.2138 78.1193 58.8718 78.558 59.9451 78.558C60.6358 78.558 61.1585 78.3247 61.5131 77.858L62.9691 78.698C62.2785 79.6967 61.2611 80.196 59.9171 80.196C58.7598 80.196 57.8311 79.846 57.1311 79.146C56.4311 78.446 56.0811 77.564 56.0811 76.5C56.0811 75.4453 56.4265 74.568 57.1171 73.868C57.8078 73.1587 58.6945 72.804 59.7771 72.804C60.8038 72.804 61.6485 73.1587 62.3111 73.868C62.9831 74.5773 63.3191 75.4547 63.3191 76.5C63.3191 76.7333 63.2958 76.9807 63.2491 77.242H57.9711ZM57.9431 75.842H61.5131C61.4105 75.366 61.1958 75.0113 60.8691 74.778C60.5518 74.5447 60.1878 74.428 59.7771 74.428C59.2918 74.428 58.8905 74.554 58.5731 74.806C58.2558 75.0487 58.0458 75.394 57.9431 75.842ZM68.3788 74.736H66.7968V77.648C66.7968 77.8907 66.8575 78.068 66.9788 78.18C67.1002 78.292 67.2775 78.3573 67.5108 78.376C67.7442 78.3853 68.0335 78.3807 68.3788 78.362V80C67.1375 80.14 66.2602 80.0233 65.7468 79.65C65.2428 79.2767 64.9908 78.6093 64.9908 77.648V74.736H63.7728V73H64.9908V71.586L66.7968 71.04V73H68.3788V74.736ZM74.3815 73H76.1875V80H74.3815V79.216C73.9429 79.8693 73.2475 80.196 72.2955 80.196C71.5302 80.196 70.8955 79.9393 70.3915 79.426C69.8969 78.9127 69.6495 78.2033 69.6495 77.298V73H71.4555V77.074C71.4555 77.5407 71.5815 77.9 71.8335 78.152C72.0855 78.3947 72.4215 78.516 72.8415 78.516C73.3082 78.516 73.6815 78.3713 73.9615 78.082C74.2415 77.7927 74.3815 77.3587 74.3815 76.78V73ZM81.9156 72.804C82.8583 72.804 83.661 73.1633 84.3236 73.882C84.9956 74.5913 85.3316 75.464 85.3316 76.5C85.3316 77.536 84.9956 78.4133 84.3236 79.132C83.661 79.8413 82.8583 80.196 81.9156 80.196C80.9356 80.196 80.1796 79.8553 79.6476 79.174V82.8H77.8416V73H79.6476V73.826C80.1796 73.1447 80.9356 72.804 81.9156 72.804ZM80.1936 77.928C80.5576 78.292 81.0196 78.474 81.5796 78.474C82.1396 78.474 82.6016 78.292 82.9656 77.928C83.339 77.5547 83.5256 77.0787 83.5256 76.5C83.5256 75.9213 83.339 75.45 82.9656 75.086C82.6016 74.7127 82.1396 74.526 81.5796 74.526C81.0196 74.526 80.5576 74.7127 80.1936 75.086C79.8296 75.45 79.6476 75.9213 79.6476 76.5C79.6476 77.0787 79.8296 77.5547 80.1936 77.928Z" fill="#212529"/>
<circle opacity="0.5" cx="255" cy="32" r="12" fill="#D9D9F9"/>
<circle cx="255" cy="32" r="6" fill="#353590"/>
<path d="M188.599 80L186.625 76.598H185.155V80H183.223V70.2H187.143C188.049 70.2 188.819 70.5173 189.453 71.152C190.088 71.7867 190.405 72.552 190.405 73.448C190.405 74.0547 190.233 74.6193 189.887 75.142C189.542 75.6553 189.085 76.0427 188.515 76.304L190.685 80H188.599ZM185.155 72.006V74.904H187.143C187.507 74.904 187.82 74.764 188.081 74.484C188.343 74.1947 188.473 73.8493 188.473 73.448C188.473 73.0467 188.343 72.706 188.081 72.426C187.82 72.146 187.507 72.006 187.143 72.006H185.155ZM192.91 77.242C193.152 78.1193 193.81 78.558 194.884 78.558C195.574 78.558 196.097 78.3247 196.452 77.858L197.908 78.698C197.217 79.6967 196.2 80.196 194.856 80.196C193.698 80.196 192.77 79.846 192.07 79.146C191.37 78.446 191.02 77.564 191.02 76.5C191.02 75.4453 191.365 74.568 192.056 73.868C192.746 73.1587 193.633 72.804 194.716 72.804C195.742 72.804 196.587 73.1587 197.25 73.868C197.922 74.5773 198.258 75.4547 198.258 76.5C198.258 76.7333 198.234 76.9807 198.188 77.242H192.91ZM192.882 75.842H196.452C196.349 75.366 196.134 75.0113 195.808 74.778C195.49 74.5447 195.126 74.428 194.716 74.428C194.23 74.428 193.829 74.554 193.512 74.806C193.194 75.0487 192.984 75.394 192.882 75.842ZM200.911 74.988C200.911 75.1747 201.032 75.3287 201.275 75.45C201.527 75.562 201.83 75.6647 202.185 75.758C202.54 75.842 202.894 75.954 203.249 76.094C203.604 76.2247 203.902 76.4487 204.145 76.766C204.397 77.0833 204.523 77.48 204.523 77.956C204.523 78.6747 204.252 79.23 203.711 79.622C203.179 80.0047 202.512 80.196 201.709 80.196C200.272 80.196 199.292 79.6407 198.769 78.53L200.337 77.648C200.542 78.2547 201 78.558 201.709 78.558C202.353 78.558 202.675 78.3573 202.675 77.956C202.675 77.7693 202.549 77.62 202.297 77.508C202.054 77.3867 201.756 77.2793 201.401 77.186C201.046 77.0927 200.692 76.976 200.337 76.836C199.982 76.696 199.679 76.4767 199.427 76.178C199.184 75.87 199.063 75.4873 199.063 75.03C199.063 74.3393 199.315 73.798 199.819 73.406C200.332 73.0047 200.967 72.804 201.723 72.804C202.292 72.804 202.81 72.9347 203.277 73.196C203.744 73.448 204.112 73.812 204.383 74.288L202.843 75.128C202.619 74.652 202.246 74.414 201.723 74.414C201.49 74.414 201.294 74.4653 201.135 74.568C200.986 74.6707 200.911 74.8107 200.911 74.988ZM207.115 77.242C207.357 78.1193 208.015 78.558 209.089 78.558C209.779 78.558 210.302 78.3247 210.657 77.858L212.113 78.698C211.422 79.6967 210.405 80.196 209.061 80.196C207.903 80.196 206.975 79.846 206.275 79.146C205.575 78.446 205.225 77.564 205.225 76.5C205.225 75.4453 205.57 74.568 206.261 73.868C206.951 73.1587 207.838 72.804 208.921 72.804C209.947 72.804 210.792 73.1587 211.455 73.868C212.127 74.5773 212.463 75.4547 212.463 76.5C212.463 76.7333 212.439 76.9807 212.393 77.242H207.115ZM207.087 75.842H210.657C210.554 75.366 210.339 75.0113 210.013 74.778C209.695 74.5447 209.331 74.428 208.921 74.428C208.435 74.428 208.034 74.554 207.717 74.806C207.399 75.0487 207.189 75.394 207.087 75.842ZM218.989 73H220.795V80H218.989V79.174C218.447 79.8553 217.687 80.196 216.707 80.196C215.773 80.196 214.971 79.8413 214.299 79.132C213.636 78.4133 213.305 77.536 213.305 76.5C213.305 75.464 213.636 74.5913 214.299 73.882C214.971 73.1633 215.773 72.804 216.707 72.804C217.687 72.804 218.447 73.1447 218.989 73.826V73ZM215.657 77.928C216.021 78.292 216.483 78.474 217.043 78.474C217.603 78.474 218.065 78.292 218.429 77.928C218.802 77.5547 218.989 77.0787 218.989 76.5C218.989 75.9213 218.802 75.45 218.429 75.086C218.065 74.7127 217.603 74.526 217.043 74.526C216.483 74.526 216.021 74.7127 215.657 75.086C215.293 75.45 215.111 75.9213 215.111 76.5C215.111 77.0787 215.293 77.5547 215.657 77.928ZM224.238 74.204C224.406 73.756 224.682 73.42 225.064 73.196C225.456 72.972 225.89 72.86 226.366 72.86V74.876C225.816 74.8107 225.321 74.9227 224.882 75.212C224.453 75.5013 224.238 75.982 224.238 76.654V80H222.432V73H224.238V74.204ZM230.495 80.196C229.44 80.196 228.558 79.8413 227.849 79.132C227.149 78.4227 226.799 77.5453 226.799 76.5C226.799 75.4547 227.149 74.5773 227.849 73.868C228.558 73.1587 229.44 72.804 230.495 72.804C231.176 72.804 231.797 72.9673 232.357 73.294C232.917 73.6207 233.342 74.0593 233.631 74.61L232.077 75.52C231.937 75.2307 231.722 75.002 231.433 74.834C231.153 74.666 230.836 74.582 230.481 74.582C229.94 74.582 229.492 74.764 229.137 75.128C228.782 75.4827 228.605 75.94 228.605 76.5C228.605 77.0507 228.782 77.508 229.137 77.872C229.492 78.2267 229.94 78.404 230.481 78.404C230.845 78.404 231.167 78.3247 231.447 78.166C231.736 77.998 231.951 77.7693 232.091 77.48L233.659 78.376C233.351 78.9267 232.917 79.37 232.357 79.706C231.797 80.0327 231.176 80.196 230.495 80.196ZM238.506 72.804C239.271 72.804 239.901 73.0607 240.396 73.574C240.9 74.0873 241.152 74.7967 241.152 75.702V80H239.346V75.926C239.346 75.4593 239.22 75.1047 238.968 74.862C238.716 74.61 238.38 74.484 237.96 74.484C237.493 74.484 237.12 74.6287 236.84 74.918C236.56 75.2073 236.42 75.6413 236.42 76.22V80H234.614V70.2H236.42V73.784C236.859 73.1307 237.554 72.804 238.506 72.804ZM251.514 73H253.32V80H251.514V79.174C250.973 79.8553 250.212 80.196 249.232 80.196C248.299 80.196 247.496 79.8413 246.824 79.132C246.161 78.4133 245.83 77.536 245.83 76.5C245.83 75.464 246.161 74.5913 246.824 73.882C247.496 73.1633 248.299 72.804 249.232 72.804C250.212 72.804 250.973 73.1447 251.514 73.826V73ZM248.182 77.928C248.546 78.292 249.008 78.474 249.568 78.474C250.128 78.474 250.59 78.292 250.954 77.928C251.327 77.5547 251.514 77.0787 251.514 76.5C251.514 75.9213 251.327 75.45 250.954 75.086C250.59 74.7127 250.128 74.526 249.568 74.526C249.008 74.526 248.546 74.7127 248.182 75.086C247.818 75.45 247.636 75.9213 247.636 76.5C247.636 77.0787 247.818 77.5547 248.182 77.928ZM258.85 72.804C259.615 72.804 260.245 73.0607 260.74 73.574C261.244 74.0873 261.496 74.7967 261.496 75.702V80H259.69V75.926C259.69 75.4593 259.564 75.1047 259.312 74.862C259.06 74.61 258.724 74.484 258.304 74.484C257.837 74.484 257.464 74.6287 257.184 74.918C256.904 75.2073 256.764 75.6413 256.764 76.22V80H254.958V73H256.764V73.784C257.203 73.1307 257.898 72.804 258.85 72.804ZM268.344 70.2H270.15V80H268.344V79.174C267.812 79.8553 267.056 80.196 266.076 80.196C265.133 80.196 264.326 79.8413 263.654 79.132C262.991 78.4133 262.66 77.536 262.66 76.5C262.66 75.464 262.991 74.5913 263.654 73.882C264.326 73.1633 265.133 72.804 266.076 72.804C267.056 72.804 267.812 73.1447 268.344 73.826V70.2ZM265.012 77.928C265.385 78.292 265.852 78.474 266.412 78.474C266.972 78.474 267.434 78.292 267.798 77.928C268.162 77.5547 268.344 77.0787 268.344 76.5C268.344 75.9213 268.162 75.45 267.798 75.086C267.434 74.7127 266.972 74.526 266.412 74.526C265.852 74.526 265.385 74.7127 265.012 75.086C264.648 75.45 264.466 75.9213 264.466 76.5C264.466 77.0787 264.648 77.5547 265.012 77.928ZM278.634 80.196C277.579 80.196 276.697 79.8413 275.988 79.132C275.288 78.4227 274.938 77.5453 274.938 76.5C274.938 75.4547 275.288 74.5773 275.988 73.868C276.697 73.1587 277.579 72.804 278.634 72.804C279.315 72.804 279.936 72.9673 280.496 73.294C281.056 73.6207 281.48 74.0593 281.77 74.61L280.216 75.52C280.076 75.2307 279.861 75.002 279.572 74.834C279.292 74.666 278.974 74.582 278.62 74.582C278.078 74.582 277.63 74.764 277.276 75.128C276.921 75.4827 276.744 75.94 276.744 76.5C276.744 77.0507 276.921 77.508 277.276 77.872C277.63 78.2267 278.078 78.404 278.62 78.404C278.984 78.404 279.306 78.3247 279.586 78.166C279.875 77.998 280.09 77.7693 280.23 77.48L281.798 78.376C281.49 78.9267 281.056 79.37 280.496 79.706C279.936 80.0327 279.315 80.196 278.634 80.196ZM288.607 79.132C287.889 79.8413 287.011 80.196 285.975 80.196C284.939 80.196 284.062 79.8413 283.343 79.132C282.634 78.4133 282.279 77.536 282.279 76.5C282.279 75.464 282.634 74.5913 283.343 73.882C284.062 73.1633 284.939 72.804 285.975 72.804C287.011 72.804 287.889 73.1633 288.607 73.882C289.326 74.5913 289.685 75.464 289.685 76.5C289.685 77.536 289.326 78.4133 288.607 79.132ZM284.617 77.886C284.981 78.25 285.434 78.432 285.975 78.432C286.517 78.432 286.969 78.25 287.333 77.886C287.697 77.522 287.879 77.06 287.879 76.5C287.879 75.94 287.697 75.478 287.333 75.114C286.969 74.75 286.517 74.568 285.975 74.568C285.434 74.568 284.981 74.75 284.617 75.114C284.263 75.478 284.085 75.94 284.085 76.5C284.085 77.06 284.263 77.522 284.617 77.886ZM294.848 72.804C295.613 72.804 296.243 73.0607 296.738 73.574C297.242 74.0873 297.494 74.7967 297.494 75.702V80H295.688V75.926C295.688 75.4593 295.562 75.1047 295.31 74.862C295.058 74.61 294.722 74.484 294.302 74.484C293.835 74.484 293.462 74.6287 293.182 74.918C292.902 75.2073 292.762 75.6413 292.762 76.22V80H290.956V73H292.762V73.784C293.201 73.1307 293.896 72.804 294.848 72.804ZM302.368 80.196C301.313 80.196 300.431 79.8413 299.722 79.132C299.022 78.4227 298.672 77.5453 298.672 76.5C298.672 75.4547 299.022 74.5773 299.722 73.868C300.431 73.1587 301.313 72.804 302.368 72.804C303.049 72.804 303.67 72.9673 304.23 73.294C304.79 73.6207 305.215 74.0593 305.504 74.61L303.95 75.52C303.81 75.2307 303.595 75.002 303.306 74.834C303.026 74.666 302.709 74.582 302.354 74.582C301.813 74.582 301.365 74.764 301.01 75.128C300.655 75.4827 300.478 75.94 300.478 76.5C300.478 77.0507 300.655 77.508 301.01 77.872C301.365 78.2267 301.813 78.404 302.354 78.404C302.718 78.404 303.04 78.3247 303.32 78.166C303.609 77.998 303.824 77.7693 303.964 77.48L305.532 78.376C305.224 78.9267 304.79 79.37 304.23 79.706C303.67 80.0327 303.049 80.196 302.368 80.196ZM307.904 77.242C308.146 78.1193 308.804 78.558 309.878 78.558C310.568 78.558 311.091 78.3247 311.446 77.858L312.902 78.698C312.211 79.6967 311.194 80.196 309.85 80.196C308.692 80.196 307.764 79.846 307.064 79.146C306.364 78.446 306.014 77.564 306.014 76.5C306.014 75.4453 306.359 74.568 307.05 73.868C307.74 73.1587 308.627 72.804 309.71 72.804C310.736 72.804 311.581 73.1587 312.244 73.868C312.916 74.5773 313.252 75.4547 313.252 76.5C313.252 76.7333 313.228 76.9807 313.182 77.242H307.904ZM307.876 75.842H311.446C311.343 75.366 311.128 75.0113 310.802 74.778C310.484 74.5447 310.12 74.428 309.71 74.428C309.224 74.428 308.823 74.554 308.506 74.806C308.188 75.0487 307.978 75.394 307.876 75.842ZM318.587 72.804C319.529 72.804 320.332 73.1633 320.995 73.882C321.667 74.5913 322.003 75.464 322.003 76.5C322.003 77.536 321.667 78.4133 320.995 79.132C320.332 79.8413 319.529 80.196 318.587 80.196C317.607 80.196 316.851 79.8553 316.319 79.174V82.8H314.513V73H316.319V73.826C316.851 73.1447 317.607 72.804 318.587 72.804ZM316.865 77.928C317.229 78.292 317.691 78.474 318.251 78.474C318.811 78.474 319.273 78.292 319.637 77.928C320.01 77.5547 320.197 77.0787 320.197 76.5C320.197 75.9213 320.01 75.45 319.637 75.086C319.273 74.7127 318.811 74.526 318.251 74.526C317.691 74.526 317.229 74.7127 316.865 75.086C316.501 75.45 316.319 75.9213 316.319 76.5C316.319 77.0787 316.501 77.5547 316.865 77.928ZM327.13 74.736H325.548V77.648C325.548 77.8907 325.608 78.068 325.73 78.18C325.851 78.292 326.028 78.3573 326.262 78.376C326.495 78.3853 326.784 78.3807 327.13 78.362V80C325.888 80.14 325.011 80.0233 324.498 79.65C323.994 79.2767 323.742 78.6093 323.742 77.648V74.736H322.524V73H323.742V71.586L325.548 71.04V73H327.13V74.736Z" fill="#212529"/>
<circle opacity="0.5" cx="465" cy="32" r="12" fill="#D9D9F9"/>
<circle cx="465" cy="32" r="6" fill="#353590"/>
<path d="M427.382 80L424.638 70.2H426.668L428.544 77.466L430.588 70.2H432.24L434.298 77.466L436.174 70.2H438.204L435.46 80H433.262L431.414 73.532L429.58 80H427.382ZM439.863 72.16C439.564 72.16 439.303 72.0527 439.079 71.838C438.864 71.614 438.757 71.3527 438.757 71.054C438.757 70.7553 438.864 70.494 439.079 70.27C439.303 70.046 439.564 69.934 439.863 69.934C440.171 69.934 440.432 70.046 440.647 70.27C440.871 70.494 440.983 70.7553 440.983 71.054C440.983 71.3527 440.871 71.614 440.647 71.838C440.432 72.0527 440.171 72.16 439.863 72.16ZM438.967 80V73H440.773V80H438.967ZM444.232 74.204C444.4 73.756 444.675 73.42 445.058 73.196C445.45 72.972 445.884 72.86 446.36 72.86V74.876C445.809 74.8107 445.314 74.9227 444.876 75.212C444.446 75.5013 444.232 75.982 444.232 76.654V80H442.426V73H444.232V74.204ZM448.682 77.242C448.925 78.1193 449.583 78.558 450.656 78.558C451.347 78.558 451.869 78.3247 452.224 77.858L453.68 78.698C452.989 79.6967 451.972 80.196 450.628 80.196C449.471 80.196 448.542 79.846 447.842 79.146C447.142 78.446 446.792 77.564 446.792 76.5C446.792 75.4453 447.137 74.568 447.828 73.868C448.519 73.1587 449.405 72.804 450.488 72.804C451.515 72.804 452.359 73.1587 453.022 73.868C453.694 74.5773 454.03 75.4547 454.03 76.5C454.03 76.7333 454.007 76.9807 453.96 77.242H448.682ZM448.654 75.842H452.224C452.121 75.366 451.907 75.0113 451.58 74.778C451.263 74.5447 450.899 74.428 450.488 74.428C450.003 74.428 449.601 74.554 449.284 74.806C448.967 75.0487 448.757 75.394 448.654 75.842ZM458.852 71.74C457.862 71.6653 457.368 72.062 457.368 72.93V73H458.852V74.736H457.368V80H455.562V74.736H454.554V73H455.562V72.93C455.562 71.9407 455.837 71.1893 456.388 70.676C456.938 70.1627 457.76 69.9387 458.852 70.004V71.74ZM461.486 74.204C461.654 73.756 461.929 73.42 462.312 73.196C462.704 72.972 463.138 72.86 463.614 72.86V74.876C463.063 74.8107 462.568 74.9227 462.13 75.212C461.7 75.5013 461.486 75.982 461.486 76.654V80H459.68V73H461.486V74.204ZM469.73 73H471.536V80H469.73V79.174C469.189 79.8553 468.428 80.196 467.448 80.196C466.515 80.196 465.712 79.8413 465.04 79.132C464.377 78.4133 464.046 77.536 464.046 76.5C464.046 75.464 464.377 74.5913 465.04 73.882C465.712 73.1633 466.515 72.804 467.448 72.804C468.428 72.804 469.189 73.1447 469.73 73.826V73ZM466.398 77.928C466.762 78.292 467.224 78.474 467.784 78.474C468.344 78.474 468.806 78.292 469.17 77.928C469.543 77.5547 469.73 77.0787 469.73 76.5C469.73 75.9213 469.543 75.45 469.17 75.086C468.806 74.7127 468.344 74.526 467.784 74.526C467.224 74.526 466.762 74.7127 466.398 75.086C466.034 75.45 465.852 75.9213 465.852 76.5C465.852 77.0787 466.034 77.5547 466.398 77.928ZM480.916 72.804C481.718 72.804 482.358 73.0653 482.834 73.588C483.319 74.1107 483.562 74.8107 483.562 75.688V80H481.756V75.814C481.756 75.394 481.653 75.0673 481.448 74.834C481.242 74.6007 480.953 74.484 480.58 74.484C480.169 74.484 479.847 74.6193 479.614 74.89C479.39 75.1607 479.278 75.5527 479.278 76.066V80H477.472V75.814C477.472 75.394 477.369 75.0673 477.164 74.834C476.958 74.6007 476.669 74.484 476.296 74.484C475.894 74.484 475.572 74.6193 475.33 74.89C475.096 75.1607 474.98 75.5527 474.98 76.066V80H473.174V73H474.98V73.742C475.4 73.1167 476.048 72.804 476.926 72.804C477.784 72.804 478.419 73.14 478.83 73.812C479.296 73.14 479.992 72.804 480.916 72.804ZM485.992 72.16C485.693 72.16 485.432 72.0527 485.208 71.838C484.993 71.614 484.886 71.3527 484.886 71.054C484.886 70.7553 484.993 70.494 485.208 70.27C485.432 70.046 485.693 69.934 485.992 69.934C486.3 69.934 486.561 70.046 486.776 70.27C487 70.494 487.112 70.7553 487.112 71.054C487.112 71.3527 487 71.614 486.776 71.838C486.561 72.0527 486.3 72.16 485.992 72.16ZM485.096 80V73H486.902V80H485.096ZM492.447 72.804C493.212 72.804 493.842 73.0607 494.337 73.574C494.841 74.0873 495.093 74.7967 495.093 75.702V80H493.287V75.926C493.287 75.4593 493.161 75.1047 492.909 74.862C492.657 74.61 492.321 74.484 491.901 74.484C491.434 74.484 491.061 74.6287 490.781 74.918C490.501 75.2073 490.361 75.6413 490.361 76.22V80H488.555V73H490.361V73.784C490.799 73.1307 491.495 72.804 492.447 72.804ZM501.997 73H503.761V79.664C503.761 80.7467 503.401 81.5727 502.683 82.142C501.973 82.7113 501.115 82.996 500.107 82.996C499.351 82.996 498.683 82.8513 498.105 82.562C497.535 82.2727 497.097 81.848 496.789 81.288L498.329 80.406C498.683 81.0593 499.295 81.386 500.163 81.386C500.732 81.386 501.18 81.2367 501.507 80.938C501.833 80.6393 501.997 80.2147 501.997 79.664V78.908C501.465 79.6173 500.718 79.972 499.757 79.972C498.767 79.972 497.937 79.6267 497.265 78.936C496.602 78.236 496.271 77.3867 496.271 76.388C496.271 75.3987 496.607 74.554 497.279 73.854C497.951 73.154 498.777 72.804 499.757 72.804C500.718 72.804 501.465 73.1587 501.997 73.868V73ZM498.623 77.774C498.996 78.1287 499.467 78.306 500.037 78.306C500.606 78.306 501.073 78.1287 501.437 77.774C501.81 77.41 501.997 76.948 501.997 76.388C501.997 75.8373 501.81 75.3847 501.437 75.03C501.073 74.666 500.606 74.484 500.037 74.484C499.467 74.484 498.996 74.666 498.623 75.03C498.259 75.3847 498.077 75.8373 498.077 76.388C498.077 76.948 498.259 77.41 498.623 77.774Z" fill="#212529"/>
<circle opacity="0.5" cx="674" cy="32" r="12" fill="#D9D9F9"/>
<circle cx="674" cy="32" r="6" fill="#353590"/>
<path d="M608.841 70.2V72.048H606.195V80H604.263V72.048H601.631V70.2H608.841ZM610.09 77.242C610.333 78.1193 610.991 78.558 612.064 78.558C612.755 78.558 613.278 78.3247 613.632 77.858L615.088 78.698C614.398 79.6967 613.38 80.196 612.036 80.196C610.879 80.196 609.95 79.846 609.25 79.146C608.55 78.446 608.2 77.564 608.2 76.5C608.2 75.4453 608.546 74.568 609.236 73.868C609.927 73.1587 610.814 72.804 611.896 72.804C612.923 72.804 613.768 73.1587 614.43 73.868C615.102 74.5773 615.438 75.4547 615.438 76.5C615.438 76.7333 615.415 76.9807 615.368 77.242H610.09ZM610.062 75.842H613.632C613.53 75.366 613.315 75.0113 612.988 74.778C612.671 74.5447 612.307 74.428 611.896 74.428C611.411 74.428 611.01 74.554 610.692 74.806C610.375 75.0487 610.165 75.394 610.062 75.842ZM618.092 74.988C618.092 75.1747 618.213 75.3287 618.456 75.45C618.708 75.562 619.011 75.6647 619.366 75.758C619.72 75.842 620.075 75.954 620.43 76.094C620.784 76.2247 621.083 76.4487 621.326 76.766C621.578 77.0833 621.704 77.48 621.704 77.956C621.704 78.6747 621.433 79.23 620.892 79.622C620.36 80.0047 619.692 80.196 618.89 80.196C617.452 80.196 616.472 79.6407 615.95 78.53L617.518 77.648C617.723 78.2547 618.18 78.558 618.89 78.558C619.534 78.558 619.856 78.3573 619.856 77.956C619.856 77.7693 619.73 77.62 619.478 77.508C619.235 77.3867 618.936 77.2793 618.582 77.186C618.227 77.0927 617.872 76.976 617.518 76.836C617.163 76.696 616.86 76.4767 616.608 76.178C616.365 75.87 616.244 75.4873 616.244 75.03C616.244 74.3393 616.496 73.798 617 73.406C617.513 73.0047 618.148 72.804 618.904 72.804C619.473 72.804 619.991 72.9347 620.458 73.196C620.924 73.448 621.293 73.812 621.564 74.288L620.024 75.128C619.8 74.652 619.426 74.414 618.904 74.414C618.67 74.414 618.474 74.4653 618.316 74.568C618.166 74.6707 618.092 74.8107 618.092 74.988ZM626.664 74.736H625.082V77.648C625.082 77.8907 625.143 78.068 625.264 78.18C625.385 78.292 625.563 78.3573 625.796 78.376C626.029 78.3853 626.319 78.3807 626.664 78.362V80C625.423 80.14 624.545 80.0233 624.032 79.65C623.528 79.2767 623.276 78.6093 623.276 77.648V74.736H622.058V73H623.276V71.586L625.082 71.04V73H626.664V74.736ZM628.833 72.16C628.535 72.16 628.273 72.0527 628.049 71.838C627.835 71.614 627.727 71.3527 627.727 71.054C627.727 70.7553 627.835 70.494 628.049 70.27C628.273 70.046 628.535 69.934 628.833 69.934C629.141 69.934 629.403 70.046 629.617 70.27C629.841 70.494 629.953 70.7553 629.953 71.054C629.953 71.3527 629.841 71.614 629.617 71.838C629.403 72.0527 629.141 72.16 628.833 72.16ZM627.937 80V73H629.743V80H627.937ZM635.288 72.804C636.054 72.804 636.684 73.0607 637.178 73.574C637.682 74.0873 637.934 74.7967 637.934 75.702V80H636.128V75.926C636.128 75.4593 636.002 75.1047 635.75 74.862C635.498 74.61 635.162 74.484 634.742 74.484C634.276 74.484 633.902 74.6287 633.622 74.918C633.342 75.2073 633.202 75.6413 633.202 76.22V80H631.396V73H633.202V73.784C633.641 73.1307 634.336 72.804 635.288 72.804ZM644.838 73H646.602V79.664C646.602 80.7467 646.243 81.5727 645.524 82.142C644.815 82.7113 643.956 82.996 642.948 82.996C642.192 82.996 641.525 82.8513 640.946 82.562C640.377 82.2727 639.938 81.848 639.63 81.288L641.17 80.406C641.525 81.0593 642.136 81.386 643.004 81.386C643.574 81.386 644.022 81.2367 644.348 80.938C644.675 80.6393 644.838 80.2147 644.838 79.664V78.908C644.306 79.6173 643.56 79.972 642.598 79.972C641.609 79.972 640.778 79.6267 640.106 78.936C639.444 78.236 639.112 77.3867 639.112 76.388C639.112 75.3987 639.448 74.554 640.12 73.854C640.792 73.154 641.618 72.804 642.598 72.804C643.56 72.804 644.306 73.1587 644.838 73.868V73ZM641.464 77.774C641.838 78.1287 642.309 78.306 642.878 78.306C643.448 78.306 643.914 78.1287 644.278 77.774C644.652 77.41 644.838 76.948 644.838 76.388C644.838 75.8373 644.652 75.3847 644.278 75.03C643.914 74.666 643.448 74.484 642.878 74.484C642.309 74.484 641.838 74.666 641.464 75.03C641.1 75.3847 640.918 75.8373 640.918 76.388C640.918 76.948 641.1 77.41 641.464 77.774ZM657.06 73H658.866V80H657.06V79.174C656.519 79.8553 655.758 80.196 654.778 80.196C653.845 80.196 653.042 79.8413 652.37 79.132C651.707 78.4133 651.376 77.536 651.376 76.5C651.376 75.464 651.707 74.5913 652.37 73.882C653.042 73.1633 653.845 72.804 654.778 72.804C655.758 72.804 656.519 73.1447 657.06 73.826V73ZM653.728 77.928C654.092 78.292 654.554 78.474 655.114 78.474C655.674 78.474 656.136 78.292 656.5 77.928C656.873 77.5547 657.06 77.0787 657.06 76.5C657.06 75.9213 656.873 75.45 656.5 75.086C656.136 74.7127 655.674 74.526 655.114 74.526C654.554 74.526 654.092 74.7127 653.728 75.086C653.364 75.45 653.182 75.9213 653.182 76.5C653.182 77.0787 653.364 77.5547 653.728 77.928ZM664.396 72.804C665.161 72.804 665.791 73.0607 666.286 73.574C666.79 74.0873 667.042 74.7967 667.042 75.702V80H665.236V75.926C665.236 75.4593 665.11 75.1047 664.858 74.862C664.606 74.61 664.27 74.484 663.85 74.484C663.383 74.484 663.01 74.6287 662.73 74.918C662.45 75.2073 662.31 75.6413 662.31 76.22V80H660.504V73H662.31V73.784C662.748 73.1307 663.444 72.804 664.396 72.804ZM673.89 70.2H675.696V80H673.89V79.174C673.358 79.8553 672.602 80.196 671.622 80.196C670.679 80.196 669.872 79.8413 669.2 79.132C668.537 78.4133 668.206 77.536 668.206 76.5C668.206 75.464 668.537 74.5913 669.2 73.882C669.872 73.1633 670.679 72.804 671.622 72.804C672.602 72.804 673.358 73.1447 673.89 73.826V70.2ZM670.558 77.928C670.931 78.292 671.398 78.474 671.958 78.474C672.518 78.474 672.98 78.292 673.344 77.928C673.708 77.5547 673.89 77.0787 673.89 76.5C673.89 75.9213 673.708 75.45 673.344 75.086C672.98 74.7127 672.518 74.526 671.958 74.526C671.398 74.526 670.931 74.7127 670.558 75.086C670.194 75.45 670.012 75.9213 670.012 76.5C670.012 77.0787 670.194 77.5547 670.558 77.928ZM685.453 73H687.441L684.781 80H682.723L680.063 73H682.051L683.745 77.9L685.453 73ZM693.359 73H695.165V80H693.359V79.174C692.818 79.8553 692.057 80.196 691.077 80.196C690.144 80.196 689.341 79.8413 688.669 79.132C688.006 78.4133 687.675 77.536 687.675 76.5C687.675 75.464 688.006 74.5913 688.669 73.882C689.341 73.1633 690.144 72.804 691.077 72.804C692.057 72.804 692.818 73.1447 693.359 73.826V73ZM690.027 77.928C690.391 78.292 690.853 78.474 691.413 78.474C691.973 78.474 692.435 78.292 692.799 77.928C693.172 77.5547 693.359 77.0787 693.359 76.5C693.359 75.9213 693.172 75.45 692.799 75.086C692.435 74.7127 691.973 74.526 691.413 74.526C690.853 74.526 690.391 74.7127 690.027 75.086C689.663 75.45 689.481 75.9213 689.481 76.5C689.481 77.0787 689.663 77.5547 690.027 77.928ZM696.803 80V69.78H698.609V80H696.803ZM701.158 72.16C700.859 72.16 700.598 72.0527 700.374 71.838C700.159 71.614 700.052 71.3527 700.052 71.054C700.052 70.7553 700.159 70.494 700.374 70.27C700.598 70.046 700.859 69.934 701.158 69.934C701.466 69.934 701.727 70.046 701.942 70.27C702.166 70.494 702.278 70.7553 702.278 71.054C702.278 71.3527 702.166 71.614 701.942 71.838C701.727 72.0527 701.466 72.16 701.158 72.16ZM700.262 80V73H702.068V80H700.262ZM709.027 70.2H710.833V80H709.027V79.174C708.495 79.8553 707.739 80.196 706.759 80.196C705.816 80.196 705.009 79.8413 704.337 79.132C703.674 78.4133 703.343 77.536 703.343 76.5C703.343 75.464 703.674 74.5913 704.337 73.882C705.009 73.1633 705.816 72.804 706.759 72.804C707.739 72.804 708.495 73.1447 709.027 73.826V70.2ZM705.695 77.928C706.068 78.292 706.535 78.474 707.095 78.474C707.655 78.474 708.117 78.292 708.481 77.928C708.845 77.5547 709.027 77.0787 709.027 76.5C709.027 75.9213 708.845 75.45 708.481 75.086C708.117 74.7127 707.655 74.526 707.095 74.526C706.535 74.526 706.068 74.7127 705.695 75.086C705.331 75.45 705.149 75.9213 705.149 76.5C705.149 77.0787 705.331 77.5547 705.695 77.928ZM717.804 73H719.61V80H717.804V79.174C717.263 79.8553 716.502 80.196 715.522 80.196C714.589 80.196 713.786 79.8413 713.114 79.132C712.452 78.4133 712.12 77.536 712.12 76.5C712.12 75.464 712.452 74.5913 713.114 73.882C713.786 73.1633 714.589 72.804 715.522 72.804C716.502 72.804 717.263 73.1447 717.804 73.826V73ZM714.472 77.928C714.836 78.292 715.298 78.474 715.858 78.474C716.418 78.474 716.88 78.292 717.244 77.928C717.618 77.5547 717.804 77.0787 717.804 76.5C717.804 75.9213 717.618 75.45 717.244 75.086C716.88 74.7127 716.418 74.526 715.858 74.526C715.298 74.526 714.836 74.7127 714.472 75.086C714.108 75.45 713.926 75.9213 713.926 76.5C713.926 77.0787 714.108 77.5547 714.472 77.928ZM725.252 74.736H723.67V77.648C723.67 77.8907 723.731 78.068 723.852 78.18C723.973 78.292 724.151 78.3573 724.384 78.376C724.617 78.3853 724.907 78.3807 725.252 78.362V80C724.011 80.14 723.133 80.0233 722.62 79.65C722.116 79.2767 721.864 78.6093 721.864 77.648V74.736H720.646V73H721.864V71.586L723.67 71.04V73H725.252V74.736ZM727.421 72.16C727.123 72.16 726.861 72.0527 726.637 71.838C726.423 71.614 726.315 71.3527 726.315 71.054C726.315 70.7553 726.423 70.494 726.637 70.27C726.861 70.046 727.123 69.934 727.421 69.934C727.729 69.934 727.991 70.046 728.205 70.27C728.429 70.494 728.541 70.7553 728.541 71.054C728.541 71.3527 728.429 71.614 728.205 71.838C727.991 72.0527 727.729 72.16 727.421 72.16ZM726.525 80V73H728.331V80H726.525ZM735.948 79.132C735.23 79.8413 734.352 80.196 733.316 80.196C732.28 80.196 731.403 79.8413 730.684 79.132C729.975 78.4133 729.62 77.536 729.62 76.5C729.62 75.464 729.975 74.5913 730.684 73.882C731.403 73.1633 732.28 72.804 733.316 72.804C734.352 72.804 735.23 73.1633 735.948 73.882C736.667 74.5913 737.026 75.464 737.026 76.5C737.026 77.536 736.667 78.4133 735.948 79.132ZM731.958 77.886C732.322 78.25 732.775 78.432 733.316 78.432C733.858 78.432 734.31 78.25 734.674 77.886C735.038 77.522 735.22 77.06 735.22 76.5C735.22 75.94 735.038 75.478 734.674 75.114C734.31 74.75 733.858 74.568 733.316 74.568C732.775 74.568 732.322 74.75 731.958 75.114C731.604 75.478 731.426 75.94 731.426 76.5C731.426 77.06 731.604 77.522 731.958 77.886ZM742.189 72.804C742.954 72.804 743.584 73.0607 744.079 73.574C744.583 74.0873 744.835 74.7967 744.835 75.702V80H743.029V75.926C743.029 75.4593 742.903 75.1047 742.651 74.862C742.399 74.61 742.063 74.484 741.643 74.484C741.176 74.484 740.803 74.6287 740.523 74.918C740.243 75.2073 740.103 75.6413 740.103 76.22V80H738.297V73H740.103V73.784C740.541 73.1307 741.237 72.804 742.189 72.804Z" fill="#212529"/>
<circle opacity="0.5" cx="465" cy="240" r="12" fill="#D9D9F9"/>
<circle cx="465" cy="240" r="6" fill="#353590"/>
<path d="M392.802 278.2C394.146 278.2 395.266 278.671 396.162 279.614C397.067 280.557 397.52 281.719 397.52 283.1C397.52 284.481 397.067 285.643 396.162 286.586C395.266 287.529 394.146 288 392.802 288H388.91V278.2H392.802ZM392.802 286.152C393.651 286.152 394.342 285.872 394.874 285.312C395.406 284.743 395.672 284.005 395.672 283.1C395.672 282.195 395.406 281.462 394.874 280.902C394.342 280.333 393.651 280.048 392.802 280.048H390.842V286.152H392.802ZM400.332 285.242C400.575 286.119 401.233 286.558 402.306 286.558C402.997 286.558 403.52 286.325 403.874 285.858L405.33 286.698C404.64 287.697 403.622 288.196 402.278 288.196C401.121 288.196 400.192 287.846 399.492 287.146C398.792 286.446 398.442 285.564 398.442 284.5C398.442 283.445 398.788 282.568 399.478 281.868C400.169 281.159 401.056 280.804 402.138 280.804C403.165 280.804 404.01 281.159 404.672 281.868C405.344 282.577 405.68 283.455 405.68 284.5C405.68 284.733 405.657 284.981 405.61 285.242H400.332ZM400.304 283.842H403.874C403.772 283.366 403.557 283.011 403.23 282.778C402.913 282.545 402.549 282.428 402.138 282.428C401.653 282.428 401.252 282.554 400.934 282.806C400.617 283.049 400.407 283.394 400.304 283.842ZM411.274 281H413.262L410.602 288H408.544L405.884 281H407.872L409.566 285.9L411.274 281ZM415.385 285.242C415.628 286.119 416.286 286.558 417.359 286.558C418.05 286.558 418.573 286.325 418.927 285.858L420.383 286.698C419.693 287.697 418.675 288.196 417.331 288.196C416.174 288.196 415.245 287.846 414.545 287.146C413.845 286.446 413.495 285.564 413.495 284.5C413.495 283.445 413.841 282.568 414.531 281.868C415.222 281.159 416.109 280.804 417.191 280.804C418.218 280.804 419.063 281.159 419.725 281.868C420.397 282.577 420.733 283.455 420.733 284.5C420.733 284.733 420.71 284.981 420.663 285.242H415.385ZM415.357 283.842H418.927C418.825 283.366 418.61 283.011 418.283 282.778C417.966 282.545 417.602 282.428 417.191 282.428C416.706 282.428 416.305 282.554 415.987 282.806C415.67 283.049 415.46 283.394 415.357 283.842ZM421.994 288V277.78H423.8V288H421.994ZM431.417 287.132C430.698 287.841 429.821 288.196 428.785 288.196C427.749 288.196 426.872 287.841 426.153 287.132C425.444 286.413 425.089 285.536 425.089 284.5C425.089 283.464 425.444 282.591 426.153 281.882C426.872 281.163 427.749 280.804 428.785 280.804C429.821 280.804 430.698 281.163 431.417 281.882C432.136 282.591 432.495 283.464 432.495 284.5C432.495 285.536 432.136 286.413 431.417 287.132ZM427.427 285.886C427.791 286.25 428.244 286.432 428.785 286.432C429.326 286.432 429.779 286.25 430.143 285.886C430.507 285.522 430.689 285.06 430.689 284.5C430.689 283.94 430.507 283.478 430.143 283.114C429.779 282.75 429.326 282.568 428.785 282.568C428.244 282.568 427.791 282.75 427.427 283.114C427.072 283.478 426.895 283.94 426.895 284.5C426.895 285.06 427.072 285.522 427.427 285.886ZM437.839 280.804C438.782 280.804 439.585 281.163 440.247 281.882C440.919 282.591 441.255 283.464 441.255 284.5C441.255 285.536 440.919 286.413 440.247 287.132C439.585 287.841 438.782 288.196 437.839 288.196C436.859 288.196 436.103 287.855 435.571 287.174V290.8H433.765V281H435.571V281.826C436.103 281.145 436.859 280.804 437.839 280.804ZM436.117 285.928C436.481 286.292 436.943 286.474 437.503 286.474C438.063 286.474 438.525 286.292 438.889 285.928C439.263 285.555 439.449 285.079 439.449 284.5C439.449 283.921 439.263 283.45 438.889 283.086C438.525 282.713 438.063 282.526 437.503 282.526C436.943 282.526 436.481 282.713 436.117 283.086C435.753 283.45 435.571 283.921 435.571 284.5C435.571 285.079 435.753 285.555 436.117 285.928ZM450.271 280.804C451.074 280.804 451.713 281.065 452.189 281.588C452.674 282.111 452.917 282.811 452.917 283.688V288H451.111V283.814C451.111 283.394 451.008 283.067 450.803 282.834C450.598 282.601 450.308 282.484 449.935 282.484C449.524 282.484 449.202 282.619 448.969 282.89C448.745 283.161 448.633 283.553 448.633 284.066V288H446.827V283.814C446.827 283.394 446.724 283.067 446.519 282.834C446.314 282.601 446.024 282.484 445.651 282.484C445.25 282.484 444.928 282.619 444.685 282.89C444.452 283.161 444.335 283.553 444.335 284.066V288H442.529V281H444.335V281.742C444.755 281.117 445.404 280.804 446.281 280.804C447.14 280.804 447.774 281.14 448.185 281.812C448.652 281.14 449.347 280.804 450.271 280.804ZM455.977 285.242C456.22 286.119 456.878 286.558 457.951 286.558C458.642 286.558 459.164 286.325 459.519 285.858L460.975 286.698C460.284 287.697 459.267 288.196 457.923 288.196C456.766 288.196 455.837 287.846 455.137 287.146C454.437 286.446 454.087 285.564 454.087 284.5C454.087 283.445 454.432 282.568 455.123 281.868C455.814 281.159 456.7 280.804 457.783 280.804C458.81 280.804 459.654 281.159 460.317 281.868C460.989 282.577 461.325 283.455 461.325 284.5C461.325 284.733 461.302 284.981 461.255 285.242H455.977ZM455.949 283.842H459.519C459.416 283.366 459.202 283.011 458.875 282.778C458.558 282.545 458.194 282.428 457.783 282.428C457.298 282.428 456.896 282.554 456.579 282.806C456.262 283.049 456.052 283.394 455.949 283.842ZM466.478 280.804C467.243 280.804 467.873 281.061 468.368 281.574C468.872 282.087 469.124 282.797 469.124 283.702V288H467.318V283.926C467.318 283.459 467.192 283.105 466.94 282.862C466.688 282.61 466.352 282.484 465.932 282.484C465.465 282.484 465.092 282.629 464.812 282.918C464.532 283.207 464.392 283.641 464.392 284.22V288H462.586V281H464.392V281.784C464.83 281.131 465.526 280.804 466.478 280.804ZM474.67 282.736H473.088V285.648C473.088 285.891 473.149 286.068 473.27 286.18C473.391 286.292 473.569 286.357 473.802 286.376C474.035 286.385 474.325 286.381 474.67 286.362V288C473.429 288.14 472.551 288.023 472.038 287.65C471.534 287.277 471.282 286.609 471.282 285.648V282.736H470.064V281H471.282V279.586L473.088 279.04V281H474.67V282.736ZM485.209 278.2H487.127V288H485.209V283.94H481.569V288H479.637V278.2H481.569V282.092H485.209V278.2ZM494.183 281H495.989V288H494.183V287.174C493.642 287.855 492.881 288.196 491.901 288.196C490.968 288.196 490.165 287.841 489.493 287.132C488.83 286.413 488.499 285.536 488.499 284.5C488.499 283.464 488.83 282.591 489.493 281.882C490.165 281.163 490.968 280.804 491.901 280.804C492.881 280.804 493.642 281.145 494.183 281.826V281ZM490.851 285.928C491.215 286.292 491.677 286.474 492.237 286.474C492.797 286.474 493.259 286.292 493.623 285.928C493.996 285.555 494.183 285.079 494.183 284.5C494.183 283.921 493.996 283.45 493.623 283.086C493.259 282.713 492.797 282.526 492.237 282.526C491.677 282.526 491.215 282.713 490.851 283.086C490.487 283.45 490.305 283.921 490.305 284.5C490.305 285.079 490.487 285.555 490.851 285.928ZM501.519 280.804C502.284 280.804 502.914 281.061 503.409 281.574C503.913 282.087 504.165 282.797 504.165 283.702V288H502.359V283.926C502.359 283.459 502.233 283.105 501.981 282.862C501.729 282.61 501.393 282.484 500.973 282.484C500.506 282.484 500.133 282.629 499.853 282.918C499.573 283.207 499.433 283.641 499.433 284.22V288H497.627V281H499.433V281.784C499.871 281.131 500.567 280.804 501.519 280.804ZM511.013 278.2H512.819V288H511.013V287.174C510.481 287.855 509.725 288.196 508.745 288.196C507.802 288.196 506.995 287.841 506.323 287.132C505.66 286.413 505.329 285.536 505.329 284.5C505.329 283.464 505.66 282.591 506.323 281.882C506.995 281.163 507.802 280.804 508.745 280.804C509.725 280.804 510.481 281.145 511.013 281.826V278.2ZM507.681 285.928C508.054 286.292 508.521 286.474 509.081 286.474C509.641 286.474 510.103 286.292 510.467 285.928C510.831 285.555 511.013 285.079 511.013 284.5C511.013 283.921 510.831 283.45 510.467 283.086C510.103 282.713 509.641 282.526 509.081 282.526C508.521 282.526 508.054 282.713 507.681 283.086C507.317 283.45 507.135 283.921 507.135 284.5C507.135 285.079 507.317 285.555 507.681 285.928ZM520.435 287.132C519.716 287.841 518.839 288.196 517.803 288.196C516.767 288.196 515.889 287.841 515.171 287.132C514.461 286.413 514.107 285.536 514.107 284.5C514.107 283.464 514.461 282.591 515.171 281.882C515.889 281.163 516.767 280.804 517.803 280.804C518.839 280.804 519.716 281.163 520.435 281.882C521.153 282.591 521.513 283.464 521.513 284.5C521.513 285.536 521.153 286.413 520.435 287.132ZM516.445 285.886C516.809 286.25 517.261 286.432 517.803 286.432C518.344 286.432 518.797 286.25 519.161 285.886C519.525 285.522 519.707 285.06 519.707 284.5C519.707 283.94 519.525 283.478 519.161 283.114C518.797 282.75 518.344 282.568 517.803 282.568C517.261 282.568 516.809 282.75 516.445 283.114C516.09 283.478 515.913 283.94 515.913 284.5C515.913 285.06 516.09 285.522 516.445 285.886ZM527.116 281H529.104L526.444 288H524.386L521.726 281H523.714L525.408 285.9L527.116 281ZM531.227 285.242C531.47 286.119 532.128 286.558 533.201 286.558C533.892 286.558 534.414 286.325 534.769 285.858L536.225 286.698C535.534 287.697 534.517 288.196 533.173 288.196C532.016 288.196 531.087 287.846 530.387 287.146C529.687 286.446 529.337 285.564 529.337 284.5C529.337 283.445 529.682 282.568 530.373 281.868C531.064 281.159 531.95 280.804 533.033 280.804C534.06 280.804 534.904 281.159 535.567 281.868C536.239 282.577 536.575 283.455 536.575 284.5C536.575 284.733 536.552 284.981 536.505 285.242H531.227ZM531.199 283.842H534.769C534.666 283.366 534.452 283.011 534.125 282.778C533.808 282.545 533.444 282.428 533.033 282.428C532.548 282.428 532.146 282.554 531.829 282.806C531.512 283.049 531.302 283.394 531.199 283.842ZM539.642 282.204C539.81 281.756 540.085 281.42 540.468 281.196C540.86 280.972 541.294 280.86 541.77 280.86V282.876C541.219 282.811 540.724 282.923 540.286 283.212C539.856 283.501 539.642 283.982 539.642 284.654V288H537.836V281H539.642V282.204Z" fill="#212529"/>
<circle opacity="0.5" cx="674" cy="240" r="12" fill="#D9D9F9"/>
<circle cx="674" cy="240" r="6" fill="#353590"/>
<path d="M634.43 288L631.14 278.2H633.24L635.634 285.732L638.014 278.2H640.128L636.824 288H634.43ZM641.611 280.16C641.312 280.16 641.051 280.053 640.827 279.838C640.612 279.614 640.505 279.353 640.505 279.054C640.505 278.755 640.612 278.494 640.827 278.27C641.051 278.046 641.312 277.934 641.611 277.934C641.919 277.934 642.18 278.046 642.395 278.27C642.619 278.494 642.731 278.755 642.731 279.054C642.731 279.353 642.619 279.614 642.395 279.838C642.18 280.053 641.919 280.16 641.611 280.16ZM640.715 288V281H642.521V288H640.715ZM645.785 282.988C645.785 283.175 645.906 283.329 646.149 283.45C646.401 283.562 646.704 283.665 647.059 283.758C647.414 283.842 647.768 283.954 648.123 284.094C648.478 284.225 648.776 284.449 649.019 284.766C649.271 285.083 649.397 285.48 649.397 285.956C649.397 286.675 649.126 287.23 648.585 287.622C648.053 288.005 647.386 288.196 646.583 288.196C645.146 288.196 644.166 287.641 643.643 286.53L645.211 285.648C645.416 286.255 645.874 286.558 646.583 286.558C647.227 286.558 647.549 286.357 647.549 285.956C647.549 285.769 647.423 285.62 647.171 285.508C646.928 285.387 646.63 285.279 646.275 285.186C645.92 285.093 645.566 284.976 645.211 284.836C644.856 284.696 644.553 284.477 644.301 284.178C644.058 283.87 643.937 283.487 643.937 283.03C643.937 282.339 644.189 281.798 644.693 281.406C645.206 281.005 645.841 280.804 646.597 280.804C647.166 280.804 647.684 280.935 648.151 281.196C648.618 281.448 648.986 281.812 649.257 282.288L647.717 283.128C647.493 282.652 647.12 282.414 646.597 282.414C646.364 282.414 646.168 282.465 646.009 282.568C645.86 282.671 645.785 282.811 645.785 282.988ZM655.178 281H656.984V288H655.178V287.216C654.74 287.869 654.044 288.196 653.092 288.196C652.327 288.196 651.692 287.939 651.188 287.426C650.694 286.913 650.446 286.203 650.446 285.298V281H652.252V285.074C652.252 285.541 652.378 285.9 652.63 286.152C652.882 286.395 653.218 286.516 653.638 286.516C654.105 286.516 654.478 286.371 654.758 286.082C655.038 285.793 655.178 285.359 655.178 284.78V281ZM663.959 281H665.765V288H663.959V287.174C663.417 287.855 662.657 288.196 661.677 288.196C660.743 288.196 659.941 287.841 659.269 287.132C658.606 286.413 658.274 285.536 658.274 284.5C658.274 283.464 658.606 282.591 659.269 281.882C659.941 281.163 660.743 280.804 661.677 280.804C662.657 280.804 663.417 281.145 663.959 281.826V281ZM660.627 285.928C660.991 286.292 661.453 286.474 662.013 286.474C662.573 286.474 663.035 286.292 663.399 285.928C663.772 285.555 663.959 285.079 663.959 284.5C663.959 283.921 663.772 283.45 663.399 283.086C663.035 282.713 662.573 282.526 662.013 282.526C661.453 282.526 660.991 282.713 660.627 283.086C660.263 283.45 660.081 283.921 660.081 284.5C660.081 285.079 660.263 285.555 660.627 285.928ZM667.402 288V277.78H669.208V288H667.402ZM679.667 278.2H681.473V288H679.667V287.174C679.135 287.855 678.379 288.196 677.399 288.196C676.456 288.196 675.649 287.841 674.977 287.132C674.314 286.413 673.983 285.536 673.983 284.5C673.983 283.464 674.314 282.591 674.977 281.882C675.649 281.163 676.456 280.804 677.399 280.804C678.379 280.804 679.135 281.145 679.667 281.826V278.2ZM676.335 285.928C676.708 286.292 677.175 286.474 677.735 286.474C678.295 286.474 678.757 286.292 679.121 285.928C679.485 285.555 679.667 285.079 679.667 284.5C679.667 283.921 679.485 283.45 679.121 283.086C678.757 282.713 678.295 282.526 677.735 282.526C677.175 282.526 676.708 282.713 676.335 283.086C675.971 283.45 675.789 283.921 675.789 284.5C675.789 285.079 675.971 285.555 676.335 285.928ZM684.651 285.242C684.893 286.119 685.551 286.558 686.625 286.558C687.315 286.558 687.838 286.325 688.193 285.858L689.649 286.698C688.958 287.697 687.941 288.196 686.597 288.196C685.439 288.196 684.511 287.846 683.811 287.146C683.111 286.446 682.761 285.564 682.761 284.5C682.761 283.445 683.106 282.568 683.797 281.868C684.487 281.159 685.374 280.804 686.457 280.804C687.483 280.804 688.328 281.159 688.991 281.868C689.663 282.577 689.999 283.455 689.999 284.5C689.999 284.733 689.975 284.981 689.929 285.242H684.651ZM684.623 283.842H688.193C688.09 283.366 687.875 283.011 687.549 282.778C687.231 282.545 686.867 282.428 686.457 282.428C685.971 282.428 685.57 282.554 685.253 282.806C684.935 283.049 684.725 283.394 684.623 283.842ZM692.652 282.988C692.652 283.175 692.773 283.329 693.016 283.45C693.268 283.562 693.571 283.665 693.926 283.758C694.281 283.842 694.635 283.954 694.99 284.094C695.345 284.225 695.643 284.449 695.886 284.766C696.138 285.083 696.264 285.48 696.264 285.956C696.264 286.675 695.993 287.23 695.452 287.622C694.92 288.005 694.253 288.196 693.45 288.196C692.013 288.196 691.033 287.641 690.51 286.53L692.078 285.648C692.283 286.255 692.741 286.558 693.45 286.558C694.094 286.558 694.416 286.357 694.416 285.956C694.416 285.769 694.29 285.62 694.038 285.508C693.795 285.387 693.497 285.279 693.142 285.186C692.787 285.093 692.433 284.976 692.078 284.836C691.723 284.696 691.42 284.477 691.168 284.178C690.925 283.87 690.804 283.487 690.804 283.03C690.804 282.339 691.056 281.798 691.56 281.406C692.073 281.005 692.708 280.804 693.464 280.804C694.033 280.804 694.551 280.935 695.018 281.196C695.485 281.448 695.853 281.812 696.124 282.288L694.584 283.128C694.36 282.652 693.987 282.414 693.464 282.414C693.231 282.414 693.035 282.465 692.876 282.568C692.727 282.671 692.652 282.811 692.652 282.988ZM698.322 280.16C698.023 280.16 697.762 280.053 697.538 279.838C697.323 279.614 697.216 279.353 697.216 279.054C697.216 278.755 697.323 278.494 697.538 278.27C697.762 278.046 698.023 277.934 698.322 277.934C698.63 277.934 698.891 278.046 699.106 278.27C699.33 278.494 699.442 278.755 699.442 279.054C699.442 279.353 699.33 279.614 699.106 279.838C698.891 280.053 698.63 280.16 698.322 280.16ZM697.426 288V281H699.232V288H697.426ZM706.247 281H708.011V287.664C708.011 288.747 707.651 289.573 706.933 290.142C706.223 290.711 705.365 290.996 704.357 290.996C703.601 290.996 702.933 290.851 702.355 290.562C701.785 290.273 701.347 289.848 701.039 289.288L702.579 288.406C702.933 289.059 703.545 289.386 704.413 289.386C704.982 289.386 705.43 289.237 705.757 288.938C706.083 288.639 706.247 288.215 706.247 287.664V286.908C705.715 287.617 704.968 287.972 704.007 287.972C703.017 287.972 702.187 287.627 701.515 286.936C700.852 286.236 700.521 285.387 700.521 284.388C700.521 283.399 700.857 282.554 701.529 281.854C702.201 281.154 703.027 280.804 704.007 280.804C704.968 280.804 705.715 281.159 706.247 281.868V281ZM702.873 285.774C703.246 286.129 703.717 286.306 704.287 286.306C704.856 286.306 705.323 286.129 705.687 285.774C706.06 285.41 706.247 284.948 706.247 284.388C706.247 283.837 706.06 283.385 705.687 283.03C705.323 282.666 704.856 282.484 704.287 282.484C703.717 282.484 703.246 282.666 702.873 283.03C702.509 283.385 702.327 283.837 702.327 284.388C702.327 284.948 702.509 285.41 702.873 285.774ZM713.54 280.804C714.306 280.804 714.936 281.061 715.43 281.574C715.934 282.087 716.186 282.797 716.186 283.702V288H714.38V283.926C714.38 283.459 714.254 283.105 714.002 282.862C713.75 282.61 713.414 282.484 712.994 282.484C712.528 282.484 712.154 282.629 711.874 282.918C711.594 283.207 711.454 283.641 711.454 284.22V288H709.648V281H711.454V281.784C711.893 281.131 712.588 280.804 713.54 280.804Z" fill="#212529"/>
<circle opacity="0.5" cx="255" cy="240" r="12" fill="#D9D9F9"/>
<circle cx="255" cy="240" r="6" fill="#353590"/>
<path d="M215.43 288L212.14 278.2H214.24L216.634 285.732L219.014 278.2H221.128L217.824 288H215.43ZM222.611 280.16C222.312 280.16 222.051 280.053 221.827 279.838C221.612 279.614 221.505 279.353 221.505 279.054C221.505 278.755 221.612 278.494 221.827 278.27C222.051 278.046 222.312 277.934 222.611 277.934C222.919 277.934 223.18 278.046 223.395 278.27C223.619 278.494 223.731 278.755 223.731 279.054C223.731 279.353 223.619 279.614 223.395 279.838C223.18 280.053 222.919 280.16 222.611 280.16ZM221.715 288V281H223.521V288H221.715ZM226.785 282.988C226.785 283.175 226.906 283.329 227.149 283.45C227.401 283.562 227.704 283.665 228.059 283.758C228.414 283.842 228.768 283.954 229.123 284.094C229.478 284.225 229.776 284.449 230.019 284.766C230.271 285.083 230.397 285.48 230.397 285.956C230.397 286.675 230.126 287.23 229.585 287.622C229.053 288.005 228.386 288.196 227.583 288.196C226.146 288.196 225.166 287.641 224.643 286.53L226.211 285.648C226.416 286.255 226.874 286.558 227.583 286.558C228.227 286.558 228.549 286.357 228.549 285.956C228.549 285.769 228.423 285.62 228.171 285.508C227.928 285.387 227.63 285.279 227.275 285.186C226.92 285.093 226.566 284.976 226.211 284.836C225.856 284.696 225.553 284.477 225.301 284.178C225.058 283.87 224.937 283.487 224.937 283.03C224.937 282.339 225.189 281.798 225.693 281.406C226.206 281.005 226.841 280.804 227.597 280.804C228.166 280.804 228.684 280.935 229.151 281.196C229.618 281.448 229.986 281.812 230.257 282.288L228.717 283.128C228.493 282.652 228.12 282.414 227.597 282.414C227.364 282.414 227.168 282.465 227.009 282.568C226.86 282.671 226.785 282.811 226.785 282.988ZM236.178 281H237.984V288H236.178V287.216C235.74 287.869 235.044 288.196 234.092 288.196C233.327 288.196 232.692 287.939 232.188 287.426C231.694 286.913 231.446 286.203 231.446 285.298V281H233.252V285.074C233.252 285.541 233.378 285.9 233.63 286.152C233.882 286.395 234.218 286.516 234.638 286.516C235.105 286.516 235.478 286.371 235.758 286.082C236.038 285.793 236.178 285.359 236.178 284.78V281ZM244.959 281H246.765V288H244.959V287.174C244.417 287.855 243.657 288.196 242.677 288.196C241.743 288.196 240.941 287.841 240.269 287.132C239.606 286.413 239.274 285.536 239.274 284.5C239.274 283.464 239.606 282.591 240.269 281.882C240.941 281.163 241.743 280.804 242.677 280.804C243.657 280.804 244.417 281.145 244.959 281.826V281ZM241.627 285.928C241.991 286.292 242.453 286.474 243.013 286.474C243.573 286.474 244.035 286.292 244.399 285.928C244.772 285.555 244.959 285.079 244.959 284.5C244.959 283.921 244.772 283.45 244.399 283.086C244.035 282.713 243.573 282.526 243.013 282.526C242.453 282.526 241.991 282.713 241.627 283.086C241.263 283.45 241.081 283.921 241.081 284.5C241.081 285.079 241.263 285.555 241.627 285.928ZM248.402 288V277.78H250.208V288H248.402ZM260.667 278.2H262.473V288H260.667V287.174C260.135 287.855 259.379 288.196 258.399 288.196C257.456 288.196 256.649 287.841 255.977 287.132C255.314 286.413 254.983 285.536 254.983 284.5C254.983 283.464 255.314 282.591 255.977 281.882C256.649 281.163 257.456 280.804 258.399 280.804C259.379 280.804 260.135 281.145 260.667 281.826V278.2ZM257.335 285.928C257.708 286.292 258.175 286.474 258.735 286.474C259.295 286.474 259.757 286.292 260.121 285.928C260.485 285.555 260.667 285.079 260.667 284.5C260.667 283.921 260.485 283.45 260.121 283.086C259.757 282.713 259.295 282.526 258.735 282.526C258.175 282.526 257.708 282.713 257.335 283.086C256.971 283.45 256.789 283.921 256.789 284.5C256.789 285.079 256.971 285.555 257.335 285.928ZM265.651 285.242C265.893 286.119 266.551 286.558 267.625 286.558C268.315 286.558 268.838 286.325 269.193 285.858L270.649 286.698C269.958 287.697 268.941 288.196 267.597 288.196C266.439 288.196 265.511 287.846 264.811 287.146C264.111 286.446 263.761 285.564 263.761 284.5C263.761 283.445 264.106 282.568 264.797 281.868C265.487 281.159 266.374 280.804 267.457 280.804C268.483 280.804 269.328 281.159 269.991 281.868C270.663 282.577 270.999 283.455 270.999 284.5C270.999 284.733 270.975 284.981 270.929 285.242H265.651ZM265.623 283.842H269.193C269.09 283.366 268.875 283.011 268.549 282.778C268.231 282.545 267.867 282.428 267.457 282.428C266.971 282.428 266.57 282.554 266.253 282.806C265.935 283.049 265.725 283.394 265.623 283.842ZM273.652 282.988C273.652 283.175 273.773 283.329 274.016 283.45C274.268 283.562 274.571 283.665 274.926 283.758C275.281 283.842 275.635 283.954 275.99 284.094C276.345 284.225 276.643 284.449 276.886 284.766C277.138 285.083 277.264 285.48 277.264 285.956C277.264 286.675 276.993 287.23 276.452 287.622C275.92 288.005 275.253 288.196 274.45 288.196C273.013 288.196 272.033 287.641 271.51 286.53L273.078 285.648C273.283 286.255 273.741 286.558 274.45 286.558C275.094 286.558 275.416 286.357 275.416 285.956C275.416 285.769 275.29 285.62 275.038 285.508C274.795 285.387 274.497 285.279 274.142 285.186C273.787 285.093 273.433 284.976 273.078 284.836C272.723 284.696 272.42 284.477 272.168 284.178C271.925 283.87 271.804 283.487 271.804 283.03C271.804 282.339 272.056 281.798 272.56 281.406C273.073 281.005 273.708 280.804 274.464 280.804C275.033 280.804 275.551 280.935 276.018 281.196C276.485 281.448 276.853 281.812 277.124 282.288L275.584 283.128C275.36 282.652 274.987 282.414 274.464 282.414C274.231 282.414 274.035 282.465 273.876 282.568C273.727 282.671 273.652 282.811 273.652 282.988ZM279.322 280.16C279.023 280.16 278.762 280.053 278.538 279.838C278.323 279.614 278.216 279.353 278.216 279.054C278.216 278.755 278.323 278.494 278.538 278.27C278.762 278.046 279.023 277.934 279.322 277.934C279.63 277.934 279.891 278.046 280.106 278.27C280.33 278.494 280.442 278.755 280.442 279.054C280.442 279.353 280.33 279.614 280.106 279.838C279.891 280.053 279.63 280.16 279.322 280.16ZM278.426 288V281H280.232V288H278.426ZM287.247 281H289.011V287.664C289.011 288.747 288.651 289.573 287.933 290.142C287.223 290.711 286.365 290.996 285.357 290.996C284.601 290.996 283.933 290.851 283.355 290.562C282.785 290.273 282.347 289.848 282.039 289.288L283.579 288.406C283.933 289.059 284.545 289.386 285.413 289.386C285.982 289.386 286.43 289.237 286.757 288.938C287.083 288.639 287.247 288.215 287.247 287.664V286.908C286.715 287.617 285.968 287.972 285.007 287.972C284.017 287.972 283.187 287.627 282.515 286.936C281.852 286.236 281.521 285.387 281.521 284.388C281.521 283.399 281.857 282.554 282.529 281.854C283.201 281.154 284.027 280.804 285.007 280.804C285.968 280.804 286.715 281.159 287.247 281.868V281ZM283.873 285.774C284.246 286.129 284.717 286.306 285.287 286.306C285.856 286.306 286.323 286.129 286.687 285.774C287.06 285.41 287.247 284.948 287.247 284.388C287.247 283.837 287.06 283.385 286.687 283.03C286.323 282.666 285.856 282.484 285.287 282.484C284.717 282.484 284.246 282.666 283.873 283.03C283.509 283.385 283.327 283.837 283.327 284.388C283.327 284.948 283.509 285.41 283.873 285.774ZM294.54 280.804C295.306 280.804 295.936 281.061 296.43 281.574C296.934 282.087 297.186 282.797 297.186 283.702V288H295.38V283.926C295.38 283.459 295.254 283.105 295.002 282.862C294.75 282.61 294.414 282.484 293.994 282.484C293.528 282.484 293.154 282.629 292.874 282.918C292.594 283.207 292.454 283.641 292.454 284.22V288H290.648V281H292.454V281.784C292.893 281.131 293.588 280.804 294.54 280.804Z" fill="#212529"/>
</svg>
