<?xml version="1.0" encoding="utf-8"?>
<!-- Generator: Adobe Illustrator 23.0.1, SVG Export Plug-In . SVG Version: 6.00 Build 0)  -->
<svg version="1.1" id="Layer_1" xmlns="http://www.w3.org/2000/svg" xmlns:xlink="http://www.w3.org/1999/xlink" x="0px" y="0px"
	 viewBox="0 0 876 320" style="enable-background:new 0 0 876 320;" xml:space="preserve">
<style type="text/css">
	.st0{fill:#F1F3F5;}
	.st1{fill:none;stroke:#D9D9F9;}
	.st2{opacity:0.5;fill:#D9D9F9;enable-background:new    ;}
	.st3{fill:#353590;}
	.st4{enable-background:new    ;}
</style>
<path class="st0" d="M64.3,41c-2.4,3.2-5.8,4.8-10.2,4.8s-7.8-1.6-10.3-4.8c-2.4-3.2-3.6-7.5-3.6-12.8s1.2-9.6,3.6-12.7
	c2.5-3.2,5.9-4.8,10.3-4.8s7.8,1.6,10.2,4.8c2.5,3.2,3.7,7.4,3.7,12.7S66.8,37.8,64.3,41z M48.8,28.2c0,6.1,1.8,9.2,5.3,9.2
	c3.6,0,5.3-3.1,5.3-9.2S57.7,19,54.1,19C50.6,19,48.8,22.1,48.8,28.2z M77.9,11.4h7.4V45h-8.6V20.4l-5.9,1.5l-2.1-7.2L77.9,11.4z"/>
<path class="st0" d="M288.2,41.7c-2.4,3.2-5.8,4.8-10.2,4.8s-7.8-1.6-10.3-4.8c-2.4-3.2-3.6-7.5-3.6-12.8s1.2-9.6,3.6-12.7
	c2.5-3.2,5.9-4.8,10.3-4.8s7.8,1.6,10.2,4.8c2.5,3.2,3.7,7.4,3.7,12.7S290.7,38.5,288.2,41.7z M272.7,29c0,6.1,1.8,9.2,5.3,9.2
	s5.3-3.1,5.3-9.2s-1.8-9.2-5.3-9.2S272.7,22.8,272.7,29z M293.4,45.8v-6.2l11.1-11.8c1.1-1.2,1.9-2.2,2.4-2.9
	c0.5-0.8,0.8-1.5,0.8-2.3s-0.3-1.5-0.8-2s-1.2-0.8-2.2-0.8c-2,0-3.5,1.2-4.5,3.5l-7.4-4.1c1.1-2.5,2.7-4.4,4.8-5.8s4.4-2,7-2
	c3.2,0,5.9,1,8.2,2.9c2.3,1.9,3.5,4.5,3.5,7.8c0,2-0.5,3.8-1.4,5.4s-2.2,3.4-4,5.2l-4.6,4.8h10.5v8.3H293.4z"/>
<path class="st0" d="M483.3,41c-2.4,3.2-5.8,4.8-10.2,4.8s-7.8-1.6-10.3-4.8c-2.4-3.2-3.6-7.5-3.6-12.8s1.2-9.6,3.6-12.7
	c2.5-3.2,5.9-4.8,10.3-4.8s7.8,1.6,10.2,4.8c2.5,3.2,3.7,7.4,3.7,12.7S485.8,37.8,483.3,41z M467.8,28.2c0,6.1,1.8,9.2,5.3,9.2
	s5.3-3.1,5.3-9.2s-1.8-9.2-5.3-9.2S467.8,22.1,467.8,28.2z M504.9,25.1c2.1,0.7,3.9,1.8,5.2,3.5c1.3,1.6,2,3.6,2,5.9
	c0,3.6-1.2,6.4-3.6,8.4s-5.3,2.9-8.8,2.9c-2.8,0-5.3-0.6-7.4-1.9c-2.1-1.3-3.7-3.2-4.7-5.7l7.5-4.3c0.7,2.3,2.2,3.5,4.6,3.5
	c1.2,0,2.1-0.3,2.8-0.9c0.7-0.6,1-1.3,1-2.3s-0.3-1.7-1-2.3c-0.6-0.6-1.6-0.9-2.8-0.9h-1.8l-3.3-4.9l5.4-6.6h-11.3v-8.2h21.8v6.8
	L504.9,25.1z"/>
<path class="st0" d="M690.3,41c-2.4,3.2-5.8,4.8-10.2,4.8s-7.8-1.6-10.3-4.8c-2.4-3.2-3.6-7.5-3.6-12.8s1.2-9.6,3.6-12.7
	c2.5-3.2,5.9-4.8,10.3-4.8c4.4,0,7.8,1.6,10.2,4.8c2.5,3.2,3.7,7.4,3.7,12.7S692.8,37.8,690.3,41z M674.8,28.2
	c0,6.1,1.8,9.2,5.3,9.2s5.3-3.1,5.3-9.2s-1.8-9.2-5.3-9.2S674.8,22.1,674.8,28.2z M722.8,32v7.8h-3.4V45h-8.5v-5.1h-14.7V32l10-20.6
	h9.5L705.6,32h5.3v-6h8.5v6H722.8z"/>
<path class="st0" d="M371.3,249.8c-2.4,3.2-5.8,4.8-10.2,4.8s-7.8-1.6-10.3-4.8c-2.4-3.2-3.6-7.5-3.6-12.8s1.2-9.6,3.6-12.7
	c2.5-3.2,5.9-4.8,10.3-4.8s7.8,1.6,10.2,4.8c2.5,3.2,3.7,7.4,3.7,12.7S373.8,246.6,371.3,249.8z M355.8,237c0,6.1,1.8,9.2,5.3,9.2
	s5.3-3.1,5.3-9.2s-1.8-9.2-5.3-9.2S355.8,230.9,355.8,237z M391.9,230.9c3.3,0.4,5.9,1.7,7.8,3.8c2,2.1,2.9,4.8,2.9,7.9
	c0,3.5-1.2,6.3-3.5,8.5s-5.4,3.3-9.2,3.3c-3.8,0-6.9-1.1-9.2-3.3c-2.3-2.2-3.5-5.1-3.5-8.5c0-2.6,0.7-4.9,2.1-7l9.9-15.5h9.7
	L391.9,230.9z M389.9,246.7c1.2,0,2.2-0.4,2.9-1.1c0.8-0.7,1.2-1.7,1.2-2.9c0-1.3-0.4-2.3-1.2-3s-1.8-1.1-3-1.1s-2.2,0.4-3,1.1
	c-0.8,0.7-1.2,1.7-1.2,3s0.4,2.3,1.2,3C387.7,246.4,388.7,246.7,389.9,246.7z"/>
<path class="st0" d="M589.5,249.5c-2.4,3.2-5.8,4.8-10.2,4.8s-7.8-1.6-10.3-4.8c-2.4-3.2-3.6-7.5-3.6-12.8s1.2-9.6,3.6-12.7
	c2.5-3.2,5.9-4.8,10.3-4.8s7.8,1.6,10.2,4.8c2.5,3.2,3.7,7.4,3.7,12.7S592,246.3,589.5,249.5z M574,236.8c0,6.1,1.8,9.2,5.3,9.2
	s5.3-3.1,5.3-9.2s-1.8-9.2-5.3-9.2S574,230.7,574,236.8z M608.1,231.8c3.3,0,6,1,8.2,2.9s3.3,4.6,3.3,8.2c0,3.6-1.2,6.5-3.6,8.5
	c-2.4,2-5.3,3-8.8,3c-2.9,0-5.5-0.6-7.7-1.9c-2.2-1.3-3.8-3.2-4.8-5.7l7.5-4.3c0.7,2.3,2.4,3.5,4.9,3.5c1.2,0,2.1-0.3,2.8-0.8
	c0.7-0.6,1-1.3,1-2.3s-0.3-1.8-1-2.3c-0.6-0.5-1.5-0.8-2.6-0.8h-10.8L598,220h19.8v8.2H606l-0.2,3.6H608.1z"/>
<path class="st1" d="M64,32h707"/>
<path class="st1" d="M95,240h676"/>
<path class="st1" d="M771,240c57.4,0,104-46.6,104-104S828.4,32,771,32"/>
<circle class="st2" cx="64" cy="32" r="12"/>
<circle class="st3" cx="64" cy="32" r="6"/>
<circle class="st2" cx="290.9" cy="32.8" r="12"/>
<circle class="st3" cx="290.9" cy="32.8" r="6"/>
<circle class="st2" cx="486" cy="32" r="12"/>
<circle class="st3" cx="486" cy="32" r="6"/>
<circle class="st2" cx="695" cy="32" r="12"/>
<circle class="st3" cx="695" cy="32" r="6"/>
<circle class="st2" cx="375" cy="240.8" r="12"/>
<circle class="st3" cx="375" cy="240.8" r="6"/>
<circle class="st2" cx="592.2" cy="240.6" r="12"/>
<circle class="st3" cx="592.2" cy="240.6" r="6"/>
<g class="st4">
	<path d="M6,80l-1.8-3.2H3.1V80H0.8v-9.8h3.9c0.9,0,1.7,0.3,2.4,1c0.7,0.7,1,1.4,1,2.4c0,1.2-0.7,2.3-1.8,2.8L8.4,80H6z M3.1,72.3
		v2.5h1.7c0.6,0,1.1-0.5,1.1-1.3c0-0.7-0.5-1.3-1.1-1.3H3.1z"/>
	<path d="M11.3,77.3c0.2,0.7,0.8,1,1.7,1c0.6,0,1-0.2,1.3-0.5l1.7,1c-0.7,1-1.7,1.4-3.1,1.4c-1.2,0-2.1-0.4-2.8-1.1
		C9.4,78.4,9,77.6,9,76.5c0-1.1,0.4-1.9,1-2.6c0.7-0.7,1.6-1.1,2.7-1.1c1,0,1.9,0.4,2.5,1.1c0.7,0.7,1,1.6,1,2.6
		c0,0.3,0,0.6-0.1,0.8H11.3z M14.2,75.8c-0.2-0.7-0.7-1.1-1.5-1.1c-0.8,0-1.3,0.4-1.5,1.1H14.2z"/>
	<path d="M22.6,73h2.1v9.8h-2.1v-3.5c-0.5,0.6-1.2,0.9-2.1,0.9c-0.9,0-1.7-0.4-2.4-1.1c-0.7-0.7-1-1.6-1-2.6c0-1,0.3-1.9,1-2.6
		c0.7-0.7,1.4-1.1,2.4-1.1c0.9,0,1.6,0.3,2.1,0.9V73z M20.9,78.2c0.5,0,0.9-0.2,1.2-0.5c0.3-0.3,0.5-0.7,0.5-1.2s-0.2-0.9-0.5-1.2
		c-0.3-0.3-0.7-0.5-1.2-0.5s-0.9,0.2-1.2,0.5c-0.3,0.3-0.5,0.7-0.5,1.2s0.2,0.9,0.5,1.2C20,78.1,20.4,78.2,20.9,78.2z"/>
	<path d="M30.7,73h2.1v7h-2.1v-0.7c-0.4,0.6-1.1,0.9-2,0.9c-0.7,0-1.4-0.3-1.9-0.8c-0.5-0.5-0.7-1.2-0.7-2.1V73h2.1v4
		c0,0.8,0.5,1.3,1.2,1.3c0.8,0,1.3-0.5,1.3-1.4V73z"/>
	<path d="M34.6,72c-0.5-0.5-0.5-1.2,0-1.7c0.5-0.5,1.3-0.5,1.8,0c0.5,0.5,0.5,1.2,0,1.7C35.8,72.5,35.1,72.5,34.6,72z M34.4,80v-7
		h2.1v7H34.4z"/>
	<path d="M40.1,74.2c0.3-0.9,1.1-1.4,2.1-1.4v2.4c-0.5-0.1-1,0-1.4,0.3c-0.4,0.3-0.7,0.7-0.7,1.3V80H38v-7h2.1V74.2z"/>
	<path d="M45.1,77.3c0.2,0.7,0.8,1,1.7,1c0.6,0,1-0.2,1.3-0.5l1.7,1c-0.7,1-1.7,1.4-3.1,1.4c-1.2,0-2.1-0.4-2.8-1.1
		c-0.7-0.7-1.1-1.6-1.1-2.6c0-1.1,0.4-1.9,1-2.6c0.7-0.7,1.6-1.1,2.7-1.1c1,0,1.9,0.4,2.5,1.1c0.7,0.7,1,1.6,1,2.6
		c0,0.3,0,0.6-0.1,0.8H45.1z M48.1,75.8c-0.2-0.7-0.7-1.1-1.5-1.1c-0.8,0-1.3,0.4-1.5,1.1H48.1z"/>
	<path d="M61.1,73.6c0.5,0.5,0.7,1.2,0.7,2.1V80h-2.1v-4.1c0-0.7-0.4-1.1-1-1.1c-0.7,0-1.1,0.5-1.1,1.3v4h-2.1v-4.1
		c0-0.7-0.4-1.1-1-1.1c-0.7,0-1.1,0.5-1.1,1.3v4h-2.1v-7h2.1v0.6c0.4-0.6,1-0.8,1.9-0.8c0.8,0,1.4,0.3,1.8,0.9
		c0.4-0.6,1.1-0.9,2-0.9C60,72.8,60.6,73.1,61.1,73.6z"/>
	<path d="M65.1,77.3c0.2,0.7,0.8,1,1.7,1c0.6,0,1-0.2,1.3-0.5l1.7,1c-0.7,1-1.7,1.4-3.1,1.4c-1.2,0-2.1-0.4-2.8-1.1
		c-0.7-0.7-1.1-1.6-1.1-2.6c0-1.1,0.4-1.9,1-2.6c0.7-0.7,1.6-1.1,2.7-1.1c1,0,1.9,0.4,2.5,1.1c0.7,0.7,1,1.6,1,2.6
		c0,0.3,0,0.6-0.1,0.8H65.1z M68.1,75.8c-0.2-0.7-0.7-1.1-1.5-1.1c-0.8,0-1.3,0.4-1.5,1.1H68.1z"/>
	<path d="M77.4,73.6c0.5,0.5,0.8,1.2,0.8,2.1V80H76v-4c0-0.8-0.5-1.3-1.2-1.3c-0.8,0-1.3,0.5-1.3,1.4V80h-2.1v-7h2.1v0.7
		c0.4-0.6,1.1-0.9,2-0.9C76.2,72.8,76.9,73.1,77.4,73.6z"/>
	<path d="M83.7,75h-1.4v2.5c0,0.6,0.4,0.7,1.4,0.6V80c-1.3,0.1-2.3,0-2.8-0.4c-0.5-0.4-0.8-1.1-0.8-2.1V75H79v-2h1.1v-1.3l2.1-0.6v2
		h1.4V75z"/>
	<path d="M88,75.7c1,0.2,2.2,0.7,2.2,2.2c0,0.8-0.3,1.3-0.8,1.7c-0.6,0.4-1.2,0.6-2.1,0.6c-1.5,0-2.5-0.6-3-1.7l1.8-1
		c0.2,0.5,0.6,0.8,1.2,0.8c0.5,0,0.8-0.1,0.8-0.4c0-0.3-0.5-0.4-1.2-0.6c-1-0.3-2.2-0.7-2.2-2.2c0-0.7,0.3-1.3,0.8-1.7
		c0.5-0.4,1.2-0.6,2-0.6c1.2,0,2.2,0.5,2.7,1.5l-1.8,1c-0.2-0.4-0.5-0.6-0.9-0.6c-0.4,0-0.6,0.1-0.6,0.4
		C86.8,75.3,87.3,75.5,88,75.7z"/>
	<path d="M101.1,80l-0.5-1.5H97L96.5,80h-2.5l3.3-9.8h2.9l3.3,9.8H101.1z M97.7,76.4h2.3l-1.1-3.6L97.7,76.4z"/>
	<path d="M110.3,73.6c0.5,0.5,0.8,1.2,0.8,2.1V80H109v-4c0-0.8-0.5-1.3-1.2-1.3c-0.8,0-1.3,0.5-1.3,1.4V80h-2.1v-7h2.1v0.7
		c0.4-0.6,1.1-0.9,2-0.9C109.2,72.8,109.8,73.1,110.3,73.6z"/>
	<path d="M117.6,73h2.1v7h-2.1v-0.7c-0.5,0.6-1.2,0.9-2.1,0.9c-0.9,0-1.7-0.4-2.4-1.1c-0.7-0.7-1-1.6-1-2.6c0-1,0.3-1.9,1-2.6
		c0.7-0.7,1.4-1.1,2.4-1.1c0.9,0,1.6,0.3,2.1,0.9V73z M115.9,78.2c0.5,0,0.9-0.2,1.2-0.5c0.3-0.3,0.5-0.7,0.5-1.2s-0.2-0.9-0.5-1.2
		c-0.3-0.3-0.7-0.5-1.2-0.5c-0.5,0-0.9,0.2-1.2,0.5c-0.3,0.3-0.5,0.7-0.5,1.2s0.2,0.9,0.5,1.2C115,78.1,115.4,78.2,115.9,78.2z"/>
	<path d="M121.2,80V69.8h2.1V80H121.2z"/>
	<path d="M129.3,73h2.2l-2.4,6.8c-0.8,2.2-2,3.1-4,3v-2c1,0,1.4-0.3,1.8-1.2l-2.8-6.7h2.3l1.6,4.3L129.3,73z"/>
	<path d="M135.1,75.7c1,0.2,2.2,0.7,2.2,2.2c0,0.8-0.3,1.3-0.8,1.7c-0.6,0.4-1.2,0.6-2.1,0.6c-1.5,0-2.5-0.6-3-1.7l1.8-1
		c0.2,0.5,0.6,0.8,1.2,0.8c0.5,0,0.8-0.1,0.8-0.4c0-0.3-0.5-0.4-1.2-0.6c-1-0.3-2.2-0.7-2.2-2.2c0-0.7,0.3-1.3,0.8-1.7
		c0.5-0.4,1.2-0.6,2-0.6c1.2,0,2.2,0.5,2.7,1.5l-1.8,1c-0.2-0.4-0.5-0.6-0.9-0.6c-0.4,0-0.6,0.1-0.6,0.4
		C133.9,75.3,134.4,75.5,135.1,75.7z"/>
	<path d="M138.6,72c-0.5-0.5-0.5-1.2,0-1.7c0.5-0.5,1.3-0.5,1.8,0c0.5,0.5,0.5,1.2,0,1.7C139.9,72.5,139.1,72.5,138.6,72z M138.4,80
		v-7h2.1v7H138.4z"/>
	<path d="M145.2,75.7c1,0.2,2.2,0.7,2.2,2.2c0,0.8-0.3,1.3-0.8,1.7c-0.6,0.4-1.2,0.6-2.1,0.6c-1.5,0-2.5-0.6-3-1.7l1.8-1
		c0.2,0.5,0.6,0.8,1.2,0.8c0.5,0,0.8-0.1,0.8-0.4c0-0.3-0.5-0.4-1.2-0.6c-1-0.3-2.2-0.7-2.2-2.2c0-0.7,0.3-1.3,0.8-1.7
		c0.5-0.4,1.2-0.6,2-0.6c1.2,0,2.2,0.5,2.7,1.5l-1.8,1c-0.2-0.4-0.5-0.6-0.9-0.6c-0.4,0-0.6,0.1-0.6,0.4
		C144,75.3,144.5,75.5,145.2,75.7z"/>
</g>
<g class="st4">
	<path d="M276,288.8l-1.8-3.2h-1.1v3.2h-2.2V279h3.9c0.9,0,1.7,0.3,2.4,1c0.7,0.7,1,1.4,1,2.4c0,1.2-0.7,2.3-1.8,2.8l2.1,3.6H276z
		 M273.1,281.1v2.5h1.7c0.6,0,1.1-0.5,1.1-1.3c0-0.7-0.5-1.3-1.1-1.3H273.1z"/>
	<path d="M281.2,286.1c0.2,0.7,0.8,1,1.7,1c0.6,0,1-0.2,1.3-0.5l1.7,1c-0.7,1-1.7,1.4-3.1,1.4c-1.2,0-2.1-0.4-2.8-1.1
		c-0.7-0.7-1.1-1.6-1.1-2.6c0-1.1,0.4-1.9,1-2.6c0.7-0.7,1.6-1.1,2.7-1.1c1,0,1.9,0.4,2.5,1.1c0.7,0.7,1,1.6,1,2.6
		c0,0.3,0,0.6-0.1,0.8H281.2z M284.2,284.5c-0.2-0.7-0.7-1.1-1.5-1.1c-0.8,0-1.3,0.4-1.5,1.1H284.2z"/>
	<path d="M294,282.6c0.7,0.7,1,1.6,1,2.6c0,1-0.3,1.9-1,2.6c-0.7,0.7-1.4,1.1-2.4,1.1c-0.9,0-1.6-0.3-2.1-0.9v3.5h-2.1v-9.8h2.1v0.7
		c0.5-0.6,1.2-0.9,2.1-0.9C292.6,281.6,293.4,281.9,294,282.6z M291.2,287c0.5,0,0.9-0.2,1.2-0.5c0.3-0.3,0.5-0.7,0.5-1.2
		s-0.2-0.9-0.5-1.2c-0.3-0.3-0.7-0.5-1.2-0.5s-0.9,0.2-1.2,0.5c-0.3,0.3-0.5,0.7-0.5,1.2s0.2,0.9,0.5,1.2
		C290.4,286.8,290.8,287,291.2,287z"/>
	<path d="M299.6,289c-1,0-1.9-0.4-2.6-1.1c-0.7-0.7-1.1-1.6-1.1-2.6c0-1,0.4-1.9,1.1-2.6c0.7-0.7,1.6-1.1,2.6-1.1s1.9,0.4,2.6,1.1
		c0.7,0.7,1.1,1.6,1.1,2.6c0,1-0.4,1.9-1.1,2.6C301.5,288.6,300.6,289,299.6,289z M299.6,286.9c0.5,0,0.8-0.2,1.1-0.5
		c0.3-0.3,0.5-0.7,0.5-1.2s-0.2-0.9-0.5-1.2c-0.3-0.3-0.7-0.5-1.1-0.5c-0.5,0-0.8,0.2-1.1,0.5c-0.3,0.3-0.5,0.7-0.5,1.2
		s0.2,0.9,0.5,1.2C298.7,286.8,299.1,286.9,299.6,286.9z"/>
	<path d="M306.6,283c0.3-0.9,1.1-1.4,2.1-1.4v2.4c-0.5-0.1-1,0-1.4,0.3c-0.4,0.3-0.7,0.7-0.7,1.3v3.2h-2.1v-7h2.1V283z"/>
	<path d="M314,283.8h-1.4v2.5c0,0.6,0.4,0.7,1.4,0.6v1.9c-1.3,0.1-2.3,0-2.8-0.4c-0.5-0.4-0.8-1.1-0.8-2.1v-2.5h-1.1v-2h1.1v-1.3
		l2.1-0.6v2h1.4V283.8z"/>
	<path d="M323.9,281.8h2.1v7h-2.1v-0.7c-0.5,0.6-1.2,0.9-2.1,0.9c-0.9,0-1.7-0.4-2.4-1.1c-0.7-0.7-1-1.6-1-2.6c0-1,0.3-1.9,1-2.6
		c0.7-0.7,1.4-1.1,2.4-1.1c0.9,0,1.6,0.3,2.1,0.9V281.8z M322.2,287c0.5,0,0.9-0.2,1.2-0.5c0.3-0.3,0.5-0.7,0.5-1.2
		s-0.2-0.9-0.5-1.2c-0.3-0.3-0.7-0.5-1.2-0.5s-0.9,0.2-1.2,0.5c-0.3,0.3-0.5,0.7-0.5,1.2s0.2,0.9,0.5,1.2
		C321.3,286.8,321.7,287,322.2,287z"/>
	<path d="M333.5,282.3c0.5,0.5,0.8,1.2,0.8,2.1v4.3h-2.1v-4c0-0.8-0.5-1.3-1.2-1.3c-0.8,0-1.3,0.5-1.3,1.4v3.8h-2.1v-7h2.1v0.7
		c0.4-0.6,1.1-0.9,2-0.9C332.3,281.6,333,281.8,333.5,282.3z"/>
	<path d="M340.7,279h2.1v9.8h-2.1v-0.7c-0.5,0.6-1.2,0.9-2.1,0.9c-0.9,0-1.7-0.4-2.4-1.1c-0.7-0.7-1-1.6-1-2.6c0-1,0.3-1.9,1-2.6
		c0.7-0.7,1.4-1.1,2.4-1.1c0.9,0,1.6,0.3,2.1,0.9V279z M339.1,287c0.5,0,0.9-0.2,1.2-0.5c0.3-0.3,0.5-0.7,0.5-1.2s-0.2-0.9-0.5-1.2
		c-0.3-0.3-0.7-0.5-1.2-0.5s-0.9,0.2-1.2,0.5c-0.3,0.3-0.5,0.7-0.5,1.2s0.2,0.9,0.5,1.2C338.2,286.8,338.6,287,339.1,287z"/>
	<path d="M353.1,288.8l-1.8-3.2h-1.1v3.2H348V279h3.9c0.9,0,1.7,0.3,2.4,1c0.7,0.7,1,1.4,1,2.4c0,1.2-0.7,2.3-1.8,2.8l2.1,3.6H353.1
		z M350.2,281.1v2.5h1.7c0.6,0,1.1-0.5,1.1-1.3c0-0.7-0.5-1.3-1.1-1.3H350.2z"/>
	<path d="M358.4,286.1c0.2,0.7,0.8,1,1.7,1c0.6,0,1-0.2,1.3-0.5l1.7,1c-0.7,1-1.7,1.4-3.1,1.4c-1.2,0-2.1-0.4-2.8-1.1
		c-0.7-0.7-1.1-1.6-1.1-2.6c0-1.1,0.4-1.9,1-2.6c0.7-0.7,1.6-1.1,2.7-1.1c1,0,1.9,0.4,2.5,1.1c0.7,0.7,1,1.6,1,2.6
		c0,0.3,0,0.6-0.1,0.8H358.4z M361.3,284.5c-0.2-0.7-0.7-1.1-1.5-1.1c-0.8,0-1.3,0.4-1.5,1.1H361.3z"/>
	<path d="M368.8,281.8h2.3l-2.6,7h-2.4l-2.6-7h2.3l1.5,4.4L368.8,281.8z"/>
	<path d="M372.1,280.8c-0.5-0.5-0.5-1.2,0-1.7c0.5-0.5,1.3-0.5,1.8,0c0.5,0.5,0.5,1.2,0,1.7C373.3,281.3,372.6,281.3,372.1,280.8z
		 M371.9,288.8v-7h2.1v7H371.9z"/>
	<path d="M377.4,286.1c0.2,0.7,0.8,1,1.7,1c0.6,0,1-0.2,1.3-0.5l1.7,1c-0.7,1-1.7,1.4-3.1,1.4c-1.2,0-2.1-0.4-2.8-1.1
		c-0.7-0.7-1.1-1.6-1.1-2.6c0-1.1,0.4-1.9,1-2.6c0.7-0.7,1.6-1.1,2.7-1.1c1,0,1.9,0.4,2.5,1.1c0.7,0.7,1,1.6,1,2.6
		c0,0.3,0,0.6-0.1,0.8H377.4z M380.4,284.5c-0.2-0.7-0.7-1.1-1.5-1.1c-0.8,0-1.3,0.4-1.5,1.1H380.4z"/>
	<path d="M391.1,281.8h2.2l-2.2,7h-2L388,285l-1.1,3.7h-2l-2.2-7h2.2l1,3.8l1.1-3.8h2l1.1,3.8L391.1,281.8z"/>
	<path d="M404.3,279v2.2h-2.5v7.6h-2.2v-7.6H397V279H404.3z"/>
	<path d="M405.8,286.1c0.2,0.7,0.8,1,1.7,1c0.6,0,1-0.2,1.3-0.5l1.7,1c-0.7,1-1.7,1.4-3.1,1.4c-1.2,0-2.1-0.4-2.8-1.1
		c-0.7-0.7-1.1-1.6-1.1-2.6c0-1.1,0.4-1.9,1-2.6c0.7-0.7,1.6-1.1,2.7-1.1c1,0,1.9,0.4,2.5,1.1c0.7,0.7,1,1.6,1,2.6
		c0,0.3,0,0.6-0.1,0.8H405.8z M408.8,284.5c-0.2-0.7-0.7-1.1-1.5-1.1c-0.8,0-1.3,0.4-1.5,1.1H408.8z"/>
	<path d="M415,284.4c1,0.2,2.2,0.7,2.2,2.2c0,0.8-0.3,1.3-0.8,1.7c-0.6,0.4-1.2,0.6-2.1,0.6c-1.5,0-2.5-0.6-3-1.7l1.8-1
		c0.2,0.5,0.6,0.8,1.2,0.8c0.5,0,0.8-0.1,0.8-0.4c0-0.3-0.5-0.4-1.2-0.6c-1-0.3-2.2-0.7-2.2-2.2c0-0.7,0.3-1.3,0.8-1.7
		c0.5-0.4,1.2-0.6,2-0.6c1.2,0,2.2,0.5,2.7,1.5l-1.8,1c-0.2-0.4-0.5-0.6-0.9-0.6c-0.4,0-0.6,0.1-0.6,0.4
		C413.8,284.1,414.3,284.2,415,284.4z"/>
	<path d="M422.2,283.8h-1.4v2.5c0,0.6,0.4,0.7,1.4,0.6v1.9c-1.3,0.1-2.3,0-2.8-0.4c-0.5-0.4-0.8-1.1-0.8-2.1v-2.5h-1.1v-2h1.1v-1.3
		l2.1-0.6v2h1.4V283.8z"/>
	<path d="M423.7,280.8c-0.5-0.5-0.5-1.2,0-1.7c0.5-0.5,1.3-0.5,1.8,0c0.5,0.5,0.5,1.2,0,1.7C424.9,281.3,424.2,281.3,423.7,280.8z
		 M423.5,288.8v-7h2.1v7H423.5z"/>
	<path d="M433.1,282.3c0.5,0.5,0.8,1.2,0.8,2.1v4.3h-2.1v-4c0-0.8-0.5-1.3-1.2-1.3c-0.8,0-1.3,0.5-1.3,1.4v3.8h-2.1v-7h2.1v0.7
		c0.4-0.6,1.1-0.9,2-0.9C432,281.6,432.6,281.8,433.1,282.3z"/>
	<path d="M440.4,281.8h2v6.7c0,1.1-0.4,1.9-1.1,2.5c-0.7,0.6-1.6,0.9-2.6,0.9c-1.6,0-2.7-0.6-3.3-1.7l1.8-1c0.3,0.6,0.9,0.9,1.6,0.9
		c1,0,1.6-0.5,1.6-1.5v-0.6c-0.5,0.6-1.2,0.9-2,0.9c-1,0-1.8-0.4-2.5-1c-0.7-0.7-1-1.5-1-2.5s0.3-1.8,1-2.5c0.7-0.7,1.5-1.1,2.5-1.1
		c0.9,0,1.6,0.3,2,0.9V281.8z M438.7,286.7c0.5,0,0.9-0.2,1.2-0.4c0.3-0.3,0.5-0.7,0.5-1.2s-0.2-0.9-0.5-1.2s-0.7-0.4-1.2-0.4
		s-0.9,0.2-1.2,0.4s-0.5,0.7-0.5,1.2s0.2,0.9,0.5,1.2C437.8,286.6,438.3,286.7,438.7,286.7z"/>
	<path d="M452.7,288.8l-1.8-3.2h-1.1v3.2h-2.2V279h3.9c0.9,0,1.7,0.3,2.4,1c0.7,0.7,1,1.4,1,2.4c0,1.2-0.7,2.3-1.8,2.8l2.1,3.6
		H452.7z M449.8,281.1v2.5h1.7c0.6,0,1.1-0.5,1.1-1.3c0-0.7-0.5-1.3-1.1-1.3H449.8z"/>
	<path d="M458,286.1c0.2,0.7,0.8,1,1.7,1c0.6,0,1-0.2,1.3-0.5l1.7,1c-0.7,1-1.7,1.4-3.1,1.4c-1.2,0-2.1-0.4-2.8-1.1
		c-0.7-0.7-1.1-1.6-1.1-2.6c0-1.1,0.4-1.9,1-2.6c0.7-0.7,1.6-1.1,2.7-1.1c1,0,1.9,0.4,2.5,1.1c0.7,0.7,1,1.6,1,2.6
		c0,0.3,0,0.6-0.1,0.8H458z M461,284.5c-0.2-0.7-0.7-1.1-1.5-1.1c-0.8,0-1.3,0.4-1.5,1.1H461z"/>
	<path d="M467.2,284.4c1,0.2,2.2,0.7,2.2,2.2c0,0.8-0.3,1.3-0.8,1.7c-0.6,0.4-1.2,0.6-2.1,0.6c-1.5,0-2.5-0.6-3-1.7l1.8-1
		c0.2,0.5,0.6,0.8,1.2,0.8c0.5,0,0.8-0.1,0.8-0.4c0-0.3-0.5-0.4-1.2-0.6c-1-0.3-2.2-0.7-2.2-2.2c0-0.7,0.3-1.3,0.8-1.7
		c0.5-0.4,1.2-0.6,2-0.6c1.2,0,2.2,0.5,2.7,1.5l-1.8,1c-0.2-0.4-0.5-0.6-0.9-0.6c-0.4,0-0.6,0.1-0.6,0.4
		C466,284.1,466.5,284.2,467.2,284.4z"/>
	<path d="M475,281.8h2.1v7H475v-0.7c-0.4,0.6-1.1,0.9-2,0.9c-0.7,0-1.4-0.3-1.9-0.8c-0.5-0.5-0.7-1.2-0.7-2.1v-4.3h2.1v4
		c0,0.8,0.5,1.3,1.2,1.3c0.8,0,1.3-0.5,1.3-1.4V281.8z"/>
	<path d="M478.6,288.8v-10.2h2.1v10.2H478.6z"/>
	<path d="M486.4,283.8h-1.4v2.5c0,0.6,0.4,0.7,1.4,0.6v1.9c-1.3,0.1-2.3,0-2.8-0.4c-0.5-0.4-0.8-1.1-0.8-2.1v-2.5h-1.1v-2h1.1v-1.3
		l2.1-0.6v2h1.4V283.8z"/>
</g>
<g class="st4">
	<path d="M255.8,71v2.2h-2.5v7.6H251v-7.6h-2.5V71H255.8z"/>
	<path d="M257.3,78.1c0.2,0.7,0.8,1,1.7,1c0.6,0,1-0.2,1.3-0.5l1.7,1c-0.7,1-1.7,1.4-3.1,1.4c-1.2,0-2.1-0.4-2.8-1.1
		c-0.7-0.7-1.1-1.6-1.1-2.6c0-1.1,0.4-1.9,1-2.6c0.7-0.7,1.6-1.1,2.7-1.1c1,0,1.9,0.4,2.5,1.1c0.7,0.7,1,1.6,1,2.6
		c0,0.3,0,0.6-0.1,0.8H257.3z M260.3,76.5c-0.2-0.7-0.7-1.1-1.5-1.1c-0.8,0-1.3,0.4-1.5,1.1H260.3z"/>
	<path d="M266.5,76.4c1,0.2,2.2,0.7,2.2,2.2c0,0.8-0.3,1.3-0.8,1.7c-0.6,0.4-1.2,0.6-2.1,0.6c-1.5,0-2.5-0.6-3-1.7l1.8-1
		c0.2,0.5,0.6,0.8,1.2,0.8c0.5,0,0.8-0.1,0.8-0.4c0-0.3-0.5-0.4-1.2-0.6c-1-0.3-2.2-0.7-2.2-2.2c0-0.7,0.3-1.3,0.8-1.7
		c0.5-0.4,1.2-0.6,2-0.6c1.2,0,2.2,0.5,2.7,1.5l-1.8,1c-0.2-0.4-0.5-0.6-0.9-0.6c-0.4,0-0.6,0.1-0.6,0.4
		C265.3,76.1,265.8,76.2,266.5,76.4z"/>
	<path d="M273.6,75.8h-1.4v2.5c0,0.6,0.4,0.7,1.4,0.6v1.9c-1.3,0.1-2.3,0-2.8-0.4c-0.5-0.4-0.8-1.1-0.8-2.1v-2.5H269v-2h1.1v-1.3
		l2.1-0.6v2h1.4V75.8z"/>
	<path d="M275.2,72.8c-0.5-0.5-0.5-1.2,0-1.7c0.5-0.5,1.3-0.5,1.8,0c0.5,0.5,0.5,1.2,0,1.7C276.4,73.3,275.7,73.3,275.2,72.8z
		 M275,80.8v-7h2.1v7H275z"/>
	<path d="M284.6,74.3c0.5,0.5,0.8,1.2,0.8,2.1v4.3h-2.1v-4c0-0.8-0.5-1.3-1.2-1.3c-0.8,0-1.3,0.5-1.3,1.4v3.8h-2.1v-7h2.1v0.7
		c0.4-0.6,1.1-0.9,2-0.9C283.5,73.6,284.1,73.8,284.6,74.3z"/>
	<path d="M291.9,73.8h2v6.7c0,1.1-0.4,1.9-1.1,2.5c-0.7,0.6-1.6,0.9-2.6,0.9c-1.6,0-2.7-0.6-3.3-1.7l1.8-1c0.3,0.6,0.9,0.9,1.6,0.9
		c1,0,1.6-0.5,1.6-1.5v-0.6c-0.5,0.6-1.2,0.9-2,0.9c-1,0-1.8-0.4-2.5-1c-0.7-0.7-1-1.5-1-2.5s0.3-1.8,1-2.5c0.7-0.7,1.5-1.1,2.5-1.1
		c0.9,0,1.6,0.3,2,0.9V73.8z M290.2,78.7c0.5,0,0.9-0.2,1.2-0.4c0.3-0.3,0.5-0.7,0.5-1.2s-0.2-0.9-0.5-1.2s-0.7-0.4-1.2-0.4
		s-0.9,0.2-1.2,0.4s-0.5,0.7-0.5,1.2s0.2,0.9,0.5,1.2C289.3,78.6,289.7,78.7,290.2,78.7z"/>
	<path d="M302.8,71c1,0,1.8,0.3,2.4,1c0.7,0.7,1,1.4,1,2.4s-0.3,1.7-1,2.4s-1.5,1-2.4,1h-1.5v3.1h-2.2V71H302.8z M302.8,75.6
		c0.7,0,1.2-0.5,1.2-1.3c0-0.7-0.5-1.3-1.2-1.3h-1.5v2.5H302.8z"/>
	<path d="M307.3,80.8V70.5h2.1v10.2H307.3z"/>
	<path d="M316,73.8h2.1v7H316v-0.7c-0.5,0.6-1.2,0.9-2.1,0.9c-0.9,0-1.7-0.4-2.4-1.1c-0.7-0.7-1-1.6-1-2.6c0-1,0.3-1.9,1-2.6
		c0.7-0.7,1.4-1.1,2.4-1.1c0.9,0,1.6,0.3,2.1,0.9V73.8z M314.3,79c0.5,0,0.9-0.2,1.2-0.5c0.3-0.3,0.5-0.7,0.5-1.2s-0.2-0.9-0.5-1.2
		c-0.3-0.3-0.7-0.5-1.2-0.5c-0.5,0-0.9,0.2-1.2,0.5c-0.3,0.3-0.5,0.7-0.5,1.2s0.2,0.9,0.5,1.2C313.4,78.8,313.8,79,314.3,79z"/>
	<path d="M325.6,74.3c0.5,0.5,0.8,1.2,0.8,2.1v4.3h-2.1v-4c0-0.8-0.5-1.3-1.2-1.3c-0.8,0-1.3,0.5-1.3,1.4v3.8h-2.1v-7h2.1v0.7
		c0.4-0.6,1.1-0.9,2-0.9C324.5,73.6,325.1,73.8,325.6,74.3z"/>
</g>
<g class="st4">
	<path d="M466.6,70.6v2.2h-2.5v7.6h-2.2v-7.6h-2.5v-2.2H466.6z"/>
	<path d="M468.1,77.7c0.2,0.7,0.8,1,1.7,1c0.6,0,1-0.2,1.3-0.5l1.7,1c-0.7,1-1.7,1.4-3.1,1.4c-1.2,0-2.1-0.4-2.8-1.1
		c-0.7-0.7-1.1-1.6-1.1-2.6c0-1.1,0.4-1.9,1-2.6c0.7-0.7,1.6-1.1,2.7-1.1c1,0,1.9,0.4,2.5,1.1c0.7,0.7,1,1.6,1,2.6
		c0,0.3,0,0.6-0.1,0.8H468.1z M471.1,76.1c-0.2-0.7-0.7-1.1-1.5-1.1c-0.8,0-1.3,0.4-1.5,1.1H471.1z"/>
	<path d="M477.3,76c1,0.2,2.2,0.7,2.2,2.2c0,0.8-0.3,1.3-0.8,1.7c-0.6,0.4-1.2,0.6-2.1,0.6c-1.5,0-2.5-0.6-3-1.7l1.8-1
		c0.2,0.5,0.6,0.8,1.2,0.8c0.5,0,0.8-0.1,0.8-0.4c0-0.3-0.5-0.4-1.2-0.6c-1-0.3-2.2-0.7-2.2-2.2c0-0.7,0.3-1.3,0.8-1.7
		c0.5-0.4,1.2-0.6,2-0.6c1.2,0,2.2,0.5,2.7,1.5l-1.8,1c-0.2-0.4-0.5-0.6-0.9-0.6c-0.4,0-0.6,0.1-0.6,0.4
		C476.1,75.7,476.6,75.9,477.3,76z"/>
	<path d="M484.5,75.4H483v2.5c0,0.6,0.4,0.7,1.4,0.6v1.9c-1.3,0.1-2.3,0-2.8-0.4c-0.5-0.4-0.8-1.1-0.8-2.1v-2.5h-1.1v-2h1.1V72
		l2.1-0.6v2h1.4V75.4z"/>
	<path d="M486.5,79.5c-0.7-0.7-1.1-1.6-1.1-2.6s0.4-1.9,1.1-2.6c0.7-0.7,1.6-1.1,2.7-1.1c1.3,0,2.5,0.7,3.2,1.8l-1.8,1.1
		c-0.3-0.5-0.7-0.8-1.4-0.8c-0.9,0-1.6,0.7-1.6,1.6s0.7,1.6,1.6,1.6c0.7,0,1.1-0.3,1.4-0.8l1.8,1c-0.6,1.1-1.8,1.8-3.2,1.8
		C488.1,80.6,487.2,80.2,486.5,79.5z"/>
	<path d="M498.1,73.4h2.1v7h-2.1v-0.7c-0.5,0.6-1.2,0.9-2.1,0.9c-0.9,0-1.7-0.4-2.4-1.1c-0.7-0.7-1-1.6-1-2.6c0-1,0.3-1.9,1-2.6
		c0.7-0.7,1.4-1.1,2.4-1.1c0.9,0,1.6,0.3,2.1,0.9V73.4z M496.5,78.6c0.5,0,0.9-0.2,1.2-0.5c0.3-0.3,0.5-0.7,0.5-1.2
		s-0.2-0.9-0.5-1.2c-0.3-0.3-0.7-0.5-1.2-0.5s-0.9,0.2-1.2,0.5c-0.3,0.3-0.5,0.7-0.5,1.2s0.2,0.9,0.5,1.2
		C495.6,78.4,496,78.6,496.5,78.6z"/>
	<path d="M504.9,76c1,0.2,2.2,0.7,2.2,2.2c0,0.8-0.3,1.3-0.8,1.7c-0.6,0.4-1.2,0.6-2.1,0.6c-1.5,0-2.5-0.6-3-1.7l1.8-1
		c0.2,0.5,0.6,0.8,1.2,0.8c0.5,0,0.8-0.1,0.8-0.4c0-0.3-0.5-0.4-1.2-0.6c-1-0.3-2.2-0.7-2.2-2.2c0-0.7,0.3-1.3,0.8-1.7
		c0.5-0.4,1.2-0.6,2-0.6c1.2,0,2.2,0.5,2.7,1.5l-1.8,1c-0.2-0.4-0.5-0.6-0.9-0.6c-0.4,0-0.6,0.1-0.6,0.4
		C503.7,75.7,504.2,75.9,504.9,76z"/>
	<path d="M510.1,77.7c0.2,0.7,0.8,1,1.7,1c0.6,0,1-0.2,1.3-0.5l1.7,1c-0.7,1-1.7,1.4-3.1,1.4c-1.2,0-2.1-0.4-2.8-1.1
		c-0.7-0.7-1.1-1.6-1.1-2.6c0-1.1,0.4-1.9,1-2.6c0.7-0.7,1.6-1.1,2.7-1.1c1,0,1.9,0.4,2.5,1.1c0.7,0.7,1,1.6,1,2.6
		c0,0.3,0,0.6-0.1,0.8H510.1z M513.1,76.1c-0.2-0.7-0.7-1.1-1.5-1.1c-0.8,0-1.3,0.4-1.5,1.1H513.1z"/>
</g>
<g class="st4">
	<path d="M635.2,70.2v2.2h-2.5V80h-2.2v-7.6h-2.5v-2.2H635.2z"/>
	<path d="M636.7,77.3c0.2,0.7,0.8,1,1.7,1c0.6,0,1-0.2,1.3-0.5l1.7,1c-0.7,1-1.7,1.4-3.1,1.4c-1.2,0-2.1-0.4-2.8-1.1
		c-0.7-0.7-1.1-1.6-1.1-2.6c0-1.1,0.4-1.9,1-2.6c0.7-0.7,1.6-1.1,2.7-1.1c1,0,1.9,0.4,2.5,1.1c0.7,0.7,1,1.6,1,2.6
		c0,0.3,0,0.6-0.1,0.8H636.7z M639.7,75.8c-0.2-0.7-0.7-1.1-1.5-1.1c-0.8,0-1.3,0.4-1.5,1.1H639.7z"/>
	<path d="M645.9,75.7c1,0.2,2.2,0.7,2.2,2.2c0,0.8-0.3,1.3-0.8,1.7c-0.6,0.4-1.2,0.6-2.1,0.6c-1.5,0-2.5-0.6-3-1.7l1.8-1
		c0.2,0.5,0.6,0.8,1.2,0.8c0.5,0,0.8-0.1,0.8-0.4c0-0.3-0.5-0.4-1.2-0.6c-1-0.3-2.2-0.7-2.2-2.2c0-0.7,0.3-1.3,0.8-1.7
		c0.5-0.4,1.2-0.6,2-0.6c1.2,0,2.2,0.5,2.7,1.5l-1.8,1c-0.2-0.4-0.5-0.6-0.9-0.6c-0.4,0-0.6,0.1-0.6,0.4
		C644.7,75.3,645.2,75.5,645.9,75.7z"/>
	<path d="M653.1,75h-1.4v2.5c0,0.6,0.4,0.7,1.4,0.6V80c-1.3,0.1-2.3,0-2.8-0.4c-0.5-0.4-0.8-1.1-0.8-2.1V75h-1.1v-2h1.1v-1.3
		l2.1-0.6v2h1.4V75z"/>
	<path d="M654.6,72c-0.5-0.5-0.5-1.2,0-1.7c0.5-0.5,1.3-0.5,1.8,0c0.5,0.5,0.5,1.2,0,1.7C655.8,72.5,655.1,72.5,654.6,72z M654.4,80
		v-7h2.1v7H654.4z"/>
	<path d="M664,73.6c0.5,0.5,0.8,1.2,0.8,2.1V80h-2.1v-4c0-0.8-0.5-1.3-1.2-1.3c-0.8,0-1.3,0.5-1.3,1.4V80H658v-7h2.1v0.7
		c0.4-0.6,1.1-0.9,2-0.9C662.9,72.8,663.5,73.1,664,73.6z"/>
	<path d="M671.3,73h2v6.7c0,1.1-0.4,1.9-1.1,2.5c-0.7,0.6-1.6,0.9-2.6,0.9c-1.6,0-2.7-0.6-3.3-1.7l1.8-1c0.3,0.6,0.9,0.9,1.6,0.9
		c1,0,1.6-0.5,1.6-1.5V79c-0.5,0.6-1.2,0.9-2,0.9c-1,0-1.8-0.4-2.5-1c-0.7-0.7-1-1.5-1-2.5s0.3-1.8,1-2.5c0.7-0.7,1.5-1.1,2.5-1.1
		c0.9,0,1.6,0.3,2,0.9V73z M669.7,78c0.5,0,0.9-0.2,1.2-0.4c0.3-0.3,0.5-0.7,0.5-1.2s-0.2-0.9-0.5-1.2s-0.7-0.4-1.2-0.4
		s-0.9,0.2-1.2,0.4s-0.5,0.7-0.5,1.2s0.2,0.9,0.5,1.2C668.8,77.8,669.2,78,669.7,78z"/>
	<path d="M680.7,77.8h3.9V80h-6.2v-9.8h6.1v2.2h-3.9V74h3.5v2.1h-3.5V77.8z"/>
	<path d="M691.8,73.6c0.5,0.5,0.8,1.2,0.8,2.1V80h-2.1v-4c0-0.8-0.5-1.3-1.2-1.3c-0.8,0-1.3,0.5-1.3,1.4V80h-2.1v-7h2.1v0.7
		c0.4-0.6,1.1-0.9,2-0.9C690.7,72.8,691.3,73.1,691.8,73.6z"/>
	<path d="M698.3,73h2.3l-2.6,7h-2.4l-2.6-7h2.3l1.5,4.4L698.3,73z"/>
	<path d="M701.6,72c-0.5-0.5-0.5-1.2,0-1.7c0.5-0.5,1.3-0.5,1.8,0c0.5,0.5,0.5,1.2,0,1.7C702.9,72.5,702.1,72.5,701.6,72z M701.4,80
		v-7h2.1v7H701.4z"/>
	<path d="M707.2,74.2c0.3-0.9,1.1-1.4,2.1-1.4v2.4c-0.5-0.1-1,0-1.4,0.3c-0.4,0.3-0.7,0.7-0.7,1.3V80h-2.1v-7h2.1V74.2z"/>
	<path d="M713.6,80.2c-1,0-1.9-0.4-2.6-1.1c-0.7-0.7-1.1-1.6-1.1-2.6c0-1,0.4-1.9,1.1-2.6c0.7-0.7,1.6-1.1,2.6-1.1s1.9,0.4,2.6,1.1
		c0.7,0.7,1.1,1.6,1.1,2.6c0,1-0.4,1.9-1.1,2.6C715.5,79.8,714.7,80.2,713.6,80.2z M713.6,78.2c0.5,0,0.8-0.2,1.1-0.5
		c0.3-0.3,0.5-0.7,0.5-1.2s-0.2-0.9-0.5-1.2c-0.3-0.3-0.7-0.5-1.1-0.5c-0.5,0-0.8,0.2-1.1,0.5c-0.3,0.3-0.5,0.7-0.5,1.2
		s0.2,0.9,0.5,1.2C712.8,78,713.2,78.2,713.6,78.2z"/>
	<path d="M724.5,73.6c0.5,0.5,0.8,1.2,0.8,2.1V80h-2.1v-4c0-0.8-0.5-1.3-1.2-1.3c-0.8,0-1.3,0.5-1.3,1.4V80h-2.1v-7h2.1v0.7
		c0.4-0.6,1.1-0.9,2-0.9C723.4,72.8,724,73.1,724.5,73.6z"/>
	<path d="M736.5,73.6c0.5,0.5,0.7,1.2,0.7,2.1V80h-2.1v-4.1c0-0.7-0.4-1.1-1-1.1c-0.7,0-1.1,0.5-1.1,1.3v4h-2.1v-4.1
		c0-0.7-0.3-1.1-1-1.1c-0.7,0-1.1,0.5-1.1,1.3v4h-2.1v-7h2.1v0.6c0.4-0.6,1-0.8,1.9-0.8c0.8,0,1.4,0.3,1.8,0.9
		c0.4-0.6,1.1-0.9,2-0.9C735.3,72.8,736,73.1,736.5,73.6z"/>
	<path d="M740.5,77.3c0.2,0.7,0.8,1,1.7,1c0.6,0,1-0.2,1.3-0.5l1.7,1c-0.7,1-1.7,1.4-3.1,1.4c-1.2,0-2.1-0.4-2.8-1.1
		c-0.7-0.7-1-1.6-1-2.6c0-1.1,0.3-1.9,1-2.6c0.7-0.7,1.6-1.1,2.7-1.1c1,0,1.9,0.4,2.5,1.1c0.7,0.7,1,1.6,1,2.6c0,0.3,0,0.6-0.1,0.8
		H740.5z M743.5,75.8c-0.2-0.7-0.7-1.1-1.5-1.1c-0.8,0-1.3,0.4-1.5,1.1H743.5z"/>
	<path d="M752.7,73.6c0.5,0.5,0.8,1.2,0.8,2.1V80h-2.1v-4c0-0.8-0.5-1.3-1.2-1.3c-0.8,0-1.3,0.5-1.3,1.4V80h-2.1v-7h2.1v0.7
		c0.4-0.6,1.1-0.9,2-0.9C751.6,72.8,752.2,73.1,752.7,73.6z"/>
	<path d="M759,75h-1.4v2.5c0,0.6,0.4,0.7,1.4,0.6V80c-1.3,0.1-2.3,0-2.8-0.4c-0.5-0.4-0.8-1.1-0.8-2.1V75h-1.1v-2h1.1v-1.3l2.1-0.6
		v2h1.4V75z"/>
</g>
<g class="st4">
	<path d="M579.4,279v2.2h-2.5v7.6h-2.2v-7.6h-2.5V279H579.4z"/>
	<path d="M580.9,286.1c0.2,0.7,0.8,1,1.7,1c0.6,0,1-0.2,1.3-0.5l1.7,1c-0.7,1-1.7,1.4-3.1,1.4c-1.2,0-2.1-0.4-2.8-1.1
		c-0.7-0.7-1.1-1.6-1.1-2.6c0-1.1,0.4-1.9,1-2.6c0.7-0.7,1.6-1.1,2.7-1.1c1,0,1.9,0.4,2.5,1.1c0.7,0.7,1,1.6,1,2.6
		c0,0.3,0,0.6-0.1,0.8H580.9z M583.9,284.5c-0.2-0.7-0.7-1.1-1.5-1.1c-0.8,0-1.3,0.4-1.5,1.1H583.9z"/>
	<path d="M590.1,284.4c1,0.2,2.2,0.7,2.2,2.2c0,0.8-0.3,1.3-0.8,1.7c-0.6,0.4-1.2,0.6-2.1,0.6c-1.5,0-2.5-0.6-3-1.7l1.8-1
		c0.2,0.5,0.6,0.8,1.2,0.8c0.5,0,0.8-0.1,0.8-0.4c0-0.3-0.5-0.4-1.2-0.6c-1-0.3-2.2-0.7-2.2-2.2c0-0.7,0.3-1.3,0.8-1.7
		c0.5-0.4,1.2-0.6,2-0.6c1.2,0,2.2,0.5,2.7,1.5l-1.8,1c-0.2-0.4-0.5-0.6-0.9-0.6c-0.4,0-0.6,0.1-0.6,0.4
		C588.9,284.1,589.4,284.2,590.1,284.4z"/>
	<path d="M597.3,283.8h-1.4v2.5c0,0.6,0.4,0.7,1.4,0.6v1.9c-1.3,0.1-2.3,0-2.8-0.4c-0.5-0.4-0.8-1.1-0.8-2.1v-2.5h-1.1v-2h1.1v-1.3
		l2.1-0.6v2h1.4V283.8z"/>
	<path d="M598.8,280.8c-0.5-0.5-0.5-1.2,0-1.7c0.5-0.5,1.3-0.5,1.8,0c0.5,0.5,0.5,1.2,0,1.7C600,281.3,599.3,281.3,598.8,280.8z
		 M598.6,288.8v-7h2.1v7H598.6z"/>
	<path d="M608.2,282.3c0.5,0.5,0.8,1.2,0.8,2.1v4.3h-2.1v-4c0-0.8-0.5-1.3-1.2-1.3c-0.8,0-1.3,0.5-1.3,1.4v3.8h-2.1v-7h2.1v0.7
		c0.4-0.6,1.1-0.9,2-0.9C607.1,281.6,607.7,281.8,608.2,282.3z"/>
	<path d="M615.5,281.8h2v6.7c0,1.1-0.4,1.9-1.1,2.5c-0.7,0.6-1.6,0.9-2.6,0.9c-1.6,0-2.7-0.6-3.3-1.7l1.8-1c0.3,0.6,0.9,0.9,1.6,0.9
		c1,0,1.6-0.5,1.6-1.5v-0.6c-0.5,0.6-1.2,0.9-2,0.9c-1,0-1.8-0.4-2.5-1c-0.7-0.7-1-1.5-1-2.5s0.3-1.8,1-2.5c0.7-0.7,1.5-1.1,2.5-1.1
		c0.9,0,1.6,0.3,2,0.9V281.8z M613.9,286.7c0.5,0,0.9-0.2,1.2-0.4c0.3-0.3,0.5-0.7,0.5-1.2s-0.2-0.9-0.5-1.2s-0.7-0.4-1.2-0.4
		s-0.9,0.2-1.2,0.4s-0.5,0.7-0.5,1.2s0.2,0.9,0.5,1.2C613,286.6,613.4,286.7,613.9,286.7z"/>
</g>
</svg>
