<?xml version="1.0" encoding="utf-8"?>
<!-- Generator: Adobe Illustrator 23.0.1, SVG Export Plug-In . SVG Version: 6.00 Build 0)  -->
<svg version="1.1" id="Layer_1" xmlns="http://www.w3.org/2000/svg" xmlns:xlink="http://www.w3.org/1999/xlink" x="0px" y="0px"
	 viewBox="0 0 855 320" style="enable-background:new 0 0 855 320;" xml:space="preserve">
<style type="text/css">
	.st0{fill:#F1F3F5;}
	.st1{fill:none;stroke:#D9D9F9;}
	.st2{opacity:0.5;fill:#D9D9F9;enable-background:new    ;}
	.st3{fill:#353590;}
	.st4{enable-background:new    ;}
</style>
<path class="st0" d="M43.3,41c-2.4,3.2-5.8,4.8-10.2,4.8s-7.8-1.6-10.3-4.8c-2.4-3.2-3.6-7.5-3.6-12.8s1.2-9.6,3.6-12.7
	c2.5-3.2,5.9-4.8,10.3-4.8s7.8,1.6,10.2,4.8c2.5,3.2,3.7,7.4,3.7,12.7S45.8,37.8,43.3,41z M27.8,28.2c0,6.1,1.8,9.2,5.3,9.2
	c3.6,0,5.3-3.1,5.3-9.2S36.7,19,33.1,19C29.6,19,27.8,22.1,27.8,28.2z M56.9,11.4h7.4V45h-8.6V20.4l-5.9,1.5l-2.1-7.2L56.9,11.4z"/>
<path class="st0" d="M232.3,41.3c-2.4,3.2-5.8,4.8-10.2,4.8s-7.8-1.6-10.3-4.8c-2.4-3.2-3.6-7.5-3.6-12.8s1.2-9.6,3.6-12.7
	c2.5-3.2,5.9-4.8,10.3-4.8s7.8,1.6,10.2,4.8c2.5,3.2,3.7,7.4,3.7,12.7S234.7,38.1,232.3,41.3z M216.7,28.6c0,6.1,1.8,9.2,5.3,9.2
	s5.3-3.1,5.3-9.2s-1.8-9.2-5.3-9.2S216.7,22.5,216.7,28.6z M237.5,45.4v-6.2l11.1-11.8c1.1-1.2,1.9-2.2,2.4-2.9
	c0.5-0.8,0.8-1.5,0.8-2.3s-0.3-1.5-0.8-2s-1.2-0.8-2.2-0.8c-2,0-3.5,1.2-4.5,3.5l-7.4-4.1c1.1-2.5,2.7-4.4,4.8-5.8s4.4-2,7-2
	c3.2,0,5.9,1,8.2,2.9c2.3,1.9,3.5,4.5,3.5,7.8c0,2-0.5,3.8-1.4,5.4s-2.2,3.4-4,5.2l-4.6,4.8H261v8.3H237.5z"/>
<path class="st0" d="M462.3,41c-2.4,3.2-5.8,4.8-10.2,4.8s-7.8-1.6-10.3-4.8c-2.4-3.2-3.6-7.5-3.6-12.8s1.2-9.6,3.6-12.7
	c2.5-3.2,5.9-4.8,10.3-4.8s7.8,1.6,10.2,4.8c2.5,3.2,3.7,7.4,3.7,12.7S464.8,37.8,462.3,41z M446.8,28.2c0,6.1,1.8,9.2,5.3,9.2
	s5.3-3.1,5.3-9.2s-1.8-9.2-5.3-9.2S446.8,22.1,446.8,28.2z M483.9,25.1c2.1,0.7,3.9,1.8,5.2,3.5c1.3,1.6,2,3.6,2,5.9
	c0,3.6-1.2,6.4-3.6,8.4s-5.3,2.9-8.8,2.9c-2.8,0-5.3-0.6-7.4-1.9c-2.1-1.3-3.7-3.2-4.7-5.7l7.5-4.3c0.7,2.3,2.2,3.5,4.6,3.5
	c1.2,0,2.1-0.3,2.8-0.9c0.7-0.6,1-1.3,1-2.3s-0.3-1.7-1-2.3c-0.6-0.6-1.6-0.9-2.8-0.9h-1.8l-3.3-4.9l5.4-6.6h-11.3v-8.2h21.8v6.8
	L483.9,25.1z"/>
<path class="st0" d="M669.3,41c-2.4,3.2-5.8,4.8-10.2,4.8s-7.8-1.6-10.3-4.8c-2.4-3.2-3.6-7.5-3.6-12.8s1.2-9.6,3.6-12.7
	c2.5-3.2,5.9-4.8,10.3-4.8c4.4,0,7.8,1.6,10.2,4.8c2.5,3.2,3.7,7.4,3.7,12.7S671.8,37.8,669.3,41z M653.8,28.2
	c0,6.1,1.8,9.2,5.3,9.2s5.3-3.1,5.3-9.2s-1.8-9.2-5.3-9.2S653.8,22.1,653.8,28.2z M701.8,32v7.8h-3.4V45h-8.5v-5.1h-14.7V32l10-20.6
	h9.5L684.6,32h5.3v-6h8.5v6H701.8z"/>
<path class="st0" d="M461.3,249c-2.4,3.2-5.8,4.8-10.2,4.8s-7.8-1.6-10.3-4.8c-2.4-3.2-3.6-7.5-3.6-12.8s1.2-9.6,3.6-12.7
	c2.5-3.2,5.9-4.8,10.3-4.8s7.8,1.6,10.2,4.8c2.5,3.2,3.7,7.4,3.7,12.7S463.8,245.8,461.3,249z M445.8,236.2c0,6.1,1.8,9.2,5.3,9.2
	s5.3-3.1,5.3-9.2s-1.8-9.2-5.3-9.2S445.8,230.1,445.8,236.2z M481.9,230.1c3.3,0.4,5.9,1.7,7.8,3.8c2,2.1,2.9,4.8,2.9,7.9
	c0,3.5-1.2,6.3-3.5,8.5s-5.4,3.3-9.2,3.3c-3.8,0-6.9-1.1-9.2-3.3c-2.3-2.2-3.5-5.1-3.5-8.5c0-2.6,0.7-4.9,2.1-7l9.9-15.5h9.7
	L481.9,230.1z M479.9,245.8c1.2,0,2.2-0.4,2.9-1.1c0.8-0.7,1.2-1.7,1.2-2.9c0-1.3-0.4-2.3-1.2-3s-1.8-1.1-3-1.1s-2.2,0.4-3,1.1
	c-0.8,0.7-1.2,1.7-1.2,3s0.4,2.3,1.2,3C477.7,245.5,478.7,245.8,479.9,245.8z"/>
<path class="st0" d="M253.3,249c-2.4,3.2-5.8,4.8-10.2,4.8s-7.8-1.6-10.3-4.8c-2.4-3.2-3.6-7.5-3.6-12.8s1.2-9.6,3.6-12.7
	c2.5-3.2,5.9-4.8,10.3-4.8s7.8,1.6,10.2,4.8c2.5,3.2,3.7,7.4,3.7,12.7S255.8,245.8,253.3,249z M237.8,236.2c0,6.1,1.8,9.2,5.3,9.2
	s5.3-3.1,5.3-9.2s-1.8-9.2-5.3-9.2S237.8,230.1,237.8,236.2z M257.8,219.4h22.8v7.1L270,253h-9.3l10-25.3h-13L257.8,219.4
	L257.8,219.4z"/>
<path class="st0" d="M671.3,249c-2.4,3.2-5.8,4.8-10.2,4.8s-7.8-1.6-10.3-4.8c-2.4-3.2-3.6-7.5-3.6-12.8s1.2-9.6,3.6-12.7
	c2.5-3.2,5.9-4.8,10.3-4.8c4.4,0,7.8,1.6,10.2,4.8c2.5,3.2,3.7,7.4,3.7,12.7S673.8,245.8,671.3,249z M655.8,236.2
	c0,6.1,1.8,9.2,5.3,9.2s5.3-3.1,5.3-9.2s-1.8-9.2-5.3-9.2S655.8,230.1,655.8,236.2z M689.9,231.2c3.3,0,6,1,8.2,2.9s3.3,4.6,3.3,8.2
	c0,3.6-1.2,6.5-3.6,8.5c-2.4,2-5.3,3-8.8,3c-2.9,0-5.5-0.6-7.7-1.9c-2.2-1.3-3.8-3.2-4.8-5.7l7.5-4.3c0.7,2.3,2.4,3.5,4.9,3.5
	c1.2,0,2.1-0.3,2.8-0.8c0.7-0.6,1-1.3,1-2.3s-0.3-1.8-1-2.3c-0.6-0.5-1.5-0.8-2.6-0.8h-10.8l1.4-19.7h19.8v8.2h-11.9l-0.2,3.6
	L689.9,231.2L689.9,231.2z"/>
<path class="st1" d="M43,32h707"/>
<path class="st1" d="M74,240h676"/>
<path class="st1" d="M750,240c57.4,0,104-46.6,104-104S807.4,32,750,32"/>
<circle class="st2" cx="43" cy="32" r="12"/>
<circle class="st3" cx="43" cy="32" r="6"/>
<circle class="st2" cx="234.9" cy="32.4" r="12"/>
<circle class="st3" cx="234.9" cy="32.4" r="6"/>
<circle class="st2" cx="465" cy="32" r="12"/>
<circle class="st3" cx="465" cy="32" r="6"/>
<circle class="st2" cx="674" cy="32" r="12"/>
<circle class="st3" cx="674" cy="32" r="6"/>
<circle class="st2" cx="465" cy="240" r="12"/>
<circle class="st3" cx="465" cy="240" r="6"/>
<circle class="st2" cx="674" cy="240" r="12"/>
<circle class="st3" cx="674" cy="240" r="6"/>
<circle class="st2" cx="255" cy="240" r="12"/>
<circle class="st3" cx="255" cy="240" r="6"/>
<g class="st4">
	<path d="M10,80l-1.8-3.2H7.1V80H4.8v-9.8h3.9c0.9,0,1.7,0.3,2.4,1c0.7,0.7,1,1.4,1,2.4c0,1.2-0.7,2.3-1.8,2.8l2.1,3.6H10z
		 M7.1,72.3v2.5h1.7c0.6,0,1.1-0.5,1.1-1.3c0-0.7-0.5-1.3-1.1-1.3H7.1z"/>
	<path d="M15.3,77.3c0.2,0.7,0.8,1,1.7,1c0.6,0,1-0.2,1.3-0.5l1.7,1c-0.7,1-1.7,1.4-3.1,1.4c-1.2,0-2.1-0.4-2.8-1.1
		c-0.7-0.7-1.1-1.6-1.1-2.6c0-1.1,0.4-1.9,1-2.6c0.7-0.7,1.6-1.1,2.7-1.1c1,0,1.9,0.4,2.5,1.1c0.7,0.7,1,1.6,1,2.6
		c0,0.3,0,0.6-0.1,0.8H15.3z M18.2,75.8c-0.2-0.7-0.7-1.1-1.5-1.1c-0.8,0-1.3,0.4-1.5,1.1H18.2z"/>
	<path d="M26.6,73h2.1v9.8h-2.1v-3.5c-0.5,0.6-1.2,0.9-2.1,0.9c-0.9,0-1.7-0.4-2.4-1.1c-0.7-0.7-1-1.6-1-2.6c0-1,0.3-1.9,1-2.6
		c0.7-0.7,1.4-1.1,2.4-1.1c0.9,0,1.6,0.3,2.1,0.9V73z M24.9,78.2c0.5,0,0.9-0.2,1.2-0.5c0.3-0.3,0.5-0.7,0.5-1.2s-0.2-0.9-0.5-1.2
		c-0.3-0.3-0.7-0.5-1.2-0.5s-0.9,0.2-1.2,0.5c-0.3,0.3-0.5,0.7-0.5,1.2s0.2,0.9,0.5,1.2C24,78.1,24.4,78.2,24.9,78.2z"/>
	<path d="M34.7,73h2.1v7h-2.1v-0.7c-0.4,0.6-1.1,0.9-2,0.9c-0.7,0-1.4-0.3-1.9-0.8c-0.5-0.5-0.7-1.2-0.7-2.1V73h2.1v4
		c0,0.8,0.5,1.3,1.2,1.3c0.8,0,1.3-0.5,1.3-1.4V73z"/>
	<path d="M38.6,72c-0.5-0.5-0.5-1.2,0-1.7c0.5-0.5,1.3-0.5,1.8,0c0.5,0.5,0.5,1.2,0,1.7C39.8,72.5,39.1,72.5,38.6,72z M38.4,80v-7
		h2.1v7H38.4z"/>
	<path d="M44.1,74.2c0.3-0.9,1.1-1.4,2.1-1.4v2.4c-0.5-0.1-1,0-1.4,0.3c-0.4,0.3-0.7,0.7-0.7,1.3V80H42v-7h2.1V74.2z"/>
	<path d="M49.1,77.3c0.2,0.7,0.8,1,1.7,1c0.6,0,1-0.2,1.3-0.5l1.7,1c-0.7,1-1.7,1.4-3.1,1.4c-1.2,0-2.1-0.4-2.8-1.1
		c-0.7-0.7-1.1-1.6-1.1-2.6c0-1.1,0.4-1.9,1-2.6c0.7-0.7,1.6-1.1,2.7-1.1c1,0,1.9,0.4,2.5,1.1c0.7,0.7,1,1.6,1,2.6
		c0,0.3,0,0.6-0.1,0.8H49.1z M52.1,75.8c-0.2-0.7-0.7-1.1-1.5-1.1c-0.8,0-1.3,0.4-1.5,1.1H52.1z"/>
	<path d="M65.1,73.6c0.5,0.5,0.7,1.2,0.7,2.1V80h-2.1v-4.1c0-0.7-0.4-1.1-1-1.1c-0.7,0-1.1,0.5-1.1,1.3v4h-2.1v-4.1
		c0-0.7-0.4-1.1-1-1.1c-0.7,0-1.1,0.5-1.1,1.3v4h-2.1v-7h2.1v0.6c0.4-0.6,1-0.8,1.9-0.8c0.8,0,1.4,0.3,1.8,0.9
		c0.4-0.6,1.1-0.9,2-0.9C64,72.8,64.6,73.1,65.1,73.6z"/>
	<path d="M69.1,77.3c0.2,0.7,0.8,1,1.7,1c0.6,0,1-0.2,1.3-0.5l1.7,1c-0.7,1-1.7,1.4-3.1,1.4c-1.2,0-2.1-0.4-2.8-1.1
		c-0.7-0.7-1.1-1.6-1.1-2.6c0-1.1,0.4-1.9,1-2.6c0.7-0.7,1.6-1.1,2.7-1.1c1,0,1.9,0.4,2.5,1.1c0.7,0.7,1,1.6,1,2.6
		c0,0.3,0,0.6-0.1,0.8H69.1z M72.1,75.8c-0.2-0.7-0.7-1.1-1.5-1.1c-0.8,0-1.3,0.4-1.5,1.1H72.1z"/>
	<path d="M81.4,73.6c0.5,0.5,0.8,1.2,0.8,2.1V80H80v-4c0-0.8-0.5-1.3-1.2-1.3c-0.8,0-1.3,0.5-1.3,1.4V80h-2.1v-7h2.1v0.7
		c0.4-0.6,1.1-0.9,2-0.9C80.2,72.8,80.9,73.1,81.4,73.6z"/>
	<path d="M87.7,75h-1.4v2.5c0,0.6,0.4,0.7,1.4,0.6V80c-1.3,0.1-2.3,0-2.8-0.4c-0.5-0.4-0.8-1.1-0.8-2.1V75H83v-2h1.1v-1.3l2.1-0.6v2
		h1.4V75z"/>
</g>
<g class="st4">
	<path d="M432.3,278.4c1.4,0,2.5,0.5,3.4,1.4s1.4,2.1,1.4,3.5s-0.5,2.6-1.4,3.5s-2,1.4-3.4,1.4h-3.9v-9.8H432.3z M432.3,286
		c0.8,0,1.4-0.3,1.9-0.7c0.5-0.5,0.7-1.2,0.7-2c0-0.8-0.2-1.5-0.7-2c-0.5-0.5-1.1-0.8-1.9-0.8h-1.7v5.5H432.3z"/>
	<path d="M440.1,285.5c0.2,0.7,0.8,1,1.7,1c0.6,0,1-0.2,1.3-0.5l1.7,1c-0.7,1-1.7,1.4-3.1,1.4c-1.2,0-2.1-0.4-2.8-1.1
		c-0.7-0.7-1-1.6-1-2.6c0-1.1,0.4-1.9,1-2.6c0.7-0.7,1.6-1.1,2.7-1.1c1,0,1.9,0.4,2.5,1.1c0.7,0.7,1,1.6,1,2.6c0,0.3,0,0.6-0.1,0.8
		H440.1z M443.1,284c-0.2-0.7-0.7-1.1-1.5-1.1c-0.8,0-1.3,0.4-1.5,1.1H443.1z"/>
	<path d="M452.9,282.1c0.7,0.7,1,1.6,1,2.6c0,1-0.3,1.9-1,2.6c-0.7,0.7-1.4,1.1-2.4,1.1c-0.9,0-1.6-0.3-2.1-0.9v3.5h-2.1v-9.8h2.1
		v0.7c0.5-0.6,1.2-0.9,2.1-0.9C451.4,281,452.2,281.4,452.9,282.1z M450.1,286.4c0.5,0,0.9-0.2,1.2-0.5c0.3-0.3,0.5-0.7,0.5-1.2
		s-0.2-0.9-0.5-1.2c-0.3-0.3-0.7-0.5-1.2-0.5s-0.9,0.2-1.2,0.5c-0.3,0.3-0.5,0.7-0.5,1.2s0.2,0.9,0.5,1.2
		C449.2,286.2,449.6,286.4,450.1,286.4z"/>
	<path d="M455.1,288.2V278h2.1v10.2H455.1z"/>
	<path d="M462.1,288.4c-1,0-1.9-0.4-2.6-1.1c-0.7-0.7-1.1-1.6-1.1-2.6c0-1,0.4-1.9,1.1-2.6c0.7-0.7,1.6-1.1,2.6-1.1s1.9,0.4,2.6,1.1
		c0.7,0.7,1.1,1.6,1.1,2.6c0,1-0.4,1.9-1.1,2.6C464,288,463.1,288.4,462.1,288.4z M462.1,286.3c0.5,0,0.8-0.2,1.1-0.5
		c0.3-0.3,0.5-0.7,0.5-1.2s-0.2-0.9-0.5-1.2c-0.3-0.3-0.7-0.5-1.1-0.5s-0.8,0.2-1.1,0.5c-0.3,0.3-0.5,0.7-0.5,1.2s0.2,0.9,0.5,1.2
		C461.2,286.2,461.6,286.3,462.1,286.3z"/>
	<path d="M471.1,281.2h2.2l-2.4,6.8c-0.8,2.2-2,3.1-4,3v-2c1,0,1.4-0.3,1.8-1.2l-2.8-6.7h2.3l1.6,4.3L471.1,281.2z"/>
	<path d="M483.9,281.8c0.5,0.5,0.7,1.2,0.7,2.1v4.3h-2.1v-4.1c0-0.7-0.3-1.1-1-1.1c-0.7,0-1.1,0.5-1.1,1.3v4h-2.1v-4.1
		c0-0.7-0.4-1.1-1-1.1c-0.7,0-1.1,0.5-1.1,1.3v4h-2.1v-7h2.1v0.6c0.4-0.6,1-0.8,1.9-0.8c0.8,0,1.4,0.3,1.8,0.9
		c0.4-0.6,1.1-0.9,2-0.9C482.7,281,483.4,281.3,483.9,281.8z"/>
	<path d="M487.9,285.5c0.2,0.7,0.8,1,1.7,1c0.6,0,1-0.2,1.3-0.5l1.7,1c-0.7,1-1.7,1.4-3.1,1.4c-1.2,0-2.1-0.4-2.8-1.1
		c-0.7-0.7-1.1-1.6-1.1-2.6c0-1.1,0.4-1.9,1-2.6c0.7-0.7,1.6-1.1,2.7-1.1c1,0,1.9,0.4,2.5,1.1c0.7,0.7,1,1.6,1,2.6
		c0,0.3,0,0.6-0.1,0.8H487.9z M490.9,284c-0.2-0.7-0.7-1.1-1.5-1.1c-0.8,0-1.3,0.4-1.5,1.1H490.9z"/>
	<path d="M500.1,281.8c0.5,0.5,0.8,1.2,0.8,2.1v4.3h-2.1v-4c0-0.8-0.5-1.3-1.2-1.3c-0.8,0-1.3,0.5-1.3,1.4v3.8h-2.1v-7h2.1v0.7
		c0.4-0.6,1.1-0.9,2-0.9C499,281,499.6,281.2,500.1,281.8z"/>
	<path d="M506.4,283.2H505v2.5c0,0.6,0.4,0.7,1.4,0.6v1.9c-1.3,0.1-2.3,0-2.8-0.4c-0.5-0.4-0.8-1.1-0.8-2.1v-2.5h-1.1v-2h1.1v-1.3
		l2.1-0.6v2h1.4V283.2z"/>
</g>
<g class="st4">
	<path d="M180.1,278.4v9.8h-2.2v-5.7l-2.5,4.2h-0.3l-2.5-4.2v5.7h-2.2v-9.8h2.2l2.7,4.4l2.7-4.4H180.1z"/>
	<path d="M186.8,281.2h2.1v7h-2.1v-0.7c-0.5,0.6-1.2,0.9-2.1,0.9c-0.9,0-1.7-0.4-2.4-1.1c-0.7-0.7-1-1.6-1-2.6c0-1,0.3-1.9,1-2.6
		c0.7-0.7,1.4-1.1,2.4-1.1c0.9,0,1.6,0.3,2.1,0.9V281.2z M185.2,286.4c0.5,0,0.9-0.2,1.2-0.5c0.3-0.3,0.5-0.7,0.5-1.2
		s-0.2-0.9-0.5-1.2c-0.3-0.3-0.7-0.5-1.2-0.5c-0.5,0-0.9,0.2-1.2,0.5c-0.3,0.3-0.5,0.7-0.5,1.2s0.2,0.9,0.5,1.2
		C184.3,286.2,184.7,286.4,185.2,286.4z"/>
	<path d="M190.7,280.2c-0.5-0.5-0.5-1.2,0-1.7c0.5-0.5,1.3-0.5,1.8,0c0.5,0.5,0.5,1.2,0,1.7C191.9,280.7,191.2,280.7,190.7,280.2z
		 M190.5,288.2v-7h2.1v7H190.5z"/>
	<path d="M200.1,281.8c0.5,0.5,0.8,1.2,0.8,2.1v4.3h-2.1v-4c0-0.8-0.5-1.3-1.2-1.3c-0.8,0-1.3,0.5-1.3,1.4v3.8h-2.1v-7h2.1v0.7
		c0.4-0.6,1.1-0.9,2-0.9C199,281,199.6,281.2,200.1,281.8z"/>
	<path d="M206.4,283.2h-1.4v2.5c0,0.6,0.4,0.7,1.4,0.6v1.9c-1.3,0.1-2.3,0-2.8-0.4c-0.5-0.4-0.8-1.1-0.8-2.1v-2.5h-1.1v-2h1.1v-1.3
		l2.1-0.6v2h1.4V283.2z"/>
	<path d="M209.6,285.5c0.2,0.7,0.8,1,1.7,1c0.6,0,1-0.2,1.3-0.5l1.7,1c-0.7,1-1.7,1.4-3.1,1.4c-1.2,0-2.1-0.4-2.8-1.1
		c-0.7-0.7-1.1-1.6-1.1-2.6c0-1.1,0.4-1.9,1-2.6c0.7-0.7,1.6-1.1,2.7-1.1c1,0,1.9,0.4,2.5,1.1c0.7,0.7,1,1.6,1,2.6
		c0,0.3,0,0.6-0.1,0.8H209.6z M212.6,284c-0.2-0.7-0.7-1.1-1.5-1.1c-0.8,0-1.3,0.4-1.5,1.1H212.6z"/>
	<path d="M221.8,281.8c0.5,0.5,0.8,1.2,0.8,2.1v4.3h-2.1v-4c0-0.8-0.5-1.3-1.2-1.3c-0.8,0-1.3,0.5-1.3,1.4v3.8h-2.1v-7h2.1v0.7
		c0.4-0.6,1.1-0.9,2-0.9C220.7,281,221.3,281.2,221.8,281.8z"/>
	<path d="M229.1,281.2h2.1v7h-2.1v-0.7c-0.5,0.6-1.2,0.9-2.1,0.9c-0.9,0-1.7-0.4-2.4-1.1c-0.7-0.7-1-1.6-1-2.6c0-1,0.3-1.9,1-2.6
		c0.7-0.7,1.4-1.1,2.4-1.1c0.9,0,1.6,0.3,2.1,0.9V281.2z M227.4,286.4c0.5,0,0.9-0.2,1.2-0.5c0.3-0.3,0.5-0.7,0.5-1.2
		s-0.2-0.9-0.5-1.2c-0.3-0.3-0.7-0.5-1.2-0.5s-0.9,0.2-1.2,0.5c-0.3,0.3-0.5,0.7-0.5,1.2s0.2,0.9,0.5,1.2
		C226.5,286.2,226.9,286.4,227.4,286.4z"/>
	<path d="M238.7,281.8c0.5,0.5,0.8,1.2,0.8,2.1v4.3h-2.1v-4c0-0.8-0.5-1.3-1.2-1.3c-0.8,0-1.3,0.5-1.3,1.4v3.8h-2.1v-7h2.1v0.7
		c0.4-0.6,1.1-0.9,2-0.9C237.6,281,238.2,281.2,238.7,281.8z"/>
	<path d="M241.6,287.3c-0.7-0.7-1.1-1.6-1.1-2.6s0.4-1.9,1.1-2.6c0.7-0.7,1.6-1.1,2.7-1.1c1.3,0,2.5,0.7,3.2,1.8l-1.8,1.1
		c-0.3-0.5-0.7-0.8-1.4-0.8c-0.9,0-1.6,0.7-1.6,1.6s0.7,1.6,1.6,1.6c0.7,0,1.1-0.3,1.4-0.8l1.8,1c-0.6,1.1-1.8,1.8-3.2,1.8
		C243.2,288.4,242.3,288,241.6,287.3z"/>
	<path d="M250.2,285.5c0.2,0.7,0.8,1,1.7,1c0.6,0,1-0.2,1.3-0.5l1.7,1c-0.7,1-1.7,1.4-3.1,1.4c-1.2,0-2.1-0.4-2.8-1.1
		c-0.7-0.7-1.1-1.6-1.1-2.6c0-1.1,0.4-1.9,1-2.6c0.7-0.7,1.6-1.1,2.7-1.1c1,0,1.9,0.4,2.5,1.1c0.7,0.7,1,1.6,1,2.6
		c0,0.3,0,0.6-0.1,0.8H250.2z M253.2,284c-0.2-0.7-0.7-1.1-1.5-1.1c-0.8,0-1.3,0.4-1.5,1.1H253.2z"/>
	<path d="M265,281.2h2.1v7H265v-0.7c-0.5,0.6-1.2,0.9-2.1,0.9c-0.9,0-1.7-0.4-2.4-1.1c-0.7-0.7-1-1.6-1-2.6c0-1,0.3-1.9,1-2.6
		c0.7-0.7,1.4-1.1,2.4-1.1c0.9,0,1.6,0.3,2.1,0.9V281.2z M263.3,286.4c0.5,0,0.9-0.2,1.2-0.5c0.3-0.3,0.5-0.7,0.5-1.2
		s-0.2-0.9-0.5-1.2c-0.3-0.3-0.7-0.5-1.2-0.5s-0.9,0.2-1.2,0.5c-0.3,0.3-0.5,0.7-0.5,1.2s0.2,0.9,0.5,1.2
		C262.4,286.2,262.9,286.4,263.3,286.4z"/>
	<path d="M274.6,281.8c0.5,0.5,0.8,1.2,0.8,2.1v4.3h-2.1v-4c0-0.8-0.5-1.3-1.2-1.3c-0.8,0-1.3,0.5-1.3,1.4v3.8h-2.1v-7h2.1v0.7
		c0.4-0.6,1.1-0.9,2-0.9C273.5,281,274.1,281.2,274.6,281.8z"/>
	<path d="M281.9,278.4h2.1v9.8h-2.1v-0.7c-0.5,0.6-1.2,0.9-2.1,0.9c-0.9,0-1.7-0.4-2.4-1.1c-0.7-0.7-1-1.6-1-2.6c0-1,0.3-1.9,1-2.6
		c0.7-0.7,1.4-1.1,2.4-1.1c0.9,0,1.6,0.3,2.1,0.9V278.4z M280.2,286.4c0.5,0,0.9-0.2,1.2-0.5c0.3-0.3,0.5-0.7,0.5-1.2
		s-0.2-0.9-0.5-1.2c-0.3-0.3-0.7-0.5-1.2-0.5s-0.9,0.2-1.2,0.5c-0.3,0.3-0.5,0.7-0.5,1.2s0.2,0.9,0.5,1.2
		C279.3,286.2,279.7,286.4,280.2,286.4z"/>
	<path d="M288.6,286l1.9-1.1c0.4,0.9,1.1,1.4,2.1,1.4c0.9,0,1.3-0.3,1.3-0.8c0-0.3-0.1-0.5-0.4-0.7c-0.3-0.2-0.8-0.4-1.6-0.6
		c-0.8-0.2-1.4-0.5-2-0.9c-0.6-0.5-0.9-1.2-0.9-2.1c0-0.9,0.3-1.6,1-2.2c0.7-0.5,1.4-0.8,2.3-0.8c1.6,0,2.9,0.8,3.6,2.2l-1.9,1.1
		c-0.4-0.7-0.8-1.1-1.7-1.1c-0.7,0-1.1,0.3-1.1,0.7c0,0.2,0.1,0.4,0.3,0.6c0.2,0.2,0.7,0.4,1.4,0.6l0.9,0.3c0.2,0.1,0.5,0.2,0.8,0.4
		c0.3,0.2,0.6,0.3,0.8,0.5c0.4,0.4,0.7,1,0.7,1.8c0,0.9-0.3,1.7-1,2.2c-0.7,0.5-1.6,0.8-2.6,0.8C290.5,288.4,289.2,287.5,288.6,286z
		"/>
	<path d="M301.7,281.2h2.1v7h-2.1v-0.7c-0.4,0.6-1.1,0.9-2,0.9c-0.7,0-1.4-0.3-1.9-0.8c-0.5-0.5-0.7-1.2-0.7-2.1v-4.3h2.1v4
		c0,0.8,0.5,1.3,1.2,1.3c0.8,0,1.3-0.5,1.3-1.4V281.2z"/>
	<path d="M311.9,282.1c0.7,0.7,1,1.6,1,2.6c0,1-0.3,1.9-1,2.6c-0.7,0.7-1.4,1.1-2.4,1.1c-0.9,0-1.6-0.3-2.1-0.9v3.5h-2.1v-9.8h2.1
		v0.7c0.5-0.6,1.2-0.9,2.1-0.9C310.5,281,311.3,281.4,311.9,282.1z M309.2,286.4c0.5,0,0.9-0.2,1.2-0.5c0.3-0.3,0.5-0.7,0.5-1.2
		s-0.2-0.9-0.5-1.2c-0.3-0.3-0.7-0.5-1.2-0.5s-0.9,0.2-1.2,0.5c-0.3,0.3-0.5,0.7-0.5,1.2s0.2,0.9,0.5,1.2
		C308.3,286.2,308.7,286.4,309.2,286.4z"/>
	<path d="M320.7,282.1c0.7,0.7,1,1.6,1,2.6c0,1-0.3,1.9-1,2.6c-0.7,0.7-1.4,1.1-2.4,1.1c-0.9,0-1.6-0.3-2.1-0.9v3.5h-2.1v-9.8h2.1
		v0.7c0.5-0.6,1.2-0.9,2.1-0.9C319.2,281,320,281.4,320.7,282.1z M317.9,286.4c0.5,0,0.9-0.2,1.2-0.5c0.3-0.3,0.5-0.7,0.5-1.2
		s-0.2-0.9-0.5-1.2c-0.3-0.3-0.7-0.5-1.2-0.5s-0.9,0.2-1.2,0.5c-0.3,0.3-0.5,0.7-0.5,1.2s0.2,0.9,0.5,1.2
		C317,286.2,317.4,286.4,317.9,286.4z"/>
	<path d="M326.2,288.4c-1,0-1.9-0.4-2.6-1.1c-0.7-0.7-1.1-1.6-1.1-2.6c0-1,0.4-1.9,1.1-2.6c0.7-0.7,1.6-1.1,2.6-1.1s1.9,0.4,2.6,1.1
		c0.7,0.7,1.1,1.6,1.1,2.6c0,1-0.4,1.9-1.1,2.6C328.1,288,327.2,288.4,326.2,288.4z M326.2,286.3c0.5,0,0.8-0.2,1.1-0.5
		c0.3-0.3,0.5-0.7,0.5-1.2s-0.2-0.9-0.5-1.2c-0.3-0.3-0.7-0.5-1.1-0.5c-0.5,0-0.8,0.2-1.1,0.5c-0.3,0.3-0.5,0.7-0.5,1.2
		s0.2,0.9,0.5,1.2C325.3,286.2,325.7,286.3,326.2,286.3z"/>
	<path d="M333.2,282.4c0.3-0.9,1.1-1.4,2.1-1.4v2.4c-0.5-0.1-1,0-1.4,0.3c-0.4,0.3-0.7,0.7-0.7,1.3v3.2h-2.1v-7h2.1V282.4z"/>
	<path d="M340.6,283.2h-1.4v2.5c0,0.6,0.4,0.7,1.4,0.6v1.9c-1.3,0.1-2.3,0-2.8-0.4c-0.5-0.4-0.8-1.1-0.8-2.1v-2.5h-1.1v-2h1.1v-1.3
		l2.1-0.6v2h1.4V283.2z"/>
</g>
<g class="st4">
	<path d="M162.5,80.4l-0.5-1.5h-3.6l-0.5,1.5h-2.5l3.3-9.8h2.9l3.3,9.8H162.5z M159.1,76.7h2.3l-1.1-3.6L159.1,76.7z"/>
	<path d="M171.7,74c0.5,0.5,0.8,1.2,0.8,2.1v4.3h-2.1v-4c0-0.8-0.5-1.3-1.2-1.3c-0.8,0-1.3,0.5-1.3,1.4v3.8h-2.1v-7h2.1V74
		c0.4-0.6,1.1-0.9,2-0.9C170.6,73.2,171.2,73.4,171.7,74z"/>
	<path d="M179,73.4h2.1v7H179v-0.7c-0.5,0.6-1.2,0.9-2.1,0.9c-0.9,0-1.7-0.4-2.4-1.1c-0.7-0.7-1-1.6-1-2.6c0-1,0.3-1.9,1-2.6
		c0.7-0.7,1.4-1.1,2.4-1.1c0.9,0,1.6,0.3,2.1,0.9V73.4z M177.3,78.6c0.5,0,0.9-0.2,1.2-0.5c0.3-0.3,0.5-0.7,0.5-1.2
		s-0.2-0.9-0.5-1.2c-0.3-0.3-0.7-0.5-1.2-0.5s-0.9,0.2-1.2,0.5c-0.3,0.3-0.5,0.7-0.5,1.2s0.2,0.9,0.5,1.2
		C176.4,78.4,176.8,78.6,177.3,78.6z"/>
	<path d="M182.6,80.4V70.2h2.1v10.2H182.6z"/>
	<path d="M190.7,73.4h2.2l-2.4,6.8c-0.8,2.2-2,3.1-4,3v-2c1,0,1.4-0.3,1.8-1.2l-2.8-6.7h2.3l1.6,4.3L190.7,73.4z"/>
	<path d="M196.5,76c1,0.2,2.2,0.7,2.2,2.2c0,0.8-0.3,1.3-0.8,1.7c-0.6,0.4-1.2,0.6-2.1,0.6c-1.5,0-2.5-0.6-3-1.7l1.8-1
		c0.2,0.5,0.6,0.8,1.2,0.8c0.5,0,0.8-0.1,0.8-0.4c0-0.3-0.5-0.4-1.2-0.6c-1-0.3-2.2-0.7-2.2-2.2c0-0.7,0.3-1.3,0.8-1.7
		c0.5-0.4,1.2-0.6,2-0.6c1.2,0,2.2,0.5,2.7,1.5l-1.8,1c-0.2-0.4-0.5-0.6-0.9-0.6c-0.4,0-0.6,0.1-0.6,0.4
		C195.2,75.7,195.8,75.9,196.5,76z"/>
	<path d="M200,72.4c-0.5-0.5-0.5-1.2,0-1.7c0.5-0.5,1.3-0.5,1.8,0c0.5,0.5,0.5,1.2,0,1.7C201.2,72.9,200.5,72.9,200,72.4z
		 M199.8,80.4v-7h2.1v7H199.8z"/>
	<path d="M206.6,76c1,0.2,2.2,0.7,2.2,2.2c0,0.8-0.3,1.3-0.8,1.7c-0.6,0.4-1.2,0.6-2.1,0.6c-1.5,0-2.5-0.6-3-1.7l1.8-1
		c0.2,0.5,0.6,0.8,1.2,0.8c0.5,0,0.8-0.1,0.8-0.4c0-0.3-0.5-0.4-1.2-0.6c-1-0.3-2.2-0.7-2.2-2.2c0-0.7,0.3-1.3,0.8-1.7
		c0.5-0.4,1.2-0.6,2-0.6c1.2,0,2.2,0.5,2.7,1.5l-1.8,1c-0.2-0.4-0.5-0.6-0.9-0.6c-0.4,0-0.6,0.1-0.6,0.4
		C205.4,75.7,205.9,75.9,206.6,76z"/>
	<path d="M218.5,73.4h2.1v7h-2.1v-0.7c-0.5,0.6-1.2,0.9-2.1,0.9c-0.9,0-1.7-0.4-2.4-1.1c-0.7-0.7-1-1.6-1-2.6c0-1,0.3-1.9,1-2.6
		c0.7-0.7,1.4-1.1,2.4-1.1c0.9,0,1.6,0.3,2.1,0.9V73.4z M216.8,78.6c0.5,0,0.9-0.2,1.2-0.5c0.3-0.3,0.5-0.7,0.5-1.2
		s-0.2-0.9-0.5-1.2c-0.3-0.3-0.7-0.5-1.2-0.5c-0.5,0-0.9,0.2-1.2,0.5c-0.3,0.3-0.5,0.7-0.5,1.2s0.2,0.9,0.5,1.2
		C216,78.4,216.4,78.6,216.8,78.6z"/>
	<path d="M228.1,74c0.5,0.5,0.8,1.2,0.8,2.1v4.3h-2.1v-4c0-0.8-0.5-1.3-1.2-1.3c-0.8,0-1.3,0.5-1.3,1.4v3.8h-2.1v-7h2.1V74
		c0.4-0.6,1.1-0.9,2-0.9C227,73.2,227.6,73.4,228.1,74z"/>
	<path d="M235.4,70.6h2.1v9.8h-2.1v-0.7c-0.5,0.6-1.2,0.9-2.1,0.9c-0.9,0-1.7-0.4-2.4-1.1c-0.7-0.7-1-1.6-1-2.6c0-1,0.3-1.9,1-2.6
		c0.7-0.7,1.4-1.1,2.4-1.1c0.9,0,1.6,0.3,2.1,0.9V70.6z M233.7,78.6c0.5,0,0.9-0.2,1.2-0.5c0.3-0.3,0.5-0.7,0.5-1.2
		s-0.2-0.9-0.5-1.2c-0.3-0.3-0.7-0.5-1.2-0.5c-0.5,0-0.9,0.2-1.2,0.5c-0.3,0.3-0.5,0.7-0.5,1.2s0.2,0.9,0.5,1.2
		C232.8,78.4,233.2,78.6,233.7,78.6z"/>
	<path d="M242.1,78.2L244,77c0.4,0.9,1.1,1.4,2.1,1.4c0.9,0,1.3-0.3,1.3-0.8c0-0.3-0.1-0.5-0.4-0.7c-0.3-0.2-0.8-0.4-1.6-0.6
		c-0.8-0.2-1.4-0.5-2-0.9c-0.6-0.5-0.9-1.2-0.9-2.1c0-0.9,0.3-1.6,1-2.2c0.7-0.5,1.4-0.8,2.3-0.8c1.6,0,2.9,0.8,3.6,2.2l-1.9,1.1
		c-0.4-0.7-0.8-1.1-1.7-1.1c-0.7,0-1.1,0.3-1.1,0.7c0,0.2,0.1,0.4,0.3,0.6c0.2,0.2,0.7,0.4,1.4,0.6l0.9,0.3c0.2,0.1,0.5,0.2,0.8,0.4
		c0.3,0.2,0.6,0.3,0.8,0.5c0.4,0.4,0.7,1,0.7,1.8c0,0.9-0.3,1.7-1,2.2c-0.7,0.5-1.6,0.8-2.6,0.8C244,80.6,242.7,79.7,242.1,78.2z"/>
	<path d="M255.2,73.4h2.1v7h-2.1v-0.7c-0.4,0.6-1.1,0.9-2,0.9c-0.7,0-1.4-0.3-1.9-0.8c-0.5-0.5-0.7-1.2-0.7-2.1v-4.3h2.1v4
		c0,0.8,0.5,1.3,1.2,1.3c0.8,0,1.3-0.5,1.3-1.4V73.4z"/>
	<path d="M264,73.4h2V80c0,1.1-0.4,1.9-1.1,2.5c-0.7,0.6-1.6,0.9-2.6,0.9c-1.6,0-2.7-0.6-3.3-1.7l1.8-1c0.3,0.6,0.9,0.9,1.6,0.9
		c1,0,1.6-0.5,1.6-1.5v-0.6c-0.5,0.6-1.2,0.9-2,0.9c-1,0-1.8-0.4-2.5-1c-0.7-0.7-1-1.5-1-2.5s0.3-1.8,1-2.5c0.7-0.7,1.5-1.1,2.5-1.1
		c0.9,0,1.6,0.3,2,0.9V73.4z M262.3,78.4c0.5,0,0.9-0.2,1.2-0.4c0.3-0.3,0.5-0.7,0.5-1.2s-0.2-0.9-0.5-1.2s-0.7-0.4-1.2-0.4
		s-0.9,0.2-1.2,0.4s-0.5,0.7-0.5,1.2s0.2,0.9,0.5,1.2C261.4,78.2,261.8,78.4,262.3,78.4z"/>
	<path d="M272.7,73.4h2V80c0,1.1-0.4,1.9-1.1,2.5c-0.7,0.6-1.6,0.9-2.6,0.9c-1.6,0-2.7-0.6-3.3-1.7l1.8-1c0.3,0.6,0.9,0.9,1.6,0.9
		c1,0,1.6-0.5,1.6-1.5v-0.6c-0.5,0.6-1.2,0.9-2,0.9c-1,0-1.8-0.4-2.5-1c-0.7-0.7-1-1.5-1-2.5s0.3-1.8,1-2.5c0.7-0.7,1.5-1.1,2.5-1.1
		c0.9,0,1.6,0.3,2,0.9V73.4z M271.1,78.4c0.5,0,0.9-0.2,1.2-0.4c0.3-0.3,0.5-0.7,0.5-1.2s-0.2-0.9-0.5-1.2s-0.7-0.4-1.2-0.4
		s-0.9,0.2-1.2,0.4s-0.5,0.7-0.5,1.2s0.2,0.9,0.5,1.2C270.2,78.2,270.6,78.4,271.1,78.4z"/>
	<path d="M278.2,77.7c0.2,0.7,0.8,1,1.7,1c0.6,0,1-0.2,1.3-0.5l1.7,1c-0.7,1-1.7,1.4-3.1,1.4c-1.2,0-2.1-0.4-2.8-1.1
		c-0.7-0.7-1.1-1.6-1.1-2.6c0-1.1,0.4-1.9,1-2.6c0.7-0.7,1.6-1.1,2.7-1.1c1,0,1.9,0.4,2.5,1.1c0.7,0.7,1,1.6,1,2.6
		c0,0.3,0,0.6-0.1,0.8H278.2z M281.2,76.1c-0.2-0.7-0.7-1.1-1.5-1.1c-0.8,0-1.3,0.4-1.5,1.1H281.2z"/>
	<path d="M287.4,76c1,0.2,2.2,0.7,2.2,2.2c0,0.8-0.3,1.3-0.8,1.7c-0.6,0.4-1.2,0.6-2.1,0.6c-1.5,0-2.5-0.6-3-1.7l1.8-1
		c0.2,0.5,0.6,0.8,1.2,0.8c0.5,0,0.8-0.1,0.8-0.4c0-0.3-0.5-0.4-1.2-0.6c-1-0.3-2.2-0.7-2.2-2.2c0-0.7,0.3-1.3,0.8-1.7
		c0.5-0.4,1.2-0.6,2-0.6c1.2,0,2.2,0.5,2.7,1.5l-1.8,1c-0.2-0.4-0.5-0.6-0.9-0.6c-0.4,0-0.6,0.1-0.6,0.4
		C286.2,75.7,286.7,75.9,287.4,76z"/>
	<path d="M294.5,75.4h-1.4v2.5c0,0.6,0.4,0.7,1.4,0.6v1.9c-1.3,0.1-2.3,0-2.8-0.4c-0.5-0.4-0.8-1.1-0.8-2.1v-2.5h-1.1v-2h1.1V72
		l2.1-0.6v2h1.4V75.4z"/>
	<path d="M296.1,72.4c-0.5-0.5-0.5-1.2,0-1.7c0.5-0.5,1.3-0.5,1.8,0c0.5,0.5,0.5,1.2,0,1.7C297.3,72.9,296.6,72.9,296.1,72.4z
		 M295.9,80.4v-7h2.1v7H295.9z"/>
	<path d="M302.9,80.6c-1,0-1.9-0.4-2.6-1.1c-0.7-0.7-1.1-1.6-1.1-2.6c0-1,0.4-1.9,1.1-2.6c0.7-0.7,1.6-1.1,2.6-1.1s1.9,0.4,2.6,1.1
		c0.7,0.7,1.1,1.6,1.1,2.6c0,1-0.4,1.9-1.1,2.6C304.8,80.2,303.9,80.6,302.9,80.6z M302.9,78.5c0.5,0,0.8-0.2,1.1-0.5
		c0.3-0.3,0.5-0.7,0.5-1.2s-0.2-0.9-0.5-1.2c-0.3-0.3-0.7-0.5-1.1-0.5s-0.8,0.2-1.1,0.5c-0.3,0.3-0.5,0.7-0.5,1.2s0.2,0.9,0.5,1.2
		C302,78.4,302.4,78.5,302.9,78.5z"/>
	<path d="M313.7,74c0.5,0.5,0.8,1.2,0.8,2.1v4.3h-2.1v-4c0-0.8-0.5-1.3-1.2-1.3c-0.8,0-1.3,0.5-1.3,1.4v3.8h-2.1v-7h2.1V74
		c0.4-0.6,1.1-0.9,2-0.9C312.6,73.2,313.3,73.4,313.7,74z"/>
</g>
<g class="st4">
	<path d="M374.3,70.2c1.4,0,2.5,0.5,3.4,1.4s1.4,2.1,1.4,3.5s-0.5,2.6-1.4,3.5s-2,1.4-3.4,1.4h-3.9v-9.8H374.3z M374.3,77.8
		c0.8,0,1.4-0.3,1.9-0.7c0.5-0.5,0.7-1.2,0.7-2c0-0.8-0.2-1.5-0.7-2c-0.5-0.5-1.1-0.8-1.9-0.8h-1.7v5.5H374.3z"/>
	<path d="M382.1,77.3c0.2,0.7,0.8,1,1.7,1c0.6,0,1-0.2,1.3-0.5l1.7,1c-0.7,1-1.7,1.4-3.1,1.4c-1.2,0-2.1-0.4-2.8-1.1
		c-0.7-0.7-1.1-1.6-1.1-2.6c0-1.1,0.4-1.9,1-2.6c0.7-0.7,1.6-1.1,2.7-1.1c1,0,1.9,0.4,2.5,1.1c0.7,0.7,1,1.6,1,2.6
		c0,0.3,0,0.6-0.1,0.8H382.1z M385.1,75.8c-0.2-0.7-0.7-1.1-1.5-1.1c-0.8,0-1.3,0.4-1.5,1.1H385.1z"/>
	<path d="M391.3,75.7c1,0.2,2.2,0.7,2.2,2.2c0,0.8-0.3,1.3-0.8,1.7c-0.6,0.4-1.2,0.6-2.1,0.6c-1.5,0-2.5-0.6-3-1.7l1.8-1
		c0.2,0.5,0.6,0.8,1.2,0.8c0.5,0,0.8-0.1,0.8-0.4c0-0.3-0.5-0.4-1.2-0.6c-1-0.3-2.2-0.7-2.2-2.2c0-0.7,0.3-1.3,0.8-1.7
		c0.5-0.4,1.2-0.6,2-0.6c1.2,0,2.2,0.5,2.7,1.5l-1.8,1c-0.2-0.4-0.5-0.6-0.9-0.6c-0.4,0-0.6,0.1-0.6,0.4
		C390,75.3,390.6,75.5,391.3,75.7z"/>
	<path d="M394.8,72c-0.5-0.5-0.5-1.2,0-1.7c0.5-0.5,1.3-0.5,1.8,0c0.5,0.5,0.5,1.2,0,1.7C396,72.5,395.3,72.5,394.8,72z M394.6,80
		v-7h2.1v7H394.6z"/>
	<path d="M403.4,73h2v6.7c0,1.1-0.4,1.9-1.1,2.5c-0.7,0.6-1.6,0.9-2.6,0.9c-1.6,0-2.7-0.6-3.3-1.7l1.8-1c0.3,0.6,0.9,0.9,1.6,0.9
		c1,0,1.6-0.5,1.6-1.5V79c-0.5,0.6-1.2,0.9-2,0.9c-1,0-1.8-0.4-2.5-1c-0.7-0.7-1-1.5-1-2.5s0.3-1.8,1-2.5c0.7-0.7,1.5-1.1,2.5-1.1
		c0.9,0,1.6,0.3,2,0.9V73z M401.7,78c0.5,0,0.9-0.2,1.2-0.4c0.3-0.3,0.5-0.7,0.5-1.2s-0.2-0.9-0.5-1.2s-0.7-0.4-1.2-0.4
		s-0.9,0.2-1.2,0.4s-0.5,0.7-0.5,1.2s0.2,0.9,0.5,1.2C400.8,77.8,401.2,78,401.7,78z"/>
	<path d="M412.9,73.6c0.5,0.5,0.8,1.2,0.8,2.1V80h-2.1v-4c0-0.8-0.5-1.3-1.2-1.3c-0.8,0-1.3,0.5-1.3,1.4V80H407v-7h2.1v0.7
		c0.4-0.6,1.1-0.9,2-0.9C411.8,72.8,412.4,73.1,412.9,73.6z"/>
	<path d="M423.7,73h2.1v7h-2.1v-0.7c-0.5,0.6-1.2,0.9-2.1,0.9c-0.9,0-1.7-0.4-2.4-1.1c-0.7-0.7-1-1.6-1-2.6c0-1,0.3-1.9,1-2.6
		c0.7-0.7,1.4-1.1,2.4-1.1c0.9,0,1.6,0.3,2.1,0.9V73z M422,78.2c0.5,0,0.9-0.2,1.2-0.5c0.3-0.3,0.5-0.7,0.5-1.2s-0.2-0.9-0.5-1.2
		c-0.3-0.3-0.7-0.5-1.2-0.5s-0.9,0.2-1.2,0.5c-0.3,0.3-0.5,0.7-0.5,1.2s0.2,0.9,0.5,1.2C421.1,78.1,421.6,78.2,422,78.2z"/>
	<path d="M433.3,73.6c0.5,0.5,0.8,1.2,0.8,2.1V80H432v-4c0-0.8-0.5-1.3-1.2-1.3c-0.8,0-1.3,0.5-1.3,1.4V80h-2.1v-7h2.1v0.7
		c0.4-0.6,1.1-0.9,2-0.9C432.2,72.8,432.8,73.1,433.3,73.6z"/>
	<path d="M440.6,70.2h2.1V80h-2.1v-0.7c-0.5,0.6-1.2,0.9-2.1,0.9c-0.9,0-1.7-0.4-2.4-1.1c-0.7-0.7-1-1.6-1-2.6c0-1,0.3-1.9,1-2.6
		c0.7-0.7,1.4-1.1,2.4-1.1c0.9,0,1.6,0.3,2.1,0.9V70.2z M438.9,78.2c0.5,0,0.9-0.2,1.2-0.5c0.3-0.3,0.5-0.7,0.5-1.2
		s-0.2-0.9-0.5-1.2c-0.3-0.3-0.7-0.5-1.2-0.5c-0.5,0-0.9,0.2-1.2,0.5c-0.3,0.3-0.5,0.7-0.5,1.2s0.2,0.9,0.5,1.2
		C438,78.1,438.4,78.2,438.9,78.2z"/>
	<path d="M448.8,78.7c-1-1-1.4-2.2-1.4-3.6c0-1.4,0.5-2.7,1.4-3.6c1-1,2.2-1.5,3.7-1.5c1.8,0,3.3,0.9,4.2,2.3l-1.9,1.1
		c-0.4-0.8-1.3-1.2-2.3-1.2c-0.9,0-1.6,0.3-2.1,0.8c-0.5,0.5-0.8,1.2-0.8,2.1c0,0.9,0.3,1.6,0.8,2.1c0.5,0.5,1.2,0.8,2.1,0.8
		c1,0,1.9-0.5,2.3-1.2l1.9,1.1c-0.8,1.4-2.4,2.3-4.2,2.3C451,80.2,449.8,79.7,448.8,78.7z"/>
	<path d="M462.3,73h2.1v7h-2.1v-0.7c-0.4,0.6-1.1,0.9-2,0.9c-0.7,0-1.4-0.3-1.9-0.8c-0.5-0.5-0.7-1.2-0.7-2.1V73h2.1v4
		c0,0.8,0.5,1.3,1.2,1.3c0.8,0,1.3-0.5,1.3-1.4V73z"/>
	<path d="M469.1,75.7c1,0.2,2.2,0.7,2.2,2.2c0,0.8-0.3,1.3-0.8,1.7c-0.6,0.4-1.2,0.6-2.1,0.6c-1.5,0-2.5-0.6-3-1.7l1.8-1
		c0.2,0.5,0.6,0.8,1.2,0.8c0.5,0,0.8-0.1,0.8-0.4c0-0.3-0.5-0.4-1.2-0.6c-1-0.3-2.2-0.7-2.2-2.2c0-0.7,0.3-1.3,0.8-1.7
		c0.5-0.4,1.2-0.6,2-0.6c1.2,0,2.2,0.5,2.7,1.5l-1.8,1c-0.2-0.4-0.5-0.6-0.9-0.6c-0.4,0-0.6,0.1-0.6,0.4
		C467.9,75.3,468.4,75.5,469.1,75.7z"/>
	<path d="M476.3,75h-1.4v2.5c0,0.6,0.4,0.7,1.4,0.6V80c-1.3,0.1-2.3,0-2.8-0.4c-0.5-0.4-0.8-1.1-0.8-2.1V75h-1.1v-2h1.1v-1.3
		l2.1-0.6v2h1.4V75z"/>
	<path d="M481,80.2c-1,0-1.9-0.4-2.6-1.1c-0.7-0.7-1.1-1.6-1.1-2.6c0-1,0.4-1.9,1.1-2.6c0.7-0.7,1.6-1.1,2.6-1.1
		c1,0,1.9,0.4,2.6,1.1c0.7,0.7,1.1,1.6,1.1,2.6c0,1-0.4,1.9-1.1,2.6C482.9,79.8,482,80.2,481,80.2z M481,78.2c0.5,0,0.8-0.2,1.1-0.5
		c0.3-0.3,0.5-0.7,0.5-1.2s-0.2-0.9-0.5-1.2c-0.3-0.3-0.7-0.5-1.1-0.5c-0.5,0-0.8,0.2-1.1,0.5c-0.3,0.3-0.5,0.7-0.5,1.2
		s0.2,0.9,0.5,1.2C480.1,78,480.5,78.2,481,78.2z"/>
	<path d="M495.6,73.6c0.5,0.5,0.7,1.2,0.7,2.1V80h-2.1v-4.1c0-0.7-0.4-1.1-1-1.1c-0.7,0-1.1,0.5-1.1,1.3v4h-2.1v-4.1
		c0-0.7-0.3-1.1-1-1.1c-0.7,0-1.1,0.5-1.1,1.3v4h-2.1v-7h2.1v0.6c0.4-0.6,1-0.8,1.9-0.8c0.8,0,1.4,0.3,1.8,0.9
		c0.4-0.6,1.1-0.9,2-0.9C494.5,72.8,495.1,73.1,495.6,73.6z"/>
	<path d="M499.7,77.3c0.2,0.7,0.8,1,1.7,1c0.6,0,1-0.2,1.3-0.5l1.7,1c-0.7,1-1.7,1.4-3.1,1.4c-1.2,0-2.1-0.4-2.8-1.1
		c-0.7-0.7-1-1.6-1-2.6c0-1.1,0.3-1.9,1-2.6c0.7-0.7,1.6-1.1,2.7-1.1c1,0,1.9,0.4,2.5,1.1c0.7,0.7,1,1.6,1,2.6c0,0.3,0,0.6-0.1,0.8
		H499.7z M502.6,75.8c-0.2-0.7-0.7-1.1-1.5-1.1c-0.8,0-1.3,0.4-1.5,1.1H502.6z"/>
	<path d="M508,74.2c0.3-0.9,1.1-1.4,2.1-1.4v2.4c-0.5-0.1-1,0-1.4,0.3c-0.4,0.3-0.7,0.7-0.7,1.3V80h-2.1v-7h2.1V74.2z"/>
	<path d="M511.2,73.6l-0.3-3.4h2l-0.3,3.4H511.2z"/>
	<path d="M516.8,75.7c1,0.2,2.2,0.7,2.2,2.2c0,0.8-0.3,1.3-0.8,1.7c-0.6,0.4-1.2,0.6-2.1,0.6c-1.5,0-2.5-0.6-3-1.7l1.8-1
		c0.2,0.5,0.6,0.8,1.2,0.8c0.5,0,0.8-0.1,0.8-0.4c0-0.3-0.5-0.4-1.2-0.6c-1-0.3-2.2-0.7-2.2-2.2c0-0.7,0.3-1.3,0.8-1.7
		c0.5-0.4,1.2-0.6,2-0.6c1.2,0,2.2,0.5,2.7,1.5l-1.8,1c-0.2-0.4-0.5-0.6-0.9-0.6c-0.4,0-0.6,0.1-0.6,0.4
		C515.6,75.3,516.2,75.5,516.8,75.7z"/>
	<path d="M528.9,80l-1.8-3.2H526V80h-2.2v-9.8h3.9c0.9,0,1.7,0.3,2.4,1c0.7,0.7,1,1.4,1,2.4c0,1.2-0.7,2.3-1.8,2.8l2.1,3.6H528.9z
		 M526,72.3v2.5h1.7c0.6,0,1.1-0.5,1.1-1.3c0-0.7-0.5-1.3-1.1-1.3H526z"/>
	<path d="M534.2,77.3c0.2,0.7,0.8,1,1.7,1c0.6,0,1-0.2,1.3-0.5l1.7,1c-0.7,1-1.7,1.4-3.1,1.4c-1.2,0-2.1-0.4-2.8-1.1
		c-0.7-0.7-1.1-1.6-1.1-2.6c0-1.1,0.4-1.9,1-2.6c0.7-0.7,1.6-1.1,2.7-1.1c1,0,1.9,0.4,2.5,1.1c0.7,0.7,1,1.6,1,2.6
		c0,0.3,0,0.6-0.1,0.8H534.2z M537.1,75.8c-0.2-0.7-0.7-1.1-1.5-1.1c-0.8,0-1.3,0.4-1.5,1.1H537.1z"/>
	<path d="M544.6,73h2.3l-2.6,7h-2.4l-2.6-7h2.3l1.5,4.4L544.6,73z"/>
	<path d="M547.9,72c-0.5-0.5-0.5-1.2,0-1.7c0.5-0.5,1.3-0.5,1.8,0c0.5,0.5,0.5,1.2,0,1.7C549.1,72.5,548.4,72.5,547.9,72z M547.7,80
		v-7h2.1v7H547.7z"/>
	<path d="M553.2,77.3c0.2,0.7,0.8,1,1.7,1c0.6,0,1-0.2,1.3-0.5l1.7,1c-0.7,1-1.7,1.4-3.1,1.4c-1.2,0-2.1-0.4-2.8-1.1
		c-0.7-0.7-1-1.6-1-2.6c0-1.1,0.4-1.9,1-2.6c0.7-0.7,1.6-1.1,2.7-1.1c1,0,1.9,0.4,2.5,1.1c0.7,0.7,1,1.6,1,2.6c0,0.3,0,0.6-0.1,0.8
		H553.2z M556.2,75.8c-0.2-0.7-0.7-1.1-1.5-1.1c-0.8,0-1.3,0.4-1.5,1.1H556.2z"/>
	<path d="M566.9,73h2.2l-2.2,7h-2l-1.1-3.7l-1.1,3.7h-2l-2.2-7h2.2l1,3.8l1.1-3.8h2l1.1,3.8L566.9,73z"/>
</g>
<g class="st4">
	<path d="M640.6,70.2c1.4,0,2.5,0.5,3.4,1.4s1.4,2.1,1.4,3.5s-0.5,2.6-1.4,3.5s-2,1.4-3.4,1.4h-3.9v-9.8H640.6z M640.6,77.8
		c0.8,0,1.4-0.3,1.9-0.7c0.5-0.5,0.7-1.2,0.7-2c0-0.8-0.2-1.5-0.7-2c-0.5-0.5-1.1-0.8-1.9-0.8h-1.7v5.5H640.6z"/>
	<path d="M648.4,77.3c0.2,0.7,0.8,1,1.7,1c0.6,0,1-0.2,1.3-0.5l1.7,1c-0.7,1-1.7,1.4-3.1,1.4c-1.2,0-2.1-0.4-2.8-1.1
		c-0.7-0.7-1.1-1.6-1.1-2.6c0-1.1,0.3-1.9,1-2.6c0.7-0.7,1.6-1.1,2.7-1.1c1,0,1.9,0.4,2.5,1.1c0.7,0.7,1,1.6,1,2.6
		c0,0.3,0,0.6-0.1,0.8H648.4z M651.3,75.8c-0.2-0.7-0.7-1.1-1.5-1.1c-0.8,0-1.3,0.4-1.5,1.1H651.3z"/>
	<path d="M658.8,73h2.3l-2.6,7h-2.4l-2.6-7h2.3l1.5,4.4L658.8,73z"/>
	<path d="M663.8,77.3c0.2,0.7,0.8,1,1.7,1c0.6,0,1-0.2,1.3-0.5l1.7,1c-0.7,1-1.7,1.4-3.1,1.4c-1.2,0-2.1-0.4-2.8-1.1
		c-0.7-0.7-1-1.6-1-2.6c0-1.1,0.3-1.9,1-2.6c0.7-0.7,1.6-1.1,2.7-1.1c1,0,1.9,0.4,2.5,1.1c0.7,0.7,1,1.6,1,2.6c0,0.3,0,0.6-0.1,0.8
		H663.8z M666.7,75.8c-0.2-0.7-0.7-1.1-1.5-1.1c-0.8,0-1.3,0.4-1.5,1.1H666.7z"/>
	<path d="M670,80V69.8h2.1V80H670z"/>
	<path d="M677,80.2c-1,0-1.9-0.4-2.6-1.1c-0.7-0.7-1.1-1.6-1.1-2.6c0-1,0.4-1.9,1.1-2.6c0.7-0.7,1.6-1.1,2.6-1.1
		c1,0,1.9,0.4,2.6,1.1c0.7,0.7,1.1,1.6,1.1,2.6c0,1-0.4,1.9-1.1,2.6C678.9,79.8,678.1,80.2,677,80.2z M677,78.2
		c0.5,0,0.8-0.2,1.1-0.5c0.3-0.3,0.5-0.7,0.5-1.2s-0.2-0.9-0.5-1.2c-0.3-0.3-0.7-0.5-1.1-0.5c-0.5,0-0.8,0.2-1.1,0.5
		c-0.3,0.3-0.5,0.7-0.5,1.2s0.2,0.9,0.5,1.2C676.2,78,676.6,78.2,677,78.2z"/>
	<path d="M688.5,73.9c0.7,0.7,1,1.6,1,2.6c0,1-0.3,1.9-1,2.6c-0.7,0.7-1.4,1.1-2.4,1.1c-0.9,0-1.6-0.3-2.1-0.9v3.5h-2.1V73h2.1v0.7
		c0.5-0.6,1.2-0.9,2.1-0.9C687,72.8,687.8,73.2,688.5,73.9z M685.7,78.2c0.5,0,0.9-0.2,1.2-0.5c0.3-0.3,0.5-0.7,0.5-1.2
		s-0.2-0.9-0.5-1.2c-0.3-0.3-0.7-0.5-1.2-0.5s-0.9,0.2-1.2,0.5c-0.3,0.3-0.5,0.7-0.5,1.2s0.2,0.9,0.5,1.2
		C684.8,78.1,685.2,78.2,685.7,78.2z"/>
	<path d="M700.4,73.6c0.5,0.5,0.7,1.2,0.7,2.1V80H699v-4.1c0-0.7-0.4-1.1-1-1.1c-0.7,0-1.1,0.5-1.1,1.3v4h-2.1v-4.1
		c0-0.7-0.3-1.1-1-1.1c-0.7,0-1.1,0.5-1.1,1.3v4h-2.1v-7h2.1v0.6c0.4-0.6,1-0.8,1.9-0.8c0.8,0,1.4,0.3,1.8,0.9
		c0.4-0.6,1.1-0.9,2-0.9C699.3,72.8,699.9,73.1,700.4,73.6z"/>
	<path d="M704.5,77.3c0.2,0.7,0.8,1,1.7,1c0.6,0,1-0.2,1.3-0.5l1.7,1c-0.7,1-1.7,1.4-3.1,1.4c-1.2,0-2.1-0.4-2.8-1.1
		c-0.7-0.7-1-1.6-1-2.6c0-1.1,0.3-1.9,1-2.6c0.7-0.7,1.6-1.1,2.7-1.1c1,0,1.9,0.4,2.5,1.1c0.7,0.7,1,1.6,1,2.6c0,0.3,0,0.6-0.1,0.8
		H704.5z M707.4,75.8c-0.2-0.7-0.7-1.1-1.5-1.1c-0.8,0-1.3,0.4-1.5,1.1H707.4z"/>
	<path d="M716.7,73.6c0.5,0.5,0.8,1.2,0.8,2.1V80h-2.1v-4c0-0.8-0.5-1.3-1.2-1.3c-0.8,0-1.3,0.5-1.3,1.4V80h-2.1v-7h2.1v0.7
		c0.4-0.6,1.1-0.9,2-0.9C715.6,72.8,716.2,73.1,716.7,73.6z"/>
	<path d="M723,75h-1.4v2.5c0,0.6,0.4,0.7,1.4,0.6V80c-1.3,0.1-2.3,0-2.8-0.4c-0.5-0.4-0.8-1.1-0.8-2.1V75h-1.1v-2h1.1v-1.3l2.1-0.6
		v2h1.4V75z"/>
</g>
<g class="st4">
	<path d="M661.2,278.4v2.2h-2.5v7.6h-2.2v-7.6h-2.5v-2.2H661.2z"/>
	<path d="M662.7,285.5c0.2,0.7,0.8,1,1.7,1c0.6,0,1-0.2,1.3-0.5l1.7,1c-0.7,1-1.7,1.4-3.1,1.4c-1.2,0-2.1-0.4-2.8-1.1
		c-0.7-0.7-1.1-1.6-1.1-2.6c0-1.1,0.4-1.9,1-2.6c0.7-0.7,1.6-1.1,2.7-1.1c1,0,1.9,0.4,2.5,1.1c0.7,0.7,1,1.6,1,2.6
		c0,0.3,0,0.6-0.1,0.8H662.7z M665.7,284c-0.2-0.7-0.7-1.1-1.5-1.1c-0.8,0-1.3,0.4-1.5,1.1H665.7z"/>
	<path d="M671.9,283.9c1,0.2,2.2,0.7,2.2,2.2c0,0.8-0.3,1.3-0.8,1.7c-0.6,0.4-1.2,0.6-2.1,0.6c-1.5,0-2.5-0.6-3-1.7l1.8-1
		c0.2,0.5,0.6,0.8,1.2,0.8c0.5,0,0.8-0.1,0.8-0.4c0-0.3-0.5-0.4-1.2-0.6c-1-0.3-2.2-0.7-2.2-2.2c0-0.7,0.3-1.3,0.8-1.7
		c0.5-0.4,1.2-0.6,2-0.6c1.2,0,2.2,0.5,2.7,1.5l-1.8,1c-0.2-0.4-0.5-0.6-0.9-0.6c-0.4,0-0.6,0.1-0.6,0.4
		C670.7,283.5,671.2,283.7,671.9,283.9z"/>
	<path d="M679.1,283.2h-1.4v2.5c0,0.6,0.4,0.7,1.4,0.6v1.9c-1.3,0.1-2.3,0-2.8-0.4c-0.5-0.4-0.8-1.1-0.8-2.1v-2.5h-1.1v-2h1.1v-1.3
		l2.1-0.6v2h1.4V283.2z"/>
	<path d="M680.6,280.2c-0.5-0.5-0.5-1.2,0-1.7c0.5-0.5,1.3-0.5,1.8,0c0.5,0.5,0.5,1.2,0,1.7C681.8,280.7,681.1,280.7,680.6,280.2z
		 M680.4,288.2v-7h2.1v7H680.4z"/>
	<path d="M690,281.8c0.5,0.5,0.8,1.2,0.8,2.1v4.3h-2.1v-4c0-0.8-0.5-1.3-1.2-1.3c-0.8,0-1.3,0.5-1.3,1.4v3.8H684v-7h2.1v0.7
		c0.4-0.6,1.1-0.9,2-0.9C688.9,281,689.5,281.2,690,281.8z"/>
	<path d="M697.3,281.2h2v6.7c0,1.1-0.4,1.9-1.1,2.5c-0.7,0.6-1.6,0.9-2.6,0.9c-1.6,0-2.7-0.6-3.3-1.7l1.8-1c0.3,0.6,0.9,0.9,1.6,0.9
		c1,0,1.6-0.5,1.6-1.5v-0.6c-0.5,0.6-1.2,0.9-2,0.9c-1,0-1.8-0.4-2.5-1c-0.7-0.7-1-1.5-1-2.5s0.3-1.8,1-2.5c0.7-0.7,1.5-1.1,2.5-1.1
		c0.9,0,1.6,0.3,2,0.9V281.2z M695.7,286.2c0.5,0,0.9-0.2,1.2-0.4c0.3-0.3,0.5-0.7,0.5-1.2s-0.2-0.9-0.5-1.2s-0.7-0.4-1.2-0.4
		s-0.9,0.2-1.2,0.4s-0.5,0.7-0.5,1.2s0.2,0.9,0.5,1.2C694.8,286,695.2,286.2,695.7,286.2z"/>
</g>
</svg>
