<?xml version="1.0" encoding="utf-8"?>
<!-- Generator: Adobe Illustrator 24.1.2, SVG Export Plug-In . SVG Version: 6.00 Build 0)  -->
<svg version="1.1" id="Layer_1" xmlns="http://www.w3.org/2000/svg" xmlns:xlink="http://www.w3.org/1999/xlink" x="0px" y="0px"
	 viewBox="0 0 100 100" style="enable-background:new 0 0 100 100;" xml:space="preserve">
<style type="text/css">
	.st0{fill:none;stroke:#000000;stroke-width:1.3;stroke-linecap:round;stroke-linejoin:round;stroke-miterlimit:10;}
	.st1{fill:none;stroke:#000000;stroke-width:1.3;stroke-linecap:round;stroke-linejoin:round;stroke-miterlimit:2.6131;}
</style>
<g>
	<g>
		<g id="XMLID_333_">
			<g>
				<path class="st0" d="M46.73,48.59c-1.49-0.12-2.9-0.19-4.18-0.19v-3.68h4.19v3.81L46.73,48.59z"/>
				<path class="st0" d="M53.54,49.56c-1.38-0.28-2.77-0.51-4.16-0.68l0.01-0.06v-9.38h4.18v10L53.54,49.56z"/>
				<path class="st0" d="M60.42,34.36v16.82l-0.16,0.37c-1.22-0.53-2.59-0.98-4.02-1.37V34.36H60.42z"/>
				<path class="st0" d="M69.92,55.84V26.99h4.2v26.67l0.07,0.17C72.71,54.44,71.26,55.12,69.92,55.84z"/>
				<path class="st0" d="M67.26,30.74v26.43l0.1,0.16c-0.68,0.44-1.3,0.88-1.84,1.31c0.23-0.55,0.3-1.21,0.17-2.01
					c-0.22-1.43-1.26-2.66-2.81-3.69v-0.01l0.2-0.26V30.74H67.26z"/>
				<path class="st0" d="M56.24,34.36v15.82c-0.88-0.23-1.78-0.44-2.7-0.63l0.03-0.13v-10h-4.18v9.38l-0.01,0.06
					c-0.9-0.12-1.79-0.21-2.66-0.28l0.01-0.06v-3.81h-4.19v3.68c-1.79-0.01-3.29,0.1-4.33,0.3c-0.57,0.12-1.17,0.27-1.81,0.47
					c-0.76-2.31-1.1-4.79-1.1-7.33c0-13.69,11.1-24.77,24.78-24.77c13.68,0,24.77,11.08,24.77,24.77c0,3.3-0.65,6.44-1.81,9.31
					c-0.04,0-0.07,0-0.11,0.01c-2.45,0.34-5.65,1.35-8.76,2.66l-0.07-0.17V26.99h-4.2v28.85c-0.92,0.49-1.78,0.98-2.56,1.49
					l-0.1-0.16V30.74h-4.18v21.92l-0.2,0.26c-0.76-0.51-1.65-0.97-2.63-1.38l0.16-0.37V34.36H56.24z"/>
				<path class="st0" d="M23.54,70.29c-1.04,0.12-1.78,1.04-1.66,2.08c0.12,1.03,1.05,1.78,2.08,1.66c1.04-0.12,1.78-1.04,1.66-2.08
					C25.5,70.9,24.57,70.17,23.54,70.29z M13.92,83.93L11.6,59.29l10.81-3.34l9.66,15.6l0.52,3.99L13.92,83.93z"/>
				<path class="st0" d="M60.38,72.71c-11.63,0.87-13.98-6.75-28.32-1.15l-9.66-15.6c3.53-2.03,9.5-5.36,14-6.78
					c0.63-0.2,1.24-0.35,1.81-0.47c1.04-0.2,2.55-0.31,4.33-0.3c1.28,0,2.69,0.07,4.18,0.19c0.87,0.08,1.76,0.17,2.66,0.28
					c1.39,0.18,2.78,0.4,4.16,0.68c0.92,0.19,1.82,0.39,2.7,0.63c1.43,0.39,2.8,0.84,4.02,1.37c0.98,0.41,1.86,0.87,2.63,1.38v0.01
					c1.55,1.03,2.59,2.26,2.81,3.69c0.13,0.8,0.06,1.46-0.17,2.01c0.54-0.43,1.15-0.87,1.84-1.31c0.78-0.51,1.64-1,2.56-1.49
					c1.34-0.71,2.79-1.4,4.27-2.01c3.11-1.31,6.31-2.31,8.76-2.66c0.04-0.01,0.07-0.01,0.11-0.01c2.47-0.32,6.11-0.1,6.35,3.08
					C89.78,59.35,67.17,72.21,60.38,72.71z"/>
			</g>
			<g>
				<path class="st1" d="M22.4,55.95c3.53-2.03,9.5-5.36,14-6.78c0.63-0.2,1.24-0.35,1.81-0.47c1.04-0.2,2.55-0.31,4.33-0.3
					c1.28,0,2.69,0.07,4.18,0.19c0.87,0.08,1.76,0.17,2.66,0.28c1.39,0.18,2.78,0.4,4.16,0.68c0.92,0.19,1.82,0.39,2.7,0.63
					c1.43,0.39,2.8,0.84,4.02,1.37c0.98,0.41,1.86,0.87,2.63,1.38v0.01c1.55,1.03,2.59,2.26,2.81,3.69c0.13,0.8,0.06,1.46-0.17,2.01
					c-1.91,4.52-14.91,0.68-17.56-0.01"/>
				<path class="st1" d="M32.06,71.56c14.34-5.59,16.69,2.02,28.32,1.15c6.79-0.5,29.4-13.36,29.02-18.47
					c-0.23-3.17-3.88-3.4-6.35-3.08c-0.04,0-0.07,0-0.11,0.01c-2.45,0.34-5.65,1.35-8.76,2.66c-1.47,0.61-2.93,1.3-4.27,2.01
					c-0.92,0.49-1.78,0.98-2.56,1.49c-0.68,0.44-1.3,0.88-1.84,1.31"/>
				<polygon class="st1" points="32.06,71.56 32.58,75.55 13.92,83.93 11.6,59.29 22.4,55.95 				"/>
				<path class="st1" d="M23.54,70.29c1.04-0.12,1.96,0.62,2.08,1.66c0.12,1.03-0.61,1.96-1.66,2.08c-1.04,0.12-1.96-0.63-2.08-1.66
					C21.76,71.33,22.5,70.4,23.54,70.29z"/>
				<polyline class="st1" points="69.92,55.84 69.92,26.99 74.12,26.99 74.12,53.66 				"/>
				<polyline class="st1" points="63.08,52.66 63.08,30.74 67.26,30.74 67.26,57.17 				"/>
				<polyline class="st1" points="56.24,50.21 56.24,50.18 56.24,34.36 60.42,34.36 60.42,51.18 				"/>
				<polyline class="st1" points="49.39,48.81 49.39,39.43 53.57,39.43 53.57,49.43 				"/>
				<polyline class="st1" points="42.55,48.47 42.55,48.4 42.55,44.73 46.74,44.73 46.74,48.53 				"/>
				<path class="st1" d="M36.43,49.25c-0.01-0.02-0.02-0.05-0.02-0.07c-0.76-2.31-1.1-4.79-1.1-7.33c0-13.69,11.1-24.77,24.78-24.77
					c13.68,0,24.77,11.08,24.77,24.77c0,3.3-0.65,6.44-1.81,9.31c0,0.01-0.01,0.01-0.01,0.02"/>
			</g>
		</g>
	</g>
</g>
</svg>
