<?xml version="1.0" encoding="utf-8"?>
<!-- Generator: Adobe Illustrator 24.1.2, SVG Export Plug-In . SVG Version: 6.00 Build 0)  -->
<svg version="1.1" id="Layer_1" xmlns="http://www.w3.org/2000/svg" xmlns:xlink="http://www.w3.org/1999/xlink" x="0px" y="0px"
	 viewBox="0 0 100 100" style="enable-background:new 0 0 100 100;" xml:space="preserve">
<style type="text/css">
	.st0{fill:none;stroke:#000000;stroke-width:1.3;stroke-linecap:round;stroke-linejoin:round;stroke-miterlimit:2.6131;}
	.st1{fill:#FFFFFF;stroke:#000000;stroke-width:1.3;stroke-linecap:round;stroke-linejoin:round;stroke-miterlimit:10;}
	.st2{fill:none;}
	.st3{fill:none;stroke:#000000;stroke-width:1.3;stroke-linecap:round;stroke-linejoin:round;stroke-miterlimit:10;}
</style>
<g>
	<g>
		<g id="XMLID_333_">
			<g>
				<path class="st0" d="M22.4,55.95c3.53-2.03,9.5-5.36,14-6.78c0.63-0.2,1.24-0.35,1.81-0.47c1.04-0.2,2.55-0.31,4.33-0.3
					c1.28,0,2.69,0.07,4.18,0.19c0.87,0.08,1.76,0.17,2.66,0.28c1.39,0.18,2.78,0.4,4.16,0.68c0.92,0.19,1.82,0.39,2.7,0.63
					c1.43,0.39,2.8,0.84,4.02,1.37c0.98,0.41,1.86,0.87,2.63,1.38v0.01c1.55,1.03,2.59,2.26,2.81,3.69c0.13,0.8,0.06,1.46-0.17,2.01
					c-1.91,4.52-14.91,0.68-17.56-0.01"/>
				<path class="st0" d="M32.06,71.56c14.34-5.59,16.69,2.02,28.32,1.15c6.79-0.5,29.4-13.36,29.02-18.47
					c-0.23-3.17-3.88-3.4-6.35-3.08c-0.04,0-0.07,0-0.11,0.01c-2.45,0.34-5.65,1.35-8.76,2.66c-1.47,0.61-2.93,1.3-4.27,2.01
					c-0.92,0.49-1.78,0.98-2.56,1.49c-0.68,0.44-1.3,0.88-1.84,1.31"/>
				<polygon class="st0" points="32.06,71.56 32.58,75.55 13.92,83.93 11.6,59.29 22.4,55.95 				"/>
				<path class="st0" d="M23.54,70.29c1.04-0.12,1.96,0.62,2.08,1.66c0.12,1.03-0.61,1.96-1.66,2.08c-1.04,0.12-1.96-0.63-2.08-1.66
					C21.76,71.33,22.5,70.4,23.54,70.29z"/>
			</g>
		</g>
	</g>
</g>
<g>
	<g>
		<g id="XMLID_331_">
			<g>
				<path class="st1" d="M62.66,32.37v-1.93c0.3,0.09,0.52,0.2,0.64,0.37c0.13,0.16,0.2,0.35,0.2,0.57c0,0.25-0.08,0.46-0.23,0.63
					C63.11,32.19,62.91,32.31,62.66,32.37z"/>
				<path class="st1" d="M61.95,27.12v1.71c-0.22-0.09-0.37-0.2-0.47-0.36c-0.11-0.15-0.16-0.31-0.16-0.48
					c0-0.2,0.06-0.37,0.17-0.53C61.6,27.3,61.75,27.18,61.95,27.12z"/>
				<path class="st2" d="M62.66,30.43v1.93c0.25-0.06,0.45-0.18,0.6-0.36c0.16-0.18,0.23-0.38,0.23-0.63c0-0.21-0.07-0.41-0.2-0.57
					C63.17,30.64,62.96,30.52,62.66,30.43z M61.49,27.46c-0.11,0.16-0.17,0.33-0.17,0.53c0,0.17,0.05,0.33,0.16,0.48
					c0.1,0.16,0.25,0.27,0.47,0.36v-1.71C61.75,27.18,61.6,27.3,61.49,27.46z M61.16,31.2c0.06,0.26,0.16,0.49,0.3,0.67
					c0.15,0.2,0.3,0.33,0.48,0.42v-2.06c-0.63-0.18-1.11-0.46-1.41-0.84c-0.29-0.37-0.46-0.82-0.46-1.36s0.18-0.99,0.52-1.35
					c0.34-0.37,0.79-0.58,1.35-0.63v-0.49h0.71v0.49c0.53,0.06,0.95,0.24,1.26,0.54c0.31,0.28,0.5,0.68,0.58,1.18l-1.25,0.16
					c-0.08-0.39-0.27-0.64-0.59-0.78v1.92c0.8,0.2,1.34,0.48,1.62,0.82c0.28,0.34,0.43,0.78,0.43,1.31c0,0.59-0.18,1.09-0.54,1.5
					c-0.37,0.4-0.86,0.65-1.51,0.76v0.92h-0.71v-0.91c-0.57-0.08-1.03-0.28-1.39-0.63c-0.35-0.35-0.58-0.85-0.67-1.49L61.16,31.2z"
					/>
				<path class="st3" d="M61.46,31.87c-0.14-0.19-0.24-0.41-0.3-0.67l-1.28,0.15c0.1,0.64,0.32,1.14,0.67,1.49
					c0.36,0.35,0.82,0.56,1.39,0.63v0.91h0.71v-0.92c0.65-0.11,1.14-0.36,1.51-0.76c0.36-0.41,0.54-0.92,0.54-1.5
					c0-0.53-0.15-0.97-0.43-1.31c-0.28-0.34-0.82-0.62-1.62-0.82v-1.92c0.32,0.14,0.52,0.39,0.59,0.78l1.25-0.16
					c-0.09-0.5-0.27-0.9-0.58-1.18c-0.31-0.29-0.73-0.48-1.26-0.54v-0.49h-0.71v0.49c-0.56,0.05-1.01,0.26-1.35,0.63
					c-0.34,0.36-0.52,0.81-0.52,1.35s0.17,0.99,0.46,1.36c0.29,0.38,0.77,0.66,1.41,0.84v2.06C61.77,32.2,61.61,32.06,61.46,31.87z
					 M62.3,23.36c3.65,0,6.62,2.96,6.62,6.61c0,3.66-2.97,6.62-6.62,6.62c-3.65,0-6.61-2.96-6.61-6.62
					C55.69,26.31,58.64,23.36,62.3,23.36z"/>
			</g>
			<g>
				<line class="st3" x1="42.52" y1="35.32" x2="42.52" y2="24.6"/>
				<line class="st3" x1="76.3" y1="41.1" x2="48.3" y2="41.1"/>
				<line class="st3" x1="82.07" y1="24.6" x2="82.07" y2="35.32"/>
				<line class="st3" x1="48.3" y1="18.83" x2="76.3" y2="18.83"/>
				<path class="st3" d="M76.3,18.83h5.78v5.78C78.89,24.6,76.3,22.02,76.3,18.83z"/>
				<path class="st3" d="M48.3,18.83h-5.78v5.78C45.71,24.6,48.3,22.02,48.3,18.83z"/>
				<path class="st3" d="M48.3,41.1H42.6h-0.09v-5.78C45.71,35.32,48.3,37.92,48.3,41.1z"/>
				<path class="st3" d="M76.3,41.1h5.78v-5.78C78.89,35.32,76.3,37.92,76.3,41.1z"/>
				<path class="st3" d="M62.3,23.36c3.65,0,6.62,2.96,6.62,6.61c0,3.66-2.97,6.62-6.62,6.62c-3.65,0-6.61-2.96-6.61-6.62
					C55.69,26.31,58.64,23.36,62.3,23.36z"/>
			</g>
		</g>
	</g>
</g>
</svg>
