<?xml version="1.0" encoding="utf-8"?>
<!-- Generator: Adobe Illustrator 24.1.2, SVG Export Plug-In . SVG Version: 6.00 Build 0)  -->
<svg version="1.1" id="Layer_1" xmlns="http://www.w3.org/2000/svg" xmlns:xlink="http://www.w3.org/1999/xlink" x="0px" y="0px"
	 viewBox="0 0 100 100" style="enable-background:new 0 0 100 100;" xml:space="preserve">
<style type="text/css">
	.st0{fill:#272525;stroke:#FFFFFF;stroke-miterlimit:10;}
</style>
<g id="XMLID_34804_">
	<path id="XMLID_34805_" class="st0" d="M73.51,12.56l-8.73,8.7c-0.38-0.05-0.75-0.09-1.13-0.12c-2.69-1.09-7.47-1.85-13.08,2.46
		l-0.13,0.12l-1.84,1.85c-6.93-4.7-12.43-1.8-13.97-0.78l-8.3-8.31L4.79,38.45l9.43,9.43c0.06,3.7,1.38,7.49,3.93,11.31
		c1.05,1.58,2.28,3.03,3.61,4.38c1.7,1.72,3.42,3.42,5.13,5.14c-1.86,2.7-1.06,4.94,0.88,6.96c2.01,2.09,3.86,2.34,6.58,1.55
		c0.02-0.01,0.05,0,0.07,0.02c1.95,2.92,3.75,4.34,5.7,4.5c0.81,0.78,1.6,1.58,2.41,2.36c2.4,2.32,6.06,2.84,8.96,1.18
		c1.25-0.71,1.46-1.31,2.1-2.32c4.9,4.11,8.16,4.19,12.01-1.58c0.01-0.02,0.04-0.03,0.07-0.02c2.72,0.79,4.57,0.54,6.58-1.55
		c2.05-2.13,2.82-4.5,0.54-7.42c-0.02-0.02-0.61-0.79-0.58-0.79c1.63,0.05,2.92-0.98,3.63-1.91c1.89-2.45,1.78-5.02-0.25-7.55
		c0.89-0.89,1.79-1.78,2.67-2.67c1.33-1.35,2.56-2.8,3.61-4.38c2.55-3.83,3.87-7.62,3.93-11.31l9.45-9.48L73.51,12.56z M23.08,60.42
		c-2.5-2.64-4.38-5.56-5.2-8.87c-0.18-0.74-0.31-1.49-0.39-2.27c-0.06-0.64-0.08-1.29-0.06-1.95l-8.36-8.36l17.98-17.98l5.77,5.76
		l0.38,0.38l-0.02,0.06l2.78,0.23l0.18-0.45c1.1-0.75,5.66-3.28,11.74,1.36l8.05,8.09c0.4,0.41,0.63,0.95,0.62,1.53
		c0,0.58-0.23,1.12-0.63,1.52L55.39,40c-0.84,0.84-2.21,0.84-3.05-0.01l-8.24-8.28l-2,1.4l2.23,2.61l0.96,0.97
		c-0.95,0.95-1.89,1.89-2.84,2.84c-0.24,0.23-0.37,0.49-0.43,0.75c-0.05,0.05-0.09,0.1-0.14,0.15
		c-5.54,5.54-11.09,11.07-16.61,16.63C24.16,58.18,23.44,59.3,23.08,60.42z M49.78,82.86c-0.64,0.6-1.29,0.98-2.25,0.9
		c-1.32-0.1-2.23-1.11-2.86-1.73c-0.39-0.38-0.77-0.77-1.16-1.16c0.91-0.49,1.88-1.17,2.92-2.04c0.64,1.02,0.85,1.61,2.1,2.33
		c0.56,0.32,1.15,0.56,1.76,0.72C50.18,82.27,50.01,82.63,49.78,82.86z M61.65,81.74c-1.23,1.45-2.65,1.58-4.45-0.1
		c-0.28-0.26-0.56-0.52-0.83-0.78c0.39-0.26,0.77-0.55,1.12-0.89c1.04-1,2.05-2.01,3.09-3.01c0.11,0.11,0.22,0.22,0.33,0.33
		C62.59,78.99,62.82,80.37,61.65,81.74z M70.25,77.24c-1.25,1.7-3.16,1.74-4.86,0.04c-0.85-0.85-1.7-1.7-2.54-2.54
		c1.4-1.37,2.81-2.73,4.2-4.1c0.79,0.79,1.58,1.58,2.36,2.36C70.93,74.53,71.19,75.97,70.25,77.24z M73.74,67.16
		c-0.64,1.59-2.52,2.34-4.02,1.51c-0.15-0.08-0.29-0.17-0.43-0.27c1.35-1.34,2.68-2.68,4.03-4.03C73.9,65.15,74.2,66,73.74,67.16z
		 M82.57,43.21c0.02,0.66,0,1.31-0.06,1.95c-0.07,0.78-0.2,1.53-0.39,2.27c-0.82,3.32-2.71,6.26-5.23,8.91
		c-3.42,3.59-7,7.03-10.5,10.54c-3.68,3.68-7.34,7.38-11.05,11.03c-0.64,0.63-1.55,1.63-2.86,1.73c-0.95,0.08-1.61-0.29-2.25-0.9
		c-0.57-0.54-0.76-1.91-0.54-2.76c0.24-0.92,1.06-1.76,1.77-2.49c1.68-1.72,3.39-3.4,5.08-5.1c0.83-0.83,1.65-1.66,2.46-2.5
		c0.86-0.89,3.39-2.78,1.98-4.11c-1.3-1.22-3.17,1.13-3.95,1.92c-0.82,0.83-1.65,1.66-2.49,2.47c-3.89,3.8-7.74,7.66-11.73,11.36
		c-1.81,1.67-3.22,1.55-4.45,0.1c-1.17-1.37-0.95-2.75,0.75-4.45c4.41-4.42,8.83-8.83,13.25-13.25c0.62-0.62,1.16-1.03,1.27-1.97
		c0.09-0.7-0.17-1.32-0.89-1.43c-1.22-0.18-1.74,0.28-2.52,1.06c-5.2,5.2-10.39,10.4-15.59,15.58c-1.71,1.7-3.62,1.67-4.86-0.04
		c-0.93-1.27-0.67-2.72,0.84-4.24c5.27-5.29,10.55-10.58,15.85-15.85c0.86-0.86,1.54-1.82,0.48-2.81c-1.01-0.95-1.88-0.11-2.66,0.67
		c-4.06,4.08-8.13,8.15-12.21,12.21c-0.54,0.54-1.11,1.09-1.77,1.46c-1.5,0.82-3.38,0.07-4.02-1.51c-0.65-1.62,0.18-2.66,1.22-3.69
		c6.75-6.73,13.51-13.46,20.2-20.25l2.77,2.78c0.94,0.95,2.18,1.42,3.42,1.42c1.23,0,2.47-0.47,3.41-1.4l0.53-0.53
		c0.91-0.91,1.42-2.12,1.42-3.41c0-1.21-0.45-2.35-1.25-3.24l-6.14-6.2l0,0l-1.2-1.21l1.64-1.65c2.54-1.93,4.8-2.61,6.66-2.7
		c3.41-0.31,6.43,1.48,6.43,1.48l1.82-1.82l5.76-5.76l17.98,17.98L82.57,43.21z"/>
</g>
</svg>
