<?xml version="1.0" encoding="utf-8"?>
<!-- Generator: Adobe Illustrator 24.1.2, SVG Export Plug-In . SVG Version: 6.00 Build 0)  -->
<svg version="1.1" id="Layer_1" xmlns="http://www.w3.org/2000/svg" xmlns:xlink="http://www.w3.org/1999/xlink" x="0px" y="0px"
	 viewBox="0 0 100 100" style="enable-background:new 0 0 100 100;" xml:space="preserve">
<g>
	<g>
		<g>
			<path d="M83.71,66.58H17.29c-0.36,0-0.65-0.29-0.65-0.65v-38.9c0-0.36,0.29-0.65,0.65-0.65h66.43c0.36,0,0.65,0.29,0.65,0.65
				v38.9C84.36,66.29,84.07,66.58,83.71,66.58z M17.94,65.28h65.13v-37.6H17.94V65.28z"/>
		</g>
		<g>
			<path d="M89.4,27.68H11.6c-0.36,0-0.65-0.29-0.65-0.65v-5.6c0-0.36,0.29-0.65,0.65-0.65H89.4c0.36,0,0.65,0.29,0.65,0.65v5.6
				C90.05,27.39,89.76,27.68,89.4,27.68z M12.25,26.38h76.51v-4.3H12.25V26.38z"/>
		</g>
		<g>
			<path d="M65.25,86.65c-0.17,0-0.33-0.06-0.46-0.19L54.17,75.84h-7.02L36.52,86.46c-0.25,0.25-0.66,0.25-0.92,0l-2.08-2.07
				c-0.12-0.12-0.19-0.29-0.19-0.46c0-0.17,0.07-0.34,0.19-0.46l10.36-10.36v-7.18c0-0.36,0.29-0.65,0.65-0.65h11.93
				c0.36,0,0.65,0.29,0.65,0.65v6.87l10.67,10.67c0.12,0.12,0.19,0.29,0.19,0.46c0,0.17-0.07,0.34-0.19,0.46l-2.07,2.07
				C65.58,86.58,65.42,86.65,65.25,86.65z M34.9,83.92l1.16,1.15l10.36-10.35c0.12-0.12,0.29-0.19,0.46-0.19h7.56
				c0.17,0,0.34,0.07,0.46,0.19l10.35,10.34l1.15-1.15L56,73.53c-0.12-0.12-0.19-0.29-0.19-0.46v-6.49H45.18v6.8
				c0,0.17-0.07,0.34-0.19,0.46L34.9,83.92z"/>
		</g>
		<g>
			<path d="M68.1,60.6h-4.67c-0.36,0-0.65-0.29-0.65-0.65V36.26c0-0.36,0.29-0.65,0.65-0.65h4.67c0.36,0,0.65,0.29,0.65,0.65v23.69
				C68.75,60.31,68.46,60.6,68.1,60.6z M64.08,59.3h3.37V36.92h-3.37V59.3z"/>
		</g>
		<g>
			<path d="M60.47,60.6H55.8c-0.36,0-0.65-0.29-0.65-0.65V39.21c0-0.36,0.29-0.65,0.65-0.65h4.66c0.36,0,0.65,0.29,0.65,0.65v20.75
				C61.12,60.31,60.83,60.6,60.47,60.6z M56.45,59.3h3.36V39.86h-3.36V59.3z"/>
		</g>
		<g>
			<path d="M52.83,60.6h-4.66c-0.36,0-0.65-0.29-0.65-0.65v-17.9c0-0.36,0.29-0.65,0.65-0.65h4.66c0.36,0,0.65,0.29,0.65,0.65v17.9
				C53.48,60.31,53.19,60.6,52.83,60.6z M48.82,59.3h3.36V42.71h-3.36V59.3z"/>
		</g>
		<g>
			<path d="M45.2,60.6h-4.66c-0.36,0-0.65-0.29-0.65-0.65V46.03c0-0.36,0.29-0.65,0.65-0.65h4.66c0.36,0,0.65,0.29,0.65,0.65v13.92
				C45.85,60.31,45.56,60.6,45.2,60.6z M41.18,59.3h3.36V46.68h-3.36V59.3z"/>
		</g>
		<g>
			<path d="M37.57,60.6H32.9c-0.36,0-0.65-0.29-0.65-0.65v-9.77c0-0.36,0.29-0.65,0.65-0.65h4.67c0.36,0,0.65,0.29,0.65,0.65v9.77
				C38.22,60.31,37.93,60.6,37.57,60.6z M33.55,59.3h3.37v-8.47h-3.37V59.3z"/>
		</g>
		<g>
			<path d="M71.27,63.5H29.72c-0.36,0-0.65-0.29-0.65-0.65c0-0.36,0.29-0.65,0.65-0.65h41.55c0.36,0,0.65,0.29,0.65,0.65
				C71.92,63.21,71.63,63.5,71.27,63.5z"/>
		</g>
		<g>
			<path d="M32.91,46.7c-0.27,0-0.52-0.16-0.61-0.43c-0.12-0.34,0.05-0.71,0.39-0.83c0.17-0.06,17.55-6.39,25.17-15.26
				c0.23-0.27,0.64-0.3,0.92-0.07c0.27,0.23,0.3,0.64,0.07,0.92C51,40.16,33.86,46.4,33.13,46.66C33.06,46.69,32.98,46.7,32.91,46.7
				z"/>
		</g>
		<g>
			<path d="M58.27,35.23c-0.36,0-0.65-0.29-0.65-0.65v-3.22l-3.02,0.02c0,0,0,0,0,0c-0.36,0-0.65-0.29-0.65-0.65
				c0-0.36,0.29-0.65,0.65-0.65l3.67-0.02c0,0,0,0,0,0c0.17,0,0.34,0.07,0.46,0.19c0.12,0.12,0.19,0.29,0.19,0.46v3.87
				C58.92,34.94,58.63,35.23,58.27,35.23z"/>
		</g>
		<g>
			<path d="M53.03,22.08h-5.06c-0.36,0-0.65-0.29-0.65-0.65v-3.96c0-1.75,1.43-3.18,3.18-3.18c1.75,0,3.18,1.43,3.18,3.18v3.96
				C53.68,21.79,53.38,22.08,53.03,22.08z M48.62,20.78h3.76v-3.31c0-1.04-0.84-1.88-1.88-1.88c-1.04,0-1.88,0.84-1.88,1.88V20.78z"
				/>
		</g>
	</g>
</g>
</svg>
