<?xml version="1.0" encoding="utf-8"?>
<!-- Generator: Adobe Illustrator 24.1.2, SVG Export Plug-In . SVG Version: 6.00 Build 0)  -->
<svg version="1.1" id="Layer_1" xmlns="http://www.w3.org/2000/svg" xmlns:xlink="http://www.w3.org/1999/xlink" x="0px" y="0px"
	 viewBox="0 0 100 100" style="enable-background:new 0 0 100 100;" xml:space="preserve">
<g>
	<g>
		<g>
			<path d="M66.93,47.88H34.07c-0.36,0-0.65-0.29-0.65-0.65V35.14c0-0.27,0.16-0.51,0.41-0.6l11.29-4.44
				c0.24-0.09,0.5-0.04,0.69,0.14l4.52,4.34l4.87-4.36c0.18-0.16,0.44-0.21,0.67-0.12l11.3,4.44c0.25,0.1,0.41,0.34,0.41,0.6v12.08
				C67.58,47.58,67.29,47.88,66.93,47.88z M34.72,46.58h31.56V35.58l-10.51-4.13l-5.02,4.49c-0.25,0.23-0.64,0.22-0.88-0.02
				l-4.65-4.47l-10.49,4.12V46.58z"/>
		</g>
		<g>
			<path d="M61.39,47.85H39.61c-0.36,0-0.65-0.29-0.65-0.65v-7.58c0-0.36,0.29-0.65,0.65-0.65c0.36,0,0.65,0.29,0.65,0.65v6.93
				h20.49v-6.93c0-0.36,0.29-0.65,0.65-0.65c0.36,0,0.65,0.29,0.65,0.65v7.58C62.04,47.56,61.75,47.85,61.39,47.85z"/>
		</g>
		<g>
			<path d="M55.93,37.15H45.06c-0.36,0-0.65-0.29-0.65-0.65v-5.8c0-0.36,0.29-0.65,0.65-0.65c0.36,0,0.65,0.29,0.65,0.65v5.15h9.57
				v-5.15c0-0.36,0.29-0.65,0.65-0.65c0.36,0,0.65,0.29,0.65,0.65v5.8C56.58,36.86,56.29,37.15,55.93,37.15z"/>
		</g>
		<g>
			<path d="M52.13,40.94h-3.27c-0.36,0-0.65-0.29-0.65-0.65V36.5c0-0.36,0.29-0.65,0.65-0.65h3.27c0.36,0,0.65,0.29,0.65,0.65v3.78
				C52.78,40.65,52.49,40.94,52.13,40.94z M49.52,39.64h1.97v-2.48h-1.97V39.64z"/>
		</g>
		<g>
			<path d="M53.47,47.88h-6.28c-0.2,0-0.39-0.09-0.51-0.25c-0.12-0.16-0.17-0.36-0.12-0.55l1.68-6.94c0.07-0.29,0.33-0.5,0.63-0.5
				h3.27c0.31,0,0.58,0.22,0.64,0.53l1.33,6.94c0.04,0.19-0.01,0.39-0.14,0.54C53.84,47.79,53.66,47.88,53.47,47.88z M48.02,46.58
				h4.66l-1.08-5.64h-2.22L48.02,46.58z"/>
		</g>
		<g>
			<path d="M50.64,28.53c-4.85,0-8.79-3.94-8.79-8.79c0-4.85,3.95-8.79,8.79-8.79c4.85,0,8.8,3.94,8.8,8.79
				C59.45,24.59,55.5,28.53,50.64,28.53z M50.64,12.25c-4.13,0-7.49,3.36-7.49,7.49c0,4.13,3.36,7.49,7.49,7.49
				c4.14,0,7.5-3.36,7.5-7.49C58.15,15.61,54.78,12.25,50.64,12.25z"/>
		</g>
		<g>
			<path d="M56.82,18.52c-2.19,0-4.23-0.64-5.74-1.81c-0.28-0.22-0.34-0.63-0.12-0.91c0.22-0.28,0.63-0.34,0.91-0.12
				c1.63,1.26,4.2,1.81,6.55,1.4c0.36-0.06,0.69,0.18,0.75,0.53c0.06,0.35-0.18,0.69-0.53,0.75C58.05,18.47,57.44,18.52,56.82,18.52
				z"/>
		</g>
		<g>
			<path d="M46.35,18.37c-1.3,0-2.53-0.22-3.65-0.65c-0.33-0.13-0.5-0.51-0.37-0.84c0.13-0.34,0.5-0.5,0.84-0.37
				c0.97,0.38,2.04,0.57,3.18,0.57c3.65,0,6.62-2.04,6.62-4.55c0-0.36,0.29-0.65,0.65-0.65c0.36,0,0.65,0.29,0.65,0.65
				C54.27,15.74,50.72,18.37,46.35,18.37z"/>
		</g>
		<g>
			<g>
				<path d="M81.65,90.05c-0.36,0-0.65-0.29-0.65-0.65v-3.04c0-2.37-1.93-4.3-4.31-4.3h-7.16c-2.38,0-4.31,1.93-4.31,4.3v3.04
					c0,0.36-0.29,0.65-0.65,0.65c-0.36,0-0.65-0.29-0.65-0.65v-3.04c0-3.09,2.52-5.6,5.61-5.6h7.16c3.09,0,5.61,2.51,5.61,5.6v3.04
					C82.3,89.76,82,90.05,81.65,90.05z M58.17,90.05c-0.36,0-0.65-0.29-0.65-0.65v-3.04c0-2.37-1.93-4.3-4.31-4.3h-7.16
					c-2.38,0-4.31,1.93-4.31,4.3v3.04c0,0.36-0.29,0.65-0.65,0.65c-0.36,0-0.65-0.29-0.65-0.65v-3.04c0-3.09,2.52-5.6,5.61-5.6h7.16
					c3.09,0,5.61,2.51,5.61,5.6v3.04C58.82,89.76,58.53,90.05,58.17,90.05z M36.43,90.05c-0.36,0-0.65-0.29-0.65-0.65v-3.04
					c0-2.37-1.93-4.3-4.31-4.3h-7.16c-2.38,0-4.31,1.93-4.31,4.3v3.04c0,0.36-0.29,0.65-0.65,0.65c-0.36,0-0.65-0.29-0.65-0.65
					v-3.04c0-3.09,2.52-5.6,5.61-5.6h7.16c3.09,0,5.61,2.51,5.61,5.6v3.04C37.08,89.76,36.79,90.05,36.43,90.05z M72.98,79.88
					c-2.93,0-5.31-2.38-5.31-5.31c0-2.92,2.38-5.29,5.31-5.29c2.92,0,5.3,2.38,5.3,5.29C78.28,77.5,75.9,79.88,72.98,79.88z
					 M68.99,74.91c0.17,2.05,1.9,3.67,3.99,3.67c2.21,0,4-1.8,4-4.01c0-0.15-0.01-0.3-0.02-0.45c-1.13,0.1-2.31-0.18-3.27-0.78
					C72.49,74.6,70.69,75.2,68.99,74.91z M69.09,73.61c0.25,0.05,0.5,0.07,0.76,0.07c1.27,0,2.44-0.59,3.21-1.61
					c0.11-0.14,0.27-0.23,0.44-0.25c0.17-0.02,0.35,0.03,0.49,0.14c0.72,0.59,1.68,0.89,2.6,0.88c-0.65-1.34-2.02-2.26-3.61-2.26
					C71.1,70.58,69.53,71.87,69.09,73.61z M49.5,79.88c-2.93,0-5.31-2.38-5.31-5.31c0-2.92,2.38-5.29,5.31-5.29
					c2.93,0,5.31,2.38,5.31,5.29C54.81,77.5,52.43,79.88,49.5,79.88z M45.51,74.91c0.17,2.05,1.9,3.67,3.99,3.67
					c2.21,0,4.01-1.8,4.01-4.01c0-0.15-0.01-0.3-0.02-0.45c-1.11,0.09-2.31-0.18-3.27-0.78C49.02,74.59,47.18,75.19,45.51,74.91z
					 M45.61,73.61c0.25,0.05,0.5,0.07,0.77,0.07c1.25,0,2.45-0.6,3.2-1.6c0.11-0.14,0.26-0.23,0.44-0.26
					c0.18-0.02,0.35,0.03,0.49,0.14c0.72,0.59,1.68,0.9,2.6,0.88c-0.65-1.34-2.02-2.26-3.61-2.26
					C47.63,70.58,46.05,71.87,45.61,73.61z M27.77,79.88c-2.93,0-5.31-2.38-5.31-5.31c0-2.92,2.38-5.29,5.31-5.29
					c2.93,0,5.31,2.38,5.31,5.29C33.07,77.5,30.69,79.88,27.77,79.88z M23.77,74.91c0.17,2.05,1.9,3.67,3.99,3.67
					c2.21,0,4.01-1.8,4.01-4.01c0-0.15-0.01-0.3-0.03-0.45c-1.11,0.1-2.3-0.17-3.27-0.78c-0.99,1.05-2.36,1.64-3.83,1.64
					C24.35,74.98,24.06,74.96,23.77,74.91z M23.88,73.61c0.25,0.05,0.5,0.07,0.77,0.07c1.27,0,2.44-0.58,3.2-1.6
					c0.11-0.14,0.26-0.23,0.44-0.26c0.18-0.02,0.35,0.03,0.49,0.14c0.74,0.6,1.67,0.9,2.6,0.88c-0.65-1.34-2.02-2.26-3.61-2.26
					C25.89,70.58,24.31,71.87,23.88,73.61z"/>
			</g>
		</g>
		<g>
			<path d="M73.27,68.03c-0.36,0-0.65-0.29-0.65-0.65v-8.94l-44.23-0.49v9.22c0,0.36-0.29,0.65-0.65,0.65
				c-0.36,0-0.65-0.29-0.65-0.65V57.3c0-0.17,0.07-0.34,0.19-0.46c0.12-0.12,0.3-0.17,0.46-0.19l45.53,0.51
				c0.36,0,0.64,0.29,0.64,0.65v9.58C73.92,67.74,73.63,68.03,73.27,68.03z"/>
		</g>
		<g>
			<path d="M50.33,62.98c-0.36,0-0.65-0.29-0.65-0.65V47.23c0-0.36,0.29-0.65,0.65-0.65c0.36,0,0.65,0.29,0.65,0.65v15.11
				C50.98,62.69,50.69,62.98,50.33,62.98z"/>
		</g>
	</g>
</g>
</svg>
