<?xml version="1.0" encoding="utf-8"?>
<!-- Generator: Adobe Illustrator 24.1.2, SVG Export Plug-In . SVG Version: 6.00 Build 0)  -->
<svg version="1.1" xmlns="http://www.w3.org/2000/svg" xmlns:xlink="http://www.w3.org/1999/xlink" x="0px" y="0px"
	 viewBox="0 0 100 100" style="enable-background:new 0 0 100 100;" xml:space="preserve">
<g id="Layer_1">
</g>
<g id="Layer_2">
	<g>
		<g>
			<g>
				<path d="M89.4,83.75H11.59c-0.36,0-0.65-0.29-0.65-0.65V24.54c0-0.36,0.29-0.65,0.65-0.65H89.4c0.36,0,0.65,0.29,0.65,0.65V83.1
					C90.05,83.45,89.76,83.75,89.4,83.75z M12.24,82.44h76.51V25.19H12.24V82.44z"/>
			</g>
			<g>
				<path d="M82.41,30.45c-0.36,0-0.65-0.29-0.65-0.65s0.29-0.65,0.65-0.65c1.77,0,3.22-1.45,3.22-3.22v-4.15
					c0-1.78-1.44-3.22-3.22-3.22c-1.77,0-3.22,1.45-3.22,3.22v2.32c0,0.36-0.29,0.65-0.65,0.65c-0.36,0-0.65-0.29-0.65-0.65v-2.32
					c0-2.49,2.03-4.52,4.52-4.52c2.49,0,4.52,2.03,4.52,4.52v4.15C86.93,28.42,84.91,30.45,82.41,30.45z M71.78,30.45
					c-0.36,0-0.65-0.29-0.65-0.65s0.29-0.65,0.65-0.65c1.77,0,3.21-1.45,3.21-3.22v-4.15c0-1.78-1.44-3.22-3.21-3.22
					c-1.78,0-3.22,1.45-3.22,3.22v2.32c0,0.36-0.29,0.65-0.65,0.65c-0.36,0-0.65-0.29-0.65-0.65v-2.32c0-2.49,2.02-4.52,4.51-4.52
					c2.49,0,4.52,2.03,4.52,4.52v4.15C76.29,28.42,74.27,30.45,71.78,30.45z M61.14,30.45c-0.36,0-0.65-0.29-0.65-0.65
					s0.29-0.65,0.65-0.65c1.77,0,3.21-1.45,3.21-3.22v-4.15c0-1.78-1.44-3.22-3.21-3.22c-1.77,0-3.22,1.45-3.22,3.22v2.32
					c0,0.36-0.29,0.65-0.65,0.65c-0.36,0-0.65-0.29-0.65-0.65v-2.32c0-2.49,2.03-4.52,4.52-4.52c2.49,0,4.51,2.03,4.51,4.52v4.15
					C65.65,28.42,63.63,30.45,61.14,30.45z M50.5,30.45c-0.36,0-0.65-0.29-0.65-0.65s0.29-0.65,0.65-0.65
					c1.77,0,3.22-1.45,3.22-3.22v-4.15c0-1.78-1.44-3.22-3.22-3.22c-1.77,0-3.22,1.45-3.22,3.22v2.32c0,0.36-0.29,0.65-0.65,0.65
					c-0.36,0-0.65-0.29-0.65-0.65v-2.32c0-2.49,2.03-4.52,4.52-4.52c2.49,0,4.52,2.03,4.52,4.52v4.15
					C55.02,28.42,52.99,30.45,50.5,30.45z M39.87,30.45c-0.36,0-0.65-0.29-0.65-0.65s0.29-0.65,0.65-0.65
					c1.77,0,3.21-1.45,3.21-3.22v-4.15c0-1.78-1.44-3.22-3.21-3.22c-1.78,0-3.22,1.45-3.22,3.22v2.32c0,0.36-0.29,0.65-0.65,0.65
					c-0.36,0-0.65-0.29-0.65-0.65v-2.32c0-2.49,2.02-4.52,4.51-4.52c2.49,0,4.52,2.03,4.52,4.52v4.15
					C44.38,28.42,42.35,30.45,39.87,30.45z M29.22,30.45c-0.36,0-0.65-0.29-0.65-0.65s0.29-0.65,0.65-0.65
					c1.77,0,3.21-1.45,3.21-3.22v-4.15c0-1.78-1.44-3.22-3.21-3.22c-1.77,0-3.22,1.45-3.22,3.22v2.32c0,0.36-0.29,0.65-0.65,0.65
					c-0.36,0-0.65-0.29-0.65-0.65v-2.32c0-2.49,2.03-4.52,4.52-4.52c2.49,0,4.51,2.03,4.51,4.52v4.15
					C33.74,28.42,31.71,30.45,29.22,30.45z M18.59,30.45c-0.36,0-0.65-0.29-0.65-0.65s0.29-0.65,0.65-0.65
					c1.77,0,3.21-1.45,3.21-3.22v-4.15c0-1.78-1.44-3.22-3.21-3.22c-1.78,0-3.22,1.45-3.22,3.22v2.32c0,0.36-0.29,0.65-0.65,0.65
					c-0.36,0-0.65-0.29-0.65-0.65v-2.32c0-2.49,2.02-4.52,4.51-4.52c2.49,0,4.51,2.03,4.51,4.52v4.15
					C23.1,28.42,21.08,30.45,18.59,30.45z"/>
			</g>
			<g>
				<path d="M89.4,38.35H11.59c-0.36,0-0.65-0.29-0.65-0.65c0-0.36,0.29-0.65,0.65-0.65H89.4c0.36,0,0.65,0.29,0.65,0.65
					C90.05,38.06,89.76,38.35,89.4,38.35z"/>
			</g>
			<g>
				<path d="M81.41,75.73H60.24c-0.36,0-0.65-0.29-0.65-0.65V53.49c0-0.36,0.29-0.65,0.65-0.65h21.17c0.36,0,0.65,0.29,0.65,0.65
					v21.59C82.06,75.44,81.77,75.73,81.41,75.73z M60.89,74.43h19.87V54.14H60.89V74.43z"/>
			</g>
			<g>
				<path d="M70.85,70.77c-0.37,0-0.75-0.03-1.12-0.1c-1.7-0.29-3.19-1.23-4.19-2.64c-1-1.42-1.39-3.13-1.1-4.84
					c0.6-3.52,3.97-5.89,7.49-5.3c0.35,0.06,0.59,0.4,0.53,0.75c-0.06,0.35-0.39,0.59-0.75,0.53c-2.82-0.48-5.5,1.42-5.99,4.24
					c-0.23,1.36,0.08,2.74,0.88,3.87c0.8,1.13,1.99,1.88,3.35,2.11c1.36,0.24,2.74-0.07,3.87-0.87c1.13-0.8,1.89-1.99,2.12-3.36
					c0.06-0.35,0.39-0.6,0.75-0.53c0.35,0.06,0.59,0.4,0.53,0.75c-0.29,1.71-1.23,3.21-2.65,4.21
					C73.47,70.36,72.18,70.77,70.85,70.77z"/>
			</g>
			<g>
				<path d="M70.83,65.77c-0.17,0-0.34-0.07-0.47-0.2L68.2,63.3c-0.25-0.26-0.24-0.67,0.02-0.92c0.26-0.25,0.67-0.24,0.92,0.02
					l1.74,1.84l6.44-5.34c0.28-0.23,0.69-0.19,0.92,0.08c0.23,0.28,0.19,0.69-0.08,0.92l-6.91,5.73
					C71.13,65.73,70.98,65.77,70.83,65.77z"/>
			</g>
			<g>
				<path d="M24.05,49.01h-5.94c-0.36,0-0.65-0.29-0.65-0.65v-5.94c0-0.36,0.29-0.65,0.65-0.65h5.94c0.36,0,0.65,0.29,0.65,0.65
					v5.94C24.7,48.72,24.41,49.01,24.05,49.01z M18.76,47.71h4.64v-4.64h-4.64V47.71z"/>
			</g>
			<g>
				<path d="M33.77,49.01h-5.94c-0.36,0-0.65-0.29-0.65-0.65v-5.94c0-0.36,0.29-0.65,0.65-0.65h5.94c0.36,0,0.65,0.29,0.65,0.65
					v5.94C34.42,48.72,34.13,49.01,33.77,49.01z M28.48,47.71h4.64v-4.64h-4.64V47.71z"/>
			</g>
			<g>
				<path d="M43.48,49.01h-5.94c-0.36,0-0.65-0.29-0.65-0.65v-5.94c0-0.36,0.29-0.65,0.65-0.65h5.94c0.36,0,0.65,0.29,0.65,0.65
					v5.94C44.13,48.72,43.84,49.01,43.48,49.01z M38.19,47.71h4.64v-4.64h-4.64V47.71z"/>
			</g>
			<g>
				<path d="M53.2,49.01h-5.94c-0.36,0-0.65-0.29-0.65-0.65v-5.94c0-0.36,0.29-0.65,0.65-0.65h5.94c0.36,0,0.65,0.29,0.65,0.65v5.94
					C53.85,48.72,53.56,49.01,53.2,49.01z M47.91,47.71h4.64v-4.64h-4.64V47.71z"/>
			</g>
			<g>
				<path d="M24.05,59.06h-5.94c-0.36,0-0.65-0.29-0.65-0.65v-5.94c0-0.36,0.29-0.65,0.65-0.65h5.94c0.36,0,0.65,0.29,0.65,0.65
					v5.94C24.7,58.76,24.41,59.06,24.05,59.06z M18.76,57.75h4.64v-4.64h-4.64V57.75z"/>
			</g>
			<g>
				<path d="M33.77,59.06h-5.94c-0.36,0-0.65-0.29-0.65-0.65v-5.94c0-0.36,0.29-0.65,0.65-0.65h5.94c0.36,0,0.65,0.29,0.65,0.65
					v5.94C34.42,58.76,34.13,59.06,33.77,59.06z M28.48,57.75h4.64v-4.64h-4.64V57.75z"/>
			</g>
			<g>
				<path d="M43.48,59.06h-5.94c-0.36,0-0.65-0.29-0.65-0.65v-5.94c0-0.36,0.29-0.65,0.65-0.65h5.94c0.36,0,0.65,0.29,0.65,0.65
					v5.94C44.13,58.76,43.84,59.06,43.48,59.06z M38.19,57.75h4.64v-4.64h-4.64V57.75z"/>
			</g>
			<g>
				<path d="M53.2,59.06h-5.94c-0.36,0-0.65-0.29-0.65-0.65v-5.94c0-0.36,0.29-0.65,0.65-0.65h5.94c0.36,0,0.65,0.29,0.65,0.65v5.94
					C53.85,58.76,53.56,59.06,53.2,59.06z M47.91,57.75h4.64v-4.64h-4.64V57.75z"/>
			</g>
			<g>
				<path d="M24.05,69.1h-5.94c-0.36,0-0.65-0.29-0.65-0.65V62.5c0-0.36,0.29-0.65,0.65-0.65h5.94c0.36,0,0.65,0.29,0.65,0.65v5.94
					C24.7,68.81,24.41,69.1,24.05,69.1z M18.76,67.8h4.64v-4.64h-4.64V67.8z"/>
			</g>
			<g>
				<path d="M33.77,69.1h-5.94c-0.36,0-0.65-0.29-0.65-0.65V62.5c0-0.36,0.29-0.65,0.65-0.65h5.94c0.36,0,0.65,0.29,0.65,0.65v5.94
					C34.42,68.81,34.13,69.1,33.77,69.1z M28.48,67.8h4.64v-4.64h-4.64V67.8z"/>
			</g>
			<g>
				<path d="M43.48,69.1h-5.94c-0.36,0-0.65-0.29-0.65-0.65V62.5c0-0.36,0.29-0.65,0.65-0.65h5.94c0.36,0,0.65,0.29,0.65,0.65v5.94
					C44.13,68.81,43.84,69.1,43.48,69.1z M38.19,67.8h4.64v-4.64h-4.64V67.8z"/>
			</g>
			<g>
				<path d="M53.2,69.1h-5.94c-0.36,0-0.65-0.29-0.65-0.65V62.5c0-0.36,0.29-0.65,0.65-0.65h5.94c0.36,0,0.65,0.29,0.65,0.65v5.94
					C53.85,68.81,53.56,69.1,53.2,69.1z M47.91,67.8h4.64v-4.64h-4.64V67.8z"/>
			</g>
			<g>
				<path d="M24.05,79.14h-5.94c-0.36,0-0.65-0.29-0.65-0.65v-5.93c0-0.36,0.29-0.65,0.65-0.65h5.94c0.36,0,0.65,0.29,0.65,0.65
					v5.93C24.7,78.85,24.41,79.14,24.05,79.14z M18.76,77.84h4.64v-4.63h-4.64V77.84z"/>
			</g>
			<g>
				<path d="M33.77,79.14h-5.94c-0.36,0-0.65-0.29-0.65-0.65v-5.93c0-0.36,0.29-0.65,0.65-0.65h5.94c0.36,0,0.65,0.29,0.65,0.65
					v5.93C34.42,78.85,34.13,79.14,33.77,79.14z M28.48,77.84h4.64v-4.63h-4.64V77.84z"/>
			</g>
			<g>
				<path d="M43.48,79.14h-5.94c-0.36,0-0.65-0.29-0.65-0.65v-5.93c0-0.36,0.29-0.65,0.65-0.65h5.94c0.36,0,0.65,0.29,0.65,0.65
					v5.93C44.13,78.85,43.84,79.14,43.48,79.14z M38.19,77.84h4.64v-4.63h-4.64V77.84z"/>
			</g>
			<g>
				<path d="M53.2,79.14h-5.94c-0.36,0-0.65-0.29-0.65-0.65v-5.93c0-0.36,0.29-0.65,0.65-0.65h5.94c0.36,0,0.65,0.29,0.65,0.65v5.93
					C53.85,78.85,53.56,79.14,53.2,79.14z M47.91,77.84h4.64v-4.63h-4.64V77.84z"/>
			</g>
		</g>
	</g>
</g>
</svg>
