<?xml version="1.0" encoding="utf-8"?>
<!-- Generator: Adobe Illustrator 24.1.2, SVG Export Plug-In . SVG Version: 6.00 Build 0)  -->
<svg version="1.1" id="Layer_1" xmlns="http://www.w3.org/2000/svg" xmlns:xlink="http://www.w3.org/1999/xlink" x="0px" y="0px"
	 viewBox="0 0 100 100" style="enable-background:new 0 0 100 100;" xml:space="preserve">
<g>
	<g>
		<g>
			<path d="M75.56,79.6c-6.84,0-12.82-4.86-14.2-11.55c-0.07-0.35,0.15-0.7,0.5-0.77c0.35-0.07,0.7,0.15,0.77,0.5
				c1.26,6.09,6.7,10.51,12.93,10.51c7.28,0,13.2-5.92,13.2-13.2c0-7.28-5.92-13.2-13.2-13.2c-0.98,0-1.95,0.1-2.87,0.31
				c-0.35,0.08-0.7-0.14-0.78-0.49c-0.08-0.35,0.14-0.7,0.49-0.78c1.01-0.23,2.08-0.34,3.15-0.34c7.99,0,14.5,6.5,14.5,14.5
				C90.05,73.09,83.55,79.6,75.56,79.6z"/>
		</g>
		<g>
			<path d="M75.56,79.6c-3.14,0-5.75-4.78-6.35-11.62c-0.03-0.36,0.23-0.67,0.59-0.7c0.35-0.04,0.67,0.23,0.7,0.59
				c0.52,5.95,2.69,10.44,5.05,10.44c2.49,0,5.17-5.3,5.17-13.2c0-7.89-2.67-13.2-5.17-13.2c-1.06,0-1.93,0.93-2.48,1.71
				c-0.2,0.29-0.61,0.37-0.9,0.16c-0.29-0.2-0.37-0.61-0.16-0.91c1.03-1.49,2.26-2.27,3.54-2.27c3.63,0,6.47,6.37,6.47,14.5
				C82.02,73.23,79.18,79.6,75.56,79.6z"/>
		</g>
		<g>
			<path d="M72.54,68.57H11.6c-0.36,0-0.65-0.29-0.65-0.65V22.05c0-0.36,0.29-0.65,0.65-0.65h60.95c0.36,0,0.65,0.29,0.65,0.65
				v45.86C73.19,68.28,72.9,68.57,72.54,68.57z M12.25,67.27h59.65V22.7H12.25V67.27z"/>
		</g>
		<g>
			<path d="M32.75,55.63h-3.22c-0.36,0-0.65-0.29-0.65-0.65V43.86c0-0.36,0.29-0.65,0.65-0.65h3.22c0.36,0,0.65,0.29,0.65,0.65
				v11.12C33.4,55.34,33.1,55.63,32.75,55.63z M30.18,54.33h1.92v-9.82h-1.92V54.33z"/>
		</g>
		<g>
			<path d="M38.24,55.63h-3.22c-0.36,0-0.65-0.29-0.65-0.65V41.62c0-0.36,0.29-0.65,0.65-0.65h3.22c0.36,0,0.65,0.29,0.65,0.65
				v13.36C38.89,55.34,38.6,55.63,38.24,55.63z M35.68,54.33h1.92V42.27h-1.92V54.33z"/>
		</g>
		<g>
			<path d="M43.74,55.63h-3.22c-0.36,0-0.65-0.29-0.65-0.65V44.79c0-0.36,0.29-0.65,0.65-0.65h3.22c0.36,0,0.65,0.29,0.65,0.65
				v10.19C44.39,55.34,44.1,55.63,43.74,55.63z M41.17,54.33h1.92v-8.89h-1.92V54.33z"/>
		</g>
		<g>
			<path d="M49.24,55.63h-3.21c-0.36,0-0.65-0.29-0.65-0.65v-4.44c0-0.36,0.29-0.65,0.65-0.65h3.21c0.36,0,0.65,0.29,0.65,0.65v4.44
				C49.89,55.34,49.6,55.63,49.24,55.63z M46.68,54.33h1.91V51.2h-1.91V54.33z"/>
		</g>
		<g>
			<path d="M54.74,55.63h-3.22c-0.36,0-0.65-0.29-0.65-0.65v-10.1c0-0.36,0.29-0.65,0.65-0.65h3.22c0.36,0,0.65,0.29,0.65,0.65v10.1
				C55.39,55.34,55.1,55.63,54.74,55.63z M52.17,54.33h1.92v-8.8h-1.92V54.33z"/>
		</g>
		<g>
			<path d="M59.45,58.46H24.65c-0.36,0-0.65-0.29-0.65-0.65c0-0.36,0.29-0.65,0.65-0.65h34.79c0.36,0,0.65,0.29,0.65,0.65
				C60.1,58.17,59.81,58.46,59.45,58.46z"/>
		</g>
		<g>
			<path d="M72.54,33.01H11.6c-0.36,0-0.65-0.29-0.65-0.65c0-0.36,0.29-0.65,0.65-0.65h60.95c0.36,0,0.65,0.29,0.65,0.65
				C73.19,32.72,72.9,33.01,72.54,33.01z"/>
		</g>
		<g>
			<path d="M17.75,29.47c-1.32,0-2.39-1.07-2.39-2.38s1.07-2.38,2.39-2.38c1.32,0,2.39,1.07,2.39,2.38S19.07,29.47,17.75,29.47z
				 M17.75,26.01c-0.6,0-1.09,0.48-1.09,1.08c0,0.6,0.49,1.08,1.09,1.08c0.6,0,1.09-0.48,1.09-1.08
				C18.84,26.5,18.35,26.01,17.75,26.01z"/>
		</g>
		<g>
			<path d="M25.27,29.47c-1.32,0-2.39-1.07-2.39-2.38s1.07-2.38,2.39-2.38c1.31,0,2.38,1.07,2.38,2.38S26.58,29.47,25.27,29.47z
				 M25.27,26.01c-0.6,0-1.09,0.48-1.09,1.08c0,0.6,0.49,1.08,1.09,1.08c0.6,0,1.08-0.48,1.08-1.08
				C26.35,26.5,25.87,26.01,25.27,26.01z"/>
		</g>
		<g>
			<path d="M72.54,27.74H38.69c-0.36,0-0.65-0.29-0.65-0.65c0-0.36,0.29-0.65,0.65-0.65h33.86c0.36,0,0.65,0.29,0.65,0.65
				C73.19,27.45,72.9,27.74,72.54,27.74z"/>
		</g>
		<g>
			<path d="M75.56,79.6c-0.36,0-0.65-0.29-0.65-0.65v-27.7c0-0.36,0.29-0.65,0.65-0.65s0.65,0.29,0.65,0.65v27.7
				C76.21,79.31,75.91,79.6,75.56,79.6z"/>
		</g>
		<g>
			<path d="M89.4,65.74H72.54c-0.36,0-0.65-0.29-0.65-0.65s0.29-0.65,0.65-0.65H89.4c0.36,0,0.65,0.29,0.65,0.65
				S89.76,65.74,89.4,65.74z"/>
		</g>
		<g>
			<path d="M75.33,59.64c-0.95,0-1.9-0.04-2.83-0.11c-0.36-0.03-0.63-0.34-0.6-0.7c0.03-0.36,0.34-0.63,0.7-0.6
				c4.59,0.35,9.37-0.19,14.21-1.59c0.34-0.1,0.71,0.1,0.81,0.44c0.1,0.34-0.1,0.71-0.44,0.81C83.16,59.06,79.19,59.64,75.33,59.64z
				"/>
		</g>
		<g>
			<path d="M64.12,72.56c-0.28,0-0.53-0.18-0.62-0.46c-0.11-0.34,0.08-0.71,0.43-0.81c7.54-2.35,15.13-2.35,23.23,0
				c0.34,0.1,0.54,0.46,0.44,0.8c-0.1,0.34-0.46,0.55-0.81,0.44c-7.85-2.27-15.2-2.27-22.48,0C64.25,72.55,64.19,72.56,64.12,72.56z
				"/>
		</g>
	</g>
</g>
</svg>
