<svg width="401" height="96" viewBox="0 0 401 96" fill="none" xmlns="http://www.w3.org/2000/svg">
<rect x="0.75" y="0.75" width="399.5" height="94.5" rx="23.25" fill="white" stroke="#E9ECEF" stroke-width="1.5" stroke-dasharray="4 4"/>
<g clip-path="url(#clip0)">
<path d="M57.5111 45.1815V37.2331C57.5111 37.0056 57.406 36.7954 57.2574 36.6291L48.3461 27.2714C48.1798 27.0965 47.9433 27 47.7071 27H33.5785C30.9702 27 28.8867 29.127 28.8867 31.7357V58.4519C28.8867 61.0606 30.9702 63.1527 33.5785 63.1527H44.7309C46.8403 66.6541 50.6747 69 55.0425 69C61.6777 69 67.0963 63.6077 67.0963 56.9638C67.1053 51.1601 62.9383 46.3107 57.5111 45.1815ZM48.5825 30.0726L54.5612 36.3663H50.6833C49.5278 36.3663 48.5825 35.4124 48.5825 34.2569V30.0726ZM33.5785 61.4019C31.9417 61.4019 30.6376 60.0887 30.6376 58.4519V31.7357C30.6376 30.09 31.9417 28.7509 33.5785 28.7509H46.8317V34.2569C46.8317 36.3839 48.5563 38.1172 50.6833 38.1172H55.7603V44.9536C55.4978 44.945 55.2876 44.9187 55.0601 44.9187C52.0051 44.9187 49.1952 46.0918 47.0768 47.9301H35.9597C35.4781 47.9301 35.0842 48.324 35.0842 48.8053C35.0842 49.2869 35.4781 49.6807 35.9597 49.6807H45.4487C44.8271 50.5561 44.3105 51.4315 43.908 52.3944H35.9597C35.4781 52.3944 35.0842 52.7883 35.0842 53.2699C35.0842 53.7512 35.4781 54.1453 35.9597 54.1453H43.339C43.1201 55.0207 43.0063 55.9923 43.0063 56.9638C43.0063 58.5394 43.3127 60.0977 43.8641 61.4108H33.5785V61.4019ZM55.0515 67.2581C49.3791 67.2581 44.7659 62.6448 44.7659 56.9725C44.7659 51.3002 49.3702 46.6869 55.0515 46.6869C60.7325 46.6869 65.3368 51.3002 65.3368 56.9725C65.3368 62.6448 60.7238 67.2581 55.0515 67.2581Z" fill="#495057"/>
<path d="M35.9614 45.2952H44.8288C45.3104 45.2952 45.7042 44.9011 45.7042 44.4198C45.7042 43.9382 45.3104 43.5444 44.8288 43.5444H35.9614C35.4798 43.5444 35.0859 43.9382 35.0859 44.4198C35.0859 44.9011 35.4798 45.2952 35.9614 45.2952Z" fill="#495057"/>
<path d="M55.6939 50.5312C55.5276 50.3563 55.3001 50.2512 55.055 50.2512C54.8098 50.2512 54.5823 50.3563 54.416 50.5312L50.0004 55.2676C49.6678 55.6178 49.6941 56.1779 50.0443 56.5019C50.3946 56.8345 50.9633 56.8082 51.2959 56.4583L54.2058 53.3501V62.909C54.2058 63.3906 54.5996 63.7844 55.0813 63.7844C55.5626 63.7844 55.9567 63.3906 55.9567 62.909V53.3501L58.8386 56.4596C59.0139 56.6432 59.2414 56.7396 59.4779 56.7396C59.6878 56.7396 59.898 56.6608 60.073 56.5031C60.4232 56.1705 60.4495 55.6191 60.1169 55.2688L55.6939 50.5312Z" fill="#495057"/>
</g>
<path d="M89.12 26.8V38H93.52C95.056 38 96.336 37.456 97.344 36.384C98.368 35.296 98.88 33.968 98.88 32.4C98.88 30.816 98.368 29.488 97.344 28.416C96.336 27.344 95.056 26.8 93.52 26.8H89.12ZM90.96 36.24V28.56H93.52C94.576 28.56 95.44 28.928 96.096 29.648C96.768 30.368 97.104 31.28 97.104 32.4C97.104 33.504 96.768 34.432 96.096 35.152C95.44 35.872 94.576 36.24 93.52 36.24H90.96ZM102.174 30H100.446V38H102.174V33.968C102.174 33.152 102.414 32.56 102.91 32.208C103.406 31.84 103.982 31.68 104.638 31.728V29.856C103.438 29.856 102.606 30.352 102.174 31.344V30ZM111.875 31.136C111.219 30.24 110.291 29.792 109.075 29.792C107.971 29.792 107.043 30.192 106.259 31.008C105.475 31.824 105.091 32.816 105.091 34C105.091 35.168 105.475 36.176 106.259 36.992C107.043 37.808 107.971 38.208 109.075 38.208C110.291 38.208 111.219 37.76 111.875 36.848V38H113.603V30H111.875V31.136ZM107.539 35.84C107.059 35.344 106.819 34.736 106.819 34C106.819 33.264 107.059 32.656 107.539 32.176C108.019 31.68 108.627 31.44 109.347 31.44C110.067 31.44 110.675 31.68 111.155 32.176C111.635 32.656 111.875 33.264 111.875 34C111.875 34.736 111.635 35.344 111.155 35.84C110.675 36.32 110.067 36.56 109.347 36.56C108.627 36.56 108.019 36.32 107.539 35.84ZM121.985 31.184C121.329 30.256 120.401 29.792 119.201 29.792C118.065 29.792 117.121 30.192 116.337 31.008C115.553 31.808 115.169 32.784 115.169 33.92C115.169 35.056 115.553 36.032 116.337 36.848C117.121 37.648 118.065 38.048 119.201 38.048C120.401 38.048 121.329 37.584 121.985 36.656V37.632C121.985 39.024 121.089 39.84 119.601 39.84C118.465 39.84 117.681 39.424 117.265 38.608L115.777 39.472C116.465 40.768 117.729 41.408 119.569 41.408C120.705 41.408 121.681 41.088 122.481 40.432C123.281 39.776 123.681 38.848 123.681 37.632V30H121.985V31.184ZM117.617 35.712C117.137 35.232 116.897 34.64 116.897 33.92C116.897 33.2 117.137 32.608 117.617 32.128C118.113 31.648 118.721 31.408 119.441 31.408C120.161 31.408 120.769 31.648 121.249 32.128C121.745 32.608 121.985 33.2 121.985 33.92C121.985 34.64 121.745 35.232 121.249 35.712C120.769 36.192 120.161 36.432 119.441 36.432C118.721 36.432 118.113 36.192 117.617 35.712ZM137.552 35.856C137.984 35.168 138.288 34.384 138.48 33.488L136.911 32.592C136.8 33.344 136.608 34 136.336 34.544L133.616 31.6C133.168 31.136 132.992 30.928 132.799 30.48C132.704 30.256 132.656 30.032 132.656 29.808C132.656 28.96 133.344 28.384 134.24 28.384C135.12 28.384 135.808 28.928 136.112 29.824L137.68 28.928C137.088 27.44 135.76 26.592 134.224 26.592C133.264 26.592 132.448 26.88 131.792 27.472C131.136 28.064 130.816 28.816 130.816 29.76C130.816 30.48 131.024 31.12 131.456 31.712C130.176 32.4 129.488 33.584 129.488 34.928C129.488 35.936 129.84 36.736 130.544 37.328C131.264 37.92 132.192 38.208 133.328 38.208C134.528 38.208 135.568 37.856 136.448 37.152L137.52 38.304L139.008 37.44L137.552 35.856ZM133.424 36.496C132.096 36.496 131.344 35.824 131.344 34.784C131.344 33.952 131.744 33.344 132.528 32.944L135.28 35.904C134.752 36.304 134.144 36.496 133.424 36.496ZM150.719 31.136C150.063 30.24 149.135 29.792 147.919 29.792C146.815 29.792 145.887 30.192 145.103 31.008C144.319 31.824 143.935 32.816 143.935 34C143.935 35.168 144.319 36.176 145.103 36.992C145.887 37.808 146.815 38.208 147.919 38.208C149.135 38.208 150.063 37.76 150.719 36.848V38H152.447V26.8H150.719V31.136ZM146.383 35.84C145.903 35.344 145.663 34.736 145.663 34C145.663 33.264 145.903 32.656 146.383 32.176C146.863 31.68 147.471 31.44 148.191 31.44C148.911 31.44 149.519 31.68 149.999 32.176C150.479 32.656 150.719 33.264 150.719 34C150.719 34.736 150.479 35.344 149.999 35.84C149.519 36.32 148.911 36.56 148.191 36.56C147.471 36.56 146.863 36.32 146.383 35.84ZM156.189 30H154.461V38H156.189V33.968C156.189 33.152 156.429 32.56 156.925 32.208C157.421 31.84 157.997 31.68 158.653 31.728V29.856C157.453 29.856 156.621 30.352 156.189 31.344V30ZM163.706 38.208C164.89 38.208 165.882 37.808 166.698 36.992C167.514 36.176 167.93 35.184 167.93 34C167.93 32.816 167.514 31.824 166.698 31.008C165.882 30.192 164.89 29.792 163.706 29.792C162.538 29.792 161.53 30.192 160.714 31.008C159.898 31.824 159.482 32.816 159.482 34C159.482 35.184 159.898 36.176 160.714 36.992C161.53 37.808 162.538 38.208 163.706 38.208ZM161.93 35.808C161.45 35.328 161.21 34.72 161.21 34C161.21 33.28 161.45 32.672 161.93 32.192C162.41 31.712 163.002 31.472 163.706 31.472C164.41 31.472 165.002 31.712 165.482 32.192C165.962 32.672 166.202 33.28 166.202 34C166.202 34.72 165.962 35.328 165.482 35.808C165.002 36.288 164.41 36.528 163.706 36.528C163.002 36.528 162.41 36.288 161.93 35.808ZM174.02 29.792C172.804 29.792 171.876 30.24 171.22 31.152V30H169.492V41.2H171.22V36.864C171.876 37.76 172.804 38.208 174.02 38.208C175.124 38.208 176.052 37.808 176.836 36.992C177.62 36.176 178.004 35.184 178.004 34C178.004 32.832 177.62 31.84 176.836 31.024C176.052 30.208 175.124 29.792 174.02 29.792ZM171.94 35.84C171.46 35.344 171.22 34.736 171.22 34C171.22 33.264 171.46 32.656 171.94 32.176C172.42 31.68 173.028 31.44 173.748 31.44C174.468 31.44 175.076 31.68 175.556 32.176C176.036 32.656 176.276 33.264 176.276 34C176.276 34.736 176.036 35.344 175.556 35.84C175.076 36.32 174.468 36.56 173.748 36.56C173.028 36.56 172.42 36.32 171.94 35.84ZM186.915 35.808L184.531 30H182.643L186.035 37.856L185.955 38.016C185.523 39.12 184.914 39.648 183.827 39.584V41.2C185.667 41.312 186.963 40.32 187.731 38.256L190.803 30H188.963L186.915 35.808ZM195.659 38.208C196.843 38.208 197.835 37.808 198.651 36.992C199.467 36.176 199.883 35.184 199.883 34C199.883 32.816 199.467 31.824 198.651 31.008C197.835 30.192 196.843 29.792 195.659 29.792C194.491 29.792 193.483 30.192 192.667 31.008C191.851 31.824 191.435 32.816 191.435 34C191.435 35.184 191.851 36.176 192.667 36.992C193.483 37.808 194.491 38.208 195.659 38.208ZM193.883 35.808C193.403 35.328 193.163 34.72 193.163 34C193.163 33.28 193.403 32.672 193.883 32.192C194.363 31.712 194.955 31.472 195.659 31.472C196.363 31.472 196.955 31.712 197.435 32.192C197.915 32.672 198.155 33.28 198.155 34C198.155 34.72 197.915 35.328 197.435 35.808C196.955 36.288 196.363 36.528 195.659 36.528C194.955 36.528 194.363 36.288 193.883 35.808ZM206.838 34.288C206.838 35.84 206.022 36.592 204.806 36.592C203.702 36.592 203.014 35.936 203.014 34.736V30H201.286V34.912C201.286 36.96 202.518 38.208 204.358 38.208C205.494 38.208 206.31 37.792 206.838 36.976V38H208.566V30H206.838V34.288ZM212.314 30H210.586V38H212.314V33.968C212.314 33.152 212.554 32.56 213.05 32.208C213.546 31.84 214.122 31.68 214.778 31.728V29.856C213.578 29.856 212.746 30.352 212.314 31.344V30ZM222.359 30V29.84C222.359 28.672 222.967 28.256 224.247 28.256C224.871 28.256 225.463 28.304 226.023 28.384V26.8C225.399 26.656 224.807 26.592 224.247 26.592C221.831 26.592 220.631 27.68 220.631 29.84V30H219.415V31.664H220.631V38H222.359V31.664H225.015V38H226.743V30H222.359ZM230.47 38V26.32H228.742V38H230.47ZM240.205 34.736C240.253 34.432 240.269 34.192 240.269 34.016C240.269 32.848 239.885 31.84 239.133 31.024C238.381 30.208 237.421 29.792 236.253 29.792C235.021 29.792 233.997 30.192 233.213 31.008C232.429 31.808 232.029 32.8 232.029 34C232.029 35.216 232.429 36.224 233.229 37.024C234.029 37.808 235.085 38.208 236.381 38.208C237.933 38.208 239.101 37.632 239.885 36.464L238.461 35.632C237.997 36.288 237.309 36.624 236.397 36.624C235.069 36.624 234.093 35.952 233.837 34.736H240.205ZM233.821 33.328C234.061 32.112 234.957 31.36 236.237 31.36C237.373 31.36 238.285 32.032 238.525 33.328H233.821ZM249.997 29.792C248.861 29.792 248.045 30.208 247.517 31.024V26.8H245.789V38H247.517V33.712C247.517 32.16 248.333 31.408 249.549 31.408C250.653 31.408 251.341 32.064 251.341 33.264V38H253.069V33.088C253.069 31.04 251.837 29.792 249.997 29.792ZM262.658 34.736C262.706 34.432 262.722 34.192 262.722 34.016C262.722 32.848 262.338 31.84 261.586 31.024C260.834 30.208 259.874 29.792 258.706 29.792C257.474 29.792 256.45 30.192 255.666 31.008C254.882 31.808 254.482 32.8 254.482 34C254.482 35.216 254.882 36.224 255.682 37.024C256.482 37.808 257.538 38.208 258.834 38.208C260.386 38.208 261.554 37.632 262.338 36.464L260.914 35.632C260.45 36.288 259.762 36.624 258.85 36.624C257.522 36.624 256.546 35.952 256.29 34.736H262.658ZM256.274 33.328C256.514 32.112 257.41 31.36 258.69 31.36C259.826 31.36 260.738 32.032 260.978 33.328H256.274ZM265.97 30H264.242V38H265.97V33.968C265.97 33.152 266.21 32.56 266.706 32.208C267.202 31.84 267.778 31.68 268.434 31.728V29.856C267.234 29.856 266.402 30.352 265.97 31.344V30ZM277.439 34.736C277.487 34.432 277.503 34.192 277.503 34.016C277.503 32.848 277.119 31.84 276.367 31.024C275.615 30.208 274.655 29.792 273.487 29.792C272.255 29.792 271.231 30.192 270.447 31.008C269.663 31.808 269.263 32.8 269.263 34C269.263 35.216 269.663 36.224 270.463 37.024C271.263 37.808 272.319 38.208 273.615 38.208C275.167 38.208 276.335 37.632 277.119 36.464L275.695 35.632C275.231 36.288 274.543 36.624 273.631 36.624C272.303 36.624 271.327 35.952 271.071 34.736H277.439ZM271.055 33.328C271.295 32.112 272.191 31.36 273.471 31.36C274.607 31.36 275.519 32.032 275.759 33.328H271.055ZM279.423 35.792C278.735 35.792 278.223 36.336 278.223 36.992C278.223 37.648 278.767 38.192 279.423 38.192C280.079 38.192 280.623 37.648 280.623 36.992C280.623 36.336 280.079 35.792 279.423 35.792Z" fill="#343A40"/>
<path d="M97.17 65.712C98.164 64.718 98.654 63.514 98.654 62.1C98.654 60.686 98.164 59.482 97.17 58.502C96.19 57.508 94.986 57.018 93.572 57.018C92.158 57.018 90.954 57.508 89.96 58.502C88.98 59.482 88.49 60.686 88.49 62.1C88.49 63.514 88.98 64.718 89.96 65.712C90.954 66.692 92.158 67.182 93.572 67.182C94.986 67.182 96.19 66.692 97.17 65.712ZM91.094 64.62C90.436 63.948 90.1 63.108 90.1 62.1C90.1 61.092 90.436 60.252 91.094 59.594C91.766 58.922 92.592 58.586 93.572 58.586C94.552 58.586 95.378 58.922 96.036 59.594C96.708 60.252 97.044 61.092 97.044 62.1C97.044 63.108 96.708 63.948 96.036 64.62C95.378 65.278 94.552 65.614 93.572 65.614C92.592 65.614 91.766 65.278 91.094 64.62ZM101.537 60H100.025V67H101.537V63.472C101.537 62.758 101.747 62.24 102.181 61.932C102.615 61.61 103.119 61.47 103.693 61.512V59.874C102.643 59.874 101.915 60.308 101.537 61.176V60ZM112.272 59.818C111.208 59.818 110.396 60.21 109.822 60.994V57.2H108.31V67H109.822V65.992C110.396 66.79 111.208 67.182 112.272 67.182C113.238 67.182 114.05 66.832 114.736 66.118C115.422 65.404 115.758 64.522 115.758 63.5C115.758 62.464 115.422 61.596 114.736 60.882C114.05 60.168 113.238 59.818 112.272 59.818ZM110.452 65.11C110.032 64.676 109.822 64.144 109.822 63.5C109.822 62.856 110.032 62.324 110.452 61.904C110.872 61.47 111.404 61.26 112.034 61.26C112.664 61.26 113.196 61.47 113.616 61.904C114.036 62.324 114.246 62.856 114.246 63.5C114.246 64.144 114.036 64.676 113.616 65.11C113.196 65.53 112.664 65.74 112.034 65.74C111.404 65.74 110.872 65.53 110.452 65.11ZM118.64 60H117.128V67H118.64V63.472C118.64 62.758 118.85 62.24 119.284 61.932C119.718 61.61 120.222 61.47 120.796 61.512V59.874C119.746 59.874 119.018 60.308 118.64 61.176V60ZM125.217 67.182C126.253 67.182 127.121 66.832 127.835 66.118C128.549 65.404 128.913 64.536 128.913 63.5C128.913 62.464 128.549 61.596 127.835 60.882C127.121 60.168 126.253 59.818 125.217 59.818C124.195 59.818 123.313 60.168 122.599 60.882C121.885 61.596 121.521 62.464 121.521 63.5C121.521 64.536 121.885 65.404 122.599 66.118C123.313 66.832 124.195 67.182 125.217 67.182ZM123.663 65.082C123.243 64.662 123.033 64.13 123.033 63.5C123.033 62.87 123.243 62.338 123.663 61.918C124.083 61.498 124.601 61.288 125.217 61.288C125.833 61.288 126.351 61.498 126.771 61.918C127.191 62.338 127.401 62.87 127.401 63.5C127.401 64.13 127.191 64.662 126.771 65.082C126.351 65.502 125.833 65.712 125.217 65.712C124.601 65.712 124.083 65.502 123.663 65.082ZM136.699 64.83L135.243 60H133.801L132.331 64.83L130.973 60H129.377L131.575 67H133.059L134.529 62.282L135.985 67H137.469L139.667 60H138.071L136.699 64.83ZM141.715 61.932C141.715 61.442 142.163 61.19 142.737 61.19C143.367 61.19 143.815 61.456 144.053 61.988L145.327 61.274C144.837 60.364 143.899 59.818 142.737 59.818C142.009 59.818 141.393 60.014 140.903 60.406C140.413 60.798 140.175 61.316 140.175 61.96C140.147 63.43 141.561 63.85 142.611 64.116C143.353 64.298 143.941 64.564 143.941 65.012C143.941 65.53 143.549 65.796 142.751 65.796C141.953 65.796 141.435 65.46 141.197 64.788L139.895 65.544C140.343 66.566 141.365 67.182 142.751 67.182C143.535 67.182 144.179 66.986 144.697 66.608C145.215 66.23 145.481 65.698 145.481 65.026C145.509 63.528 144.109 63.08 143.031 62.842C142.303 62.632 141.715 62.394 141.715 61.932ZM153.572 64.144C153.614 63.878 153.628 63.668 153.628 63.514C153.628 62.492 153.292 61.61 152.634 60.896C151.976 60.182 151.136 59.818 150.114 59.818C149.036 59.818 148.14 60.168 147.454 60.882C146.768 61.582 146.418 62.45 146.418 63.5C146.418 64.564 146.768 65.446 147.468 66.146C148.168 66.832 149.092 67.182 150.226 67.182C151.584 67.182 152.606 66.678 153.292 65.656L152.046 64.928C151.64 65.502 151.038 65.796 150.24 65.796C149.078 65.796 148.224 65.208 148 64.144H153.572ZM147.986 62.912C148.196 61.848 148.98 61.19 150.1 61.19C151.094 61.19 151.892 61.778 152.102 62.912H147.986ZM156.47 60H154.958V67H156.47V63.472C156.47 62.758 156.68 62.24 157.114 61.932C157.548 61.61 158.052 61.47 158.626 61.512V59.874C157.576 59.874 156.848 60.308 156.47 61.176V60Z" fill="#353590"/>
<path d="M166.911 57.018C164.839 56.892 163.747 57.942 163.747 59.86V60H162.683V61.456H163.747V67H165.259V61.456H166.911V60H165.259V59.86C165.259 58.838 165.805 58.376 166.911 58.474V57.018ZM169.308 60H167.796V67H169.308V63.472C169.308 62.758 169.518 62.24 169.952 61.932C170.386 61.61 170.89 61.47 171.464 61.512V59.874C170.414 59.874 169.686 60.308 169.308 61.176V60ZM175.885 67.182C176.921 67.182 177.789 66.832 178.503 66.118C179.217 65.404 179.581 64.536 179.581 63.5C179.581 62.464 179.217 61.596 178.503 60.882C177.789 60.168 176.921 59.818 175.885 59.818C174.863 59.818 173.981 60.168 173.267 60.882C172.553 61.596 172.189 62.464 172.189 63.5C172.189 64.536 172.553 65.404 173.267 66.118C173.981 66.832 174.863 67.182 175.885 67.182ZM174.331 65.082C173.911 64.662 173.701 64.13 173.701 63.5C173.701 62.87 173.911 62.338 174.331 61.918C174.751 61.498 175.269 61.288 175.885 61.288C176.501 61.288 177.019 61.498 177.439 61.918C177.859 62.338 178.069 62.87 178.069 63.5C178.069 64.13 177.859 64.662 177.439 65.082C177.019 65.502 176.501 65.712 175.885 65.712C175.269 65.712 174.751 65.502 174.331 65.082ZM188.592 59.818C187.626 59.818 186.912 60.182 186.45 60.924C186.016 60.182 185.358 59.818 184.462 59.818C183.58 59.818 182.908 60.154 182.46 60.84V60H180.948V67H182.46V63.08C182.46 61.862 183.104 61.232 184.014 61.232C184.854 61.232 185.33 61.792 185.33 62.758V67H186.842V63.08C186.842 61.848 187.43 61.232 188.368 61.232C189.208 61.232 189.726 61.792 189.726 62.758V67H191.238V62.66C191.238 60.924 190.174 59.818 188.592 59.818ZM199.283 65.082L197.197 60H195.545L198.513 66.874L198.443 67.014C198.065 67.98 197.533 68.442 196.581 68.386V69.8C198.191 69.898 199.325 69.03 199.997 67.224L202.685 60H201.075L199.283 65.082ZM206.934 67.182C207.97 67.182 208.838 66.832 209.552 66.118C210.266 65.404 210.63 64.536 210.63 63.5C210.63 62.464 210.266 61.596 209.552 60.882C208.838 60.168 207.97 59.818 206.934 59.818C205.912 59.818 205.03 60.168 204.316 60.882C203.602 61.596 203.238 62.464 203.238 63.5C203.238 64.536 203.602 65.404 204.316 66.118C205.03 66.832 205.912 67.182 206.934 67.182ZM205.38 65.082C204.96 64.662 204.75 64.13 204.75 63.5C204.75 62.87 204.96 62.338 205.38 61.918C205.8 61.498 206.318 61.288 206.934 61.288C207.55 61.288 208.068 61.498 208.488 61.918C208.908 62.338 209.118 62.87 209.118 63.5C209.118 64.13 208.908 64.662 208.488 65.082C208.068 65.502 207.55 65.712 206.934 65.712C206.318 65.712 205.8 65.502 205.38 65.082ZM216.715 63.752C216.715 65.11 216.001 65.768 214.937 65.768C213.971 65.768 213.369 65.194 213.369 64.144V60H211.857V64.298C211.857 66.09 212.935 67.182 214.545 67.182C215.539 67.182 216.253 66.818 216.715 66.104V67H218.227V60H216.715V63.752ZM221.507 60H219.995V67H221.507V63.472C221.507 62.758 221.717 62.24 222.151 61.932C222.585 61.61 223.089 61.47 223.663 61.512V59.874C222.613 59.874 221.885 60.308 221.507 61.176V60ZM231.584 67.182C232.942 67.182 234.132 66.482 234.734 65.362L233.432 64.62C233.096 65.278 232.396 65.698 231.57 65.698C230.954 65.698 230.436 65.488 230.016 65.068C229.61 64.648 229.4 64.13 229.4 63.5C229.4 62.87 229.61 62.352 230.016 61.932C230.436 61.512 230.954 61.302 231.57 61.302C232.41 61.302 233.082 61.708 233.404 62.38L234.706 61.624C234.146 60.518 232.942 59.818 231.584 59.818C230.534 59.818 229.652 60.168 228.938 60.882C228.238 61.582 227.888 62.45 227.888 63.5C227.888 64.536 228.238 65.404 228.938 66.118C229.652 66.832 230.534 67.182 231.584 67.182ZM239.172 67.182C240.208 67.182 241.076 66.832 241.79 66.118C242.504 65.404 242.868 64.536 242.868 63.5C242.868 62.464 242.504 61.596 241.79 60.882C241.076 60.168 240.208 59.818 239.172 59.818C238.15 59.818 237.268 60.168 236.554 60.882C235.84 61.596 235.476 62.464 235.476 63.5C235.476 64.536 235.84 65.404 236.554 66.118C237.268 66.832 238.15 67.182 239.172 67.182ZM237.618 65.082C237.198 64.662 236.988 64.13 236.988 63.5C236.988 62.87 237.198 62.338 237.618 61.918C238.038 61.498 238.556 61.288 239.172 61.288C239.788 61.288 240.306 61.498 240.726 61.918C241.146 62.338 241.356 62.87 241.356 63.5C241.356 64.13 241.146 64.662 240.726 65.082C240.306 65.502 239.788 65.712 239.172 65.712C238.556 65.712 238.038 65.502 237.618 65.082ZM251.88 59.818C250.914 59.818 250.2 60.182 249.738 60.924C249.304 60.182 248.646 59.818 247.75 59.818C246.868 59.818 246.196 60.154 245.748 60.84V60H244.236V67H245.748V63.08C245.748 61.862 246.392 61.232 247.302 61.232C248.142 61.232 248.618 61.792 248.618 62.758V67H250.13V63.08C250.13 61.848 250.718 61.232 251.656 61.232C252.496 61.232 253.014 61.792 253.014 62.758V67H254.526V62.66C254.526 60.924 253.462 59.818 251.88 59.818ZM260.106 59.818C259.042 59.818 258.23 60.21 257.656 61.008V60H256.144V69.8H257.656V66.006C258.23 66.79 259.042 67.182 260.106 67.182C261.072 67.182 261.884 66.832 262.57 66.118C263.256 65.404 263.592 64.536 263.592 63.5C263.592 62.478 263.256 61.61 262.57 60.896C261.884 60.182 261.072 59.818 260.106 59.818ZM258.286 65.11C257.866 64.676 257.656 64.144 257.656 63.5C257.656 62.856 257.866 62.324 258.286 61.904C258.706 61.47 259.238 61.26 259.868 61.26C260.498 61.26 261.03 61.47 261.45 61.904C261.87 62.324 262.08 62.856 262.08 63.5C262.08 64.144 261.87 64.676 261.45 65.11C261.03 65.53 260.498 65.74 259.868 65.74C259.238 65.74 258.706 65.53 258.286 65.11ZM269.68 63.752C269.68 65.11 268.966 65.768 267.902 65.768C266.936 65.768 266.334 65.194 266.334 64.144V60H264.822V64.298C264.822 66.09 265.9 67.182 267.51 67.182C268.504 67.182 269.218 66.818 269.68 66.104V67H271.192V60H269.68V63.752ZM276.866 60H275.13V58.04L273.618 58.488V60H272.33V61.456H273.618V64.816C273.618 66.65 274.556 67.28 276.866 67V65.642C275.718 65.698 275.13 65.712 275.13 64.816V61.456H276.866V60ZM285.068 64.144C285.11 63.878 285.124 63.668 285.124 63.514C285.124 62.492 284.788 61.61 284.13 60.896C283.472 60.182 282.632 59.818 281.61 59.818C280.532 59.818 279.636 60.168 278.95 60.882C278.264 61.582 277.914 62.45 277.914 63.5C277.914 64.564 278.264 65.446 278.964 66.146C279.664 66.832 280.588 67.182 281.722 67.182C283.08 67.182 284.102 66.678 284.788 65.656L283.542 64.928C283.136 65.502 282.534 65.796 281.736 65.796C280.574 65.796 279.72 65.208 279.496 64.144H285.068ZM279.482 62.912C279.692 61.848 280.476 61.19 281.596 61.19C282.59 61.19 283.388 61.778 283.598 62.912H279.482ZM287.966 60H286.454V67H287.966V63.472C287.966 62.758 288.176 62.24 288.61 61.932C289.044 61.61 289.548 61.47 290.122 61.512V59.874C289.072 59.874 288.344 60.308 287.966 61.176V60ZM290.675 65.32L290.115 68.96H291.375L292.355 65.32H290.675ZM302.178 63.752C302.178 65.11 301.464 65.768 300.4 65.768C299.434 65.768 298.832 65.194 298.832 64.144V60H297.32V64.298C297.32 66.09 298.398 67.182 300.008 67.182C301.002 67.182 301.716 66.818 302.178 66.104V67H303.69V60H302.178V63.752ZM309.42 59.818C308.356 59.818 307.544 60.21 306.97 61.008V60H305.458V69.8H306.97V66.006C307.544 66.79 308.356 67.182 309.42 67.182C310.386 67.182 311.198 66.832 311.884 66.118C312.57 65.404 312.906 64.536 312.906 63.5C312.906 62.478 312.57 61.61 311.884 60.896C311.198 60.182 310.386 59.818 309.42 59.818ZM307.6 65.11C307.18 64.676 306.97 64.144 306.97 63.5C306.97 62.856 307.18 62.324 307.6 61.904C308.02 61.47 308.552 61.26 309.182 61.26C309.812 61.26 310.344 61.47 310.764 61.904C311.184 62.324 311.394 62.856 311.394 63.5C311.394 64.144 311.184 64.676 310.764 65.11C310.344 65.53 309.812 65.74 309.182 65.74C308.552 65.74 308.02 65.53 307.6 65.11ZM321.683 60H319.947V58.04L318.435 58.488V60H317.147V61.456H318.435V64.816C318.435 66.65 319.373 67.28 321.683 67V65.642C320.535 65.698 319.947 65.712 319.947 64.816V61.456H321.683V60ZM326.426 67.182C327.462 67.182 328.33 66.832 329.044 66.118C329.758 65.404 330.122 64.536 330.122 63.5C330.122 62.464 329.758 61.596 329.044 60.882C328.33 60.168 327.462 59.818 326.426 59.818C325.404 59.818 324.522 60.168 323.808 60.882C323.094 61.596 322.73 62.464 322.73 63.5C322.73 64.536 323.094 65.404 323.808 66.118C324.522 66.832 325.404 67.182 326.426 67.182ZM324.872 65.082C324.452 64.662 324.242 64.13 324.242 63.5C324.242 62.87 324.452 62.338 324.872 61.918C325.292 61.498 325.81 61.288 326.426 61.288C327.042 61.288 327.56 61.498 327.98 61.918C328.4 62.338 328.61 62.87 328.61 63.5C328.61 64.13 328.4 64.662 327.98 65.082C327.56 65.502 327.042 65.712 326.426 65.712C325.81 65.712 325.292 65.502 324.872 65.082ZM334.289 58.11L334.681 59.482L336.655 58.922V67H338.265V57.2H336.865L334.289 58.11ZM346.554 65.796C347.24 64.872 347.576 63.64 347.576 62.1C347.576 60.56 347.24 59.328 346.554 58.404C345.882 57.48 344.944 57.018 343.726 57.018C342.508 57.018 341.57 57.48 340.884 58.404C340.212 59.328 339.876 60.56 339.876 62.1C339.876 63.64 340.212 64.872 340.884 65.796C341.57 66.72 342.508 67.182 343.726 67.182C344.944 67.182 345.882 66.72 346.554 65.796ZM343.726 65.614C342.284 65.614 341.486 64.354 341.486 62.1C341.486 59.846 342.284 58.586 343.726 58.586C345.182 58.586 345.966 59.846 345.966 62.1C345.966 64.354 345.182 65.614 343.726 65.614ZM356.661 59.818C355.695 59.818 354.981 60.182 354.519 60.924C354.085 60.182 353.427 59.818 352.531 59.818C351.649 59.818 350.977 60.154 350.529 60.84V60H349.017V67H350.529V63.08C350.529 61.862 351.173 61.232 352.083 61.232C352.923 61.232 353.399 61.792 353.399 62.758V67H354.911V63.08C354.911 61.848 355.499 61.232 356.437 61.232C357.277 61.232 357.795 61.792 357.795 62.758V67H359.307V62.66C359.307 60.924 358.243 59.818 356.661 59.818ZM364.887 59.818C363.823 59.818 363.011 60.21 362.437 60.994V57.2H360.925V67H362.437V65.992C363.011 66.79 363.823 67.182 364.887 67.182C365.853 67.182 366.665 66.832 367.351 66.118C368.037 65.404 368.373 64.522 368.373 63.5C368.373 62.464 368.037 61.596 367.351 60.882C366.665 60.168 365.853 59.818 364.887 59.818ZM363.067 65.11C362.647 64.676 362.437 64.144 362.437 63.5C362.437 62.856 362.647 62.324 363.067 61.904C363.487 61.47 364.019 61.26 364.649 61.26C365.279 61.26 365.811 61.47 366.231 61.904C366.651 62.324 366.861 62.856 366.861 63.5C366.861 64.144 366.651 64.676 366.231 65.11C365.811 65.53 365.279 65.74 364.649 65.74C364.019 65.74 363.487 65.53 363.067 65.11Z" fill="#868E96"/>
<defs>
<clipPath id="clip0">
<rect width="42" height="42" fill="white" transform="translate(27 27)"/>
</clipPath>
</defs>
</svg>
