<svg width="40" height="42" viewBox="0 0 40 42" fill="none" xmlns="http://www.w3.org/2000/svg">
<path d="M29.5111 18.1815V10.2331C29.5111 10.0056 29.406 9.79536 29.2574 9.62906L20.3461 0.271408C20.1798 0.0964508 19.9433 0 19.7071 0H5.57852C2.97018 0 0.886719 2.12704 0.886719 4.7357V31.4519C0.886719 34.0606 2.97018 36.1527 5.57852 36.1527H16.7309C18.8403 39.6541 22.6747 42 27.0425 42C33.6777 42 39.0963 36.6077 39.0963 29.9638C39.1053 24.1601 34.9383 19.3107 29.5111 18.1815ZM20.5825 3.07265L26.5612 9.3663H22.6833C21.5278 9.3663 20.5825 8.41237 20.5825 7.25688V3.07265ZM5.57852 34.4019C3.94174 34.4019 2.63757 33.0887 2.63757 31.4519V4.7357C2.63757 3.08995 3.94174 1.75085 5.57852 1.75085H18.8317V7.25688C18.8317 9.38393 20.5563 11.1172 22.6833 11.1172H27.7603V17.9536C27.4978 17.945 27.2876 17.9187 27.0601 17.9187C24.0051 17.9187 21.1952 19.0918 19.0768 20.9301H7.95967C7.47806 20.9301 7.08424 21.324 7.08424 21.8053C7.08424 22.2869 7.47806 22.6807 7.95967 22.6807H17.4487C16.8271 23.5561 16.3105 24.4315 15.908 25.3944H7.95967C7.47806 25.3944 7.08424 25.7883 7.08424 26.2699C7.08424 26.7512 7.47806 27.1453 7.95967 27.1453H15.339C15.1201 28.0207 15.0063 28.9923 15.0063 29.9638C15.0063 31.5394 15.3127 33.0977 15.8641 34.4108H5.57852V34.4019ZM27.0515 40.2581C21.3791 40.2581 16.7659 35.6448 16.7659 29.9725C16.7659 24.3002 21.3702 19.6869 27.0515 19.6869C32.7325 19.6869 37.3368 24.3002 37.3368 29.9725C37.3368 35.6448 32.7238 40.2581 27.0515 40.2581Z" fill="#495057"/>
<path d="M7.96136 18.2952H16.8288C17.3104 18.2952 17.7042 17.9011 17.7042 17.4198C17.7042 16.9382 17.3104 16.5444 16.8288 16.5444H7.96136C7.47975 16.5444 7.08594 16.9382 7.08594 17.4198C7.08594 17.9011 7.47975 18.2952 7.96136 18.2952Z" fill="#495057"/>
<path d="M27.6939 23.5312C27.5276 23.3563 27.3001 23.2512 27.055 23.2512C26.8098 23.2512 26.5823 23.3563 26.416 23.5312L22.0004 28.2676C21.6678 28.6178 21.6941 29.1779 22.0443 29.5019C22.3946 29.8345 22.9633 29.8082 23.2959 29.4583L26.2058 26.3501V35.909C26.2058 36.3906 26.5996 36.7844 27.0813 36.7844C27.5626 36.7844 27.9567 36.3906 27.9567 35.909V26.3501L30.8386 29.4596C31.0139 29.6432 31.2414 29.7396 31.4779 29.7396C31.6878 29.7396 31.898 29.6608 32.073 29.5031C32.4232 29.1705 32.4495 28.6191 32.1169 28.2688L27.6939 23.5312Z" fill="#495057"/>
</svg>
