<svg width="56" height="56" viewBox="0 0 56 56" fill="none" xmlns="http://www.w3.org/2000/svg">
<circle cx="28" cy="28" r="28" fill="black"/>
<g clip-path="url(#clip0)">
<path fill-rule="evenodd" clip-rule="evenodd" d="M46.8158 30.0898C46.7372 30.0884 46.659 30.1026 46.586 30.1316C46.5129 30.1607 46.4463 30.2041 46.3902 30.2592C46.334 30.3143 46.2895 30.38 46.259 30.4525C46.2286 30.5251 46.2129 30.6029 46.2129 30.6816C46.2129 30.7602 46.2286 30.8381 46.259 30.9106C46.2895 30.9832 46.334 31.0489 46.3902 31.104C46.4463 31.1591 46.5129 31.2025 46.586 31.2315C46.659 31.2606 46.7372 31.2748 46.8158 31.2734C46.8936 31.2733 46.9705 31.2579 47.0423 31.228C47.114 31.1981 47.1792 31.1544 47.234 31.0993C47.2888 31.0442 47.3322 30.9788 47.3618 30.9069C47.3913 30.835 47.4063 30.758 47.406 30.6802C47.406 30.6027 47.3908 30.5259 47.3612 30.4543C47.3315 30.3827 47.288 30.3176 47.2332 30.2628C47.1784 30.2079 47.1133 30.1644 47.0417 30.1348C46.9701 30.1051 46.8933 30.0898 46.8158 30.0898ZM46.8158 31.2022C46.7473 31.2023 46.6795 31.1888 46.6162 31.1626C46.5529 31.1364 46.4955 31.0979 46.4471 31.0494C46.3987 31.0009 46.3604 30.9433 46.3344 30.88C46.3084 30.8166 46.2951 30.7487 46.2954 30.6802C46.2954 30.612 46.3089 30.5444 46.3351 30.4813C46.3612 30.4183 46.3996 30.361 46.448 30.3128C46.4963 30.2646 46.5537 30.2264 46.6168 30.2004C46.6799 30.1744 46.7476 30.1611 46.8158 30.1612C46.884 30.1612 46.9515 30.1746 47.0144 30.2007C47.0774 30.2268 47.1346 30.265 47.1827 30.3132C47.2309 30.3614 47.2691 30.4187 47.2952 30.4816C47.3213 30.5446 47.3347 30.6121 47.3346 30.6802C47.335 30.7486 47.3218 30.8164 47.2959 30.8796C47.2699 30.9429 47.2318 31.0004 47.1836 31.0489C47.1354 31.0974 47.0781 31.1359 47.015 31.1622C46.9519 31.1885 46.8842 31.2021 46.8158 31.2022Z" fill="white"/>
<path fill-rule="evenodd" clip-rule="evenodd" d="M47.1193 30.5252C47.1193 30.4694 47.0946 30.4107 47.0452 30.3826C46.9954 30.3532 46.9398 30.3503 46.8839 30.3503H46.5957V31.0117H46.6764V30.7066H46.8252L47.0141 31.0117H47.1101L46.9103 30.7066C47.0282 30.7033 47.1193 30.6553 47.1193 30.5252ZM46.8003 30.6429H46.6762V30.409H46.8651C46.9472 30.409 47.0373 30.4215 47.0373 30.5238C47.0375 30.6584 46.8931 30.6429 46.8003 30.6429ZM43.3468 27.3276L44.5567 26.0357C44.6269 25.9409 44.6617 25.8745 44.6617 25.8176C44.6617 25.7228 44.5802 25.6848 44.3237 25.6848H44.0184V24.8692H47.3227V25.6848H46.8885C46.3871 25.6848 46.2939 25.7605 45.5944 26.6425L43.6803 28.7095V29.9709C43.6803 30.2936 43.8432 30.4071 44.3098 30.4071H45.0324V31.1941H40.4043V30.4071H41.1269C41.593 30.4071 41.7563 30.2936 41.7563 29.9709V28.7095L39.5019 26.2157C39.1294 25.7796 39.1809 25.6848 38.1436 25.6848V24.8692H42.3291V25.6848H42.0311C41.7279 25.6848 41.5994 25.7417 41.5994 25.8554C41.5994 25.9504 41.6926 26.0262 41.7509 26.1019L42.8915 27.345C43.027 27.4859 43.1924 27.5042 43.3468 27.3276ZM15.2646 24.869H16.2742V27.1448H15.3418C15.2592 26.6899 14.9745 26.5128 14.7148 26.2742C14.2465 25.8438 13.2321 25.4854 12.3789 25.4854C11.2777 25.4854 10.3484 25.827 10.3484 26.3292C10.3484 27.7234 16.6459 26.6139 16.6459 29.2499C16.6459 30.6248 15.297 31.3929 12.8745 31.3929C12.0359 31.3929 10.7668 31.1327 10.018 30.735C9.78333 30.5995 9.68372 30.8633 9.63972 31.1939H8.60457V28.8422H9.54094C9.74743 29.4396 10.032 29.5627 10.2936 29.7999C10.7477 30.2172 11.8285 30.5209 12.8197 30.5111C14.3141 30.4964 14.828 30.1697 14.828 29.6955C14.828 29.2215 14.3197 29.1076 12.6821 28.8517L11.2917 28.624C9.72253 28.3868 8.58008 28.0361 8.58008 26.7845C8.58008 25.4854 10.0253 24.6698 12.3104 24.6698C13.2734 24.6698 14.079 24.7984 14.8522 25.2355C15.0664 25.3747 15.2673 25.3914 15.2646 24.869ZM34.9682 28.6792L34.9882 26.1499C34.9882 25.818 34.8155 25.7043 34.3222 25.7043H33.7426V24.9174H37.4304V25.7043H36.9497C36.456 25.7043 36.2834 25.8182 36.2834 26.1499V31.242L34.84 31.2306L30.1656 26.8042V30.0188C30.1656 30.3413 30.3383 30.4644 30.8316 30.4644H31.4732V31.242H27.6433V30.4644H28.2779C28.7712 30.4644 28.9439 30.3411 28.9439 30.0188V26.1499C28.9439 25.818 28.7712 25.7043 28.2779 25.7043H27.6433V24.9174H30.9546L34.9682 28.6792ZM22.6155 24.622C19.6765 24.622 17.8367 25.9214 17.8367 28.0073C17.8367 30.0558 19.6509 31.3452 22.5258 31.3452C25.5794 31.3452 27.3557 30.0747 27.3557 27.9031C27.3559 25.9498 25.4391 24.622 22.6155 24.622ZM22.5487 30.5204C20.9218 30.5204 19.9867 29.5816 19.9867 27.9599C19.9867 26.3765 20.9625 25.4376 22.63 25.4376C24.2296 25.4376 25.1648 26.3956 25.1648 28.0266C25.1648 29.6196 24.2159 30.5204 22.5487 30.5204Z" fill="white"/>
</g>
<defs>
<clipPath id="clip0">
<rect width="40" height="40" fill="white" transform="translate(8 8)"/>
</clipPath>
</defs>
</svg>
