<?xml version="1.0" encoding="utf-8"?>
<!-- Generator: Adobe Illustrator 24.1.2, SVG Export Plug-In . SVG Version: 6.00 Build 0)  -->
<svg version="1.1" id="Layer_1" xmlns="http://www.w3.org/2000/svg" xmlns:xlink="http://www.w3.org/1999/xlink" x="0px" y="0px"
	 viewBox="0 0 57 40" style="enable-background:new 0 0 57 40;" xml:space="preserve">
<style type="text/css">
	.st0{fill:#B6B6F3;}
	.st1{fill:#353590;}
</style>
<path class="st0" d="M28.5,0.13c-4.7,0.01-9.24,1.71-12.8,4.78c-2.73,2.35-4.71,5.42-5.22,8.49C4.51,14.71,0,19.91,0,26.2
	c0,7.3,6.08,13.12,13.47,13.12H45.2c6.47,0,11.8-5.09,11.8-11.5c0-5.83-4.42-10.58-10.1-11.38C46.04,7.25,38.08,0.13,28.5,0.13z"/>
<path class="st1" d="M26.59,27.1l10.69-10.69c0.33-0.33,0.52-0.79,0.52-1.26s-0.19-0.93-0.52-1.26c-0.33-0.33-0.79-0.52-1.26-0.52
	c-0.47,0-0.93,0.19-1.26,0.52l-9.43,9.43l-4.08-4.09c-0.17-0.17-0.36-0.3-0.58-0.39c-0.22-0.09-0.45-0.14-0.68-0.14
	c-0.23,0-0.47,0.05-0.68,0.14c-0.22,0.09-0.41,0.22-0.58,0.39c-0.17,0.17-0.3,0.36-0.39,0.58c-0.09,0.22-0.14,0.45-0.14,0.68
	c0,0.23,0.05,0.47,0.14,0.68c0.09,0.22,0.22,0.41,0.39,0.58l5.34,5.34c0.17,0.17,0.36,0.3,0.58,0.39c0.22,0.09,0.45,0.14,0.68,0.14
	c0.23,0,0.47-0.05,0.68-0.14C26.23,27.4,26.42,27.27,26.59,27.1z"/>
</svg>
