<?xml version="1.0" encoding="utf-8"?>
<!-- Generator: Adobe Illustrator 24.1.2, SVG Export Plug-In . SVG Version: 6.00 Build 0)  -->
<svg version="1.1" id="Layer_1" xmlns="http://www.w3.org/2000/svg" xmlns:xlink="http://www.w3.org/1999/xlink" x="0px" y="0px"
	 viewBox="0 0 66 50" style="enable-background:new 0 0 66 50;" xml:space="preserve">
<style type="text/css">
	.st0{fill:#FFFFFF;}
	.st1{fill:#B6B6F3;}
</style>
<path class="st0" d="M9.76,0.25c-1.64,0-3.21,0.65-4.38,1.81C4.22,3.22,3.57,4.8,3.57,6.44v34.17h58.86V6.44
	c0-1.64-0.65-3.21-1.81-4.38c-1.16-1.16-2.73-1.81-4.38-1.81H9.76z M0,43.56h66c0,1.64-0.65,3.21-1.81,4.38
	c-1.16,1.16-2.73,1.81-4.38,1.81H6.19c-1.64,0-3.21-0.65-4.38-1.81C0.65,46.78,0,45.2,0,43.56z"/>
<path class="st1" d="M34.87,7.32c0-0.5-0.2-0.97-0.55-1.32C33.97,5.64,33.5,5.45,33,5.45c-0.5,0-0.97,0.2-1.32,0.55
	c-0.35,0.35-0.55,0.83-0.55,1.32v1.87c0,0.5,0.2,0.97,0.55,1.32c0.35,0.35,0.83,0.55,1.32,0.55c0.5,0,0.97-0.2,1.32-0.55
	c0.35-0.35,0.55-0.83,0.55-1.32V7.32z M43.6,12.48c0.34-0.35,0.53-0.83,0.53-1.32c0-0.49-0.2-0.96-0.55-1.31
	c-0.35-0.35-0.82-0.54-1.31-0.55c-0.49,0-0.96,0.18-1.32,0.53l-1.32,1.32c-0.34,0.35-0.53,0.83-0.53,1.32c0,0.49,0.2,0.96,0.55,1.31
	c0.35,0.35,0.82,0.54,1.31,0.55c0.49,0,0.96-0.18,1.32-0.53L43.6,12.48z M47.98,20.43c0,0.5-0.2,0.97-0.55,1.32
	c-0.35,0.35-0.83,0.55-1.32,0.55h-1.87c-0.5,0-0.97-0.2-1.32-0.55c-0.35-0.35-0.55-0.83-0.55-1.32c0-0.5,0.2-0.97,0.55-1.32
	c0.35-0.35,0.83-0.55,1.32-0.55h1.87c0.5,0,0.97,0.2,1.32,0.55C47.79,19.46,47.98,19.93,47.98,20.43z M23.73,13.81
	c0.17,0.18,0.38,0.32,0.61,0.42c0.23,0.1,0.47,0.15,0.72,0.15c0.25,0,0.5-0.05,0.73-0.14c0.23-0.09,0.44-0.23,0.62-0.41
	c0.18-0.18,0.31-0.38,0.41-0.62c0.09-0.23,0.14-0.48,0.14-0.73c0-0.25-0.05-0.49-0.15-0.72s-0.24-0.44-0.42-0.61l-1.32-1.32
	c-0.35-0.34-0.83-0.53-1.32-0.53c-0.49,0-0.96,0.2-1.31,0.55c-0.35,0.35-0.54,0.82-0.55,1.31c0,0.49,0.18,0.96,0.53,1.32
	L23.73,13.81z M23.64,20.43c0,0.5-0.2,0.97-0.55,1.32c-0.35,0.35-0.83,0.55-1.32,0.55h-1.87c-0.5,0-0.97-0.2-1.32-0.55
	c-0.35-0.35-0.55-0.83-0.55-1.32c0-0.5,0.2-0.97,0.55-1.32c0.35-0.35,0.83-0.55,1.32-0.55h1.87c0.5,0,0.97,0.2,1.32,0.55
	C23.44,19.46,23.64,19.93,23.64,20.43z M29.25,31.67v-1.87h7.49v1.87c0,0.99-0.39,1.95-1.1,2.65s-1.66,1.1-2.65,1.1
	s-1.95-0.39-2.65-1.1C29.65,33.61,29.25,32.66,29.25,31.67z M36.75,27.92c0.03-0.64,0.39-1.21,0.89-1.61
	c1.22-0.96,2.11-2.29,2.55-3.78c0.44-1.49,0.4-3.09-0.11-4.56c-0.51-1.47-1.47-2.75-2.73-3.65c-1.27-0.9-2.79-1.39-4.34-1.39
	s-3.08,0.49-4.34,1.39c-1.27,0.9-2.22,2.18-2.73,3.65c-0.51,1.47-0.55,3.06-0.11,4.56c0.44,1.49,1.33,2.82,2.55,3.78
	c0.51,0.4,0.87,0.97,0.89,1.61H36.75L36.75,27.92z"/>
</svg>
