<?xml version="1.0" encoding="utf-8"?>
<!-- Generator: Adobe Illustrator 24.1.2, SVG Export Plug-In . SVG Version: 6.00 Build 0)  -->
<svg version="1.1" id="Layer_1" xmlns="http://www.w3.org/2000/svg" xmlns:xlink="http://www.w3.org/1999/xlink" x="0px" y="0px"
	 viewBox="0 0 72 72" style="enable-background:new 0 0 72 72;" xml:space="preserve">
<style type="text/css">
	.st0{fill:#FFFFFF;}
	.st1{fill:#B6B6F3;}
</style>
<path class="st0" d="M28.97,54.28v2.91h-4.22c-0.78,0-1.41,0.63-1.41,1.41c0,0.78,0.63,1.41,1.41,1.41h22.5
	c0.78,0,1.41-0.63,1.41-1.41c0-0.78-0.63-1.41-1.41-1.41h-4.22v-2.91H28.97z"/>
<path class="st0" d="M13.41,51.47h45.19c0.78,0,1.41-0.63,1.41-1.41V19.13c0-0.78-0.63-1.41-1.41-1.41h-2.91v23.91
	c0,2.33-1.89,4.22-4.22,4.22H20.53c-2.33,0-4.22-1.89-4.22-4.22V17.72h-2.91c-0.78,0-1.41,0.63-1.41,1.41v30.94
	C12,50.84,12.63,51.47,13.41,51.47z"/>
<path class="st1" d="M19.13,41.63c0,0.78,0.63,1.41,1.41,1.41h30.94c0.78,0,1.41-0.63,1.41-1.41V26.16H19.13V41.63z M37.82,29.38
	c0.38-0.37,0.94-0.51,1.44-0.34l8.44,2.81c0.46,0.15,0.81,0.54,0.92,1.01c0.11,0.47-0.03,0.97-0.37,1.32L46.43,36l1.82,1.82
	c0.55,0.55,0.55,1.44,0,1.99c-0.55,0.55-1.44,0.55-1.99,0l-1.82-1.82l-1.82,1.82c-0.34,0.34-0.83,0.49-1.32,0.37
	c-0.47-0.11-0.86-0.46-1.01-0.92l-2.81-8.44C37.31,30.31,37.44,29.76,37.82,29.38z M24.75,28.97h8.44c0.78,0,1.41,0.63,1.41,1.41
	s-0.63,1.41-1.41,1.41h-8.44c-0.78,0-1.41-0.63-1.41-1.41S23.97,28.97,24.75,28.97z M24.75,34.59h8.44c0.78,0,1.41,0.63,1.41,1.41
	s-0.63,1.41-1.41,1.41h-8.44c-0.78,0-1.41-0.63-1.41-1.41S23.97,34.59,24.75,34.59z"/>
<path class="st0" d="M38.91,29.07c-0.5-0.17-1.06-0.03-1.44,0.34c-0.38,0.38-0.51,0.93-0.34,1.44l2.81,8.44
	c0.15,0.46,0.54,0.81,1.01,0.92c0.49,0.11,0.98-0.04,1.32-0.37l1.82-1.82l1.82,1.82c0.55,0.55,1.44,0.55,1.99,0
	c0.55-0.55,0.55-1.44,0-1.99l-1.82-1.82l1.82-1.82c0.35-0.34,0.49-0.84,0.37-1.32c-0.11-0.48-0.46-0.86-0.92-1.01L38.91,29.07z"/>
<path class="st0" d="M32.84,29h-8.44C23.63,29,23,29.63,23,30.41c0,0.78,0.63,1.41,1.41,1.41h8.44c0.78,0,1.41-0.63,1.41-1.41
	C34.25,29.63,33.62,29,32.84,29z"/>
<path class="st0" d="M32.84,34.63h-8.44c-0.78,0-1.41,0.63-1.41,1.41c0,0.78,0.63,1.41,1.41,1.41h8.44c0.78,0,1.41-0.63,1.41-1.41
	C34.25,35.25,33.62,34.63,32.84,34.63z"/>
<path class="st1" d="M52.88,13.41c0-0.78-0.63-1.41-1.41-1.41H20.53c-0.78,0-1.41,0.63-1.41,1.41v9.94h33.75V13.41z M24.75,19.13
	c-0.78,0-1.41-0.63-1.41-1.41c0-0.78,0.63-1.41,1.41-1.41s1.41,0.63,1.41,1.41C26.16,18.5,25.53,19.13,24.75,19.13z M30.38,19.13
	c-0.78,0-1.41-0.63-1.41-1.41c0-0.78,0.63-1.41,1.41-1.41s1.41,0.63,1.41,1.41C31.78,18.5,31.15,19.13,30.38,19.13z M36,19.13
	c-0.78,0-1.41-0.63-1.41-1.41c0-0.78,0.63-1.41,1.41-1.41s1.41,0.63,1.41,1.41C37.41,18.5,36.78,19.13,36,19.13z"/>
<path class="st0" d="M23,17.41c0,0.78,0.63,1.41,1.41,1.41c0.78,0,1.41-0.63,1.41-1.41c0-0.78-0.63-1.41-1.41-1.41
	C23.63,16,23,16.63,23,17.41z"/>
<path class="st0" d="M28.63,17.41c0,0.78,0.63,1.41,1.41,1.41c0.78,0,1.41-0.63,1.41-1.41c0-0.78-0.63-1.41-1.41-1.41
	C29.25,16,28.63,16.63,28.63,17.41z"/>
<path class="st0" d="M34.25,17.41c0,0.78,0.63,1.41,1.41,1.41c0.78,0,1.41-0.63,1.41-1.41c0-0.78-0.63-1.41-1.41-1.41
	C34.88,16,34.25,16.63,34.25,17.41z"/>
</svg>
