<svg width="72" height="72" viewBox="0 0 72 72" fill="none" xmlns="http://www.w3.org/2000/svg">
<path d="M28.9688 54.2812V57.1875H24.75C23.9727 57.1875 23.3438 57.8165 23.3438 58.5938C23.3438 59.371 23.9727 60 24.75 60H47.25C48.0273 60 48.6562 59.371 48.6562 58.5938C48.6562 57.8165 48.0273 57.1875 47.25 57.1875H43.0312V54.2812H28.9688Z" fill="#B6B6F3"/>
<path d="M13.4062 51.4688H58.5938C59.371 51.4688 60 50.8398 60 50.0625V19.125C60 18.3477 59.371 17.7188 58.5938 17.7188H55.6875V41.625C55.6875 43.9513 53.7951 45.8438 51.4688 45.8438H20.5312C18.2049 45.8438 16.3125 43.9513 16.3125 41.625V17.7188H13.4062C12.629 17.7188 12 18.3477 12 19.125V50.0625C12 50.8398 12.629 51.4688 13.4062 51.4688Z" fill="#B6B6F3"/>
<path d="M44.6457 33.8027L41.0366 32.5984L42.2396 36.2088L44.6457 33.8027Z" fill="#353590"/>
<path d="M19.125 41.625C19.125 42.4023 19.754 43.0312 20.5312 43.0312H51.4688C52.246 43.0312 52.875 42.4023 52.875 41.625V26.1562H19.125V41.625ZM37.8183 29.3808C38.1973 29.0073 38.7548 28.8712 39.2575 29.0416L47.695 31.8541C48.1565 32.0079 48.508 32.3897 48.6179 32.8648C48.7305 33.3386 48.5904 33.8371 48.2444 34.1818L46.426 36L48.2443 37.8183C48.7936 38.3676 48.7936 39.2575 48.2443 39.8068C47.695 40.3561 46.8051 40.3561 46.2558 39.8068L44.4375 37.9885L42.6192 39.8068C42.2802 40.1458 41.7863 40.2937 41.3009 40.1817C40.8285 40.0691 40.4439 39.7203 40.2902 39.2575L37.4777 30.82C37.3102 30.3145 37.442 29.757 37.8183 29.3808ZM24.75 28.9688H33.1875C33.9648 28.9688 34.5938 29.5977 34.5938 30.375C34.5938 31.1523 33.9648 31.7812 33.1875 31.7812H24.75C23.9727 31.7812 23.3438 31.1523 23.3438 30.375C23.3438 29.5977 23.9727 28.9688 24.75 28.9688ZM24.75 34.5938H33.1875C33.9648 34.5938 34.5938 35.2227 34.5938 36C34.5938 36.7773 33.9648 37.4062 33.1875 37.4062H24.75C23.9727 37.4062 23.3438 36.7773 23.3438 36C23.3438 35.2227 23.9727 34.5938 24.75 34.5938Z" fill="#353590"/>
<path d="M39.2575 29.0416C38.7548 28.8712 38.1973 29.0073 37.8183 29.3808C37.442 29.757 37.3102 30.3145 37.4777 30.82L40.2902 39.2575C40.4439 39.7203 40.8285 40.0691 41.3009 40.1817C41.7863 40.2937 42.2802 40.1458 42.6192 39.8068L44.4375 37.9885L46.2558 39.8068C46.8051 40.3561 47.695 40.3561 48.2443 39.8068C48.7936 39.2575 48.7936 38.3676 48.2443 37.8183L46.426 36L48.2444 34.1818C48.5904 33.8371 48.7305 33.3386 48.6179 32.8648C48.508 32.3897 48.1565 32.0079 47.695 31.8541L39.2575 29.0416Z" fill="#353590"/>
<path d="M33.1875 28.9688H24.75C23.9727 28.9688 23.3438 29.5977 23.3438 30.375C23.3438 31.1523 23.9727 31.7812 24.75 31.7812H33.1875C33.9648 31.7812 34.5938 31.1523 34.5938 30.375C34.5938 29.5977 33.9648 28.9688 33.1875 28.9688Z" fill="#353590"/>
<path d="M33.1875 34.5938H24.75C23.9727 34.5938 23.3438 35.2227 23.3438 36C23.3438 36.7773 23.9727 37.4062 24.75 37.4062H33.1875C33.9648 37.4062 34.5938 36.7773 34.5938 36C34.5938 35.2227 33.9648 34.5938 33.1875 34.5938Z" fill="#353590"/>
<path d="M38.9138 29.0728C38.4111 28.9025 37.8536 29.0385 37.4745 29.412C37.0982 29.7883 36.9664 30.3458 37.1339 30.8513L39.9464 39.2888C40.1002 39.7515 40.4848 40.1004 40.9572 40.213C41.4426 40.3249 41.9365 40.1771 42.2755 39.8381L44.0938 38.0198L45.912 39.8381C46.4613 40.3873 47.3513 40.3873 47.9006 39.8381C48.4498 39.2888 48.4498 38.3988 47.9006 37.8495L46.0823 36.0312L47.9007 34.2131C48.2467 33.8683 48.3868 33.3699 48.2742 32.8961C48.1643 32.4209 47.8127 32.0392 47.3513 31.8853L38.9138 29.0728Z" fill="#B6B6F3"/>
<path d="M32.8438 29H24.4062C23.629 29 23 29.629 23 30.4062C23 31.1835 23.629 31.8125 24.4062 31.8125H32.8438C33.621 31.8125 34.25 31.1835 34.25 30.4062C34.25 29.629 33.621 29 32.8438 29Z" fill="#B6B6F3"/>
<path d="M32.8438 34.625H24.4062C23.629 34.625 23 35.254 23 36.0312C23 36.8085 23.629 37.4375 24.4062 37.4375H32.8438C33.621 37.4375 34.25 36.8085 34.25 36.0312C34.25 35.254 33.621 34.625 32.8438 34.625Z" fill="#B6B6F3"/>
<path d="M52.875 13.4062C52.875 12.629 52.246 12 51.4688 12H20.5312C19.754 12 19.125 12.629 19.125 13.4062V23.3438H52.875V13.4062ZM24.75 19.125C23.9734 19.125 23.3438 18.4954 23.3438 17.7188C23.3438 16.9419 23.9734 16.3125 24.75 16.3125C25.5266 16.3125 26.1562 16.9419 26.1562 17.7188C26.1562 18.4954 25.5266 19.125 24.75 19.125ZM30.375 19.125C29.5984 19.125 28.9688 18.4954 28.9688 17.7188C28.9688 16.9419 29.5984 16.3125 30.375 16.3125C31.1516 16.3125 31.7812 16.9419 31.7812 17.7188C31.7812 18.4954 31.1516 19.125 30.375 19.125ZM36 19.125C35.2234 19.125 34.5938 18.4954 34.5938 17.7188C34.5938 16.9419 35.2234 16.3125 36 16.3125C36.7766 16.3125 37.4062 16.9419 37.4062 17.7188C37.4062 18.4954 36.7766 19.125 36 19.125Z" fill="#353590"/>
<path d="M23.3438 17.7188C23.3438 18.4954 23.9734 19.125 24.75 19.125C25.5266 19.125 26.1562 18.4954 26.1562 17.7188C26.1562 16.9419 25.5266 16.3125 24.75 16.3125C23.9734 16.3125 23.3438 16.9419 23.3438 17.7188Z" fill="#353590"/>
<path d="M28.9688 17.7188C28.9688 18.4954 29.5984 19.125 30.375 19.125C31.1516 19.125 31.7812 18.4954 31.7812 17.7188C31.7812 16.9419 31.1516 16.3125 30.375 16.3125C29.5984 16.3125 28.9688 16.9419 28.9688 17.7188Z" fill="#353590"/>
<path d="M34.5938 17.7188C34.5938 18.4954 35.2234 19.125 36 19.125C36.7766 19.125 37.4062 18.4954 37.4062 17.7188C37.4062 16.9419 36.7766 16.3125 36 16.3125C35.2234 16.3125 34.5938 16.9419 34.5938 17.7188Z" fill="#353590"/>
<path d="M23 17.4062C23 18.1829 23.6296 18.8125 24.4062 18.8125C25.1829 18.8125 25.8125 18.1829 25.8125 17.4062C25.8125 16.6294 25.1829 16 24.4062 16C23.6296 16 23 16.6294 23 17.4062Z" fill="#B6B6F3"/>
<path d="M28.625 17.4062C28.625 18.1829 29.2546 18.8125 30.0312 18.8125C30.8079 18.8125 31.4375 18.1829 31.4375 17.4062C31.4375 16.6294 30.8079 16 30.0312 16C29.2546 16 28.625 16.6294 28.625 17.4062Z" fill="#B6B6F3"/>
<path d="M34.25 17.4062C34.25 18.1829 34.8796 18.8125 35.6562 18.8125C36.4329 18.8125 37.0625 18.1829 37.0625 17.4062C37.0625 16.6294 36.4329 16 35.6562 16C34.8796 16 34.25 16.6294 34.25 17.4062Z" fill="#B6B6F3"/>
</svg>
