<svg width="72" height="72" viewBox="0 0 72 72" fill="none" xmlns="http://www.w3.org/2000/svg">
<g clip-path="url(#clip0)">
<path d="M21.1875 54.375V56.2467C21.1875 58.3162 22.8713 60 24.9408 60H46.9655C49.0349 60 50.7188 58.3162 50.7188 56.2467V54.375H21.1875Z" fill="#B6B6F3"/>
<path d="M46.9655 12H24.9408C22.8713 12 21.1875 13.6838 21.1875 15.7533V51.5625H50.7188V15.7533C50.7188 13.6838 49.0349 12 46.9655 12ZM32.0054 38.2365C32.4789 38.8521 32.3635 39.735 31.7479 40.2085C31.4923 40.4048 31.1909 40.5 30.8917 40.5C30.4698 40.5 30.0527 40.311 29.7759 39.951L27.0861 36.4541C26.6257 35.8553 26.6257 35.0193 27.0857 34.4209L29.7759 30.924C30.2494 30.3083 31.1323 30.193 31.7479 30.6665C32.3635 31.14 32.4789 32.0229 32.0054 32.6385L29.8524 35.4375L32.0054 38.2365ZM38.1456 32.179L35.9894 39.4915C35.8088 40.1038 35.2485 40.5004 34.6414 40.5004C34.5095 40.5004 34.3759 40.4817 34.2429 40.4425C33.498 40.2231 33.0721 39.4409 33.2919 38.696L35.4481 31.3835C35.6678 30.6387 36.4497 30.2128 37.1946 30.4325C37.9395 30.6522 38.3654 31.4341 38.1456 32.179ZM33.0938 18.4688C32.317 18.4688 31.6875 17.8392 31.6875 17.0625C31.6875 16.2858 32.317 15.6562 33.0938 15.6562H38.8125C39.5892 15.6562 40.2188 16.2858 40.2188 17.0625C40.2188 17.8392 39.5892 18.4688 38.8125 18.4688H33.0938ZM44.4452 36.4541L41.7554 39.951C41.4781 40.311 41.061 40.5 40.6395 40.5C40.3403 40.5 40.0386 40.4048 39.7833 40.2085C39.1677 39.735 39.0524 38.8521 39.5259 38.2365L41.6788 35.4375L39.5259 32.6385C39.0524 32.0229 39.1677 31.14 39.7833 30.6665C40.3989 30.1934 41.2819 30.3083 41.7554 30.924L44.4452 34.4209C44.9055 35.0193 44.9055 35.8553 44.4452 36.4541Z" fill="#B6B6F3"/>
<path d="M31.7479 40.2085C32.3635 39.735 32.4789 38.8521 32.0054 38.2365L29.8524 35.4375L32.0054 32.6385C32.4789 32.0229 32.3635 31.14 31.7479 30.6665C31.1323 30.193 30.2494 30.3083 29.7759 30.924L27.0857 34.4209C26.6257 35.0193 26.6257 35.8553 27.0861 36.4541L29.7759 39.951C30.0527 40.311 30.4698 40.5 30.8917 40.5C31.1909 40.5 31.4923 40.4048 31.7479 40.2085Z" fill="#B6B6F3"/>
<path d="M35.9894 39.4915L38.1456 32.179C38.3654 31.4341 37.9395 30.6522 37.1946 30.4325C36.4497 30.2128 35.6678 30.6387 35.4481 31.3835L33.2919 38.696C33.0721 39.4409 33.498 40.2231 34.2429 40.4425C34.3759 40.4817 34.5095 40.5004 34.6414 40.5004C35.2485 40.5004 35.8088 40.1038 35.9894 39.4915Z" fill="#B6B6F3"/>
<path d="M41.7554 39.951L44.4452 36.4541C44.9055 35.8553 44.9055 35.0193 44.4452 34.4209L41.7554 30.924C41.2819 30.3083 40.3989 30.1934 39.7833 30.6665C39.1677 31.14 39.0524 32.0229 39.5259 32.6385L41.6788 35.4375L39.5259 38.2365C39.0524 38.8521 39.1677 39.735 39.7833 40.2085C40.0386 40.4048 40.3403 40.5 40.6395 40.5C41.061 40.5 41.4781 40.311 41.7554 39.951Z" fill="#B6B6F3"/>
<path d="M31.7484 40.2086C32.364 39.7351 32.4793 38.8521 32.0058 38.2365L29.8529 35.4376L32.0058 32.6386C32.4793 32.023 32.364 31.1401 31.7484 30.6666C31.1328 30.1931 30.2498 30.3084 29.7763 30.924L27.0861 34.421C26.6262 35.0194 26.6262 35.8554 27.0865 36.4542L29.7763 39.9511C30.0532 40.3111 30.4703 40.5001 30.8922 40.5001C31.1914 40.5001 31.4928 40.4049 31.7484 40.2086Z" fill="#353590"/>
<path d="M35.9898 39.4915L38.1461 32.179C38.3658 31.4342 37.9399 30.6523 37.195 30.4326C36.4501 30.2128 35.6683 30.6387 35.4486 31.3836L33.2923 38.6961C33.0726 39.441 33.4985 40.2232 34.2434 40.4426C34.3763 40.4818 34.51 40.5004 34.6418 40.5004C35.249 40.5004 35.8093 40.1038 35.9898 39.4915Z" fill="#353590"/>
<path d="M41.7558 39.9511L44.4456 36.4542C44.906 35.8554 44.906 35.0194 44.4456 34.421L41.7558 30.924C41.2823 30.3084 40.3994 30.1934 39.7838 30.6666C39.1682 31.1401 39.0528 32.023 39.5263 32.6386L41.6793 35.4376L39.5263 38.2365C39.0528 38.8521 39.1682 39.7351 39.7838 40.2086C40.039 40.4049 40.3408 40.5001 40.64 40.5001C41.0615 40.5001 41.4786 40.3111 41.7558 39.9511Z" fill="#353590"/>
</g>
<defs>
<clipPath id="clip0">
<rect width="48" height="48" fill="white" transform="translate(12 12)"/>
</clipPath>
</defs>
</svg>
