<?xml version="1.0" encoding="utf-8"?>
<!-- Generator: Adobe Illustrator 24.1.2, SVG Export Plug-In . SVG Version: 6.00 Build 0)  -->
<svg version="1.1" id="Layer_1" xmlns="http://www.w3.org/2000/svg" xmlns:xlink="http://www.w3.org/1999/xlink" x="0px" y="0px"
	 viewBox="0 0 72 72" style="enable-background:new 0 0 72 72;" xml:space="preserve">
<style type="text/css">
	.st0{clip-path:url(#SVGID_2_);}
	.st1{fill:#FFFFFF;}
	.st2{fill:#B6B6F3;}
</style>
<g>
	<defs>
		<rect id="SVGID_1_" x="12" y="12" width="48" height="48"/>
	</defs>
	<clipPath id="SVGID_2_">
		<use xlink:href="#SVGID_1_"  style="overflow:visible;"/>
	</clipPath>
	<g class="st0">
		<path class="st1" d="M21.19,54.38v1.87c0,2.07,1.68,3.75,3.75,3.75h22.02c2.07,0,3.75-1.68,3.75-3.75v-1.87H21.19z"/>
		<path class="st1" d="M46.97,12H24.94c-2.07,0-3.75,1.68-3.75,3.75v35.81h29.53V15.75C50.72,13.68,49.03,12,46.97,12z M32.01,38.24
			c0.47,0.62,0.36,1.5-0.26,1.97c-0.26,0.2-0.56,0.29-0.86,0.29c-0.42,0-0.84-0.19-1.12-0.55l-2.69-3.5c-0.46-0.6-0.46-1.43,0-2.03
			l2.69-3.5c0.47-0.62,1.36-0.73,1.97-0.26c0.62,0.47,0.73,1.36,0.26,1.97l-2.15,2.8L32.01,38.24z M38.15,32.18l-2.16,7.31
			c-0.18,0.61-0.74,1.01-1.35,1.01c-0.13,0-0.27-0.02-0.4-0.06c-0.74-0.22-1.17-1-0.95-1.75l2.16-7.31c0.22-0.74,1-1.17,1.75-0.95
			C37.94,30.65,38.37,31.43,38.15,32.18z M33.09,18.47c-0.78,0-1.41-0.63-1.41-1.41s0.63-1.41,1.41-1.41h5.72
			c0.78,0,1.41,0.63,1.41,1.41s-0.63,1.41-1.41,1.41H33.09z M44.45,36.45l-2.69,3.5c-0.28,0.36-0.69,0.55-1.12,0.55
			c-0.3,0-0.6-0.1-0.86-0.29c-0.62-0.47-0.73-1.36-0.26-1.97l2.15-2.8l-2.15-2.8c-0.47-0.62-0.36-1.5,0.26-1.97
			c0.62-0.47,1.5-0.36,1.97,0.26l2.69,3.5C44.91,35.02,44.91,35.86,44.45,36.45z"/>
		<path class="st2" d="M31.75,40.21c0.62-0.47,0.73-1.36,0.26-1.97l-2.15-2.8l2.15-2.8c0.47-0.62,0.36-1.5-0.26-1.97
			c-0.62-0.47-1.5-0.36-1.97,0.26l-2.69,3.5c-0.46,0.6-0.46,1.43,0,2.03l2.69,3.5c0.28,0.36,0.69,0.55,1.12,0.55
			C31.19,40.5,31.49,40.4,31.75,40.21z"/>
		<path class="st2" d="M35.99,39.49l2.16-7.31c0.22-0.74-0.21-1.53-0.95-1.75c-0.74-0.22-1.53,0.21-1.75,0.95l-2.16,7.31
			c-0.22,0.74,0.21,1.53,0.95,1.75c0.13,0.04,0.27,0.06,0.4,0.06C35.25,40.5,35.81,40.1,35.99,39.49z"/>
		<path class="st2" d="M41.76,39.95l2.69-3.5c0.46-0.6,0.46-1.43,0-2.03l-2.69-3.5c-0.47-0.62-1.36-0.73-1.97-0.26
			c-0.62,0.47-0.73,1.36-0.26,1.97l2.15,2.8l-2.15,2.8c-0.47,0.62-0.36,1.5,0.26,1.97c0.26,0.2,0.56,0.29,0.86,0.29
			C41.06,40.5,41.48,40.31,41.76,39.95z"/>
		<path class="st2" d="M31.75,40.21c0.62-0.47,0.73-1.36,0.26-1.97l-2.15-2.8l2.15-2.8c0.47-0.62,0.36-1.5-0.26-1.97
			c-0.62-0.47-1.5-0.36-1.97,0.26l-2.69,3.5c-0.46,0.6-0.46,1.43,0,2.03l2.69,3.5c0.28,0.36,0.69,0.55,1.12,0.55
			C31.19,40.5,31.49,40.4,31.75,40.21z"/>
		<path class="st2" d="M35.99,39.49l2.16-7.31c0.22-0.74-0.21-1.53-0.95-1.75c-0.74-0.22-1.53,0.21-1.75,0.95l-2.16,7.31
			c-0.22,0.74,0.21,1.53,0.95,1.75c0.13,0.04,0.27,0.06,0.4,0.06C35.25,40.5,35.81,40.1,35.99,39.49z"/>
		<path class="st2" d="M41.76,39.95l2.69-3.5c0.46-0.6,0.46-1.43,0-2.03l-2.69-3.5c-0.47-0.62-1.36-0.73-1.97-0.26
			c-0.62,0.47-0.73,1.36-0.26,1.97l2.15,2.8l-2.15,2.8c-0.47,0.62-0.36,1.5,0.26,1.97c0.26,0.2,0.56,0.29,0.86,0.29
			C41.06,40.5,41.48,40.31,41.76,39.95z"/>
	</g>
</g>
</svg>
