<?xml version="1.0" encoding="utf-8"?>
<!-- Generator: Adobe Illustrator 24.1.2, SVG Export Plug-In . SVG Version: 6.00 Build 0)  -->
<svg version="1.1" id="Layer_1" xmlns="http://www.w3.org/2000/svg" xmlns:xlink="http://www.w3.org/1999/xlink" x="0px" y="0px"
	 viewBox="0 0 58 58" style="enable-background:new 0 0 58 58;" xml:space="preserve">
<style type="text/css">
	.st0{fill:#FFFFFF;}
	.st1{fill:#B6B6F3;}
</style>
<path class="st0" d="M19.97,49.56v2.91h-4.22c-0.78,0-1.41,0.63-1.41,1.41s0.63,1.41,1.41,1.41h22.5c0.78,0,1.41-0.63,1.41-1.41
	s-0.63-1.41-1.41-1.41h-4.22v-2.91H19.97z"/>
<path class="st0" d="M4.41,46.75h45.19c0.78,0,1.41-0.63,1.41-1.41V14.41c0-0.78-0.63-1.41-1.41-1.41h-2.91H4.41
	C3.63,13,3,13.63,3,14.41v30.94C3,46.12,3.63,46.75,4.41,46.75z"/>
<path class="st1" d="M16.01,34.83c0.62-0.47,0.73-1.36,0.26-1.97l-2.15-2.8l2.15-2.8c0.47-0.62,0.36-1.5-0.26-1.97
	c-0.62-0.47-1.5-0.36-1.97,0.26l-2.69,3.5c-0.46,0.6-0.46,1.43,0,2.03l2.69,3.5c0.28,0.36,0.69,0.55,1.12,0.55
	C15.45,35.13,15.75,35.03,16.01,34.83z"/>
<path class="st1" d="M20.25,34.12l2.16-7.31c0.22-0.74-0.21-1.53-0.95-1.75s-1.53,0.21-1.75,0.95l-2.16,7.31
	c-0.22,0.74,0.21,1.53,0.95,1.75c0.13,0.04,0.27,0.06,0.4,0.06C19.51,35.13,20.07,34.73,20.25,34.12z"/>
<path class="st1" d="M26.01,34.58l2.69-3.5c0.46-0.6,0.46-1.43,0-2.03l-2.69-3.5c-0.47-0.62-1.36-0.73-1.97-0.26
	c-0.62,0.47-0.73,1.36-0.26,1.97l2.15,2.8l-2.15,2.8c-0.47,0.62-0.36,1.5,0.26,1.97c0.26,0.2,0.56,0.29,0.86,0.29
	C25.32,35.13,25.74,34.94,26.01,34.58z"/>
<path class="st1" d="M39.78,37h13.9c1.54,0,2.78-1.25,2.78-2.78V23.1c0-1.54-1.24-2.78-2.78-2.78h-13.9c-1.54,0-2.78,1.25-2.78,2.78
	v11.12C37,35.75,38.24,37,39.78,37z"/>
<path class="st1" d="M42.4,20.21h-2.78v-6.17c0-3.83,3.06-7,6.88-7.04c3.86-0.04,7.02,3.1,7.02,6.95c0,0.77-0.62,1.39-1.39,1.39
	h-0.07c-0.73,0-1.32-0.59-1.32-1.32c0-2.28-1.81-4.2-4.09-4.24c-2.34-0.04-4.25,1.84-4.25,4.17V20.21z"/>
<path class="st1" d="M48.98,26.73c0-1.23-1.04-2.22-2.29-2.13c-1.06,0.07-1.91,0.93-1.98,1.98c-0.06,0.85,0.39,1.61,1.06,2v3.5
	c0,0.59,0.48,1.07,1.07,1.07c0.59,0,1.07-0.48,1.07-1.07v-3.5C48.55,28.21,48.98,27.52,48.98,26.73z"/>
<path class="st1" d="M54.91,17.43c-0.18,0-0.36-0.07-0.49-0.2c-0.27-0.27-0.27-0.71,0-0.98l1.39-1.39c0.27-0.27,0.71-0.27,0.98,0
	c0.27,0.27,0.27,0.71,0,0.98l-1.39,1.39C55.27,17.36,55.09,17.43,54.91,17.43z"/>
<path class="st1" d="M49.35,17.43c-0.18,0-0.36-0.07-0.49-0.2l-1.39-1.39c-0.27-0.27-0.27-0.71,0-0.98c0.27-0.27,0.71-0.27,0.98,0
	l1.39,1.39c0.27,0.27,0.27,0.71,0,0.98C49.71,17.36,49.53,17.43,49.35,17.43z"/>
</svg>
