<?xml version="1.0" encoding="utf-8"?>
<!-- Generator: Adobe Illustrator 24.1.2, SVG Export Plug-In . SVG Version: 6.00 Build 0)  -->
<svg version="1.1" id="Layer_1" xmlns="http://www.w3.org/2000/svg" xmlns:xlink="http://www.w3.org/1999/xlink" x="0px" y="0px"
	 viewBox="0 0 72 72" style="enable-background:new 0 0 72 72;" xml:space="preserve">
<style type="text/css">
	.st0{fill:#FFFFFF;}
	.st1{fill:#B6B6F3;}
</style>
<path class="st0" d="M27.97,50.28v2.91h-4.22c-0.78,0-1.41,0.63-1.41,1.41c0,0.78,0.63,1.41,1.41,1.41h22.5
	c0.78,0,1.41-0.63,1.41-1.41c0-0.78-0.63-1.41-1.41-1.41h-4.22v-2.91H27.97z"/>
<path class="st0" d="M12.41,47.47h45.19c0.78,0,1.41-0.63,1.41-1.41V15.13c0-0.78-0.63-1.41-1.41-1.41h-2.81H12.41
	c-0.78,0-1.41,0.63-1.41,1.41v30.94C11,46.84,11.63,47.47,12.41,47.47z"/>
<path class="st1" d="M23.36,26.26c-0.73,0-1.33,0.6-1.33,1.33v1.33h2.66v-1.33C24.69,26.86,24.09,26.26,23.36,26.26z"/>
<path class="st1" d="M33.71,19H14.29C13.58,19,13,19.58,13,20.29v21.14h20.71V19z M27.27,35.46c0,0.71-0.58,1.29-1.29,1.29
	c-0.71,0-1.29-0.58-1.29-1.29V31.5h-2.66v3.95c0,0.71-0.58,1.29-1.29,1.29s-1.29-0.58-1.29-1.29v-7.86c0-2.16,1.75-3.91,3.91-3.91
	s3.91,1.75,3.91,3.91V35.46z"/>
<path class="st1" d="M55.71,19H36.29v22.43H57V20.29C57,19.58,56.42,19,55.71,19z M46.69,36.75h-2.66c-0.71,0-1.29-0.58-1.29-1.29
	V24.97c0-0.71,0.58-1.29,1.29-1.29h2.66c3.49,0,5.04,4.21,2.88,6.62C51.78,32.77,50.04,36.75,46.69,36.75z"/>
<path class="st1" d="M46.69,26.26h-1.38v2.75h1.38c0.71,0,1.29-0.58,1.29-1.29v-0.17C47.98,26.84,47.4,26.26,46.69,26.26z"/>
<path class="st1" d="M46.69,31.59h-1.38v2.58h1.38c0.71,0,1.29-0.58,1.29-1.29S47.4,31.59,46.69,31.59z"/>
</svg>
