<svg width="72" height="72" viewBox="0 0 72 72" fill="none" xmlns="http://www.w3.org/2000/svg">
<path d="M27.9688 50.2812V53.1875H23.75C22.9727 53.1875 22.3438 53.8165 22.3438 54.5938C22.3438 55.371 22.9727 56 23.75 56H46.25C47.0273 56 47.6562 55.371 47.6562 54.5938C47.6562 53.8165 47.0273 53.1875 46.25 53.1875H42.0312V50.2812H27.9688Z" fill="#B6B6F3"/>
<path d="M12.4062 47.4687H57.5938C58.371 47.4687 59 46.8398 59 46.0625V15.125C59 14.3477 58.371 13.7188 57.5938 13.7188H54.7812H12.4062C11.629 13.7188 11 14.3477 11 15.125V46.0625C11 46.8398 11.629 47.4687 12.4062 47.4687Z" fill="#B6B6F3"/>
<path d="M23.3555 26.2617C22.621 26.2617 22.0234 26.8592 22.0234 27.5938V28.9258H24.6875V27.5938C24.6875 26.8592 24.09 26.2617 23.3555 26.2617Z" fill="#353590"/>
<path d="M33.7109 19H14.2891C13.5772 19 13 19.5772 13 20.2891V41.4297H33.7109V19ZM27.2656 35.457C27.2656 36.1689 26.6885 36.7461 25.9766 36.7461C25.2647 36.7461 24.6875 36.1689 24.6875 35.457V31.5039H22.0234V35.457C22.0234 36.1689 21.4463 36.7461 20.7344 36.7461C20.0225 36.7461 19.4453 36.1689 19.4453 35.457V27.5938C19.4453 25.4377 21.1994 23.6836 23.3555 23.6836C25.5116 23.6836 27.2656 25.4377 27.2656 27.5938V35.457Z" fill="#353590"/>
<path d="M55.7109 19H36.2891V41.4297H57V20.2891C57 19.5772 56.4228 19 55.7109 19ZM46.6875 36.7461H44.0234C43.3115 36.7461 42.7344 36.1689 42.7344 35.457V24.9727C42.7344 24.2607 43.3115 23.6836 44.0234 23.6836H46.6875C50.1734 23.6836 51.7234 27.895 49.5676 30.3008C51.778 32.7674 50.0414 36.7461 46.6875 36.7461Z" fill="#353590"/>
<path d="M46.6875 26.2617H45.3125V29.0117H46.6875C47.3983 29.0117 47.9766 28.4334 47.9766 27.7227V27.5508C47.9766 26.84 47.3983 26.2617 46.6875 26.2617Z" fill="#353590"/>
<path d="M46.6875 31.5898H45.3125V34.168H46.6875C47.3983 34.168 47.9766 33.5897 47.9766 32.8789C47.9766 32.1681 47.3983 31.5898 46.6875 31.5898Z" fill="#353590"/>
</svg>
