<?xml version="1.0" encoding="utf-8"?>
<!-- Generator: Adobe Illustrator 24.1.2, SVG Export Plug-In . SVG Version: 6.00 Build 0)  -->
<svg version="1.1" id="Layer_1" xmlns="http://www.w3.org/2000/svg" xmlns:xlink="http://www.w3.org/1999/xlink" x="0px" y="0px"
	 viewBox="0 0 100 100" style="enable-background:new 0 0 100 100;" xml:space="preserve">
<style type="text/css">
	.st0{fill:#616E7D;}
	.st1{fill:#35378F;}
</style>
<g>
	<path class="st0" d="M9.15,67.45c0,1.49-0.81,2.76-1.94,3.23l0.04,0.18h9.15c0.14,0.01,0.28,0.01,0.42,0.01
		c4.39,0,7.92-3.7,7.65-8.15c-0.24-3.81-3.34-6.92-7.16-7.16c-4.46-0.28-8.15,3.25-8.15,7.65l0,0.14h0V67.45z"/>
	<path class="st0" d="M12.38,71.59c-3.98,0-7.2,3.22-7.2,7.2v3.5h23.28v-3.5c0-3.98-3.23-7.2-7.2-7.2H12.38z"/>
	<path class="st0" d="M81.4,53.42v-31.5c0-2.26-1.76-4.1-3.93-4.1H21.35c-2.17,0-3.93,1.84-3.93,4.1v31.94
		c0.9,0.07,1.74,0.23,2.51,0.48V21.92c0-0.88,0.64-1.59,1.42-1.59h56.11c0.79,0,1.42,0.71,1.42,1.59V54.2
		C79.64,53.84,80.48,53.58,81.4,53.42z"/>
	<path class="st0" d="M28.57,64.41c0,3.15,2.55,5.7,5.7,5.7c3.15,0,5.7-2.55,5.7-5.7c0-3.15-2.55-5.7-5.7-5.7
		C31.12,58.71,28.57,61.26,28.57,64.41z"/>
	<path class="st0" d="M41.93,63.07c0,4.26,3.46,7.72,7.72,7.72c4.26,0,7.72-3.46,7.72-7.72c0-4.26-3.46-7.72-7.72-7.72
		C45.39,55.35,41.93,58.81,41.93,63.07z"/>
	<path class="st0" d="M45.18,71.52c-4.01,0-7.26,3.25-7.26,7.26v3.52h23.45v-3.52c0-4.01-3.25-7.26-7.26-7.26H45.18z"/>
	<path class="st0" d="M82.46,55.35c-4.26,0-7.72,3.46-7.72,7.72c0,4.26,3.46,7.72,7.72,7.72s7.72-3.46,7.72-7.72
		C90.18,58.81,86.72,55.35,82.46,55.35z"/>
	<path class="st0" d="M77.99,71.52c-4.01,0-7.26,3.25-7.26,7.26v3.52h23.45v-3.52c0-4.01-3.25-7.26-7.26-7.26H77.99z"/>
	<path class="st0" d="M61.73,70.65c-1.24,0-2.39,0.43-3.3,1.14c2.3,1.42,3.85,3.94,3.9,6.82h7.54c0.05-2.33,1.08-4.42,2.69-5.87
		c-0.98-1.27-2.51-2.09-4.24-2.09H61.73z"/>
	<path class="st0" d="M26.73,72.74c1.62,1.45,2.65,3.54,2.69,5.87h7.56c0.06-2.88,1.6-5.39,3.89-6.82c-0.91-0.71-2.06-1.15-3.3-1.15
		h-6.6C29.24,70.65,27.71,71.47,26.73,72.74z"/>
	<path class="st0" d="M64.61,58.73c-2.84,0.18-5.16,2.49-5.34,5.34c-0.21,3.32,2.43,6.08,5.7,6.08l0.32-0.01h6.82L72.13,70
		c-0.84-0.35-1.45-1.29-1.45-2.41v-3.05h0l0-0.11C70.69,61.16,67.93,58.53,64.61,58.73z"/>
	<path class="st0" d="M58.83,26.16c-1.95-1.81-4.86-3.02-7.93-3.08l-0.07,11.33L58.83,26.16z"/>
	<path class="st0" d="M48.76,23c-8.02,0-13.95,6.51-13.95,14.53c0,8.02,6.5,14.53,14.53,14.53c5.62,0,10.86-3.32,12.78-7.61
		l-13.07-6.92V23L48.76,23z"/>
	<polygon class="st1" points="55.36,38.72 58.34,29.21 56.25,31.36 54.15,38.07 	"/>
	<polygon class="st1" points="53.79,37.87 55.63,32 53.54,34.15 52.57,37.22 	"/>
	<path class="st1" d="M60.08,41.25l2.94-9.38c-0.25-0.61-0.54-1.19-0.87-1.75L58.87,40.6L60.08,41.25z"/>
	<path class="st1" d="M61.66,42.09l2.22-7.08c-0.12-0.87-0.34-1.72-0.62-2.53l-2.82,8.96L61.66,42.09z"/>
	<path class="st1" d="M62.73,42.66C63.64,40.9,64,38.82,64,36.7c0-0.23-0.01-0.45-0.02-0.68l-1.97,6.26L62.73,42.66z"/>
	<path class="st1" d="M55.72,38.91l1.22,0.65l3.65-11.61c-0.16-0.18-0.32-0.35-0.49-0.52l-1.13,1.16L55.72,38.91z"/>
	<polygon class="st1" points="52.92,34.79 51.24,36.51 52.21,37.03 	"/>
	<path class="st1" d="M58.51,40.4l3.37-10.74c-0.3-0.48-0.63-0.93-0.99-1.36l-3.6,11.45L58.51,40.4z"/>
</g>
</svg>
