<?xml version="1.0" encoding="utf-8"?>
<!-- Generator: Adobe Illustrator 24.1.2, SVG Export Plug-In . SVG Version: 6.00 Build 0)  -->
<svg version="1.1" id="Layer_1" xmlns="http://www.w3.org/2000/svg" xmlns:xlink="http://www.w3.org/1999/xlink" x="0px" y="0px"
	 viewBox="0 0 100 100" style="enable-background:new 0 0 100 100;" xml:space="preserve">
<style type="text/css">
	.st0{fill:#616E7D;}
	.st1{fill:#35378F;}
	.st2{fill:#FFFFFF;}
</style>
<g>
	<path class="st0" d="M45.54,37.85h14.63c1.72,0,3.12-1.22,3.12-2.73V20.24c0-1.51-1.4-2.73-3.12-2.73H28.65
		c-1.72,0-3.11,1.22-3.11,2.73v14.88c0,1.51,1.39,2.73,3.11,2.73h12.67l-0.42,4.67L45.54,37.85z"/>
	<path class="st1" d="M73.81,42.59V32.4c0-0.94-0.87-1.71-1.95-1.71H64.7v5.37c0,1.62-1.51,2.94-3.36,2.94h-9.46v3.58
		c0,0.94,0.87,1.71,1.95,1.71h9.62l2.9,2.93l-0.26-2.93h5.78C72.94,44.3,73.81,43.53,73.81,42.59z"/>
	<path class="st0" d="M22.19,59.37c0,4.09,3.32,7.41,7.41,7.41c4.09,0,7.41-3.32,7.41-7.41c0-4.09-3.32-7.41-7.41-7.41
		C25.51,51.96,22.19,55.28,22.19,59.37z"/>
	<path class="st0" d="M65.28,67.48c-1.62,0-3.1,0.56-4.28,1.48c2.99,1.85,4.99,5.12,5.07,8.87h14.75v-3.38
		c0-3.84-3.12-6.96-6.96-6.96H65.28z M71.4,71.96l1.39,1.35l-3.23,3.5l-3.23-3.5l1.39-1.35c0,0-2.07-1.88-2.17-2.04
		c-0.17-0.29,1.28-1.26,1.28-1.26l2.73,8.15l2.72-8.15c0,0,1.44,0.97,1.28,1.26C73.48,70.09,71.4,71.96,71.4,71.96z"/>
	<path class="st0" d="M18.35,74.44v3.38h14.78c0.07-3.74,2.07-7.01,5.05-8.86c-1.18-0.93-2.67-1.49-4.29-1.49h-8.58
		C21.46,67.48,18.35,70.59,18.35,74.44z M33.48,68.21c0.16,0,0.32,0.01,0.47,0.02l-1.6,8.39h-1.03l-0.86-5.64h-0.03l0.84-1.55h-3.37
		l0.84,1.55h-0.03l-0.86,5.64h-1.03l-1.6-8.39c0.16-0.01,0.31-0.02,0.47-0.02H33.48z"/>
	<path class="st2" d="M30.47,70.98l0.86,5.64h1.03l1.6-8.39c-0.16-0.01-0.31-0.02-0.47-0.02h-7.77c-0.16,0-0.32,0.01-0.47,0.02
		l1.6,8.39h1.03l0.86-5.64h0.03l-0.84-1.55h3.37l-0.84,1.55H30.47z"/>
	<path class="st0" d="M39.55,57.62c0,5.54,4.49,10.03,10.03,10.03c5.54,0,10.03-4.49,10.03-10.03c0-5.54-4.49-10.03-10.03-10.03
		C44.04,47.59,39.55,52.08,39.55,57.62z"/>
	<polygon class="st0" points="48.44,73.35 47.3,71.25 47.3,71.25 	"/>
	<path class="st0" d="M43.78,68.6c-5.21,0-9.43,4.22-9.43,9.43v4.58h30.47v-4.58c0-5.21-4.22-9.43-9.43-9.43H43.78z M53.32,80.98
		h-1.39h-4.69h-1.39l-2.16-11.36c0.22-0.02,0.43-0.03,0.64-0.03h10.52c0.21,0,0.43,0.02,0.64,0.03L53.32,80.98z"/>
	<path class="st2" d="M50.77,73.35l1.16,7.64h1.39l2.16-11.36c-0.21-0.02-0.42-0.03-0.64-0.03H44.32c-0.21,0-0.42,0.02-0.64,0.03
		l2.16,11.36h1.39l1.16-7.64h0.04l-1.14-2.1l0,0h4.56l-1.14,2.1H50.77z"/>
	<polygon class="st1" points="47.24,80.98 51.93,80.98 50.77,73.35 50.72,73.35 51.86,71.25 47.3,71.25 48.44,73.35 48.4,73.35 	"/>
	<path class="st2" d="M73.57,69.92c0.17-0.29-1.28-1.26-1.28-1.26l-2.72,8.15l3.23-3.5l-1.39-1.35
		C71.4,71.96,73.48,70.09,73.57,69.92z"/>
	<path class="st2" d="M69.57,76.81l-2.73-8.15c0,0-1.44,0.97-1.28,1.26c0.09,0.16,2.17,2.04,2.17,2.04l-1.39,1.35L69.57,76.81z"/>
	<path class="st0" d="M68.68,51.86c-3.72,0.23-6.75,3.26-6.98,6.98c-0.27,4.34,3.17,7.95,7.46,7.95c0.14,0,0.28,0,0.41-0.01h8.92
		l0.04-0.18c-1.11-0.46-1.9-1.69-1.9-3.15v-3.99h0l0-0.14C76.63,55.03,73.02,51.59,68.68,51.86z"/>
	<path class="st0" d="M5.6,71.45v2.59h11.29c0.06-2.87,1.59-5.37,3.88-6.79c-0.9-0.71-2.04-1.13-3.28-1.13h-6.57
		C7.99,66.12,5.6,68.5,5.6,71.45z M12.13,67.02l2.08,6.24l2.09-6.24c0,0,1.1,0.74,0.98,0.97c-0.07,0.12-1.66,1.56-1.66,1.56
		l1.07,1.03l-2.48,2.68l-2.47-2.68l1.07-1.03c0,0-1.58-1.44-1.66-1.56C11.03,67.77,12.13,67.02,12.13,67.02z"/>
	<path class="st2" d="M14.21,73.26l-2.08-6.24c0,0-1.1,0.74-0.98,0.97c0.07,0.12,1.66,1.56,1.66,1.56l-1.07,1.03L14.21,73.26z"/>
	<path class="st2" d="M17.28,67.99c0.12-0.22-0.98-0.97-0.98-0.97l-2.09,6.24l2.48-2.68l-1.07-1.03
		C15.62,69.55,17.2,68.11,17.28,67.99z"/>
	<path class="st0" d="M8.25,63.06c0,1.11-0.6,2.05-1.44,2.39l0.03,0.14h6.77l0.31,0.01c3.26,0,5.87-2.74,5.67-6.04
		c-0.18-2.83-2.48-5.13-5.3-5.3c-3.3-0.21-6.04,2.41-6.04,5.66l0,0.11h0V63.06z"/>
	<path class="st0" d="M81.85,66.12c-1.23,0-2.37,0.43-3.27,1.13c2.29,1.42,3.82,3.92,3.88,6.79h11.29v-2.59
		c0-2.94-2.39-5.33-5.33-5.33H81.85z M87.17,72.84h-0.76l-0.63-4.16h-0.02l0.62-1.14h0H83.9l0.62,1.14H84.5l-0.63,4.16H83.1
		l-1.18-6.19c0.12-0.01,0.23-0.02,0.35-0.02H88c0.12,0,0.23,0.01,0.35,0.02L87.17,72.84z"/>
	<path class="st0" d="M79.51,59.87c0,3.11,2.52,5.63,5.63,5.63c3.11,0,5.63-2.52,5.63-5.63c0-3.11-2.52-5.63-5.63-5.63
		C82.03,54.24,79.51,56.76,79.51,59.87z"/>
	<path class="st2" d="M85.78,68.69l0.63,4.16h0.76l1.18-6.19c-0.11-0.01-0.23-0.02-0.35-0.02h-5.73c-0.12,0-0.23,0.01-0.35,0.02
		l1.18,6.19h0.76l0.63-4.16h0.02l-0.62-1.14h2.48h0l-0.62,1.14H85.78z"/>
</g>
</svg>
